<svg xmlns="http://www.w3.org/2000/svg" viewBox="0 0 180 180"><defs><style>.cls-1,.cls-2,.cls-4{fill:#eb7324;}.cls-1{stroke:#e5e5e4;stroke-width:1.19px;}.cls-1,.cls-2,.cls-3{stroke-miterlimit:10;}.cls-2,.cls-3{stroke:#fff;stroke-width:7.77px;}.cls-3,.cls-5{fill:#211c1b;}.cls-6{fill:#fff;}.cls-7{fill:#010101;}</style></defs><title>Bank_edited</title><g id="Layer_9" data-name="Layer 9"><circle class="cls-1" cx="90" cy="90" r="86.59"/><path class="cls-2" d="M146.94,37.33c0,.24-.24.24-.24.48A31.7,31.7,0,0,1,137,50.38a39.39,39.39,0,0,1-10.67,5.93,50.8,50.8,0,0,1-11.39,3.09,61.73,61.73,0,0,1-9.25,1H39l.72-1.43a30.58,30.58,0,0,1,9-11.39,50.49,50.49,0,0,1,12.57-6.88,49.82,49.82,0,0,1,10.21-2.6l6.88-.72,2.37-.23H146.7A.23.23,0,0,0,146.94,37.33Z"/><path class="cls-3" d="M85.49,65.33c-1.42.71-2.84,1.18-4.27,1.9A25.93,25.93,0,0,0,71,76a72.66,72.66,0,0,0-4.74,8.54,62.05,62.05,0,0,1-7.12,12.1,32.23,32.23,0,0,1-4.75,5.22,26.43,26.43,0,0,1-2.6,1.43.23.23,0,0,0-.24.23l1.9.24a55,55,0,0,0,22.3-3.32A26.53,26.53,0,0,0,90.24,88.1,74.57,74.57,0,0,0,94,80.51,88.16,88.16,0,0,1,100,70.31a19,19,0,0,1,3.56-4,3.31,3.31,0,0,1,2.14-.72,28.85,28.85,0,0,1,13,5.22,10.85,10.85,0,0,1,4.5,10.92,19,19,0,0,1-4,9.25,44.63,44.63,0,0,1-8.3,8.06A63.81,63.81,0,0,1,100,105.66,92.07,92.07,0,0,1,73.63,114a105.46,105.46,0,0,1-14.71,1.19,53.63,53.63,0,0,1-13.76-1.66,23.18,23.18,0,0,1-8.54-3.8,11.82,11.82,0,0,1-5-8.3A12.34,12.34,0,0,1,34,91.9a39.61,39.61,0,0,1,8.54-9.25A66.27,66.27,0,0,1,52,76.24a102,102,0,0,1,17.32-7.12,51.78,51.78,0,0,1,16.13-3.79Z"/><path class="cls-4" d="M146.94,37.33c0,.24-.24.24-.24.48A31.7,31.7,0,0,1,137,50.38a39.39,39.39,0,0,1-10.67,5.93,50.8,50.8,0,0,1-11.39,3.09,61.73,61.73,0,0,1-9.25,1H39l.72-1.43a30.58,30.58,0,0,1,9-11.39,50.49,50.49,0,0,1,12.57-6.88,49.82,49.82,0,0,1,10.21-2.6l6.88-.72,2.37-.23H146.7A.23.23,0,0,0,146.94,37.33Z"/><path class="cls-5" d="M85.49,65.33c-1.42.71-2.84,1.18-4.27,1.9A25.93,25.93,0,0,0,71,76a72.66,72.66,0,0,0-4.74,8.54,62.05,62.05,0,0,1-7.12,12.1,32.23,32.23,0,0,1-4.75,5.22,26.43,26.43,0,0,1-2.6,1.43.23.23,0,0,0-.24.23l1.9.24a55,55,0,0,0,22.3-3.32A26.53,26.53,0,0,0,90.24,88.1,74.57,74.57,0,0,0,94,80.51,88.16,88.16,0,0,1,100,70.31a19,19,0,0,1,3.56-4,3.31,3.31,0,0,1,2.14-.72,28.85,28.85,0,0,1,13,5.22,10.85,10.85,0,0,1,4.5,10.92,19,19,0,0,1-4,9.25,44.63,44.63,0,0,1-8.3,8.06A63.81,63.81,0,0,1,100,105.66,92.07,92.07,0,0,1,73.63,114a105.46,105.46,0,0,1-14.71,1.19,53.63,53.63,0,0,1-13.76-1.66,23.18,23.18,0,0,1-8.54-3.8,11.82,11.82,0,0,1-5-8.3A12.34,12.34,0,0,1,34,91.9a39.61,39.61,0,0,1,8.54-9.25A66.27,66.27,0,0,1,52,76.24a102,102,0,0,1,17.32-7.12,51.78,51.78,0,0,1,16.13-3.79Z"/><polygon class="cls-6" points="61.29 102.34 79.8 97.35 88.1 90.71 93.56 79.56 98.54 71.5 102.81 65.09 104 62.24 93.32 62.24 85.73 66.75 79.56 69.83 74.58 75.77 69.83 82.41 66.51 89.29 63.9 94.51 61.29 102.34"/><path class="cls-6" d="M27.84,137.45v-10H24.52v-1.89H34v1.89H30.45v10Z"/><path class="cls-6" d="M37.57,125.59v4.27a3,3,0,0,1,2.61-1.19,2.79,2.79,0,0,1,2.37,1,1.79,1.79,0,0,1,.48.95v6.64H40.65V132.7c0-.95,0-1.42-.23-1.66a.51.51,0,0,0-.48-.47.85.85,0,0,0-.71-.24c-.47,0-.71,0-.95.24a3.28,3.28,0,0,0-.71,1,3.47,3.47,0,0,0-.24,1.66v4.27H35V125.59Z"/><path class="cls-6" d="M46.82,131.28l-2.13-.48a3.4,3.4,0,0,1,3.79-2.61,7,7,0,0,1,2.38.48c.71.24,1,.47,1,1a4.8,4.8,0,0,1,.23,2.13V136c0,.48.24.72.48,1.19H50.14c0-.24-.23-.47-.23-.71v-.24a4.13,4.13,0,0,1-1.19,1,3.83,3.83,0,0,1-3.56-.47,2.73,2.73,0,0,1-.71-1.9,1.77,1.77,0,0,1,.24-1.19,1.87,1.87,0,0,1,1-1,3.73,3.73,0,0,1,1.89-.47,19,19,0,0,1,2.14-.48v-.23c0-.48,0-.72-.24-1s-.71-.24-1.18-.24-.72,0-1,.24S47.06,131,46.82,131.28Zm3.09,1.9a8.64,8.64,0,0,1-1.43.23c-.71.24-.95.24-1.18.48s-.48.47-.48.71.24.71.48.71c.23.24.47.24,1,.24s.71-.24,1.18-.48c.24-.23.48-.47.48-.71v-1.18Z"/><path class="cls-6" d="M62,137.45H59.63v-4.51a4.22,4.22,0,0,0-.23-1.9,1.87,1.87,0,0,0-.48-.71.86.86,0,0,0-.71-.24c-.47,0-.71,0-1,.24a3.24,3.24,0,0,0-.71.95c0,.47-.24.95-.24,1.9V137H53.94v-8.54h2.14v1.19a3.38,3.38,0,0,1,2.84-1.43,3,3,0,0,1,1.43.24,3.36,3.36,0,0,1,.94.71,1.83,1.83,0,0,1,.48,1c0,.48.24.95.24,1.43Z"/><path class="cls-6" d="M66,131.28l-2.14-.48a3.42,3.42,0,0,1,3.8-2.61,6.92,6.92,0,0,1,2.37.48c.71.24,1,.47,1,1a4.61,4.61,0,0,1,.24,2.13V136c0,.48.24.72.47,1.19H69.36c0-.24-.24-.47-.24-.71v-.24a4.1,4.1,0,0,1-1.18,1,3,3,0,0,1-1.43.24,2.9,2.9,0,0,1-2.13-.71,2.69,2.69,0,0,1-.71-1.9,1.83,1.83,0,0,1,.23-1.19,1.91,1.91,0,0,1,.95-1,3.78,3.78,0,0,1,1.9-.47,19,19,0,0,1,2.14-.48v-.23c0-.48,0-.72-.24-1a1.77,1.77,0,0,0-1.19-.24c-.47,0-.71,0-.95.24S66,131,66,131.28Zm2.85,1.9a8.84,8.84,0,0,1-1.43.23c-.71.24-.95.24-1.18.48s-.48.47-.48.71.24.71.48.71c.23.24.47.24,1,.24s.71-.24,1.18-.48c.24-.23.48-.47.48-.71v-1.18Z"/><path class="cls-6" d="M80.75,131.28l-2.14.47a1.24,1.24,0,0,0-.47-.95,1.46,1.46,0,0,0-1-.23,3.27,3.27,0,0,0-1.42.47,3.66,3.66,0,0,0-.48,1.9,4.65,4.65,0,0,0,.48,2.13,1.42,1.42,0,0,0,1.42.72,1.24,1.24,0,0,0,1-.48,1.79,1.79,0,0,0,.47-1.18l2.14.47A4,4,0,0,1,79.32,137a4.73,4.73,0,0,1-2.61.71,4.51,4.51,0,0,1-3.08-1.18,5.23,5.23,0,0,1,0-6.64,4.06,4.06,0,0,1,3.08-1.19,4.81,4.81,0,0,1,2.61.71A2.46,2.46,0,0,1,80.75,131.28Z"/><path class="cls-6" d="M84.54,125.59v4.27a3.71,3.71,0,0,1,4-1,3.21,3.21,0,0,1,1,.71,1.85,1.85,0,0,1,.47.95,13.05,13.05,0,0,1,.24,1.66v5H87.86V132.7c0-.95,0-1.42-.23-1.66a.51.51,0,0,0-.48-.47.85.85,0,0,0-.71-.24c-.47,0-.71,0-1,.24a3.28,3.28,0,0,0-.71,1,3.47,3.47,0,0,0-.24,1.66v4.27H82.17V125.59Z"/><path class="cls-6" d="M94,131.28l-2.13-.48a3.4,3.4,0,0,1,3.79-2.61,7,7,0,0,1,2.38.48c.71.24.94.47.94,1a4.61,4.61,0,0,1,.24,2.13V136c0,.48.24.72.48,1.19H97.35c0-.24-.23-.47-.23-.71v-.24a4.13,4.13,0,0,1-1.19,1,3.83,3.83,0,0,1-3.56-.47,2.73,2.73,0,0,1-.71-1.9,1.77,1.77,0,0,1,.24-1.19,1.87,1.87,0,0,1,.95-1,3.73,3.73,0,0,1,1.89-.47,19,19,0,0,1,2.14-.48v-.23c0-.48,0-.72-.24-1s-.71-.24-1.18-.24-.72,0-.95.24S94.27,131,94,131.28Zm3.09,1.9a8.64,8.64,0,0,1-1.43.23c-.71.24-1,.24-1.18.48s-.48.47-.48.71,0,.71.48.71c.23.24.47.24.95.24s.71-.24,1.18-.48c.24-.23.48-.47.48-.71v-1.18Z"/><path class="cls-6" d="M103.52,137.45h-2.37v-8.54h2.14v1.18c.47-.47.71-1,.94-1.18a1.43,1.43,0,0,1,1-.24,3.49,3.49,0,0,1,1.43.47l-.72,1.9c-.47-.24-.71-.47-1.18-.47a.88.88,0,0,0-.71.23,1.24,1.24,0,0,0-.48.95c0,.48-.23,1.43-.23,2.85v2.85Z"/><path class="cls-6" d="M111.59,128.67v1.9h-1.66v4.74a.24.24,0,0,0,.24.24h.47a1.78,1.78,0,0,0,1-.24l.24,1.66a4.6,4.6,0,0,1-1.9.24,2.13,2.13,0,0,1-1.19-.24c-.24-.23-.47-.23-.71-.47s-.24-.48-.24-.95v-5.46h-1v-1.9h1v-1.66l2.38-1.42v3.08h1.42Z"/><path class="cls-7" d="M117.52,125.59h6.88a3.18,3.18,0,0,1,2.13,1.42,3.33,3.33,0,0,1,.48,1.42,2.54,2.54,0,0,1-.48,1.43,2.31,2.31,0,0,1-1.18.94A2.79,2.79,0,0,1,127,132a2.88,2.88,0,0,1,.47,1.9,4.39,4.39,0,0,1-.47,1.66,5.37,5.37,0,0,1-1,1.19,2.83,2.83,0,0,1-1.66.47h-6.88Zm2.37,1.89v2.85h3.32a1.25,1.25,0,0,0,1-.47c.24-.24.24-.48.24-1s0-.72-.24-1a1.23,1.23,0,0,0-1-.48h-3.32Zm0,4.75v3.08h3.8a1.27,1.27,0,0,0,1-.47c.23-.24.23-.48.23-1s0-.71-.23-.95-.48-.47-.72-.47a12.69,12.69,0,0,0-2.13-.24Z"/><path class="cls-7" d="M131,131.28l-2.13-.48a3.71,3.71,0,0,1,1.18-1.89,3.81,3.81,0,0,1,2.61-.72,6.92,6.92,0,0,1,2.37.48c.72.24,1,.47,1,1a4.61,4.61,0,0,1,.24,2.13V136c0,.48.24.72.48,1.19h-2.38c0-.24-.23-.47-.23-.71v-.24a4.27,4.27,0,0,1-1.19,1,3.83,3.83,0,0,1-3.56-.47,2.73,2.73,0,0,1-.71-1.9,1.77,1.77,0,0,1,.24-1.19,1.84,1.84,0,0,1,1-1,3.7,3.7,0,0,1,1.89-.47,19,19,0,0,1,2.14-.48v-.23c0-.48,0-.72-.24-1a1.75,1.75,0,0,0-1.18-.24c-.48,0-.72,0-.95.24S131.28,131,131,131.28Zm3.09,1.9a8.84,8.84,0,0,1-1.43.23c-.71.24-.95.24-1.18.48s-.48.47-.48.71,0,.71.48.71c.23.24.47.24.95.24s.71-.24,1.18-.48c.24-.23.48-.47.48-.71v-1.18Z"/><path class="cls-7" d="M146.22,137.45h-2.37v-4.51a4.22,4.22,0,0,0-.23-1.9,1.87,1.87,0,0,0-.48-.71.86.86,0,0,0-.71-.24c-.48,0-.71,0-1,.24a3.24,3.24,0,0,0-.71.95,4,4,0,0,0-.24,1.9V137h-2.37v-8.54h2.13v1.19a3.4,3.4,0,0,1,2.85-1.43,2.94,2.94,0,0,1,1.42.24,3.28,3.28,0,0,1,.95.71,1.83,1.83,0,0,1,.48,1c0,.24.23.95.23,1.43Z"/><path class="cls-7" d="M148.36,137.45V125.59h2.37V132l2.61-3.08h2.85L153.34,132l3.09,5.46h-2.38l-2.13-3.8-.95,1.19v2.84h-2.61Z"/></g></svg>