<svg xmlns="http://www.w3.org/2000/svg" viewBox="0 0 180 180"><defs><style>.cls-1{fill:#233e79;stroke:#e5e5e4;stroke-miterlimit:10;stroke-width:1.19px;}.cls-2{fill:#e22f2b;}.cls-3{fill:#fff;}</style></defs><title>Bank_edited</title><g id="Layer_7" data-name="Layer 7"><circle class="cls-1" cx="90" cy="90" r="86.35"/><path class="cls-2" d="M102.34,89.05v17.08a4.3,4.3,0,0,1-3.8,4.75h-.47a4.46,4.46,0,0,1-4.27-4.51V72.21c0-1.9,0-1.9-1.9-1.9H87.15c-1.18,0-1.66.47-1.42,1.42v34.4a4.66,4.66,0,0,1-2.61,4.51,4.09,4.09,0,0,1-5.46-2.14,1.8,1.8,0,0,1-.23-1.18V72c0-1.66,0-1.66-1.66-1.66H71c-1.42,0-1.66,0-1.66,1.66v34.87a4.24,4.24,0,0,1-2.37,3.8,3.55,3.55,0,0,1-4.27-.24,9.69,9.69,0,0,1-1.66-2.61,8,8,0,0,1-.24-2.37v-33c0-1.89,0-1.89-1.9-1.89H49.43a3.88,3.88,0,0,1-4.27-3.8v-.24a3.92,3.92,0,0,1,4.27-4h9.49c2.14,0,2.14,0,2.14-1.9V27.37a7.44,7.44,0,0,1,.95-3.8,3.73,3.73,0,0,1,4.5-1.42A3.85,3.85,0,0,1,69.12,26v34.4c0,1.89,0,1.89,1.9,1.89h4.27c1.9,0,1.9,0,1.9-1.89V25.23a4,4,0,0,1,4.51-3.55,3.83,3.83,0,0,1,3.56,3.55V60.35c0,1.89,0,1.89,1.89,1.89h4.27c1.9,0,1.9,0,1.9-1.89V26.66a8.33,8.33,0,0,1,.48-2.37,4,4,0,0,1,4.27-2.61,3.63,3.63,0,0,1,3.79,3.08,5.06,5.06,0,0,1,0,1.9V59.87c0,2.14,0,2.14,2.14,2.14h4c1.9,0,1.9,0,1.9-1.9V26.9a6.5,6.5,0,0,1,.24-2.14,4.33,4.33,0,0,1,4.27-3.32A4.29,4.29,0,0,1,118.23,25V60.11c0,1.9,0,1.9,1.9,1.9h9a4.19,4.19,0,1,1,1.19,8.3H119.65c-1.66,0-1.89,0-1.89,1.9v33.92a4.2,4.2,0,0,1-8.07,2.14,3,3,0,0,1-.24-1.43V72.21c0-1.9,0-1.9-1.89-1.9h-4.51c-1.43,0-1.66.47-1.66,1.66V89.29Z"/><path class="cls-3" d="M124.64,147.41c3.79,0,5.45-1.42,5.45-4.51,0-2.84-1.66-4.5-5-4.5h-7.59v9.25h7.12Zm-.24-14.23c2.85,0,4.51-1.43,4.51-4s-1.66-4.27-3.8-4.27H118v8.31Zm10,3.08a8.1,8.1,0,0,1,3.32,6.88,8.57,8.57,0,0,1-3.32,7.12c-2.13,1.66-4.5,2.37-8.54,2.37h-14a1.12,1.12,0,0,1-1.19-1.19V121.08a1.12,1.12,0,0,1,1.19-1.19h13.52c4,0,5.69.48,7.59,1.9a8.31,8.31,0,0,1,3.08,6.4c0,3.33-1.18,5.7-3.79,6.88a6.7,6.7,0,0,1,2.13,1.19M54.89,152.63c-4.27,0-7.12-.71-9.49-2.61-3.08-2.37-3.8-4.74-3.8-10.2V120.6a1.12,1.12,0,0,1,1.19-1.18h5A1.12,1.12,0,0,1,49,120.6v19c0,3.56.47,4.51,1.66,5.46a6.19,6.19,0,0,0,4.27,1.42A6.19,6.19,0,0,0,59.16,145c1.42-1.19,1.66-2.14,1.66-5.46v-19A1.12,1.12,0,0,1,62,119.42h5a1.11,1.11,0,0,1,1.18,1.18v19.22c0,5.46-.94,7.83-3.79,10.2-2.14,1.9-5.22,2.61-9.49,2.61m34.64-33.69c9.25,0,15.18,6.65,15.18,16.85s-5.93,16.84-15.18,16.84S74.34,146,74.34,135.79s5.7-16.85,15.19-16.85m0,27.76c5,0,8.06-3.8,8.06-10.91s-3.08-10.92-8.06-10.92c-4.75,0-8.07,4-8.07,10.92,0,7.11,2.85,10.91,8.07,10.91"/></g></svg>