<svg xmlns="http://www.w3.org/2000/svg" viewBox="0 0 180 180"><defs><style>.cls-1{fill:#149bd7;stroke:#e5e5e4;stroke-miterlimit:10;stroke-width:1.19px;}.cls-2{fill:#fff;}</style></defs><title>Bank_edited</title><g id="Layer_3" data-name="Layer 3"><circle class="cls-1" cx="90" cy="90" r="86.35"/><path class="cls-2" d="M133.18,48.72c-.24-.47-.48-.71,0-.95a1.79,1.79,0,0,0,.23-1.9,7.49,7.49,0,0,0-2.13-2.61,57.12,57.12,0,0,0-15.42-10.43,13.93,13.93,0,0,0-5.46-1.19,5.13,5.13,0,0,0-5.22,3.56,11,11,0,0,0-.23,2.61,4.48,4.48,0,0,1-3.56,5A7.64,7.64,0,0,1,95,42.08a4.93,4.93,0,0,1-2.13-6.17,12.17,12.17,0,0,1,10-7.83,2.72,2.72,0,0,1,2.85,1.19,3.59,3.59,0,0,0,1-.71c1-1.43.23-2.85-1.43-3.33a21.08,21.08,0,0,0-2.37-.47c-.47-.24-.71-.71-1.19-1.19a.88.88,0,0,0-.71-.23H99.73a9.35,9.35,0,0,1-1.19-.95,7.89,7.89,0,0,0-8.78-.48,35.7,35.7,0,0,0-3.08,2.14,3.12,3.12,0,0,1-2.85.71c.24-.47.71-1,.24-1.42a1,1,0,0,0-1.19-.24,1.59,1.59,0,0,0-.95,1.19c0,.71.48,1.42.95,1.42.24,0,.71.24,1,.24a2.58,2.58,0,0,1-3.32.47C80,26.18,78.85,25.71,80,25c.23-.24.23-.24.23-.48.24-.47-.23-.95-.71-1.18h-.24a1.1,1.1,0,0,0-1.42,1.18,3.28,3.28,0,0,0,2.85,3.8h.47c1,0,1,.47.48.95-1.43,1.9-2.61,3.79-3.8,5.69a8.49,8.49,0,0,1-4.51,3.56c-2.84.95-4.5-.47-4-3.32.24-2.85-1-4.27-4-4.27a11.27,11.27,0,0,0-5.46,1.66,37.37,37.37,0,0,0-8.78,7.35,38.57,38.57,0,0,0-5,7.12c-.47.95-1,1.9.24,2.61.47.24,0,.47,0,.71a14.7,14.7,0,0,0-4.27,8.54,38.79,38.79,0,0,0,0,12.81,28.46,28.46,0,0,0,1.18,6.17c.24.71.48,1.42,1.19,1.19,1.19-.24,1.19.47,1.42,1.18a62.06,62.06,0,0,0,5.7,15.66,60.32,60.32,0,0,1,4.27,8.78,7.35,7.35,0,0,1,.71,3.08,1.62,1.62,0,0,1-1.66,1.66h-.48A3.41,3.41,0,0,0,53,109c-.24,0-.47-.48-1-.24-.24.24,0,.71,0,1a4,4,0,0,0,4.27,2.14A4.07,4.07,0,0,0,59.4,108a15.09,15.09,0,0,0-.72-4.74c-1.42-4.28-3.32-8.55-4.5-13.05-.48-1.43-.71-2.85,1-3.8a4.19,4.19,0,0,0,1.18-1.66,19.89,19.89,0,0,0,1.43-5c0-.48.47-1.19.94-1.19a9,9,0,0,0,6.88-6.4c.24-.71.48-.95,1.43-.95a9.54,9.54,0,0,0,9.72-3.8c.48-.71.72-.47,1,.24a23.81,23.81,0,0,0,2.61,4c1.19,1.19,1.19,1.66.24,3.09a6.36,6.36,0,0,1-2.37,1.89,3,3,0,0,1-1.43.24,14.61,14.61,0,0,0-5.45-.47,6,6,0,0,0-4.75,2.13A2.52,2.52,0,0,0,66,81.46a2.45,2.45,0,0,0,1.9,1.42c.47,0,1.18,0,.47-.71a1.49,1.49,0,0,1,0-1.42c.48-.48,1-.24,1.42,0a10.6,10.6,0,0,0,8.07-.48c.24-.23.71-.47.95-.23a.86.86,0,0,1,.47,1.18c-.47,1,.24.71.72.71a2.12,2.12,0,0,0,1.42-2.84h0c0-.48-.24-1,.24-1.43A5.59,5.59,0,0,0,83.36,76a.71.71,0,0,1,1-.23,20.35,20.35,0,0,0,6.16,2.61c.72.23.48.47.24.94a12.28,12.28,0,0,1-2.37,2.61,5.54,5.54,0,0,1-5,1.19,10.18,10.18,0,0,0-5.93.24A3.26,3.26,0,0,0,74.82,86a2.7,2.7,0,0,0,1,2.84,2.24,2.24,0,0,0,2.13.48c-.24-.48-.71-1-1-1.43,0-.47,0-.94.48-1.18a.72.72,0,0,1,.95,0c3.32,1.66,6.4.71,9.25-.71,1.18-.71,2.13-.48,2.37,1,.24.94.47.71,1,.23a2.15,2.15,0,0,0,.24-2.84L91,84.07c-.48-.48-.48-.95.24-1.19A15.27,15.27,0,0,0,95,79.8a1.58,1.58,0,0,1,1.66-.48,7.72,7.72,0,0,1,4.75,3.8,10.17,10.17,0,0,1-3.8,14h-.24a5.48,5.48,0,0,1-3.79.71,1.62,1.62,0,0,1-1.66-1.66v-.24c0-.47.24-1,.24-1.42,0-.24.23-.71,0-.71-.24-.24-.72,0-1,.23a2.75,2.75,0,0,0-1,2.38c0,1.18-.24,1.42-1.43.71a4.73,4.73,0,0,1-1.89-2.38c0-.23,0-.71-.48-.71s-.47.48-.71.71a3.63,3.63,0,0,0,.71,3.8,7.24,7.24,0,0,0,3.8,1.9,2.28,2.28,0,0,1,1.66.47,8.66,8.66,0,0,0,7.83,1.9c1,0,1,.24.71,1a8.68,8.68,0,0,1-1.19,2.61c-3.56,5.93-8.78,8.07-15.42,8.07a6.13,6.13,0,0,1-5.69-5.7,9.16,9.16,0,0,1,2.61-6.4c.23-.24.71-.48.71-1a5.05,5.05,0,0,0-4,1.9c-2.38,3.08-2.38,6.4-.48,10a13.67,13.67,0,0,1-6.88-4,8.17,8.17,0,0,1-1.42-8.31,7.18,7.18,0,0,1,6.4-4.5,17.8,17.8,0,0,1,5,.23c.23,0,.47.24.71,0s0-.47-.24-.71a6.4,6.4,0,0,0-2.85-2.13A9.68,9.68,0,0,0,67,97.35a11.52,11.52,0,0,0,2.61,15.42,19.25,19.25,0,0,0,8.54,3.56,4.81,4.81,0,0,1,2.61.71,22.45,22.45,0,0,0,12.33,2.85,21.51,21.51,0,0,0,15.42-7.59,20.23,20.23,0,0,0,4.27-15.89,19.83,19.83,0,0,1,0-5.22,25,25,0,0,0-.71-14.48A18.83,18.83,0,0,0,109,71.5a.44.44,0,0,1,.71,0,13.77,13.77,0,0,0,9.73.71c.71-.24,1,0,1,1a43.28,43.28,0,0,0,.23,5.45c.48,2.85,1.19,5.93,3.8,7.83,1.19,1,.95,1.42.47,2.37a85.31,85.31,0,0,0-5.22,15.42,13.41,13.41,0,0,0-.23,6.88,3.33,3.33,0,0,0,4,2.38,3.55,3.55,0,0,0,3.32-3.09c-.71.24-1.18.71-1.9.95a1.9,1.9,0,0,1-2.61-.71c0-.24-.23-.24-.23-.47a6.72,6.72,0,0,1,0-3.09,34.56,34.56,0,0,1,2.37-6.4c3.08-6.65,6.88-12.82,8.54-20.17a.51.51,0,0,1,.47-.47c1.66.23,1.9-1.19,2.38-2.14.71-2.37,1.18-4.74,1.66-7.12C140.29,62.48,139.11,54.89,133.18,48.72Zm-38-24.91a.47.47,0,0,1,.47.48s-.47.47-.71.23a.46.46,0,0,1-.47-.47,1,1,0,0,1,.71-.24ZM94,24.05a1.3,1.3,0,0,0,.71,1.18h0a1.68,1.68,0,0,0,1.43-.71l.71.48h-.71a.23.23,0,0,0-.24.23,1.77,1.77,0,0,1-1.19.24,1,1,0,0,1-.94-.95c0-.23-.24-.47-.24-.71-.24,0,.24.24.47.24ZM110.4,99.49a15.89,15.89,0,0,1-9,15.42A19.05,19.05,0,0,1,90,117.28l-.71-.24a1.3,1.3,0,0,1,1.18-.47,17.9,17.9,0,0,0,13.76-13.28,2.53,2.53,0,0,1,1.43-1.67A7.1,7.1,0,0,0,109,99c.24-.23.47-.94,1-.71.47,0,.47.71.47,1.19Z"/><g id="g6433"><path id="path6435" class="cls-2" d="M37,141.31l-3.86-4.44-.89.89V141H30.17V130.94h2.07v3.85l4.45-3.85h3l-5,4.44L39.36,141H37Z"/></g><g id="g6437"><path id="path6439" class="cls-2" d="M42.49,135.64h2.38c.59,0,.89,0,1.18-.3a1.47,1.47,0,0,0,0-1.78c-.29-.3-.59-.3-1.18-.3H42.49Zm4.45,5.93-.29-.3c-.3-.3-.3-.59-.3-1.19v-.89a1.69,1.69,0,0,0-.3-1.18c-.29-.3-.59-.3-1.18-.3H42.49v3.86H40.42V131.48h4.45c3,0,3.55,1.78,3.55,3a3.17,3.17,0,0,1-.59,1.78l-.29.3h0c.29.29.29.59.59.59a2.26,2.26,0,0,1,.29,1.48v.89h0v.59l.89,1.19H46.94Z"/></g><g id="g6441"><path id="path6443" class="cls-2" d="M53.39,141.31a4,4,0,0,1-3.26-1.19,4.39,4.39,0,0,1-.89-3v-5.63h2.07v5.63a2.53,2.53,0,0,0,.59,1.78,2.26,2.26,0,0,0,1.49.6,2.5,2.5,0,0,0,1.78-.6,2.53,2.53,0,0,0,.59-1.78v-5.63h2.08v5.63a4.44,4.44,0,0,1-.89,3,4.74,4.74,0,0,1-3.56,1.19"/></g><g id="g6445"><path id="path6447" class="cls-2" d="M65.32,141.31,65,141l-4.45-5.93v6.22H58.5V131.23h1.78l4.45,6.23v-6.23h2.08v10.08Z"/></g><g id="g6449"><path id="path6451" class="cls-2" d="M81.25,141.31v-8H78v-1.78h8.3v1.78H83v8Z"/></g><g id="g6453"><path id="path6455" class="cls-2" d="M93.85,141.31v-4.15H89.7v4.15H87.63V131.23H89.7v3.86h4.15v-3.86h2.08v10.08Z"/></g><path id="path6457" class="cls-2" d="M106.84,131.52H109v10h-2.14v-10Z"/><g id="g6459"><path id="path6461" class="cls-2" d="M116.28,135.21h2.37c.6,0,.89,0,1.19-.29s.3-.3.3-.89c0-.3,0-.6-.3-.6-.3-.29-.59-.29-1.19-.29h-2.37Zm0,4.45h2.37a2.22,2.22,0,0,0,1.49-.3c.29-.29.59-.59.59-.89s0-.59-.59-.88a2.22,2.22,0,0,0-1.49-.3h-2.37Zm-2.08,1.78V131.36h4.16a5.51,5.51,0,0,1,2.37.59,2.4,2.4,0,0,1,1.18,2.37,4.12,4.12,0,0,1-.59,1.78h0a4.21,4.21,0,0,1,.89,1.19c0,.3.3.59.3.89a2.69,2.69,0,0,1-1.19,2.37c-.59.59-1.48.59-2.67.59H114.2Z"/></g><g id="g6463"><path id="path6465" class="cls-2" d="M139.07,141.31l-.3-.29-4.44-5.93v6.22h-2.08V131.23H134l.3.3,4.44,5.93v-6.23h2.08v10.08Z"/></g><g id="g6467"><path id="path6469" class="cls-2" d="M148.85,141.31,145,136.87l-.89.89V141H142V130.94h2.08v3.85l4.45-3.85h3l-5,4.44,4.75,5.64h-2.38Z"/></g><g id="g6471"><path id="path6473" class="cls-2" d="M73.09,141.34a4.92,4.92,0,0,1-3.56-1.49,4.72,4.72,0,0,1-1.18-3.56,8.56,8.56,0,0,1,.59-2.67A6.93,6.93,0,0,1,71,131.55a4.38,4.38,0,0,1,2.08-.3,5,5,0,0,1,3,.89,3,3,0,0,1,1.48,2.37v.3H75.46c-.29-.59-.29-.89-.89-1.19a2.28,2.28,0,0,0-1.48-.59,4.3,4.3,0,0,0-1.78.59,1.64,1.64,0,0,0-.89,1.49c0,.29-.3.89-.3,1.18a3.41,3.41,0,0,0,.89,2.38h0a2.72,2.72,0,0,0,2.08.89,4.29,4.29,0,0,0,2.08-.6,2.27,2.27,0,0,0,.59-1.18H72.5V136h5.34v5.63H75.76V141h-.3a6.45,6.45,0,0,1-2.37.3"/></g><g id="g6475"><path id="path6477" class="cls-2" d="M99.89,138h2.67l-1.19-3.26Zm4.15,3.56-.59-1.78H99.3l-.59,1.78H96.63l4.15-10.08h1.48l4.16,10.08Z"/></g><g id="g6479"><path id="path6481" class="cls-2" d="M125.9,138h2.67l-1.19-3.26Zm3.86,3.56-.6-1.78H125l-.59,1.78h-2.08l4.15-10.08H128l4.15,10.08Z"/></g></g></svg>