<svg xmlns="http://www.w3.org/2000/svg" viewBox="0 0 180 180"><defs><style>.cls-1{fill:#1f4695;stroke:#e5e5e4;stroke-miterlimit:10;stroke-width:1.19px;}.cls-2{fill:#fff;}</style></defs><title>Bank_edited</title><g id="Layer_2" data-name="Layer 2"><circle class="cls-1" cx="90" cy="90" r="86.35"/><g id="_3tKKtx.tif" data-name=" 3tKKtx.tif"><path class="cls-2" d="M90,17.41l3.32,4.27c7.36,9.49,14.71,19,21.83,28.7a114.06,114.06,0,0,1,9.49,14.24,39.44,39.44,0,0,1,4,11.15,38.4,38.4,0,0,1,.47,9A24.92,24.92,0,0,1,128,91.9a26.14,26.14,0,0,1-5.46,8.78,73.83,73.83,0,0,1-8.3,6.64l-24,17.08c-.24.24-.48.24-.95,0C80,117.76,71,111.11,61.77,104.47a37,37,0,0,1-7.59-7.35,22.11,22.11,0,0,1-3.32-8.54A40.18,40.18,0,0,1,50.62,81a37,37,0,0,1,3.56-14.24,98.74,98.74,0,0,1,8.3-13.52c5.22-7.12,10.68-14,15.9-21.12L89.05,17.88Zm22.06,47.21a9.16,9.16,0,0,0-2.13-5.94L90.71,32.11l-.24-.23a.44.44,0,0,0-.71,0l-.23.47L77.9,48c-2.85,3.8-5.46,7.59-8.3,11.39a8.06,8.06,0,0,0-1.66,5.22,11.77,11.77,0,0,0,1.89,6.16c1,1.43,2.38,2.85,3.56,4.27L89.53,94.27c.47.47.47.47.94,0l1.9-2.37C97.83,85.26,103.52,78.61,109,72a12.89,12.89,0,0,0,3.08-7.35Zm8.78,17.55a33.09,33.09,0,0,0-.47-4.74c-.48-1.66-1-3.56-1.43-5.22,0-.24-.23-.48-.47-.71-.24.23-.48.23-.48.47a13.6,13.6,0,0,1-1.42,1.9A146.38,146.38,0,0,1,105,89.29c-2.38,2.85-4.75,5.45-7.12,8.3a7,7,0,0,0-1.9,5.7c0,1.89.24,3.79.24,5.69,0,.24,0,.71.24.71a.87.87,0,0,0,.71-.24c5.22-3.79,10.2-7.35,15.42-11.15a19.8,19.8,0,0,0,6.17-7.11A18.18,18.18,0,0,0,120.84,82.17ZM84.07,104h0a9.63,9.63,0,0,0-.24-2.61,7.89,7.89,0,0,0-2.37-3.8c-2.61-3.08-5.22-5.93-7.83-9A150.72,150.72,0,0,1,62,72.68L61.29,72c-.23.24-.47.71-.71,1A25.81,25.81,0,0,0,58.92,80a27.43,27.43,0,0,0,.71,8.77,19.76,19.76,0,0,0,7.6,10.44c3.55,2.61,7.11,5.22,10.67,7.59l4.75,3.56a.85.85,0,0,0,.71.24l.23-.47A28.94,28.94,0,0,0,84.07,104Z"/></g><path class="cls-2" d="M37.81,140.53h1.42a1.25,1.25,0,0,0,1.42-1.42,1.37,1.37,0,0,0-1.42-1.43H37.81m0-1.89H39a1.33,1.33,0,0,0,1.43-1.19c0-.71-.48-1.19-1.43-1.19H37.81Zm-4,7.11v-1.42c.47-.24.71-.47.71-.95v-7.12c0-.47-.24-.71-.71-.94V131h5.93a6.94,6.94,0,0,1,3.08.48,2.71,2.71,0,0,1,1.42,2.61,2.4,2.4,0,0,1-2.13,2.61h0a2.62,2.62,0,0,1,2.37,2.84,2.78,2.78,0,0,1-1.19,2.61,6,6,0,0,1-3.55.71Z"/><path class="cls-2" d="M49.91,138.87c-.71.24-2.14.48-2.14,1.19a.87.87,0,0,0,.95.95,1.78,1.78,0,0,0,1.19-.24m.23,1.42a5,5,0,0,1-2.84.95,2.31,2.31,0,0,1-2.61-2.37c0-1.66,1-2.14,2.61-2.61l2.37-.71v-.71c0-.48-.47-.72-1-.72-.71,0-.95.24-.95.72v.94H44.93v-1.89a8.21,8.21,0,0,1,4.27-1.43,4.86,4.86,0,0,1,2.61.71,2.85,2.85,0,0,1,.94,2.61v2.85c0,.48,0,.95.48,1.19l.24,1.18H50.38"/><path class="cls-2" d="M110.64,140.53h1.42a1.26,1.26,0,0,0,1.43-1.42,1.38,1.38,0,0,0-1.43-1.43h-1.42m0-1.89h1.19a1.33,1.33,0,0,0,1.42-1.19c0-.71-.48-1.19-1.42-1.19h-1.19Zm-4.27,7.11v-1.42c.47-.24.71-.47.71-.95v-7.12c0-.47-.24-.71-.71-.94V131h5.93a6.89,6.89,0,0,1,3.08.48,2.72,2.72,0,0,1,1.43,2.61,2.4,2.4,0,0,1-2.14,2.61h0a2.62,2.62,0,0,1,2.37,2.84,2.77,2.77,0,0,1-1.18,2.61,5.31,5.31,0,0,1-3.32.71Z"/><path class="cls-2" d="M122.74,138.87c-.71.24-2.14.48-2.14,1.19a.87.87,0,0,0,1,.95,1.78,1.78,0,0,0,1.19-.24m0,1.42a5,5,0,0,1-2.85.95,2.31,2.31,0,0,1-2.61-2.37c0-1.66,1-2.14,2.61-2.61l2.37-.71v-.71c0-.48-.47-.72-.94-.72-.72,0-.95.24-.95.72v.94h-2.85v-1.89a8.27,8.27,0,0,1,4.27-1.43,4.81,4.81,0,0,1,2.61.71,2.84,2.84,0,0,1,.95,2.61v2.85c0,.48,0,.95.47,1.19l.24,1.18h-3.32Z"/><path class="cls-2" d="M58,134.6a4.33,4.33,0,0,1,2.61-.71,2.8,2.8,0,0,1,1.66.47,2,2,0,0,1,.72,1.9v4.27a1.3,1.3,0,0,0,.71,1.19v1.18h-3.8a10.49,10.49,0,0,1-.24-2.61V136.5a1.44,1.44,0,0,0-1.42-.24v4.27c0,.48,0,.95.47,1.19v1.18h-4.5v-1.18a1.31,1.31,0,0,0,.71-1.19v-3.79c0-.48-.24-.72-.71-1.19v-1.42H58"/><path class="cls-2" d="M130.8,134.6a4.33,4.33,0,0,1,2.61-.71,2.78,2.78,0,0,1,1.66.47,2.61,2.61,0,0,1,.72,2.14v4a1.3,1.3,0,0,0,.71,1.19v1.18h-3.8a10.94,10.94,0,0,1-.23-2.61V136.5a1.45,1.45,0,0,0-1.43-.24v4.27c0,.48,0,.95.48,1.19v1.18H127v-1.18a1.31,1.31,0,0,0,.71-1.19v-3.79c0-.48-.24-.72-.71-1.19v-1.42h3.79"/><path class="cls-2" d="M69.6,136.26c-.24,0-.71-.24-.95-.24-1.19,0-1.19.95-1.19,1.43v1.9c0,.47.24,1.42,1.19,1.42a1.42,1.42,0,0,0,.95-.24m3.79-5.22a1.31,1.31,0,0,0-.71,1.19v5.93c0,.95,0,2.37-.71,3.08a4.78,4.78,0,0,1-3.08,1,8.88,8.88,0,0,1-4.27-1.18v-1.66H67.7v.71c0,.23.47.23.71.23.71,0,1-1.18,1-1.66v-.47a4.61,4.61,0,0,1-2.37.71c-2.37,0-3.09-1.66-3.09-3.56v-1.66c0-1.9.24-3.79,2.85-3.79a4.73,4.73,0,0,1,2.61.71v-.48h3.8l.23.95Z"/><path class="cls-2" d="M77.43,137l1.18-.95a2,2,0,0,0,.48-1.66v-.23h3.56v1.18c-.24,0-.48.24-.72.48l-2.13,1.66,2.13,2.84a2.41,2.41,0,0,0,.95,1.19v1.42H79.8l-2.37-3.79h0v1.42c0,.48.23.71.71,1.19v1.18H73.63v-1.18a1.3,1.3,0,0,0,.71-1.19v-7.12c0-.47-.23-.71-.71-1.18V131h3.8"/><path class="cls-2" d="M140.77,137,142,136a2,2,0,0,0,.48-1.66v-.23H146v1.18c-.24,0-.48.24-.71.48l-2.14,1.66,2.14,3.08a2.34,2.34,0,0,0,.94,1.19v1.18h-3.08l-2.37-3.79h0v1.42c0,.48.24.71.71,1.19v1.18H137v-1.18a1.3,1.3,0,0,0,.71-1.19v-7.12c0-.47-.23-.71-.71-1.18V131h3.8"/><path class="cls-2" d="M95.93,137l1.19-.95a2,2,0,0,0,.47-1.66v-.23h3.56v1.18c-.24,0-.47.24-.71.48l-2.14,1.66,2.14,2.84a2.35,2.35,0,0,0,1,1.19v1.42H98.3l-2.37-3.79h0v1.42c0,.48.24.71.71,1.19v1.18h-4.5v-1.18a1.31,1.31,0,0,0,.71-1.19v-7.12c0-.47-.24-.71-.71-1.18V131h3.79"/><path class="cls-2" d="M86.44,140.29c0,.48.48,1.19,1,1.19a1.28,1.28,0,0,0,1.19-1.19V137c0-.47-.24-1.18-1-1.18A1.27,1.27,0,0,0,86.44,137m5.46,2.61c0,.95,0,2.14-1,2.61a5.31,5.31,0,0,1-3.32.71,8.14,8.14,0,0,1-3.32-.47c-1.19-.71-1.19-1.66-1.19-2.85v-2.13a2.82,2.82,0,0,1,.95-2.61,5.3,5.3,0,0,1,3.32-.71,7.59,7.59,0,0,1,3.32.47c1.19.71,1.19,1.66,1.19,2.85v2.13Z"/></g></svg>