<svg xmlns="http://www.w3.org/2000/svg" viewBox="0 0 180 180"><defs><style>.cls-1{fill:#fff;stroke:#e5e5e4;stroke-miterlimit:10;stroke-width:1.19px;}.cls-2{fill:#be202e;}.cls-3{fill:#0c58a2;}</style></defs><title>Bank_edited</title><g id="Layer_5" data-name="Layer 5"><circle class="cls-1" cx="90" cy="90" r="86.45"/><path class="cls-2" d="M118.47,111.94V71.85h19a16.65,16.65,0,0,1,6.62,1.21,8.09,8.09,0,0,1,5,7,12,12,0,0,1-.21,4.46,8.35,8.35,0,0,1-4.25,5.26l-.69.38.55.19a9.22,9.22,0,0,1,6.38,8,12.2,12.2,0,0,1-.73,6.65,10.91,10.91,0,0,1-7.12,6.07,17.87,17.87,0,0,1-5.53.88H118.47Zm8.54-6.83h9a13.59,13.59,0,0,0,2.38-.21,4.54,4.54,0,0,0,4-3.49,7.68,7.68,0,0,0,0-3.63,4.34,4.34,0,0,0-2.37-3,7.75,7.75,0,0,0-3.28-.71h-9.18c-.45,0-.54.15-.54.57v10c0,.16,0,.33,0,.52Zm0-17.06h8.92a6.09,6.09,0,0,0,1.28-.11,4.05,4.05,0,0,0,3.61-3.14,7.92,7.92,0,0,0,.11-2.23,3.73,3.73,0,0,0-2.3-3.25,8.05,8.05,0,0,0-3.29-.61H127Z"/><path class="cls-2" d="M49.84,79.32v32.6H41V79.32H28.84v-6.9c0-.38,0-.52.5-.52H61.53c.26,0,.5,0,.5.35v7Z"/><path class="cls-3" d="M76.71,83.86v27.49c0,.45,0,.59-.56.59H68.63c-.65,0-.65,0-.65-.64V72.52c0-.43,0-.57.57-.57H80.13a.59.59,0,0,1,.69.47q4,11.86,8.07,23.72l1,2.92a.67.67,0,0,0,.26.38c.11-.35.26-.69.35-1L97,78.16c.62-1.94,1.26-3.89,1.88-5.83a.52.52,0,0,1,.58-.46h11.68c.4,0,.5.14.5.52v38.81c0,.69,0,.69-.69.69h-7.4c-.66,0-.66,0-.66-.64V84.07h-.1L102,86.3Q97.68,99,93.35,111.66a.49.49,0,0,1-.57.4H86.87c-.33,0-.45-.12-.57-.42l-5.72-16.9L77.07,84.45a1.42,1.42,0,0,1-.12-.62Z"/><path class="cls-3" d="M67.79,60.11a6.32,6.32,0,1,1,6.29,6.33h0a6.26,6.26,0,0,1-6.24-6.28Z"/><path class="cls-3" d="M111.85,60.16a6.31,6.31,0,1,1-6.29-6.34,6.3,6.3,0,0,1,6.29,6.34Z"/></g></svg>