<svg xmlns="http://www.w3.org/2000/svg" viewBox="0 0 180 180"><defs><style>.cls-1{fill:#67318d;stroke:#e5e5e4;stroke-miterlimit:10;stroke-width:1.19px;}.cls-2{fill:#f5a71e;}.cls-3{fill:#fff;}</style></defs><title>Bank_edited</title><g id="Layer_6" data-name="Layer 6"><circle class="cls-1" cx="90" cy="90" r="86.35"/><path class="cls-2" d="M87.15,91.9v15.42c0,1,0,1-1,1H69.12c-.47,0-1,0-1.18-.24l-22.3-10.2c-1-.48-1-.48-.71-1.66,1.66-5.93,3.08-11.86,4.5-17.56,1.9-7.35,3.8-14.94,5.7-22.3l2.13-7.83c0-.47.24-.71.71-.95L81,26.66l9.48-8.78.24-.24,2.37,2.14,14.24,13,16.37,14.7c.23.24.47.72.71.95,2.13,8.31,4.27,16.37,6.4,24.68l5.7,22.06a.86.86,0,0,0,.24.71c.23,1.19.23,1.19-.72,1.66-7.11,3.32-14,6.64-21.11,10a9.61,9.61,0,0,1-3.56.71H95.46c-1.19,0-1.19,0-1.19-1V91.9l2.61,1.18a38.93,38.93,0,0,0,10.68,2.85,13.31,13.31,0,0,0,9-1.9A12.42,12.42,0,0,0,121.32,86a29.44,29.44,0,0,0,0-11.15c-.48-2.61-.95-5.22-1.67-7.83A46.38,46.38,0,0,0,113,53.7c-2.13-3.08-4.51-6.17-6.88-9a60.34,60.34,0,0,0-7.83-7.83c-1.89-1.66-4.27-3.08-6.16-4.75a2.18,2.18,0,0,0-2.38,0A47.45,47.45,0,0,0,81.22,39,85.83,85.83,0,0,0,68.65,54.18,45.66,45.66,0,0,0,62,68.41a49.89,49.89,0,0,0-1.66,10.44,29.07,29.07,0,0,0,.47,7.83,11.44,11.44,0,0,0,11.39,10A30.94,30.94,0,0,0,85.26,93.8Z"/><path class="cls-3" d="M81.46,148.83c2.85,2.14,6.17,2.61,9.49,2.85a29.9,29.9,0,0,0,7.83-1.18c1.42-.48,1.42-.48,1.18-2.14-.23-1-.23-2.14-.47-3.32a21.28,21.28,0,0,1-10.2,1.18c-2.85-.47-4.75-1.66-5.7-4.5-1.42-3.56-1.18-7.36-.23-11.15a6.5,6.5,0,0,1,4.74-4.51,19.74,19.74,0,0,1,6.41-.24,34.58,34.58,0,0,1,4.74,1c.24-1.42.48-2.85.71-4.51a.51.51,0,0,0-.47-.47,33,33,0,0,0-6.64-1.42,19.58,19.58,0,0,0-6.41.47,12.39,12.39,0,0,0-9.25,7.83,21.65,21.65,0,0,0-.71,11.62C77.43,144.09,78.85,146.94,81.46,148.83Z"/><path class="cls-3" d="M63.67,146.22a13.31,13.31,0,0,1-8.07,0c-1.9-.47-3.56-1.18-5.46-1.66-.23,1.66-.47,3.33-.71,4.75a.24.24,0,0,1,.24.24c.24,0,.47.23.71.23a24.58,24.58,0,0,0,10.91,1.9,20.48,20.48,0,0,0,5.46-1.18c4-1.9,5.69-4.75,5.22-9-.47-2.85-1.9-5-4.51-5.93-2.13-1-4.5-1.42-6.64-2.14a30.06,30.06,0,0,1-4.27-1.66,1.93,1.93,0,0,1-.95-2.37A3.56,3.56,0,0,1,57.74,127c2.61-1,5.45-.71,8.3-.24,1.42.24,2.85.71,4.27,1,.24-1.19.24-2.61.47-3.8s.24-.94-.71-1.18a55.45,55.45,0,0,0-6.17-1.19,18.47,18.47,0,0,0-8.06.71c-5,1.66-6.88,5.93-5.7,10.21a6.54,6.54,0,0,0,4.51,4.74c1.9.71,4,1.19,6.17,1.9a13.23,13.23,0,0,1,5,2.13A2.47,2.47,0,0,1,66,145,7.52,7.52,0,0,0,63.67,146.22Z"/><path class="cls-3" d="M126.77,135.79c-.24,0-.47-.24-1-.24v-.24c.24,0,.24-.24.48-.24a4.7,4.7,0,0,0,3.32-3.32,7.62,7.62,0,0,0,.47-4A5.58,5.58,0,0,0,127,123a12.6,12.6,0,0,0-7.12-1.66H106.13V151h15a15.39,15.39,0,0,0,4.74-.71c5.22-1.43,6.65-5.46,5.7-9.73A7.32,7.32,0,0,0,126.77,135.79Zm-14.94-9.49h8.06a8.31,8.31,0,0,1,2.37.47,3,3,0,0,1,2.14,2.85v1.66c-.24,1.42-1.42,2.37-3.32,2.61h-9.25Zm13.76,17.08c-.48,1.9-1.43,2.84-3.56,2.84h-10.2v-8.06h7.11a20.22,20.22,0,0,1,3.8.24c1.9.23,2.85,1.66,2.85,3.55Z"/></g></svg>