<svg xmlns="http://www.w3.org/2000/svg" viewBox="0 0 180 180"><defs><style>.cls-1{fill:#971d20;stroke:#e5e5e4;stroke-miterlimit:10;stroke-width:1.19px;}.cls-2{fill:#ea292a;}.cls-2,.cls-3{stroke:#492c2c;stroke-width:2.78px;}.cls-3,.cls-4{fill:#fff;}</style></defs><title>Bank_edited</title><g id="Layer_10" data-name="Layer 10"><circle class="cls-1" cx="90" cy="90" r="86.59"/><polygon class="cls-2" points="43.98 34.72 111.59 34.72 145.28 72.21 111.59 113.49 43.98 113.49 74.34 72.21 43.98 34.72"/><polyline class="cls-3" points="145.28 72.21 111.59 34.72 43.98 34.72 74.34 72.21"/><path class="cls-4" d="M64.14,146.22a7.22,7.22,0,0,1-4.74,1.67,7.56,7.56,0,0,1-7.59-7.83,7.7,7.7,0,0,1,7.59-7.83,7.21,7.21,0,0,1,4.74,1.66h0l3.32-3.32h0a13.15,13.15,0,0,0-8.06-3.09,12.34,12.34,0,1,0,0,24.68,12.14,12.14,0,0,0,8.06-3.09h0l-3.32-2.85Zm8.07,5.7H77V128.43H72.21Zm23.25-8.54c-.24-.24-8.31-14.95-8.31-14.95H82.41v23.49h4.74v-14c.48.71,8.07,14.24,8.07,14.24s7.83-13.53,8.07-14.24v14H108V128.43h-4.51C103.76,128.43,95.69,143.14,95.46,143.38Zm32.5-3.56a5.54,5.54,0,0,0,2.84-4.75c0-4-2.84-6.64-7.35-6.64H114v23.49h9.73c4.5,0,7.11-2.61,7.11-6.88A5.25,5.25,0,0,0,128,139.82Zm-9.25-7.12H123c1.89,0,2.84,1,2.84,2.61a2.55,2.55,0,0,1-2.84,2.61h-4.27Zm4.5,15h-4.74v-5.46h4.74a2.61,2.61,0,0,1,2.85,2.85C126.3,146.22,125.59,147.65,123.21,147.65Z"/></g></svg>