<svg xmlns="http://www.w3.org/2000/svg" viewBox="0 0 180 180"><defs><style>.cls-1,.cls-4{fill:#554842;}.cls-1{stroke:#e5e5e4;stroke-miterlimit:10;stroke-width:1.19px;}.cls-2{fill:#ffc52b;}.cls-3{fill:#f6f5f6;}</style></defs><title>Bank_edited</title><g id="Layer_4" data-name="Layer 4"><circle class="cls-1" cx="90" cy="90" r="86.35"/><g id="_4zHhuc.tif" data-name=" 4zHhuc.tif"><path class="cls-2" d="M91.19,23.81a162,162,0,0,1-2.14,18.74c-.71,5-1.9,10-3.08,15a89.21,89.21,0,0,1-3.8,11.15c-.47,1.18-.47,1.18-1.66.24a18.08,18.08,0,0,1-4-5.22,57.78,57.78,0,0,1-5.22-15.19,107.39,107.39,0,0,1-2.37-14.94c0-1.19-.24-2.37-.24-3.8a1.27,1.27,0,0,1,.47-.95,47.73,47.73,0,0,1,15.9-5c1.18-.24,2.61-.24,4-.47Z"/><path class="cls-2" d="M94,23.81l3.8.48a47.61,47.61,0,0,1,15.89,5c.48.23,1,.71.72,1.18A105.84,105.84,0,0,1,113,42.55a92.61,92.61,0,0,1-3.32,14,42.47,42.47,0,0,1-5,10.44,13.44,13.44,0,0,1-2.61,2.61c-.48.47-.71.23-.95-.24a85.09,85.09,0,0,1-5-15.66,181.88,181.88,0,0,1-3.32-19.92c-.48-3.33-.71-6.65-.95-10Z"/><path class="cls-2" d="M44.45,73.39h0l-.24-4h.24a.45.45,0,0,1,.24.71v2.85A.71.71,0,0,1,44.45,73.39Z"/><path class="cls-2" d="M91.42,61.77a4.43,4.43,0,0,1,.48,1.9,95.93,95.93,0,0,0,2.37,11.38,104,104,0,0,0,7.35,18.51,72.49,72.49,0,0,0,9.73,15.18c1,1,1.66,1.9,2.61,2.85.48.47.48.71-.24,1a49.58,49.58,0,0,1-23.25,5.69,43.65,43.65,0,0,1-18.26-4,21.88,21.88,0,0,1-3.32-1.66c-.48-.24-.48-.48-.24-1A73.78,73.78,0,0,0,82.41,90.47a128.88,128.88,0,0,0,6.17-15.89A66.79,66.79,0,0,0,91,62.72,1,1,0,0,0,91.42,61.77Z"/><path class="cls-2" d="M115.15,32.11V30.93c0-.71.23-.71.71-.48a58.42,58.42,0,0,1,7.35,5.46,47.11,47.11,0,0,1,15,28.47,62,62,0,0,1,.47,6.88c0,1.66-.23,3.08-.23,4.74,0,.71-.24.71-1,.48a32.76,32.76,0,0,1-15.19-14.24,62,62,0,0,1-6.4-20.4C115.62,38.52,115.38,35.2,115.15,32.11Z"/><path class="cls-2" d="M44.45,73.39v-4A47.86,47.86,0,0,1,67.23,30.69c.23-.24.47-.47.71-.24a.91.91,0,0,1,.23.72,90.32,90.32,0,0,1-1.66,15.89,52,52,0,0,1-7.35,18.5A30.29,30.29,0,0,1,45.87,76.71c-.71.24-.71.24-.94-.47A7,7,0,0,1,44.45,73.39Z"/><path class="cls-2" d="M68.41,61.29c.24.72.24,1.19.48,1.9a40.89,40.89,0,0,0,7.82,16.13A1,1,0,0,1,77,80.51,67.89,67.89,0,0,1,65.56,96.17a35.86,35.86,0,0,1-8.3,6.17.74.74,0,0,1-.95,0h0A66.65,66.65,0,0,1,50.38,94c-1-1.89-1.9-4-2.85-5.93-.23-.47-.23-.71.48-1.18a39.62,39.62,0,0,0,10.44-7.36A37.09,37.09,0,0,0,68.17,63.9a4.52,4.52,0,0,1,.24-2.61Z"/><path class="cls-2" d="M114.67,61.06a3,3,0,0,1,.24,1.42,36.09,36.09,0,0,0,4.74,10.68,40.61,40.61,0,0,0,13,12.33c.71.48,1.43.71,2.14,1.19a.74.74,0,0,1,.47,1.18,44.74,44.74,0,0,1-7.59,13c-.24.48-.71.71-1,1.19-.47.71-.71.47-1.42.24a43.28,43.28,0,0,1-13.29-12.1A90,90,0,0,1,106.13,81c-.71-1.19-.71-1.19.24-2.14A38.67,38.67,0,0,0,112.3,67.7,13.2,13.2,0,0,0,114.67,61.06Z"/></g><path class="cls-3" d="M138.4,127h3.32a16,16,0,0,1,0,3.32H138.4V127Z"/><path class="cls-3" d="M41.13,127A24.83,24.83,0,0,1,44,129.38a1.31,1.31,0,0,1,.71,1.19v7.59c1.66-1.42,3.08-3.09,4.74-4.75a2.08,2.08,0,0,1,1.43-.71h3.79l-7.12,7.12,7.12,7.12H51.09A2.15,2.15,0,0,1,49.2,146l-3.33-3.32c-.23-.24-.71-.72-.94-.72-.24,1.19,0,2.61-.24,4,0,.23,0,.95-.48.95H41.13V127Z"/><path class="cls-3" d="M62.24,132.7a6.83,6.83,0,0,1,2.14-.23V136a4.43,4.43,0,0,0-3.32,1.19,3.46,3.46,0,0,0-1.19,2.85v6.16c0,.48-.24.95-.71.95H56.31V132.94H59.4c.47.47.23,1.42.23,1.9a4.67,4.67,0,0,1,2.61-2.14Z"/><path class="cls-3" d="M86,134.13a4.7,4.7,0,0,1,3.79-1.66,5.22,5.22,0,0,1,3.8,1.18,5,5,0,0,1,1.18,3.56v9c0,.24,0,.72-.47.72H91.19v-8.78a2.33,2.33,0,0,0-1-2.14,3.06,3.06,0,0,0-4,1.19c-.71,1.66-.47,3.32-.47,5v4.51a15.35,15.35,0,0,1-3.32,0c-.24-.24,0-.48-.24-.71V132.47h3.09a1.76,1.76,0,0,1,.71,1.66Z"/><path class="cls-3" d="M98.78,134.36a6.35,6.35,0,0,1,6.88-1.66,4.29,4.29,0,0,1,1.66,1.19v-1.42h3.08c.48,0,.48.47.48.94V146.7a5.42,5.42,0,0,1-1.9,4,8.29,8.29,0,0,1-5.22,1.43,6.46,6.46,0,0,1-5-2.14,4.39,4.39,0,0,1-1.19-2.85h3.56a4.94,4.94,0,0,0,.95,1.43,7,7,0,0,0,3.08.47,3.7,3.7,0,0,0,1.9-1.42,5.79,5.79,0,0,0,.24-2.85,6.18,6.18,0,0,1-8.31,0c-1.42-1.18-1.89-3.08-2.13-5a11.59,11.59,0,0,1,1.9-5.46Z"/><path class="cls-3" d="M115.15,133.89a7.61,7.61,0,0,1,5-1.42,7.94,7.94,0,0,1,5.46,2.13.74.74,0,0,1,0,1,13.61,13.61,0,0,0-1.9,1.9,5.63,5.63,0,0,0-2.14-1.9,5.16,5.16,0,0,0-3.32.24c-.47.23-1,1-.47,1.42a5.94,5.94,0,0,0,2.13.95c1.9.47,3.8.47,5.46,1.66,1.18.71,1.42,2.13,1.18,3.56a4.25,4.25,0,0,1-2.37,3.32,9.77,9.77,0,0,1-6.88.71,7.54,7.54,0,0,1-4-2.13c-.24-.24.24-.72.47-.95.72-.48,1.19-1,1.9-1.43a5,5,0,0,0,2.85,1.66,3.85,3.85,0,0,0,3.56-.71.89.89,0,0,0,0-1.42,3.8,3.8,0,0,0-2.14-.71c-1.66-.24-3.56-.48-5-1.66a4.44,4.44,0,0,1,.24-6.17Z"/><path class="cls-3" d="M132,134.84a4.88,4.88,0,0,1,4.51-2.37V136a4.41,4.41,0,0,0-3.09.95,3.67,3.67,0,0,0-1.18,3.09v6.16c0,.48-.24.95-.71.95h-2.85V132.94h2.85a.51.51,0,0,1,.47.47v1.43Z"/><path class="cls-3" d="M66.28,132.7h3.08a1.42,1.42,0,0,1,.24,1V141a3.12,3.12,0,0,0,.71,2.37,2.86,2.86,0,0,0,2.37.71,2.83,2.83,0,0,0,2.14-1.19,4.81,4.81,0,0,0,.71-2.61V132.7h3.08c.48,0,.48.48.48,1V146a1.43,1.43,0,0,1-.24.95,16,16,0,0,1-3.32,0v-1.43a4.15,4.15,0,0,1-3.32,1.66c-1.66.24-3.8,0-5-1.42A5.23,5.23,0,0,1,66,142c.24-2.84.24-5.93.24-9.25Z"/><path class="cls-3" d="M138.4,132.7h3.08c.47.24.24.71.47,1v13a13.22,13.22,0,0,1-3.08,0c-.24,0-.24-.24-.24-.48-.23-4.27-.23-8.77-.23-13.52Z"/><path class="cls-4" d="M103.76,135.55a3.07,3.07,0,0,1,3.08,1.19,4.25,4.25,0,0,1,0,5.21,3.28,3.28,0,0,1-3.79.72c-1-.24-1.43-1.19-1.9-1.9a5.35,5.35,0,0,1,.47-4.27,19.51,19.51,0,0,1,2.14-.95Z"/></g></svg>