<svg xmlns="http://www.w3.org/2000/svg" viewBox="0 0 180 180"><defs><style>.cls-1{fill:#099146;stroke:#e5e5e4;stroke-miterlimit:10;stroke-width:1.19px;}.cls-2{fill:#fff;}.cls-3{fill:#9a877e;}.cls-4{fill:#ec2030;}.cls-5{fill:#30b457;}</style></defs><title>Bank_edited</title><g id="Layer_8" data-name="Layer 8"><circle class="cls-1" cx="90" cy="90" r="86.35"/><path class="cls-2" d="M145.75,74.11A55.52,55.52,0,1,1,90.24,18.59a55.58,55.58,0,0,1,55.51,55.52h0"/><path class="cls-3" d="M118.23,102.81A18.17,18.17,0,0,0,109,100.2a20.85,20.85,0,0,0-9.25,2.61,24.26,24.26,0,0,1-10,2.85,20.77,20.77,0,0,1-9-2.61,25.31,25.31,0,0,0-10-2.85,20.89,20.89,0,0,0-9.25,2.61,21.51,21.51,0,0,1-10,2.61h-.71L52,106.84A24.1,24.1,0,0,0,62,104a18.59,18.59,0,0,1,8.77-2.38,22.76,22.76,0,0,1,9.49,2.61A20.65,20.65,0,0,0,90,106.84,23.92,23.92,0,0,0,100.68,104a18.44,18.44,0,0,1,8.54-2.38,15.73,15.73,0,0,1,8.54,2.61,19.67,19.67,0,0,0,10.43,2.85,10.21,10.21,0,0,0,1.43-1.66h-1.19a20.39,20.39,0,0,1-10.2-2.61"/><path class="cls-3" d="M109,103.05a20.85,20.85,0,0,0-9.25,2.61,20.85,20.85,0,0,1-10,2.61,20.77,20.77,0,0,1-9-2.61,25.31,25.31,0,0,0-10-2.85,20.89,20.89,0,0,0-9.25,2.61,26.73,26.73,0,0,1-8.3,2.85l1.42,1.42a28.44,28.44,0,0,0,7.59-2.61A18.74,18.74,0,0,1,71,104.71a22.8,22.8,0,0,1,9.49,2.61,20.62,20.62,0,0,0,9.73,2.61,27.51,27.51,0,0,0,10.67-2.85,18.58,18.58,0,0,1,8.54-2.37,15.71,15.71,0,0,1,8.54,2.61,18.19,18.19,0,0,0,7.83,2.61l1.43-1.43a20.88,20.88,0,0,1-8.54-2.61,19.9,19.9,0,0,0-9.73-2.84"/><path class="cls-3" d="M109,105.89a20.85,20.85,0,0,0-9.25,2.61,20.74,20.74,0,0,1-10,2.61,20.5,20.5,0,0,1-9-2.61,25.13,25.13,0,0,0-10-2.84,20.76,20.76,0,0,0-9.25,2.61,57.2,57.2,0,0,1-5.69,2.37l1.42,1.19a22.75,22.75,0,0,0,5-2.14A18.74,18.74,0,0,1,71,107.32a22.8,22.8,0,0,1,9.49,2.61,20.62,20.62,0,0,0,9.73,2.61,27.51,27.51,0,0,0,10.67-2.85,18.58,18.58,0,0,1,8.54-2.37,15.71,15.71,0,0,1,8.54,2.61,20,20,0,0,0,5.22,2.13l1.43-1.18a25.24,25.24,0,0,1-5.93-2.14,25.43,25.43,0,0,0-9.73-2.85"/><path class="cls-3" d="M109,108.74a20.85,20.85,0,0,0-9.25,2.61,24.26,24.26,0,0,1-10,2.85,20.77,20.77,0,0,1-9-2.61,25.31,25.31,0,0,0-10-2.85,20.89,20.89,0,0,0-9.25,2.61c-1.18.48-2.37,1-3.32,1.42L59.63,114a25.18,25.18,0,0,0,2.61-1.19A18.74,18.74,0,0,1,71,110.4,22.8,22.8,0,0,1,80.51,113a20.62,20.62,0,0,0,9.73,2.61,23.76,23.76,0,0,0,10.67-2.85,18.58,18.58,0,0,1,8.54-2.37,17.77,17.77,0,0,1,8.54,2.37l2.85,1.43,1.42-1.19a23.58,23.58,0,0,1-3.55-1.66,25,25,0,0,0-9.73-2.61"/><path class="cls-3" d="M109,111.59a20.85,20.85,0,0,0-9.25,2.61,24.1,24.1,0,0,1-10,2.84,20.62,20.62,0,0,1-9-2.6,25.14,25.14,0,0,0-10-2.85,20.89,20.89,0,0,0-9.25,2.61l-1,.47,1.43,1h.23A18.74,18.74,0,0,1,71,113.25a22.8,22.8,0,0,1,9.49,2.61,20.62,20.62,0,0,0,9.73,2.61,27.51,27.51,0,0,0,10.67-2.85,18.58,18.58,0,0,1,8.54-2.37,15.71,15.71,0,0,1,8.54,2.61l.24.24,1.42-.95-1.42-.71a21,21,0,0,0-9.25-2.85"/><path class="cls-3" d="M99.73,117a24.11,24.11,0,0,1-10,2.85,20.77,20.77,0,0,1-9-2.61,25.13,25.13,0,0,0-10-2.84,17.18,17.18,0,0,0-7.59,1.89l1.66,1A18.11,18.11,0,0,1,71,115.86a22.8,22.8,0,0,1,9.49,2.61,20.62,20.62,0,0,0,9.73,2.61,27.51,27.51,0,0,0,10.67-2.85,18.58,18.58,0,0,1,8.54-2.37,14.85,14.85,0,0,1,6.41,1.42l1.66-1a18.43,18.43,0,0,0-8.07-1.89,24.4,24.4,0,0,0-9.72,2.6"/><path class="cls-4" d="M90,13.61a60,60,0,1,0,60,60.26h0A60.14,60.14,0,0,0,90,13.61ZM90,124.4a50.53,50.53,0,1,1,50.53-50.53A50.42,50.42,0,0,1,90,124.4h0"/><path class="cls-5" d="M118.23,58.92a9.67,9.67,0,0,1-3.32,4.75c-2.37,1.89-18,11.38-19.69,13.52A15.59,15.59,0,0,0,93.08,85v18.27h2.38V98.54a9.94,9.94,0,0,1,2.84-6.17c3.32-3.32,10.68-7.59,15.42-11.15,4-2.84,4.27-6.88,4.27-10.44V58.92Z"/><path class="cls-5" d="M93.08,76c1.66-2.13,17.8-11.86,20.17-13.76a11.06,11.06,0,0,0,5-8.3V33.54c0,2.84-1.66,5-3.79,7.83-2.38,3.08-13,9-18.51,12.57S88.81,61.53,88.81,66v37.48h2.38V84.07A13.22,13.22,0,0,1,93.08,76Z"/><path class="cls-5" d="M80.75,54.89c-5.7-4.27-10.92-8.54-16.13-13.29-1.19-1.66-3.8-4.5-3.8-7.82v19A14.62,14.62,0,0,0,66.75,63.9c4.75,3.56,11.39,8.54,13.52,10.44a15.4,15.4,0,0,1,3.8,10.92v18.26h2.37V66.75C86.68,60.82,85.73,58.68,80.75,54.89Z"/><g id="g4938"><path id="path4940" class="cls-2" d="M44.32,140.05H42a49.69,49.69,0,0,0-3,4.15v-4.15H36.61v10.08h2.07v-4.45c0,.3,3.27,4.45,3.27,4.45h2.66l-4.15-5.34,3.86-4.74"/></g><g id="g4942"><path id="path4944" class="cls-2" d="M55.12,142.79a2.6,2.6,0,0,0,2.37,2.67h.3c.89.29,1.48.59,1.48,1.48,0,.59-.3,1.48-1.19,1.48a1.88,1.88,0,0,1-1.78-1.48h0l-1.48,1.19h0c.89,1.18,1.78,2.07,3.26,2.07,2.08,0,3.27-1.48,3.27-3.56s-1.49-2.67-2.67-3c-.89-.3-1.49-.6-1.49-1.19a1.28,1.28,0,0,1,1.19-1.18,1.61,1.61,0,0,1,1.48.89h0l.89-1.49h0a4.42,4.42,0,0,0-2.67-1.18,3.47,3.47,0,0,0-3,3.26"/></g><g id="g4946"><path id="path4948" class="cls-2" d="M65.36,140.05H63.28v10.08h2.08V140.05"/></g><g id="g4950"><path id="path4952" class="cls-2" d="M75.45,140.05H73.08a49.69,49.69,0,0,0-3,4.15v-4.15H68v10.08h2.07v-4.45c0,.3,3.27,4.45,3.27,4.45h2.67l-4.16-5.34,3.56-4.74"/></g><g id="g4954"><path id="path4956" class="cls-2" d="M96.77,139.7H95.29v10.38h2.08v-6.82c0,.3,5.33,6.82,5.33,6.82h1.49V139.7h-2.08v6.53c-.29.29-5.34-6.53-5.34-6.53"/></g><g id="g4958"><path id="path4960" class="cls-2" d="M125.69,139.7H124.2v10.38h2.08v-6.82c0,.3,5.34,6.82,5.34,6.82h1.48V139.7H131v6.53c-.29.29-5.33-6.53-5.33-6.53"/></g><g id="g4962"><path id="path4964" class="cls-2" d="M142.89,140.05h-2.38a49.69,49.69,0,0,0-3,4.15v-4.15h-2.08v10.08h2.08v-4.45c0,.3,3.26,4.45,3.26,4.45h2.67l-4.15-5.34,3.56-4.74"/></g><g id="g4966"><path id="path4968" class="cls-2" d="M50.23,139.7H48.74l-3.85,10.38H47l.89-2.08h3.26l.89,2.08h2.08L50.23,139.7Zm-.6,3.26c0,.3,1.19,3.27,1.19,3.56H48.45A17.27,17.27,0,0,1,49.63,143"/></g><g id="g4970"><path id="path4972" class="cls-2" d="M75.36,145.15A5.63,5.63,0,0,0,76.84,149a4.92,4.92,0,0,0,3.56,1.49,5.07,5.07,0,0,0,5-5.34A5.65,5.65,0,0,0,84,141.29a4.92,4.92,0,0,0-3.56-1.48,5.07,5.07,0,0,0-5,5.34m3.26,2.37a4.42,4.42,0,0,1-1.18-2.67,3.23,3.23,0,0,1,3-3.26,2.13,2.13,0,0,1,1.78.89,3.37,3.37,0,0,1,.89,2.37,3.23,3.23,0,0,1-3,3.26,1.09,1.09,0,0,1-1.49-.59"/></g><g id="g4974"><path id="path4976" class="cls-2" d="M87.07,140.05h0v10.08h2.08v-3.85a44.77,44.77,0,0,0,2.37,3.85h2.37l-3-4.15A2.54,2.54,0,0,0,93,143.31v-.59a2.26,2.26,0,0,0-.59-1.49,3.63,3.63,0,0,0-2.67-.89H87.07Zm2.08,1.78a2.26,2.26,0,0,1,1.48.29c.3.3.3.3.3.6V143c0,1.19-.6,1.49-1.78,1.49h-.3l.3-2.67"/></g><g id="g4978"><path id="path4980" class="cls-2" d="M106.28,140.05h0v10.08h3.26c2.07,0,3.26-1.19,3.26-3v-.6a2.21,2.21,0,0,0-1.48-2.07,2.13,2.13,0,0,0,.89-1.78v-.6c0-.59-.3-.89-.6-1.48a2.91,2.91,0,0,0-2.37-.89h-3Zm2.37,5.63a3.75,3.75,0,0,1,1.78.3c.29,0,.29.3.29.59v.3c0,1.19-.89,1.48-1.78,1.48h-.29v-2.67Zm0-3.85c.59,0,.89,0,1.18.29a1,1,0,0,1,.3.6V143c0,.89-.3,1.19-1.48,1.19h-.3l.3-2.37"/></g><g id="g4982"><path id="path4984" class="cls-2" d="M118.88,139.7h-1.49l-3.85,10.38h2.07l.89-2.08h3.27l.88,2.08h2.08l-3.85-10.38ZM118,143c0,.3,1.18,3.27,1.18,3.56H116.8A16.37,16.37,0,0,0,118,143"/></g></g></svg>