<svg xmlns="http://www.w3.org/2000/svg" viewBox="0 0 1205 180"><defs><style>.cls-1{fill:#0aaa4e;}.cls-2{fill:#1d93d1;}</style></defs><title>Counter_Edited</title><g id="Layer_16" data-name="Layer 16"><g id="Family_Mart" data-name="Family Mart"><rect class="cls-1" x="3.33" y="3.45" width="207.12" height="69.53"/><rect class="cls-2" x="3.33" y="87.78" width="207.12" height="69.53"/><polygon class="cls-2" points="288.86 7.89 288.86 151.4 316.97 151.4 316.97 89.26 377.63 89.26 377.63 61.15 316.97 61.15 316.97 36 379.11 36 379.11 7.89 288.86 7.89"/><path class="cls-2" d="M463.43,130.68V84.82c0-14.79-7.39-35.5-41.42-35.5a82.65,82.65,0,0,0-31.07,5.91V80.38A47.31,47.31,0,0,1,419.05,73c8.88,0,17.75,3,17.75,13.31h0a53,53,0,0,0-16.27-3,35.46,35.46,0,0,0-39.94,35.51,32,32,0,0,0,31.29,32.61q1.37,0,2.73-.06A33.26,33.26,0,0,0,436.8,144a66.81,66.81,0,0,0,1.48,7.4h29.59a42.15,42.15,0,0,1-4.44-20.72M408.7,117.37A14.79,14.79,0,0,1,424.82,104H425a27.81,27.81,0,0,1,11.83,3v17.76A19.61,19.61,0,0,1,422,130.68a14.78,14.78,0,0,1-13.31-13.31"/><path class="cls-2" d="M1053.72,130.68V84.82c0-14.79-7.39-35.5-41.42-35.5a82.65,82.65,0,0,0-31.07,5.91V80.38A47.31,47.31,0,0,1,1009.34,73c8.88,0,17.75,3,17.75,13.31h0a53,53,0,0,0-16.27-3,35.46,35.46,0,0,0-39.94,35.51,32,32,0,0,0,31.29,32.61q1.37,0,2.73-.06a33.26,33.26,0,0,0,22.19-7.4,66.81,66.81,0,0,0,1.48,7.4h29.59a42.15,42.15,0,0,1-4.44-20.72M999,117.37A14.81,14.81,0,0,1,1015.11,104h.15a27.81,27.81,0,0,1,11.83,3v17.76a19.63,19.63,0,0,1-14.79,5.91A14.8,14.8,0,0,1,999,117.37"/><path class="cls-2" d="M584.75,50.8a33.12,33.12,0,0,0-28.11,11.83A31.63,31.63,0,0,0,531.49,50.8a40.22,40.22,0,0,0-25.15,8.87V50.8H481.19V151.4h26.63V84.82a16.27,16.27,0,0,1,14.79-7.4c8.88,0,13.32,5.92,13.32,16.28v59.18H564V84.82a16.27,16.27,0,0,1,14.79-7.4c8.88,0,13.31,5.92,13.31,16.28v59.18h28.11V83.34A33.43,33.43,0,0,0,586,50.74l-1.26.06"/><rect class="cls-2" x="680.91" y="7.89" width="26.63" height="143.5"/><polygon class="cls-2" points="892.47 52.27 856.96 7.89 827.37 7.89 827.37 151.4 856.96 151.4 856.96 52.27 892.47 101.1 929.45 52.27 929.45 151.4 959.04 151.4 959.04 7.89 929.45 7.89 892.47 52.27"/><rect class="cls-2" x="635.05" y="50.8" width="26.63" height="99.12"/><path class="cls-2" d="M648.36,6.41a17.76,17.76,0,1,0,17.76,17.76A17.17,17.17,0,0,0,649.57,6.41h-1.21"/><path class="cls-2" d="M1095.15,61.15V50.8h-26.63V151.4h26.63V89.26a27.48,27.48,0,0,1,19.23-10.36,29.66,29.66,0,0,1,14.79,4.44V53.75a19.79,19.79,0,0,0-13.31-3,27.93,27.93,0,0,0-20.71,10.35"/><path class="cls-2" d="M1189.83,126.25c-8.88,0-11.84-7.4-11.84-14.8v-34h23.68V50.8H1178v-37l-26.62,11.84V52.27h-14.8V77.42h14.8v38.47c0,20.71,8.87,37,32.54,37a55.33,55.33,0,0,0,17.76-3V121.81c-1.48,3-5.92,4.44-11.84,4.44"/><polygon class="cls-2" points="741.57 176.55 772.63 176.55 818.5 50.8 788.91 50.8 769.67 105.53 748.96 50.8 717.89 50.8 754.88 142.52 741.57 176.55"/></g></g></svg>