<svg xmlns="http://www.w3.org/2000/svg" xmlns:xlink="http://www.w3.org/1999/xlink" viewBox="0 0 178.75 180"><defs><style>.cls-1{fill:url(#linear-gradient);}.cls-2{fill:#fff;}.cls-3{fill:#ec2227;}.cls-4{fill:#1e1917;}.cls-5{fill:#fedc00;}</style><linearGradient id="linear-gradient" x1="1.79" y1="-1036.91" x2="176.96" y2="-1036.91" gradientTransform="matrix(1, 0, 0, -1, 0, -946.91)" gradientUnits="userSpaceOnUse"><stop offset="0" stop-color="#8cbe40"/><stop offset="0.29" stop-color="#94c03d"/><stop offset="0.51" stop-color="#9dc23c"/><stop offset="0.55" stop-color="#99c13c"/><stop offset="0.73" stop-color="#90bf3f"/><stop offset="1" stop-color="#8cbe40"/></linearGradient></defs><title>Counter_Edited</title><g id="Layer_11" data-name="Layer 11"><g id="Big_C" data-name="Big C"><rect class="cls-1" x="1.79" y="2.42" width="175.16" height="175.16" rx="30.27" ry="30.27"/><path class="cls-2" d="M39.76,30.24l-.38,2.88c0,.31.6.34.66,0l.4-2.88h1.9l-.29,2.7a1.8,1.8,0,0,1-1.32,1.21,4.18,4.18,0,0,1-1,0,6.26,6.26,0,0,1-1.5-.14,1,1,0,0,1-.71-.81l.4-2.87Z"/><path class="cls-2" d="M38.29,28.81H42.6v.6H38Z"/><path class="cls-2" d="M42.8,28.26H41.45s0-.54-.26-.54-.34.54-.34.54h-.58s0-.54-.31-.54-.32.54-.32.54h-.78a1.89,1.89,0,0,1,.35-1,.8.8,0,0,1,.75-.35c.6,0,.71.4.71.4a.76.76,0,0,1,.72-.4,1,1,0,0,1,.69.26.62.62,0,0,1,.23.49h.55Z"/><path class="cls-2" d="M49.66,32.63c0,.26,0,.43.29.43s.26-.26.31-.55.18-1.06.18-1.06v-.32s.31,0,.31-.43v-.89h1.93l-.15.81a.56.56,0,0,1-.34.43H52.1a.34.34,0,0,1,.23.4L52,33.32c0,.4-.46.65-1.38.74h-1a2.29,2.29,0,0,1-.64,0,1.17,1.17,0,0,1-1.26-1.38l.23-1.23a1.74,1.74,0,0,1,.63-.69s0-.26-.43-.34V30.1a6.25,6.25,0,0,0,1.06,0h1.12a1.69,1.69,0,0,1,0,.55c-.17.43-.43.4-.46.68S49.66,32.63,49.66,32.63Z"/><path class="cls-2" d="M52.76,29.38H48.37l.14-.46h2.87v-.4H53Z"/><path class="cls-2" d="M45.1,34.21l.28-2.88c0-.31-.6-.34-.66,0l-.34,2.88h-2l.34-2.7a1.81,1.81,0,0,1,1.32-1.21,4.27,4.27,0,0,1,1,0,6.22,6.22,0,0,1,1.49.14,1,1,0,0,1,.72.81l-.2,2.87Z"/><path class="cls-2" d="M141.41,42.91l-5.75,42.55S126.82,75,116,74c-11.92-1.09-26.8,9.53-27.92,23-1.29,15.3,16.72,21.22,20.39,21.13,11.72-.31,23.72-10.62,23.72-10.62l-7.09,42a91.62,91.62,0,0,1-43.53,2.87c-23-4.65-41.64-30.81-32.65-63.17C58.42,54.85,94.89,27.66,141.41,42.91Z"/><path class="cls-3" d="M138.31,40.64l-5.75,42.55s-8.84-10.42-19.7-11.48C101,70.62,86.07,81.24,85,94.68c-1.29,15.31,16.72,21.22,20.39,21.13,11.72-.31,23.72-10.62,23.72-10.62l-7.09,42a91.66,91.66,0,0,1-43.54,2.87c-23-4.65-41.63-30.81-32.64-63.17C55.29,52.61,91.76,25.39,138.31,40.64Z"/><path class="cls-4" d="M61.18,57.61c0,5.74-5.49,7.92-9.31,7.92H39.12l3.51-25.84H54.28c5.09,0,7.41,2.1,7.21,6.49a6.55,6.55,0,0,1-3.9,5.94A5.77,5.77,0,0,1,61.18,57.61Zm-7.7-10.17c0-.8-.14-1.46-1-1.46H50l-.52,3.76h2C52.45,49.77,53.25,48.36,53.48,47.44ZM53.11,57c.2-1.64-1.5-1.81-2-1.81H48.57L48,59.25h2.35A2.68,2.68,0,0,0,53.11,57Z"/><polygon class="cls-4" points="63.59 65.53 65.83 47.44 73.7 47.44 71.43 65.53 63.59 65.53"/><path class="cls-4" d="M83.69,74.21a28.89,28.89,0,0,1-9.13-1.47l2.52-6a8.6,8.6,0,0,0,5.17,2c3.56,0,5.23-2.06,5.75-5.88h0a7.17,7.17,0,0,1-5.75,3.16c-4.39,0-6.31-5-6.06-8.62C76.54,52.44,80.39,47,84.81,47a5.22,5.22,0,0,1,3.47,1A8.2,8.2,0,0,1,90,50.23l.26-3h7.86L96,64.13A11.5,11.5,0,0,1,83.69,74.21Zm5.14-18c0-1.89-1-2.44-1.75-2.44a2.87,2.87,0,0,0-2.64,2.53c-.23,1.64.43,2.56,1.72,2.53a2.88,2.88,0,0,0,2.67-2.65Z"/><path class="cls-4" d="M75.19,41.82a5.26,5.26,0,0,1-5.26,4.27,3.87,3.87,0,0,1-4.17-3.55,4.33,4.33,0,0,1,0-.72A5.26,5.26,0,0,1,71,37.54a3.87,3.87,0,0,1,4.17,3.55A3.56,3.56,0,0,1,75.19,41.82Z"/><path class="cls-5" d="M59.48,54.77c0,5.74-5.48,7.92-9.3,7.92H37.34l3.51-25.84H52.5c5.09,0,7.41,2.09,7.21,6.49a6.56,6.56,0,0,1-3.9,5.94A5.73,5.73,0,0,1,59.48,54.77ZM51.67,44.63c0-.8-.14-1.46-1-1.46H48.17l-.43,3.76h2C50.61,46.93,51.56,45.66,51.67,44.63Zm-.26,9.48c.2-1.64-1.49-1.81-2-1.81H46.88l-.58,4.07h2.36A2.66,2.66,0,0,0,51.41,54.11Z"/><polygon class="cls-5" points="61.9 62.72 64.13 44.6 72 44.6 69.73 62.72 61.9 62.72"/><path class="cls-5" d="M82,71.34a29,29,0,0,1-9.14-1.47l2.53-6a8.58,8.58,0,0,0,5.17,2c3.56,0,5.23-2.06,5.74-5.88h0a7.17,7.17,0,0,1-5.74,3.16c-4.39,0-6.32-5-6.06-8.62.35-4.88,4.19-10.37,8.62-10.37a5.28,5.28,0,0,1,3.47,1,8.17,8.17,0,0,1,1.72,2.24l.26-3h7.87L94.29,61.26A11.5,11.5,0,0,1,82,71.34Zm5.14-18c0-1.89-1-2.44-1.76-2.44a2.87,2.87,0,0,0-2.64,2.53c-.23,1.63.43,2.55,1.72,2.53a2.89,2.89,0,0,0,2.68-2.59Z"/><path class="cls-5" d="M73.58,39a5.25,5.25,0,0,1-5.25,4.28,3.88,3.88,0,0,1-4.18-3.55,4.43,4.43,0,0,1,0-.73,5.28,5.28,0,0,1,5.26-4.28,3.88,3.88,0,0,1,4.17,3.56A3.47,3.47,0,0,1,73.58,39Z"/></g></g></svg>