<svg xmlns="http://www.w3.org/2000/svg" viewBox="0 0 393.33 180"><defs><style>.cls-1{fill:#1d1d1a;}.cls-2{fill:#eb7f23;}</style></defs><title>Counter_Edited</title><g id="Layer_14" data-name="Layer 14"><path class="cls-1" d="M52.94,53.6H66.12A29,29,0,0,1,55,70.57,33.82,33.82,0,0,1,34.1,76.71a29.58,29.58,0,0,1-23.65-9.82A39.93,39.93,0,0,1,2.07,39.35a39.5,39.5,0,0,1,8.22-26.69A29.67,29.67,0,0,1,34.1,3.16a32,32,0,0,1,24.65,9.5,36.48,36.48,0,0,1,6.89,13.56H47.07a15.8,15.8,0,0,0-2.67-4,12.77,12.77,0,0,0-9.82-3.74A13,13,0,0,0,25,22.22a26,26,0,0,0-4.8,17.5A24.8,24.8,0,0,0,25,57a12.57,12.57,0,0,0,10.36,4.27,14.94,14.94,0,0,0,7.68-1.87,3.55,3.55,0,0,0,1.44-.9L46,57a11.66,11.66,0,0,1,2.13-2.14A7.42,7.42,0,0,1,52.94,53.6Z"/><path class="cls-1" d="M117.46,53.6h13.29a29.07,29.07,0,0,1-11.26,17,33.82,33.82,0,0,1-20.65,6.08,29.58,29.58,0,0,1-23.65-9.82,39.85,39.85,0,0,1-8.48-27.54,39.4,39.4,0,0,1,8.22-26.69A29.65,29.65,0,0,1,98.57,2.84a32,32,0,0,1,24.71,9.82A40.55,40.55,0,0,1,131.77,40V43a4.53,4.53,0,0,1,0,1.87H85.6a18.28,18.28,0,0,0,4,12.22A12.57,12.57,0,0,0,100,61.34a15,15,0,0,0,7.68-1.87,3.57,3.57,0,0,0,1.44-.91l1.45-1.44a5.68,5.68,0,0,1,2-2.13A7.83,7.83,0,0,1,117.46,53.6Zm-32-20.71h27.11a17.23,17.23,0,0,0-3.73-10.67A12.77,12.77,0,0,0,99,18.48a13,13,0,0,0-9.56,3.74A15.26,15.26,0,0,0,85.6,32.89Z"/><path class="cls-1" d="M195.33,75.38H186a8.65,8.65,0,0,1-9-8.26c0-.25,0-.51,0-.76V30.22a10.65,10.65,0,0,0-3.84-9.28A13.9,13.9,0,0,0,164.48,18,13.35,13.35,0,0,0,156,20.94a11.09,11.09,0,0,0-3.74,9.28V75.38H133.69V34q0-18,9.45-24.17A41.13,41.13,0,0,1,164,3.22,40,40,0,0,1,185.35,9.3q9.83,6.14,9.82,24.71Z"/><path class="cls-1" d="M219.19,168.67a9,9,0,0,1-9,8.91h-8.91V112.2q0-18.36,10.68-25.08a43.3,43.3,0,0,1,23.37-6.67A37.7,37.7,0,0,1,248.6,83a24.79,24.79,0,0,1,10.67,7.21,41.85,41.85,0,0,1,7.9,26.26,42.72,42.72,0,0,1-7.9,26.69,24.6,24.6,0,0,1-20.22,10,26.77,26.77,0,0,1-11.53-2.35,19.72,19.72,0,0,1-8.38-8.17Zm29.94-51.45a26.61,26.61,0,0,0-3.95-16,13,13,0,0,0-11.31-5.34,12.78,12.78,0,0,0-11.05,5.34,26.67,26.67,0,0,0-3.68,16,23.82,23.82,0,0,0,4,14.94,13,13,0,0,0,11.31,5.34,12.54,12.54,0,0,0,10.68-5.34,25.24,25.24,0,0,0,4-15Z"/><path class="cls-1" d="M184.5,71.37,186.74,78s6.14,9.72,6.35,10.3,2.83,12.28,3,12.86,3.79,9.24,3.79,9.24,2.35,4.27,2.51,4.59,2.94.8,3.1,0,6.72-13.13,6.72-13.13l5.07-8.27L226.77,86l3.58-6.35-5-4.75L202.81,73,197,67.21,192.45,65l-4.86,2.72Z"/><path class="cls-1" d="M313.77,149a32.47,32.47,0,0,1-11.69,3.52,105.9,105.9,0,0,1-10.68.64,27.48,27.48,0,0,1-16.54-5.34,19.49,19.49,0,0,1-7.1-16.92,18.25,18.25,0,0,1,6.46-16,37.1,37.1,0,0,1,16.06-5.82,15.15,15.15,0,0,0,3.15-.37c1.23,0,2.62-.48,4.22-.64q11.52-1.55,11.53-6.83a5,5,0,0,0-4.06-5.34,27,27,0,0,0-7.47-1.17,19.29,19.29,0,0,0-6.57,1.06,7.13,7.13,0,0,0-4.21,3.95H269.25a20.25,20.25,0,0,1,7.37-13.39,30.29,30.29,0,0,1,20.23-6,39.52,39.52,0,0,1,22,5A16.87,16.87,0,0,1,326.52,100v23.91a30.12,30.12,0,0,1-3.79,16.44A23.21,23.21,0,0,1,313.77,149Zm-4.22-32.29a49.35,49.35,0,0,1-10.25,3.41l-6,1.34a15.48,15.48,0,0,0-6.83,3.41,10.7,10.7,0,0,0-1.82,5.77,8.53,8.53,0,0,0,2.35,6.29A10,10,0,0,0,293.8,139a14.53,14.53,0,0,0,16-12.85,15.27,15.27,0,0,0,0-3.17Z"/><path class="cls-1" d="M333.57,176.52V162.11h4.75a12.68,12.68,0,0,0,8.27-2.51c2-1.68,2.38-4.34,1.17-8L323.59,82.05h20.06l14.2,49.37,12.49-43.13a7.73,7.73,0,0,1,8.43-6.24h12.6l-26.69,79.58a26.67,26.67,0,0,1-7.9,12.32,28.81,28.81,0,0,1-15.47,3.15h-3.69a10.07,10.07,0,0,0-2-.37Z"/><path class="cls-2" d="M273,67.42a13.23,13.23,0,0,0-13.24-13.23H240.33l28.6-28.45A13.24,13.24,0,0,0,250.2,7L221.86,35.45V15.76a13.35,13.35,0,0,0-26.69,0V64.27c0,.47,0,.93,0,1.39a14.78,14.78,0,0,0,14.52,14.89h50.06A13.24,13.24,0,0,0,273,67.42Z"/><path class="cls-2" d="M123.55,88.51a13.23,13.23,0,0,0,13.23,13.23h19.38l-28.29,28.34a13.25,13.25,0,0,0,18.73,18.74L175,120.37V140a13.34,13.34,0,1,0,26.68,0V91.6c0-.46,0-.92,0-1.39a14.79,14.79,0,0,0-14.52-14.89H136.84A13.29,13.29,0,0,0,123.55,88.51Z"/></g></svg>