<svg xmlns="http://www.w3.org/2000/svg" viewBox="0 0 140 180"><defs><style>.cls-1{fill:#fff;}.cls-2{fill:#ea7125;}.cls-3{fill:#e12b2b;}.cls-4{fill:#f3a420;}.cls-5{fill:#eb7f2a;}.cls-6{fill:#e5362c;}.cls-7{fill:#504f4f;}</style></defs><title>Counter_Edited</title><g id="Layer_10" data-name="Layer 10"><g id="Ture_Money" data-name="Ture Money"><path class="cls-1" d="M73.29,9.87A43.83,43.83,0,0,1,78,7.45,32.15,32.15,0,0,0,73.29,9.87Z"/><path class="cls-2" d="M73.29,9.87c-1,.58-1.86,1.13-2.56,1.64l-.75.6h.29A29.85,29.85,0,0,1,73.29,9.87Z"/><path class="cls-2" d="M87.31,4.53,84.9,4c-2.41,1.07-4.83,2.22-7,3.38A40.37,40.37,0,0,1,87.31,4.53Z"/><path class="cls-1" d="M12.74,112.45l.38.73-.26-.56Z"/><path class="cls-1" d="M133.31,49.9a38.16,38.16,0,0,0-6.21-4.83A68.84,68.84,0,0,1,133.31,49.9Z"/><path class="cls-3" d="M46.71,141.89a135.24,135.24,0,0,1-29.36-24.15c-1.81-2-3.31-3.76-4.49-5.21l.26.55c19.8,36.22,56.69,64.54,56.69,64.54a262.24,262.24,0,0,0,25.11-23.18A93.79,93.79,0,0,1,46.71,141.89Z"/><path class="cls-4" d="M122.25,91.26a56.94,56.94,0,0,1-52.39,34.67,35,35,0,0,1-4.83-.22,81.62,81.62,0,0,1-52.92-14.78q2.55,3.63,5.24,6.84a135.19,135.19,0,0,0,29.36,24.14h0a90.2,90.2,0,0,0,47.92,10.7l1.47.67A221.29,221.29,0,0,0,120.44,123c.14-.66.29-1.32.43-2C120.56,121.36,125.05,105.24,122.25,91.26Z"/><path class="cls-4" d="M12.11,110.93l-.24-.17.87,1.65v.14Z"/><path class="cls-4" d="M22.92,24.21c-4.46,7.51-6.35,19-7.12,26.94A56.94,56.94,0,0,1,69.86,12.09H70l.75-.6c.7-.51,1.57-1.07,2.56-1.65A33.11,33.11,0,0,1,78,7.43C80.22,6.27,82.78,5,85,4.05A69,69,0,0,0,30.29,14.87,43.55,43.55,0,0,0,22.92,24.21Z"/><path class="cls-4" d="M46.71,141.89A93.76,93.76,0,0,0,95,154.51l1.19-1.25-1.48-.68A90.27,90.27,0,0,1,46.71,141.89Z"/><path class="cls-4" d="M12.86,112.6c1.18,1.45,2.68,3.23,4.49,5.21q-2.69-3.21-5.24-6.88Z"/><path class="cls-2" d="M73.29,9.87a29.85,29.85,0,0,0-3,2.24,56.9,56.9,0,0,1,48.29,27.65c2.27,1.33,5.36,3.21,8.42,5.36A38.16,38.16,0,0,1,133.19,50a30,30,0,0,1,2.94,2.92A69,69,0,0,0,87.22,4.58a40.31,40.31,0,0,0-9.39,2.8C76.26,8.18,74.66,9.05,73.29,9.87Z"/><path class="cls-2" d="M65,125.73A57,57,0,0,1,15.8,51.15c.77-7.91,2.66-19.31,7.12-26.94a43.77,43.77,0,0,1,7.25-9.44A68.81,68.81,0,0,0,.93,71.19c0,13.55,4.39,27,10.94,39.62l.24.17A81.6,81.6,0,0,0,65,125.73Z"/><path class="cls-3" d="M138.72,71.19c0,13.09-4.23,26.22-10.6,38.63,16.2-29,10-52.12,8.81-55.82l-.58-.75A69.26,69.26,0,0,1,138.72,71.19Z"/><path class="cls-3" d="M136.35,53.21a34.07,34.07,0,0,0-3-3.31,68.84,68.84,0,0,0-6.21-4.83,42,42,0,0,0-7.43-3.65,57,57,0,0,1,3.14,48.48,92.08,92.08,0,0,1-1.94,31c-.12.65-.27,1.3-.43,2a148.5,148.5,0,0,0,7.68-13.13c6.37-12.37,10.6-25.5,10.6-38.63A69.26,69.26,0,0,0,136.35,53.21Z"/><path class="cls-3" d="M120.44,123a108.07,108.07,0,0,0,2.41-33l-.53,1.3C125.05,105.24,120.22,123.32,120.44,123Z"/><path class="cls-3" d="M136.23,52.8v.38l.58.75-.17-.51Z"/><path class="cls-3" d="M133.31,49.9a34.07,34.07,0,0,1,3,3.31v-.39A31,31,0,0,0,133.31,49.9Z"/><path class="cls-3" d="M119.64,41.45a42.37,42.37,0,0,1,7.44,3.64c-3.09-2.14-6.18-4-8.43-5.36Z"/><path class="cls-1" d="M69.86,10.09a56.93,56.93,0,0,0-54.06,39A63.56,63.56,0,0,0,12.93,68,57.39,57.39,0,0,0,65,125.23c1.6.14,3.21.46,4.83.46a56.84,56.84,0,0,0,52.44-34.55c.19-.44.36-.83.53-1.26a56.86,56.86,0,0,0-3.14-48.43l-1-1.72c-9.87-16.44-27.83-29.5-48.28-29.64"/><path class="cls-5" d="M111.6,87.51c-.24-.21-.58-.36-.72-.62a1.06,1.06,0,0,1,.51-1.62,10.55,10.55,0,0,0,1.11-.89A8.6,8.6,0,0,0,114.36,82c.24-.43,0-.84-.15-1.23-.29-.82-.6-1.62-.92-2.41s-.6-1.45-.89-2.18-.72-2-1.09-2.94a1.85,1.85,0,0,1,0-1.23,1,1,0,0,1,1.16-.72.85.85,0,0,1,.24.09,1.36,1.36,0,0,1,.49.6c.21.48.38,1,.6,1.52l1.09,2.83.67,1.78.17.37h0v-.2c.24-.62.51-1.25.75-1.9l.87-2.42c.29-.8.46-1.28.72-1.91a2.15,2.15,0,0,1,.49-.67c.41-.41,1.28,0,1.4.51a2.51,2.51,0,0,0,.26.45v.25l-.46,1.23-1.25,3.28c-.39,1-.75,2-1.14,3a25.08,25.08,0,0,1-1.69,3.91,16,16,0,0,1-1.45,1.93,5.25,5.25,0,0,1-.62.53,4.2,4.2,0,0,1-1.52,1,1.31,1.31,0,0,0-.37.24Z"/><path class="cls-5" d="M68.17,72.55A3,3,0,0,1,71,71.05,3.25,3.25,0,0,1,73.43,73l.7-.8a3.41,3.41,0,0,1,3.31-1.06,3.28,3.28,0,0,1,2.41,2.42,7.61,7.61,0,0,1,.37,2.55v5.17a1.68,1.68,0,0,1-.34,1.06,1,1,0,0,1-1.35.2c-.58-.34-.53-.85-.53-1.36V76.34a3.69,3.69,0,0,0-.42-2,1.68,1.68,0,0,0-1.32-.77,2,2,0,0,0-2,1.57,5.39,5.39,0,0,0-.17,1.33v5.07a1.32,1.32,0,0,1-.85,1.25,1,1,0,0,1-1.11-.48,2.18,2.18,0,0,1-.21-.87V76.31a3.73,3.73,0,0,0-.32-1.71,1.65,1.65,0,0,0-1.57-1,1.74,1.74,0,0,0-1.69,1,4.08,4.08,0,0,0-.29,1.5v5.26a1.42,1.42,0,0,1-.65,1.33A1,1,0,0,1,66,82.36a1.36,1.36,0,0,1-.1-.21,1.82,1.82,0,0,1,0-.57v-9a1.38,1.38,0,0,1,1-1.26,1.19,1.19,0,0,1,1.21.87Z"/><path class="cls-5" d="M107.47,77.78h-2.94c-.39,0-.41,0-.34.39a3.07,3.07,0,0,0,.58,1.35,2.69,2.69,0,0,0,3.24.73,7.1,7.1,0,0,0,1.35-1,1,1,0,0,1,1.33-.14,1.18,1.18,0,0,1,.29,1.11,2.88,2.88,0,0,1-1.36,1.59,5.68,5.68,0,0,1-1.57.75,4.26,4.26,0,0,1-2.82,0,4.77,4.77,0,0,1-2-1.43,6.84,6.84,0,0,1-1.45-4.85,10.62,10.62,0,0,1,.49-2,5,5,0,0,1,2.41-2.73,4.2,4.2,0,0,1,2.95-.41,4.39,4.39,0,0,1,2.12,1.16,6,6,0,0,1,1.62,3.19,9.67,9.67,0,0,1,.12,1.32.93.93,0,0,1-.89,1h-.08Zm-.79-2h2.17c.15,0,.34,0,.29-.21a2.59,2.59,0,0,0-1.54-2.1,2.27,2.27,0,0,0-2.42.41,3,3,0,0,0-.87,1.54c0,.32,0,.36.29.36Z"/><path class="cls-5" d="M91.13,76.77a6.45,6.45,0,0,1-.77,3.28,4.49,4.49,0,0,1-1.26,1.57,8.3,8.3,0,0,1-.82.61,4.22,4.22,0,0,1-3.07.48,3.9,3.9,0,0,1-1.85-.89,6.25,6.25,0,0,1-1.62-2,7.17,7.17,0,0,1-.61-2.66,6.56,6.56,0,0,1,1.11-4A4.67,4.67,0,0,1,86,70.93a4.08,4.08,0,0,1,1.76.36,6.2,6.2,0,0,1,3.36,5.48Zm-7.7,0v.39a3.5,3.5,0,0,0,1.08,2.41,2.43,2.43,0,0,0,3.31,0A4.32,4.32,0,0,0,88,74.21a2.41,2.41,0,0,0-3.38-.45,2.18,2.18,0,0,0-.46.45,3.62,3.62,0,0,0-.77,2.63Z"/><path class="cls-5" d="M94.17,72.52l.29-.24v-.15a4,4,0,0,1,2-1.06,3.45,3.45,0,0,1,2.73.68,4.85,4.85,0,0,1,1.76,3,15,15,0,0,1,.12,2.12v4.37a1.45,1.45,0,0,1-.44,1,.91.91,0,0,1-1.25,0A1.26,1.26,0,0,1,98.73,81V76.22a3.63,3.63,0,0,0-.5-2,1.89,1.89,0,0,0-1.35-.89,2.2,2.2,0,0,0-2.42,1.33,3.42,3.42,0,0,0-.31,1.52v5.09a1.5,1.5,0,0,1-1,1.28A1,1,0,0,1,92,81.91a3.69,3.69,0,0,1-.15-.94V72.5a2.49,2.49,0,0,1,.22-.94,1,1,0,0,1,1.31-.49l.14.08a1.86,1.86,0,0,1,.63,1Z"/><path class="cls-6" d="M25,67.48v2.87c0,.24.15.22.32.22h3.86a17,17,0,0,1,0,2,1.71,1.71,0,0,1-1.79,1.33H25.07v3.89a2,2,0,0,0,1.91,2h2.2v3c0,.14,0,.29-.2.29a17.82,17.82,0,0,1-3.5-.17,5.13,5.13,0,0,1-3.67-2.75,4.62,4.62,0,0,1-.48-2V74H19.57V70.64h1.5c.19,0,.26,0,.26-.27V67.55Z"/><path class="cls-6" d="M54.36,78.07a2.2,2.2,0,0,0,1.54,2,2.66,2.66,0,0,0,2.9-.74.25.25,0,0,1,.24,0l3.12.79h0a6.23,6.23,0,0,1-1.55,1.84,6.32,6.32,0,0,1-8.23-.32A6,6,0,0,1,50.71,78a7,7,0,0,1,1-4.83,5.81,5.81,0,0,1,5.53-2.8,5.62,5.62,0,0,1,5.38,4.83,21.92,21.92,0,0,1,.27,2.68v.22Zm0-2.53H59c.24,0,.34,0,.24-.31a3.73,3.73,0,0,0-.31-.78,2.63,2.63,0,0,0-3.68-.55l-.06,0A2,2,0,0,0,54.36,75.54Z"/><path class="cls-6" d="M46.32,70.66H50v7.08a6.3,6.3,0,0,1-.53,2.6,4.84,4.84,0,0,1-3.79,2.83A7.34,7.34,0,0,1,42.31,83a4.83,4.83,0,0,1-3.5-4,8.84,8.84,0,0,1-.12-1.62V70.71a21.11,21.11,0,0,1,2.25,0,1.66,1.66,0,0,1,1.44,1.74v5.6a2,2,0,1,0,3.91,0h0v-7A1.85,1.85,0,0,0,46.32,70.66Z"/><path class="cls-6" d="M37.77,70.64V74H36a3.75,3.75,0,0,0-.82,0A1.88,1.88,0,0,0,33.67,76v6.74c0,.29,0,.38-.39.38H30V75.73a5.12,5.12,0,0,1,5.12-5.12Z"/><path class="cls-7" d="M39.63,58.76a3,3,0,0,1-1,2.41,3.77,3.77,0,0,1-2.83.85L35.07,59h-.68v-.89h1.33l.72,3.07a2.53,2.53,0,0,0,.9-.22,2.17,2.17,0,0,0,.7-.51,2.41,2.41,0,0,0,.46-.75,2.58,2.58,0,0,0,.17-.91,2.2,2.2,0,0,0-.58-1.57,2,2,0,0,0-1.55-.61,2.92,2.92,0,0,0-2.12.94L33.67,57a4,4,0,0,1,2.9-1.23,2.86,2.86,0,0,1,2.19.84A3,3,0,0,1,39.63,58.76Z"/><path class="cls-7" d="M38.5,64.38V63.32h-.61v-.67h1.52v1.83Z"/><path class="cls-7" d="M44.63,61.92V57.31a1.53,1.53,0,0,0-1.43-.75,2,2,0,0,0-1.59.77A2.77,2.77,0,0,0,41,59a2.38,2.38,0,0,0,.34,1.47,1.21,1.21,0,0,0,1.11.65,1.1,1.1,0,0,0,.87-.43l.65.55a1.86,1.86,0,0,1-1.52.72,2.05,2.05,0,0,1-1.77-.79,3.43,3.43,0,0,1-.6-2.17A3.47,3.47,0,0,1,41,56.61a2.74,2.74,0,0,1,2.15-1,2.52,2.52,0,0,1,2.41,1.3v4.83Z"/><path class="cls-7" d="M51.51,60a1.79,1.79,0,0,1-.8,1.52,3,3,0,0,1-1.83.53,2.8,2.8,0,0,1-1.81-.55,2,2,0,0,1-.82-1.72h.91a1.32,1.32,0,0,0,.56,1.11,2,2,0,0,0,1.18.32,3.53,3.53,0,0,0,.65,0,1.81,1.81,0,0,0,.54-.22,1.37,1.37,0,0,0,.36-.36.86.86,0,0,0,.14-.46c0-.52-.56-.83-1.69-.94a5.81,5.81,0,0,1-1.74-.36,1.22,1.22,0,0,1-.79-1.14,1.53,1.53,0,0,1,.72-1.3,2.81,2.81,0,0,1,1.72-.56,3.1,3.1,0,0,1,1.73.46,1.81,1.81,0,0,1,.87,1.28h-1c-.21-.59-.76-.89-1.64-.89a1.75,1.75,0,0,0-.56,0,2,2,0,0,0-.48.19,1.05,1.05,0,0,0-.34.29.54.54,0,0,0-.12.34c0,.43.59.69,1.76.77C50.7,58.38,51.51,58.94,51.51,60Z"/><path class="cls-7" d="M49.1,55V53.67H50v.6h3.21V55Z"/><path class="cls-7" d="M56.65,61.44a2.8,2.8,0,0,1-1.81.6,2.88,2.88,0,0,1-1.83-.6,1.82,1.82,0,0,1-.78-1.5V55.81h.92v4.13a1.06,1.06,0,0,0,.53.92,2.29,2.29,0,0,0,2.42,0,1,1,0,0,0,.5-.89V55.81h.85v4.13A1.82,1.82,0,0,1,56.65,61.44Z"/><path class="cls-7" d="M63.29,59.51a2.23,2.23,0,0,1-.75,1.76,3.22,3.22,0,0,1-2.19.72,5.21,5.21,0,0,1-2-.36V55.81h.92V61l.55.12h.56a2.45,2.45,0,0,0,1.45-.48,1.53,1.53,0,0,0,.48-1.16c0-1.11-.81-1.8-2.42-2l2-1.74.75.41-1.11,1A2.41,2.41,0,0,1,63.29,59.51Z"/><path class="cls-7" d="M63.49,54.27a.73.73,0,0,1-.25.55.93.93,0,0,1-1.23,0,.74.74,0,0,1-.08-1l.08-.08a.93.93,0,0,1,1.23,0A.73.73,0,0,1,63.49,54.27Zm-.54,0c0-.21-.12-.32-.36-.32s-.36.11-.36.32.12.31.36.31S63,54.48,63,54.27Z"/><path class="cls-7" d="M66.48,61.92V58.16A1.69,1.69,0,0,0,66.09,57,1.36,1.36,0,0,0,65,56.56a2.42,2.42,0,0,0-1.4.44V56A2.93,2.93,0,0,1,65,55.72a2.39,2.39,0,0,1,1.78.65,2.09,2.09,0,0,1,.56,1.54v4Z"/><path class="cls-7" d="M73.34,60a1.79,1.79,0,0,1-.8,1.52A3,3,0,0,1,70.7,62a2.8,2.8,0,0,1-1.81-.55,2.09,2.09,0,0,1-.82-1.72H69a1.27,1.27,0,0,0,.56,1.11,2,2,0,0,0,1.18.32,3.53,3.53,0,0,0,.65,0,1.65,1.65,0,0,0,.53-.22,1.24,1.24,0,0,0,.36-.36.79.79,0,0,0,.15-.46c0-.52-.57-.83-1.69-.94A5.74,5.74,0,0,1,69,58.86a1.22,1.22,0,0,1-.8-1.14,1.54,1.54,0,0,1,.73-1.3,2.76,2.76,0,0,1,1.71-.56,3.14,3.14,0,0,1,1.74.46,1.87,1.87,0,0,1,.87,1.28h-1c-.21-.59-.75-.89-1.64-.89a1.69,1.69,0,0,0-.55,0,2.26,2.26,0,0,0-.49.19,1,1,0,0,0-.33.29.62.62,0,0,0-.13.34c0,.43.59.69,1.77.77C72.52,58.38,73.34,58.94,73.34,60Z"/><path class="cls-7" d="M73.84,57.6v-1h.92V57h1v.58Zm0,3.57v-.94h.92v.44h1v.58Z"/><path class="cls-7" d="M80.65,61.92v-4a1.32,1.32,0,0,0-.41-1,1.58,1.58,0,0,0-1.09-.36,2.46,2.46,0,0,0-1.28.39,1.12,1.12,0,0,0-.6,1v4h-.92V55.81h.92v.63a2.73,2.73,0,0,1,1.88-.72,2.89,2.89,0,0,1,1,.14,2.47,2.47,0,0,1,.75.44,1.87,1.87,0,0,1,.51.67,2.09,2.09,0,0,1,.21.85v4.1Z"/><path class="cls-7" d="M87.51,60a1.79,1.79,0,0,1-.8,1.52,3,3,0,0,1-1.83.53,2.8,2.8,0,0,1-1.81-.55,2.07,2.07,0,0,1-.83-1.72h.92a1.27,1.27,0,0,0,.56,1.11,2,2,0,0,0,1.18.32,3.53,3.53,0,0,0,.65,0,1.65,1.65,0,0,0,.53-.22,1.27,1.27,0,0,0,.37-.36.86.86,0,0,0,.14-.46c0-.52-.56-.83-1.69-.94a5.81,5.81,0,0,1-1.74-.36,1.21,1.21,0,0,1-.79-1.14,1.53,1.53,0,0,1,.72-1.3,2.78,2.78,0,0,1,1.71-.56,3.11,3.11,0,0,1,1.74.46,1.84,1.84,0,0,1,.87,1.28h-1c-.21-.59-.76-.89-1.64-.89a1.75,1.75,0,0,0-.56,0,2.18,2.18,0,0,0-.48.19,1.17,1.17,0,0,0-.34.29.61.61,0,0,0-.12.34c0,.43.59.69,1.77.77C86.69,58.38,87.51,58.94,87.51,60Z"/><path class="cls-7" d="M86.93,64.12a1.71,1.71,0,0,1-.94.24,1.63,1.63,0,0,1-1.28-.51v-.6h-.46v-.6h1.37v1.06a.77.77,0,0,0,.37,0c.27,0,.41-.1.41-.29v-.77h.91v.91A.75.75,0,0,1,86.93,64.12Z"/><path class="cls-7" d="M92.77,61.46a2.38,2.38,0,0,1-1.71.58,2.76,2.76,0,0,1-1.89-.72V62h-.91V55.81h.91v4a1.16,1.16,0,0,0,.61,1,2.4,2.4,0,0,0,1.28.38,1.57,1.57,0,0,0,1.08-.36,1.29,1.29,0,0,0,.41-1v-4h.92v4.11A1.92,1.92,0,0,1,92.77,61.46Z"/><path class="cls-7" d="M91.25,55V53.67h.92v.6h3.21V55Z"/><path class="cls-7" d="M98.64,61.92v-.63a2.7,2.7,0,0,1-1.89.73A2.4,2.4,0,0,1,95,61.44a2,2,0,0,1-.68-1.55v-4.1h.92v4a1.29,1.29,0,0,0,.41,1,1.6,1.6,0,0,0,1.09.36,2.43,2.43,0,0,0,1.28-.39,1.12,1.12,0,0,0,.6-1v-4h.92v6.11Z"/><path class="cls-7" d="M104.5,61.92v-.63a2.68,2.68,0,0,1-1.88.73,2.38,2.38,0,0,1-1.71-.58,2,2,0,0,1-.68-1.55v-4.1h.92v4a1.29,1.29,0,0,0,.41,1,1.58,1.58,0,0,0,1.09.36,2.46,2.46,0,0,0,1.28-.39,1.12,1.12,0,0,0,.6-1v-4h.92v6.11Z"/><path class="cls-7" d="M100.69,55v-.77h3.81V53.5h.92V55Z"/><path class="cls-7" d="M104.5,53V51.61h.92V53Z"/></g></g></svg>