<svg xmlns="http://www.w3.org/2000/svg" xmlns:xlink="http://www.w3.org/1999/xlink" viewBox="0 0 147.33 180"><defs><style>.cls-1{fill:none;}.cls-2{isolation:isolate;}.cls-3{fill:#5d504b;}.cls-4{fill:url(#linear-gradient);}.cls-5{mix-blend-mode:multiply;fill:url(#linear-gradient-2);}.cls-6{clip-path:url(#clip-path);}.cls-7{fill:#eaeaea;}.cls-8{fill:#fff;}.cls-9{fill:#e6e6e5;}</style><linearGradient id="linear-gradient" x1="73.67" y1="-949.34" x2="73.67" y2="-1092.5" gradientTransform="matrix(1, 0, 0, -1, 0, -946.91)" gradientUnits="userSpaceOnUse"><stop offset="0.3" stop-color="#b5c234"/><stop offset="1" stop-color="#99ae3b"/></linearGradient><linearGradient id="linear-gradient-2" x1="74.29" y1="-950.93" x2="73.37" y2="-1054.79" gradientTransform="matrix(1, 0, 0, -1, 0, -946.91)" gradientUnits="userSpaceOnUse"><stop offset="0" stop-color="#fff" stop-opacity="0"/><stop offset="0.12" stop-color="#fbfcfc" stop-opacity="0.17"/><stop offset="0.41" stop-color="#f3f3f3" stop-opacity="0.52"/><stop offset="0.64" stop-color="#ececec" stop-opacity="0.78"/><stop offset="0.81" stop-color="#e9e8e8" stop-opacity="0.94"/><stop offset="0.9" stop-color="#e6e6e5"/></linearGradient><clipPath id="clip-path"><rect class="cls-1" x="2.09" y="2.43" width="143.16" height="143.16" rx="27.41" ry="27.41"/></clipPath></defs><title>Counter_Edited</title><g class="cls-2"><g id="Layer_12" data-name="Layer 12"><g id="Layer_2-2" data-name="Layer 2"><g id="mPay"><path class="cls-3" d="M27.86,165.65a8,8,0,0,1,2.48.95A5.72,5.72,0,0,1,31.9,168a4.47,4.47,0,0,1,.8,1.62,7.22,7.22,0,0,1,.24,1.73,6.2,6.2,0,0,1-.49,2.48,5.3,5.3,0,0,1-1.51,2,6.87,6.87,0,0,1-2.48,1.3,11.43,11.43,0,0,1-3.49.46,12.77,12.77,0,0,1-2.54-.23,10.47,10.47,0,0,1-2.05-.6,8,8,0,0,1-1.56-.87,5.26,5.26,0,0,1-1.09-1.07,4.45,4.45,0,0,1-.64-1.12,3.32,3.32,0,0,1-.2-1.13,1.89,1.89,0,0,1,0-.75,1.75,1.75,0,0,1,1-1,1.89,1.89,0,0,1,.75,0,1.76,1.76,0,0,1,1,.26,3.28,3.28,0,0,1,.73.66l.66.87a4.61,4.61,0,0,0,.84.87,4.11,4.11,0,0,0,1.24.66,5.47,5.47,0,0,0,1.84.26,4.75,4.75,0,0,0,1.5-.23,3.47,3.47,0,0,0,1.13-.58,2.35,2.35,0,0,0,.69-.84,2.21,2.21,0,0,0,.23-1,2,2,0,0,0,0-.6,1.76,1.76,0,0,0-.29-.58,2,2,0,0,0-.57-.52,3.12,3.12,0,0,0-.93-.37l-5-1.3a9.88,9.88,0,0,1-1.73-.61,6.37,6.37,0,0,1-1.27-.78,4.32,4.32,0,0,1-.87-.89,4.81,4.81,0,0,1-.51-1,4.29,4.29,0,0,1-.26-1A6.37,6.37,0,0,1,17,163a5.67,5.67,0,0,1,.31-2,5.08,5.08,0,0,1,.87-1.56,5.48,5.48,0,0,1,1.3-1.15,8,8,0,0,1,1.58-.78,10,10,0,0,1,1.79-.47,14.74,14.74,0,0,1,1.88,0,10.4,10.4,0,0,1,1.76.18,10.59,10.59,0,0,1,1.76.46,10.33,10.33,0,0,1,1.59.72,7.44,7.44,0,0,1,1.3.92,4.25,4.25,0,0,1,.83,1.1,2.32,2.32,0,0,1,.26,1.24,1.78,1.78,0,0,1-.2.75,1.76,1.76,0,0,1-.43.58,2,2,0,0,1-.64.35,3.14,3.14,0,0,1-.75,0,1.54,1.54,0,0,1-.83-.24,3.33,3.33,0,0,1-.64-.54l-.63-.73a4.64,4.64,0,0,0-.81-.72,4.54,4.54,0,0,0-1.16-.54,5.61,5.61,0,0,0-1.73-.24,5.11,5.11,0,0,0-1.35.18,2.86,2.86,0,0,0-1.19.26,2,2,0,0,0-.6.75,2.2,2.2,0,0,0-.21.95,1.44,1.44,0,0,0,.26.87,2.35,2.35,0,0,0,.73.6,5,5,0,0,0,1,.41l1.06.28Z"/><path class="cls-3" d="M39.72,161.09h-4a1.83,1.83,0,0,1-.73-.15,1.73,1.73,0,0,1-.57-.4,1.84,1.84,0,0,1-.38-.61,2.07,2.07,0,0,1,0-1.47,2,2,0,0,1,.38-.61,1.73,1.73,0,0,1,.57-.4,1.67,1.67,0,0,1,.73-.14H48.09a1.65,1.65,0,0,1,.72.14,1.73,1.73,0,0,1,.57.4,2,2,0,0,1,.38.61,2.07,2.07,0,0,1,0,1.47,1.69,1.69,0,0,1-.38.61,1.73,1.73,0,0,1-.57.4,1.82,1.82,0,0,1-.72.15H44v14.17a2,2,0,0,1-.64,1.47,2.23,2.23,0,0,1-.69.43,2.4,2.4,0,0,1-1.67,0,2.28,2.28,0,0,1-.7-.43,2,2,0,0,1-.63-1.47Z"/><path class="cls-3" d="M55.3,158.63a1.88,1.88,0,0,1,.81-1,2.74,2.74,0,0,1,1.35-.29h1.76a1.91,1.91,0,0,1,1.24.72,2.65,2.65,0,0,1,.44.83l5.36,14.75v1.27a1.34,1.34,0,0,1,0,.4,1.75,1.75,0,0,1-.17.75,1.85,1.85,0,0,1-.46.61,2.12,2.12,0,0,1-.66.4,2.28,2.28,0,0,1-.81.15,2.54,2.54,0,0,1-1.24-.29,1.72,1.72,0,0,1-.78-.92L61,172.77H54.32L53.16,176a1.6,1.6,0,0,1-.72.92,2.66,2.66,0,0,1-1.27.29,2.32,2.32,0,0,1-.83,0,1.94,1.94,0,0,1-.67-.38,1.74,1.74,0,0,1-.43-.6,2.08,2.08,0,0,1,0-1.21v-1.27ZM58,162.07h0l-2.62,7.73h5.19Z"/><path class="cls-3" d="M71.72,161.09h-4a1.75,1.75,0,0,1-.72-.15,1.67,1.67,0,0,1-.58-.4,1.84,1.84,0,0,1-.38-.61,2.07,2.07,0,0,1,0-1.47,2.15,2.15,0,0,1,.38-.61,1.67,1.67,0,0,1,.58-.4,1.6,1.6,0,0,1,.72-.14H80.12a1.65,1.65,0,0,1,.72.14,1.64,1.64,0,0,1,.57.4,2,2,0,0,1,.38.61,2.07,2.07,0,0,1,0,1.47,1.69,1.69,0,0,1-.38.61,1.73,1.73,0,0,1-.57.4,1.82,1.82,0,0,1-.72.15H76v14.17a2,2,0,0,1-.64,1.47,2.23,2.23,0,0,1-.69.43,2.3,2.3,0,0,1-2.37-.43,2,2,0,0,1-.63-1.47Z"/><path class="cls-3" d="M88.28,175.26a2,2,0,0,1-.63,1.44,2.14,2.14,0,0,1-.67.43,2.29,2.29,0,0,1-1.67,0,2.09,2.09,0,0,1-.66-.43,2,2,0,0,1-.64-1.44V159.15a1.93,1.93,0,0,1,.64-1.44,2.09,2.09,0,0,1,.66-.43,2.29,2.29,0,0,1,1.67,0,2.14,2.14,0,0,1,.67.43,2,2,0,0,1,.63,1.44Z"/><path class="cls-3" d="M91.17,167.2a12.13,12.13,0,0,1,.26-2.62,10.52,10.52,0,0,1,.81-2.45A9.35,9.35,0,0,1,93.59,160a8.22,8.22,0,0,1,1.91-1.67,8.85,8.85,0,0,1,2.45-1.1,10.36,10.36,0,0,1,5.77,0,9,9,0,0,1,2.48,1.1,8.37,8.37,0,0,1,1.94,1.67,9.84,9.84,0,0,1,1.38,2.11,10.52,10.52,0,0,1,.81,2.45,13.38,13.38,0,0,1,0,5.25,10.29,10.29,0,0,1-.81,2.42,9.84,9.84,0,0,1-1.38,2.11A8.53,8.53,0,0,1,106.2,176a9.37,9.37,0,0,1-2.48,1.06,11.22,11.22,0,0,1-2.88.38,10.82,10.82,0,0,1-2.89-.38A9.19,9.19,0,0,1,95.5,176a8.38,8.38,0,0,1-1.91-1.65,9.35,9.35,0,0,1-1.35-2.11,10.29,10.29,0,0,1-.81-2.42A12.16,12.16,0,0,1,91.17,167.2Zm4.3,0a8.77,8.77,0,0,0,0,1.62,7.41,7.41,0,0,0,.43,1.53,7.08,7.08,0,0,0,.72,1.36,4.84,4.84,0,0,0,2.48,1.81,6.29,6.29,0,0,0,3.58,0,4.75,4.75,0,0,0,1.44-.72,4.43,4.43,0,0,0,1.07-1.09,5.91,5.91,0,0,0,.72-1.36,7.43,7.43,0,0,0,.44-1.53,10.29,10.29,0,0,0,0-3.23,7.26,7.26,0,0,0-.44-1.53,5.91,5.91,0,0,0-.72-1.36,4.43,4.43,0,0,0-1.07-1.09,4.77,4.77,0,0,0-1.44-.73,5.89,5.89,0,0,0-1.82-.26,6.2,6.2,0,0,0-1.76.26,4.79,4.79,0,0,0-2.45,1.82,6.8,6.8,0,0,0-.72,1.36,7.24,7.24,0,0,0-.43,1.53,9.6,9.6,0,0,0,0,1.61Z"/><path class="cls-3" d="M113.59,159.76a2.67,2.67,0,0,1,.66-2,2.9,2.9,0,0,1,2-.64,2.79,2.79,0,0,1,1.24.29,2.37,2.37,0,0,1,.93.9l7.7,12.46h0V159.24a2.24,2.24,0,0,1,.55-1.62,2.08,2.08,0,0,1,1.5-.54,2.05,2.05,0,0,1,1.53.54,2.15,2.15,0,0,1,.55,1.62v15.24a3.14,3.14,0,0,1-.61,2,2.4,2.4,0,0,1-1.93.72h-.87a2,2,0,0,1-.63-.2,1.7,1.7,0,0,1-.46-.38,3.37,3.37,0,0,1-.41-.58l-7.64-12.12h0v11.32a2.13,2.13,0,0,1-.55,1.58,2.06,2.06,0,0,1-1.5.52,1.87,1.87,0,0,1-2.08-1.64,1.77,1.77,0,0,1,0-.46Z"/><rect class="cls-4" x="2.09" y="2.43" width="143.16" height="143.16" rx="27.41" ry="27.41"/><rect class="cls-5" x="2.09" y="2.43" width="143.16" height="143.16" rx="27.41" ry="27.41"/><g class="cls-6"><path class="cls-7" d="M131.57-9.6C78-23,38.19,27.91,38.19,27.91c-38,48.4,2.88,62.71,2.88,62.71,36.59,14.92,75-16.65,75-16.65,5.25-3.38,3.78-5.77,3.78-5.77-1.88-2.89-6.87,1-6.87,1C72.32,98.5,44.42,82,44.42,82c-32.15-18.9,5.22-57.71,5.22-57.71C80-5.65,109.55-.77,109.55-.77c46.86,4.88,28,39.13,28,39.13C127.84,55,117.72,53.54,117.72,53.54c-9.82,1.12.49-14.86.49-14.86h0l1.41-2s4.56-6.32,5.77-7.8c0,0,6-6.32,1.59-9.46-2.28-1.42-7.39-2.08-17.31,6.87L82.77,49.41l-.17.18h0l-.49.43.72-.81c1.33-2.25,7.41-12.52,11-17.78,0,0,7.65-11.34-1-11.71h0c-2,.26-6,1.64-13.22,7.39,0,0-23.08,19.16-27.38,23.66a214.72,214.72,0,0,1,12.61-20.4S71,21.91,67,19c0,0-4.62-3.52-9.82,3.49,0,0-28.19,38.06-13.56,42,0,0,3.46,1.48,11-4.41l22-19.91S63,61.42,70.42,64c0,0,3.46,1.78,10.94-3.58l25.77-20A49.48,49.48,0,0,0,104.76,45h0c-2.48,5.42-5.4,14.11-1,17.71h0c.84.67,4.7,3.15,13,1.33,16-2.68,28-23.83,28-23.83C164.41,1.6,131.57-9.6,131.57-9.6Z"/><path class="cls-8" d="M130.79-10.44C77.2-23.85,37.41,27.08,37.41,27.08c-38,48.39,2.88,62.7,2.88,62.7,36.59,14.92,75-16.65,75-16.65,5.25-3.37,3.78-5.77,3.78-5.77-1.9-2.88-6.87,1-6.87,1C71.49,97.66,43.55,81.15,43.55,81.15c-32.14-18.9,5.23-57.71,5.23-57.71,30.38-30,59.93-25,59.93-25,46.87,4.88,28,39.13,28,39.13C127,54.14,116.88,52.7,116.88,52.7c-9.81,1.13.49-14.86.49-14.86h0l1.41-2s4.56-6.32,5.78-7.79c0,0,5.94-6.32,1.58-9.47-2.28-1.41-7.38-2.08-17.31,6.87L81.93,48.58l-.17.17h0l-.49.43.72-.81c1.33-2.25,7.42-12.52,11-17.77,0,0,7.65-11.34-1-11.72h0c-2,.26-6,1.65-13.21,7.39,0,0-23.09,19.16-27.39,23.66A214.72,214.72,0,0,1,64,29.53s6.15-8.46,2.14-11.4c0,0-4.62-3.49-9.81,3.52,0,0-28.17,38.06-13.57,42.05,0,0,3.47,1.47,11.06-4.42l22-19.88S62.05,60.64,69.53,63.18c0,0,3.46,1.79,10.93-3.58l25.71-20s-1.12,1.88-2.36,4.59h0c-2.48,5.42-5.4,14.11-1,17.72h0c.83.66,4.7,3.14,13,1.29C132,60.72,144,39.63,144,39.63,163.57.73,130.79-10.44,130.79-10.44Z"/></g><path class="cls-9" d="M61.53,104.7a10.71,10.71,0,0,0-8.91-3.78,34.38,34.38,0,0,0-9.93,1.44l-.58.18-8,34.28h5.6l2.3-9.81a11.77,11.77,0,0,0,4.68.89,17.78,17.78,0,0,0,16.53-13.62A11.17,11.17,0,0,0,61.53,104.7Zm-14,18.07a13.36,13.36,0,0,1-4.3-.7l3.63-15.46a19.56,19.56,0,0,1,5-.61,6,6,0,0,1,4.94,2.08,6.79,6.79,0,0,1,1,5.77A11.54,11.54,0,0,1,47.51,122.77Z"/><path class="cls-9" d="M87,104.07a9.45,9.45,0,0,0-7.65-3.15,18.56,18.56,0,0,0-10.3,3.35l-.72.49,2.34,3.69.78-.46a14.4,14.4,0,0,1,7-2,4.9,4.9,0,0,1,3.89,1.44,4.35,4.35,0,0,1,.64,3.52A11.6,11.6,0,0,0,78,109.78h-.29a14.45,14.45,0,0,0-12.81,6.46A7.7,7.7,0,0,0,64.5,124a9.75,9.75,0,0,0,9,4h.2a13.84,13.84,0,0,0,6.41-1.76v1.36h4.53L88.28,112A9.09,9.09,0,0,0,87,104.07Zm-5.11,11.54-.75,3.17-.4,1.76a10.39,10.39,0,0,1-6.35,2.2c-3.32,0-5.39-1.19-5.39-3.09s2.88-5.05,8.22-5.08a9.25,9.25,0,0,1,4.67,1.07Z"/><path class="cls-9" d="M111.05,101.56,99.83,119.85l-2.89-18.29H91.17l4.3,25-2,3.17a3.68,3.68,0,0,1-3.47,2H88.43l-1.16,4.91h2.46a9.5,9.5,0,0,0,8.65-4.77l18.76-30.32Z"/><path class="cls-8" d="M60.29,103.86a10.72,10.72,0,0,0-8.89-3.63,34.36,34.36,0,0,0-9.92,1.44l-.49.15L32.91,136h5.6l2.3-9.81a11.56,11.56,0,0,0,4.68.92A17.76,17.76,0,0,0,62.05,113.5,11.24,11.24,0,0,0,60.29,103.86Zm-14,18.07a13.56,13.56,0,0,1-4.33-.67L45.6,105.8a20,20,0,0,1,5-.58,6,6,0,0,1,4.94,2.08,6.79,6.79,0,0,1,.95,5.77A11.53,11.53,0,0,1,46.3,121.93Z"/><path class="cls-8" d="M85.8,103.11a9.41,9.41,0,0,0-7.62-2.88,18.57,18.57,0,0,0-10.33,3.37l-.72.5,2.37,3.69.78-.46a14.37,14.37,0,0,1,7.07-2.11,4.91,4.91,0,0,1,3.89,1.44,4.36,4.36,0,0,1,.61,3.49,11.48,11.48,0,0,0-5.11-1.26h-.29a14.41,14.41,0,0,0-12.84,6.49,7.69,7.69,0,0,0-.35,7.7,9.75,9.75,0,0,0,9,4h.2a13.73,13.73,0,0,0,6.38-1.7v1.36h4.56L87,111.16A9,9,0,0,0,85.8,103.11Zm-5.08,11.55-1.09,4.21-.21.87a10.21,10.21,0,0,1-6.37,2.19c-3.32,0-5.37-1.18-5.4-3.06s2.89-5.05,8.2-5.08a9.46,9.46,0,0,1,4.84,1Z"/><path class="cls-8" d="M109.81,100.75,98.73,119l-2.89-18.29H90.07l4.3,25-2,3.17a3.72,3.72,0,0,1-3.49,2H87.3l-1.15,4.88h2.57A9.41,9.41,0,0,0,97.23,131l18.9-30.33Z"/></g></g></g></g></svg>