<svg xmlns="http://www.w3.org/2000/svg" viewBox="0 0 140 180"><defs><style>.cls-1{fill:#1d1d1a;}.cls-2{fill:#eb7f23;}</style></defs><title>Counter_Edited</title><g id="Layer_7" data-name="Layer 7"><path class="cls-1" d="M18.61,77h4.71a10.36,10.36,0,0,1-4,6.06,12.09,12.09,0,0,1-7.47,2.2,10.59,10.59,0,0,1-8.45-3.51,14.29,14.29,0,0,1-3-9.85,14.13,14.13,0,0,1,2.94-9.54A10.61,10.61,0,0,1,11.87,59a11.45,11.45,0,0,1,8.82,3.4,13,13,0,0,1,2.46,4.85H16.51a5.54,5.54,0,0,0-1-1.44,4.6,4.6,0,0,0-3.51-1.33,4.67,4.67,0,0,0-3.42,1.33A9.29,9.29,0,0,0,6.91,72a8.9,8.9,0,0,0,1.72,6.17,4.47,4.47,0,0,0,3.7,1.52,5.38,5.38,0,0,0,2.75-.66,1.44,1.44,0,0,0,.52-.33l.51-.51a4.26,4.26,0,0,1,.76-.77A2.63,2.63,0,0,1,18.61,77Z"/><path class="cls-1" d="M41.68,77h4.75a10.35,10.35,0,0,1-4,6.08A12.11,12.11,0,0,1,35,85.25a10.59,10.59,0,0,1-8.45-3.51,14.24,14.24,0,0,1-3-9.85,14.13,14.13,0,0,1,2.94-9.54,10.6,10.6,0,0,1,8.46-3.51,11.42,11.42,0,0,1,8.83,3.51,14.51,14.51,0,0,1,3,9.79v1a1.89,1.89,0,0,1,0,.67H30.29a6.54,6.54,0,0,0,1.43,4.37,4.5,4.5,0,0,0,3.7,1.52,5.29,5.29,0,0,0,2.75-.67,1.29,1.29,0,0,0,.52-.32l.51-.52a2.07,2.07,0,0,1,.71-.76A2.79,2.79,0,0,1,41.68,77ZM30.23,69.58h9.7a6.25,6.25,0,0,0-1.34-3.82,4.58,4.58,0,0,0-3.51-1.33,4.69,4.69,0,0,0-3.42,1.33,5.47,5.47,0,0,0-1.37,3.82Z"/><path class="cls-1" d="M69.52,84.77H66.18a3.08,3.08,0,0,1-3.22-3,1.22,1.22,0,0,1,0-.27V68.63a3.81,3.81,0,0,0-1.38-3.32,4.94,4.94,0,0,0-3.09-1,4.77,4.77,0,0,0-3,1,4,4,0,0,0-1.34,3.32V84.77H47.48V70q0-6.45,3.38-8.64A14.71,14.71,0,0,1,58.32,59,14.27,14.27,0,0,1,66,61.15q3.52,2.19,3.52,8.83Z"/><path class="cls-1" d="M78.05,118.13a3.2,3.2,0,0,1-3.2,3.18H71.66V97.94q0-6.57,3.82-9a15.62,15.62,0,0,1,8.36-2.39,13.69,13.69,0,0,1,4.73.9,8.84,8.84,0,0,1,3.81,2.58,15,15,0,0,1,2.83,9.39A15.23,15.23,0,0,1,92.38,109a8.79,8.79,0,0,1-7.23,3.57,9.57,9.57,0,0,1-4.12-.84,7.16,7.16,0,0,1-3-2.92Zm10.71-18.4A9.58,9.58,0,0,0,87.35,94a4.64,4.64,0,0,0-4-1.91,4.56,4.56,0,0,0-4,1.91A9.55,9.55,0,0,0,78,99.73a8.6,8.6,0,0,0,1.42,5.35,4.64,4.64,0,0,0,4,1.9,4.51,4.51,0,0,0,3.82-1.9,9.11,9.11,0,0,0,1.45-5.37Z"/><path class="cls-1" d="M65.65,83.34l.8,2.37s2.2,3.47,2.27,3.68,1,4.39,1.09,4.6,1.35,3.3,1.35,3.3l.9,1.64c.06.12,1,.29,1.11,0s2.4-4.69,2.4-4.69l1.82-3,3.37-2.71L82,86.3l-1.77-1.7-8.08-.69-2.06-2.06-1.64-.8-1.73,1Z"/><path class="cls-1" d="M111.87,111.09a11.58,11.58,0,0,1-4.18,1.26,37.46,37.46,0,0,1-3.82.22,9.74,9.74,0,0,1-5.91-1.9,6.94,6.94,0,0,1-2.54-6,6.53,6.53,0,0,1,2.31-5.73,13.27,13.27,0,0,1,5.74-2.08,5.36,5.36,0,0,0,1.13-.13c.44,0,.93-.17,1.51-.23,2.74-.37,4.12-1.18,4.12-2.44a1.78,1.78,0,0,0-1.45-1.91,9.72,9.72,0,0,0-2.67-.42,6.93,6.93,0,0,0-2.35.38,2.56,2.56,0,0,0-1.51,1.41H96a7.25,7.25,0,0,1,2.64-4.79,10.84,10.84,0,0,1,7.23-2.15,14.18,14.18,0,0,1,7.88,1.79,6,6,0,0,1,2.73,5.27v8.55a10.67,10.67,0,0,1-1.36,5.87A8.31,8.31,0,0,1,111.87,111.09Zm-1.51-11.55a17.49,17.49,0,0,1-3.66,1.22l-2.16.48a5.63,5.63,0,0,0-2.44,1.22,3.8,3.8,0,0,0-.65,2.06,3,3,0,0,0,.84,2.25,3.52,3.52,0,0,0,2.44.75,5.21,5.21,0,0,0,5.73-4.6,5.34,5.34,0,0,0,0-1.13Z"/><path class="cls-1" d="M119,120.93v-5.15h1.7a4.48,4.48,0,0,0,2.95-.9c.72-.59.86-1.55.42-2.86l-8.64-24.86h7.17l5.08,17.65,4.47-15.42a2.75,2.75,0,0,1,3-2.23h4.5l-9.54,28.45a9.59,9.59,0,0,1-2.82,4.41,10.33,10.33,0,0,1-5.54,1.12H120.4a3.42,3.42,0,0,0-.71-.13Z"/><path class="cls-2" d="M97.29,81.93a4.73,4.73,0,0,0-4.73-4.73h-7L95.84,67a4.73,4.73,0,1,0-6.7-6.69L79,70.5v-7a4.77,4.77,0,0,0-9.54,0V80.8a4.17,4.17,0,0,0,0,.5,5.27,5.27,0,0,0,5.19,5.32h17.9A4.72,4.72,0,0,0,97.29,81.93Z"/><path class="cls-2" d="M43.86,89.47a4.73,4.73,0,0,0,4.73,4.73h6.93L45.4,104.33a4.74,4.74,0,1,0,6.7,6.7l10.13-10.17v7a4.78,4.78,0,0,0,9.55,0V90.08a5.29,5.29,0,0,0-5.2-5.33h-18A4.75,4.75,0,0,0,43.86,89.47Z"/></g></svg>