<svg xmlns="http://www.w3.org/2000/svg" viewBox="0 0 672.67 180"><defs><style>.cls-1{fill:#2a2771;}.cls-2{fill:#e22528;}.cls-3{fill:#2e368f;}.cls-4{fill:#ec2227;}.cls-5{fill:#bdbec0;}.cls-6{fill:#c5c5c7;opacity:0.53;isolation:isolate;}</style></defs><title>Counter_Edited</title><g id="Layer_15" data-name="Layer 15"><g id="Pay_Post" data-name="Pay Post"><polygon class="cls-1" points="1.22 85.04 16.84 3.27 27.59 3.27 11.97 85.04 1.22 85.04"/><polygon class="cls-1" points="18.25 85.04 33.96 3.27 38.34 3.27 22.71 85.04 18.25 85.04"/><polygon class="cls-1" points="28.01 85.04 43.63 3.27 51.41 3.27 35.78 85.04 28.01 85.04"/><polygon class="cls-1" points="102.34 85.04 117.97 3.27 125.82 3.27 110.19 85.04 102.34 85.04"/><polygon class="cls-1" points="89.28 85.04 104.9 3.27 112.67 3.27 97.05 85.04 89.28 85.04"/><polygon class="cls-1" points="39.66 85.04 55.29 3.27 59.67 3.27 44.05 85.04 39.66 85.04"/><polygon class="cls-1" points="122.68 85.04 138.31 3.27 142.69 3.27 127.06 85.04 122.68 85.04"/><polygon class="cls-1" points="54.71 85.04 70.34 3.27 74.72 3.27 59.1 85.04 54.71 85.04"/><polygon class="cls-1" points="63.73 85.04 79.35 3.27 91.76 3.27 76.05 85.04 63.73 85.04"/><polygon class="cls-1" points="48.68 85.04 64.31 3.27 67.36 3.27 51.74 85.04 48.68 85.04"/><polygon class="cls-1" points="115.07 85.04 130.7 3.27 133.76 3.27 118.13 85.04 115.07 85.04"/><polygon class="cls-1" points="81.25 85.04 96.88 3.27 99.94 3.27 84.31 85.04 81.25 85.04"/><path class="cls-1" d="M397.44,54.86,396.77,57a12.73,12.73,0,0,0-.49,2.81,5.2,5.2,0,0,0,0,2.48,1.9,1.9,0,0,0,2,1.08,6.51,6.51,0,0,0,3.39-1.08,16.08,16.08,0,0,0,3.48-2.89,28,28,0,0,0,3.22-4.3A36.3,36.3,0,0,0,411,49.82,38.11,38.11,0,0,0,412.82,44a27.75,27.75,0,0,0,.66-6,29.24,29.24,0,0,0-1.16-8.27,26.37,26.37,0,0,0-3.23-7,27.23,27.23,0,0,0-4.87-5.62A28.77,28.77,0,0,0,398.1,13a32.49,32.49,0,0,0-31.75,1.41,34,34,0,0,0-11.91,12.73A37.79,37.79,0,0,0,350,45.1a34.69,34.69,0,0,0,4.71,17.61,33.65,33.65,0,0,0,5.29,7,34,34,0,0,0,15,8.85,33,33,0,0,0,9,1.24,33.56,33.56,0,0,0,7.86-.91A36.2,36.2,0,0,0,406,72.06a33.86,33.86,0,0,0,5.54-5.62h8.26A42.09,42.09,0,0,1,413,74.7,41.15,41.15,0,0,1,404.71,81,40.43,40.43,0,0,1,395,84.87a43.14,43.14,0,0,1-10.67,1.33A44.2,44.2,0,0,1,373,84.79a42.59,42.59,0,0,1-10.17-4.13,41.45,41.45,0,0,1-15.21-14.72,42,42,0,0,1-4.22-10.09,43.3,43.3,0,0,1-1.49-11.49,41.63,41.63,0,0,1,1.49-11.16,42.19,42.19,0,0,1,4.22-10,41.38,41.38,0,0,1,6.53-8.27,42.49,42.49,0,0,1,8.27-6.53,41.39,41.39,0,0,1,21-5.62,42.57,42.57,0,0,1,10,1.16,41.27,41.27,0,0,1,9.1,3.3,37.33,37.33,0,0,1,7.77,5.3,34.16,34.16,0,0,1,6,6.94,33.34,33.34,0,0,1,4,8.27,32.13,32.13,0,0,1,1.4,9.59,32.91,32.91,0,0,1-1.24,9.1,36.21,36.21,0,0,1-3.31,8.26,34.48,34.48,0,0,1-4.71,6.54,32.8,32.8,0,0,1-5.54,4.71,26.61,26.61,0,0,1-6,3.14,17.15,17.15,0,0,1-5.71,1.08,7.14,7.14,0,0,1-4.79-1.66,9.62,9.62,0,0,1-2.82-5.12A28.11,28.11,0,0,1,384.7,66a20.33,20.33,0,0,1-3.3,2.23,19.55,19.55,0,0,1-3.64,1.58,13.06,13.06,0,0,1-4,.57,15,15,0,0,1-6.53-1.4,15.66,15.66,0,0,1-5.13-3.89,18.11,18.11,0,0,1-3.39-5.7,20.53,20.53,0,0,1-1.24-7,35.62,35.62,0,0,1,.83-7.77,36.73,36.73,0,0,1,2.48-7.44,34.17,34.17,0,0,1,4-6.62,28.62,28.62,0,0,1,5.29-5.37,24.05,24.05,0,0,1,6.45-3.56A21.7,21.7,0,0,1,384,20.3a17.33,17.33,0,0,1,3.81,0,11.25,11.25,0,0,1,3.47,1.4,11.93,11.93,0,0,1,3,2.65,14.52,14.52,0,0,1,2.24,4.13l2.15-6.36h8.26Zm-13-26.29a11.82,11.82,0,0,0-5,1.07,16.14,16.14,0,0,0-4.21,2.81,21.54,21.54,0,0,0-3.48,4.14,29.45,29.45,0,0,0-2.56,5,30.59,30.59,0,0,0-1.65,5.29,24.5,24.5,0,0,0-.58,5,12.68,12.68,0,0,0,.66,4.14,9.54,9.54,0,0,0,1.82,3.3,8.05,8.05,0,0,0,2.89,2.15,8.91,8.91,0,0,0,3.81.75,9.51,9.51,0,0,0,4.46-1.08,16.46,16.46,0,0,0,4.05-3A24.6,24.6,0,0,0,388.09,54a33.74,33.74,0,0,0,2.65-5,31.86,31.86,0,0,0,1.74-5.21,21.69,21.69,0,0,0,.57-4.88,10.49,10.49,0,0,0-.66-3.8,11.18,11.18,0,0,0-1.9-3.23,10,10,0,0,0-2.73-2.23A6.49,6.49,0,0,0,384.46,28.57Z"/><path class="cls-2" d="M479.54,3.93a33.08,33.08,0,0,1,11.25,1.73,18.78,18.78,0,0,1,7.77,5.05,17.44,17.44,0,0,1,4,8.27,28.6,28.6,0,0,1,0,10.91,34.28,34.28,0,0,1-3.89,10.83A28.77,28.77,0,0,1,491.7,49a30,30,0,0,1-9.6,5.13,36.63,36.63,0,0,1-11.9,1.65H451.84l-5.46,30.67H428.19L443,3.76Zm-11.41,35.8a17.5,17.5,0,0,0,10-2.23,10.46,10.46,0,0,0,4.38-7.28,7.53,7.53,0,0,0-1.74-7.36,13.67,13.67,0,0,0-9.18-2.4H458.13l-3.48,19.27Z"/><path class="cls-2" d="M503.77,56.35A43.68,43.68,0,0,1,508.4,43.2a35.71,35.71,0,0,1,8.27-9.92A34.24,34.24,0,0,1,527.41,27a37.76,37.76,0,0,1,12.74-2.4,32.42,32.42,0,0,1,12.4,2.15A20.64,20.64,0,0,1,560.82,33a22.14,22.14,0,0,1,4.3,9.92,36.33,36.33,0,0,1,0,13.15,42.55,42.55,0,0,1-4.63,13.23,35.57,35.57,0,0,1-8.27,9.92,34.37,34.37,0,0,1-10.83,6.2,38.23,38.23,0,0,1-13,2.15,32,32,0,0,1-12.24-2.15,20.84,20.84,0,0,1-8.27-6.2,21.8,21.8,0,0,1-4.38-9.92A37,37,0,0,1,503.77,56.35Zm18.68,0A33.29,33.29,0,0,0,522,63,17.14,17.14,0,0,0,523,68.67a9,9,0,0,0,3,4,8.27,8.27,0,0,0,4.88,1.49,11.49,11.49,0,0,0,5.79-1.41,15.36,15.36,0,0,0,4.46-3.88,22.2,22.2,0,0,0,3.22-5.71,35.65,35.65,0,0,0,1.91-6.86,36.28,36.28,0,0,0,1.15-7,15.63,15.63,0,0,0-1-5.7,8.73,8.73,0,0,0-3.06-4.05,9.07,9.07,0,0,0-5.54-1.49,10.6,10.6,0,0,0-5.62,1.49,15.68,15.68,0,0,0-4.46,4.05,24,24,0,0,0-3.23,5.7,34.89,34.89,0,0,0-1.9,7Z"/><path class="cls-2" d="M586.78,66.85a9,9,0,0,0,0,4.13,5.67,5.67,0,0,0,1.74,2.73,7.52,7.52,0,0,0,2.89,1.49,14.15,14.15,0,0,0,3.72.41,15,15,0,0,0,3.14,0,9.64,9.64,0,0,0,2.9-1.07,8.16,8.16,0,0,0,2.31-2,6.58,6.58,0,0,0,1.24-3,3.78,3.78,0,0,0-.49-2.73,6.46,6.46,0,0,0-2.48-2.07,24.08,24.08,0,0,0-4.55-1.73l-6.78-1.74-4.22-1.24a30.58,30.58,0,0,1-4.13-1.74A21.54,21.54,0,0,1,578.43,56a12.11,12.11,0,0,1-2.73-3,11.21,11.21,0,0,1-1.57-3.8,12.49,12.49,0,0,1,0-4.72,22.79,22.79,0,0,1,2.32-6.78,20.2,20.2,0,0,1,8.76-8.26,29.83,29.83,0,0,1,5.71-2.24,38.25,38.25,0,0,1,6.2-1.15,59.8,59.8,0,0,1,6.28,0,49.58,49.58,0,0,1,6.45,0,30.33,30.33,0,0,1,5.79,1.24,19.08,19.08,0,0,1,4.79,2.31A13.4,13.4,0,0,1,624,33.2a14,14,0,0,1,2.07,4.88,21.07,21.07,0,0,1,0,6.44H608.78a5.53,5.53,0,0,0-1.66-5.2,9.74,9.74,0,0,0-6-1.58h-2.65a8.74,8.74,0,0,0-2.32.75,5.9,5.9,0,0,0-1.81,1.32,3.8,3.8,0,0,0-.91,2,3.29,3.29,0,0,0,.66,2.89,8.22,8.22,0,0,0,3,2.07,31.47,31.47,0,0,0,4.72,1.57l5.87,1.57,4.3,1.24a28.21,28.21,0,0,1,4.13,1.74,22,22,0,0,1,3.64,2.39,12.25,12.25,0,0,1,2.73,3.06,11.38,11.38,0,0,1,1.49,4,14.25,14.25,0,0,1,0,5,27.6,27.6,0,0,1-2.4,7.36,21.18,21.18,0,0,1-9,9.34,30.82,30.82,0,0,1-6,2.48,38.14,38.14,0,0,1-6.61,1.33,65.6,65.6,0,0,1-6.87,0,49.87,49.87,0,0,1-6.69-.42,29,29,0,0,1-5.79-1.57,21.85,21.85,0,0,1-5.13-2.64,14.51,14.51,0,0,1-3.8-4,15,15,0,0,1-2.15-5.38,20.19,20.19,0,0,1,0-7Z"/><path class="cls-2" d="M671.45,26l-1.57,12.08H659.63l-4.72,30.59a5.14,5.14,0,0,0,0,1.24,2.83,2.83,0,0,0,0,1.16,2.48,2.48,0,0,0,.91.91,2.9,2.9,0,0,0,1.49,0h5.87l-1.57,14.88H650.78a40.47,40.47,0,0,1-7.61-.66,11.52,11.52,0,0,1-5.29-2.32,8.24,8.24,0,0,1-2.73-4.63,19.82,19.82,0,0,1,0-7.52l5.62-33.82h-8.26l2.06-12.07h8.27l2.89-17.78h18.86l-2.9,18Z"/><path class="cls-1" d="M189.65,3.27A34.44,34.44,0,0,1,201.31,5a17,17,0,0,1,7.53,5.05,16.62,16.62,0,0,1,3.47,8.26,30.65,30.65,0,0,1-.5,10.84,35.91,35.91,0,0,1-4.05,10.66,26.85,26.85,0,0,1-6.86,7.77,29.11,29.11,0,0,1-9.59,4.8A42.06,42.06,0,0,1,179,54H159.56L153,85H131.53L148.81,3.27ZM178.9,42a19.45,19.45,0,0,0,6.21-.74,14.49,14.49,0,0,0,4.71-2.4A12.36,12.36,0,0,0,193,35.18a16.72,16.72,0,0,0,1.82-4.88,13.8,13.8,0,0,0,0-4.88,7.56,7.56,0,0,0-1.73-3.72,8.23,8.23,0,0,0-3.73-2.39,17.42,17.42,0,0,0-5.87-.83H167.66L163,42Z"/><path class="cls-1" d="M248.69,80a23.54,23.54,0,0,1-5,3.47A33.65,33.65,0,0,1,238,85.7a36.64,36.64,0,0,1-5.79,1.16,47.9,47.9,0,0,1-5.62,0,24.57,24.57,0,0,1-7.52-1.08,13.3,13.3,0,0,1-5.54-3.3,11.59,11.59,0,0,1-3-5.63,19.18,19.18,0,0,1,0-8.26A21,21,0,0,1,214,60.32a19.08,19.08,0,0,1,5.54-5,26.4,26.4,0,0,1,6.95-2.81c2.48-.6,5-1.13,7.61-1.57l7.36-1.24a44.08,44.08,0,0,0,6.28-1.49,16,16,0,0,0,4.63-2.23,5.78,5.78,0,0,0,2.31-3.56,7.1,7.1,0,0,0,0-3.88A3.92,3.92,0,0,0,253,36.34a7.4,7.4,0,0,0-3.06-1h-4a17.79,17.79,0,0,0-4.3.49,10.77,10.77,0,0,0-6.37,4.38,14.4,14.4,0,0,0-1.9,4.14H217.52a26.31,26.31,0,0,1,3-6.86A25.46,25.46,0,0,1,225,32.87a24.68,24.68,0,0,1,5.37-3.81,34.87,34.87,0,0,1,6.12-2.48,41.72,41.72,0,0,1,6.53-1.4,52.42,52.42,0,0,1,6.62-.42h5.87a37.8,37.8,0,0,1,5.7.91,22.61,22.61,0,0,1,5,1.82,11,11,0,0,1,3.72,3.06,10.37,10.37,0,0,1,1.9,4.55,16.19,16.19,0,0,1,0,6.28L262.08,87h-14.8Zm3.14-22.33A10.77,10.77,0,0,1,249,59.24a27.91,27.91,0,0,1-3.56,1.16l-3.88.83-4,.66-3.64.74a13.62,13.62,0,0,0-3.22,1.16,8.25,8.25,0,0,0-2.48,1.9,6.71,6.71,0,0,0-1.49,3.23,7.33,7.33,0,0,0,0,3.72,3.89,3.89,0,0,0,1.65,2.15,7.25,7.25,0,0,0,2.9,1H235a18,18,0,0,0,5.46-.75,15.15,15.15,0,0,0,4.05-1.9,11.57,11.57,0,0,0,2.81-2.64,16.86,16.86,0,0,0,1.82-3,15.68,15.68,0,0,0,1.08-2.81,4.6,4.6,0,0,1,.49-2.23Z"/><path class="cls-1" d="M299.37,96.2c-4.05,6.86-5.62,9-9.75,9H269.28l3.06-14.47h11.32c3.06,0,5.71-6.11,5.71-9.09l-8.93-56.31h15.13l4.71,42.5h0l22.41-42.5h16.54Z"/><path class="cls-1" d="M4.86,102.15l-1.74.5H1.3l.41-2.48H4.52a2.89,2.89,0,0,0,.91-.83A4.8,4.8,0,0,0,6.18,98H9.32L6,113.73H2.54Z"/><path class="cls-1" d="M32.06,108.52a4.1,4.1,0,0,0,0,1,1.47,1.47,0,0,0,0,.66h.66a1.47,1.47,0,0,0,.83,0l1.24-.41a3.84,3.84,0,0,0,0-.83,9.55,9.55,0,0,0,0-1.07,8.17,8.17,0,0,0,0-1,2.78,2.78,0,0,0,0-.91,1.17,1.17,0,0,0-.42-.66,1.42,1.42,0,0,0-.91,0h-.74l-.5.58H29.08L32,97.19h8.26L39.67,100H34.79l-.5,1.66v.49h1.57a4.35,4.35,0,0,1,2.07.42,3.08,3.08,0,0,1,1.24,1.16,4.12,4.12,0,0,1,.5,1.65,6.57,6.57,0,0,1,0,2,8.77,8.77,0,0,1-.42,1.41,8.14,8.14,0,0,1-.74,1.4l-1,1.25a6.58,6.58,0,0,1-1.24,1l-1.49.66a6.34,6.34,0,0,1-1.74,0,6,6,0,0,1-2.07,0,3.3,3.3,0,0,1-1.4-1,3,3,0,0,1-.66-1.57,5.19,5.19,0,0,1,0-2.15Z"/><path class="cls-1" d="M65.3,97.52h3.39l-2,9.76h1.16l-.58,2.65H65.79l-.74,3.63H61.49l.75-3.63H56.45l.58-2.65Zm-2.15,9.76.58-3V103l-.67.91-2.89,3.39Z"/><path class="cls-1" d="M89.69,108.52a4.1,4.1,0,0,0,0,1,1.47,1.47,0,0,0,0,.66h.66a1.47,1.47,0,0,0,.83,0l.66-.57a4.07,4.07,0,0,0,.83-.67,9.55,9.55,0,0,0,0-1.07,8.18,8.18,0,0,0,0-1,2.78,2.78,0,0,0,0-.91,1.17,1.17,0,0,0-.42-.66,1.42,1.42,0,0,0-.91,0h-1.4l-.5.58H86.38l2.9-8.69h8.26L97,100h-5.2l-.5,1.66v.49h1.41a4.31,4.31,0,0,1,2.06.42A3.08,3.08,0,0,1,96,103.73a4.12,4.12,0,0,1,.5,1.65,6.57,6.57,0,0,1,0,2,9.89,9.89,0,0,1-.41,1.41,9,9,0,0,1-.75,1.4l-1,1.25a6.58,6.58,0,0,1-1.24,1l-1.49.66a6.34,6.34,0,0,1-1.74,0,5.94,5.94,0,0,1-2.06,0,3.27,3.27,0,0,1-1.41-1,3.14,3.14,0,0,1-.66-1.57,5.19,5.19,0,0,1,0-2.15Z"/><path class="cls-1" d="M209.91,165.9h-4.63l3.14-18.52v-.66a3.64,3.64,0,0,0,0-.66,4.47,4.47,0,0,0-1.73-3.72,7.45,7.45,0,0,0-4.72-1.41,14.27,14.27,0,0,0-6.78,1.82,6.64,6.64,0,0,0-3.88,4.47l-3.56,18.52h-4.13l5.45-28.36h4.63l-.57,2.89a17.49,17.49,0,0,1,10.25-3.39,12.1,12.1,0,0,1,7.44,2.15,6.86,6.86,0,0,1,2.81,5.79v2Z"/><path class="cls-1" d="M207.68,177.23h-4.63l.91-5H200.9l.66-3.56h7.69Z"/><path class="cls-1" d="M240.75,165.9h-4.63l3.64-18.68a1.88,1.88,0,0,0,0-.58v-.58a4.12,4.12,0,0,0-2.07-3.72,9.73,9.73,0,0,0-5.37-1.32,13,13,0,0,0-9.1,3.22l-4.13,21.58h-4.63l4.3-22.65a19.22,19.22,0,0,1,14.47-6.12,14.88,14.88,0,0,1,8.27,2,6.78,6.78,0,0,1,3.3,5.87v1.66Z"/><path class="cls-1" d="M273.41,156.89a10.68,10.68,0,0,1-5.29,7,18.07,18.07,0,0,1-9.76,2.73,17,17,0,0,1-4.54-.58,11.43,11.43,0,0,1-3.64-1.74,8.23,8.23,0,0,1-2.4-2.65,6.41,6.41,0,0,1-.91-3.3q0-.37,0-.75c0-.25,0-.49,0-.74l3.72-19.1h4.63l-3.39,19.18a3.84,3.84,0,0,0,0,.83,4,4,0,0,0,2.15,3.55,10.13,10.13,0,0,0,5.38,1.33,13,13,0,0,0,3.39-.42,12.63,12.63,0,0,0,2.89-1.15,8.52,8.52,0,0,0,2.23-1.82,5,5,0,0,0,.91-2.32l3.72-19.1h4.63Z"/><path class="cls-1" d="M277.79,134.07h-24l.66-3.55h24Z"/><path class="cls-1" d="M303.26,165.9h-4.63l2.15-11.41a6.06,6.06,0,0,0-3.06-3.22A11.53,11.53,0,0,0,292.1,150a12.73,12.73,0,0,0-7.28,2.15,7.09,7.09,0,0,0-3.47,6,3.94,3.94,0,0,0,1.24,3,4.44,4.44,0,0,0,3.22,1.24,10.93,10.93,0,0,0,5.3-1.4l2.15,3.05a13.76,13.76,0,0,1-7.78,2.24,8.27,8.27,0,0,1-6.2-2.15,7.13,7.13,0,0,1-2.23-5.38,11,11,0,0,1,5.21-9.26,18.41,18.41,0,0,1,11.08-3.47,12.35,12.35,0,0,1,8.51,2.56l.83-4.21a4.69,4.69,0,0,0-2.56-2.65,9.89,9.89,0,0,0-4.71-1.07,11.9,11.9,0,0,0-10,4.29h-5a16.53,16.53,0,0,1,15.71-8.26,13.56,13.56,0,0,1,8.27,2.23,6.42,6.42,0,0,1,3.22,4.71Z"/><path class="cls-1" d="M337.57,151.19a16.51,16.51,0,0,1-7.36,11.08,23.62,23.62,0,0,1-15,3.88l-.91-14.22h-3.39l.74-4h7.11l.91,14.22a15,15,0,0,0,8.77-3.39,12.39,12.39,0,0,0,4.54-7.69,8.87,8.87,0,0,0,0-2.06,7.5,7.5,0,0,0-2.39-5.87,9.42,9.42,0,0,0-6.62-2.24,18.88,18.88,0,0,0-11.57,4.3l-3.23-2.64a25.69,25.69,0,0,1,15.79-5.71,13.73,13.73,0,0,1,9.43,3,10.28,10.28,0,0,1,3.39,8.27A13.64,13.64,0,0,1,337.57,151.19Z"/><path class="cls-1" d="M339.64,134.07H335l1.57-7.77h4.63Z"/><path class="cls-1" d="M355.35,165.9h-4.71l3.47-17.28v-1.9q0-5.53-6.28-5.54a15.8,15.8,0,0,0-7.45,2l.91-4.47a17.49,17.49,0,0,1,7.69-1.65,11.52,11.52,0,0,1,7.61,2.23,7.27,7.27,0,0,1,2.56,5.79,10.39,10.39,0,0,1,0,2.23Z"/><path class="cls-1" d="M387,161.69a20.48,20.48,0,0,1-13.89,4.71,16.45,16.45,0,0,1-9.51-2.32,6.5,6.5,0,0,1-3.14-5.7,7.15,7.15,0,0,1,.58-2.73,9.32,9.32,0,0,1,1.48-2.48,13.41,13.41,0,0,1,2.24-2.15,9.74,9.74,0,0,1,2.72-1.49,5.66,5.66,0,0,1-3-2.06,4.15,4.15,0,0,1-.83-3.31,5.92,5.92,0,0,1,1.24-2.73,9,9,0,0,1,2.48-2.15,14.55,14.55,0,0,1,3.39-1.41,14.79,14.79,0,0,1,4-.49,15.25,15.25,0,0,1,4.88.74L379,142a25.93,25.93,0,0,0-4.8-.75q-5.13,0-5.7,2.9c-.39,1.93,1.43,3,5.45,3.14H378l-.75,4h-3.47a10.63,10.63,0,0,0-5.71,1.73,5.57,5.57,0,0,0-2.89,4.72,4,4,0,0,0,2.31,3.47,12.7,12.7,0,0,0,6.29,1.32,18.92,18.92,0,0,0,8.76-2.31l4.3-22.49h4.63Z"/><path class="cls-1" d="M420.17,165.9h-3.72l-3.8-21.41L400.41,165.9h-3.64L394,137.54h10.17l-.74,4h-4.3l1.57,15.88,11.25-19.85H416l3.56,19.85,9.67-19.85H434Z"/><path class="cls-1" d="M432.25,134.07h-4.63l1.57-7.77h4.63Z"/><path class="cls-1" d="M448.2,165.9h-5l3.48-17.28v-1.9q0-5.53-6.29-5.54a15.79,15.79,0,0,0-7.44,2l.91-4.47a17.41,17.41,0,0,1,7.52-1.49,11.52,11.52,0,0,1,7.61,2.23,7.27,7.27,0,0,1,2.56,5.79,10.48,10.48,0,0,1,0,2.24Z"/><path class="cls-1" d="M478.88,165.9h-4.63l.58-2.89a17.12,17.12,0,0,1-10.17,3.39,12.24,12.24,0,0,1-7.53-2.15,6.86,6.86,0,0,1-2.81-5.79v-2l3.72-19h4.63L459.12,156v.91a3.64,3.64,0,0,0,0,.66,4.47,4.47,0,0,0,1.73,3.72,7.45,7.45,0,0,0,4.72,1.41,14,14,0,0,0,6.69-1.82,7,7,0,0,0,3.89-4.47l3.64-18.52h4.63Z"/><path class="cls-1" d="M495.42,136.05l-5.87,29.85h-4.63l5.62-29.1a12.85,12.85,0,0,1,5.29-8.27l-1.08-1.24-4.38,3-6.28-5.63,3.47-3,3.8,3.64,5.21-3.23,4.3,5.71A11.9,11.9,0,0,0,495.42,136.05Z"/><path class="cls-1" d="M521.79,156.89a10.51,10.51,0,0,1-5.29,7,18.07,18.07,0,0,1-9.76,2.73,17,17,0,0,1-4.54-.58,11.43,11.43,0,0,1-3.64-1.74,8.34,8.34,0,0,1-2.4-2.65,6.41,6.41,0,0,1-.91-3.3q0-.37,0-.75c0-.25,0-.49,0-.74l3.72-19.1h4.63l-3.47,19.18a3.84,3.84,0,0,0,0,.83,4,4,0,0,0,2.15,3.55,10.09,10.09,0,0,0,5.37,1.33,13.29,13.29,0,0,0,3.39-.42,11.55,11.55,0,0,0,2.9-1.15,8.53,8.53,0,0,0,2.15-1.82,5,5,0,0,0,1.15-2.32l5.38-28.52h4.63Z"/><path class="cls-1" d="M548.75,145.4q-.82-4.22-7.53-4.22a13,13,0,0,0-5.54,1.24,4.87,4.87,0,0,0-2.89,2.9q-.59,3,8.27,3.55,10.83.75,10.83,6.7,0,.33,0,.66v.66A10.13,10.13,0,0,1,546.6,164a19,19,0,0,1-9.76,2.48,14.12,14.12,0,0,1-8.27-2.15A7.17,7.17,0,0,1,525.1,158a10.23,10.23,0,0,1,0-2.07h4.63v1q0,.33,0,.66,0,5.22,7.61,5.21a13.25,13.25,0,0,0,6.12-1.32,5.7,5.7,0,0,0,4-4.55q.68-3.72-7.69-4.38-11.4-1.08-11.41-5.95a8.3,8.3,0,0,1,4.88-7.2,17.78,17.78,0,0,1,9.18-2.56,18.25,18.25,0,0,1,4.71.58,11.73,11.73,0,0,1,3.72,1.65,7.73,7.73,0,0,1,2.4,2.56A6.71,6.71,0,0,1,554,145Z"/><path class="cls-1" d="M585.54,152.92h-3.06l-.66,3.72a10.49,10.49,0,0,1-5.29,7,18,18,0,0,1-9.76,2.73,14.32,14.32,0,0,1-8.27-2.24,7,7,0,0,1-3.3-6,4.57,4.57,0,0,1,0-.74,5.78,5.78,0,0,1,.49-.5l3.72-19.1H564l-3.8,19.1a2.89,2.89,0,0,0,0,.83,4,4,0,0,0,2.15,3.55,10.09,10.09,0,0,0,5.37,1.33,13.4,13.4,0,0,0,3.39-.42A11.7,11.7,0,0,0,574,161a8.53,8.53,0,0,0,2.15-1.82,5.08,5.08,0,0,0,1.15-2.32l.66-3.72h-9.09l1.07-5.37,2.32.82h6.61l1.66-11.08h4.63l-1.9,11.08h3.06Z"/><path class="cls-1" d="M631.35,165.9h-4.63l.58-2.81a15.62,15.62,0,0,1-9.51,3.31,10.69,10.69,0,0,1-6.95-2.07,6.93,6.93,0,0,1-2.56-5.7v-2l1.74-9.42a5.61,5.61,0,0,0,0-.58v-.5q0-5.13-7.36-5.12a12.67,12.67,0,0,0-9.1,3.3l-3.39,17.61h4.63l-.74,3.89h-9l4.29-22.65A19.28,19.28,0,0,1,603.73,137a14.79,14.79,0,0,1,8.27,2,6.78,6.78,0,0,1,3.31,5.87v1.65l-2.24,10.42a2.81,2.81,0,0,0,0,.58v.58q0,4.63,6,4.63a11.45,11.45,0,0,0,6.2-1.82,7,7,0,0,0,3.47-4.47l3.64-18.52H637Z"/><path class="cls-1" d="M637.47,134.07h-23.9l.66-3.55h19.35l.66-3.56h4.63Z"/><path class="cls-1" d="M663.18,161.69a20.48,20.48,0,0,1-13.89,4.71,16.45,16.45,0,0,1-9.51-2.32,6.52,6.52,0,0,1-3.14-5.7,7.34,7.34,0,0,1,.58-2.73,9.35,9.35,0,0,1,1.49-2.48,13,13,0,0,1,2.23-2.15,9.66,9.66,0,0,1,2.73-1.49,5.68,5.68,0,0,1-3-2.06,4.15,4.15,0,0,1-.83-3.31,5.92,5.92,0,0,1,1.24-2.73,9,9,0,0,1,2.48-2.15,14.45,14.45,0,0,1,3.4-1.41,14.67,14.67,0,0,1,4-.49,15.21,15.21,0,0,1,4.88.74l-.66,3.89a25.93,25.93,0,0,0-4.8-.75q-5.11,0-5.7,2.9c-.39,1.93,1.43,3,5.46,3.14h4l-.75,4h-3.3a10.63,10.63,0,0,0-5.71,1.73,5.55,5.55,0,0,0-2.89,4.72,4,4,0,0,0,2.31,3.47,12.68,12.68,0,0,0,6.29,1.32,18.92,18.92,0,0,0,8.76-2.31l4.3-22.66h4.63Z"/><path class="cls-1" d="M670.37,131.51h-2.23c-1.65,0-2.59.58-2.81,1.73V134H660.7v-1.24a5.38,5.38,0,0,1,6-4.14h4Z"/><path class="cls-3" d="M3.28,137.71l92.94,19.18c6.12,1.16,8.27-2,6.78-4.63L94.73,138Z"/><polygon class="cls-4" points="153.85 137.63 102.42 147.88 96.22 137.63 153.85 137.63"/><polygon class="cls-5" points="4.77 139.53 95.23 157.97 105.4 176.9 4.77 139.53"/><path class="cls-6" d="M99,161.44h15l1.16-1.24H98.62Z"/><path class="cls-6" d="M104.41,156.15h15l2.07-1.74H104.9A5.58,5.58,0,0,1,104.41,156.15Z"/><path class="cls-6" d="M97.38,158.21v.58h18.77l1.4-1.32H103.41A9.71,9.71,0,0,1,97.38,158.21Z"/><path class="cls-6" d="M104.82,153.09h18.27l2.15-1.57H104.41A6.48,6.48,0,0,1,104.82,153.09Z"/><path class="cls-6" d="M100.35,164.17h11.42l1.07-1.41H99.69Z"/><path class="cls-6" d="M103.33,170h4.88l.74-1.49h-6.36Z"/><path class="cls-6" d="M104.65,172.68h2.48l.5-1.32H104Z"/><path class="cls-6" d="M103,149.12a6.58,6.58,0,0,1,.74,1.07h23.49L129,149H103Z"/><path class="cls-6" d="M101.93,167.23h7.77l1.07-1.74h-9.84Z"/><path class="cls-6" d="M106.39,176q0-1,0-2H105Z"/><path class="cls-6" d="M131.94,143.5l-6.37,1.24H137l2.65-1.24Z"/><path class="cls-6" d="M147.4,140.35l-9,1.74h3.89Z"/><path class="cls-6" d="M110,147.8h21.25l3.06-1.66H118.71Z"/></g></g></svg>