<svg xmlns="http://www.w3.org/2000/svg" viewBox="0 0 338 180"><defs><style>.cls-1{fill:#e5362e;}.cls-2{fill:#01997a;}.cls-3{fill:#0f56a0;}</style></defs><title>Counter_Edited</title><g id="Layer_13" data-name="Layer 13"><path class="cls-1" d="M298.6,2.62a52.4,52.4,0,0,1,13.7,1.83A31.24,31.24,0,0,1,326,12.17,27.81,27.81,0,0,1,331.48,20,29.35,29.35,0,0,1,334,29.79a29.7,29.7,0,0,1,0,6.53,24.77,24.77,0,0,1-1,5.26,30.42,30.42,0,0,1-2.42,5.52,26.49,26.49,0,0,1-8.35,9.13,38.43,38.43,0,0,1-10.83,5.12,48.22,48.22,0,0,1-15.61,2,86.69,86.69,0,0,1-9.64-1.23,31.34,31.34,0,0,1-11.78-4.57,21.92,21.92,0,0,1-7.17-7.26,71,71,0,0,1-3.61-6.71,11.23,11.23,0,0,1-.86-3.16,34.15,34.15,0,0,1-.42-10.77A28.07,28.07,0,0,1,275.22,9.52a39.94,39.94,0,0,1,10-4.57,42.5,42.5,0,0,1,8.27-1.64Zm18.81,31a33.13,33.13,0,0,0-1.64-9.77,19.88,19.88,0,0,0-6-8.49,18,18,0,0,0-14.61-3.93,16,16,0,0,0-6.81,2.38,32.18,32.18,0,0,0-4.56,4,17,17,0,0,0-4,7.45,29.47,29.47,0,0,0-1.05,7,28,28,0,0,0,.59,6.53,18.72,18.72,0,0,0,1.6,5.07,24.18,24.18,0,0,0,3.52,5.26A17.25,17.25,0,0,0,296,54.59a18.75,18.75,0,0,0,10.41-1.92A19.62,19.62,0,0,0,316,40.8,45.3,45.3,0,0,0,317.41,33.58Z"/><path class="cls-1" d="M136.9,48c2.92,1.37,5.71,2.88,8.63,4a41.85,41.85,0,0,0,11.69,2.69,47.33,47.33,0,0,0,10.64.23,19,19,0,0,0,8.36-2.69,5.44,5.44,0,0,0,1.63-7.51,5.36,5.36,0,0,0-.77-.94,11,11,0,0,0-5.8-3.29c-4.56-1-9.4-1.6-14.11-2.51a83.9,83.9,0,0,1-9.77-2.28A17.53,17.53,0,0,1,139,30.25a12.53,12.53,0,0,1-2.83-6.44,18.63,18.63,0,0,1,.78-9.13,14.72,14.72,0,0,1,4.56-6.07A23.47,23.47,0,0,1,151.24,4,55.91,55.91,0,0,1,171.33,2.9c4.57.45,9.13,1.37,13.7,2.14a30.48,30.48,0,0,1,4.29,1.24,1,1,0,0,1,.59.77V18.52a2.75,2.75,0,0,1-.36.73,19.6,19.6,0,0,0-2.19-1.65A68.92,68.92,0,0,0,181,14.36a34.21,34.21,0,0,0-6.62-2.1,69.08,69.08,0,0,0-10.23-1.37,18.67,18.67,0,0,0-11.92,2.78,5.06,5.06,0,0,0-1.4,7A5,5,0,0,0,153,22.53a27.61,27.61,0,0,0,8.86,2.52c2.92.45,5.84.77,8.76,1.37s5.53,1.37,8.32,2a24.15,24.15,0,0,1,7.16,3.16,13.29,13.29,0,0,1,5.07,5.93,17.76,17.76,0,0,1,1.37,9.73,15.21,15.21,0,0,1-7.9,11.87,30.6,30.6,0,0,1-12.14,3.56c-1.88,0-3.79.41-5.67.41H155.07a53.65,53.65,0,0,1-8.08-.95c-2.65-.42-4.25-.74-6.35-1.15a22.93,22.93,0,0,1-3.24-.91,1.17,1.17,0,0,1-.59-.91V48.29A.46.46,0,0,1,136.9,48Z"/><path class="cls-1" d="M130.18,48V59.89c0,.91-.27,1.19-1.18,1.19H78.4a16.16,16.16,0,0,0,1.42-2.7,18.18,18.18,0,0,0,.86-4.57V12.3A10.07,10.07,0,0,0,79,6a3.44,3.44,0,0,1-.32-1,6.14,6.14,0,0,1,1,0h45.9c1.5,0,1.6,0,1.6,1.55V18.06c-.92-.46-1.6-.87-2.38-1.19a37,37,0,0,0-5.75-2.19,74,74,0,0,0-9.91-1.55c-3.93-.28-7.86,0-11.78,0-.87,0-1.33.36-1.28,1.32V26.73c0,1.47.27,1.74,1.73,1.79h8a77.28,77.28,0,0,0,8.45-1.15c2.33-.41,2.33-.54,2.33,1.79v8.26c0,.69,0,1-.91.78a48.79,48.79,0,0,0-12.33-1.37h-6c-.92,0-1.28.41-1.28,1.32V51.21c0,1.33.32,1.65,1.64,1.65h12.06a55.73,55.73,0,0,0,14.34-2.15C126.26,49.89,128.22,48.88,130.18,48Z"/><path class="cls-1" d="M256.81,18.33c-.37-.24-.74-.5-1.09-.77A22.74,22.74,0,0,0,248.78,13a24.42,24.42,0,0,0-8.22-1.74,28.76,28.76,0,0,0-9.14,1,22.86,22.86,0,0,0-11.32,7.22,18.26,18.26,0,0,0-4.11,8,31.3,31.3,0,0,0-.32,8,18.62,18.62,0,0,0,8,13.93A23.77,23.77,0,0,0,235.21,54a30.13,30.13,0,0,0,9.14-.32,21.55,21.55,0,0,0,8.4-3.42c1.37-1,2.65-2.06,4-3.11l1.28-.87v13.2a1.12,1.12,0,0,1-.5.82,4.07,4.07,0,0,1-1.46.6c-4.57.68-8.72,1.46-13.11,2a50.7,50.7,0,0,1-8.26.41,80.89,80.89,0,0,1-10.19-1A39.85,39.85,0,0,1,216.54,60a47.57,47.57,0,0,1-7.67-3.88,24.52,24.52,0,0,1-7.72-7.62,23.22,23.22,0,0,1-2.88-6.08,25.7,25.7,0,0,1-1.19-11.18A33.29,33.29,0,0,1,199,23.58a28.38,28.38,0,0,1,11.92-13.7A41.49,41.49,0,0,1,223,4.82a82.78,82.78,0,0,1,9.14-1.6,68.83,68.83,0,0,1,13.69-.28c3.38.23,6.76.83,10.14,1.33a1,1,0,0,1,.64.77V17C256.91,17.37,256.86,17.74,256.81,18.33Z"/><path class="cls-1" d="M48.76,60.94h-21l1-1.46a11.07,11.07,0,0,0,1.55-6.08V14.18c0-.92-.37-1.28-1.23-1.24-3.79.28-7.58.51-11.33.87a36.88,36.88,0,0,0-9.54,2.33A39.39,39.39,0,0,0,4.51,18c0-.42,0-.85,0-1.28V5.87c0-.87.23-1.19,1.24-1.19H70.82c.59,0,1,0,1,.87V17.24a3.86,3.86,0,0,1,0,.68,22.78,22.78,0,0,0-2.7-1.28,36.88,36.88,0,0,0-5.7-2c-3.47-.69-7-1.19-10.51-1.64A46.8,46.8,0,0,0,48,12.76c-1.42,0-1.65,0-1.65,1.6V50.89a44.93,44.93,0,0,0,.51,6.35,8.52,8.52,0,0,0,1.23,2.56A11.05,11.05,0,0,0,48.76,60.94Z"/><path class="cls-2" d="M264.21,144.41v24.85c0,1.41,0,1.59,1.6,1.69a19.39,19.39,0,0,0,2.37,0c.78,0,1.19.36,1.1,1.27a16.25,16.25,0,0,0,0,2.61c0,.91-.36,1.14-1.19,1.09H250.38c-.74,0-1-.27-1-1v-4.57a4.42,4.42,0,0,0-.32-1.09,5.57,5.57,0,0,0-.83.45c-1.55,1.19-3,2.42-4.56,3.52a26.74,26.74,0,0,1-3.75,2c-1.09.5-2.23.92-3.38,1.37h-.27a32.56,32.56,0,0,1-10.87.6,47.68,47.68,0,0,1-5.39-1.1,23.88,23.88,0,0,1-5.7-2.6,14.28,14.28,0,0,1-5.07-5.48,24,24,0,0,1-2.2-5.35,35.45,35.45,0,0,1-.86-7.48V127.2a4.25,4.25,0,0,0-.55-2.15c-1-1.5-2.6-1.32-4.11-1.32s-1.37,0-1.37-1.37v-3.11c0-1,0-.77.68-.77h19.87c.46,0,.82,0,.82.68v39.32a11.21,11.21,0,0,0,5.39,10,9.64,9.64,0,0,0,4.57,1.28,13.64,13.64,0,0,0,6.48-1.19,17.81,17.81,0,0,0,5.57-4.25,24.73,24.73,0,0,0,4.57-6.94,26.38,26.38,0,0,0,1-3.51,67.25,67.25,0,0,0,.59-14.8V127.2a3.07,3.07,0,0,0-2.67-3.41l-.25,0a8.92,8.92,0,0,0-2.19,0c-.78,0-1-.27-1-.86v-3.79s.59-.55.86-.55h19.18c.51,0,.87,0,.87.68v25.16Z"/><path class="cls-2" d="M154.8,148.07a48.33,48.33,0,0,1-1.1,7.17,34.32,34.32,0,0,1-3.19,7.17,26.47,26.47,0,0,1-8.18,8.63A43.42,43.42,0,0,1,130,176.43a37.19,37.19,0,0,1-4.57.63,25.49,25.49,0,0,1-9.77,0h-1.78l-2.38-.54h-.36a27,27,0,0,1-8.31-3.52,29.47,29.47,0,0,1-7.27-5.21,27.32,27.32,0,0,1-6.25-9.13,24.63,24.63,0,0,1-2-7.4,57,57,0,0,1,0-8.67A18.07,18.07,0,0,1,88.49,138c.46-1.32,1-2.65,1.55-3.93a23.87,23.87,0,0,1,6.58-8.58,34.08,34.08,0,0,1,5.3-3.79,48.75,48.75,0,0,1,6.16-2.56c1.24-.5,2.56-.82,3.84-1.23h.27a37.41,37.41,0,0,1,14.34-.28h1.19l5.43,1.37a15.85,15.85,0,0,1,2.51.87,53.58,53.58,0,0,1,5.35,2.7,28,28,0,0,1,8.35,7.94,28.68,28.68,0,0,1,2.79,5.21,33.07,33.07,0,0,1,1.92,6A54.13,54.13,0,0,1,154.8,148.07Zm-50.23-1.14h0a68,68,0,0,0,.68,8,26.31,26.31,0,0,0,.78,5.85,25.1,25.1,0,0,0,2.83,5.25,11.33,11.33,0,0,0,8,5.11l1.05.28a21.13,21.13,0,0,0,2.38.41,12.85,12.85,0,0,0,4.56-.64c.82-.27,1.65-.41,2.42-.73a12.83,12.83,0,0,0,6.4-5.12,19.38,19.38,0,0,0,3.05-7.85,51.91,51.91,0,0,0,1-9.13,44.74,44.74,0,0,0-2.23-15.62,16.9,16.9,0,0,0-4.57-6.53,16.16,16.16,0,0,0-9.13-3.52,15,15,0,0,0-5.16.64,12.25,12.25,0,0,0-5.71,2.79,18.22,18.22,0,0,0-5.66,10.41,26.82,26.82,0,0,0-.92,8.27,8.81,8.81,0,0,1,.14,2.28Z"/><path class="cls-2" d="M276.31,166.56v-8.4c0-.69,0-.87.87-.82a9.48,9.48,0,0,0,2.38,0,2.4,2.4,0,0,1,2.28,1.28,30.26,30.26,0,0,0,9.41,9.13,20.29,20.29,0,0,0,5.52,2.42,21.4,21.4,0,0,0,9.13.82,27.62,27.62,0,0,0,5.26-1.92,9.84,9.84,0,0,0,4.56-3.65,6.48,6.48,0,0,0-2.05-8.94l-.41-.24a21.29,21.29,0,0,0-7.63-3.15c-1.32-.27-2.6-.87-4-1.19s-3.24-.59-4.84-1-3.11-.77-4.57-1.23-2.28-.64-3.42-1a36.56,36.56,0,0,1-3.43-1.37,22.64,22.64,0,0,1-3.42-1.69,12.83,12.83,0,0,1-5.12-5.62,13.36,13.36,0,0,1-1.37-6.21,15.35,15.35,0,0,1,6.67-12.06,35.47,35.47,0,0,1,4.57-2.78c1.14-.55,2.46-.64,3.65-1.1a29.45,29.45,0,0,1,7.4-1.23,30.48,30.48,0,0,1,5.57,0,24.82,24.82,0,0,1,4.11.59,38.29,38.29,0,0,1,4,1.28c1.32.5,2.64,1.1,4,1.6a1.83,1.83,0,0,0,2.45-.82,1.36,1.36,0,0,0,.11-.28,6.23,6.23,0,0,1,.69-1.23,1.15,1.15,0,0,1,.77-.41h3.61c1.19,0,1.23.27,1.23,1.19V132c0,.55,0,.87-.82.78a10.12,10.12,0,0,0-2.46,0,2.46,2.46,0,0,1-2.33-1,32.51,32.51,0,0,0-7.36-6.48,18.15,18.15,0,0,0-4.24-1.78c-2-.6-3.93-1-5.94-1.42a6.17,6.17,0,0,0-2.1,0,13.38,13.38,0,0,0-8.63,3.65,5.53,5.53,0,0,0-1.05,6,7.26,7.26,0,0,0,2.83,2.83,15.87,15.87,0,0,0,4,1.65c2.06.64,4.11,1.09,6.21,1.59s4.57.92,6.63,1.47c1.5.36,3,.86,4.56,1.27l3.52,1a23.14,23.14,0,0,1,2.51,1,22.69,22.69,0,0,1,5.84,3.61,13.28,13.28,0,0,1,3.66,5.3,22.86,22.86,0,0,1,.55,9.13,8.53,8.53,0,0,1-.83,2.74,17,17,0,0,1-5.57,7.44,20.71,20.71,0,0,1-7,3.79c-1.24.37-2.42.87-3.61,1.28h-.28a49.47,49.47,0,0,1-10.45.82c-2.42-.27-4.89-.41-7.31-.91a41.43,41.43,0,0,1-5.75-2c-1.24-.46-2.42-1.1-3.7-1.6a2.19,2.19,0,0,0-2.51.77,5,5,0,0,0-1,1.92c0,.69-.5,1-1.24,1h-3.37c-1.1,0-1,0-1-1v-8.4Z"/><path class="cls-2" d="M52.55,175.88H24.24c-1.64,0-1.64,0-1.6-1.65v-2.37c0-.78,0-1,.92-.91a10.08,10.08,0,0,0,4.56-.46c1.65-.64,2.33-1.23,2.38-3V111.4c0-2.7-1.92-3.7-4-4a17.19,17.19,0,0,0-2.87,0c-.64,0-.92-.23-.87-.87s0-2.14,0-3.19.27-.92,1-.92H51.5c2.38,0,2.2-.32,2.15,2.19v1.92c0,.64-.23.87-.82.87a24.32,24.32,0,0,0-2.7,0,4.21,4.21,0,0,0-3.88,2.47,4.6,4.6,0,0,0-.36,1.64V166.7a4.57,4.57,0,0,0,4.55,4.58h.33q5.32.1,10.64-.32A43.78,43.78,0,0,0,68.26,169a12.34,12.34,0,0,0,5.21-3.34,21,21,0,0,0,3.33-4.56,43.62,43.62,0,0,0,2.06-4.89,2.81,2.81,0,0,0,0-.41c.23-1.51.23-1.51,1.78-1.51h2.51c.46,0,.78,0,.73.64s0,2.51,0,3.79c0,2.29-.46,4.57-.59,6.81s0,4.93,0,7.39,0,2.88-2.93,2.88H52.55Z"/><path class="cls-2" d="M179,146.15v20.27a5.14,5.14,0,0,0,3.1,4.57,4.54,4.54,0,0,0,3.11.64,8.46,8.46,0,0,0,2.92-1,7.92,7.92,0,0,0,2.83-3.29,12.83,12.83,0,0,0,1.64-4.88.88.88,0,0,1,.64-.6h5.89s.55.28.55.41a21.64,21.64,0,0,1-.32,2.42c0,.46-.32.87-.41,1.33a12.45,12.45,0,0,1-5.8,8.81,18.26,18.26,0,0,1-5.11,1.83,36.56,36.56,0,0,1-9.68.55,20.54,20.54,0,0,1-2.93-.46h-.86a11.73,11.73,0,0,1-8.68-5.62A20.13,20.13,0,0,1,164.3,167a26.38,26.38,0,0,1-.6-8.4V125.46c0-1.5,0-1.69-1.73-1.69H154.3a.91.91,0,0,1-.64-.59v-4.11s.41-.55.59-.55a21.25,21.25,0,0,0,7.35-.91,10.15,10.15,0,0,0,3.47-1.83,11.2,11.2,0,0,0,3.84-6.16c.68-2.24,1.41-4.57,2.05-6.72a13,13,0,0,0,.28-1.87c0-.64.5-.87,1.14-.87h5.8c.73,0,.82.32.82.92v15.75c0,1.6,0,1.65,1.6,1.65h13.06c.82,0,1.23,0,1.1,1.09a20.18,20.18,0,0,0,0,3.11c0,.68-.23,1-1,1H180.42c-1.19,0-1.42.23-1.42,1.5V146.1Z"/><path class="cls-3" d="M270.15,92.86a39.5,39.5,0,0,0,3.51-2.42A62.76,62.76,0,0,0,280,84.87a27,27,0,0,1,8.13-5.76,14.9,14.9,0,0,1,3.7-1,195.81,195.81,0,0,1,23.61-.5h19.63a1.44,1.44,0,0,1,.87,0l-1.78,1.19c-2.28,1.69-4.57,3.42-6.8,5.16s-4.89,4-7.45,5.93a15.8,15.8,0,0,1-8.12,2.65,41.37,41.37,0,0,1-5,0H271.15Z"/><path class="cls-3" d="M136.17,92.86c1.64-1.19,3.19-2.15,4.56-3.29,2.24-1.87,4.57-3.88,6.49-5.84a22.62,22.62,0,0,1,8.13-5.12,27.91,27.91,0,0,1,9.13-1.19h37v.28L200,78.79l-8.45,6.53c-2,1.6-4,3.43-6.16,4.84a16.62,16.62,0,0,1-7.72,2.38H137.26Z"/><path class="cls-3" d="M134.75,77.88,133,79.11c-1.6,1.19-3.29,2.38-4.84,3.61-2.83,2.28-5.48,4.8-8.4,6.94a16.4,16.4,0,0,1-6.35,2.65,42.34,42.34,0,0,1-9.13.55H70.82a5.64,5.64,0,0,1-1.74,0,21.15,21.15,0,0,0,2.2-1.42C74.2,89,77.17,86.6,80,84a25,25,0,0,1,7.13-4.57,18.83,18.83,0,0,1,7.26-1.5h40.41Z"/><path class="cls-3" d="M203.25,92.86a57.78,57.78,0,0,0,8.22-6.49c1.51-1.32,2.83-2.78,4.57-4.06a20.47,20.47,0,0,1,6.21-3.7,26,26,0,0,1,8.9-1.23H268.6l.32.45-.83.37a64.15,64.15,0,0,0-11.28,8.9,19.88,19.88,0,0,1-8,4.57,23.44,23.44,0,0,1-6.12.87h-35Z"/><path class="cls-3" d="M67.94,77.93l-.68.36a52.94,52.94,0,0,0-8.91,6.62c-2.07,1.8-4.21,3.5-6.44,5.12A15.33,15.33,0,0,1,44,92.58c-2,0-4.11.23-6.16.23H2.05c1.23-.87,2.37-1.55,3.38-2.37s3.28-2.7,4.88-4.07,3.57-3.19,5.71-4.79A19,19,0,0,1,24.47,78,59.64,59.64,0,0,1,34,77.56H67.9Z"/></g></svg>