<svg xmlns="http://www.w3.org/2000/svg" width="44" height="44" viewBox="0 0 44 44">
    <g fill="none" fill-rule="evenodd">
        <circle cx="22" cy="22" r="21.25" stroke="#FFF" stroke-width="1.5"/>
        <path fill="#FFF" d="M22 12c6.075 0 11 4.022 11 8.983 0 1.733-.601 3.352-1.642 4.724a2.318 2.318 0 0 1-.204.26l-.006.007a9.634 9.634 0 0 1-1.197 1.217c-3.041 2.867-8.048 6.282-8.71 5.755-.574-.458.947-2.697-.807-3.07-.123-.014-.245-.03-.366-.047h-.002C14.913 29.081 11 25.405 11 20.982 11 16.022 15.925 12 22 12zm-6.382 11.849h2.218a.581.581 0 0 0 .574-.585v-.05a.581.581 0 0 0-.574-.584H16.24v-3.706a.581.581 0 0 0-.573-.585h-.048a.581.581 0 0 0-.574.585v4.34c0 .322.258.585.574.585zm13.747-2.72v-.049a.581.581 0 0 0-.574-.585h-1.597v-.927h1.597a.581.581 0 0 0 .574-.585v-.048a.581.581 0 0 0-.574-.585h-2.218a.581.581 0 0 0-.574.585v4.34c0 .321.258.584.574.584h2.218a.581.581 0 0 0 .574-.585v-.049a.581.581 0 0 0-.574-.585h-1.597v-.926h1.597a.581.581 0 0 0 .574-.585zm-4.267 2.545a.59.59 0 0 0 .166-.41v-4.34a.581.581 0 0 0-.573-.585h-.048a.581.581 0 0 0-.574.585v2.548l-2.073-2.837a.573.573 0 0 0-.499-.296h-.047a.581.581 0 0 0-.574.585v4.34c0 .322.258.585.574.585h.047a.581.581 0 0 0 .574-.585v-2.595l2.089 2.91c.012.02.027.04.042.058.057.08.136.134.223.168.067.028.14.044.218.044h.048a.56.56 0 0 0 .268-.068.404.404 0 0 0 .14-.107zm-5.651.175h.048a.581.581 0 0 0 .573-.585v-4.34a.581.581 0 0 0-.573-.585h-.048a.581.581 0 0 0-.574.585v4.34c0 .322.258.585.574.585z"/>
    </g>
</svg>
