<!--?xml version="1.0" encoding="UTF-8" standalone="no"?-->
<!-- Created with Inkscape (http://www.inkscape.org/) -->

<svg xmlns:dc="http://purl.org/dc/elements/1.1/" xmlns:cc="http://creativecommons.org/ns#" xmlns:rdf="http://www.w3.org/1999/02/22-rdf-syntax-ns#" xmlns:svg="http://www.w3.org/2000/svg" xmlns="http://www.w3.org/2000/svg" xmlns:sodipodi="http://sodipodi.sourceforge.net/DTD/sodipodi-0.dtd" xmlns:inkscape="http://www.inkscape.org/namespaces/inkscape" version="1.1" id="svg2" xml:space="preserve" width="245" height="41.978657" viewBox="0 0 245 41.978657" sodipodi:docname="ssp_desktop_logo_desktop_logo.svg" inkscape:version="0.92.2 5c3e80d, 2017-08-06">
  <metadata id="metadata8"><rdf:rdf><cc:work rdf:about=""><dc:format>image/svg+xml</dc:format><dc:type rdf:resource="http://purl.org/dc/dcmitype/StillImage"></dc:type><dc:title></dc:title></cc:work></rdf:rdf></metadata><defs id="defs6"><clipPath clipPathUnits="userSpaceOnUse" id="clipPath20"><path d="M 0,45 H 245 V 0 H 0 Z" id="path18" inkscape:connector-curvature="0"></path></clipPath></defs><sodipodi:namedview pagecolor="#ffffff" bordercolor="#666666" borderopacity="1" objecttolerance="10" gridtolerance="10" guidetolerance="10" inkscape:pageopacity="0" inkscape:pageshadow="2" inkscape:window-width="1680" inkscape:window-height="1005" id="namedview4" showgrid="false" inkscape:zoom="1.1020409" inkscape:cx="324.39349" inkscape:cy="27.455333" inkscape:window-x="0" inkscape:window-y="1" inkscape:window-maximized="1" inkscape:current-layer="g14" inkscape:snap-page="false" fit-margin-top="0" fit-margin-left="0" fit-margin-right="0" fit-margin-bottom="0"></sodipodi:namedview><g id="g10" inkscape:groupmode="layer" inkscape:label="SSP_Web_logo" transform="matrix(1.3333333,0,0,-1.3333333,-1.3657582,44.523323)"><g id="g14"><g id="g16" clip-path="url(#clipPath20)" transform="matrix(0.75686063,0,0,0.75686063,0.24905219,0.46403148)"><g id="g22" transform="translate(37.5519,33.5815)"><path d="m 0,0 c 1.581,-2.095 2.435,-4.324 2.435,-6.636 0,-1.981 -0.629,-3.901 -1.803,-5.727 -1.114,-2.113 -3.208,-4.096 -6.101,-5.882 -9.35,-6.297 -39.656,-13.428 -28.601,-13.428 27.397,0 49.607,8.213 49.607,18.343 C 15.537,-8.078 9.566,-3.344 0,0" style="fill:#78e61e;fill-opacity:1;fill-rule:nonzero;stroke:none" id="path24" inkscape:connector-curvature="0"></path></g><g id="g26" transform="translate(16.4655,12.0761)"><path d="m 0,0 c -1.566,2.106 -2.404,4.341 -2.387,6.653 0.014,1.981 0.657,3.896 1.844,5.714 1.129,2.105 3.237,4.073 6.143,5.838 9.396,6.23 39.752,13.143 28.697,13.222 C 6.9,31.624 -15.368,23.571 -15.441,13.441 -15.479,8.189 -9.542,3.412 0,0" style="fill:#78e61e;fill-opacity:1;fill-rule:nonzero;stroke:none" id="path28" inkscape:connector-curvature="0"></path></g><g id="g30" transform="translate(75.7057,30.1303)"><path d="m 0,0 -0.265,-1.589 -0.298,-0.066 c -1.104,0.75 -2.208,1.125 -3.311,1.125 -1.104,0 -1.981,-0.303 -2.632,-0.91 -0.651,-0.608 -0.977,-1.286 -0.977,-2.037 0,-0.728 0.293,-1.313 0.878,-1.754 0.584,-0.442 1.473,-0.916 2.665,-1.424 0.993,-0.464 1.776,-0.866 2.351,-1.208 0.573,-0.343 1.07,-0.795 1.49,-1.358 0.419,-0.563 0.629,-1.253 0.629,-2.069 0,-0.817 -0.227,-1.573 -0.679,-2.268 -0.453,-0.695 -1.098,-1.253 -1.937,-1.672 -0.839,-0.419 -1.81,-0.629 -2.914,-0.629 -1.633,0 -3.134,0.375 -4.502,1.126 l 0.165,1.688 0.232,0.099 c 0.574,-0.53 1.252,-0.932 2.036,-1.208 0.783,-0.276 1.528,-0.414 2.235,-0.414 1.104,0 2.003,0.303 2.698,0.911 0.696,0.606 1.043,1.318 1.043,2.135 0,0.772 -0.292,1.385 -0.877,1.837 -0.585,0.453 -1.495,0.966 -2.732,1.54 -0.949,0.441 -1.716,0.833 -2.3,1.175 -0.586,0.343 -1.082,0.789 -1.49,1.341 -0.409,0.552 -0.613,1.225 -0.613,2.02 0,0.817 0.226,1.556 0.679,2.218 0.452,0.662 1.087,1.186 1.904,1.573 0.816,0.386 1.754,0.58 2.814,0.58 C -2.428,0.762 -1.192,0.507 0,0" style="fill:#ffffff;fill-opacity:1;fill-rule:nonzero;stroke:none" id="path32" inkscape:connector-curvature="0"></path></g><g id="g34" transform="translate(94.7736,20.163)"><path d="m 0,0 c 0.044,-1.865 -0.497,-3.314 -1.623,-4.345 -1.125,-1.031 -2.714,-1.547 -4.767,-1.547 -2.031,0 -3.587,0.51 -4.669,1.531 -1.081,1.02 -1.611,2.473 -1.589,4.361 l 0.033,2.403 -0.033,8.131 h 1.656 l -0.1,-10.336 c -0.022,-1.537 0.376,-2.705 1.192,-3.506 0.817,-0.801 2.008,-1.201 3.576,-1.201 1.567,0 2.759,0.4 3.576,1.201 0.816,0.801 1.225,1.969 1.225,3.506 L -1.589,10.534 H 0.066 L 0,2.206 Z" style="fill:#ffffff;fill-opacity:1;fill-rule:nonzero;stroke:none" id="path36" inkscape:connector-curvature="0"></path></g><g id="g38" transform="translate(108.4464,22.9447)"><path d="m 0,0 c 0.651,0.72 0.977,1.68 0.977,2.88 0,2.225 -1.269,3.392 -3.808,3.502 L -5.744,6.349 -5.811,-1.276 -2.797,-1.341 C -1.584,-1.167 -0.651,-0.72 0,0 M 1.308,6.48 C 2.213,5.672 2.666,4.517 2.666,3.011 2.666,1.222 2.113,-0.169 1.01,-1.162 -0.094,-2.155 -1.639,-2.65 -3.625,-2.65 h -2.186 v -0.851 l 0.034,-5.04 H -7.4 l 0.067,4.909 -0.067,11.29 4.834,0.033 c 1.677,0 2.969,-0.404 3.874,-1.211" style="fill:#ffffff;fill-opacity:1;fill-rule:nonzero;stroke:none" id="path40" inkscape:connector-curvature="0"></path></g><g id="g42" transform="translate(126.6373,14.4037)"><path d="m 0,0 h -9.337 l 0.066,4.918 -0.066,11.314 H 0 l 0.132,-0.197 -0.165,-1.246 -4.073,0.098 H -7.682 L -7.715,9.05 -4.337,9.018 -1.424,9.083 -1.325,8.886 -1.457,7.607 -4.47,7.673 -7.748,7.64 V 5.05 l 0.033,-3.706 h 3.378 L 0.033,1.41 0.198,1.246 Z" style="fill:#ffffff;fill-opacity:1;fill-rule:nonzero;stroke:none" id="path44" inkscape:connector-curvature="0"></path></g><g id="g46" transform="translate(137.6593,21.9433)"><path d="m 0,0 c 2.229,0.568 3.344,1.902 3.344,4 0,2.143 -1.269,3.279 -3.807,3.411 L -3.377,7.345 -3.443,0.065 Z m 5.993,-7.148 v -0.23 C 5.573,-7.552 5.087,-7.673 4.536,-7.738 l -0.298,0.163 c -1.634,2.186 -3.068,4.284 -4.304,6.296 l -3.377,-0.033 v -1.18 l 0.033,-5.05 h -1.623 l 0.067,4.919 -0.067,11.313 4.834,0.033 c 1.678,0 2.969,-0.4 3.874,-1.197 0.905,-0.798 1.358,-1.93 1.358,-3.394 0,-1.159 -0.321,-2.175 -0.961,-3.05 -0.64,-0.874 -1.555,-1.541 -2.748,-2 1.391,-2.077 2.947,-4.153 4.669,-6.23" style="fill:#ffffff;fill-opacity:1;fill-rule:nonzero;stroke:none" id="path48" inkscape:connector-curvature="0"></path></g><g id="g50" transform="translate(158.8078,30.0053)"><path d="m 0,0 -0.486,-2.946 -0.485,-0.097 c -1.253,0.992 -2.44,1.489 -3.562,1.489 -0.799,0 -1.43,-0.205 -1.894,-0.615 -0.465,-0.411 -0.697,-0.886 -0.697,-1.425 0,-0.54 0.244,-0.988 0.729,-1.343 0.486,-0.356 1.247,-0.751 2.283,-1.183 0.971,-0.41 1.754,-0.793 2.347,-1.149 0.594,-0.356 1.106,-0.826 1.538,-1.408 0.432,-0.583 0.648,-1.306 0.648,-2.17 0,-0.885 -0.233,-1.705 -0.696,-2.46 -0.465,-0.756 -1.155,-1.366 -2.073,-1.83 -0.917,-0.464 -2.023,-0.696 -3.318,-0.696 -1.706,0 -3.357,0.345 -4.954,1.036 l 0.421,3.141 0.356,0.195 c 0.626,-0.627 1.365,-1.118 2.218,-1.474 0.853,-0.356 1.635,-0.534 2.347,-0.534 0.778,0 1.409,0.199 1.895,0.599 0.485,0.399 0.728,0.89 0.728,1.473 0,0.583 -0.248,1.052 -0.745,1.409 -0.496,0.356 -1.263,0.749 -2.299,1.181 -0.928,0.41 -1.695,0.793 -2.299,1.15 -0.604,0.356 -1.116,0.83 -1.538,1.424 -0.42,0.594 -0.631,1.322 -0.631,2.186 0,0.906 0.243,1.727 0.729,2.461 0.485,0.733 1.187,1.316 2.105,1.748 0.916,0.431 1.979,0.648 3.188,0.648 C -2.763,0.81 -1.382,0.54 0,0" style="fill:#ffffff;fill-opacity:1;fill-rule:nonzero;stroke:none" id="path52" inkscape:connector-curvature="0"></path></g><g id="g54" transform="translate(173.0656,25.4721)"><path d="m 0,0 c 0,1.77 -1.058,2.709 -3.173,2.817 l -2.104,-0.065 -0.098,-6.086 2.59,-0.065 C -0.928,-3.011 0,-1.877 0,0 M 1.83,3.902 C 2.79,3.049 3.27,1.835 3.27,0.259 3.27,-1.597 2.655,-3.06 1.425,-4.128 0.194,-5.196 -1.468,-5.73 -3.562,-5.73 h -1.845 v -0.195 l 0.13,-5.148 h -3.109 l 0.13,4.857 -0.13,11.364 6.152,0.033 c 1.749,0 3.103,-0.427 4.064,-1.279" style="fill:#ffffff;fill-opacity:1;fill-rule:nonzero;stroke:none" id="path56" inkscape:connector-curvature="0"></path></g><g id="g58" transform="translate(184.7057,26.9779)"><path d="m 0,0 c -0.724,-0.874 -1.085,-2.293 -1.085,-4.258 0,-2.18 0.356,-3.734 1.068,-4.662 0.713,-0.928 1.846,-1.393 3.4,-1.393 1.575,0 2.73,0.438 3.465,1.312 0.733,0.874 1.1,2.304 1.1,4.29 0,2.158 -0.356,3.702 -1.068,4.63 C 6.167,0.847 5.013,1.312 3.416,1.312 1.862,1.312 0.723,0.874 0,0 m 9.228,1.781 c 1.305,-1.392 1.958,-3.351 1.958,-5.877 0,-2.806 -0.696,-4.965 -2.088,-6.475 -1.392,-1.512 -3.373,-2.267 -5.942,-2.267 -2.396,0 -4.241,0.713 -5.536,2.137 -1.295,1.425 -1.943,3.443 -1.943,6.055 0,2.72 0.696,4.818 2.089,6.297 1.392,1.478 3.372,2.218 5.941,2.218 2.374,0 4.214,-0.696 5.521,-2.088" style="fill:#ffffff;fill-opacity:1;fill-rule:nonzero;stroke:none" id="path60" inkscape:connector-curvature="0"></path></g><g id="g62" transform="translate(206.88,22.3964)"><path d="M 0,0 C 1.705,0.497 2.558,1.565 2.558,3.206 2.558,4.09 2.299,4.744 1.78,5.165 1.263,5.585 0.474,5.817 -0.583,5.86 L -2.72,5.796 -2.817,0.097 Z M 6.799,-7.252 6.767,-7.641 C 5.645,-7.965 4.662,-8.159 3.82,-8.224 L 3.335,-7.933 C 1.759,-5.386 0.647,-3.529 0,-2.363 l -2.849,-0.033 v -0.453 l 0.129,-5.148 h -3.108 l 0.129,4.856 -0.129,11.365 6.152,0.032 C 2.072,8.256 3.427,7.84 4.387,7.01 5.347,6.179 5.828,5.008 5.828,3.497 5.828,2.439 5.542,1.479 4.97,0.615 4.397,-0.249 3.594,-0.961 2.558,-1.522 3.81,-3.399 5.224,-5.31 6.799,-7.252" style="fill:#ffffff;fill-opacity:1;fill-rule:nonzero;stroke:none" id="path64" inkscape:connector-curvature="0"></path></g><g id="g66" transform="translate(229.1364,27.8681)"><path d="M 0,0 -3.141,0.227 H -4.5 l -0.065,-8.548 0.097,-5.148 h -3.108 l 0.129,4.857 -0.065,8.839 H -8.839 L -12.044,0 l -0.227,0.259 0.227,2.493 H 0.032 L 0.194,2.494 Z" style="fill:#ffffff;fill-opacity:1;fill-rule:nonzero;stroke:none" id="path68" inkscape:connector-curvature="0"></path></g><g id="g70" transform="translate(243.3825,30.0053)"><path d="m 0,0 -0.485,-2.946 -0.486,-0.097 c -1.252,0.992 -2.44,1.489 -3.562,1.489 -0.799,0 -1.43,-0.205 -1.894,-0.615 -0.464,-0.411 -0.696,-0.886 -0.696,-1.425 0,-0.54 0.243,-0.988 0.728,-1.343 0.486,-0.356 1.247,-0.751 2.283,-1.183 0.972,-0.41 1.754,-0.793 2.347,-1.149 0.594,-0.356 1.106,-0.826 1.538,-1.408 0.432,-0.583 0.648,-1.306 0.648,-2.17 0,-0.885 -0.232,-1.705 -0.696,-2.46 -0.465,-0.756 -1.155,-1.366 -2.072,-1.83 -0.918,-0.464 -2.024,-0.696 -3.319,-0.696 -1.705,0 -3.356,0.345 -4.954,1.036 l 0.421,3.141 0.356,0.195 c 0.626,-0.627 1.365,-1.118 2.218,-1.474 0.853,-0.356 1.635,-0.534 2.348,-0.534 0.777,0 1.408,0.199 1.894,0.599 0.486,0.399 0.728,0.89 0.728,1.473 0,0.583 -0.248,1.052 -0.744,1.409 -0.497,0.356 -1.263,0.749 -2.299,1.181 -0.928,0.41 -1.695,0.793 -2.299,1.15 -0.605,0.356 -1.117,0.83 -1.538,1.424 -0.421,0.594 -0.632,1.322 -0.632,2.186 0,0.906 0.244,1.727 0.729,2.461 0.485,0.733 1.187,1.316 2.105,1.748 0.917,0.431 1.979,0.648 3.188,0.648 C -2.763,0.81 -1.381,0.54 0,0" style="fill:#ffffff;fill-opacity:1;fill-rule:nonzero;stroke:none" id="path72" inkscape:connector-curvature="0"></path></g></g></g></g>

</svg>
