<?xml version="1.0" encoding="UTF-8" standalone="no"?>
<svg
   xmlns:dc="http://purl.org/dc/elements/1.1/"
   xmlns:cc="http://creativecommons.org/ns#"
   xmlns:rdf="http://www.w3.org/1999/02/22-rdf-syntax-ns#"
   xmlns:svg="http://www.w3.org/2000/svg"
   xmlns="http://www.w3.org/2000/svg"
   viewBox="0 0 1122.52 793.70667"
   height="793.70667"
   width="1122.52"
   xml:space="preserve"
   id="svg2"
   version="1.1"><metadata
     id="metadata8"><rdf:RDF><cc:Work
         rdf:about=""><dc:format>image/svg+xml</dc:format><dc:type
           rdf:resource="http://purl.org/dc/dcmitype/StillImage" /></cc:Work></rdf:RDF></metadata><defs
     id="defs6"><clipPath
       id="clipPath18"
       clipPathUnits="userSpaceOnUse"><path
         id="path16"
         d="M 0,595.28 H 841.89 V 0 H 0 Z" /></clipPath></defs><g
     transform="matrix(1.3333333,0,0,-1.3333333,0,793.70667)"
     id="g10"><g
       id="g12"><g
         clip-path="url(#clipPath18)"
         id="g14"><g
           transform="translate(115.7188,300.126)"
           id="g20"><path
             id="path22"
             style="fill:#fb465b;fill-opacity:1;fill-rule:nonzero;stroke:none"
             d="m 0,0 c 0,-10.334 2.389,-18.172 7.173,-23.508 4.765,-5.33 10.824,-8.004 18.171,-8.004 7.346,0 13.374,2.656 18.091,7.942 4.705,5.296 7.065,13.236 7.065,23.821 0,10.454 -2.301,18.263 -6.886,23.405 -4.578,5.149 -10.682,7.718 -18.27,7.718 -7.599,0 -13.721,-2.604 -18.373,-7.812 C 2.318,18.352 0,10.496 0,0 m -18.986,-0.629 c 0,9.302 1.383,17.105 4.174,23.417 2.077,4.645 4.903,8.812 8.499,12.507 3.586,3.699 7.517,6.439 11.793,8.225 5.696,2.402 12.248,3.603 19.675,3.603 13.451,0 24.209,-4.165 32.286,-12.514 8.071,-8.339 12.105,-19.941 12.105,-34.798 0,-14.735 -3.999,-26.267 -12.013,-34.59 -8.01,-8.31 -18.722,-12.486 -32.127,-12.486 -13.572,0 -24.369,4.145 -32.368,12.429 -8.02,8.277 -12.024,19.685 -12.024,34.207" /></g><g
           transform="translate(191.8677,320.5454)"
           id="g24"><path
             id="path26"
             style="fill:#fb465b;fill-opacity:1;fill-rule:nonzero;stroke:none"
             d="m 0,0 h 9.719 v 4.979 c 0,5.563 0.595,9.715 1.773,12.45 1.18,2.744 3.354,4.981 6.529,6.696 3.185,1.719 7.187,2.578 12.051,2.578 4.973,0 9.853,-0.745 14.634,-2.242 L 42.338,12.264 c -2.783,0.667 -5.457,0.992 -8.026,0.992 -2.543,0 -4.363,-0.589 -5.453,-1.773 C 27.754,10.305 27.215,8.035 27.215,4.667 V 0 H 40.286 V -13.759 H 27.215 V -66.125 H 9.719 v 52.366 H 0 Z" /></g><g
           transform="translate(235.9575,320.5454)"
           id="g28"><path
             id="path30"
             style="fill:#fb465b;fill-opacity:1;fill-rule:nonzero;stroke:none"
             d="m 0,0 h 9.724 v 4.979 c 0,5.563 0.581,9.715 1.769,12.45 1.183,2.744 3.361,4.981 6.542,6.696 3.172,1.719 7.189,2.578 12.041,2.578 4.987,0 9.858,-0.745 14.641,-2.242 L 42.342,12.264 c -2.779,0.667 -5.46,0.992 -8.035,0.992 -2.518,0 -4.337,-0.589 -5.441,-1.773 C 27.762,10.305 27.212,8.035 27.212,4.667 V 0 H 40.294 V -13.759 H 27.212 V -66.125 H 9.724 v 52.366 H 0 Z" /></g><path
           id="path32"
           style="fill:#fb465b;fill-opacity:1;fill-rule:nonzero;stroke:none"
           d="m 286.084,320.546 h 17.495 v -66.125 h -17.495 z m 0,25.15 h 17.495 v -16.188 h -17.495 z" /><g
           transform="translate(379.167,301.001)"
           id="g34"><path
             id="path36"
             style="fill:#fb465b;fill-opacity:1;fill-rule:nonzero;stroke:none"
             d="m 0,0 -17.245,-3.122 c -0.582,3.446 -1.896,6.038 -3.958,7.786 -2.055,1.74 -4.722,2.623 -7.997,2.623 -4.358,0 -7.829,-1.517 -10.431,-4.527 -2.59,-3.005 -3.885,-8.031 -3.885,-15.091 0,-7.845 1.311,-13.39 3.949,-16.627 2.635,-3.237 6.17,-4.858 10.616,-4.858 3.329,0 6.037,0.945 8.156,2.834 2.121,1.888 3.613,5.138 4.482,9.739 l 17.179,-2.925 c -1.773,-7.887 -5.212,-13.841 -10.263,-17.869 -5.068,-4.023 -11.857,-6.038 -20.358,-6.038 -9.68,0 -17.39,3.05 -23.141,9.154 -5.747,6.102 -8.611,14.546 -8.611,25.338 0,10.92 2.864,19.416 8.653,25.503 5.77,6.078 13.57,9.116 23.407,9.116 8.056,0 14.461,-1.736 19.201,-5.203 C -5.492,12.374 -2.08,7.095 0,0" /></g><g
           transform="translate(431.709,293.1494)"
           id="g38"><path
             id="path40"
             style="fill:#fb465b;fill-opacity:1;fill-rule:nonzero;stroke:none"
             d="m 0,0 c -0.118,5.068 -1.42,8.916 -3.918,11.549 -2.478,2.639 -5.516,3.955 -9.083,3.955 -3.825,0 -6.978,-1.391 -9.472,-4.17 C -24.958,8.546 -26.187,4.779 -26.143,0 Z m -0.994,-17.68 17.431,-2.928 c -2.233,-6.389 -5.782,-11.267 -10.621,-14.597 -4.826,-3.347 -10.868,-5.02 -18.128,-5.02 -11.508,0 -20.015,3.767 -25.541,11.274 -4.352,6.014 -6.529,13.615 -6.529,22.785 0,10.962 2.862,19.538 8.59,25.748 5.721,6.21 12.977,9.305 21.732,9.305 9.834,0 17.593,-3.244 23.287,-9.745 5.68,-6.494 8.401,-16.443 8.148,-29.846 h -43.821 c 0.11,-5.189 1.523,-9.23 4.231,-12.115 2.696,-2.883 6.056,-4.327 10.08,-4.327 2.74,0 5.051,0.755 6.906,2.242 1.871,1.486 3.277,3.9 4.235,7.224" /></g><g
           transform="translate(537.6562,348.0254)"
           id="g42"><path
             id="path44"
             style="fill:#0070d1;fill-opacity:1;fill-rule:nonzero;stroke:none"
             d="m 0,0 -27.75,-57 -2.482,57 h -30.907 l -20.007,-95.929 h 21.71 l 11.122,58.462 2.528,-58.462 h 21.508 L 2.964,-38.742 -10.645,-95.929 H 11.323 L 31.407,0 Z" /></g><g
           transform="translate(604.7148,282.2666)"
           id="g46"><path
             id="path48"
             style="fill:#0070d1;fill-opacity:1;fill-rule:nonzero;stroke:none"
             d="m 0,0 c -0.794,-3.547 -1.688,-6.185 -2.646,-7.85 -0.981,-1.685 -2.437,-3.052 -4.448,-4.162 -2.061,-1.13 -4.191,-1.673 -6.515,-1.673 -1.845,0 -3.256,0.492 -4.308,1.501 -1.033,0.995 -1.527,2.131 -1.527,3.575 0,1.812 0.646,3.146 2.007,4.187 1.65,1.251 5.833,2.999 16.48,4.282 C -0.629,-0.096 -0.309,-0.044 0,0 m 19.074,36.48 c -4.472,3.77 -11.327,5.681 -20.354,5.681 -8.618,0 -15.68,-1.801 -21.006,-5.372 -5.366,-3.589 -9.183,-8.655 -11.327,-15.014 l -0.969,-2.808 22.318,-1.918 0.524,1.873 c 0.515,1.889 1.462,3.295 2.874,4.293 1.442,1.013 3.526,1.531 6.215,1.531 2.443,0 4.247,-0.476 5.354,-1.385 1.009,-0.845 1.468,-1.806 1.468,-3.013 0,-1.027 -0.235,-2.412 -0.681,-4.123 -2.969,-0.782 -8.115,-1.493 -15.358,-2.086 -10.741,-0.844 -18.069,-3.295 -22.446,-7.494 -4.366,-4.213 -6.594,-9.874 -6.594,-16.805 0,-6.263 2.037,-11.47 6.037,-15.489 3.996,-4.029 9.121,-6.078 15.222,-6.078 3.767,0 7.545,0.86 11.235,2.546 2.271,1.042 4.387,2.363 6.342,3.952 0.218,-1.105 0.479,-2.202 0.792,-3.269 l 0.501,-1.672 h 22.203 l -0.862,2.967 c -0.931,3.225 -1.416,6.172 -1.416,8.759 0,2.967 0.875,8.374 2.579,16.064 2.144,9.663 3.355,15.491 3.727,17.823 0.367,2.362 0.555,4.618 0.555,6.708 0,5.639 -2.324,10.452 -6.933,14.329" /></g><g
           transform="translate(669.3242,304.96)"
           id="g50"><path
             id="path52"
             style="fill:#0070d1;fill-opacity:1;fill-rule:nonzero;stroke:none"
             d="m 0,0 h 10.972 l 3.7,17.91 H 3.777 L 9.081,43.243 -16.858,27.641 -18.849,17.91 h -8.716 L -31.27,0 h 8.649 l -4.971,-23.784 c -1.564,-7.583 -2.337,-12.339 -2.337,-14.553 0,-5.017 1.722,-9.014 5.118,-11.892 3.332,-2.812 8.323,-4.191 15.268,-4.191 3.37,0 6.721,0.33 9.918,0.982 l 1.514,0.305 3.759,17.84 -3.143,-0.286 c -3.834,-0.353 -5.21,-0.429 -5.691,-0.429 -2.474,0 -3.147,0.518 -3.217,0.57 -0.231,0.209 -0.512,0.574 -0.512,1.448 0,0.236 0.148,1.512 1.509,8.138 z" /></g><g
           transform="translate(716.126,307.0122)"
           id="g54"><path
             id="path56"
             style="fill:#0070d1;fill-opacity:1;fill-rule:nonzero;stroke:none"
             d="m 0,0 c 3.027,0 5.36,-0.955 7.111,-2.905 1.716,-1.911 2.618,-4.922 2.692,-8.94 h -22.746 c 1.014,3.57 2.565,6.362 4.607,8.31 C -5.826,-1.162 -3.094,0 0,0 m 22.9,9.192 c -5.195,5.457 -12.259,8.223 -20.97,8.223 -13.431,0 -23.943,-5.142 -31.224,-15.295 -5.286,-7.428 -7.958,-16.016 -7.958,-25.506 0,-9.847 3.029,-17.909 9.003,-23.96 5.999,-6.051 13.839,-9.127 23.329,-9.127 6.874,0 13.189,1.738 18.76,5.177 5.565,3.433 10.045,8.629 13.345,15.439 l 1.345,2.795 -20.693,3.467 -0.803,-1.463 c -2.885,-5.387 -6.763,-8.004 -11.833,-8.004 -2.961,0 -5.404,1.086 -7.47,3.319 -1.981,2.126 -3.021,4.863 -3.145,8.351 h 44.392 l 0.426,1.78 c 0.868,3.607 1.311,7.71 1.311,12.183 0,9.582 -2.631,17.195 -7.815,22.621" /></g><g
           transform="translate(65.6084,556.6768)"
           id="g58"><path
             id="path60"
             style="fill:#fb465b;fill-opacity:1;fill-rule:nonzero;stroke:none"
             d="m 0,0 c 0,-8.284 -6.715,-14.999 -14.999,-14.999 -8.284,0 -15,6.715 -15,14.999 0,8.284 6.716,15 15,15 C -6.715,15 0,8.284 0,0" /></g><g
           transform="translate(111.7324,556.6768)"
           id="g62"><path
             id="path64"
             style="fill:#0070d1;fill-opacity:1;fill-rule:nonzero;stroke:none"
             d="m 0,0 c 0,-8.284 -6.715,-14.999 -14.999,-14.999 -8.284,0 -15,6.715 -15,14.999 0,8.284 6.716,15 15,15 C -6.715,15 0,8.284 0,0" /></g></g></g></g></svg>