<svg id="Layer_1" data-name="Layer 1" xmlns="http://www.w3.org/2000/svg" viewBox="0 0 668 116"><defs><style>.cls-1{fill:#fff;}</style></defs><title>Logo-OFM-WhiteColor</title><path class="cls-1" d="M9,57.87q0-13.95,4.17-23.41A42.91,42.91,0,0,1,21.62,22a35.3,35.3,0,0,1,11.79-8.22,50.14,50.14,0,0,1,19.68-3.61q20.18,0,32.28,12.52T97.48,57.43q0,22.11-12,34.59T53.34,104.51Q33,104.51,21,92.08T9,57.87m19-.63q0,15.51,7.17,23.51a23.34,23.34,0,0,0,18.18,8,23.2,23.2,0,0,0,18.09-7.94q7-7.95,7.06-23.83,0-15.68-6.88-23.4C67,28.44,60.86,25.87,53.28,25.87S39.55,28.48,34.9,33.68s-7,13.07-7,23.56"/><path class="cls-1" d="M104.08,36.83h9.72v-5q0-8.35,1.77-12.45a14,14,0,0,1,6.53-6.7,25.15,25.15,0,0,1,12.05-2.58,48.92,48.92,0,0,1,14.64,2.24l-2.37,12.2a34.23,34.23,0,0,0-8-1q-3.81,0-5.45,1.77c-1.11,1.18-1.64,3.45-1.64,6.82v4.67h13.07V50.58H131.3V103H113.8V50.58h-9.72Z"/><path class="cls-1" d="M148.17,36.83h9.72v-5q0-8.35,1.77-12.45a14,14,0,0,1,6.55-6.7,25.06,25.06,0,0,1,12-2.58,49,49,0,0,1,14.64,2.24l-2.38,12.2a34.23,34.23,0,0,0-8-1c-2.52,0-4.34.59-5.44,1.77s-1.66,3.45-1.66,6.82v4.67h13.08V50.58H175.38V103H157.89V50.58h-9.72Z"/><path class="cls-1" d="M198.3,11.68h17.49V27.86H198.3Zm0,25.15h17.49V103H198.3Z"/><path class="cls-1" d="M291.38,56.37l-17.24,3.12c-.59-3.44-1.9-6-4-7.78a12,12,0,0,0-8-2.63,13.09,13.09,0,0,0-10.43,4.53q-3.88,4.5-3.89,15.09,0,11.77,3.95,16.63a13,13,0,0,0,10.62,4.86,11.79,11.79,0,0,0,8.16-2.84q3.18-2.84,4.48-9.74l17.18,2.93C290.47,88.42,287,94.38,282,98.41s-11.85,6-20.35,6q-14.52,0-23.15-9.16T229.87,70q0-16.38,8.66-25.5t23.4-9.12q12.09,0,19.2,5.21t10.25,15.83"/><path class="cls-1" d="M342.93,81.9l17.43,2.93q-3.35,9.58-10.62,14.6t-18.13,5q-17.26,0-25.54-11.28-6.52-9-6.53-22.78,0-16.44,8.59-25.75a28.28,28.28,0,0,1,21.73-9.31q14.76,0,23.29,9.75t8.15,29.85H317.48c.11,5.18,1.52,9.23,4.23,12.11a13.23,13.23,0,0,0,10.08,4.33,10.73,10.73,0,0,0,6.9-2.24q2.81-2.23,4.24-7.23m1-17.68c-.12-5.07-1.42-8.91-3.92-11.55a12,12,0,0,0-9.08-4,12.16,12.16,0,0,0-9.47,4.17c-2.49,2.79-3.71,6.55-3.67,11.33Z"/><polygon class="cls-1" points="449.87 9.35 422.12 66.34 419.64 9.35 388.73 9.35 368.72 105.27 390.43 105.27 401.56 46.81 404.08 105.27 425.59 105.27 452.83 48.09 439.23 105.27 461.19 105.27 481.28 9.35 449.87 9.35"/><path class="cls-1" d="M536,38.62c-4.47-3.77-11.32-5.68-20.35-5.68-8.62,0-15.68,1.8-21,5.38a28.62,28.62,0,0,0-11.33,15l-1,2.81,22.31,1.92.53-1.88a7.37,7.37,0,0,1,2.87-4.29,10.8,10.8,0,0,1,6.22-1.53c2.44,0,4.24.47,5.35,1.38a3.73,3.73,0,0,1,1.47,3,17.8,17.8,0,0,1-.68,4.12A102,102,0,0,1,505.06,61c-10.74.84-18.07,3.29-22.45,7.49S476,78.33,476,85.26a21.11,21.11,0,0,0,6,15.49,20.63,20.63,0,0,0,15.22,6.08,26.84,26.84,0,0,0,11.23-2.55,29.43,29.43,0,0,0,6.35-4c.21,1.11.48,2.2.79,3.27l.5,1.67h22.2l-.86-3a32.2,32.2,0,0,1-1.42-8.76c0-3,.88-8.38,2.58-16.07C540.8,67.82,542,62,542.38,59.66a43.6,43.6,0,0,0,.55-6.71A18.09,18.09,0,0,0,536,38.62M516.93,75.1A29.66,29.66,0,0,1,514.28,83a11.19,11.19,0,0,1-4.45,4.17,13.21,13.21,0,0,1-6.51,1.67,5.91,5.91,0,0,1-4.31-1.5,4.71,4.71,0,0,1-1.53-3.58,4.89,4.89,0,0,1,2-4.18c1.65-1.25,5.83-3,16.48-4.29l1-.14"/><path class="cls-1" d="M581.54,52.41h11l3.7-17.91h-10.9l5.31-25.33-25.94,15.6-2,9.73H554l-3.7,17.91h8.65L554,76.2c-1.57,7.58-2.34,12.33-2.34,14.55,0,5,1.72,9,5.12,11.89s8.32,4.19,15.26,4.19a50,50,0,0,0,9.92-1l1.52-.31,3.76-17.84L584,88c-3.83.35-5.21.43-5.69.43-2.47,0-3.15-.52-3.22-.57a1.76,1.76,0,0,1-.51-1.45c0-.24.15-1.51,1.51-8.14Z"/><path class="cls-1" d="M651.24,41.17c-5.2-5.46-12.26-8.23-21-8.23-13.43,0-23.94,5.15-31.22,15.3a43.06,43.06,0,0,0-8,25.5c0,9.85,3,17.91,9,24s13.84,9.13,23.33,9.13a35.24,35.24,0,0,0,18.76-5.17c5.56-3.44,10-8.63,13.34-15.44l1.35-2.8L636.18,80l-.81,1.47c-2.88,5.38-6.76,8-11.83,8a9.73,9.73,0,0,1-7.47-3.32,12.32,12.32,0,0,1-3.14-8.35h44.39l.42-1.78a52.34,52.34,0,0,0,1.31-12.18c0-9.58-2.63-17.2-7.81-22.62m-22.9,9.19a9,9,0,0,1,7.11,2.9c1.72,1.91,2.62,4.93,2.69,8.94H615.4a18.06,18.06,0,0,1,4.6-8.31,11.79,11.79,0,0,1,8.34-3.53"/></svg>