<svg id="Layer_1" data-name="Layer 1" xmlns="http://www.w3.org/2000/svg" width="683.7" height="117.15" viewBox="0 0 683.7 117.15"><title>Logo_SSP_New</title><path d="M112,319.86c4.45,5.9,6.85,12.17,6.85,18.69a29.64,29.64,0,0,1-5.07,16.12c-3.14,5.95-9,11.54-17.19,16.57C70.28,389-15.07,409.05,16.07,409.05c77.15,0,139.7-23.12,139.7-51.65C155.77,342.61,139,329.27,112,319.86Z" transform="translate(-9.15 -291.91)" style="fill:#78e723"/><path d="M52.63,380.42c-4.41-5.93-6.77-12.23-6.72-18.74a29.65,29.65,0,0,1,5.19-16.09c3.18-5.93,9.12-11.47,17.3-16.44,26.46-17.54,112-37,80.82-37.23C72.07,291.36,9.35,314,9.15,342.57,9,357.36,25.76,370.81,52.63,380.42Z" transform="translate(-9.15 -291.91)" style="fill:#78e723"/><path d="M219.46,329.58l-.74,4.47-.84.19a16.53,16.53,0,0,0-9.33-3.17,10.42,10.42,0,0,0-7.41,2.56,7.72,7.72,0,0,0-2.75,5.74,5.88,5.88,0,0,0,2.47,4.94,37.25,37.25,0,0,0,7.51,4c2.79,1.3,5,2.44,6.62,3.4a14.61,14.61,0,0,1,4.19,3.82,9.5,9.5,0,0,1,1.77,5.83,11.45,11.45,0,0,1-1.91,6.39,13.51,13.51,0,0,1-5.45,4.71,18.14,18.14,0,0,1-8.21,1.77,26,26,0,0,1-12.68-3.17l.47-4.76.65-.28a16.31,16.31,0,0,0,5.74,3.41,19.07,19.07,0,0,0,6.29,1.16,11.13,11.13,0,0,0,7.6-2.56,7.78,7.78,0,0,0,2.94-6,6.19,6.19,0,0,0-2.48-5.17,42.48,42.48,0,0,0-7.69-4.34q-4-1.86-6.48-3.31a13.84,13.84,0,0,1-4.19-3.77,9.31,9.31,0,0,1-1.73-5.69,10.87,10.87,0,0,1,1.91-6.25,13.18,13.18,0,0,1,5.36-4.43,18.48,18.48,0,0,1,7.93-1.63A26.37,26.37,0,0,1,219.46,329.58Z" transform="translate(-9.15 -291.91)" style="fill:#fff"/><path d="M273.16,357.65q.18,7.88-4.57,12.23t-13.43,4.36q-8.58,0-13.14-4.31t-4.48-12.28l.1-6.77-.1-22.9h4.66l-.28,29.11q-.09,6.5,3.36,9.87t10.07,3.39q6.61,0,10.07-3.39t3.45-9.87L268.68,328h4.67l-.19,23.45Z" transform="translate(-9.15 -291.91)" style="fill:#fff"/><path d="M315.35,331.56q3.82,3.42,3.82,9.77,0,7.56-4.66,11.75t-13.05,4.2H295.3v2.39l.1,14.2h-4.57L291,360l-.18-31.79,13.61-.1Q311.52,328.15,315.35,331.56Zm-3.68,18.25a11.65,11.65,0,0,0,2.75-8.11q0-9.4-10.73-9.86l-8.2.09-.19,21.48,8.49.18A12.65,12.65,0,0,0,311.67,349.81Z" transform="translate(-9.15 -291.91)" style="fill:#fff"/><path d="M362.89,373.87H336.6l.19-13.86-.19-31.86h26.29l.38.56-.47,3.51-11.47-.28H341.26l-.09,16.44,9.51.09,8.2-.19.28.56-.37,3.6-8.48-.18-9.24.09v7.29l.1,10.44h9.51l12.31-.19.46.47Z" transform="translate(-9.15 -291.91)" style="fill:#fff"/><path d="M410.81,372.76v.65a15.29,15.29,0,0,1-4.1,1l-.84-.46q-6.9-9.22-12.12-17.73l-9.51.1v3.32l.09,14.22h-4.57L380,360l-.19-31.86,13.61-.09q7.1,0,10.91,3.37t3.83,9.56a14.15,14.15,0,0,1-2.71,8.58,16.72,16.72,0,0,1-7.74,5.64A215.34,215.34,0,0,0,410.81,372.76Zm-16.88-20.13q9.42-2.4,9.42-11.26,0-9.06-10.72-9.61l-8.21.19-.18,20.5Z" transform="translate(-9.15 -291.91)" style="fill:#fff"/><path d="M453.49,329.93l-1.37,8.3-1.37.27q-5.28-4.2-10-4.2a7.76,7.76,0,0,0-5.33,1.74,5.2,5.2,0,0,0-2,4,4.51,4.51,0,0,0,2.05,3.78,32,32,0,0,0,6.43,3.33,54.65,54.65,0,0,1,6.61,3.24,14.81,14.81,0,0,1,4.33,4,10,10,0,0,1,1.83,6.11,13,13,0,0,1-2,6.93,14.16,14.16,0,0,1-5.84,5.16,20.6,20.6,0,0,1-9.35,2,34.91,34.91,0,0,1-13.95-2.92l1.19-8.85,1-.54a19.35,19.35,0,0,0,6.25,4.15,17.32,17.32,0,0,0,6.61,1.5,8.09,8.09,0,0,0,5.33-1.69A5.15,5.15,0,0,0,446,362a4.66,4.66,0,0,0-2.09-4,34.16,34.16,0,0,0-6.48-3.33,61.37,61.37,0,0,1-6.47-3.24,13.9,13.9,0,0,1-4.33-4,10.32,10.32,0,0,1-1.78-6.15,12.23,12.23,0,0,1,2.05-6.93,14.08,14.08,0,0,1,5.93-4.93,20.93,20.93,0,0,1,9-1.82A31.86,31.86,0,0,1,453.49,329.93Z" transform="translate(-9.15 -291.91)" style="fill:#fff"/><path d="M498.79,331.71q4.06,3.6,4.06,10.25,0,7.85-5.19,12.36t-14.05,4.51h-5.19v.55l.36,14.5H470l.36-13.68-.36-32,17.32-.1Q494.74,328.1,498.79,331.71Zm-5.15,11q0-7.47-8.93-7.93l-5.93.18-.27,17.15,7.29.18Q493.65,350.62,493.64,342.69Z" transform="translate(-9.15 -291.91)" style="fill:#fff"/><path d="M552.41,333.44q5.52,5.88,5.52,16.55,0,11.85-5.89,18.23t-16.73,6.39q-10.12,0-15.59-6t-5.47-17q0-11.49,5.88-17.74t16.73-6.24Q546.9,327.56,552.41,333.44Zm-26,5q-3.06,3.71-3,12,0,9.21,3,13.13T536,367.5q6.66,0,9.76-3.7t3.1-12.08q0-9.12-3-13T536,334.76Q529.48,334.76,526.42,338.45Z" transform="translate(-9.15 -291.91)" style="fill:#fff"/><path d="M608,371.78l-.09,1.1a43,43,0,0,1-8.3,1.64l-1.37-.82q-6.66-10.77-9.39-15.69l-8,.09v1.28l.36,14.5h-8.75l.36-13.68-.36-32,17.32-.1c4.92,0,8.74,1.18,11.44,3.51s4.06,5.64,4.06,9.9a14.35,14.35,0,0,1-2.41,8.11,18.52,18.52,0,0,1-6.8,6Q601.37,363.58,608,371.78Zm-19.15-20.42q7.2-2.1,7.2-9,0-3.74-2.19-5.52c-1.45-1.18-3.67-1.84-6.65-2l-6,.18-.27,16.05Z" transform="translate(-9.15 -291.91)" style="fill:#fff"/><path d="M651.55,336l-8.85-.64h-3.83l-.18,24.07.27,14.5h-8.75l.37-13.68-.19-24.89h-3.74l-9,.64-.64-.73.64-7h34l.45.72Z" transform="translate(-9.15 -291.91)" style="fill:#fff"/><path d="M691.67,329.93l-1.37,8.3-1.37.27q-5.28-4.2-10-4.2a7.72,7.72,0,0,0-5.33,1.74,5.2,5.2,0,0,0-2,4,4.51,4.51,0,0,0,2,3.78,32,32,0,0,0,6.43,3.33,56.17,56.17,0,0,1,6.61,3.24,14.93,14.93,0,0,1,4.33,4,10,10,0,0,1,1.82,6.11,12.93,12.93,0,0,1-2,6.93,14.13,14.13,0,0,1-5.83,5.16,20.63,20.63,0,0,1-9.35,2,34.91,34.91,0,0,1-14-2.92l1.18-8.85,1-.54a19.3,19.3,0,0,0,6.24,4.15,17.36,17.36,0,0,0,6.61,1.5,8.12,8.12,0,0,0,5.34-1.69,5.15,5.15,0,0,0,2.05-4.15,4.65,4.65,0,0,0-2.1-4,34,34,0,0,0-6.47-3.33,60.4,60.4,0,0,1-6.47-3.24,13.93,13.93,0,0,1-4.34-4,10.39,10.39,0,0,1-1.77-6.15,12.23,12.23,0,0,1,2.05-6.93,14,14,0,0,1,5.92-4.93,21,21,0,0,1,9-1.82A31.91,31.91,0,0,1,691.67,329.93Z" transform="translate(-9.15 -291.91)" style="fill:#fff"/></svg>
