
<svg xmlns="http://www.w3.org/2000/svg" xmlns:xlink="http://www.w3.org/1999/xlink" width="40" height="40" viewBox="0 0 40 40">
    <defs>
        <circle id="b" cx="20" cy="20" r="20"/>
        <filter id="a" width="100%" height="100%" x="0%" y="0%" filterUnits="objectBoundingBox">
            <feOffset in="SourceAlpha" result="shadowOffsetOuter1"/>
            <feColorMatrix in="shadowOffsetOuter1" values="0 0 0 0 0 0 0 0 0 0 0 0 0 0 0 0 0 0 0.3 0"/>
        </filter>
    </defs>
    <g fill="none" fill-rule="evenodd" opacity=".9">
        <g>
            <use fill="#000" filter="url(#a)" xlink:href="#b"/>
            <use fill="#FFF" xlink:href="#b"/>
        </g>
        <path fill="#000" d="M16.666 28.837c.206.212.56.214.758.024a.551.551 0 0 0 .025-.75l-7.683-8.082h21.7A.532.532 0 0 0 32 19.5c0-.29-.24-.528-.533-.528h-21.7l7.682-8.082a.547.547 0 0 0-.025-.75.547.547 0 0 0-.758.025l-8.533 8.973a.563.563 0 0 0 0 .725l8.533 8.973z"/>
    </g>
</svg>
