<svg xmlns="http://www.w3.org/2000/svg" width="46" height="60" viewBox="0 0 46 60">
    <path fill="#C1C1C1" fill-rule="evenodd" d="M42.704 15.546h-7.452v-2.979c0-3.362-1.27-6.52-3.575-8.888C29.367 1.306 26.287 0 23 0c-3.284-.002-6.364 1.306-8.675 3.68-2.305 2.368-3.575 5.525-3.575 8.887v2.98H3.296C1.448 15.546 0 17.025 0 18.915v30.356c0 2.874 1.083 5.57 3.05 7.59A10.265 10.265 0 0 0 10.46 60h25.078c2.808 0 5.44-1.115 7.412-3.138C44.917 54.84 46 52.146 46 49.272V18.916c0-1.86-1.479-3.37-3.296-3.37zm-7.165 41.397H10.461c-4.108 0-7.451-3.441-7.451-7.669l.002-30.359c0-.274.144-.31.287-.31h7.451v7.94a2.812 2.812 0 0 0-1.386 2.422 2.816 2.816 0 0 0 2.82 2.812 2.816 2.816 0 0 0 2.82-2.812c0-.972-.496-1.828-1.247-2.333v-8.028h18.484v7.98a2.808 2.808 0 0 0-1.322 2.383 2.816 2.816 0 0 0 2.82 2.812 2.816 2.816 0 0 0 2.819-2.812c0-.998-.524-1.875-1.31-2.375l.004-7.988h7.452c.142 0 .287.036.287.31v30.356c0 4.23-3.344 7.67-7.452 7.67zM23 3.15c5.097 0 9.243 4.265 9.243 9.51v2.979l-18.486-.003v-2.978c0-5.243 4.146-9.508 9.243-9.508z"/>
</svg>
