<svg xmlns="http://www.w3.org/2000/svg" width="50" height="66" viewBox="0 0 50 66">
    <path fill="#C1C1C1" fill-rule="evenodd" d="M48.413 0H1.587C.713 0 0 .706 0 1.572v61.681c0 .55.316 1.099.794 1.415.477.236 1.11.236 1.587-.08l10.237-6.522 11.11 4.321c.398.157.795.157 1.191 0l7.856-3.222 14.999 6.678c.239.08.397.157.636.157.316 0 .635-.08.874-.236.477-.313.713-.786.713-1.335L50 1.572C50 .706 49.364 0 48.413 0zm-1.587 61.994l-13.411-5.973c-.239-.08-.397-.156-.636-.156s-.397 0-.635.156l-7.937 3.223-11.27-4.401c-.477-.157-1.032-.157-1.428.156l-8.415 5.42V3.143h43.733l-.001 58.852zM10.633 9.822c0-.866.714-1.572 1.588-1.572h25.555c.874 0 1.587.706 1.587 1.572 0 .865-.713 1.571-1.587 1.571H12.22a1.584 1.584 0 0 1-1.588-1.571zm0 11.08c0-.865.714-1.571 1.588-1.571h25.555c.874 0 1.587.706 1.587 1.572 0 .865-.713 1.571-1.587 1.571H12.22a1.586 1.586 0 0 1-1.588-1.571zm0 11.078c0-.866.714-1.571 1.588-1.571h25.555c.874 0 1.587.706 1.587 1.571 0 .866-.713 1.572-1.587 1.572H12.22a1.584 1.584 0 0 1-1.588-1.572zm15.161 15.166c0 .865-.713 1.571-1.587 1.571H12.302a1.583 1.583 0 0 1-1.588-1.571c0-.866.713-1.572 1.588-1.572h11.905c.874 0 1.587.706 1.587 1.572z"/>
</svg>
