<svg xmlns="http://www.w3.org/2000/svg" width="30" height="30" viewBox="0 0 30 30">
    <g fill="none" fill-rule="evenodd">
        <path fill="#A6192E" d="M0 0h30v30H0z"/>
        <path fill="#FFF" d="M21.296 11.087h-1.73c.087-.246.142-.516.142-.794a2.378 2.378 0 0 0-2.38-2.383c-.786 0-1.54.391-1.989 1.072l-.398.533-.396-.54a2.39 2.39 0 0 0-1.986-1.065 2.38 2.38 0 0 0-2.382 2.383c0 .278.055.548.143.794H8.59c-.884 0-1.582.707-1.582 1.588L7 21.412C7 22.294 7.706 23 8.59 23h12.706c.883 0 1.589-.707 1.589-1.588v-8.736c0-.882-.707-1.59-1.589-1.59zm-3.97-1.588c.437 0 .794.358.794.794a.796.796 0 0 1-.794.794.796.796 0 0 1-.794-.794c0-.436.357-.794.794-.794zm-4.766 0c.436 0 .794.358.794.794a.796.796 0 0 1-.794.794.796.796 0 0 1-.794-.794c0-.436.357-.794.794-.794zm8.736 11.913H8.59v-1.589h12.706v1.589zm0-3.971H8.59v-4.765h4.033l-1.65 2.248s-.44.445.192.883c.633.438 1.093.046 1.093.046l2.685-3.653 2.685 3.653s.35.392.934.003c.584-.39.352-.932.352-.932l-1.651-2.248h4.033v4.765z"/>
    </g>
</svg>
