<svg xmlns="http://www.w3.org/2000/svg" width="16" height="17" viewBox="0 0 15 16">
    <g fill="none" fill-rule="evenodd">
        <path stroke="#A6192E" stroke-width=".659" d="M3.828 3.149h3.194l-.203-1.07c-.1-.53-.235-.914-.387-1.1A1.814 1.814 0 0 0 5.023.33c-.392 0-.774.122-1.09.352-.767.56-.906 1.591-.315 2.312a.498.498 0 0 0 .045.05.29.29 0 0 0 .038.03l.127.076zm3.437 0h3.194a5.16 5.16 0 0 0 .125-.077.31.31 0 0 0 .04-.03.518.518 0 0 0 .045-.05c.59-.72.452-1.75-.315-2.31A1.844 1.844 0 0 0 9.264.33c-.551 0-1.071.235-1.41.65-.151.184-.286.57-.387 1.1l-.202 1.069z"/>
        <path stroke="#4A4A4A" stroke-width=".769" d="M10.883 3.863H2.099c-.955 0-1.714.667-1.714 1.46v8.137c0 .793.759 1.46 1.714 1.46H12.9c.955 0 1.714-.667 1.714-1.46V5.323c-.001-.793-.76-1.46-1.716-1.46h-2.016z"/>
        <g fill="#4A4A4A" transform="translate(0 3.478)">
            <rect width="14.286" height="1" y="5.715" rx=".5"/>
            <rect width="12.107" height="1" x="1.211" y="5.934" rx=".5" transform="rotate(90 7.264 6.315)"/>
        </g>
    </g>
</svg>
