<svg xmlns="http://www.w3.org/2000/svg" width="19" height="18" viewBox="0 0 19 18">
    <g fill="#FFF" fill-rule="evenodd">
        <path d="M7.917 16.435c0-.633-.387-1.204-.978-1.446a1.597 1.597 0 0 0-1.725.34 1.552 1.552 0 0 0-.344 1.705c.246.584.823.966 1.463.966a1.577 1.577 0 0 0 1.584-1.565zM15.833 16.435c0-.633-.385-1.204-.977-1.446a1.597 1.597 0 0 0-1.726.34 1.552 1.552 0 0 0-.343 1.705c.245.584.822.966 1.463.966a1.577 1.577 0 0 0 1.583-1.565zM.796.005C.42-.039.074.205.01.561c-.063.355.18.695.55.77l2.203.369L4.799 13.52a.7.7 0 0 0 .71.566h10.948c.391 0 .71-.302.71-.673 0-.372-.319-.674-.71-.674H6.103l-.299-1.727h10.593a.706.706 0 0 0 .677-.467l1.892-5.61a.647.647 0 0 0-.103-.604.722.722 0 0 0-.573-.276H4.608l-.525-3.052a.694.694 0 0 0-.58-.55L.795.005z"/>
    </g>
</svg>
