<svg xmlns="http://www.w3.org/2000/svg" width="48" height="48" viewBox="0 0 48 48">
    <path fill="#4A90E2" fill-rule="evenodd" d="M14.192 19.385l7.385 7.384L42.23 6.231l3.346 3.346-24 24-10.73-10.73 3.345-3.462zM43.154 24H48c0 6.615-2.346 12.27-7.038 16.962C36.269 45.654 30.615 48 24 48s-12.27-2.346-16.962-7.038C2.346 36.269 0 30.615 0 24S2.346 11.73 7.038 7.038C11.731 2.346 17.385 0 24 0c3.077 0 6.077.615 9 1.846l-3.692 3.692A20.084 20.084 0 0 0 24 4.846c-5.308 0-9.827 1.866-13.558 5.596-3.73 3.731-5.596 8.25-5.596 13.558s1.866 9.827 5.596 13.558c3.731 3.73 8.25 5.596 13.558 5.596s9.827-1.866 13.558-5.596c3.73-3.731 5.596-8.25 5.596-13.558z"/>
</svg>
