<svg xmlns="http://www.w3.org/2000/svg" width="18" height="18" viewBox="0 0 18 18">
    <path fill="#A6192E" fill-rule="evenodd" d="M14.692 3.852h1.734C17.3 3.865 18 4.607 18 5.516V7.42c-.004.742-.478 1.392-1.163 1.594v6.847c0 1.182-.92 2.14-2.053 2.14H3.217c-1.134 0-2.053-.958-2.053-2.14V9.013C.479 8.81.004 8.16 0 7.419V5.516c0-.918.715-1.664 1.597-1.664h1.734a2.85 2.85 0 0 1-.274-1.236C3.044 1.194 4.134.026 5.499 0 7.277 0 8.396 1.403 9.01 2.616 9.627 1.403 10.722 0 12.524 0c1.365.026 2.455 1.194 2.442 2.616a2.85 2.85 0 0 1-.274 1.236zm1.962 1.664a.244.244 0 0 0-.067-.168.223.223 0 0 0-.161-.07h-6.73v2.378h6.73c.06 0 .119-.025.161-.07a.243.243 0 0 0 .067-.167V5.516zm-4.106-4.114l-.024.001c-1.369 0-2.167 1.474-2.555 2.426h2.579c.62-.038 1.097-.59 1.072-1.237.013-.635-.464-1.164-1.072-1.19zm-8.123 1.19v.024c-.026.648.452 1.198 1.073 1.236h2.578c-.387-.975-1.209-2.449-2.578-2.449-.608.026-1.085.554-1.073 1.188zM1.37 5.515V7.42c0 .132.102.237.228.237h6.73V5.28h-6.73a.234.234 0 0 0-.228.237zM2.533 15.86h.022c0 .395.306.713.684.713h5.088v-7.49H2.533v6.777zm12.228.713h.023c.378 0 .684-.318.684-.713V9.083H9.696v7.49h5.065z"/>
</svg>
