<svg xmlns="http://www.w3.org/2000/svg" width="16" height="16" viewBox="0 0 16 16">
    <path fill="#58CA00" fill-rule="evenodd" d="M3.038 3.07C4.418 1.69 6.072 1 8 1s3.577.685 4.946 2.054C14.316 4.424 15 6.072 15 8s-.685 3.577-2.054 4.946C11.576 14.316 9.928 15 8 15s-3.577-.685-4.946-2.054C1.684 11.576 1 9.928 1 8s.68-3.571 2.038-4.93zm.985 8.874C5.12 13.039 6.444 13.587 8 13.587s2.876-.548 3.96-1.643c1.085-1.096 1.627-2.41 1.627-3.944 0-1.534-.542-2.848-1.627-3.944C10.876 2.961 9.556 2.413 8 2.413s-2.876.548-3.96 1.643C2.955 5.152 2.413 6.466 2.413 8c0 1.534.537 2.848 1.61 3.944zm4.339-7.428v3.648l3.154 1.874-.525.854L7.31 8.69V4.516h1.052z"/>
</svg>
