<svg xmlns="http://www.w3.org/2000/svg" width="50" height="50" viewBox="0 0 50 50">
    <path fill="#4A90E2" fill-rule="evenodd" stroke="#4A90E2" stroke-width="2.5" d="M7.745 7.745C12.242 3.248 17.66 1 24 1s11.758 2.248 16.255 6.745S47 17.66 47 24s-2.248 11.758-6.745 16.255S30.34 47 24 47s-11.758-2.248-16.255-6.745S1 30.34 1 24 3.248 12.242 7.745 7.745zm1.327 31.183C13.2 43.056 18.176 45.12 24 45.12c5.824 0 10.8-2.064 14.928-6.192S45.12 29.824 45.12 24c0-5.824-2.064-10.8-6.192-14.928S29.824 2.88 24 2.88c-5.824 0-10.8 2.064-14.928 6.192S2.88 18.176 2.88 24c0 5.824 2.064 10.8 6.192 14.928zm15.37-27.091c1.843 0 3.41.552 4.7 1.658 1.29 1.106 1.935 2.58 1.935 4.423 0 1.917-.958 3.76-2.875 5.53-1.18 1.179-1.88 2.063-2.101 2.653-.221.59-.369 1.659-.442 3.207h-2.101c.073-2.802 1.18-5.16 3.317-7.077 1.4-1.253 2.101-2.654 2.101-4.202 0-1.327-.442-2.396-1.327-3.207-.885-.81-1.99-1.216-3.317-1.216-1.77 0-3.115.442-4.036 1.327-.922.884-1.346 2.138-1.272 3.76h-2.1c0-4.571 2.505-6.856 7.518-6.856zm-1.327 21.12a1.81 1.81 0 0 1 1.327-.553c.516 0 .959.184 1.327.553.369.368.553.81.553 1.327 0 .516-.184.958-.553 1.327a1.81 1.81 0 0 1-1.327.552 1.81 1.81 0 0 1-1.327-.552 1.81 1.81 0 0 1-.552-1.327c0-.516.184-.959.552-1.327z"/>
</svg>
