<svg xmlns="http://www.w3.org/2000/svg" width="48" height="48" viewBox="0 0 48 48">
    <path fill="#4A90E2" fill-rule="evenodd" stroke="#4A90E2" stroke-width="1.5" d="M35.397 30.982l5.34-5.34H17.429v-3.285h23.308l-5.34-5.34 2.26-2.36L47 24l-9.344 9.344-2.259-2.362zm2.465 6.982l.821-.821h4.21c-2.122 3.012-4.843 5.408-8.163 7.187C31.41 46.11 27.833 47 24 47c-6.366 0-11.79-2.242-16.275-6.725C3.242 35.79 1 30.366 1 24c0-6.366 2.242-11.79 6.725-16.275C12.21 3.242 17.634 1 24 1c3.833 0 7.41.89 10.73 2.67 3.32 1.78 6.04 4.175 8.163 7.187h-4.21l-.821-.821C34.028 6.202 29.408 4.286 24 4.286c-5.476 0-10.13 1.916-13.964 5.75-3.834 3.833-5.75 8.488-5.75 13.964 0 5.476 1.916 10.13 5.75 13.964 3.833 3.834 8.488 5.75 13.964 5.75 5.408 0 10.028-1.916 13.862-5.75z"/>
</svg>
