<?xml version="1.0" encoding="UTF-8"?>
<svg width="18px" height="18px" viewBox="0 0 18 18" version="1.1" xmlns="http://www.w3.org/2000/svg" xmlns:xlink="http://www.w3.org/1999/xlink">
    <!-- Generator: Sketch 50.2 (55047) - http://www.bohemiancoding.com/sketch -->
    <title>[icon] / delete / ic_delete</title>
    <desc>Created with Sketch.</desc>
    <defs></defs>
    <g id="[icon]-/-delete-/-ic_delete" stroke="none" stroke-width="1" fill="none" fill-rule="evenodd">
        <path d="M12.5856119,16.2326943 C12.5553465,16.5879686 12.2554946,16.8667485 11.902398,16.8667485 L6.09760199,16.8667485 C5.74450538,16.8667485 5.44465351,16.5879686 5.41438809,16.2326943 L4.33436086,3.40145434 L6.47143601,3.40145434 L11.528564,3.40145434 L13.6656391,3.40145434 L12.5856119,16.2326943 Z M7.0319068,1.65681367 C7.0319068,1.36783455 7.26394171,1.13325149 7.54978182,1.13325149 L10.4502182,1.13325149 C10.7360583,1.13325149 10.9680932,1.36783455 10.9680932,1.65681367 L10.9680932,2.26820285 L7.0319068,2.26820285 L7.0319068,1.65681367 Z M15.4395292,2.26820285 L14.2759918,2.26820285 L12.0890348,2.26820285 L12.0890348,1.65681367 C12.0890348,0.743412976 11.3542576,0 10.4502182,0 L7.54978182,0 C6.64574242,0 5.91096521,0.743412976 5.91096521,1.65681367 L5.91096521,2.26820285 L3.72400817,2.26820285 L2.5604708,2.26820285 C2.25109092,2.26820285 2,2.52205119 2,2.8348286 C2,3.14760601 2.25109092,3.40145434 2.5604708,3.40145434 L3.20949598,3.40145434 L4.29793026,16.3284541 C4.37639617,17.265653 5.16722047,18 6.09760199,18 L11.902398,18 C12.8327795,18 13.6241643,17.265653 13.7020697,16.3284541 L14.790504,3.40145434 L15.4395292,3.40145434 C15.7494696,3.40145434 16,3.14760601 16,2.8348286 C16,2.52205119 15.7494696,2.26820285 15.4395292,2.26820285 Z M9.00005605,4.63732175 C8.6901157,4.63732175 8.43958525,4.89117008 8.43958525,5.20394749 L8.43958525,15.0105392 C8.43958525,15.3233166 8.6901157,15.577165 9.00005605,15.577165 C9.3099964,15.577165 9.56052684,15.3233166 9.56052684,15.0105392 L9.56052684,5.20394749 C9.56052684,4.89117008 9.3099964,4.63732175 9.00005605,4.63732175 M6.44509388,4.63788837 C6.135714,4.65262064 5.89695344,4.91780149 5.91152568,5.2305789 L6.3660675,15.0371706 C6.38063974,15.340882 6.62836783,15.577165 6.92541735,15.577165 C6.93438488,15.577165 6.94391289,15.577165 6.95231995,15.5765984 C7.26169983,15.5618661 7.50046039,15.2966852 7.48588815,14.9839078 L7.03134633,5.17731608 C7.01733456,4.8651053 6.76007847,4.63675512 6.44509388,4.63788837 M10.9688218,5.17737275 L10.5137195,14.9839645 C10.4997078,15.2967419 10.7384683,15.5619228 11.0478482,15.576655 C11.0562553,15.5772216 11.0657833,15.5772216 11.0741903,15.5772216 C11.3718003,15.5772216 11.6195284,15.3409387 11.6341006,15.0372273 L12.0886425,5.23063557 C12.1026542,4.91785815 11.8644541,4.65267731 11.5550743,4.63794504 C11.2456944,4.62887903 10.9833941,4.86459533 10.9688218,5.17737275" id="Fill-7" fill="#65727E"></path>
    </g>
</svg>