<svg xmlns="http://www.w3.org/2000/svg" width="32" height="32" viewBox="0 0 32 32">
    <g fill="none" fill-rule="evenodd">
        <circle cx="16" cy="16" r="15.5" stroke="#333"/>
        <path fill="#333" d="M16 8.727c4.418 0 8 2.925 8 6.534 0 1.26-.437 2.437-1.194 3.435-.038.057-.087.12-.148.189l-.005.005c-.259.316-.55.612-.87.885-2.212 2.086-5.854 4.569-6.334 4.186-.418-.333.688-1.962-.588-2.233a9.966 9.966 0 0 1-.266-.034h-.002C10.846 21.15 8 18.476 8 15.26c0-3.609 3.582-6.534 8-6.534zm-4.642 8.618H12.972c.23 0 .417-.192.417-.426v-.035a.423.423 0 0 0-.417-.426H11.81v-2.695a.423.423 0 0 0-.417-.425h-.035a.423.423 0 0 0-.417.425v3.156c0 .234.188.426.417.426zm9.998-1.979v-.035a.423.423 0 0 0-.417-.426h-1.161v-.673h1.161c.23 0 .417-.192.417-.426v-.035a.423.423 0 0 0-.417-.426h-1.613a.423.423 0 0 0-.418.426v3.156c0 .234.188.425.418.425h1.613c.23 0 .417-.191.417-.425v-.036a.423.423 0 0 0-.417-.425h-1.161v-.674h1.161c.23 0 .417-.192.417-.426zm-3.103 1.852a.429.429 0 0 0 .121-.299v-3.156a.423.423 0 0 0-.417-.425h-.035a.423.423 0 0 0-.417.425v1.853l-1.508-2.063a.417.417 0 0 0-.363-.215H15.6a.423.423 0 0 0-.418.425v3.156c0 .234.188.426.418.426h.034c.23 0 .418-.192.418-.426v-1.887l1.519 2.116c.009.015.02.029.03.042a.35.35 0 0 0 .163.123c.049.02.102.032.158.032h.035c.07 0 .136-.018.195-.05a.294.294 0 0 0 .101-.077zm-4.11.127h.035c.23 0 .417-.192.417-.426v-3.156a.423.423 0 0 0-.417-.425h-.035a.423.423 0 0 0-.417.425v3.156c0 .234.188.426.417.426z"/>
    </g>
</svg>
