<svg xmlns="http://www.w3.org/2000/svg" viewBox="0 0 300 300"><defs><style>.cls-1{fill:#596878;}</style></defs><title>Microphon</title><g id="Expan_Icon" data-name="Expan Icon"><g id="Microphon"><rect class="cls-1" x="94.07" y="28.45" width="111.87" height="156.2" rx="55.93"/><path class="cls-1" d="M242.15,131.18V91.93a10,10,0,0,0-20-.76c0,.25,0,.5,0,.76s0,.52,0,.77v38.48a72.15,72.15,0,0,1-144.3,0V92.7c0-.25,0-.51,0-.77s0-.51,0-.76a10,10,0,0,0-20,.76v39.25A92.28,92.28,0,0,0,140,222.78v28.75H87.91a10,10,0,0,0-.13,20l.64,0,.64,0H210.94l.64,0,.64,0a10,10,0,0,0-.13-20H160V222.78A92.28,92.28,0,0,0,242.15,131.18Z"/></g></g></svg>