<svg xmlns="http://www.w3.org/2000/svg" width="25" height="17" viewBox="0 0 24 16">
    <g fill="none" fill-rule="evenodd">
        <path fill="#263238" d="M4.122 10.398l-3.065-.152a.352.352 0 0 0-.351.296l-.703 4.803c-.014.094.02.19.088.254a.313.313 0 0 0 .264.053l3.451-.088a.303.303 0 0 0 .35-.268l.3-4.521a.354.354 0 0 0-.334-.377zm-1.78 4.584l-1.58.067.572-4.077 1.404.067-.407 3.88a.358.358 0 0 0 .01.067v-.004zm1.134-.035H3.04l.407-3.879h.285l-.257 3.879zm14.085-2.444a.936.936 0 0 0-1.46-.642c-.983.524-2.045.882-3.144 1.058l.102-.057c.258-.164.433-.433.478-.737 0-.031.049-.786-.99-1.03-.116-.038-2.855-.935-3.986-.98-.404-.06-1.51.038-3.301.299a.352.352 0 0 0-.302.332l-.225 4.585a.352.352 0 0 0 .565.297c.232-.184.955-.618 1.485-.459.843.25 4.835.804 5.015.829.063.003.127.003.19 0a3.726 3.726 0 0 0 1.492-.332c.464-.208 2.925-1.375 3.48-1.922.435-.427.64-.857.6-1.241zm-1.089.74c-.38.378-2.335 1.362-3.272 1.781-.411.19-.859.282-1.31.268-1.405-.194-4.267-.614-4.916-.803a2.163 2.163 0 0 0-1.517.214l.186-3.636c2.237-.313 2.735-.271 2.809-.264h.08c1.015.042 3.761.945 3.825.97.2.01.38.123.477.3a.356.356 0 0 1-.154.2c-.484.31-1.773.12-2.507-.08-.288-.053-.825-.145-1 .218H9.17a.52.52 0 0 0 .183.613l.06.043c2.809 1.58 6.341-.215 7.023-.593a.503.503 0 0 1 .246-.077.272.272 0 0 1 .172.194 1.003 1.003 0 0 1-.39.656l.007-.003z"/>
        <path fill="#A6192E" d="M9.45 8.585a4.3 4.3 0 0 1-3.267-.41 4.333 4.333 0 0 1-2.03-2.606A4.358 4.358 0 0 1 5.33 1.455 4.32 4.32 0 0 1 9.45.351a4.358 4.358 0 0 1 3.077 2.974 4.338 4.338 0 0 1-.455 3.27 4.3 4.3 0 0 1-2.622 1.99zM7.414.985a3.596 3.596 0 0 0-2.2 1.662 3.625 3.625 0 0 0-.384 2.74 3.655 3.655 0 0 0 2.58 2.484 3.621 3.621 0 0 0 3.447-.924 3.653 3.653 0 0 0 .99-3.44 3.627 3.627 0 0 0-1.698-2.18A3.596 3.596 0 0 0 7.414.984zm.626 3.79a1.519 1.519 0 0 1-1.108-.459.91.91 0 0 1-.197-.816c.117-.383.375-.706.72-.905l-.116-.436a.351.351 0 1 1 .679-.182l.085.317c.202-.069.412-.114.625-.135a.358.358 0 0 1 .057.715 2.17 2.17 0 0 0-.5.098l.292 1.093c.42-.011.827.152 1.124.451a.914.914 0 0 1 .197.817c-.116.392-.379.723-.733.926l.135.504a.352.352 0 1 1-.678.182l-.1-.375-.103.027c-.168.045-.34.075-.514.087a.358.358 0 0 1-.385-.33.356.356 0 0 1 .328-.384c.165-.013.329-.045.487-.095l-.295-1.1zm.734.026l.02-.005.197.732a.73.73 0 0 0 .247-.35.206.206 0 0 0-.052-.195.732.732 0 0 0-.412-.182zm-1.356-1.14a.205.205 0 0 0 .045.195.703.703 0 0 0 .38.183l-.192-.715a.698.698 0 0 0-.233.336z"/>
        <g fill="#263238">
            <path d="M22.301 6.306l-4.977-2.874a1.527 1.527 0 0 0-2.092.545l-1.72 2.98a1.527 1.527 0 0 0 .574 2.084l4.977 2.873a1.527 1.527 0 0 0 2.092-.545l1.72-2.98a1.527 1.527 0 0 0-.574-2.083zm-5.28-2.348l4.977 2.874a.913.913 0 0 1 .344 1.25l-.152.263-6.576-3.797.152-.263a.913.913 0 0 1 1.255-.327zm2.346 7.43L14.39 8.515a.913.913 0 0 1-.345-1.25l1.265-2.191 6.577 3.797-1.265 2.19a.913.913 0 0 1-1.255.327z"/>
            <path d="M15.464 6.798l1.706.985a.3.3 0 0 0 .419-.109.3.3 0 0 0-.115-.416l-1.707-.986a.3.3 0 0 0-.418.11.3.3 0 0 0 .115.416zM19.009 9.546L15.16 7.324a.3.3 0 0 0-.418.11.3.3 0 0 0 .115.416l3.848 2.222a.3.3 0 0 0 .418-.11.3.3 0 0 0-.114-.416z"/>
        </g>
    </g>
</svg>
