<svg xmlns="http://www.w3.org/2000/svg" xmlns:xlink="http://www.w3.org/1999/xlink" width="204" height="250" viewBox="0 0 204 250">
    <defs>
        <path id="a" d="M0 0h204v250H0z"/>
    </defs>
    <g fill="none" fill-rule="evenodd">
        <mask id="b" fill="#fff">
            <use xlink:href="#a"/>
        </mask>
        <use fill="#EAEAEA" xlink:href="#a"/>
        <g mask="url(#b)">
            <path fill="#FFF" d="M81.593 61.017c-1.144.16-2.156 1.043-2.468 2.156L74 81.013H59.688c-1.465.152-2.696 1.527-2.688 3v51.984c0 1.57 1.43 3 3 3h64c1.57 0 3-1.43 3-3v-1.75l2.188.625c1.523.434 3.3-.566 3.718-2.094l14-50.984c.414-1.52-.601-3.28-2.125-3.687l-62-16.992c-.382-.11-.789-.14-1.187-.094v-.004zm2.47 6.656l56.25 15.402-12.407 45.176-.906-.25V84.013c0-1.57-1.43-3-3-3H80.25l3.812-13.34zM63 87.013h58v36.082l-10.75-12.09a3.038 3.038 0 0 0-2.406-1c-.41.02-.82.13-1.188.313l-19.219 9.59-7.218-7.934a3.046 3.046 0 0 0-2.407-.969 2.98 2.98 0 0 0-1.156.313L63 118.13V87.013zm27 6c-4.933 0-9 4.063-9 8.996 0 4.934 4.067 8.996 9 8.996 4.934 0 9-4.062 9-8.996 0-4.933-4.066-8.996-9-8.996zm0 6c1.692 0 3 1.309 3 3 0 1.692-1.308 3-3 3-1.691 0-3-1.308-3-3 0-1.691 1.309-3 3-3zm17.281 17.684l13.72 15.434v.875H99.343l-7.719-8.496 15.656-7.813zm-29.969 1l13.906 15.31H63v-8.153l14.313-7.157z"/>
            <g fill="#FFF" fill-rule="nonzero">
                <path d="M68.971 165.316a.238.238 0 0 1-.143-.43l.877-.642v-10.407l-.88-.648a.238.238 0 0 1 .143-.43h9.772a.24.24 0 0 1 .24.237v1.722a.238.238 0 0 1-.24.238.235.235 0 0 1-.169-.07l-1.058-1.057h-5.275v4.435h3.33l1.06-1.057a.238.238 0 0 1 .407.169v2.846a.238.238 0 0 1-.238.238.238.238 0 0 1-.17-.069l-1.06-1.058h-3.329v4.91h5.275l1.058-1.056a.238.238 0 1 1 .407.167v1.722a.24.24 0 0 1-.24.238l-9.767.002zM139.817 165.316a.238.238 0 0 1-.14-.43l.873-.639V153.83l-.873-.638a.238.238 0 0 1 .14-.431h4.048a.238.238 0 0 1 .142.43l-.874.639v10.415h5.273l1.06-1.057a.238.238 0 0 1 .406.169v1.722a.238.238 0 0 1-.239.238h-9.816zM61.352 165.471c-3.38 0-7.328-1.688-7.328-6.429 0-3.648 3.174-6.402 7.387-6.402 1.873 0 3.671.62 4.178.809a.24.24 0 0 1 .156.233v1.778a.238.238 0 0 1-.41.165c-.87-.93-2.47-1.923-3.939-1.923-2.738 0-4.308 1.947-4.308 5.342 0 3.395 1.521 5.234 4.308 5.234 2.001 0 2.814-.9 3.918-2.38a.24.24 0 0 1 .265-.085c.1.03.168.122.17.226v1.857a.238.238 0 0 1-.087.19c-1.11.972-2.398 1.385-4.312 1.385M128.621 160.516h3.499l-1.751-4.182-1.748 4.182zm4.902 4.8a.238.238 0 0 1-.205-.115.241.241 0 0 1 0-.235l.376-.722-1.131-2.701h-4.366l-1.13 2.7.069.107.36.601a.236.236 0 0 1 0 .24.24.24 0 0 1-.208.122h-2.41a.238.238 0 0 1-.23-.15.235.235 0 0 1 .06-.262l.716-.659 4.14-9.814-.554-1.337a.238.238 0 0 1 .22-.338h2.457a.238.238 0 0 1 .127.44l-.169.107 4.585 10.946.859.631a.238.238 0 0 1-.142.43l-3.424.009zM115.041 158.782h1.085c.321-.011.64-.049.955-.113l.1-.027c.318-.085.616-.233.875-.437.497-.414.739-1.079.739-2.026 0-1.52-.811-2.344-2.282-2.344h-1.467l-.005 4.947zm-3.22 6.534a.238.238 0 0 1-.224-.169.233.233 0 0 1 .086-.265l.875-.641v-10.404l-.88-.646a.238.238 0 0 1 .14-.431h4.69c4.395 0 5.055 2.18 5.055 3.478 0 1.05-.414 2.458-2.384 3.194l-.26.098 2.617 4.716.867.638a.238.238 0 0 1-.14.429H119.5a.242.242 0 0 1-.208-.124l-2.917-5.26h-1.334v4.315l.877.641c.084.06.12.168.087.266a.238.238 0 0 1-.227.168l-3.957-.003zM95.103 152.929a.237.237 0 0 0-.227-.169h-2.978a.238.238 0 0 0-.14.43l.872.634v7.962l-7.592-8.948a.24.24 0 0 0-.183-.085h-2.714a.238.238 0 0 0-.183.39l1.319 1.577v9.531l-.883.633a.24.24 0 0 0 .14.43h2.979a.24.24 0 0 0 .142-.43l-.872-.633v-7.7l7.264 8.679a.235.235 0 0 0 .182.086h1.675a.24.24 0 0 0 .239-.238v-11.25l.873-.632a.24.24 0 0 0 .085-.267M101.278 165.316a.238.238 0 0 1-.228-.169.236.236 0 0 1 .086-.265l.878-.641v-10.412h-2.921l-1.058 1.057a.238.238 0 0 1-.407-.167v-1.72a.24.24 0 0 1 .24-.239h10.78a.24.24 0 0 1 .24.238v1.72a.24.24 0 0 1-.41.17l-1.058-1.058h-2.922v10.414l.882.641a.24.24 0 0 1 .086.266.242.242 0 0 1-.226.168l-3.962-.003z"/>
            </g>
        </g>
    </g>
</svg>
