<svg xmlns="http://www.w3.org/2000/svg" width="18" height="17" viewBox="0 0 16 15">
    <g fill="none" fill-rule="evenodd">
        <path fill="#4A4A4A" d="M10.564 14.215c0 .212-.108.322-.324.33H1.532a.335.335 0 0 1-.34-.33V6.818C.495 6.553 0 5.892 0 5.124v-.826c0-.055.015-.108.043-.155L2.255.176A.341.341 0 0 1 2.553 0h10.894c.125.001.24.068.298.176l2.212 3.967a.32.32 0 0 1 .043.155v.826c0 .768-.496 1.429-1.191 1.694v2.533c-.057.217-.174.326-.35.326-.175 0-.286-.109-.331-.326V6.942a1.887 1.887 0 0 1-1.532-.775c-.34.47-.9.775-1.532.775a1.887 1.887 0 0 1-1.532-.775c-.34.47-.9.775-1.532.775a1.887 1.887 0 0 1-1.532-.775c-.339.47-.9.775-1.532.775a1.887 1.887 0 0 1-1.532-.775l-1.532.775v6.942h1.362V8.926c0-.183.152-.331.34-.331H6.98c.188 0 .34.148.34.33v4.96h2.921s.324.011.324.33zM2.755.66L.91 3.967h2.245L4.293.66H2.755zm2.256 0L3.878 3.967h2.287L6.59.66H5.01zm2.271 0l-.426 3.306h2.288L8.718.66H7.282zm2.128 0l.425 3.306h2.287L10.99.66H9.41zm2.297 0l1.139 3.306h2.245L13.245.66h-1.538zM.681 4.628v.496c0 .647.525 1.157 1.191 1.157.667 0 1.192-.51 1.192-1.157v-.496H.68zm3.064 0v.496c0 .647.525 1.157 1.191 1.157s1.192-.51 1.192-1.157v-.496H3.745zm3.064 0v.496c0 .647.525 1.157 1.191 1.157s1.192-.51 1.192-1.157v-.496H6.809zm3.063 0v.496c0 .647.526 1.157 1.192 1.157.666 0 1.191-.51 1.191-1.157v-.496H9.872zm3.064 0v.496c0 .647.526 1.157 1.192 1.157.666 0 1.191-.51 1.191-1.157v-.496h-2.383zM3.915 9.256v4.628h2.723V9.256H3.915z"/>
        <g fill="#A6192E" stroke="#A6192E" stroke-width=".1">
            <path d="M11.14 10.118a.204.204 0 0 0-.218.02.19.19 0 0 0-.069.202l1.048 3.655a.19.19 0 0 0 .166.135c.08.008.155-.03.195-.099l.415-.718.716.74a.195.195 0 0 0 .198.051.203.203 0 0 0 .083-.047l.634-.594a.186.186 0 0 0 .01-.266l-.664-.694.829-.237a.197.197 0 0 0 .143-.164.185.185 0 0 0-.098-.187l-3.388-1.797zm2.1 2.108a.198.198 0 0 0-.136.134.184.184 0 0 0 .044.18l.748.783-.348.327-.764-.79a.198.198 0 0 0-.197-.05.201.201 0 0 0-.12.092l-.314.543-.795-2.772 2.562 1.359-.68.194z"/>
            <path d="M10.21 11.95l.19.05.095-.365-.189-.049c-.946-.235-1.565-1.16-1.4-2.093.174-.991 1.152-1.65 2.179-1.47.95.168 1.626.997 1.573 1.926l-.01.189.39.03.01-.189c.063-1.125-.749-2.123-1.898-2.326-1.241-.218-2.418.581-2.628 1.773-.198 1.124.546 2.24 1.689 2.525z"/>
            <path d="M10.889 8.925c.33.059.598.294.704.618l.06.183.363-.124-.06-.183a1.292 1.292 0 0 0-1-.873A1.303 1.303 0 0 0 9.45 9.613c-.09.509.129 1.025.55 1.311l.16.107.212-.323-.16-.107a.923.923 0 0 1-.387-.922.924.924 0 0 1 1.063-.754z"/>
        </g>
    </g>
</svg>
