<svg xmlns="http://www.w3.org/2000/svg" width="30" height="30" viewBox="0 0 30 30">
    <g fill="none" fill-rule="nonzero">
        <path fill="#000" d="M0 0h29.999v29.999H0z"/>
        <g fill="#FFF">
            <path d="M2.37 13.223h2.454v7.494h1.003v-7.494h2.455v-.933H2.37zM12.088 14.907c-.84 0-1.529.386-1.845.946V12.29h-.966v8.426h.966v-3.312c.1-1.09.857-1.625 1.667-1.625 1.062 0 1.46.687 1.46 1.551v3.386h.967v-3.176c0-.88-.093-1.148-.19-1.401-.288-.745-1.077-1.233-2.06-1.233zM20.737 17.9c0-.831-.24-1.554-.692-2.09-.491-.581-1.196-.891-2.039-.9-.792.021-1.466.319-1.947.867-.476.538-.726 1.272-.726 2.123 0 .828.243 1.546.702 2.076.481.556 1.162.857 1.972.878.828-.008 1.524-.3 2.013-.849.198-.224.357-.48.47-.758l-.81-.294a1.887 1.887 0 0 1-.313.497c-.33.373-.8.573-1.36.58-.566-.018-1.004-.213-1.302-.58-.233-.286-.38-.676-.433-1.14h4.445c.012-.136.02-.272.02-.41zm-2.73-.308H16.26c.045-.518.202-.956.464-1.277.305-.373.736-.571 1.281-.59.586.007 1.031.205 1.321.591.235.312.375.75.412 1.278l-1.733-.002z"/>
        </g>
        <path fill="#FFF" d="M21.899 6.505V8.57h1.541v12.148h2.064V6.505z"/>
        <path fill="#DD1A22" d="M21.315 21.814h6.314v1.627h-6.314z"/>
    </g>
</svg>
