<?xml version="1.0" encoding="utf-8"?>
<!-- Svg Vector Icons : http://www.onlinewebfonts.com/icon -->
<!DOCTYPE svg PUBLIC "-//W3C//DTD SVG 1.1//EN" "http://www.w3.org/Graphics/SVG/1.1/DTD/svg11.dtd">
<svg version="1.1" xmlns="http://www.w3.org/2000/svg" xmlns:xlink="http://www.w3.org/1999/xlink" x="0px" y="0px" viewBox="0 0 1000 1000" enable-background="new 0 0 1000 1000" xml:space="preserve">
<metadata> Svg Vector Icons : http://www.onlinewebfonts.com/icon </metadata>
<g><path d="M331.6,178.4c8.2-8.7,18.5-18.5,31.4-17c14.7,0.5,27.3,14.5,26,29.2c-0.1,10.3-7.5,18.6-14.3,25.5c-85.4,85-170.2,170.4-255.6,255.4c276.6-0.3,553.1,0.1,829.7-0.2c12-0.3,26.3,0.2,34.4,10.4c9.9,10.7,8.7,29.4-2.4,38.8c-6.2,6.3-15.5,7.5-23.9,7.9c-279.2,0-558.5,0.1-837.8-0.1c86.4,85.9,172.2,172.3,258.6,258.3c6.4,6.8,12.3,15.6,11.3,25.4c-0.1,14.6-13.9,27.4-28.4,26.4c-13.5,0.1-23-11-31.7-19.7C222.6,712.6,116.3,606.3,10,500C117.2,392.8,224.5,285.7,331.6,178.4z"/></g>
</svg>