<?xml version="1.0" encoding="utf-8"?>
<!-- Svg Vector Icons : http://www.onlinewebfonts.com/icon -->
<!DOCTYPE svg PUBLIC "-//W3C//DTD SVG 1.1//EN" "http://www.w3.org/Graphics/SVG/1.1/DTD/svg11.dtd">
<svg version="1.1" xmlns="http://www.w3.org/2000/svg" xmlns:xlink="http://www.w3.org/1999/xlink" x="0px" y="0px" viewBox="0 0 1000 1000" enable-background="new 0 0 1000 1000" xml:space="preserve">
<metadata> Svg Vector Icons : http://www.onlinewebfonts.com/icon </metadata>
<g><path d="M610.9,187.8c0.2-14.6,13.9-27.5,28.6-26.5c12.8,0,22.1,10.1,30.4,18.5C776.5,286.6,883.3,393.3,990,500C882.8,607.2,775.5,714.4,668.3,821.7c-7.7,8.1-16.9,17.1-28.9,17.1c-14.5,0.8-28.1-11.7-28.5-26.2c-1.1-10.1,5-18.9,11.6-25.8c86.2-86,172-172.4,258.4-258.2c-272.8,0.2-545.6,0.1-818.3,0.1c-14-0.4-29.9,2.5-42-6.5c-12.8-9.6-14.3-30.4-2.7-41.5c9.2-9.9,23.9-9.3,36.3-9.2c275.6,0.2,551.1-0.1,826.7,0.1c-85-84.5-169.5-169.6-254.4-254.2C618.3,209.7,610,199.7,610.9,187.8z"/></g>
</svg>