<svg xmlns="http://www.w3.org/2000/svg" width="16" height="20" viewBox="0 0 16 20">
    <g fill="#C1C1C1" fill-rule="nonzero">
        <path d="M2.29 18.11c.119 1.016 1.05 1.85 2.074 1.85h7.293c1.023 0 1.956-.834 2.073-1.85l1.52-13.103H.772L2.29 18.11zm9.097-11.42a.631.631 0 0 1 .677-.577c.347.03.603.335.575.683l-.89 10.53a.628.628 0 1 1-1.252-.107l.89-10.53zm-4.004.052c0-.347.28-.63.626-.63a.63.63 0 0 1 .628.63v10.531a.628.628 0 1 1-1.254 0V6.742zm-3.428-.629a.63.63 0 0 1 .678.577l.889 10.53a.627.627 0 1 1-1.25.107l-.891-10.53a.635.635 0 0 1 .574-.684zM10.374 1.232c.015-.068.025-.137.025-.213V.967A.971.971 0 0 0 9.433 0H7.259a.97.97 0 0 0-.967.968v.052c0 .076.012.145.026.213l4.056-.001zM14.473 2.098H1.546C.66 2.11.023 2.643.02 3.465v.581H16v-.58c-.005-.823-.642-1.355-1.527-1.368z"/>
    </g>
</svg>
