<?xml version="1.0" encoding="UTF-8" standalone="no"?>
<svg
   xmlns:dc="http://purl.org/dc/elements/1.1/"
   xmlns:cc="http://creativecommons.org/ns#"
   xmlns:rdf="http://www.w3.org/1999/02/22-rdf-syntax-ns#"
   xmlns:svg="http://www.w3.org/2000/svg"
   xmlns="http://www.w3.org/2000/svg"
   height="294.99631"
   width="296.75003"
   id="svg14"
   version="1.1"
   viewBox="0 0 296.75003 294.99631">
  <metadata
     id="metadata18">
    <rdf:RDF>
      <cc:Work
         rdf:about="">
        <dc:format>image/svg+xml</dc:format>
        <dc:type
           rdf:resource="http://purl.org/dc/dcmitype/StillImage" />
      </cc:Work>
    </rdf:RDF>
  </metadata>
  <defs
     id="defs4">
    <style
       id="style2">.cls-1{fill:#7a7979;}</style>
  </defs>
  <title
     id="title6">Badmintion</title>
  <g
     transform="translate(-1.5985726,-2.4863636)"
     data-name="Expan Icon"
     id="Expan_Icon">
    <g
       id="Badmintion">
      <path
         style="fill:#7a7979"
         id="path8"
         d="m 276.48,119.28 c 1.06,-1.2 2.07,-2.41 3,-3.64 a 88.36,88.36 0 0 0 7.12,-10.29 c 0.84,-1.42 1.64,-2.86 2.38,-4.31 a 82.75,82.75 0 0 0 5.21,-12.22 q 0.87,-2.56 1.55,-5.16 a 77.33,77.33 0 0 0 2.59,-18 c 0.05,-2.18 0,-4.35 -0.16,-6.49 a 65.76,65.76 0 0 0 -2.68,-14.65 c -0.2,-0.67 -0.41,-1.32 -0.64,-2 A 58.12,58.12 0 0 0 259,6.21 c -1,-0.36 -2.06,-0.7 -3.09,-1 A 65.86,65.86 0 0 0 241,2.62 C 238.8,2.48 236.6,2.45 234.37,2.53 A 75.79,75.79 0 0 0 217.83,4.9 c -1.74,0.42 -3.46,0.93 -5.18,1.49 a 84.58,84.58 0 0 0 -12.28,5.07 c -1.46,0.73 -2.91,1.52 -4.32,2.36 a 85,85 0 0 0 -10.37,7 c -1.24,1 -2.46,2 -3.67,3 -1.53,1.33 -3,2.73 -4.51,4.19 -1.51,1.46 -2.88,2.95 -4.23,4.46 q -1.59,1.8 -3.05,3.64 A 88.36,88.36 0 0 0 163.1,46.4 c -0.84,1.41 -1.63,2.85 -2.39,4.31 a 85.53,85.53 0 0 0 -5.2,12.22 c -0.59,1.71 -1.1,3.43 -1.55,5.16 a 76.44,76.44 0 0 0 -2.52,16.53 q -0.15,3.34 0,6.63 a 66,66 0 0 0 2.44,14.89 c 0.3,1 0.62,2.11 1,3.15 a 59,59 0 0 0 9.79,17.85 l -68.4,67.7 -25.19,5.16 a 0.42,0.42 0 0 0 -0.12,0 l -0.88,0.17 v 0 a 6,6 0 0 0 -2.36,1.36 l -0.15,0.14 -0.14,0.15 L 3.53,265 a 0.93,0.93 0 0 0 -0.15,0.13 1,1 0 0 0 -0.14,0.15 6,6 0 0 0 0.09,8.34 l 21.86,22.09 a 6,6 0 0 0 8.34,0.17 0.93,0.93 0 0 0 0.15,-0.13 l 0.14,-0.15 63.87,-63.22 a 0.93,0.93 0 0 0 0.15,-0.13 l 0.14,-0.15 a 5.89,5.89 0 0 0 1.38,-2.35 l 0.18,-0.86 a 0.7,0.7 0 0 0 0,-0.14 l 5.56,-26 67.9,-67.2 a 59.14,59.14 0 0 0 17.75,10 c 0.66,0.24 1.32,0.46 2,0.67 a 65.37,65.37 0 0 0 14.62,2.78 c 2.14,0.18 4.32,0.26 6.5,0.23 a 77,77 0 0 0 18.06,-2.39 c 1.73,-0.44 3.46,-0.93 5.17,-1.5 a 85.92,85.92 0 0 0 12.28,-5.07 q 2.19,-1.11 4.33,-2.35 a 87.71,87.71 0 0 0 10.36,-7 c 1.24,-1 2.46,-2 3.67,-3 1.53,-1.33 3,-2.73 4.51,-4.19 1.51,-1.46 2.88,-2.94 4.23,-4.45 z m -5.33,-12.11 -7.3,-7.38 8.73,-8.65 5.42,5.49 a 75.66,75.66 0 0 1 -6.85,10.54 z m 9.09,-15 -4.3,-4.34 8.74,-8.65 0.09,0.08 a 70.87,70.87 0 0 1 -4.53,12.9 z m 6,-21.18 -1.51,1.5 -8.65,-8.74 9.69,-9.59 A 58.34,58.34 0 0 1 286.23,71 Z m -46.47,28.68 8.74,-8.67 8.65,8.74 -8.74,8.65 z m 5.29,12.06 -8.74,8.65 -8.65,-8.74 8.74,-8.64 z m 6.81,-24 8.74,-8.73 8.65,8.74 -8.74,8.65 z m 12.1,-12 8.74,-8.65 8.65,8.74 -8.74,8.65 z m -39.66,39.27 8.65,8.74 -8.74,8.65 -8.65,-8.74 z m 3.48,-27.4 8.74,-8.65 8.65,8.74 -8.74,8.65 z m 5.29,12.06 -8.74,8.65 -8.64,-8.74 8.73,-8.64 z m 6.81,-24 8.74,-8.65 8.65,8.74 -8.74,8.65 z m 12.1,-12 8.74,-8.66 8.65,8.74 -8.74,8.65 z m -39.66,39.25 8.65,8.74 -8.74,8.65 -8.64,-8.74 z m 60.41,-42.49 -8.65,-8.74 15.09,-14.93 a 47.83,47.83 0 0 1 5.33,12 z m 3.71,-27.63 -15.68,15.49 -8.65,-8.74 15.58,-15.42 a 46.33,46.33 0 0 1 5,4.39 47.3,47.3 0 0 1 3.75,4.24 z m -60.63,42.68 8.74,-8.65 8.65,8.74 -8.74,8.65 z m 5.29,12.06 -8.74,8.65 -8.65,-8.73 8.74,-8.65 z m 6.81,-24 8.74,-8.65 8.65,8.74 -8.74,8.65 z m 12.1,-12 8.74,-8.65 8.65,8.74 -8.74,8.65 z m -39.66,39.24 8.64,8.74 -8.74,8.65 -8.65,-8.74 z m 3.48,-27.4 8.74,-8.65 8.65,8.74 -8.74,8.65 z m 5.29,12.07 -8.74,8.64 -8.65,-8.73 8.74,-8.65 z m 6.81,-24 8.74,-8.64 8.65,8.73 -8.74,8.65 z m 12.1,-12 8.74,-8.65 8.65,8.74 -8.74,8.65 z m -39.66,39.23 8.62,8.74 -8.74,8.65 -8.65,-8.74 z m 60.41,-42.49 -8.65,-8.74 11.35,-11.23 a 48.92,48.92 0 0 1 12.22,5.21 z M 246,15 l -9.16,9.07 -8.65,-8.74 0.58,-0.58 A 59.41,59.41 0 0 1 246,15 Z m -54.13,36.27 8.74,-8.65 8.65,8.74 -8.74,8.64 z m 5.29,12.07 -8.74,8.66 -8.65,-8.73 8.74,-8.65 z m 6.84,-24.05 8.74,-8.64 8.64,8.73 -8.76,8.62 z m 12.1,-12 8.73,-8.65 8.65,8.74 -8.73,8.65 z m -39.69,39.28 8.65,8.74 -8.74,8.69 -8.65,-8.74 z m 44,-50.18 -7.67,7.61 -3.58,-3.61 a 69.9,69.9 0 0 1 11.23,-4 z m -15.72,6.14 4.71,4.75 -8.74,8.65 -6.58,-6.64 a 75.81,75.81 0 0 1 10.59,-6.76 z m -18.87,13.89 c 1.47,-1.46 3,-2.85 4.53,-4.16 l 6.93,7 -8.74,8.65 -6.93,-7 c 1.33,-1.53 2.74,-3.04 4.21,-4.49 z m -7.22,8.17 6.58,6.65 -8.74,8.65 -4.71,-4.76 a 75.74,75.74 0 0 1 6.87,-10.54 z m -9.1,15 3.58,3.61 -7.65,7.57 A 71.57,71.57 0 0 1 169.5,59.6 Z m -5.78,19.53 0.59,-0.58 8.69,8.75 -9.17,9.07 a 59.17,59.17 0 0 1 -0.11,-17.23 z m 12.56,11.52 8.65,8.74 -14.93,14.77 a 48.72,48.72 0 0 1 -5.09,-12.27 z m -3.61,27.52 15.59,-15.42 8.65,8.74 -15.69,15.52 a 46.55,46.55 0 0 1 -8.55,-8.84 z m -143.18,165.12 -13.65,-13.8 45,-44.56 13.65,13.8 z m 58.78,-58.18 -5.36,5.3 -13.65,-13.8 5.36,-5.3 17.38,-3.52 z m 112,-110.25 8.65,8.74 -11.76,11.64 a 48.21,48.21 0 0 1 -12,-5.45 z m 2.29,21.69 9.69,-9.59 8.65,8.74 -1.51,1.49 a 58.26,58.26 0 0 1 -16.87,-0.64 z m 25.11,-0.74 -0.08,-0.08 8.74,-8.65 4.29,4.34 a 70.88,70.88 0 0 1 -12.99,4.39 z m 17.45,-6.57 -5.43,-5.49 8.73,-8.65 7.31,7.38 a 75.81,75.81 0 0 1 -10.65,6.76 z m 6.67,-17.46 8.73,-8.65 7.66,7.73 c -1.33,1.53 -2.74,3 -4.21,4.49 -1.47,1.49 -3,2.85 -4.53,4.16 z"
         class="cls-1" />
      <path
         style="fill:#7a7979"
         id="path10"
         d="m 207.74,161.29 a 0.3,0.3 0 0 0 0,-0.1 l -4.31,-10.09 c 0,0 0,0 0,0 l -0.13,-0.3 a 2.58,2.58 0 0 0 -0.6,-0.75 2.37,2.37 0 0 0 -1.52,-0.54 2.31,2.31 0 0 0 -0.95,0.2 2.22,2.22 0 0 0 -0.37,0.21 v 0 l -7.22,4 -4.64,-3.46 a 2.32,2.32 0 0 0 -1.51,-0.54 2.42,2.42 0 0 0 -1.33,0.4 l -0.18,0.14 -4.56,3.44 -7.23,-4 v 0 l -0.28,-0.16 a 2.36,2.36 0 0 0 -3.1,1 2,2 0 0 0 -0.21,0.5 l -4.22,9.87 v 0 l -0.12,0.28 a 1.93,1.93 0 0 0 -0.12,0.67 2.22,2.22 0 0 0 0.05,0.45 l 0.11,0.34 v 0 l 11.7,36.27 c -0.4,1.74 -1.24,6.74 1.38,10.26 1.71,2.3 4.45,3.47 8.13,3.47 3.68,0 6.42,-1.17 8.14,-3.47 2.62,-3.52 1.77,-8.52 1.37,-10.26 l 11.69,-36.27 a 2,2 0 0 0 0.13,-0.41 v 0 a 1.9,1.9 0 0 0 0,-0.41 2,2 0 0 0 -0.1,-0.74 z m -23.11,28.42 -0.5,-6.36 H 189 l -0.5,6.36 z M 176,183.35 h 5.87 l 0.52,6.36 h -4.34 z m 9.2,13.66 -0.44,-5.53 h 3.56 L 187.9,197 Z m 5.33,-7.3 0.5,-6.36 h 6 l -2,6.36 z m -4.53,-35.1 0.54,-0.41 0.55,0.41 3.91,3 -1.85,23.72 H 184 l -1.87,-23.75 z m -13.4,-0.47 0.17,-0.06 7.07,3.93 1.9,23.28 h -6.36 l -6.18,-19.18 z m 6.06,37.34 h 3.92 L 183,197 h -2.59 z m 12.89,15.58 c -0.94,1.26 -2.62,1.89 -5,1.89 -2.38,0 -4.06,-0.63 -5,-1.89 -1.26,-1.69 -1.17,-4.39 -0.89,-6.16 h 11.8 c 0.24,1.77 0.33,4.47 -0.94,6.16 z M 192.61,197 H 190 l 0.44,-5.53 h 4 z m 5.06,-15.72 h -6.46 l 1.85,-23.19 7.23,-4 0.17,0.06 3.4,8 z"
         class="cls-1" />
    </g>
  </g>
</svg>
