<svg xmlns="http://www.w3.org/2000/svg" viewBox="0 0 300 300"><defs><style>.cls-3{fill:#none;stroke:#7A7979;}</style></defs><title>BeforeLogin</title><g id="Expan_Icon" data-name="Expan Icon"><g id="BeforLogin"><path class="cls-3" d="M150,135.41A53.32,53.32,0,1,1,203.32,82.1,53.37,53.37,0,0,1,150,135.41Zm0-96.63A43.32,43.32,0,1,0,193.32,82.1,43.37,43.37,0,0,0,150,38.78Z"/><path class="cls-3" d="M277.73,271.22H22.27v-5c0-33.76,13.08-62.17,37.81-82.17,22.77-18.42,54.7-28.56,89.92-28.56s67.15,10.14,89.92,28.56c24.74,20,37.81,48.41,37.81,82.17Zm-245.35-10H267.62c-2.77-66.07-60.45-95.73-117.62-95.73S35.15,195.15,32.38,261.22Z"/></g></g></svg>