<svg xmlns="http://www.w3.org/2000/svg" viewBox="0 0 300 300"><defs><style>.cls-1{fill:#7a7979;}</style></defs><title>ClickZoomOut</title><g id="Expan_Icon" data-name="Expan Icon"><g id="ClickZoomOut"><path class="cls-1" d="M255,247.58l-.06-.08-.83-.95-.06-.06L212.59,199a97.56,97.56,0,1,0-14.31,14l40.66,46.52.06.08.84,1,0,.05A10,10,0,0,0,255,247.58ZM185.11,198a77.58,77.58,0,1,1,14.11-14.25A77,77,0,0,1,185.11,198Z"/><path class="cls-1" d="M171.34,126.38H104a8.67,8.67,0,0,0-.66,17.31c.21,0,.44,0,.66,0s.44,0,.66,0H129l.84,0,16.47,0h24.33c.23,0,.45,0,.68,0s.44,0,.66,0a8.67,8.67,0,0,0-.66-17.31Z"/></g></g></svg>