<?xml version="1.0" encoding="utf-8"?>
<!-- Svg Vector Icons : http://www.onlinewebfonts.com/icon -->
<!DOCTYPE svg PUBLIC "-//W3C//DTD SVG 1.1//EN" "http://www.w3.org/Graphics/SVG/1.1/DTD/svg11.dtd">
<svg version="1.1" xmlns="http://www.w3.org/2000/svg" xmlns:xlink="http://www.w3.org/1999/xlink" x="0px" y="0px" viewBox="0 0 1000 1000" enable-background="new 0 0 1000 1000" xml:space="preserve">
<metadata> Svg Vector Icons : http://www.onlinewebfonts.com/icon </metadata>
<g><path d="M543.3,500L981,62.3c12-12,12-31.3,0-43.3c-12-12-31.3-12-43.3,0L500,456.7L62.3,19C50.3,7,30.9,7,19,19S7,50.3,19,62.3L456.7,500L19,937.7C7,949.7,7,969,19,981c6,6,13.9,9,21.7,9c7.9,0,15.7-3,21.7-9L500,543.3L937.7,981c6,6,13.9,9,21.7,9c7.9,0,15.7-3,21.7-9c12-12,12-31.3,0-43.3L543.3,500L543.3,500z"/></g>
</svg>