<?xml version="1.0" encoding="utf-8"?>
<!-- Generator: Adobe Illustrator 23.1.0, SVG Export Plug-In . SVG Version: 6.00 Build 0)  -->
<svg version="1.1" xmlns="http://www.w3.org/2000/svg" xmlns:xlink="http://www.w3.org/1999/xlink" x="0px" y="0px"
	 viewBox="0 0 1250 1250" style="enable-background:new 0 0 1250 1250;" xml:space="preserve">
<style type="text/css">
	.st0{display:none;}
	.st1{display:inline;}
	.st2{fill:none;stroke:#13273F;stroke-width:80;stroke-miterlimit:10;}
	.st3{fill:none;stroke:#78E723;stroke-width:80;stroke-miterlimit:10;}
	.st4{fill:#78E723;}
</style>

<g id="Layer_3">
	<circle class="st3" cx="627.7" cy="620.4" r="508.4"/>
	<path class="st4" d="M471.7,602.3l155.3,155.3c20.6,20.6,20.6,53.9,0,74.5l0,0c-20.6,20.6-53.9,20.6-74.5,0L397.1,676.8
		c-20.6-20.6-20.6-53.9,0-74.5l0,0C417.7,581.7,451.1,581.7,471.7,602.3z"/>
	<path class="st4" d="M866.5,429.8L638.1,825.5c-14.6,25.2-46.8,33.8-72,19.3l0,0c-25.2-14.6-33.8-46.8-19.3-72l228.4-395.7
		c14.6-25.2,46.8-33.8,72-19.3l0,0C872.4,372.4,881.1,404.6,866.5,429.8z"/>
</g>
</svg>
