<svg xmlns="http://www.w3.org/2000/svg" viewBox="0 0 512 512"><defs><style>.cls-1{fill:#939393;}</style></defs><title>Asset 1</title><g id="Layer_2" data-name="Layer 2"><g id="Layer_1-2" data-name="Layer 1"><path class="cls-1" d="M448,64H426.67V21.33A21.35,21.35,0,0,0,405.33,0H384a21.34,21.34,0,0,0-21.33,21.33V64H149.33V21.33A21.34,21.34,0,0,0,128,0H106.67A21.35,21.35,0,0,0,85.33,21.33V64H64A64.07,64.07,0,0,0,0,128V448a64.07,64.07,0,0,0,64,64H448a64.07,64.07,0,0,0,64-64V128A64.07,64.07,0,0,0,448,64Zm21.33,384A21.37,21.37,0,0,1,448,469.33H64A21.37,21.37,0,0,1,42.67,448V214.19H469.33Z"/><rect class="cls-1" x="366.57" y="369.57" width="83.43" height="83.43"/></g></g></svg>