<svg xmlns="http://www.w3.org/2000/svg" viewBox="0 0 300 300"><defs><style>.cls-1{fill:#78e61e;}</style></defs><title>DeliveryAvailable</title><g id="Expan_Icon" data-name="Expan Icon"><path id="DeliveryAvailable" class="cls-1" d="M150,3.08C69,3.08,3.08,69,3.08,150S69,296.92,150,296.92,296.92,231,296.92,150,231,3.08,150,3.08Zm88.47,103.18L113.87,210.07a7.5,7.5,0,0,1-9.65,0l-42.79-36.3a7.51,7.51,0,0,1-.86-10.57h0a7.5,7.5,0,0,1,10.57-.87l33.17,28.15a7.5,7.5,0,0,0,9.65,0L228.87,94.73a7.5,7.5,0,0,1,10.56,1h0A7.51,7.51,0,0,1,238.47,106.26Z"/></g></svg>