<svg xmlns="http://www.w3.org/2000/svg" xmlns:xlink="http://www.w3.org/1999/xlink" viewBox="0 0 300 300"><defs><style>.cls-1{fill:none;}.cls-2{clip-path:url(#clip-path);}.cls-3{fill:#c1131d;}.cls-4{fill:#fff;}.cls-5{fill:#012676;}</style><clipPath id="clip-path"><circle class="cls-1" cx="150" cy="150" r="150"/></clipPath></defs><title>EngLanguage</title><g id="Expan_Icon" data-name="Expan Icon"><g class="cls-2"><g id="EngLanguage"><path class="cls-3" d="M-31.66,28.79H-2.07q52.8,38.1,105.73,76.05c2.07,1.46,4.08,3,6.18,4.4-9.36.12-18.73-.06-28.09.09Q25.05,69.15-31.66,29Z"/><path class="cls-3" d="M128.69-41.21h42.92c0,17.2,0,104.4,0,121.6,0,15.66,0,31.31.05,47q80-.1,160,0v45.38q-64.8,0-129.6,0c-10.15,0-20.3,0-30.44,0,0,32.83,0,125.66,0,158.48h-42.9c0-32.83,0-125.66,0-158.49q-80.17-.12-160.36,0V127.33c53.45,0,106.9,0,160.35,0C128.7,94.45,128.72-8.38,128.69-41.21Z"/><path class="cls-3" d="M302.16,28.79h29.5V29q-56.4,40-112.9,80a2.26,2.26,0,0,1-1.46.33c-9-.09-18.07.06-27.09-.07Q246.22,69.06,302.16,28.79Z"/><path class="cls-3" d="M81.16,191.08a2.77,2.77,0,0,1,1.86-.36c8.94,0,17.88,0,26.82,0Q83.2,209.81,56.63,229c-19.54,14.12-39.18,28.1-58.7,42.25H-31.66V271Q24.73,231,81.16,191.08Z"/><path class="cls-3" d="M190.16,190.75c9-.07,17.89,0,26.84,0a3.39,3.39,0,0,1,1.64.24q56.51,40,113,80.07v.19H302.07c-11.76-8.55-23.61-17-35.39-25.5Q228.4,218.27,190.16,190.75Z"/><path class="cls-4" d="M-2.07,28.79H11.55q52.07,37.14,104.1,74.34c0-24.78-.09-89.56-.3-114.34h13.34c0,32.83,0,105.66,0,138.5-53.45.08-106.9,0-160.35,0V112.69q37.65-.06,75.32-.29Q6,85.19-31.66,58V29Q25,69.17,81.75,109.33c9.36-.15,18.73,0,28.09-.09-2.1-1.41-4.11-2.94-6.18-4.4Q50.8,66.8-2.07,28.79Z"/><path class="cls-4" d="M171.61-31.21h13c-.24,24.78-.28,109.57-.34,134.36L288.43,28.79h13.73q-56,40.15-112,80.44c9,.13,18.06,0,27.09.07a2.26,2.26,0,0,0,1.46-.33q56.43-40,112.9-80V58c-25,18.19-50.19,36.22-75.23,54.41,25.08.22,50.16.27,75.23.32v14.62q-80,0-160,0c-.1-15.65,0-31.3-.05-47C171.61,63.19,171.6-14,171.61-31.21Z"/><path class="cls-4" d="M-31.66,172.69q80.18,0,160.36,0c0,32.83,0,125.66,0,158.49H115.35c.21-24.78.31-109.56.29-134.34q-52,37.19-104,74.34H-2.07c19.52-14.15,39.16-28.13,58.7-42.25q26.62-19.1,53.21-38.23c-8.94,0-17.88,0-26.82,0a2.77,2.77,0,0,0-1.86.36q-56.4,40-112.82,79.95V242q37.61-27.27,75.3-54.43-37.65-.27-75.3-.3Z"/><path class="cls-4" d="M171.62,172.73c10.14-.09,20.29,0,30.44,0q64.8,0,129.6,0v14.62q-37.64.08-75.27.3c25.07,18.18,50.22,36.24,75.27,54.43v29q-56.51-40-113-80.07a3.39,3.39,0,0,0-1.64-.24c-8.95,0-17.89,0-26.84,0q38.31,27.42,76.52,55c11.78,8.53,23.63,17,35.39,25.5h-13.6q-52.11-37.09-104.15-74.33c.06,24.78.1,99.55.34,124.33H171.59C171.63,288.39,171.58,205.56,171.62,172.73Z"/><path class="cls-5" d="M11.55,28.79l103.8-80c.21,24.78.31,129.56.3,154.34Q63.58,66,11.55,28.79Z"/><path class="cls-5" d="M184.66-51.21l103.77,80L184.32,103.15C184.38,78.36,184.42-26.43,184.66-51.21Z"/><path class="cls-5" d="M-31.66,58Q6,85.22,43.66,112.4q-37.66.24-75.32.29Z"/><path class="cls-5" d="M256.43,112.37c25-18.19,50.2-36.22,75.23-54.41v54.73C306.59,112.64,281.51,112.59,256.43,112.37Z"/><path class="cls-5" d="M-31.66,187.31q37.65.06,75.3.3Q6,214.83-31.66,242Z"/><path class="cls-5" d="M256.39,187.61q37.64-.27,75.27-.3V242C306.61,223.85,281.46,205.79,256.39,187.61Z"/><path class="cls-5" d="M11.59,271.21q52-37.2,104.05-74.34c0,24.78-.08,129.56-.29,154.34Z"/><path class="cls-5" d="M184.32,196.88q52.13,37.1,104.15,74.33l-103.81,70C184.42,316.43,184.38,221.66,184.32,196.88Z"/></g></g></g></svg>