<?xml version="1.0" encoding="UTF-8" standalone="no"?>
<svg
   xmlns:dc="http://purl.org/dc/elements/1.1/"
   xmlns:cc="http://creativecommons.org/ns#"
   xmlns:rdf="http://www.w3.org/1999/02/22-rdf-syntax-ns#"
   xmlns:svg="http://www.w3.org/2000/svg"
   xmlns="http://www.w3.org/2000/svg"
   height="279.76001"
   width="279.76001"
   id="svg12"
   version="1.1"
   viewBox="0 0 279.76001 279.76001">
  <metadata
     id="metadata16">
    <rdf:RDF>
      <cc:Work
         rdf:about="">
        <dc:format>image/svg+xml</dc:format>
        <dc:type
           rdf:resource="http://purl.org/dc/dcmitype/StillImage" />
      </cc:Work>
    </rdf:RDF>
  </metadata>
  <defs
     id="defs4">
    <style
       id="style2">.cls-1{fill:#7a7979;}</style>
  </defs>
  <title
     id="title6">Football</title>
  <g
     transform="translate(-10.12,-10.12)"
     data-name="Expan Icon"
     id="Expan_Icon">
    <g
       id="Football">
      <path
         style="fill:#7a7979"
         id="path8"
         d="M 150,10.12 A 139.88,139.88 0 1 0 289.88,150 139.87,139.87 0 0 0 150,10.12 Z M 155,50.44 203.62,31 a 129.37,129.37 0 0 1 16,8.61 l 0.13,0.08 a 131.49,131.49 0 0 1 14.39,10.55 l 0.39,0.34 c 2.05,1.74 4,3.54 6,5.4 l 0.74,0.71 q 3,3 5.88,6.11 l 0.47,0.55 c 1.66,1.86 3.26,3.79 4.82,5.75 l 1.11,1.4 c 1.68,2.18 3.31,4.4 4.85,6.69 L 248.71,118.4 201,134.32 155,97.55 Z M 46.51,70.54 c 0.36,-0.47 0.73,-0.93 1.1,-1.4 q 2.31,-2.91 4.76,-5.7 c 0.18,-0.19 0.35,-0.39 0.52,-0.59 1.89,-2.1 3.84,-4.13 5.86,-6.11 0.23,-0.22 0.46,-0.46 0.71,-0.67 q 2.86,-2.77 5.91,-5.37 l 0.46,-0.39 A 132.7,132.7 0 0 1 80.09,39.82 L 80.27,39.7 A 131.51,131.51 0 0 1 96.15,31.1 L 145,50.44 v 47.1 L 99.06,134.3 51.36,118.42 41.67,77.21 q 2.32,-3.42 4.84,-6.67 z m -5.62,151 q -2.05,-3.13 -3.93,-6.39 l -0.3,-0.52 c -1.25,-2.16 -2.42,-4.35 -3.53,-6.58 v -0.07 A 128.5,128.5 0 0 1 27,193.53 v 0 q -1.24,-3.51 -2.29,-7.13 l -0.25,-0.88 q -1,-3.39 -1.74,-6.85 c 0,-0.22 -0.1,-0.43 -0.15,-0.66 A 131.54,131.54 0 0 1 20.11,162.22 L 48.53,128 l 47.36,15.79 13.75,55 -22.59,30.05 z m 140.16,55.26 c -2.33,0.57 -4.72,1.07 -7.12,1.52 -0.33,0.07 -0.67,0.12 -1,0.18 -2,0.37 -4.1,0.68 -6.16,0.93 l -1.65,0.22 c -1.91,0.22 -3.85,0.39 -5.79,0.53 l -1.82,0.14 c -2.48,0.15 -5,0.24 -7.5,0.24 q -3.47,0 -6.88,-0.18 c -0.27,0 -0.54,-0.05 -0.81,-0.07 q -3,-0.18 -6.07,-0.46 l -0.23,-0.05 q -6.62,-0.72 -13.15,-2.09 l -27.59,-43.19 22.24,-29.64 h 65 l 22.6,29.84 z m 96.46,-98.8 -0.15,0.66 q -0.78,3.45 -1.74,6.84 l -0.25,0.89 c -0.7,2.4 -1.45,4.78 -2.29,7.12 v 0 A 129.14,129.14 0 0 1 266.94,208 v 0.07 c -1.11,2.23 -2.29,4.43 -3.52,6.58 l -0.31,0.53 q -1.86,3.26 -3.92,6.38 l -46,7.25 -22.74,-30 13.74,-55 L 251.5,128 280,162.17 A 127.67,127.67 0 0 1 277.51,178 Z m 0,0"
         class="cls-1" />
    </g>
  </g>
</svg>
