<?xml version="1.0" encoding="UTF-8" standalone="no"?>
<svg
   xmlns:dc="http://purl.org/dc/elements/1.1/"
   xmlns:cc="http://creativecommons.org/ns#"
   xmlns:rdf="http://www.w3.org/1999/02/22-rdf-syntax-ns#"
   xmlns:svg="http://www.w3.org/2000/svg"
   xmlns="http://www.w3.org/2000/svg"
   height="292.77237"
   width="120.16312"
   id="svg14"
   version="1.1"
   viewBox="0 0 120.16312 292.77237">
  <metadata
     id="metadata18">
    <rdf:RDF>
      <cc:Work
         rdf:about="">
        <dc:format>image/svg+xml</dc:format>
        <dc:type
           rdf:resource="http://purl.org/dc/dcmitype/StillImage" />
      </cc:Work>
    </rdf:RDF>
  </metadata>
  <defs
     id="defs4">
    <style
       id="style2">.cls-1{fill:#7a7979;}</style>
  </defs>
  <title
     id="title6">Golf</title>
  <g
     transform="translate(-89.89,-3.6176391)"
     data-name="Expan Icon"
     id="Expan_Icon">
    <g
       id="Golf">
      <path
         style="fill:#7a7979"
         id="path8"
         d="m 209.82,89.87 c -3.6,-17.41 -16.21,-9 -20.41,-5.4 -3.66,3.14 -17.44,13.11 -16.72,18 h -0.45 v 18.38 q -4.12,0.11 -8.05,0.5 V 64.19 c 8.88,0.3 36,0 33,-14.54 -3.6,-17.41 -16.21,-9 -20.41,-5.41 -3.66,3.14 -17.44,13.12 -16.71,18 h -0.46 V 121.9 A 113.67,113.67 0 0 0 145,125 V 26.83 h -0.46 c 0.73,-4.89 -13.05,-14.87 -16.71,-18 -4.2,-3.6 -16.81,-12 -20.41,5.41 -3,14.59 24.14,14.84 33,14.54 v 97.61 c -19.88,6.48 -32,16.32 -32,16.32 v 17.22 c 0,0 33.14,-27 80,-21 v 14.41 c -46.83,-6 -80,21 -80,21 v 8 a 26.38,26.38 0 0 0 -7.21,1 c -6.86,2 -11.32,6.51 -11.32,11.54 v 45.91 c 0,4.82 4.09,9.22 10.53,11.3 a 26,26 0 0 0 8,1.22 v 4 h 80 V 121.69 a 107.37,107.37 0 0 0 -11.65,-0.84 v -16.43 c 8.91,0.3 36.07,0.04 33.05,-14.55 z"
         class="cls-1" />
      <path
         style="fill:#7a7979"
         id="path10"
         d="m 108.48,274.78 a 21.67,21.67 0 0 0 21.61,21.61 h 36.74 a 21.68,21.68 0 0 0 21.62,-21.61 v -4.2 h -80 z"
         class="cls-1" />
    </g>
  </g>
</svg>
