<svg xmlns="http://www.w3.org/2000/svg" viewBox="0 0 300 300"><defs><style>.cls-1{fill:#7a7979;}</style></defs><title>HeartGray</title><g id="Expan_Icon" data-name="Expan Icon"><g id="HeartGray"><path class="cls-1" d="M149.9,273.67l-3.56-3.59c-4.53-4.6-111.29-112.86-123.92-147.28A70.18,70.18,0,0,1,150,65.2,70.18,70.18,0,0,1,277.55,123C264.88,157.36,158,265.49,153.45,270.08ZM88.25,38.45a60.19,60.19,0,0,0-56.44,80.91C42.47,148.41,131,240,149.9,259.42c19-19.38,107.57-110.88,118.26-139.92a60.23,60.23,0,0,0-35.68-77.26h0a60.25,60.25,0,0,0-77.27,35.68c-.15.4-.29.84-.43,1.28L150,94.31,145.24,79.2c-.14-.44-.28-.88-.43-1.29A60.3,60.3,0,0,0,88.25,38.45Z"/></g></g></svg>