<?xml version="1.0" encoding="UTF-8" standalone="no"?>
<svg
   xmlns:dc="http://purl.org/dc/elements/1.1/"
   xmlns:cc="http://creativecommons.org/ns#"
   xmlns:rdf="http://www.w3.org/1999/02/22-rdf-syntax-ns#"
   xmlns:svg="http://www.w3.org/2000/svg"
   xmlns="http://www.w3.org/2000/svg"
   style="fill:#000000"
   id="svg4"
   version="1.1"
   rotate="0"
   viewBox="0 0 832 832"
   height="58.5"
   width="58.5"
   class="sc-bdVaJa fUuvxv">
  <metadata
     id="metadata10">
    <rdf:RDF>
      <cc:Work
         rdf:about="">
        <dc:format>image/svg+xml</dc:format>
        <dc:type
           rdf:resource="http://purl.org/dc/dcmitype/StillImage" />
      </cc:Work>
    </rdf:RDF>
  </metadata>
  <defs
     id="defs8" />
  <path
     id="path2"
     d="M 288,458.8 H 667.4 L 580.2,548.2 640,608 832,416 640,224 l -62,59.8 89.4,89.4 H 288 Z M 415.4,746.6 C 327.2,746.6 244.4,712.2 182,649.8 119.6,587.4 85.4,504.4 85.4,416 c 0,-88.2 34.4,-171.4 96.6,-233.8 62.4,-62.4 145.2,-96.8 233.4,-96.8 88,0 170.6,34.2 233,96.4 L 709,121.2 C 692,104.4 673.4,88.8 653.6,74.8 583.4,26 501.2,0 415.4,0 186.4,0 0,186.6 0,416 c 0,229.4 186.4,416 415.4,416 85.8,0 168,-26 238,-75 20,-14 38.4,-29.4 55.4,-46.4 l -60.4,-60.4 c -62.2,62.2 -145,96.4 -233,96.4 z m 384.608,-328.906 -1.697,-1.697 1.697,-1.697 1.697,1.697 z" />
</svg>
