<svg xmlns="http://www.w3.org/2000/svg" viewBox="0 0 300 300"><defs><style>.cls-1{fill:#78E723;}</style></defs><title>NeedHelp</title><g id="Expan_Icon" data-name="Expan Icon"><g id="NeedHelp"><path class="cls-1" d="M150,273.18A123.18,123.18,0,1,1,273.18,150,123.32,123.32,0,0,1,150,273.18Zm0-236.36A113.18,113.18,0,1,0,263.18,150,113.31,113.31,0,0,0,150,36.82Z"/><path class="cls-1" d="M196.13,110a51.29,51.29,0,0,1-10,30.59l-9.21,11.19q-4.6,5.6-9.38,11.18A45.54,45.54,0,0,0,161.1,177a45,45,0,0,0-1,15.54H139.89q-1-20.38,8.05-35l17.6-21.87q9.38-11.85,9.38-25.33,0-25.65-25.83-25.65-25.65,0-25.65,34.7H103.87a66.27,66.27,0,0,1,3-20.4,43.27,43.27,0,0,1,8.71-15.7,39.37,39.37,0,0,1,14.31-10.12,50.81,50.81,0,0,1,19.9-3.61,56.81,56.81,0,0,1,18.75,3,44.32,44.32,0,0,1,14.72,8.3,36.76,36.76,0,0,1,9.54,12.83A39.32,39.32,0,0,1,196.13,110ZM163.24,217.68a12.83,12.83,0,0,1-25.66,0,12.07,12.07,0,0,1,3.79-9,12.91,12.91,0,0,1,18.09,0A12.1,12.1,0,0,1,163.24,217.68Z"/></g></g></svg>