<?xml version="1.0" encoding="UTF-8" standalone="no"?>
<svg
   xmlns:dc="http://purl.org/dc/elements/1.1/"
   xmlns:cc="http://creativecommons.org/ns#"
   xmlns:rdf="http://www.w3.org/1999/02/22-rdf-syntax-ns#"
   xmlns:svg="http://www.w3.org/2000/svg"
   xmlns="http://www.w3.org/2000/svg"
   height="139.67941"
   width="300.00809"
   id="svg10"
   version="1.1"
   viewBox="0 0 300.00809 139.67941">
  <metadata
     id="metadata14">
    <rdf:RDF>
      <cc:Work
         rdf:about="">
        <dc:format>image/svg+xml</dc:format>
        <dc:type
           rdf:resource="http://purl.org/dc/dcmitype/StillImage" />
      </cc:Work>
    </rdf:RDF>
  </metadata>
  <defs
     id="defs4">
    <style
       id="style2">.cls-1{fill:#7a7979;}</style>
  </defs>
  <title
     id="title6">Running</title>
  <g
     transform="translate(0.00807554,-80.14084)"
     data-name="Expan Icon"
     id="Expan_Icon">
    <path
       style="fill:#7a7979"
       d="m 283,85.71 a 44.73,44.73 0 0 0 -12.31,2 5.05,5.05 0 0 0 -3.48,5 v 13.16 a 55.43,55.43 0 0 1 -32.95,8.88 43.33,43.33 0 0 1 -7.61,-0.35 l -33,-31.23 a 12.67,12.67 0 0 0 -9.08,-3 c -17.91,0 -58.83,20.18 -80.43,32.85 -25.63,15.13 -77.6,23.91 -78.1,24 l -1.06,0.31 C -1.33,148.27 -2,170 1.5,180.36 8.77,217.65 91,219.82 109.67,219.82 h 180.22 a 5,5 0 0 0 5.05,-5 V 187.88 A 21.88,21.88 0 0 0 300,177.19 c 0,-0.26 0,-0.51 0,-0.76 v -75.68 c -0.16,-9.49 -6.56,-15 -17,-15 z m -201.06,48 6.66,12.11 a 5.08,5.08 0 0 0 8.83,-5 L 91.51,130 a 132.72,132.72 0 0 0 12.16,-5.35 l 8.42,12.87 a 5.0462486,5.0462486 0 0 0 8.52,-5.41 l -0.09,-0.14 -8,-12.16 c 3.63,-2.07 7.37,-4.14 11.25,-6.16 l 10.09,14.74 a 5.0461322,5.0461322 0 1 0 8.57,-5.33 l -0.29,-0.43 -9.46,-13.63 c 4.49,-2.22 9,-4.39 13.42,-6.36 l 11.81,17.16 a 5.0436123,5.0436123 0 1 0 8.39,-5.6 0.61,0.61 0 0 0 -0.07,-0.1 L 155.74,99 a 95,95 0 0 1 28.71,-8.32 7.89,7.89 0 0 1 2.17,0 L 206.8,109.6 A 160.07,160.07 0 0 1 127.38,166.31 215.84,215.84 0 0 0 84.45,157 61.88,61.88 0 0 1 49.13,142.78 308.32,308.32 0 0 0 81.92,133.69 Z m -53.7,13.35 c 1.26,0 4.49,-0.8 8.93,-1.71 A 73.34,73.34 0 0 0 84.09,167 c 16.6,0.81 51.62,12 75.68,20.19 h -22.09 c -91.38,0.35 -118.82,-6.87 -127,-11.91 -1.16,-4.5 -2.77,-19.69 17.56,-28.22 z m 256.61,62.62 H 112.09 C 89.9,210 37,206.5 18,189.14 c 15.74,4.19 48.48,8.53 120,8.53 16.75,0 33.65,0 49.7,-0.61 15.13,-0.35 29.41,-0.8 42.17,-1.31 31,-1.16 52.63,-2.42 52.88,-2.47 a 15,15 0 0 0 2.12,0 z m 5,-33.71 c -0.3,1.47 -1.86,7.27 -7.56,7.27 -0.36,0 -18.87,1.11 -46.07,2.22 9.74,-34.61 40.62,-46.07 53.63,-49.34 z m 0,-50.2 c -13.37,3.18 -53.78,16.2 -64.22,60.09 -11.46,0.41 -24.07,0.81 -37.29,1.11 -4.49,-1.71 -23.56,-8.78 -44.95,-15.64 a 171.59,171.59 0 0 0 70.63,-54.64 l 6.61,6.36 a 5.1,5.1 0 0 0 2.73,1.31 A 78.86,78.86 0 0 0 234,125 c 12.11,0 29.11,-2.33 41.37,-13.32 a 5,5 0 0 0 1.67,-3.74 V 96.41 a 30.62,30.62 0 0 1 5.65,-0.61 c 6.91,0 7,3 7.06,5 z"
       class="cls-1"
       id="Running" />
  </g>
</svg>
