<?xml version="1.0" encoding="utf-8"?>
<!-- Generator: Adobe Illustrator 23.1.0, SVG Export Plug-In . SVG Version: 6.00 Build 0)  -->
<svg version="1.1" xmlns="http://www.w3.org/2000/svg" xmlns:xlink="http://www.w3.org/1999/xlink" x="0px" y="0px"
	 viewBox="0 0 1250 1250" style="enable-background:new 0 0 1250 1250;" xml:space="preserve">
<style type="text/css">
	.st0{display:none;}
	.st1{display:inline;}
	.st2{fill:none;stroke:#13273F;stroke-width:80;stroke-miterlimit:10;}
	.st3{fill:#596878;}
	.st4{fill:none;stroke:#596878;stroke-width:80;stroke-miterlimit:10;}
</style>
<g id="Layer_1" class="st0">
	<g>
		
			<image style="display:inline;overflow:visible;enable-background:new    ;" width="103" height="85" xlink:href="3A05FDB6.jpeg"  transform="matrix(15.6235 0 0 15.6235 -244.6706 25)">
		</image>
	</g>
	<g class="st1">
		<path class="st2" d="M837,1012c-70,81-114.8,120-170,120H159c-55.2,0-100-44.8-100-100V313c0-55.2,44.8-100,100-100h528
			c55.2,0,91,53,160,120"/>
		<polyline class="st2" points="929,418 1179,673 924,928 		"/>
		<line class="st2" x1="556" y1="672" x2="1184" y2="672"/>
	</g>
</g>
<g id="Layer_3" class="st0">
	
		<image style="display:inline;overflow:visible;" width="76" height="76" xlink:href="3A05FDBA.jpg"  transform="matrix(16.9015 0 0 16.9015 37.4186 -57.5607)">
	</image>
</g>
<g id="Layer_2">
	<g>
		<path class="st3" d="M466.1,311.2v-21.5h87.1v21.5l-22.7,271.7h-41.1L466.1,311.2z M469.2,634.4h81.6v84.7h-81.6V634.4z"/>
	</g>
	<line class="st4" x1="1180.1" y1="1169.4" x2="789.9" y2="794.2"/>
	<path class="st4" d="M163.8,709.4C121.1,644.1,96.3,566,96.3,482.1C96.3,252.6,282.4,66.4,512,66.4s415.7,186.1,415.7,415.7
		S741.5,897.8,512,897.8c-73.4,0-142.3-19-202.2-52.4"/>
</g>
</svg>
