<svg xmlns="http://www.w3.org/2000/svg" width="41" height="26" viewBox="0 0 41 26">
    <g fill="none" fill-rule="evenodd" transform="matrix(-1 0 0 1 41 0)">
        <path stroke="#4A4A4A" stroke-width="1.309" d="M31.587 9.268a.652.652 0 0 0-.649.656v3.197-.001c0 .363.29.656.649.656h4.46a.648.648 0 0 0 .576-.355.662.662 0 0 0-.048-.68l-2.246-3.198a.645.645 0 0 0-.529-.275h-2.213z"/>
        <path stroke="#4A4A4A" stroke-width="1.527" d="M30.742 21.37c.006-1.86 1.503-3.37 3.353-3.37 1.85 0 3.346 1.51 3.353 3.37h1.033c.893 0 1.638-.755 1.638-1.668l.005-5.975a.356.356 0 0 0 0-.065.45.45 0 0 0-.11-.183l-4.909-6.895a.154.154 0 0 0-.124-.065l-6.717-.005V3.02c0-1.34-.673-2.195-1.728-2.195H2.9c-1.055 0-1.728.855-1.728 2.194v16.593c0 1.078.844 1.758 2.16 1.758h1.515C4.854 19.51 6.35 18 8.2 18c1.85 0 3.346 1.51 3.353 3.37h19.189z"/>
        <ellipse cx="8.2" cy="21.382" stroke="#4A4A4A" stroke-width="1.527" rx="3.353" ry="3.382"/>
        <ellipse cx="34.095" cy="21.382" stroke="#4A4A4A" stroke-width="1.527" rx="3.353" ry="3.382"/>
        <path fill="#4A4A4A" d="M27.448 2.182h1.511v18.764h-1.511z"/>
        <path fill="#78e723" d="M15.14 6.516a1.023 1.023 0 0 0-.658.221.706.706 0 0 0-.273.543c0 .204.1.4.273.543.175.145.412.224.658.22h9.02c.246.004.484-.076.658-.22a.7.7 0 0 0 .273-.543.7.7 0 0 0-.273-.543 1.023 1.023 0 0 0-.658-.22h-9.02zM11.46 10.706a1.021 1.021 0 0 0-.657.219.704.704 0 0 0-.273.545c0 .203.097.4.273.543.174.144.412.223.658.22h13.147c.246.003.483-.076.657-.22a.703.703 0 0 0 .273-.543.704.704 0 0 0-.273-.545 1.021 1.021 0 0 0-.657-.22H11.46z"/>
    </g>
</svg>
