<svg xmlns="http://www.w3.org/2000/svg" viewBox="0 0 300 300"><defs><style>.cls-1{fill:grey;}</style></defs><title>ShoppingBag</title><g id="Expan_Icon" data-name="Expan Icon"><path id="ShppingBag" class="cls-1" d="M208.91,74.35V68A58.91,58.91,0,0,0,91.09,68v6.36H37V242.72a48.25,48.25,0,0,0,48.2,48.2H214.8a48.25,48.25,0,0,0,48.2-48.2V74.35ZM101.09,68a48.91,48.91,0,1,1,97.82,0v6.36H101.09ZM253,242.72a38.23,38.23,0,0,1-38.2,38.2H85.2A38.24,38.24,0,0,1,47,242.72V84.35H91.09v53.4h10V84.35h97.82v53.4h10V84.35H253Z"/></g></svg>