<svg xmlns="http://www.w3.org/2000/svg" viewBox="0 0 300 300"><defs><style>.cls-1{fill:#7a7979;}</style></defs><title>SizeGuide</title><g id="Expan_Icon" data-name="Expan Icon"><path id="SizeGuide" class="cls-1" d="M292.77,110.15H7.23a4.49,4.49,0,0,0-4.5,4.5v70.7a4.49,4.49,0,0,0,4.5,4.5H292.77a4.49,4.49,0,0,0,4.5-4.5v-70.7A4.49,4.49,0,0,0,292.77,110.15Zm-5.5,69.7H12.73v-59.7h6.73v12.71a3,3,0,0,0,6,0V120.15h6.12v12.71a3,3,0,0,0,6,0V120.15h6.13v12.71a3,3,0,0,0,6,0V120.15h6.13v12.71a3,3,0,0,0,6,0V120.15H68v30.24a3,3,0,0,0,6,0V120.15h6.13v12.71a3,3,0,0,0,6,0V120.15h6.12v12.71a3,3,0,0,0,6,0V120.15h6.13v12.71a3,3,0,0,0,6,0V120.15h6.13v12.71a3,3,0,0,0,6,0V120.15h6.12v30.24a3,3,0,0,0,6,0V120.15h6.13v12.71a3,3,0,0,0,6,0V120.15h6.13v12.71a3,3,0,0,0,6,0V120.15H165v12.71a3,3,0,0,0,6,0V120.15h6.13v12.71a3,3,0,0,0,6,0V120.15h6.12v30.29a2.09,2.09,0,0,0,0,.43s0,0,0,0a3.2,3.2,0,0,0,.1.42,2.15,2.15,0,0,0,.1.27,1.47,1.47,0,0,0,.1.22l.12.21a2.43,2.43,0,0,0,.14.2,3,3,0,0,0,.38.42l.22.18a3.37,3.37,0,0,0,.31.21,2,2,0,0,0,.33.16,2.15,2.15,0,0,0,.27.1,1,1,0,0,0,.23.06l.14,0a.78.78,0,0,0,.22,0l.3,0,.31,0,.36-.06a2.79,2.79,0,0,0,1-.41l.11-.08a1.09,1.09,0,0,0,.17-.13,2.57,2.57,0,0,0,.48-.51,2.43,2.43,0,0,0,.14-.2l.12-.21a1.47,1.47,0,0,0,.1-.22,2.15,2.15,0,0,0,.1-.27,3.2,3.2,0,0,0,.1-.42s0,0,0,0a2.09,2.09,0,0,0,0-.43V120.15h6.13v12.71a3,3,0,0,0,6,0V120.15h6.13v12.71a3,3,0,0,0,6,0V120.15h6.12v12.71a3,3,0,0,0,6,0V120.15h6.13v12.71a3,3,0,0,0,6,0V120.15h6.13v30.27a3,3,0,0,0,6,0V120.15H262v12.71a3,3,0,0,0,6,0V120.15h6.13v12.71a3,3,0,0,0,6,0V120.15h7.16Z"/></g></svg>