<svg xmlns="http://www.w3.org/2000/svg" viewBox="0 0 300 300"><defs><style>.cls-1{fill:#4A4A4A;}</style></defs><title>NextDayCollection</title><g id="Expan_Icon" data-name="Expan Icon"><g id="NextDayCollection"><path class="cls-1" d="M230.41,230h-45.9a17,17,0,0,1-17-17V182.79a17,17,0,0,1,17-17h45.9a17,17,0,0,1,17,17V213A17,17,0,0,1,230.41,230Zm-45.9-54.19a7,7,0,0,0-7,7V213a7,7,0,0,0,7,7h45.9a7,7,0,0,0,7-7V182.79a7,7,0,0,0-7-7Z"/><path class="cls-1" d="M296.31,87.59a11,11,0,0,0-1.43-5.69h0L259.71,19.82a18,18,0,0,0-15.67-9H57.48a18,18,0,0,0-15.68,9L6.64,81.9a10.93,10.93,0,0,0-1.43,5.69C5.06,89.46,3,119,15.66,133.68a23.53,23.53,0,0,0,10.54,7.15V269.06a15.89,15.89,0,0,0,15.87,15.87H257.93a15.89,15.89,0,0,0,15.87-15.87V141.3a23.45,23.45,0,0,0,12.06-7.62C298.55,119,296.45,89.48,296.31,87.59ZM229.72,98.48v15.19c-.23.7-6,17-21.67,16.68-14.84-.33-22.83-14.95-24.15-17.56V98.48Zm-101.66,0h45.83v15.76c-1.56,4-7.75,16.84-23.14,17.85-14.27-.94-20.58-11.89-22.69-16.77Zm-10,0v13.36l-.24.54c-.08.18-8,17.61-24.34,18H93c-13.2,0-19.21-11.86-20.77-15.58V98.48Zm-54.29-10H16.6a1.35,1.35,0,0,1-1.25-.66.92.92,0,0,1,0-1L50.5,24.75a8,8,0,0,1,7-3.95H244a8,8,0,0,1,7,3.95l35.16,62.08h0a.91.91,0,0,1,0,1,1.37,1.37,0,0,1-1.25.66H63.77ZM23.23,127.15c-5.83-6.74-7.73-19.24-8.15-28.76a12.79,12.79,0,0,0,1.52.09H62.23v15.45c-.91,2.34-8.29,19.5-29.19,18.13A13.54,13.54,0,0,1,23.23,127.15ZM127.52,274.93H74.23V187.65a5.8,5.8,0,0,1,5.8-5.8h41.69a5.81,5.81,0,0,1,5.8,5.8Zm130.41,0H137.52V187.65a15.82,15.82,0,0,0-15.8-15.8H80a15.82,15.82,0,0,0-15.8,15.8v87.28H42.07a5.88,5.88,0,0,1-5.87-5.87V142.11A38.09,38.09,0,0,0,67,125.93c5.12,7.32,13.92,14.69,26.7,14.41,13.76-.3,22.93-8.72,28.1-15.49,5,7.91,14.18,16.3,28.37,17.21v.08l.59,0,.59,0v-.08c14.18-.91,23.34-9.3,28.37-17.21,5.17,6.77,14.34,15.19,28.1,15.49h.7c12.41,0,21-7.24,26-14.42a38.08,38.08,0,0,0,29.29,16.13v127A5.88,5.88,0,0,1,257.93,274.93Zm20.35-147.78a13.5,13.5,0,0,1-9.8,4.91c-19,1.23-26.77-12.66-28.76-17.09V98.48h45.2a12.5,12.5,0,0,0,1.51-.09C286,107.91,284.11,120.41,278.28,127.15Z"/></g></g></svg>