<?xml version="1.0" encoding="UTF-8" standalone="no"?>
<svg
   xmlns:dc="http://purl.org/dc/elements/1.1/"
   xmlns:cc="http://creativecommons.org/ns#"
   xmlns:rdf="http://www.w3.org/1999/02/22-rdf-syntax-ns#"
   xmlns:svg="http://www.w3.org/2000/svg"
   xmlns="http://www.w3.org/2000/svg"
   height="255.60738"
   width="248.42188"
   id="svg10"
   version="1.1"
   viewBox="0 0 248.42188 255.60738">
  <metadata
     id="metadata14">
    <rdf:RDF>
      <cc:Work
         rdf:about="">
        <dc:format>image/svg+xml</dc:format>
        <dc:type
           rdf:resource="http://purl.org/dc/dcmitype/StillImage" />
      </cc:Work>
    </rdf:RDF>
  </metadata>
  <defs
     id="defs4">
    <style
       id="style2">.cls-1{fill:#7a7979;}</style>
  </defs>
  <title
     id="title6">TebleTennis</title>
  <g
     transform="translate(-27.6997,-24.602917)"
     data-name="Expan Icon"
     id="Expan_Icon">
    <path
       style="fill:#7a7979"
       d="m 258.15,194 a 30.83,30.83 0 0 0 -3.9,-3.1 c 13.74,-19.28 21.4,-41.34 21.85,-63.56 0.59,-28.61 -10.94,-55.48 -32.5,-75.68 -21.75,-20.39 -48.26,-29.54 -76.66,-26.48 -26.67,2.87 -52.85,16.72 -73.71,39 -20.86,22.28 -33,49.3 -34.11,76.09 a 92.72,92.72 0 0 0 14.21,54.12 L 32.71,237.74 A 18.61,18.61 0 0 0 33.56,264 l 11.95,11.2 a 18.61,18.61 0 0 0 26.26,-0.85 l 40.68,-43.42 a 98.67,98.67 0 0 0 55.71,11.63 109.18,109.18 0 0 0 41.67,-12.45 30.63,30.63 0 1 0 48.32,-36.11 z m -137.58,28.9 c 0,0 0,0 0,0 0,0 -0.25,-0.13 -0.37,-0.19 -0.66,-0.32 -1.3,-0.66 -2,-1 v 0 a 13.89,13.89 0 0 0 -14.5,2.62 l -0.74,0.8 -39.16,41.74 a 7.66,7.66 0 0 1 -10.82,0.35 L 41,256 a 7.67,7.67 0 0 1 -0.35,-10.81 l 39.15,-41.73 0.69,-0.73 a 13.93,13.93 0 0 0 1.62,-15 v 0 c -0.32,-0.52 -0.63,-1 -0.94,-1.58 v 0 A 82.78,82.78 0 0 1 69.93,148.31 l 89.63,84 a 87.68,87.68 0 0 1 -38.99,-9.41 z m 53.68,8.1 v 0 L 70.41,133.73 v 0 c 2.52,-21.28 12.81,-42.87 30.79,-62.07 40.66,-43.4 96.15,-48.34 134.93,-12 36.24,33.94 38.79,85.56 7.87,126.84 a 30.59,30.59 0 0 0 -37.22,33 98.48,98.48 0 0 1 -32.53,11.5 z m 49.49,-0.28 a 19.7,19.7 0 0 1 23.77,-31.17 20.16,20.16 0 0 1 3.17,2.42 19.7,19.7 0 1 1 -26.94,28.75 z"
       class="cls-1"
       id="TebleTennis" />
  </g>
</svg>
