<?xml version="1.0" encoding="UTF-8" standalone="no"?>
<svg
   xmlns:dc="http://purl.org/dc/elements/1.1/"
   xmlns:cc="http://creativecommons.org/ns#"
   xmlns:rdf="http://www.w3.org/1999/02/22-rdf-syntax-ns#"
   xmlns:svg="http://www.w3.org/2000/svg"
   xmlns="http://www.w3.org/2000/svg"
   height="293.73416"
   width="293.73383"
   id="svg12"
   version="1.1"
   viewBox="0 0 293.73383 293.73416">
  <metadata
     id="metadata16">
    <rdf:RDF>
      <cc:Work
         rdf:about="">
        <dc:format>image/svg+xml</dc:format>
        <dc:type
           rdf:resource="http://purl.org/dc/dcmitype/StillImage" />
      </cc:Work>
    </rdf:RDF>
  </metadata>
  <defs
     id="defs4">
    <style
       id="style2">.cls-1{fill:#7a7979;}</style>
  </defs>
  <title
     id="title6">Tennis</title>
  <g
     transform="translate(-3.0190025,-2.9042501)"
     data-name="Expan Icon"
     id="Expan_Icon">
    <g
       id="Tennis">
      <path
         style="fill:#7a7979"
         id="path8"
         d="M 272.84,26.81 C 255,8.94 229.9,0.63 202.25,3.44 c -26.61,2.7 -52.56,15.48 -73.07,36 -1,1 -2.05,2.1 -3.05,3.18 a 67.1,67.1 0 1 0 -29.82,99.75 83.59,83.59 0 0 0 11,29.09 L 71.74,207 a 9.51,9.51 0 0 0 -8.52,2.62 L 5.81,267.06 a 9.57,9.57 0 0 0 0,13.51 l 13.28,13.27 a 9.54,9.54 0 0 0 13.5,0 L 90,236.43 a 9.47,9.47 0 0 0 2.79,-6.75 9.29,9.29 0 0 0 -0.16,-1.76 l 35.58,-35.58 c 15.31,9.61 35.31,14 56.82,12.42 a 118.67,118.67 0 0 0 75.19,-34.28 c 20.51,-20.51 33.3,-46.46 36,-73.07 2.8,-27.65 -5.5,-52.72 -23.38,-70.6 z m -97.27,27.37 12.51,12.51 -12.51,12.52 -12.52,-12.52 z m -1.22,-14.45 q 2.31,-1.17 4.64,-2.2 L 175.57,41 Z M 252.09,117.47 239.58,105 252.09,92.49 264.61,105 Z m 10,3.19 c -0.69,1.56 -1.43,3.1 -2.21,4.64 l -1.21,-1.21 z m -48.3,35.07 -12.51,-12.51 12.51,-12.52 12.51,12.52 z m 0.6,13.84 -2.14,0.94 1.54,-1.55 z m -32.25,-45.48 12.52,-12.52 12.52,12.52 -12.48,12.51 z m 5.9,19.13 -12.51,12.51 -12.52,-12.51 12.52,-12.52 z M 201.31,105 213.83,92.48 226.34,105 213.83,117.52 Z M 220.45,85.86 233,73.31 245.52,85.82 233,98.34 Z m -6.62,-6.61 -12.51,-12.56 12.51,-12.51 12.51,12.51 z M 207.22,85.86 194.7,98.34 182.18,85.82 194.7,73.31 Z M 188.08,105 175.57,117.51 163.05,105 175.57,92.48 Z m -19.08,19.09 -12.51,12.52 -12.52,-12.52 12.52,-12.52 z m -19.13,19.13 -17.14,17.15 a 47.49,47.49 0 0 1 -8.48,-16.57 l 13.11,-13.1 z m 6.62,6.61 12.51,12.52 -12.76,12.77 a 50,50 0 0 1 -16.86,-8.18 z m 19.08,19.17 8.51,8.52 -0.56,0.05 a 83.68,83.68 0 0 1 -16.27,-0.25 z m 6.61,-6.61 12.52,-12.52 12.51,12.52 -12.51,12.47 z m 50.82,-12.56 4.62,4.62 A 90.47,90.47 0 0 1 223.14,165 l -2.69,-2.69 z m 0,-13.23 -12.51,-12.51 12.51,-12.52 12.52,12.52 z m 19.13,-5.9 3,3 a 104.22,104.22 0 0 1 -10.89,14.14 l -4.64,-4.63 z m 6.62,-44.88 9.92,-9.92 A 70.1,70.1 0 0 1 269,96.14 Z m -6.62,-6.61 -12.56,-12.52 17.18,-17.17 a 53.13,53.13 0 0 1 9.12,15.91 z M 233,60.08 220.45,47.56 234.22,33.78 a 53.39,53.39 0 0 1 15.92,9.12 z M 213.83,41 203.52,30.63 a 70.39,70.39 0 0 1 20.23,0.39 z M 207.22,47.61 194.7,60.08 182.18,47.56 194.7,35.05 Z m -50.78,12.47 -4.64,-4.63 a 104.12,104.12 0 0 1 14.14,-10.9 l 3,3 z m 0,13.23 L 169,85.82 156.44,98.34 143.92,85.82 Z m -18.69,5.45 c -0.05,-2.06 -0.19,-4.11 -0.42,-6.12 a 86,86 0 0 1 7.89,-10.55 l 4.6,4.6 z m 12.07,26.24 -12.51,12.51 -6.79,-6.79 a 66.81,66.81 0 0 0 6,-17.46 l 0.78,-0.78 z m -19.13,19.13 -8.64,8.64 a 75,75 0 0 1 -0.41,-8.79 c 1.37,-1.6 2.68,-3.28 3.9,-5 z M 120,50.34 a 57.65,57.65 0 0 1 0,60 32.74,32.74 0 0 1 0,-60 z m -98.69,60 a 57.65,57.65 0 0 1 0,-60 32.74,32.74 0 0 1 0,60 z m 49.34,27.77 a 57.67,57.67 0 0 1 -43.72,-20.06 42.11,42.11 0 0 0 0,-75.41 57.67,57.67 0 0 1 87.44,0 42.11,42.11 0 0 0 0,75.41 57.67,57.67 0 0 1 -43.73,20.06 z M 26,287.23 a 0.17,0.17 0 0 1 -0.13,0 0.21,0.21 0 0 1 -0.14,0 L 12.43,274 c 0,0 0,-0.05 0,-0.13 0,-0.08 0,-0.13 0,-0.14 l 32.38,-32.39 13.55,13.56 z m 39,-39 -13.58,-13.55 4.49,-4.48 13.55,13.55 z m 18.41,-18.41 -7.32,7.31 -13.57,-13.55 7.32,-7.31 c 0,0 0,-0.05 0.14,-0.05 0.14,0 0.12,0 0.13,0.05 l 13.28,13.27 a 0.21,0.21 0 0 1 0,0.14 0.24,0.24 0 0 1 0,0.14 z M 286.91,96.46 c -2.48,24.47 -14.31,48.41 -33.3,67.4 a 109.33,109.33 0 0 1 -69.27,31.57 c -20.92,1.54 -40.1,-3.05 -54,-12.93 a 4.68,4.68 0 0 0 -6,0.51 l -37.15,37.11 -7.65,-7.66 37.11,-37.11 a 4.69,4.69 0 0 0 0.5,-6 c -6.09,-8.59 -10.25,-19.38 -12.1,-31.37 a 67.59,67.59 0 0 0 7.58,-5.29 c 1.41,15.36 7,28.29 16.56,37.8 10.66,10.67 28,16.69 47.45,16.69 q 3.77,0 7.62,-0.3 a 100.87,100.87 0 0 0 63.33,-29 C 283.71,121.76 289.37,68.64 260.21,39.47 231.05,10.3 177.93,15.97 141.81,52.09 a 89.14,89.14 0 0 0 -7.14,8.11 68.52,68.52 0 0 0 -3.61,-9.07 c 1.52,-1.73 3.11,-3.43 4.73,-5.05 19,-19 42.93,-30.82 67.4,-33.3 24.8,-2.52 47.18,4.83 63,20.68 15.82,15.85 23.2,38.24 20.68,63 z m 0,0"
         class="cls-1" />
    </g>
  </g>
</svg>
