<svg xmlns="http://www.w3.org/2000/svg" viewBox="0 0 300 300"><defs><style>.cls-1{fill:#fff;}.cls-2{fill:#e32930;}</style></defs><title>TheOne</title><g id="Expan_Icon" data-name="Expan Icon"><g id="TheOne"><path class="cls-1" d="M11,120.47H76.06v10.26H49v82.49H38V130.73H11Zm107,28.81c-9.23,0-16.83,4.23-20.3,10.39v-39.2H87v92.75H97.65V176.77c1.09-12,9.43-17.89,18.35-17.89,11.69,0,16.08,7.56,16.08,17.08v37.26h10.63V178.27c0-9.69-1-12.65-2.1-15.43-3.16-8.19-11.85-13.56-22.66-13.56m95,37.42H164c.58,5.12,2.19,9.41,4.76,12.56,3.28,4,8.1,6.18,14.33,6.38h0c6.16-.08,11.33-2.28,15-6.38a20.53,20.53,0,0,0,3.45-5.48l8.9,3.24a29.14,29.14,0,0,1-5.16,8.34c-5.38,6-13,9.27-22.16,9.35h0c-8.92-.23-16.41-3.56-21.7-9.67-5.06-5.84-7.73-13.74-7.73-22.85,0-9.36,2.76-17.43,8-23.36s12.72-9.31,21.44-9.53h0c9.28.08,17.05,3.5,22.45,9.9,5,5.89,7.61,13.84,7.61,23a44.15,44.15,0,0,1-.23,4.5m-10.76-7.89c-.4-5.8-1.95-10.62-4.52-14.06-3.21-4.25-8.1-6.43-14.55-6.51h0c-6,.21-10.74,2.39-14.09,6.5-2.89,3.54-4.62,8.35-5.11,14.06h38.27Z"/><polygon class="cls-1" points="225.95 56.79 225.95 79.51 242.92 79.51 242.92 213.22 265.63 213.22 265.63 56.79 225.95 56.79"/><rect class="cls-2" x="219.53" y="225.3" width="69.49" height="17.91"/></g></g></svg>