<svg xmlns="http://www.w3.org/2000/svg" viewBox="0 0 300 300"><defs><style>.cls-1{fill:#ffffff;stroke:#ffffff;stroke-miterlimit:10;stroke-width:10px;}</style></defs><title>TracYourOrder</title><g id="Expan_Icon" data-name="Expan Icon"><g id="TracYourOrder"><path class="cls-1" d="M209.89,143.88a60.19,60.19,0,0,0-53.77-53.77,60.57,60.57,0,0,0-12.24,0,60.19,60.19,0,0,0-53.77,53.77,60.57,60.57,0,0,0,0,12.24,60.19,60.19,0,0,0,53.77,53.77,60.57,60.57,0,0,0,12.24,0,60.19,60.19,0,0,0,53.77-53.77,60.57,60.57,0,0,0,0-12.24Z"/><path class="cls-1" d="M291.22,145h-38A103.49,103.49,0,0,0,155,46.77v-38a5,5,0,0,0-10,0v38A103.49,103.49,0,0,0,46.77,145h-38a5,5,0,0,0,0,10h38A103.49,103.49,0,0,0,145,253.23v38a5,5,0,0,0,10,0v-38A103.49,103.49,0,0,0,253.23,155h38a5,5,0,0,0,0-10ZM155,243.22c-1.66.09-3.32.13-5,.13s-3.34,0-5-.13A93.49,93.49,0,0,1,56.78,155c-.09-1.66-.13-3.32-.13-5s0-3.34.13-5A93.49,93.49,0,0,1,145,56.78c1.66-.09,3.32-.13,5-.13s3.34,0,5,.13A93.49,93.49,0,0,1,243.22,145c.09,1.66.13,3.32.13,5s0,3.34-.13,5A93.49,93.49,0,0,1,155,243.22Z"/></g></g></svg>