<?xml version="1.0" encoding="UTF-8" standalone="no"?>
<svg
   xmlns:dc="http://purl.org/dc/elements/1.1/"
   xmlns:cc="http://creativecommons.org/ns#"
   xmlns:rdf="http://www.w3.org/1999/02/22-rdf-syntax-ns#"
   xmlns:svg="http://www.w3.org/2000/svg"
   xmlns="http://www.w3.org/2000/svg"
   height="224.74001"
   width="224.74001"
   id="svg10"
   version="1.1"
   viewBox="0 0 224.74001 224.74001">
  <metadata
     id="metadata14">
    <rdf:RDF>
      <cc:Work
         rdf:about="">
        <dc:format>image/svg+xml</dc:format>
        <dc:type
           rdf:resource="http://purl.org/dc/dcmitype/StillImage" />
      </cc:Work>
    </rdf:RDF>
  </metadata>
  <defs
     id="defs4">
    <style
       id="style2">.cls-1{fill:#7a7979;}</style>
  </defs>
  <title
     id="title6">Valleyball</title>
  <g
     transform="translate(-37.63,-37.63)"
     data-name="Expan Icon"
     id="Expan_Icon">
    <path
       style="fill:#7a7979"
       d="M 150,37.63 A 112.37,112.37 0 1 0 262.37,150 112.5,112.5 0 0 0 150,37.63 Z M 252.37,150 a 102.12,102.12 0 0 1 -2.45,22.26 83.05,83.05 0 0 1 -45.08,2.65 137.59,137.59 0 0 0 11.27,-34 131.54,131.54 0 0 0 -6.54,-74.11 102.29,102.29 0 0 1 42.8,83.2 z M 198.91,60.09 c 15.3,30.73 14.1,60 10.38,79.22 A 129.82,129.82 0 0 1 197.88,173.15 109.11,109.11 0 0 1 182.66,167.41 123.73,123.73 0 0 1 154.11,149 c 3.72,-10.61 16.77,-55 -6.56,-101.34 0.82,0 1.63,0 2.45,0 a 101.76,101.76 0 0 1 48.91,12.43 z m -59,-12 a 119.71,119.71 0 0 1 13.76,49 125.18,125.18 0 0 0 -36,1.39 122.1,122.1 0 0 0 -69.27,38.98 102.57,102.57 0 0 1 91.5,-89.33 z M 47.64,149.21 c 18.58,-23.73 42.43,-38.44 71,-43.72 a 118.08,118.08 0 0 1 35.31,-1.23 131.63,131.63 0 0 1 -6.71,43.19 118,118 0 0 0 -27.46,9.11 A 119.86,119.86 0 0 0 65.55,207.75 101.79,101.79 0 0 1 47.63,150 c 0,-0.26 0.01,-0.53 0.01,-0.79 z M 70.14,214 a 114.07,114.07 0 0 1 29.74,-36.75 c 2.52,4.3 11.14,17.62 27.62,30.09 15.35,11.6 40.26,24.25 76,24.25 2.81,0 5.7,-0.09 8.65,-0.26 A 102.19,102.19 0 0 1 70.14,214 Z m 151,9.54 c -34.76,4 -64.76,-3.24 -89.17,-21.58 -16.84,-12.65 -25.11,-26.55 -26.48,-29 a 112.72,112.72 0 0 1 17,-10 111.31,111.31 0 0 1 26.91,-8.83 129.48,129.48 0 0 0 30.12,19.48 c 14.47,6.72 29.12,10.1 43.47,10.1 a 89.55,89.55 0 0 0 24.83,-3.49 102.51,102.51 0 0 1 -26.66,43.29 z"
       class="cls-1"
       id="Valleyball" />
  </g>
</svg>
