<?xml version="1.0" encoding="UTF-8" standalone="no"?>
<svg
   xmlns:dc="http://purl.org/dc/elements/1.1/"
   xmlns:cc="http://creativecommons.org/ns#"
   xmlns:rdf="http://www.w3.org/1999/02/22-rdf-syntax-ns#"
   xmlns:svg="http://www.w3.org/2000/svg"
   xmlns="http://www.w3.org/2000/svg"
   height="182.83466"
   width="299.94919"
   id="svg18"
   version="1.1"
   viewBox="0 0 299.94919 182.83466">
  <metadata
     id="metadata22">
    <rdf:RDF>
      <cc:Work
         rdf:about="">
        <dc:format>image/svg+xml</dc:format>
        <dc:type
           rdf:resource="http://purl.org/dc/dcmitype/StillImage" />
      </cc:Work>
    </rdf:RDF>
  </metadata>
  <defs
     id="defs4">
    <style
       id="style2">.cls-1{fill:#7a7979;}</style>
  </defs>
  <title
     id="title6">WaterSport</title>
  <g
     transform="translate(-0.36077711,-58.33)"
     data-name="Expan Icon"
     id="Expan_Icon">
    <g
       id="WaterSport">
      <path
         style="fill:#7a7979"
         id="path8"
         d="m 208.15,112.45 a 27.06,27.06 0 1 0 -27.06,-27.06 27.05,27.05 0 0 0 27.06,27.06 z"
         class="cls-1" />
      <path
         style="fill:#7a7979"
         id="path10"
         d="m 76.62,145.82 32.61,-31.25 v 0 l 11.85,-3.44 -6.63,15.8 c -0.66,0.64 -28.62,27.43 -29.34,28.09 a 48,48 0 0 1 18.68,11.51 l 0.12,0.12 a 8.45,8.45 0 0 0 11.92,0 47.84,47.84 0 0 1 18.87,-11.65 48.44,48.44 0 0 1 15.17,-2.44 47.93,47.93 0 0 1 22.69,5.66 l 15.28,-12.29 39.62,6.34 a 13.1,13.1 0 0 0 9,-1.85 l 51.89,-32.66 a 13.06,13.06 0 0 0 -13.91,-22.1 l -47.73,30 -65.9,-26.12 0.65,-0.19 -52.59,-12.5 A 13.11,13.11 0 0 0 97,90.16 v 0 L 58.55,127 a 13.06,13.06 0 0 0 18.07,18.86 z"
         class="cls-1" />
      <path
         style="fill:#7a7979"
         id="path12"
         d="m 56.89,187.7 a 18.35,18.35 0 0 1 26,0 38.22,38.22 0 0 0 54,0 18.34,18.34 0 0 1 26,0 38.25,38.25 0 0 0 54,0 18.35,18.35 0 0 1 26,0 38.24,38.24 0 0 0 54,0 9.92,9.92 0 1 0 -14,-14 18.36,18.36 0 0 1 -26,0 38.26,38.26 0 0 0 -54,0 18.37,18.37 0 0 1 -26,0 38.2,38.2 0 0 0 -54,0 18.35,18.35 0 0 1 -26,0 38.26,38.26 0 0 0 -54,0 18.35,18.35 0 0 1 -26,0 9.93,9.93 0 0 0 -14,14 38.24,38.24 0 0 0 54,0 z"
         class="cls-1" />
      <path
         style="fill:#7a7979"
         id="path14"
         d="m 282.83,216 a 18.35,18.35 0 0 1 -26,0 38.24,38.24 0 0 0 -54,0 18.37,18.37 0 0 1 -26,0 38.2,38.2 0 0 0 -54,0 18.35,18.35 0 0 1 -26,0 38.24,38.24 0 0 0 -54,0 18.36,18.36 0 0 1 -26,0 9.92,9.92 0 0 0 -14,14 38.26,38.26 0 0 0 54,0 18.35,18.35 0 0 1 26,0 38.23,38.23 0 0 0 54,0 18.35,18.35 0 0 1 26,0 38.27,38.27 0 0 0 54,0 18.35,18.35 0 0 1 26,0 38.26,38.26 0 0 0 54,0 9.93,9.93 0 1 0 -14,-14 z"
         class="cls-1" />
    </g>
  </g>
</svg>
