<?xml version="1.0" encoding="UTF-8" standalone="no"?>
<svg
   xmlns:dc="http://purl.org/dc/elements/1.1/"
   xmlns:cc="http://creativecommons.org/ns#"
   xmlns:rdf="http://www.w3.org/1999/02/22-rdf-syntax-ns#"
   xmlns:svg="http://www.w3.org/2000/svg"
   xmlns="http://www.w3.org/2000/svg"
   height="298.73001"
   width="273.48596"
   id="svg16"
   version="1.1"
   viewBox="0 0 273.48596 298.73001">
  <metadata
     id="metadata20">
    <rdf:RDF>
      <cc:Work
         rdf:about="">
        <dc:format>image/svg+xml</dc:format>
        <dc:type
           rdf:resource="http://purl.org/dc/dcmitype/StillImage" />
      </cc:Work>
    </rdf:RDF>
  </metadata>
  <defs
     id="defs4">
    <style
       id="style2">.cls-1{fill:#7a7979;}</style>
  </defs>
  <title
     id="title6">Yoga&amp;amp;Pelates</title>
  <g
     transform="translate(-13.198572,-0.63000136)"
     data-name="Expan Icon"
     id="Expan_Icon">
    <g
       data-name="Yoga&amp;Pelates"
       id="Yoga_Pelates">
      <path
         style="fill:#7a7979"
         id="path8"
         d="M 149.73,74.37 A 36.87,36.87 0 1 0 112.87,37.5 36.91,36.91 0 0 0 149.73,74.37 Z m 0,-63.73 A 26.87,26.87 0 1 1 122.87,37.5 26.89,26.89 0 0 1 149.73,10.64 Z"
         class="cls-1" />
      <path
         style="fill:#7a7979"
         id="path10"
         d="m 286,272.05 c -2.25,-11.37 -16,-16.57 -36.78,-24.45 -5.06,-1.91 -10.29,-3.9 -16,-6.18 -18,-7.27 -30,-11.78 -36.55,-14.21 l -3,-1.08 V 123.82 a 5,5 0 0 0 -10,0 v 104.09 c 0,0.22 0,0.44 0,0.67 0,0.23 0,0.45 0,0.67 a 6.57,6.57 0 0 0 3.71,5.26 5.64,5.64 0 0 0 1.27,0.45 c 4.33,1.54 17.53,6.35 40.8,15.73 5.76,2.33 11.29,4.42 16.16,6.26 16.39,6.21 29.34,11.11 30.51,17 0.86,4.38 0.55,7.44 -1,9.34 -3.57,4.53 -15.32,5 -27.76,5.46 l -3.92,0.15 c -21.85,0.92 -87.67,0.08 -93.39,0 h -0.4 c -3.46,0.05 -28.91,0.37 -53.31,0.41 4.67,-5.16 11,-12.17 16.26,-17.93 l 2.15,-2.36 h 66.17 a 5,5 0 0 0 0,-10 h -67.73 a 6.17,6.17 0 0 0 -4.17,1.61 v 0 l -0.79,0.86 c -8.55,9.34 -22.3,24.59 -25.19,27.8 -10.82,0 -20.47,-0.14 -26.63,-0.4 l -3.92,-0.15 c -12.44,-0.48 -24.19,-0.93 -27.76,-5.46 -1.51,-1.9 -1.82,-5 -1,-9.34 1.17,-5.92 14.12,-10.82 30.51,-17 4.87,-1.84 10.4,-3.93 16.16,-6.26 23.74,-9.57 37,-14.38 41.05,-15.81 a 6.34,6.34 0 0 0 0.73,-0.26 v 0 a 6.55,6.55 0 0 0 4,-5.81 2.42,2.42 0 0 0 0,-0.44 V 123.82 a 5,5 0 0 0 -10,0 v 102.31 l -3,1.09 c -6.61,2.43 -18.52,6.93 -36.54,14.2 -5.67,2.28 -10.9,4.27 -16,6.18 -20.8,7.88 -34.53,13.08 -36.78,24.45 -1.46,7.42 -0.51,13.14 2.92,17.47 6.44,8.15 19.78,8.66 35.23,9.25 l 3.88,0.16 c 7.85,0.32 21,0.43 35,0.43 26.07,0 55.18,-0.38 59,-0.43 3.82,-0.05 32.93,0.43 59,0.43 14,0 27.16,-0.11 35,-0.43 l 3.88,-0.16 c 15.45,-0.59 28.79,-1.1 35.23,-9.25 3.55,-4.33 4.5,-10.05 3,-17.47 z"
         class="cls-1" />
      <path
         style="fill:#7a7979"
         id="path12"
         d="m 22.21,238.52 a 5,5 0 0 0 4.61,3 4.76,4.76 0 0 0 1.77,-0.33 l 0.24,-0.09 c 5.18,-2 13.72,-5.34 22.26,-9 27.38,-11.73 30.16,-15.77 30.82,-19.49 1.25,-7 2.39,-24.46 3.71,-44.72 1.54,-23.72 3.29,-50.6 5.36,-60.52 C 94,93.18 112.91,93 113.72,93 h 72.57 c 0.8,0 19.76,0.21 22.73,14.45 2.07,9.92 3.82,36.8 5.36,60.5 1.32,20.27 2.46,37.78 3.71,44.74 0.66,3.72 3.44,7.76 30.82,19.49 8.54,3.66 17.08,7 22.26,9 a 2.34,2.34 0 0 0 0.24,0.09 4.76,4.76 0 0 0 1.77,0.33 5,5 0 0 0 4.61,-3 c 0.06,-0.15 0.12,-0.31 0.17,-0.46 a 5.21,5.21 0 0 0 0.22,-1.49 5,5 0 0 0 -3,-4.58 l -0.26,-0.1 C 254.07,224 231.69,214 227.8,210.12 c -1.11,-7 -2.24,-24.43 -3.44,-42.85 -1.64,-25.21 -3.34,-51.28 -5.55,-61.89 C 215.12,87.64 196,83 186.39,83 H 113.63 C 103.96,83 84.88,87.67 81.19,105.41 79,116 77.28,142.07 75.64,167.29 74.44,185.7 73.31,203.12 72.2,210.12 68.31,214 45.93,224 25.07,231.89 l -0.26,0.1 a 5,5 0 0 0 -3,4.58 5.21,5.21 0 0 0 0.22,1.49 c 0.06,0.15 0.12,0.31 0.18,0.46 z"
         class="cls-1" />
    </g>
  </g>
</svg>
