<svg xmlns="http://www.w3.org/2000/svg" viewBox="0 0 137.62 95.05"><defs><style>.cls-1{fill:#78e723;}.cls-2{fill:#fff;}</style></defs><title>SSP_logo</title><g id="Layer_2" data-name="Layer 2"><g id="Layer_1-2" data-name="Layer 1"><path class="cls-1" d="M85.75,16.07a17.75,17.75,0,0,1,4,10.75,17,17,0,0,1-2.92,9.27c-1.81,3.42-5.2,6.63-9.88,9.53C61.76,55.81,12.68,67.36,30.58,67.36c44.37,0,80.33-13.3,80.33-29.7C110.91,29.15,101.24,21.49,85.75,16.07Z"/><path class="cls-1" d="M51.61,50.9a17.78,17.78,0,0,1-3.87-10.78,17.11,17.11,0,0,1,3-9.25c1.83-3.41,5.24-6.59,10-9.45C75.89,11.33,125.05.13,107.15,0,62.78-.31,26.72,12.73,26.6,29.13,26.54,37.64,36.16,45.37,51.61,50.9Z"/><path class="cls-2" d="M6.37,88.51c-.45-.26-1-.58-1.81-.93a10,10,0,0,1-2-1A1.35,1.35,0,0,1,2,85.39,1.86,1.86,0,0,1,2.68,84a2.62,2.62,0,0,1,1.83-.62,4.21,4.21,0,0,1,2.38.81l.08.06.49-.11.25-1.55-.17-.07a7.28,7.28,0,0,0-2.9-.6,5.14,5.14,0,0,0-2.23.47A3.73,3.73,0,0,0,.87,83.68a3.14,3.14,0,0,0-.55,1.81,2.72,2.72,0,0,0,.51,1.67A4,4,0,0,0,2,88.24c.45.26,1,.57,1.77.9a11.8,11.8,0,0,1,2,1.14,1.41,1.41,0,0,1,.57,1.2,1.82,1.82,0,0,1-.71,1.44,2.74,2.74,0,0,1-1.88.63,4.9,4.9,0,0,1-1.62-.3,4,4,0,0,1-1.46-.86L.6,92.28l-.45.2L0,94.05l.14.08A7.27,7.27,0,0,0,3.66,95,5.13,5.13,0,0,0,6,94.51a3.84,3.84,0,0,0,1.56-1.35,3.35,3.35,0,0,0,.56-1.85,2.79,2.79,0,0,0-.53-1.71A4,4,0,0,0,6.37,88.51Z"/><path class="cls-2" d="M20.49,90.17a3.37,3.37,0,0,1-.86,2.5,3.49,3.49,0,0,1-2.54.85,3.49,3.49,0,0,1-2.54-.85,3.28,3.28,0,0,1-.83-2.5l.08-8.11H12.06l0,6.43,0,1.83a4.56,4.56,0,0,0,1.27,3.5A5.23,5.23,0,0,0,17,95.05a5.39,5.39,0,0,0,3.77-1.24,4.41,4.41,0,0,0,1.31-3.49V88.64l.05-6.58H20.44Z"/><path class="cls-2" d="M30.81,82l-3.9,0L27,90.94l-.05,4h1.71l0-4.07v-.42H30a5.27,5.27,0,0,0,3.67-1.2A4.35,4.35,0,0,0,35,85.86,3.67,3.67,0,0,0,33.91,83,4.52,4.52,0,0,0,30.81,82Zm-2.17,1.51,2,0c1.78.08,2.65.88,2.65,2.45A3,3,0,0,1,32.58,88a3.14,3.14,0,0,1-2,.94l-2,0Z"/><polygon class="cls-2" points="43.29 93.44 40.97 93.44 40.94 90.85 40.94 89.1 43.18 89.08 45.68 89.14 45.81 87.87 45.64 87.52 43.29 87.58 40.97 87.55 40.99 83.56 43.46 83.56 46.76 83.64 46.92 82.39 46.7 82.06 39.26 82.06 39.31 90.94 39.26 94.95 46.77 94.95 46.98 93.67 46.69 93.39 43.29 93.44"/><path class="cls-2" d="M72.05,82.57l-.48,2.81-.45.12a5.17,5.17,0,0,0-2.94-1.2,1.65,1.65,0,0,0-1.1.34,1,1,0,0,0,.1,1.68,10.32,10.32,0,0,0,1.58.79A18.15,18.15,0,0,1,70.6,88a3.71,3.71,0,0,1,1.23,1.11,3,3,0,0,1,.52,1.8,3.8,3.8,0,0,1-.57,2,4,4,0,0,1-1.7,1.52,6.13,6.13,0,0,1-2.82.58,11,11,0,0,1-4-.78l.43-3,.32-.22a6.74,6.74,0,0,0,1.86,1.2,4.61,4.61,0,0,0,1.83.45,1.78,1.78,0,0,0,1.14-.35,1.09,1.09,0,0,0,.44-.88,1,1,0,0,0-.52-.89,9.22,9.22,0,0,0-1.59-.76,19,19,0,0,1-1.84-.89,3.92,3.92,0,0,1-1.23-1.14A3.09,3.09,0,0,1,63.55,86a3.66,3.66,0,0,1,.61-2.06,4.11,4.11,0,0,1,1.76-1.45,6.33,6.33,0,0,1,2.67-.53A9.68,9.68,0,0,1,72.05,82.57Z"/><path class="cls-2" d="M84.53,83A3.67,3.67,0,0,1,85.68,86a4.43,4.43,0,0,1-1.53,3.53,6,6,0,0,1-4.08,1.33H78.79l.12,4.11H75.75l.13-4-.13-8.9,5.47,0A4.84,4.84,0,0,1,84.53,83ZM82,87.74a2.39,2.39,0,0,0,.42-1.48,1.8,1.8,0,0,0-.54-1.43,2.66,2.66,0,0,0-1.66-.53l-1.26,0-.07,4.14,1.8.08A2.61,2.61,0,0,0,82,87.74Z"/><path class="cls-2" d="M99.49,83.48A6.42,6.42,0,0,1,101,88.09a7.06,7.06,0,0,1-1.69,5,6.24,6.24,0,0,1-4.78,1.79,5.71,5.71,0,0,1-4.39-1.66,6.66,6.66,0,0,1-1.55-4.7,6.91,6.91,0,0,1,1.68-5,6.28,6.28,0,0,1,4.76-1.75A5.81,5.81,0,0,1,99.49,83.48Zm-6.91,1.76a4.74,4.74,0,0,0-.67,2.9,9.36,9.36,0,0,0,.29,2.6,2.3,2.3,0,0,0,.93,1.34,3.29,3.29,0,0,0,1.72.4,2.72,2.72,0,0,0,2.24-.83,4.78,4.78,0,0,0,.67-2.91,8.45,8.45,0,0,0-.31-2.59,2.42,2.42,0,0,0-.92-1.35,3.28,3.28,0,0,0-1.73-.4A2.66,2.66,0,0,0,92.58,85.24Z"/><path class="cls-2" d="M126.51,84.7,124,84.53h-.72l-.08,6.12.1,4.27h-3.13l.12-4,0-6.42h-.72l-2.61.17-.2-.25.17-2.4h9.68l.18.25Z"/><path class="cls-2" d="M137.32,82.57l-.48,2.81-.45.12a5.11,5.11,0,0,0-2.93-1.2,1.61,1.61,0,0,0-1.1.34,1,1,0,0,0-.41.81,1,1,0,0,0,.51.87,9.86,9.86,0,0,0,1.58.79,19.25,19.25,0,0,1,1.84.88,3.91,3.91,0,0,1,1.23,1.11,3,3,0,0,1,.51,1.8,3.88,3.88,0,0,1-.56,2,4,4,0,0,1-1.71,1.52,6.13,6.13,0,0,1-2.82.58,11,11,0,0,1-4-.78l.43-3,.33-.22a6.84,6.84,0,0,0,1.85,1.2,4.69,4.69,0,0,0,1.83.45,1.78,1.78,0,0,0,1.14-.35,1.06,1.06,0,0,0,.44-.88,1,1,0,0,0-.51-.89,10,10,0,0,0-1.59-.76,18.24,18.24,0,0,1-1.85-.89,4.15,4.15,0,0,1-1.23-1.14,3.09,3.09,0,0,1-.51-1.81,3.66,3.66,0,0,1,.61-2.06,4.17,4.17,0,0,1,1.76-1.45,6.33,6.33,0,0,1,2.67-.53A9.64,9.64,0,0,1,137.32,82.57Z"/><path class="cls-2" d="M55,90.16c.82,1.33,2.09,3.21,3.21,4.76h1.71a3,3,0,0,0,.28-.22c-1.21-1.48-2.68-3.5-3.65-5a4.58,4.58,0,0,0,1.91-1.5,4,4,0,0,0,.78-2.47A3.55,3.55,0,0,0,58.14,83,4.52,4.52,0,0,0,55,82l-3.89,0,.05,8.88-.06,4h1.71l0-4.07v-.67Zm-2.14-6.6,2,0c1.78.1,2.65.87,2.65,2.37a2.7,2.7,0,0,1-2.32,2.82l-2.34,0Z"/><path class="cls-2" d="M109.12,90.62c.46.89,1.55,2.75,2.44,4.3h3.37s.31-.27.29-.3c-1-1.28-2.48-3.41-3.51-4.9A5.16,5.16,0,0,0,113.46,88a4.1,4.1,0,0,0,.63-2.2A3.49,3.49,0,0,0,112.92,83a4.92,4.92,0,0,0-3.29-1l-5.47,0,.12,8.9-.12,4h3.16l-.13-4.27v0Zm-1.8-6.24,1.28,0a2.74,2.74,0,0,1,1.65.49,1.65,1.65,0,0,1,.53,1.34,2.14,2.14,0,0,1-1.66,2.16l-1.88-.11Z"/></g></g></svg>