<svg xmlns="http://www.w3.org/2000/svg" width="34" height="34" viewBox="0 0 34 34">
    <g fill="none" fill-rule="evenodd">
        <path fill="#263238" stroke="#263238" stroke-width=".2" d="M31.57 10.765l-3.127-.002V9.38l3.126.002c.382 0 .695-.31.695-.693v-5.54a.694.694 0 0 0-.695-.693H2.43a.694.694 0 0 0-.695.693v5.526c0 .186.072.36.205.49a.69.69 0 0 0 .491.203h.004L5.2 9.356l.003 1.384-2.76.012c-.573.028-1.084-.214-1.48-.606a2.055 2.055 0 0 1-.615-1.472V3.148c0-1.146.934-2.078 2.082-2.078H31.57c1.148 0 2.082.932 2.082 2.078v5.54a2.082 2.082 0 0 1-2.083 2.077z"/>
        <path fill="#263238" stroke="#263238" stroke-width=".2" d="M1.042 6.61H32.96V5.225H1.04z"/>
        <path fill="#263238" stroke="#263238" stroke-width=".2" d="M27.048 32.93h-.003l-20.097-.023c-1.343-.002-2.438-1.157-2.438-2.574V5.917h1.387v24.416c0 .654.473 1.188 1.053 1.188l20.097.024h.002a.981.981 0 0 0 .696-.299c.228-.225.357-.55.357-.888V5.917h1.386v24.44c0 .705-.278 1.385-.762 1.87a2.364 2.364 0 0 1-1.677.703z"/>
        <path fill="#A6192E" stroke="#A6192E" stroke-width=".5" d="M19.776 28.485h1.387V15.324h-1.387zM23.938 28.473h1.387v-18.8h-1.387z"/>
        <path fill="#A6192E" d="M12.899 29.47h-1.336v-1.665H8.947V17.186h2.616v-1.964H12.9v1.994c.724.013 1.332.124 1.823.333h-.005c.382.157.69.442.922.857.103.193.181.386.234.58.054.195.08.395.08.6 0 .898-.355 1.631-1.066 2.2a3.555 3.555 0 0 1-.262.198c-.088.06-.188.125-.301.193.322.115.617.266.884.453.268.188.5.41.7.664.303.392.454.898.454 1.519a2.84 2.84 0 0 1-.419 1.498c-.272.454-.651.81-1.136 1.068-.488.265-1.124.407-1.908.426v1.666zm0-7.949a1.71 1.71 0 0 0 .241-.083c.085-.036.174-.079.267-.128.106-.055.21-.137.309-.244.1-.108.19-.24.269-.397.08-.16.14-.312.182-.456.041-.143.062-.282.062-.416 0-.33-.138-.609-.414-.838-.159-.153-.465-.262-.916-.328v2.89zm-1.336-2.92h-.877v3.033h.877v-3.032zM12.9 26.4c.116-.006.228-.018.336-.036.108-.018.215-.044.321-.076.117-.036.223-.081.32-.135a1.45 1.45 0 0 0 .263-.188h-.005a1.39 1.39 0 0 0 .449-1.049c0-.316-.093-.618-.28-.906h.006c-.17-.254-.442-.47-.817-.646a3.753 3.753 0 0 0-.593-.23v3.266zm-2.213-3.37v3.375h.877V23.03h-.877z"/>
    </g>
</svg>
