<svg xmlns="http://www.w3.org/2000/svg" width="40" height="28" viewBox="0 0 40 28">
    <g fill="none" fill-rule="evenodd">
        <path fill="#263238" stroke="#263238" stroke-width=".2" d="M36.498.125H5.952c-1.496 0-2.74 1.103-2.998 2.553C1.532 2.94.45 4.209.45 5.734V24.7c0 1.715 1.368 3.11 3.05 3.11h30.546c1.494 0 2.74-1.104 2.998-2.553 1.421-.264 2.504-1.533 2.504-3.057V3.234c0-1.714-1.368-3.109-3.05-3.109zm-2.452 3.75c1.006 0 1.824.834 1.824 1.86v1.363H1.676V5.734c0-1.025.82-1.859 1.824-1.859h30.546zm1.823 4.473v1.654H1.676V8.348h34.193zM3.5 26.558c-1.006 0-1.824-.833-1.824-1.859V11.252H35.87v13.447c0 1.026-.818 1.86-1.824 1.86H3.5zM38.321 22.2c0 .81-.515 1.494-1.226 1.748V5.734c0-1.715-1.368-3.11-3.05-3.11H4.237c.249-.724.92-1.25 1.714-1.25h30.547c1.005 0 1.823.835 1.823 1.86V22.2z"/>
        <path fill="#A6192E" stroke="#A6192E" stroke-width=".5" d="M30.56 23.096a1.75 1.75 0 0 1-1.2-.487l-.417-.392-.418.392a1.741 1.741 0 0 1-1.2.487c-.976 0-1.771-.81-1.771-1.807 0-.996.795-1.806 1.772-1.806.44 0 .867.173 1.199.486l.418.392.417-.392a1.745 1.745 0 0 1 1.2-.486c.976 0 1.771.81 1.771 1.806s-.795 1.807-1.772 1.807zM4.755 20.63h6.93v1.29h-6.93z"/>
    </g>
</svg>
