<?xml version="1.0" encoding="UTF-8"?>
<svg width="42px" height="42px" viewBox="0 0 42 42" version="1.1" xmlns="http://www.w3.org/2000/svg" xmlns:xlink="http://www.w3.org/1999/xlink">
    <!-- Generator: Sketch 50.2 (55047) - http://www.bohemiancoding.com/sketch -->
    <title>[icon] / payment / ic_atm@3x</title>
    <desc>Created with Sketch.</desc>
    <defs>
        <path d="M2.4,0.6 C1.296,0.6 0.4,1.495 0.4,2.6 L0.4,7.133 C0.4,8.237 1.296,9.133 2.4,9.133 L2.656,9.133 L2.656,11.6 L6.677,9.133 L13.4,9.133 C14.505,9.133 15.4,8.237 15.4,7.133 L15.4,2.6 C15.4,1.495 14.505,0.6 13.4,0.6 L2.4,0.6 Z" id="path-1"></path>
        <path d="M2.4,0.6 C1.296,0.6 0.4,1.496 0.4,2.6 L0.4,24.6 C0.4,25.704 1.296,26.6 2.4,26.6 L38.4,26.6 C39.505,26.6 40.4,25.704 40.4,24.6 L40.4,2.6 C40.4,1.496 39.505,0.6 38.4,0.6 L2.4,0.6 Z" id="path-3"></path>
        <path d="M2.4,0.6 C1.295,0.6 0.4,1.495 0.4,2.6 L0.4,8.6 C0.4,9.704 1.295,10.6 2.4,10.6 L12.4,10.6 C13.505,10.6 14.4,9.704 14.4,8.6 L14.4,2.6 C14.4,1.495 13.505,0.6 12.4,0.6 L2.4,0.6 Z" id="path-5"></path>
    </defs>
    <g id="[icon]-/-payment-/-ic_atm" stroke="none" stroke-width="1" fill="none" fill-rule="evenodd">
        <g id="Group" transform="translate(1.000000, 7.000000)">
            <g id="Group-3" transform="translate(21.000000, 4.800000)">
                <mask id="mask-2" fill="white">
                    <use xlink:href="#path-1"></use>
                </mask>
                <g id="Clip-2"></g>
                <path d="M2.4,0.6 L13.4,0.6 C14.505,0.6 15.4,1.496 15.4,2.6 L15.4,7.133 C15.4,8.237 14.505,9.133 13.4,9.133 L6.676,9.133 L2.657,11.6 L2.657,9.133 L2.4,9.133 C1.296,9.133 0.4,8.237 0.4,7.133 L0.4,2.6 C0.4,1.496 1.296,0.6 2.4,0.6 Z" id="Stroke-1" stroke="#56687A" stroke-width="2.8" mask="url(#mask-2)"></path>
            </g>
            <g id="Group-6" transform="translate(0.000000, 0.800000)">
                <mask id="mask-4" fill="white">
                    <use xlink:href="#path-3"></use>
                </mask>
                <g id="Clip-5"></g>
                <path d="M2.4,0.6 L38.4,0.6 C39.505,0.6 40.4,1.496 40.4,2.6 L40.4,24.6 C40.4,25.704 39.505,26.6 38.4,26.6 L2.4,26.6 C1.296,26.6 0.4,25.704 0.4,24.6 L0.4,2.6 C0.4,1.496 1.296,0.6 2.4,0.6 Z" id="Stroke-4" stroke="#56687A" stroke-width="2.8" mask="url(#mask-4)"></path>
            </g>
            <path d="M13.4,15.4 C15.057,15.4 16.4,14.057 16.4,12.4 C16.4,10.743 15.057,9.4 13.4,9.4 C11.743,9.4 10.4,10.743 10.4,12.4 C10.4,14.057 11.743,15.4 13.4,15.4 Z" id="Stroke-7" stroke="#56687A" stroke-width="1.4"></path>
            <g id="Group-11" transform="translate(6.000000, 16.800000)">
                <mask id="mask-6" fill="white">
                    <use xlink:href="#path-5"></use>
                </mask>
                <g id="Clip-10"></g>
                <path d="M2.4,0.6 L12.4,0.6 C13.504,0.6 14.4,1.496 14.4,2.6 L14.4,8.6 C14.4,9.704 13.504,10.6 12.4,10.6 L2.4,10.6 C1.296,10.6 0.4,9.704 0.4,8.6 L0.4,2.6 C0.4,1.496 1.296,0.6 2.4,0.6 Z" id="Stroke-9" stroke="#56687A" stroke-width="2.8" mask="url(#mask-6)"></path>
            </g>
        </g>
    </g>
</svg>