<?xml version="1.0" encoding="UTF-8"?>
<svg width="42px" height="42px" viewBox="0 0 42 42" version="1.1" xmlns="http://www.w3.org/2000/svg" xmlns:xlink="http://www.w3.org/1999/xlink">
    <!-- Generator: Sketch 50.2 (55047) - http://www.bohemiancoding.com/sketch -->
    <title>[icon] / payment / ic_banktransfer@3x</title>
    <desc>Created with Sketch.</desc>
    <defs>
        <path d="M2.25,0.001 C1.009,0.001 0,1.025 0,2.283 L0,8.354 C0,8.965 0.235,9.54 0.663,9.971 C1.09,10.403 1.642,10.669 2.261,10.637 L5.247,10.625 L5.242,9.103 L2.255,9.115 L2.252,9.115 C2.051,9.115 1.863,9.036 1.72,8.893 C1.578,8.749 1.5,8.558 1.5,8.354 L1.5,2.283 C1.5,1.863 1.836,1.522 2.25,1.522 L33.75,1.522 C34.163,1.522 34.5,1.863 34.5,2.283 L34.5,8.369 C34.5,8.789 34.163,9.13 33.75,9.13 L30.369,9.127 L30.369,10.648 L33.748,10.652 C34.991,10.652 36,9.628 36,8.369 L36,2.283 C36,1.025 34.991,0.001 33.75,0.001 L2.25,0.001 Z" id="path-1"></path>
        <polygon id="path-3" points="0 0.5999 13.0001 0.5999 13.0001 22.6 0 22.6"></polygon>
        <polygon id="path-5" points="0 0.6 18 0.6 18 26.6 0 26.6"></polygon>
        <path d="M2.615,0 L2.615,1.162 C1.765,1.234 1.124,1.479 0.695,1.895 C0.266,2.313 0.05,2.832 0.05,3.456 C0.05,3.692 0.081,3.914 0.142,4.122 C0.203,4.332 0.28,4.511 0.373,4.662 C0.465,4.815 0.588,4.959 0.739,5.099 C0.891,5.237 1.033,5.35 1.165,5.437 C1.299,5.523 1.462,5.612 1.659,5.702 C1.855,5.792 2.016,5.862 2.142,5.908 C2.268,5.954 2.426,6.008 2.615,6.072 L2.615,8.504 C2.258,8.504 1.881,8.447 1.485,8.333 C1.089,8.22 0.733,8.072 0.417,7.891 L0,9.225 C0.674,9.625 1.546,9.837 2.615,9.862 L2.615,11 L3.443,11 L3.443,9.806 C4.193,9.717 4.796,9.464 5.254,9.047 C5.711,8.63 5.939,8.072 5.939,7.374 C5.939,7.15 5.912,6.941 5.857,6.745 C5.801,6.549 5.732,6.378 5.648,6.23 C5.565,6.082 5.451,5.941 5.311,5.806 C5.169,5.671 5.035,5.559 4.906,5.469 C4.777,5.378 4.62,5.287 4.432,5.194 C4.244,5.101 4.082,5.026 3.946,4.969 C3.809,4.912 3.641,4.848 3.443,4.776 L3.443,2.508 C4.028,2.55 4.598,2.694 5.15,2.938 L5.566,1.693 C4.9,1.369 4.193,1.188 3.443,1.149 L3.443,0 L2.615,0 Z M1.895,4.06 C1.727,3.897 1.643,3.687 1.643,3.431 C1.643,3.208 1.724,3.018 1.889,2.862 C2.053,2.706 2.295,2.601 2.615,2.546 L2.615,4.493 C2.304,4.366 2.064,4.222 1.895,4.06 Z M3.443,6.356 C3.739,6.483 3.965,6.621 4.123,6.773 C4.28,6.925 4.36,7.116 4.36,7.348 C4.36,7.862 4.055,8.212 3.443,8.397 L3.443,6.356 Z" id="path-7"></path>
    </defs>
    <g id="[icon]-/-payment-/-ic_banktransfer" stroke="none" stroke-width="1" fill="none" fill-rule="evenodd">
        <g id="Group" transform="translate(3.000000, 6.000000)">
            <g id="Group-3" transform="translate(0.000000, -0.000400)">
                <mask id="mask-2" fill="white">
                    <use xlink:href="#path-1"></use>
                </mask>
                <g id="Clip-2"></g>
                <polygon id="Fill-1" fill="#56687A" mask="url(#mask-2)" points="-5 15.651 41 15.651 41 -5 -5 -5"></polygon>
            </g>
            <polygon id="Fill-4" fill="#56687A" points="0.75 6.0866 35.25 6.0866 35.25 4.5656 0.75 4.5656"></polygon>
            <g id="Group-7" transform="translate(12.000000, 3.999600)">
                <mask id="mask-4" fill="white">
                    <use xlink:href="#path-3"></use>
                </mask>
                <g id="Clip-6"></g>
                <polygon id="Fill-5" fill="#56687A" mask="url(#mask-4)" points="-1.3999 0.5999 -4.9999 0.5999 -4.9999 26.5999 13.0001 26.5999 13.0001 23.9999 -1.3999 23.9999"></polygon>
            </g>
            <polygon id="Fill-8" fill="#56687A" points="24.9997 4.5991 24.9997 5.9991 27.5997 5.9991 27.5997 25.1991 24.9997 25.1991 24.9997 26.6001 29.0007 26.6001 29.0007 4.5991"></polygon>
            <g id="Group-11" transform="translate(7.000000, 3.999600)">
                <mask id="mask-6" fill="white">
                    <use xlink:href="#path-5"></use>
                </mask>
                <g id="Clip-10"></g>
                <polygon id="Stroke-9" stroke="#56687A" stroke-width="2.8" mask="url(#mask-6)" points="0 26.6 18 26.6 18 0.6 0 0.6"></polygon>
            </g>
            <g id="Group-14" transform="translate(13.000000, 12.999600)">
                <mask id="mask-8" fill="white">
                    <use xlink:href="#path-7"></use>
                </mask>
                <g id="Clip-13"></g>
                <polygon id="Fill-12" fill="#56687A" mask="url(#mask-8)" points="-5 16 10.939 16 10.939 -5 -5 -5"></polygon>
            </g>
        </g>
    </g>
</svg>