<?xml version="1.0" encoding="UTF-8"?>
<svg width="42px" height="42px" viewBox="0 0 42 42" version="1.1" xmlns="http://www.w3.org/2000/svg" xmlns:xlink="http://www.w3.org/1999/xlink">
    <!-- Generator: Sketch 50.2 (55047) - http://www.bohemiancoding.com/sketch -->
    <title>[icon] / payment / ic_creditterms@3x</title>
    <desc>Created with Sketch.</desc>
    <defs>
        <path d="M31.891613,0.311761134 L28.3756829,2.99642844 C26.2813045,1.31126112 21.9704954,2.55416265 20.0002207,3.25950927 C18.0289204,2.55416265 13.7088803,1.31126112 11.6268098,2.9974642 L8.10882843,0.311761134 C7.84215929,0.106682382 7.52523327,0 7.1970251,0 C7.12112697,0 7.04522883,0.00517875638 6.96830504,0.0165720204 C6.56214743,0.0766455945 6.20316974,0.297260616 5.95906491,0.633879781 L0.303627881,8.42376513 C-0.203043481,9.1218615 -0.0604780572,10.111004 0.618502595,10.6299154 L4.80110546,13.8241723 C4.7693103,14.8485303 5.03803074,15.8677096 5.57649726,16.7232401 C5.9426545,17.3022251 6.39906899,17.8584235 6.92727901,18.3856209 C6.57240393,19.1707204 6.65445597,20.109111 7.17035819,20.8248152 C7.48625855,21.2556877 7.93857044,21.5612343 8.44011355,21.6989892 L7.50779722,22.4115861 C7.00830541,22.7896353 6.68317419,23.3479053 6.59189129,23.9807493 C6.50163404,24.6177363 6.65753292,25.2495446 7.03292102,25.7612058 C7.40523216,26.2697596 7.94882694,26.6012 8.56319161,26.6933819 C8.67909012,26.7109897 8.79498863,26.7203114 8.90883584,26.7203114 C9.40422505,26.7203114 9.8862808,26.5587342 10.2924384,26.2511161 L10.4760299,26.1102539 C10.4585938,26.6509161 10.6052618,27.1770778 10.9221878,27.613129 C11.2893707,28.1237544 11.8339912,28.4551948 12.456561,28.5494482 C12.5745108,28.567056 12.691435,28.575342 12.8073335,28.575342 C13.307851,28.575342 13.7878554,28.4137648 14.1868335,28.1061466 L16.2555706,26.5245544 C16.2463397,27.0590021 16.398136,27.5810208 16.7171133,28.0201793 C17.1807074,28.6582021 17.8914832,28.9989642 18.6012334,28.9989642 C19.0648274,28.9989642 19.5284214,28.8529233 19.9253482,28.5525554 L20.0012463,28.4945534 L20.0791958,28.5535912 C20.4740712,28.8549948 20.9376653,29 21.4002337,29 C22.1099838,29 22.8207597,28.6592378 23.286405,28.0201793 C23.6012797,27.584128 23.753076,27.0641809 23.7448708,26.5255902 L25.8125823,28.1061466 C26.2146373,28.4137648 26.696693,28.575342 27.1961848,28.575342 C27.313109,28.575342 27.4290075,28.5660202 27.5459317,28.5494482 C28.1643989,28.4551948 28.7079937,28.1237544 29.0782535,27.613129 C29.3951796,27.176042 29.5428732,26.6509161 29.5244115,26.1092182 L29.7100543,26.2511161 C30.1151862,26.5587342 30.5962163,26.7203114 31.0926312,26.7203114 C31.207504,26.7203114 31.3223769,26.7109897 31.4382754,26.6933819 C32.0475118,26.6022358 32.5911066,26.2707954 32.9705973,25.7591343 C33.3418828,25.2474731 33.4977817,24.6156648 33.4054731,23.9797136 C33.3131646,23.3468695 32.989059,22.7896353 32.4926442,22.4126219 L31.5593022,21.6989892 C32.0608453,21.5612343 32.5121315,21.2556877 32.8300832,20.8237794 C33.350088,20.1080753 33.4321401,19.1655416 33.0721367,18.3835494 C33.6085519,17.8511733 34.0649664,17.2939391 34.4218928,16.7232401 C34.9716415,15.853209 35.2352337,14.8547448 35.2013872,13.8231365 L39.3819388,10.6299154 C40.0609194,10.111004 40.2024592,9.12082574 39.6968135,8.42376513 L34.0434278,0.633879781 C33.7982973,0.297260616 33.4403453,0.0766455945 33.033162,0.0165720204 C32.9572639,0.00517875638 32.8823914,0 32.8075189,0 C32.4793107,0 32.161359,0.106682382 31.891613,0.311761134 Z M34.2280449,10.935462 L28.9931246,3.66345227 L32.4228999,1.04300154 C32.5623884,0.937354906 32.7346977,0.891781849 32.90393,0.918711383 C33.0762393,0.943569413 33.2280356,1.03678703 33.3306007,1.17868495 L38.985012,8.96857031 C39.1983473,9.26272367 39.1388596,9.68013143 38.8516775,9.89867495 L35.067027,12.7904925 C34.9111281,12.1255402 34.6300999,11.4937319 34.2280449,10.935462 Z M1.14978957,9.8997107 C0.862607421,9.68013143 0.80311969,9.26272367 1.01542935,8.96857031 L6.67189203,1.1797207 C6.77445709,1.03678703 6.92522771,0.943569413 7.097537,0.918711383 C7.26779499,0.891781849 7.43907863,0.937354906 7.5785671,1.04403729 L11.0073168,3.66241651 L5.77547347,10.935462 C5.37239281,11.4937319 5.09239021,12.1265759 4.93751698,12.7915283 L1.14978957,9.8997107 Z M14.5899141,9.1260045 C14.1827309,8.94889103 13.900677,8.65888067 13.795035,8.30465374 L13.6914443,7.97114183 C13.6709313,7.907961 13.6473413,7.84063717 13.6237513,7.77434908 C13.5499045,7.56616308 13.4493907,7.28340298 13.5058015,7.16843459 C13.5375967,7.10214651 13.6534952,7.03378692 13.8227275,6.97992785 C13.8381123,6.9747491 13.8545227,6.96957034 13.8719588,6.96128433 L19.4371385,4.44648023 C19.6699612,4.35119111 19.9079121,4.260045 20.14894,4.17097039 C23.8935901,2.80481446 26.9161822,2.69813208 28.0341413,3.89338905 C28.0864495,3.95035537 28.1356807,4.00939319 28.178758,4.06635951 L33.5131664,11.4761241 C33.9695809,12.1120754 34.2434296,12.8598879 34.3049687,13.6418801 C34.3808668,14.5616272 34.1634289,15.4554806 33.6762449,16.2291868 C33.373678,16.7128826 32.9900847,17.1862209 32.5408497,17.644023 C32.4803364,17.5849852 32.419823,17.5249116 32.3531557,17.4741598 L24.155131,11.1488267 C24.3941076,11.172649 24.6371867,11.1881853 24.8905224,11.1912925 L24.9448819,11.1912925 C25.9048908,11.1912925 26.8218224,10.9934641 27.5961885,10.6195578 C27.8187547,10.5139112 27.9131145,10.2415086 27.8105495,10.0136433 C27.7059331,9.78577806 27.4413153,9.68634594 27.2177235,9.79613558 C26.546948,10.11929 25.7448893,10.2819029 24.8966763,10.2808672 C23.8751284,10.2705097 22.9858894,10.0675024 22.2546006,9.67805993 L22.1684459,9.59727133 L22.1407534,9.59727133 L21.1663853,8.8453159 C21.0135634,8.68270295 20.8740749,8.50248223 20.7386891,8.29740348 C20.7397147,8.25079467 20.7386891,8.20315011 20.72433,8.1544698 C20.6525344,7.91417551 20.4022757,7.77849209 20.169453,7.85203043 L20.002272,7.90485374 L19.8361166,7.85203043 C19.6094478,7.78159934 19.3755995,7.90485374 19.2925218,8.12754027 L15.8453104,9.21197186 C15.6914628,9.26065217 15.5242818,9.28447445 15.3519725,9.28447445 C15.0955598,9.28447445 14.830942,9.23061538 14.5899141,9.1260045 Z M20.6115084,27.8244223 L10.7816737,20.3193685 C10.7703916,20.3110825 10.7580838,20.3038323 10.7457759,20.2945105 L8.56421726,18.6279867 C8.28831727,18.4156577 8.02575073,18.1940069 7.78164591,17.9640701 C7.19599945,17.4171935 6.70471285,16.8330298 6.32317085,16.228151 C5.8452177,15.4689453 5.62367719,14.5512697 5.69854968,13.6398086 C5.76008871,12.8609236 6.0339374,12.1120754 6.49035189,11.4761241 L11.8175807,4.07257402 C11.8616837,4.01250045 11.907838,3.95656988 11.9683514,3.8944248 C12.9693863,2.82552948 15.4935123,2.8017072 18.6955932,3.78567092 L13.5355454,6.11611129 C13.1314391,6.24868745 12.8534878,6.46619522 12.7109224,6.76138434 C12.4832279,7.22643666 12.6596398,7.72256152 12.7878462,8.08403872 C12.8083592,8.14411229 12.8298978,8.20107861 12.8463082,8.25286617 L12.946822,8.57705632 C13.1273365,9.17986357 13.6001614,9.68531019 14.2432443,9.96496303 C14.596068,10.1182542 14.9765844,10.1969713 15.3509468,10.1969713 C15.6104364,10.1969713 15.8678747,10.1586485 16.1068513,10.0820029 L19.790988,8.92299725 L20.598175,9.54651952 C20.9284344,9.89142469 21.3079251,10.1886853 21.7356214,10.4279439 L21.821776,10.510804 L21.8494686,10.510804 L31.8228944,18.2064359 C31.950075,18.3017251 32.058794,18.4198007 32.1500769,18.5596271 C32.4998237,19.08061 32.4864903,19.7704204 32.1182817,20.2769027 C31.6639185,20.8983535 30.7685256,21.0578592 30.1203145,20.5969499 C30.1131349,20.5907354 30.106981,20.5855566 30.0998015,20.5793421 L29.7562085,20.317297 C29.7551829,20.317297 29.7541572,20.3162613 29.7541572,20.3152255 L21.0094608,13.6398086 C20.8125359,13.4896246 20.5345846,13.5310547 20.3879166,13.7319904 C20.3499675,13.7848137 20.3263776,13.8417801 20.3120185,13.8997821 C20.3109928,13.9080681 20.3130441,13.9153184 20.3109928,13.9225687 C20.3027876,13.9733205 20.2976593,14.0220008 20.3048389,14.0717168 C20.3202237,14.187721 20.3797114,14.2995821 20.4791995,14.375192 L29.1879982,21.0205722 C29.200306,21.0309297 29.2126138,21.0423229 29.2249216,21.0526805 L29.5490271,21.2971178 C29.5572323,21.3033323 29.5664632,21.3116183 29.5746684,21.3178328 L29.581848,21.3230115 L31.9644341,23.1459338 C32.2711037,23.3789778 32.4731568,23.7228472 32.5285419,24.115397 C32.5849527,24.5089825 32.4905929,24.8994607 32.2628984,25.2122576 C32.0280245,25.5302332 31.6885341,25.735312 31.3100691,25.793314 C30.9295528,25.8492446 30.5480108,25.7529197 30.2403156,25.5209115 L20.2699668,17.9029608 C20.2586846,17.8946748 20.2474025,17.8884603 20.2350947,17.8801743 L19.7725263,17.5249116 C19.7715006,17.5228401 19.7694493,17.5228401 19.7663724,17.5207686 L19.1407255,17.0422515 C18.942775,16.8910318 18.6648237,16.9355691 18.5191813,17.1365049 C18.3735389,17.3384764 18.4135393,17.6243437 18.6104642,17.7734919 L19.7345772,18.6342012 C19.7448337,18.6424872 19.7571415,18.6507732 19.7694493,18.6580235 L28.0710647,24.9999286 C28.3777342,25.2340084 28.5777361,25.5789135 28.6331212,25.9714633 C28.689532,26.3650488 28.5951721,26.755527 28.3664521,27.0703954 C28.137732,27.3852638 27.8023443,27.5893068 27.4177253,27.6473088 C27.0300294,27.7053109 26.6495131,27.6079503 26.3448949,27.3749062 L17.5284029,20.6404514 C17.5273773,20.6394157 17.525326,20.6394157 17.5243003,20.6383799 L17.1048092,20.3183328 C17.0945527,20.3110825 17.0842962,20.3038323 17.0740397,20.2955463 L16.8607044,20.1329333 C16.6648052,19.9806779 16.3858282,20.0210722 16.2381345,20.2220079 C16.0904409,20.4239794 16.1304412,20.7098468 16.3263405,20.8610665 L16.5694197,21.0495732 C16.5807018,21.0578592 16.5940353,21.067181 16.6073687,21.075467 L22.335627,25.4494446 C22.4679359,25.5499125 22.5807574,25.6793814 22.6720403,25.8316368 C22.7633232,25.9869995 22.8269136,26.1661845 22.8525548,26.3505482 C22.9069143,26.7524197 22.8084518,27.1522197 22.5735779,27.4743384 C22.2822931,27.8751741 21.8402377,28.0885389 21.4002337,28.0885389 C21.1222824,28.0885389 20.8463824,28.0036073 20.6115084,27.8244223 Z M7.88318531,20.28001 C7.62164442,19.9185328 7.54266933,19.463838 7.64318309,19.0443587 C7.7693381,19.1500054 7.89857007,19.255652 8.03190464,19.3571556 L9.75089493,20.671524 C9.53038006,20.7958141 9.28524959,20.8538162 9.04422171,20.8538162 C8.59498678,20.8538162 8.15395705,20.650809 7.88318531,20.28001 Z M8.69344923,25.793314 C8.31293288,25.735312 7.97446821,25.5302332 7.74369684,25.2143291 C7.51292547,24.8984249 7.41651432,24.5079467 7.4729251,24.1133255 C7.52831023,23.7228472 7.72831208,23.3789778 8.03805854,23.1438623 L10.425773,21.3199043 C10.4267986,21.3188685 10.4278243,21.3178328 10.4288499,21.316797 L10.5139789,21.2525804 L12.9334885,23.099325 L11.4032179,24.2666167 C11.4032179,24.2676524 11.4021923,24.2676524 11.4011666,24.2676524 L9.76525404,25.51884 C9.512944,25.7104539 9.2124284,25.8078146 8.90370759,25.8078146 C8.83396335,25.8078146 8.76319347,25.8026358 8.69344923,25.793314 Z M12.5868186,27.6483446 C12.2001484,27.5893068 11.8627094,27.3852638 11.6370663,27.0703954 C11.4073205,26.755527 11.3129607,26.3650488 11.3693715,25.9714633 C11.4257822,25.5789135 11.6247584,25.2350441 11.9334793,24.9999286 L13.6791365,23.6679524 L16.0935178,25.5115897 L13.6545209,27.3769777 C13.410416,27.5644487 13.1160543,27.6649166 12.8083592,27.6649166 C12.7345123,27.6649166 12.6606655,27.6587021 12.5868186,27.6483446 Z M17.4299405,27.4743384 C17.1930152,27.1491125 17.0935271,26.7493125 17.1499379,26.3536555 C17.1509635,26.343298 17.1550661,26.3339762 17.1571174,26.3236187 L19.2402136,27.9134969 C19.0381605,28.0274296 18.8155943,28.0823244 18.5920025,28.0823244 C18.5909769,28.0823244 18.5899512,28.0823244 18.5889256,28.0823244 C18.1550754,28.0823244 17.7181483,27.8720669 17.4299405,27.4743384 Z" id="path-1"></path>
    </defs>
    <g id="[icon]-/-payment-/-ic_creditterms" stroke="none" stroke-width="1" fill="none" fill-rule="evenodd">
        <g id="Group-3" transform="translate(1.000000, 7.000000)">
            <mask id="mask-2" fill="white">
                <use xlink:href="#path-1"></use>
            </mask>
            <use id="Clip-2" stroke="#56687A" stroke-width="0.3" xlink:href="#path-1"></use>
            <polygon id="Fill-1" fill="#56687A" mask="url(#mask-2)" points="-5 34 45 34 45 -5 -5 -5"></polygon>
        </g>
    </g>
</svg>