<?xml version="1.0" encoding="UTF-8"?>
<svg width="42px" height="42px" viewBox="0 0 42 42" version="1.1" xmlns="http://www.w3.org/2000/svg" xmlns:xlink="http://www.w3.org/1999/xlink">
    <!-- Generator: Sketch 50.2 (55047) - http://www.bohemiancoding.com/sketch -->
    <title>[icon] / payment / ic_onlinebanking@3x</title>
    <desc>Created with Sketch.</desc>
    <defs>
        <path d="M2.4,0 C1.296,0 0.4,0.896 0.4,2 L0.4,34 C0.4,35.105 1.296,36 2.4,36 L19.4,36 C20.505,36 21.4,35.105 21.4,34 L21.4,2 C21.4,0.896 20.505,0 19.4,0 L2.4,0 Z" id="path-1"></path>
        <path d="M3.016,0 L3.016,1.163 C2.165,1.234 1.525,1.479 1.094,1.895 C0.665,2.312 0.451,2.832 0.451,3.456 C0.451,3.692 0.482,3.914 0.542,4.123 C0.603,4.331 0.68,4.511 0.772,4.663 C0.865,4.814 0.987,4.96 1.139,5.098 C1.291,5.238 1.433,5.35 1.565,5.437 C1.698,5.523 1.863,5.611 2.058,5.702 C2.255,5.793 2.416,5.862 2.542,5.908 C2.669,5.954 2.826,6.008 3.016,6.072 L3.016,8.504 C2.658,8.504 2.281,8.447 1.885,8.334 C1.489,8.22 1.133,8.072 0.817,7.891 L0.4,9.225 C1.074,9.625 1.946,9.838 3.016,9.862 L3.016,11 L3.843,11 L3.843,9.805 C4.594,9.717 5.197,9.464 5.654,9.048 C6.111,8.631 6.34,8.072 6.34,7.373 C6.34,7.15 6.312,6.941 6.258,6.745 C6.202,6.548 6.133,6.376 6.048,6.23 C5.964,6.082 5.851,5.942 5.71,5.807 C5.569,5.672 5.434,5.559 5.306,5.468 C5.178,5.378 5.02,5.286 4.833,5.193 C4.645,5.101 4.483,5.027 4.345,4.969 C4.208,4.912 4.042,4.848 3.843,4.776 L3.843,2.508 C4.429,2.551 4.998,2.694 5.549,2.938 L5.966,1.693 C5.3,1.369 4.594,1.188 3.843,1.15 L3.843,0 L3.016,0 Z M2.296,4.06 C2.127,3.897 2.043,3.687 2.043,3.431 C2.043,3.208 2.125,3.018 2.29,2.862 C2.453,2.706 2.695,2.601 3.016,2.546 L3.016,4.492 C2.704,4.366 2.464,4.222 2.296,4.06 Z M3.843,6.357 C4.138,6.483 4.365,6.621 4.523,6.773 C4.68,6.925 4.759,7.116 4.759,7.348 C4.759,7.862 4.455,8.212 3.843,8.396 L3.843,6.357 Z" id="path-3"></path>
        <path d="M0.4,1.5 C0.4,2.328 1.072,3 1.9,3 C2.728,3 3.4,2.328 3.4,1.5 C3.4,0.672 2.728,0 1.9,0 C1.072,0 0.4,0.672 0.4,1.5 Z" id="path-5"></path>
    </defs>
    <g id="[icon]-/-payment-/-ic_onlinebanking" stroke="none" stroke-width="1" fill="none" fill-rule="evenodd">
        <g id="Group" transform="translate(10.000000, 3.000000)">
            <g id="Group-3" transform="translate(0.000000, 0.400000)">
                <mask id="mask-2" fill="white">
                    <use xlink:href="#path-1"></use>
                </mask>
                <g id="Clip-2"></g>
                <path d="M2.4,0 L19.4,0 C20.504,0 21.4,0.896 21.4,2 L21.4,34 C21.4,35.104 20.504,36 19.4,36 L2.4,36 C1.296,36 0.4,35.104 0.4,34 L0.4,2 C0.4,0.896 1.296,0 2.4,0 Z" id="Stroke-1" stroke="#56687A" stroke-width="2.8" mask="url(#mask-2)"></path>
            </g>
            <g id="Group-6" transform="translate(8.000000, 12.400000)">
                <mask id="mask-4" fill="white">
                    <use xlink:href="#path-3"></use>
                </mask>
                <g id="Clip-5"></g>
                <polygon id="Fill-4" fill="#56687A" mask="url(#mask-4)" points="-4.6 16 11.339 16 11.339 -5 -4.6 -5"></polygon>
            </g>
            <path d="M1.4615,7.1998 L19.9385,7.1998" id="Stroke-7" stroke="#56687A" stroke-width="1.2" stroke-linecap="square"></path>
            <path d="M8.9,4.9 L12.9,4.9" id="Stroke-9" stroke="#56687A" stroke-width="1.3" stroke-linecap="round"></path>
            <path d="M1.4615,30.1998 L19.9385,30.1998" id="Stroke-10" stroke="#56687A" stroke-width="1.2" stroke-linecap="square"></path>
            <g id="Group-14" transform="translate(9.000000, 31.400000)">
                <mask id="mask-6" fill="white">
                    <use xlink:href="#path-5"></use>
                </mask>
                <g id="Clip-13"></g>
                <polygon id="Fill-12" fill="#56687A" mask="url(#mask-6)" points="-4.6 8 8.4 8 8.4 -5 -4.6 -5"></polygon>
            </g>
        </g>
    </g>
</svg>