<svg xmlns="http://www.w3.org/2000/svg" width="49" height="34" viewBox="0 0 49 34">
    <g fill="none" fill-rule="evenodd">
        <path fill="#263238" d="M8.76 22.136l-6.515-.322a.746.746 0 0 0-.746.628L.006 32.613c-.028.2.041.4.187.537.16.12.367.161.56.113l7.335-.187a.641.641 0 0 0 .746-.567l.633-9.574h.002a.749.749 0 0 0-.71-.8v.001zm-3.784 9.708l-3.357.143 1.216-8.634 2.984.142-.865 8.214c.003.049.01.096.022.143v-.008zm2.41-.074h-.924l.865-8.214h.605l-.546 8.214zm29.93-5.176A2.018 2.018 0 0 0 36.25 25.1a1.994 1.994 0 0 0-2.037.135 21.415 21.415 0 0 1-6.679 2.24l.217-.12h-.001a2.24 2.24 0 0 0 1.015-1.56c0-.067.105-1.666-2.104-2.182-.245-.081-6.066-1.98-8.47-2.076-.857-.128-3.208.082-7.014.634v.001a.746.746 0 0 0-.641.703l-.477 9.708a.745.745 0 0 0 1.2.628c.493-.388 2.03-1.307 3.156-.97 1.791.53 10.274 1.701 10.655 1.754h.001c.134.007.269.007.404 0a7.94 7.94 0 0 0 3.17-.702c.986-.44 6.216-2.912 7.396-4.07.924-.904 1.358-1.815 1.276-2.629zm-2.312 1.569c-.807.8-4.963 2.882-6.954 3.771h-.002a6.197 6.197 0 0 1-2.783.567c-2.984-.41-9.066-1.3-10.446-1.702a4.61 4.61 0 0 0-3.224.455l.396-7.7c4.753-.664 5.812-.575 5.969-.56h.171c2.157.09 7.992 2.001 8.127 2.055.426.02.81.26 1.014.634a.755.755 0 0 1-.327.426c-1.03.657-3.768.253-5.328-.171-.612-.113-1.753-.307-2.126.462h-.002a1.099 1.099 0 0 0 .388 1.299l.127.09c5.97 3.346 13.476-.456 14.924-1.255.158-.099.338-.157.523-.164a.577.577 0 0 1 .365.411 2.122 2.122 0 0 1-.827 1.39l.015-.008z"/>
        <path fill="#A6192E" d="M20.074 18.298a9.16 9.16 0 0 1-11.25-6.38 9.224 9.224 0 0 1 2.509-8.715A9.208 9.208 0 0 1 20.088.858a9.225 9.225 0 0 1 6.531 6.292 9.171 9.171 0 0 1-.972 6.927 9.155 9.155 0 0 1-5.573 4.221zM15.76 2.204a7.655 7.655 0 0 0-4.678 3.524 7.664 7.664 0 0 0-.819 5.804 7.736 7.736 0 0 0 5.476 5.256 7.718 7.718 0 0 0 7.324-1.962 7.732 7.732 0 0 0 2.113-7.29 7.656 7.656 0 0 0-9.416-5.333zm1.324 8.027a3.226 3.226 0 0 1-2.353-.97 1.92 1.92 0 0 1-.418-1.729 3.346 3.346 0 0 1 1.534-1.918L15.6 4.69a.745.745 0 1 1 1.442-.386l.18.671c.43-.146.877-.243 1.33-.287a.759.759 0 0 1 .12 1.515c-.364.026-.72.097-1.065.207l.62 2.316a3.234 3.234 0 0 1 2.387.953c.412.474.568 1.119.417 1.729a3.369 3.369 0 0 1-1.559 1.963l.286 1.068a.747.747 0 0 1-1.442.387l-.213-.795-.216.059a5.86 5.86 0 0 1-1.093.184.757.757 0 0 1-.816-.697.757.757 0 0 1 .696-.816c.352-.027.7-.095 1.035-.2l-.624-2.33zm1.56.053l.042-.012.416 1.552c.247-.19.43-.45.527-.744a.436.436 0 0 0-.11-.412 1.554 1.554 0 0 0-.875-.384zm-2.88-2.414a.433.433 0 0 0 .095.415c.224.208.505.343.807.387v.001l-.405-1.515c-.233.182-.406.43-.497.712z"/>
        <g fill="#263238">
            <path d="M47.378 13.482L36.802 7.376c-1.567-.906-3.55-.393-4.44 1.148l-3.642 6.31c-.89 1.54-.342 3.513 1.225 4.418l10.576 6.106c1.568.906 3.55.393 4.44-1.148l3.643-6.31c.89-1.54.342-3.513-1.226-4.418zM36.16 8.489l10.575 6.106c.945.545 1.272 1.724.736 2.652l-.322.556-13.975-8.068.322-.557c.535-.928 1.72-1.234 2.664-.689zm5.004 15.756l-10.576-6.106c-.944-.545-1.271-1.724-.735-2.651l2.678-4.64 13.976 8.069-2.679 4.64c-.536.927-1.72 1.233-2.664.688z"/>
            <path d="M32.863 14.504l3.626 2.093c.32.185.706.086.888-.23a.637.637 0 0 0-.245-.883l-3.626-2.094a.637.637 0 0 0-.888.23.637.637 0 0 0 .245.884zM40.398 20.339l-8.178-4.722a.637.637 0 0 0-.888.23.637.637 0 0 0 .245.884l8.178 4.721c.32.185.706.086.888-.23a.637.637 0 0 0-.245-.883z"/>
        </g>
    </g>
</svg>
