<?xml version="1.0" encoding="utf-8"?>
<!-- Generator: Adobe Illustrator 22.1.0, SVG Export Plug-In . SVG Version: 6.00 Build 0)  -->
<svg version="1.1" id="Layer_1" xmlns="http://www.w3.org/2000/svg" xmlns:xlink="http://www.w3.org/1999/xlink" x="0px" y="0px"
	 viewBox="0 0 119 104" style="enable-background:new 0 0 119 104;" xml:space="preserve">
<style type="text/css">
	.st0{fill:#EFEFEF;}
	.st1{fill:#4A4A4A;}
	.st2{fill:#A6192E;stroke:#A6192E;stroke-width:0.5;}
	.st3{fill:#A6192E;stroke:#A6192E;}
</style>
<g>
	<circle class="st0" cx="52" cy="52" r="52"/>
	<path class="st1" d="M92.2,102.3c0,1.1-0.5,1.6-1.6,1.7h-43c-0.9,0-1.7-0.8-1.7-1.7c0,0,0,0,0,0V64.7C42.4,63.3,40,60,40,56.1v-4.2
		c0-0.3,0.1-0.5,0.2-0.8l10.9-20.2c0.3-0.5,0.9-0.9,1.5-0.9h53.8c0.6,0,1.2,0.3,1.5,0.9l10.9,20.2c0.1,0.2,0.2,0.5,0.2,0.8v4.2
		c0,3.9-2.4,7.3-5.9,8.6v12.9c-0.3,1.1-0.9,1.7-1.7,1.7c-0.9,0-1.4-0.6-1.6-1.7V65.3c-3,0-5.8-1.5-7.6-3.9c-1.7,2.5-4.6,3.9-7.6,3.9
		c-3,0-5.8-1.5-7.6-3.9c-1.7,2.5-4.6,3.9-7.6,3.9c-3,0-5.8-1.5-7.6-3.9c-1.7,2.5-4.6,3.9-7.6,3.9c-3,0-5.8-1.5-7.6-3.9l-7.6,3.9
		v35.3H56V75.4c0-0.9,0.8-1.7,1.7-1.7h16.8c0.9,0,1.7,0.8,1.7,1.7v25.2h14.4C90.6,100.6,92.2,100.7,92.2,102.3L92.2,102.3z
		 M53.6,33.4l-9.1,16.8h11.1l5.6-16.8H53.6z M64.7,33.4l-5.6,16.8h11.3l2.1-16.8H64.7L64.7,33.4z M76,33.4l-2.1,16.8h11.3L83,33.4
		H76z M86.5,33.4l2.1,16.8h11.3l-5.6-16.8H86.5z M97.8,33.4l5.6,16.8h11.1l-9.1-16.8H97.8z M43.4,53.5v2.5c0,3.3,2.6,5.9,5.9,5.9
		c3.3,0,5.9-2.6,5.9-5.9v-2.5H43.4z M58.5,53.5v2.5c0,3.3,2.6,5.9,5.9,5.9c3.3,0,5.9-2.6,5.9-5.9v-2.5
		C70.3,53.5,58.5,53.5,58.5,53.5z M73.6,53.5v2.5c0,3.3,2.6,5.9,5.9,5.9c3.3,0,5.9-2.6,5.9-5.9v-2.5H73.6z M88.7,53.5v2.5
		c0,3.3,2.6,5.9,5.9,5.9c3.3,0,5.9-2.6,5.9-5.9v-2.5C100.5,53.5,88.7,53.5,88.7,53.5z M103.9,53.5v2.5c0,3.3,2.6,5.9,5.9,5.9
		s5.9-2.6,5.9-5.9v-2.5C115.6,53.5,103.9,53.5,103.9,53.5z M59.3,77.1v23.5h13.4V77.1L59.3,77.1L59.3,77.1z"/>
	<g>
		<path class="st2" d="M94.9,81.4c-0.3-0.2-0.8-0.2-1.1,0.1c-0.3,0.2-0.4,0.6-0.3,1l5.3,18.6c0.1,0.4,0.4,0.7,0.8,0.7
			c0.4,0,0.8-0.1,1-0.5l2-3.6l3.6,3.8c0.2,0.3,0.6,0.4,1,0.3c0.2,0,0.3-0.1,0.4-0.2l3.1-3c0.4-0.4,0.4-1,0-1.4l-3.3-3.5l4.1-1.2
			c0.4-0.1,0.7-0.4,0.7-0.8c0-0.4-0.1-0.8-0.5-1L94.9,81.4z M105.4,92.2c-0.3,0.1-0.6,0.3-0.7,0.7c-0.1,0.3,0,0.7,0.2,0.9l3.7,4
			l-1.7,1.6l-3.8-4c-0.4-0.4-1-0.4-1.4,0c-0.1,0.1-0.1,0.1-0.2,0.2l-1.5,2.7l-4-14.1l12.7,7L105.4,92.2L105.4,92.2z"/>
		<path class="st3" d="M90.4,90.8l0.9,0.2l0.5-1.9L90.8,89c-4.7-1.2-7.7-5.9-6.9-10.6c0.9-5,5.7-8.4,10.8-7.5c4.7,0.8,8,5,7.7,9.7
			l-0.1,1l1.9,0.1l0.1-1c0.3-5.7-3.7-10.8-9.3-11.8c-6.1-1.1-12,3-13,9.1C81.1,83.7,84.7,89.4,90.4,90.8z"/>
		<path class="st2" d="M93.8,75.4c1.6,0.3,3,1.5,3.5,3.1l0.3,0.9l1.8-0.6L99,77.9c-0.7-2.3-2.6-4-4.9-4.4c-3.5-0.6-6.8,1.8-7.5,5.5
			c-0.5,2.6,0.6,5.2,2.7,6.7l0.8,0.5l1.1-1.6l-0.8-0.5c-1.5-1-2.2-2.9-1.9-4.7C89,76.7,91.3,75,93.8,75.4L93.8,75.4z"/>
	</g>
</g>
</svg>
