<?xml version="1.0" encoding="utf-8"?>
<!-- Generator: Adobe Illustrator 22.1.0, SVG Export Plug-In . SVG Version: 6.00 Build 0)  -->
<svg version="1.1" id="Layer_1" xmlns="http://www.w3.org/2000/svg" xmlns:xlink="http://www.w3.org/1999/xlink" x="0px" y="0px"
	 viewBox="0 0 142 108" style="enable-background:new 0 0 142 108;" xml:space="preserve">
<style type="text/css">
	.st0{fill:#EFEFEF;}
	.st1{fill:none;stroke:#4A4A4A;stroke-width:3;}
	.st2{fill:none;stroke:#4A4A4A;stroke-width:3.5;}
	.st3{fill:#4A4A4A;}
	.st4{fill:#A6192E;}
</style>
<g>
	<circle class="st0" cx="60" cy="52" r="52"/>
	<g transform="translate(0 49)">
		<path class="st1" d="M120.2,21.2c-0.8,0-1.5,0.7-1.5,1.5v7.3v0c0,0.8,0.7,1.5,1.5,1.5h10.3c0.8,0,1.5-0.7,1.5-1.5
			c0-0.3-0.1-0.6-0.3-0.9l-5.2-7.3c-0.3-0.4-0.7-0.6-1.2-0.6L120.2,21.2L120.2,21.2z"/>
		<path class="st2" d="M118.2,49c0-4.3,3.5-7.8,7.8-7.8c4.3,0,7.8,3.5,7.8,7.8h2.4c2.1,0,3.8-1.7,3.8-3.8V31.6l0-0.2
			c0-0.1,0-0.1,0-0.1c-0.1-0.2-0.1-0.2-0.1-0.3l-0.1-0.2l-11.4-15.8c-0.1-0.1-0.2-0.2-0.3-0.2l-15.5,0v-8c0-3.1-1.6-5-4-5H53.7
			c-2.5,0-4,2-4,5v38c0,2.5,2,4,5,4h3.5c0-4.3,3.5-7.8,7.8-7.8s7.8,3.5,7.8,7.8H118.2L118.2,49z"/>
		<circle class="st2" cx="66" cy="49" r="7.8"/>
		<circle class="st2" cx="126" cy="49" r="7.8"/>
		<path class="st3" d="M110.6,5h3.5v43h-3.5V5z"/>
		<path class="st4" d="M82.1,14.9c-0.6,0-1.1,0.2-1.5,0.5c-0.4,0.3-0.6,0.8-0.6,1.2c0,0.5,0.2,0.9,0.6,1.2c0.4,0.3,1,0.5,1.5,0.5
			H103c0.6,0,1.1-0.2,1.5-0.5c0.4-0.3,0.6-0.8,0.6-1.2c0-0.5-0.2-0.9-0.6-1.2c-0.4-0.3-1-0.5-1.5-0.5L82.1,14.9L82.1,14.9z
			 M18.1,14.9c-0.6,0-1.1,0.2-1.5,0.5c-0.4,0.3-0.6,0.8-0.6,1.2c0,0.5,0.2,0.9,0.6,1.2c0.4,0.3,1,0.5,1.5,0.5H39
			c0.6,0,1.1-0.2,1.5-0.5c0.4-0.3,0.6-0.8,0.6-1.2c0-0.5-0.2-0.9-0.6-1.2c-0.4-0.3-1-0.5-1.5-0.5L18.1,14.9L18.1,14.9z M73.6,24.5
			c-0.6,0-1.1,0.2-1.5,0.5c-0.4,0.3-0.6,0.8-0.6,1.2c0,0.5,0.2,0.9,0.6,1.2c0.4,0.3,1,0.5,1.5,0.5H104c0.6,0,1.1-0.2,1.5-0.5
			c0.4-0.3,0.6-0.8,0.6-1.2c0-0.5-0.2-0.9-0.6-1.2c-0.4-0.3-1-0.5-1.5-0.5H73.6z M8.6,24.5C8,24.5,7.4,24.7,7,25
			c-0.4,0.3-0.6,0.8-0.6,1.2c0,0.5,0.2,0.9,0.6,1.2C7.4,27.9,8,28,8.6,28H39c0.6,0,1.1-0.2,1.5-0.5c0.4-0.3,0.6-0.8,0.6-1.2
			c0-0.5-0.2-0.9-0.6-1.2c-0.4-0.3-1-0.5-1.5-0.5H8.6z M3.2,34.1c-0.7,0-1.3,0.2-1.8,0.5c-0.5,0.3-0.7,0.8-0.7,1.2
			c0,0.5,0.3,0.9,0.7,1.2c0.5,0.3,1.1,0.5,1.8,0.5h35.5c0.7,0,1.3-0.2,1.8-0.5c0.5-0.3,0.7-0.8,0.7-1.2c0-0.5-0.3-0.9-0.7-1.2
			c-0.5-0.3-1.1-0.5-1.8-0.5H3.2z"/>
	</g>
</g>
</svg>
