<?xml version="1.0" encoding="utf-8"?>
<!-- Generator: Adobe Illustrator 22.1.0, SVG Export Plug-In . SVG Version: 6.00 Build 0)  -->
<svg version="1.1" id="Layer_1" xmlns="http://www.w3.org/2000/svg" xmlns:xlink="http://www.w3.org/1999/xlink" x="0px" y="0px"
	 viewBox="0 0 114 104" style="enable-background:new 0 0 114 104;" xml:space="preserve">
<style type="text/css">
	.st0{fill:#EFEFEF;}
	.st1{fill:#4A4A4A;}
	.st2{fill:#A6192E;}
	.st3{fill:#A6192E;stroke:#A6192E;stroke-width:0.5;}
</style>
<g>
	<circle class="st0" cx="52" cy="52" r="52"/>
	<path class="st1" d="M83,104c-0.3,0-0.7-0.1-1-0.2c0,0,0,0-0.1,0c-20.2-7.9-30-17.7-30-29.9l0-37.4c0-0.8,0.3-1.5,0.9-2
		c0.6-0.5,1.4-0.7,2.1-0.5c3.2,0.7,7.5,0.7,11.8,0.1c7.1-1,12.3-3.4,14.2-5.3c0.7-0.8,1.7-1,2.9-0.6c0.4,0.1,0.7,0.4,0.9,0.7
		c2,1.9,7.1,4.3,14.2,5.3c4.3,0.6,8.6,0.6,11.8-0.1c0.8-0.2,1.5,0,2.1,0.5c0.6,0.5,0.9,1.2,0.9,2v37.4c0,12.2-9.8,22-30,29.9
		c-0.2,0.1-0.4,0.1-0.6,0.2C83.3,104,83.1,104,83,104C82.7,104,83.1,104,83,104L83,104z M55.7,38v36.4c0,10.2,8.9,18.8,27.3,26.1
		c18.4-7.3,27.3-15.9,27.3-26.1V38c-3.3,0.3-7.2,0.2-11.1-0.3c-6.6-0.9-12.5-3-16.2-5.6c-3.7,2.6-9.6,4.7-16.2,5.6
		C62.9,38.2,59,38.3,55.7,38z"/>
	<g>
		<path class="st2" d="M83,49.2c-9.3,0-16.8,7.5-16.8,16.8c0,9.3,7.5,16.8,16.8,16.8c9.3,0,16.8-7.5,16.8-16.8
			C99.8,56.7,92.3,49.2,83,49.2L83,49.2z M83,79.9c-7.7,0-14-6.2-14-13.9c0-7.7,6.3-13.9,14-13.9S97,58.3,97,66S90.7,79.9,83,79.9
			L83,79.9z"/>
		<path class="st3" d="M87.6,62l-6.3,6l-2.1-2c-0.6-0.5-1.5-0.5-2,0c-0.5,0.5-0.6,1.4-0.1,1.9c0,0,0,0,0.1,0.1l3.1,2.9
			c0.3,0.3,0.6,0.4,1,0.4c0.4,0,0.7-0.1,1-0.4l7.3-7c0.6-0.5,0.6-1.4,0-1.9C89.1,61.4,88.2,61.4,87.6,62z"/>
	</g>
</g>
</svg>
