<svg xmlns="http://www.w3.org/2000/svg" width="107" height="104" viewBox="0 0 107 104">
    <g fill="none" fill-rule="evenodd">
        <circle cx="52" cy="52" r="52" fill="#EFEFEF"/>
        <path fill="#4A4A4A" fill-rule="nonzero" d="M78.732 53.246c.012.083.018.168.018.254V74h24.75V58.214c-.005-2.73-2.263-4.968-5.043-4.968H78.732zm-3.464 0H54.535c-2.78 0-5.035 2.235-5.035 4.961V74h25.75V53.5c0-.086.006-.171.018-.254zm3.41 47.254h19.787c2.78 0 5.035-2.236 5.035-4.962V77.5H78.75V100c0 .174-.025.342-.072.5zm-3.356 0a1.75 1.75 0 0 1-.072-.5V77.5H49.5v18.038c0 2.726 2.255 4.962 5.035 4.962h20.787zM54.535 49.746h43.922c4.706 0 8.535 3.796 8.543 8.461v37.331c0 4.666-3.829 8.462-8.535 8.462h-43.93C49.829 104 46 100.204 46 95.538v-37.33c0-4.667 3.829-8.462 8.535-8.462z"/>
        <path stroke="#A6192E" stroke-width="2.5" d="M62.624 47.004h13.713l-1.07-5.93c-.334-1.856-.737-2.74-1.659-3.926a7.54 7.54 0 0 0-5.967-2.898 7.578 7.578 0 0 0-4.612 1.562 7.408 7.408 0 0 0-1.342 10.46c.081.105.146.179.203.235.052.05.105.094.18.147.064.045.333.213.554.35zm14.034 0h13.713c.222-.138.49-.307.552-.351a1.44 1.44 0 0 0 .178-.146c.06-.058.128-.134.209-.237a7.412 7.412 0 0 0-1.345-10.458 7.544 7.544 0 0 0-4.61-1.562 7.54 7.54 0 0 0-5.968 2.898c-.92 1.179-1.324 2.068-1.66 3.926l-1.069 5.93z"/>
    </g>
</svg>
