<?xml version="1.0" encoding="utf-8"?>
<!-- Generator: Adobe Illustrator 22.1.0, SVG Export Plug-In . SVG Version: 6.00 Build 0)  -->
<svg version="1.1" id="Layer_1" xmlns="http://www.w3.org/2000/svg" xmlns:xlink="http://www.w3.org/1999/xlink" x="0px" y="0px"
	 viewBox="0 0 128 104" style="enable-background:new 0 0 128 104;" xml:space="preserve">
<style type="text/css">
	.st0{fill:#EFEFEF;}
	.st1{fill:#A6192E;}
	.st2{fill:#4A4A4A;}
</style>
<g>
	<circle class="st0" cx="52" cy="52" r="52"/>
	<path class="st1" d="M99.7,45.7l8.3,6.7v0h0v30H68l0-30l8.3-6.7L99.7,45.7L99.7,45.7z M71.3,79h33.3V55.7H71.3V79z M102.7,52.3
		L98.5,49h-21l-4.2,3.3H102.7z"/>
	<path class="st2" d="M49.7,62.3c0.9,0,1.7,0.7,1.7,1.7c0,4.9,1,9.8,2.9,14.3c1.8,4.4,4.5,8.3,7.9,11.7c3.3,3.3,7.3,6,11.7,7.9
		c4.5,1.9,9.4,2.9,14.3,2.9c4.9,0,9.8-1,14.3-2.9c4.4-1.8,8.3-4.5,11.7-7.9c6.9-6.9,10.8-16.2,10.7-25.9c0-9.7-3.9-19.1-10.7-25.9
		c-3.3-3.3-7.3-6-11.7-7.9c-4.5-1.9-9.4-2.9-14.3-2.9c-4.9,0-9.8,1-14.3,2.9c-4,1.7-7.7,4.1-10.9,7.1H69c0.9,0,1.7,0.7,1.7,1.7
		s-0.7,1.7-1.7,1.7H59c-0.9,0-1.7-0.7-1.7-1.7l0-10c0-0.9,0.7-1.7,1.7-1.7s1.7,0.7,1.7,1.7c0,0,0,0,0,0v5.8C67.8,28.1,77.4,24,88,24
		c22.1,0,40,17.9,40,40s-17.9,40-40,40S48,86.1,48,64C48,63.1,48.7,62.3,49.7,62.3z"/>
</g>
</svg>
