<?xml version="1.0" standalone="no"?>
<!DOCTYPE svg PUBLIC "-//W3C//DTD SVG 1.1//EN" "http://www.w3.org/Graphics/SVG/1.1/DTD/svg11.dtd" >
<svg xmlns="http://www.w3.org/2000/svg" xmlns:xlink="http://www.w3.org/1999/xlink" version="1.1">
<metadata>
Created by FontForge 20170731 at Wed Nov 10 15:10:09 2010
 By Aleksey,,,
Copyright (c) 2009 by Jean-Francois Rappo. All rights reserved.
</metadata>
<defs>
<font id="Clarins-Regular" horiz-adv-x="495" >
  <font-face 
    font-family="Clarins-Regular"
    font-weight="400"
    font-stretch="normal"
    units-per-em="1000"
    panose-1="2 0 5 6 0 0 0 2 0 3"
    ascent="686"
    descent="-314"
    x-height="427"
    cap-height="658"
    bbox="-145 -246 1192 1031"
    underline-thickness="50"
    underline-position="-150"
    unicode-range="U+0020-FB04"
  />
<missing-glyph horiz-adv-x="230" 
 />
    <glyph glyph-name="IJ" unicode="IJ" horiz-adv-x="616" 
d="M156 656q36 0 70 1t53 1v-9q-20 -2 -35.5 -5.5t-26 -12.5t-16 -25t-5.5 -44v-466q0 -28 5.5 -44t16 -25t26 -12.5t35.5 -5.5v-9h-25.5t-26.5 0.5t-31.5 0.5h-40.5q-30 0 -62 -0.5t-58 -0.5v9q20 2 35.5 5.5t26 12.5t16 25t5.5 44v466q0 28 -5.5 44t-16 25t-26 12.5
t-35.5 5.5v9q9 0 23 -0.5t30.5 -0.5t34 -0.5t33.5 -0.5zM436 562q0 28 -6 44t-17 25t-26.5 12.5t-35.5 5.5v9q9 0 23.5 -0.5t31 -0.5t34.5 -0.5t34 -0.5q36 0 69 1t52 1v-9q-20 -2 -35 -5.5t-25.5 -12.5t-15.5 -25t-5 -44v-356q0 -38 -4 -77t-18 -71t-40.5 -52.5
t-70.5 -20.5q-42 0 -71 16.5t-29 48.5q0 17 10.5 28t31.5 11q20 0 29.5 -10t9.5 -25v-26q0 -14 4.5 -21.5t21.5 -7.5q29 0 38.5 34t9.5 117v412z" />
    <glyph glyph-name="ij" unicode="ij" horiz-adv-x="527" 
d="M140 586q-21 0 -34.5 13t-13.5 35t13.5 34.5t36.5 12.5q20 0 34 -12.5t14 -33.5q0 -23 -14 -36t-36 -13zM34 9q20 2 34 5t23 11t13.5 24t4.5 44v254q0 20 -5 32.5t-14.5 19.5t-23 10.5t-31.5 5.5v10q43 1 80.5 2t63.5 1q-2 -60 -3 -123t-1 -117v-95q0 -28 4.5 -44
t13.5 -24t23 -11t34 -5v-9q-21 0 -51 0.5t-55 0.5q-32 0 -57.5 -0.5t-52.5 -0.5v9zM371 347q0 20 -5 32.5t-14.5 19.5t-23 10.5t-31.5 5.5v10q43 1 80.5 2t63.5 1q-2 -60 -3 -123t-1 -117v-70q0 -59 -3.5 -104t-14.5 -81q-17 -57 -55 -97t-111 -69l-5 9q43 25 68 49.5
t37 54.5t15 69t3 95v303zM402 586q-21 0 -34.5 13t-13.5 35t13.5 34.5t36.5 12.5q20 0 34 -12.5t14 -33.5q0 -23 -14 -36t-36 -13z" />
    <glyph glyph-name="napostrophe" unicode="&#x22;n" horiz-adv-x="548" 
d="M28 8q20 2 34 4.5t23 10t13.5 23t4.5 43.5v261q0 20 -5 32t-14.5 18.5t-23 9.5t-31.5 5v10q43 1 79.5 2t62.5 1q-2 -22 -2 -48v-49q16 43 55.5 74.5t100.5 31.5q69 0 98.5 -39t29.5 -113v-196q0 -28 4.5 -43.5t13.5 -23t23 -10t34 -4.5v-8q-21 0 -50.5 0.5t-54.5 0.5
q-32 0 -58 -0.5t-53 -0.5v8q20 2 34 4.5t23 10t13.5 23t4.5 43.5v197q0 57 -22.5 89t-72.5 32q-27 0 -48.5 -12.5t-37.5 -32.5t-25.5 -47t-11.5 -55v-171q0 -28 4.5 -43.5t13.5 -23t23 -10t34 -4.5v-8q-21 0 -51 0.5t-55 0.5q-32 0 -57.5 -0.5t-52.5 -0.5v8zM205 626
q0 -26 -8.5 -49t-23 -43t-33.5 -35.5t-41 -25.5l-9 10q15 10 28.5 23t24 28.5t17 32.5t5.5 35q-2 -1 -7.5 -3t-16.5 -2q-20 0 -34.5 12.5t-14.5 36.5q0 22 15 36t37 14q30 0 45.5 -20.5t15.5 -49.5z" />
    <glyph glyph-name="f_f" unicode="ff" horiz-adv-x="564" 
d="M376 408h-205v-315q0 -28 4.5 -44t13.5 -24t23 -11t34 -5v-9q-21 0 -47 0.5t-51 0.5q-32 0 -61.5 -0.5t-56.5 -0.5v9q20 2 34 5t23 11t13.5 24t4.5 44v315h-70v18l70 -1q0 35 4 75.5t24 82.5t60 71t104 29q54 0 84.5 -15.5t35.5 -40.5q20 30 52 48.5t79 18.5
q54 0 81.5 -20t27.5 -47q0 -34 -36 -34q-21 0 -28.5 8t-7.5 22q0 6 0.5 9t0.5 11q0 13 -8.5 25t-39.5 12q-32 0 -51 -15t-29 -40t-13 -57t-3 -65v-78l120 1v-20l-120 1v-314q0 -28 4 -44t14.5 -24t28 -11t44.5 -5v-9h-27.5t-35 0.5t-36.5 0.5h-30q-32 0 -54 -0.5t-49 -0.5v9
q20 2 34 5t23 11t13.5 24t4.5 44v315zM171 425h205v28q0 38 4 69.5t14 58.5q0 1 0.5 1.5t0.5 1.5h-9q-21 0 -29 8.5t-8 22.5q0 6 0.5 8.5t0.5 10.5q0 19 -18.5 26.5t-43.5 7.5q-36 0 -57.5 -13t-33.5 -33q-10 -17 -15 -38.5t-7.5 -45t-3 -48t-0.5 -47.5v-18z" />
    <glyph glyph-name="fi" unicode="fi" horiz-adv-x="544" 
d="M299 9q20 2 34 5t23 11t13.5 24t4.5 44v254q0 37 -13 49.5t-52 12.5h-138v-316q0 -28 4.5 -44t13.5 -24t23 -11t34 -5v-9q-21 0 -47 0.5t-51 0.5q-32 0 -61.5 -0.5t-56.5 -0.5v9q20 2 34 5t23 11t13.5 24t4.5 44v315h-70v18l70 -1q0 35 4 80.5t24 87.5t60 71t104 29
q59 0 91 -18t32 -47q0 -16 -8 -25t-28 -9q-21 0 -29 8.5t-8 22.5q0 6 0.5 8.5t0.5 10.5q0 19 -17.5 26.5t-44.5 7.5q-35 0 -56 -13t-33 -33q-10 -17 -15 -38.5t-7.5 -45t-3 -48t-0.5 -47.5v-28h122q43 0 84 1.5t67 1.5q-2 -60 -3 -123.5t-1 -117.5v-94q0 -28 4.5 -44
t13.5 -24t23 -11t34 -5v-9q-21 0 -47 0.5t-51 0.5q-32 0 -61.5 -0.5t-56.5 -0.5v9z" />
    <glyph glyph-name="fl" unicode="fl" horiz-adv-x="542" 
d="M171 93q0 -28 4.5 -44t13.5 -24t23 -11t34 -5v-9q-21 0 -47 0.5t-51 0.5q-32 0 -61.5 -0.5t-56.5 -0.5v9q20 2 34 5t23 11t13.5 24t4.5 44v315h-70v18l70 -1q0 35 4 80.5t24 87.5t60 71t104 29q24 0 43.5 -3.5t34.5 -9.5q17 2 37 4.5t31 3.5q-2 -60 -3 -123t-1 -117v-357
q0 -28 4.5 -43.5t13.5 -23.5t23 -10.5t34 -4.5v-9q-21 0 -50.5 0.5t-54.5 0.5q-32 0 -58 -0.5t-53 -0.5v9q20 2 34 4.5t23 10.5t13.5 23.5t4.5 43.5v503q-14 2 -19 10.5t-5 20.5q0 6 0.5 8.5t0.5 10.5q0 19 -18.5 26.5t-45.5 7.5q-35 0 -56 -13t-33 -33q-10 -17 -15 -38.5
t-7.5 -45t-3 -48t-0.5 -47.5v-28l120 1v-20l-120 1v-314z" />
    <glyph glyph-name="f_f_i" unicode="ffi" horiz-adv-x="815" 
d="M570 9q20 2 34 5t23 11t13.5 24t4.5 44v254q0 37 -13 49.5t-52 12.5h-138v-316q0 -28 4.5 -44t13.5 -24t23 -11t34 -5v-9q-21 0 -47 0.5t-51 0.5q-32 0 -61.5 -0.5t-56.5 -0.5v9q20 2 34 5t23 11t13.5 24t4.5 44v316h-205v-316q0 -28 4.5 -44t13.5 -24t23 -11t34 -5v-9
q-21 0 -47 0.5t-51 0.5q-32 0 -61.5 -0.5t-56.5 -0.5v9q20 2 34 5t23 11t13.5 24t4.5 44v315h-70v18l70 -1q0 35 4 75.5t24 82.5t60.5 71t104.5 29q57 0 88.5 -17.5t33.5 -45.5q22 32 58 52.5t90 20.5q59 0 91 -18t32 -47q0 -16 -8 -25t-28 -9q-21 0 -29 8.5t-8 22.5
q0 6 0.5 8.5t0.5 10.5q0 19 -17.5 26.5t-44.5 7.5q-35 0 -56 -13t-33 -33q-10 -17 -15 -38.5t-7.5 -45t-3 -48t-0.5 -47.5v-28h122q43 0 84 1.5t67 1.5q-2 -60 -3 -123.5t-1 -117.5v-94q0 -28 4.5 -44t13.5 -24t23 -11t34 -5v-9q-21 0 -47 0.5t-51 0.5q-32 0 -61.5 -0.5
t-56.5 -0.5v9zM171 425h205q0 33 3 76t21 84q-4 -1 -12 -1q-21 0 -29 8.5t-8 22.5q0 6 0.5 8.5t0.5 10.5q0 19 -19.5 26.5t-44.5 7.5q-36 0 -57.5 -13t-33.5 -33q-10 -17 -15 -38.5t-7.5 -45t-3 -48t-0.5 -47.5v-18z" />
    <glyph glyph-name="f_f_l" unicode="ffl" horiz-adv-x="813" 
d="M442 93q0 -28 4.5 -44t13.5 -24t23 -11t34 -5v-9q-21 0 -47 0.5t-51 0.5q-32 0 -61.5 -0.5t-56.5 -0.5v9q20 2 34 5t23 11t13.5 24t4.5 44v316h-205v-316q0 -28 4.5 -44t13.5 -24t23 -11t34 -5v-9q-21 0 -47 0.5t-51 0.5q-32 0 -61.5 -0.5t-56.5 -0.5v9q20 2 34 5t23 11
t13.5 24t4.5 44v315h-70v18l70 -1q0 35 4 75.5t24 82.5t60.5 71t104.5 29q55 0 87.5 -17.5t34.5 -45.5q22 32 58 52.5t90 20.5q24 0 43.5 -3.5t34.5 -9.5q17 2 37 4.5t31 3.5q-2 -60 -3 -123t-1 -117v-357q0 -28 4.5 -43.5t13.5 -23.5t23 -10.5t34 -4.5v-9q-21 0 -50.5 0.5
t-54.5 0.5q-32 0 -58 -0.5t-53 -0.5v9q20 2 34 4.5t23 10.5t13.5 23.5t4.5 43.5v503q-14 2 -19 10.5t-5 20.5q0 6 0.5 8.5t0.5 10.5q0 19 -18.5 26.5t-45.5 7.5q-35 0 -56 -13t-33 -33q-10 -17 -15 -38.5t-7.5 -45t-3 -48t-0.5 -47.5v-28l120 1v-20l-120 1v-314zM171 425
h205q0 33 3 76t21 84q-4 -1 -12 -1q-21 0 -29 8.5t-8 22.5q0 6 0.5 8.5t0.5 10.5q0 19 -19.5 26.5t-44.5 7.5q-36 0 -57.5 -13t-33.5 -33q-10 -17 -15 -38.5t-7.5 -45t-3 -48t-0.5 -47.5v-18z" />
    <glyph glyph-name="f_b" unicode="fb" horiz-adv-x="799" 
d="M171 93q0 -28 5 -44t15.5 -24t25 -11t34.5 -5v-9q-21 0 -49.5 0.5t-53.5 0.5q-32 0 -61.5 -0.5t-56.5 -0.5v9q20 2 34 5t23 11t13.5 24t4.5 44v315h-70v18l70 -1q0 35 4 80.5t24 87.5t60 71t104 29q48 0 79 -14q16 2 33.5 4.5t29.5 4.5q-2 -60 -3 -123t-1 -117v-99h3
q5 13 15.5 28.5t27.5 28.5t40 21.5t53 8.5q46 0 79.5 -17.5t54.5 -47.5t31 -70.5t10 -86.5q0 -45 -11.5 -86t-34.5 -72t-57.5 -49t-80.5 -18q-28 0 -48.5 6.5t-35.5 16t-25 21.5t-16 24l-65 -62l-7 2q1 26 1 63v87v448q-12 3 -16 11t-4 19q0 6 0.5 8.5t0.5 10.5
q0 19 -18.5 26.5t-45.5 7.5q-35 0 -56 -13t-33 -33q-10 -17 -15 -38.5t-7.5 -45t-3 -48t-0.5 -47.5v-28l120 1v-20l-120 1v-314zM430 205q0 -92 28.5 -142t88.5 -50q33 0 57 16.5t40 44t23.5 63.5t7.5 76q0 38 -8 73t-24 62t-39.5 43.5t-54.5 16.5q-60 0 -89.5 -54.5
t-29.5 -148.5z" />
    <glyph glyph-name="f_h" unicode="fh" horiz-adv-x="818" 
d="M443 688q-2 -60 -3 -123t-1 -117l-1 -117q16 43 56 74.5t101 31.5q69 0 98.5 -39t29.5 -113v-196q0 -28 4.5 -43.5t13.5 -23t23 -10t34 -4.5v-8q-21 0 -50.5 0.5t-54.5 0.5q-32 0 -58 -0.5t-53 -0.5v8q20 2 34 4.5t23 10t13.5 23t4.5 43.5v197q0 57 -22.5 89t-72.5 32
q-27 0 -48.5 -12.5t-37.5 -32.5t-25.5 -47t-11.5 -55v-171q0 -28 4.5 -43.5t13.5 -23t23 -10t34 -4.5v-8q-21 0 -51 0.5t-55 0.5q-32 0 -57.5 -0.5t-52.5 -0.5v8q20 2 34 4.5t23 10t13.5 23t4.5 43.5v505q-14 2 -19 10.5t-5 20.5q0 6 0.5 8.5t0.5 10.5q0 19 -18.5 26.5
t-45.5 7.5q-35 0 -56 -13t-33 -33q-10 -17 -15 -38.5t-7.5 -45t-3 -48t-0.5 -47.5v-28l120 1v-20l-120 1v-314q0 -28 4.5 -44t13.5 -24t23 -11t34 -5v-9q-21 0 -47 0.5t-51 0.5q-32 0 -61.5 -0.5t-56.5 -0.5v9q20 2 34 5t23 11t13.5 24t4.5 44v315h-70v18l70 -1q0 35 4 80.5
t24 87.5t60 71t104 29q24 0 43.5 -3.5t34.5 -9.5q17 2 37 4.5t31 3.5z" />
    <glyph glyph-name="f_k" unicode="fk" horiz-adv-x="753" 
d="M171 93q0 -28 4.5 -44t13.5 -24t23 -11t34 -5v-9q-21 0 -47 0.5t-51 0.5q-32 0 -61.5 -0.5t-56.5 -0.5v9q20 2 34 5t23 11t13.5 24t4.5 44v315h-70v18l70 -1q0 35 4 80.5t24 87.5t60 71t104 29q24 0 43.5 -3.5t34.5 -9.5q17 2 37 4.5t31 3.5q-2 -60 -3 -123t-1 -117v-357
q0 -28 4.5 -43.5t13.5 -23.5t23 -10.5t34 -4.5v-9q-21 0 -50.5 0.5t-54.5 0.5q-32 0 -58 -0.5t-53 -0.5v9q20 2 34 4.5t23 10.5t13.5 23.5t4.5 43.5v503q-14 2 -19 10.5t-5 20.5q0 6 0.5 8.5t0.5 10.5q0 19 -18.5 26.5t-45.5 7.5q-35 0 -56 -13t-33 -33q-10 -17 -15 -38.5
t-7.5 -45t-3 -48t-0.5 -47.5v-28l120 1v-20l-120 1v-314zM765 -1q-9 0 -21.5 0.5t-26 1t-27 0.5h-24.5q-18 0 -32.5 -0.5t-24.5 -0.5q-12 -1 -21 -1v10q11 1 24.5 3t13.5 8q0 5 -9.5 17t-17.5 23l-72 94q-20 26 -36 46t-25 31v4l53 46q16 14 34.5 30t34 31.5t25.5 28.5
t10 21q0 7 -5 11.5t-12.5 7t-15.5 4t-14 2.5v9q17 -2 39.5 -2h45.5h39.5t44.5 2v-9q-17 -3 -28.5 -7.5t-22.5 -11t-23.5 -16t-29.5 -23.5l-116 -97q38 -48 79.5 -98t96.5 -117q14 -16 27 -26t37 -12v-10z" />
    <glyph glyph-name="f_j" unicode="fj" horiz-adv-x="526" 
d="M370 347q0 37 -13 49.5t-52 12.5h-134v-316q0 -28 5 -44t15.5 -24t26.5 -11t38 -5v-9q-21 0 -52 0.5t-56 0.5q-32 0 -61.5 -0.5t-56.5 -0.5v9q20 2 34 5t23 11t13.5 24t4.5 44v315h-70v18l70 -1q0 35 4 80.5t24 87.5t60 71t104 29q59 0 91 -18t32 -47q0 -16 -8 -25
t-28 -9q-21 0 -29 8.5t-8 22.5q0 6 0.5 8.5t0.5 10.5q0 19 -17.5 26.5t-44.5 7.5q-35 0 -56 -13t-33 -33q-10 -17 -15 -38.5t-7.5 -45t-3 -48t-0.5 -47.5v-28h118q43 0 84 1.5t67 1.5q-2 -60 -3 -123.5t-1 -117.5v-69q0 -59 -3.5 -104t-14.5 -81q-17 -57 -55 -97t-111 -69
l-5 9q43 25 68 49.5t37 54.5t15 69t3 95v303v0z" />
    <glyph glyph-name="f_t" unicode="ft" horiz-adv-x="589" 
d="M371 470q26 7 39 28t18 56h10q-2 -33 -2.5 -63.5t-0.5 -65.5l130 1v-20l-130 1l-1 -270q0 -59 14 -88.5t58 -29.5q20 0 35.5 8t23.5 16l8 -6q-4 -6 -12.5 -13.5t-22 -15t-31.5 -12.5t-42 -5q-32 0 -51.5 10t-30 30t-13.5 48.5t-3 66.5v5v41.5t0.5 71l1 79t0.5 64.5h-198
v-314q0 -28 4.5 -44t15 -24t26.5 -11t39 -5v-9q-21 0 -52 0.5t-56 0.5q-32 0 -61.5 -0.5t-56.5 -0.5v9q20 2 34 5t23 11t13.5 24t4.5 44v315h-70v18l70 -1q0 35 4 80.5t24 87.5t60 71t104 29q59 0 91 -18t32 -47q0 -16 -8 -25t-28 -9q-21 0 -29 8.5t-8 22.5q0 6 0.5 8.5
t0.5 10.5q0 19 -17.5 26.5t-44.5 7.5q-35 0 -56 -13t-33 -33q-10 -17 -15 -38.5t-7.5 -45t-3 -48t-0.5 -47.5v-28h199z" />
    <glyph glyph-name="f_f_b" unicode="ffb" horiz-adv-x="1070" 
d="M442 93q0 -28 5 -44t15.5 -24t25 -11t34.5 -5v-9q-21 0 -49.5 0.5t-53.5 0.5q-32 0 -61.5 -0.5t-56.5 -0.5v9q20 2 34 5t23 11t13.5 24t4.5 44v316h-205v-316q0 -28 4.5 -44t13.5 -24t23 -11t34 -5v-9q-21 0 -47 0.5t-51 0.5q-32 0 -61.5 -0.5t-56.5 -0.5v9q20 2 34 5
t23 11t13.5 24t4.5 44v315h-70v18l70 -1q0 35 4 75.5t24 82.5t60.5 71t104.5 29q57 0 88.5 -17.5t33.5 -45.5q22 32 58 52.5t90 20.5q48 0 79 -14q16 2 33.5 4.5t29.5 4.5q-2 -60 -3 -123t-1 -117v-99h3q5 13 15.5 28.5t27.5 28.5t40 21.5t53 8.5q46 0 79.5 -17.5
t54.5 -47.5t31 -70.5t10 -86.5q0 -45 -11.5 -86t-34.5 -72t-57.5 -49t-80.5 -18q-28 0 -48.5 6.5t-35.5 16t-25 21.5t-16 24l-65 -62l-7 2q1 26 1 63v87v448q-12 3 -16 11t-4 19q0 6 0.5 8.5t0.5 10.5q0 19 -18.5 26.5t-45.5 7.5q-35 0 -56 -13t-33 -33q-10 -17 -15 -38.5
t-7.5 -45t-3 -48t-0.5 -47.5v-28l120 1v-20l-120 1v-314zM701 205q0 -92 28.5 -142t88.5 -50q33 0 57 16.5t40 44t23.5 63.5t7.5 76q0 38 -8 73t-24 62t-39.5 43.5t-54.5 16.5q-60 0 -89.5 -54.5t-29.5 -148.5zM171 425h205q0 33 3 76t21 84q-4 -1 -12 -1q-21 0 -29 8.5
t-8 22.5q0 6 0.5 8.5t0.5 10.5q0 19 -19.5 26.5t-44.5 7.5q-36 0 -57.5 -13t-33.5 -33q-10 -17 -15 -38.5t-7.5 -45t-3 -48t-0.5 -47.5v-18z" />
    <glyph glyph-name="f_f_h" unicode="ffh" horiz-adv-x="1089" 
d="M714 688q-2 -60 -3 -123t-1 -117l-1 -117q16 43 56 74.5t101 31.5q69 0 98.5 -39t29.5 -113v-196q0 -28 4.5 -43.5t13.5 -23t23 -10t34 -4.5v-8q-21 0 -50.5 0.5t-54.5 0.5q-32 0 -58 -0.5t-53 -0.5v8q20 2 34 4.5t23 10t13.5 23t4.5 43.5v197q0 57 -22.5 89t-72.5 32
q-27 0 -48.5 -12.5t-37.5 -32.5t-25.5 -47t-11.5 -55v-171q0 -28 4.5 -43.5t13.5 -23t23 -10t34 -4.5v-8q-21 0 -51 0.5t-55 0.5q-32 0 -57.5 -0.5t-52.5 -0.5v8q20 2 34 4.5t23 10t13.5 23t4.5 43.5v505q-14 2 -19 10.5t-5 20.5q0 6 0.5 8.5t0.5 10.5q0 19 -18.5 26.5
t-45.5 7.5q-35 0 -56 -13t-33 -33q-10 -17 -15 -38.5t-7.5 -45t-3 -48t-0.5 -47.5v-28l120 1v-20l-120 1v-314q0 -28 4.5 -44t13.5 -24t23 -11t34 -5v-9q-21 0 -47 0.5t-51 0.5q-32 0 -61.5 -0.5t-56.5 -0.5v9q20 2 34 5t23 11t13.5 24t4.5 44v316h-205v-316q0 -28 4.5 -44
t13.5 -24t23 -11t34 -5v-9q-21 0 -47 0.5t-51 0.5q-32 0 -61.5 -0.5t-56.5 -0.5v9q20 2 34 5t23 11t13.5 24t4.5 44v315h-70v18l70 -1q0 35 4 75.5t24 82.5t60.5 71t104.5 29q57 0 88.5 -17.5t33.5 -45.5q22 32 58 52.5t90 20.5q24 0 43.5 -3.5t34.5 -9.5q17 2 37 4.5
t31 3.5zM171 425h205q0 33 3 76t21 84q-4 -1 -12 -1q-21 0 -29 8.5t-8 22.5q0 6 0.5 8.5t0.5 10.5q0 19 -19.5 26.5t-44.5 7.5q-36 0 -57.5 -13t-33.5 -33q-10 -17 -15 -38.5t-7.5 -45t-3 -48t-0.5 -47.5v-18z" />
    <glyph glyph-name=".notdef" horiz-adv-x="230" 
 />
    <glyph glyph-name=".null" horiz-adv-x="0" 
 />
    <glyph glyph-name="nonmarkingreturn" horiz-adv-x="230" 
 />
    <glyph glyph-name="space" unicode=" " horiz-adv-x="230" 
 />
    <glyph glyph-name="space" unicode="&#xa0;" horiz-adv-x="230" 
 />
    <glyph glyph-name="exclam" unicode="!" horiz-adv-x="299" 
d="M150 157q-7 72 -12.5 150t-9.5 145t-6.5 114t-2.5 58q0 44 41 44t41 -44q0 -11 -2.5 -58t-6.5 -114t-10 -145t-12 -150h-20zM106 42q0 23 15 38t38 15q24 0 39 -15t15 -38t-14.5 -38.5t-39.5 -15.5t-39 15t-14 39z" />
    <glyph glyph-name="quotedbl" unicode="&#x22;" horiz-adv-x="342" 
d="M103 452h-19l-22 172q-2 16 -3 24.5t-1 15.5q0 32 36 32t36 -32q0 -7 -1 -16t-3 -24zM257 452h-19l-22 172q-2 16 -3 24.5t-1 15.5q0 32 36 32t36 -32q0 -7 -1 -16t-3 -24z" />
    <glyph glyph-name="numbersign" unicode="#" horiz-adv-x="552" 
d="M343 210h-180l-41 -210h-32l41 210h-123l4 27h125l38 192h-123l4 27h124l36 180h32l-36 -180h180l36 180h32l-36 -180h123l-5 -27h-123l-38 -192h122l-5 -27h-123l-41 -210h-32zM169 237h180l38 192h-180z" />
    <glyph glyph-name="dollar" unicode="$" 
d="M412 493q-8 29 -19 55.5t-28 46.5t-41.5 32t-58.5 13v-265l20 -10q25 -12 55 -27t56 -36.5t43 -52t17 -72.5q0 -83 -52 -127.5t-139 -51.5v-122h-26v120h-9q-41 0 -72.5 5t-54.5 11.5t-36.5 12.5t-16.5 8q-1 39 -2.5 78t-2.5 77h11q9 -39 23 -70.5t35 -54t49.5 -35
t67.5 -12.5h8v286l-30 14q-32 15 -61 31t-51.5 37t-35.5 48t-13 64q0 42 17 72t44 49.5t61 29.5t69 12v104h26v-103q56 -1 93.5 -10t45.5 -9q4 0 5 1q1 0 2 1l5 -2l6 -148h-10zM379 148q0 30 -10 52t-26.5 38.5t-36.5 28.5t-41 22v-271q61 8 87.5 44.5t26.5 85.5zM122 522
q0 -27 8 -46.5t22 -34.5t33.5 -26.5t42.5 -21.5l11 -6v252q-54 -5 -85.5 -35.5t-31.5 -81.5z" />
    <glyph glyph-name="percent" unicode="%" horiz-adv-x="840" 
d="M313 378q0 -40 -7 -76t-23 -63.5t-41.5 -43.5t-62.5 -16q-36 0 -60.5 15.5t-39.5 42.5t-22 63t-7 78q0 39 7 74.5t23 62.5t41.5 43t63.5 16q35 0 59.5 -15.5t39.5 -42t22 -62.5t7 -76zM260 376q0 39 -4 72.5t-13 59t-24 40t-37 14.5q-26 0 -41.5 -19t-24 -47.5t-11 -60.5
t-2.5 -57q0 -39 4 -73.5t13 -60t24 -40t38 -14.5q25 0 40 19t23.5 47.5t11.5 60.5t3 59zM501 569h28l-194 -569h-28zM785 191q0 -40 -7 -76t-23 -63.5t-41.5 -43.5t-62.5 -16q-36 0 -60.5 15.5t-39.5 42.5t-22 63t-7 78q0 39 7 74.5t23 62.5t41.5 43t63.5 16
q35 0 59.5 -15.5t39.5 -42t22 -62.5t7 -76zM732 189q0 39 -4 72.5t-13 59t-24 40t-37 14.5q-26 0 -41.5 -19t-24 -47.5t-11 -60.5t-2.5 -57q0 -39 4 -73.5t13 -60t24 -40t38 -14.5q25 0 40 19t23.5 47.5t11.5 60.5t3 59z" />
    <glyph glyph-name="ampersand" unicode="&#x26;" horiz-adv-x="676" 
d="M483 170q9 12 19.5 33.5t20 45t15.5 45.5t6 37q0 11 -5.5 17.5t-14 10t-19 4.5t-21.5 1v9q24 -2 48.5 -2h45.5h46t43 2v-9q-21 -3 -34.5 -7t-23.5 -11.5t-17 -19t-15 -28.5q-12 -26 -29.5 -58.5t-50.5 -83.5q19 -21 40.5 -46.5t46 -47.5t51 -37t56.5 -16v-9
q-17 1 -38.5 1h-38.5q-6 0 -15.5 -0.5t-18.5 -0.5h-23q-21 15 -46.5 41.5t-54.5 58.5q-18 -20 -40 -39.5t-48.5 -35.5t-59 -25.5t-71.5 -9.5q-38 0 -74 9.5t-64 29.5t-45 52.5t-17 77.5q0 36 13 65t34.5 52.5t50 41t60.5 30.5q-17 15 -33 31.5t-29 35.5t-20.5 40.5
t-7.5 47.5q0 35 13 61.5t35.5 44t52.5 26.5t63 9q31 0 58.5 -6.5t47 -20t31 -35t11.5 -50.5q0 -33 -15.5 -59t-38 -45.5t-47.5 -32.5t-44 -20q22 -20 50 -46.5t56.5 -54.5t56 -55t48.5 -49zM442 113q-24 26 -53.5 55.5t-60 59t-62 58t-59.5 52.5q-47 -30 -71 -66.5
t-24 -85.5q0 -36 10.5 -66t30 -52.5t47 -35t61.5 -12.5q58 0 102 26.5t79 66.5zM263 627q-42 0 -70.5 -25t-28.5 -69q0 -24 9.5 -45t24 -40t31.5 -35t32 -29q16 10 33.5 24.5t32 32.5t23.5 40.5t9 50.5q0 45 -25 70t-71 25z" />
    <glyph glyph-name="quotesingle" unicode="'" horiz-adv-x="188" 
d="M103 452h-19l-22 172q-2 16 -3 24.5t-1 15.5q0 32 36 32t36 -32q0 -7 -1 -16t-3 -24z" />
    <glyph glyph-name="parenleft" unicode="(" horiz-adv-x="311" 
d="M79 225q0 78 14.5 151t42 134.5t68 109t93.5 75.5l7 -11q-42 -30 -72 -80t-49 -111.5t-27.5 -130.5t-8.5 -137t8.5 -136.5t27 -130t48 -111.5t72.5 -80l-6 -11q-53 28 -93.5 75.5t-68 109t-42 134t-14.5 150.5z" />
    <glyph glyph-name="parenright" unicode=")" horiz-adv-x="311" 
d="M232 225q0 -78 -14.5 -150.5t-42 -134t-68.5 -109t-93 -75.5l-6 11q43 30 72.5 80t48 111.5t27 130t8.5 136.5t-8.5 137t-27.5 130.5t-49 111.5t-72 80l7 11q52 -28 93 -75.5t68.5 -109t42 -134.5t14.5 -151z" />
    <glyph glyph-name="asterisk" unicode="*" horiz-adv-x="347" 
d="M169 505l-21 149q8 4 22.5 4t22.5 -3l-16 -150l16 -156q-8 -3 -22.5 -3t-22.5 4zM170 502l-139 57q1 9 8 21.5t13 17.5l122 -89l143 -64q-1 -8 -8 -20.5t-15 -17.5zM172 499l-118 -92q-8 5 -15 17.5t-9 20.5l138 61l127 92q7 -5 14 -17.5t8 -21.5z" />
    <glyph glyph-name="plus" unicode="+" horiz-adv-x="576" 
d="M55 252h208v209h40v-209h210v-39h-210v-210h-40v210h-208v39z" />
    <glyph glyph-name="comma" unicode="," horiz-adv-x="226" 
d="M168 25q0 -26 -8.5 -49t-23 -43t-33.5 -35.5t-41 -25.5l-9 10q15 10 28.5 23t24 28.5t17 32.5t5.5 35q-2 -1 -7.5 -3t-16.5 -2q-20 0 -34.5 12.5t-14.5 36.5q0 22 15 36t37 14q30 0 45.5 -20.5t15.5 -49.5z" />
    <glyph glyph-name="hyphen" unicode="-" horiz-adv-x="338" 
d="M50 258h238v-43h-238v43z" />
    <glyph glyph-name="period" unicode="." horiz-adv-x="219" 
d="M56 42q0 23 15 38t38 15q24 0 39 -15t15 -38t-14.5 -38.5t-39.5 -15.5t-39 15t-14 39z" />
    <glyph glyph-name="slash" unicode="/" horiz-adv-x="314" 
d="M238 734h33l-195 -886h-33z" />
    <glyph glyph-name="zero" unicode="0" 
d="M464 319q0 -66 -10.5 -125.5t-35 -104.5t-65.5 -72t-102 -27q-59 0 -100.5 26t-68 70.5t-39 104.5t-12.5 128q0 65 11 124.5t37 104.5t67.5 71.5t103.5 26.5q58 0 99 -26t66.5 -70t37 -104t11.5 -127zM387 316q0 73 -6.5 131.5t-22 98.5t-42 61.5t-66.5 21.5
q-46 0 -74 -29.5t-43 -74.5t-20 -100t-5 -106q0 -70 7.5 -127.5t24 -99t44 -64t67.5 -22.5q45 0 71.5 30.5t41 76.5t19 100.5t4.5 102.5z" />
    <glyph glyph-name="one" unicode="1" 
d="M248 1h-29.5t-33.5 -0.5t-32.5 -0.5h-25.5v9q27 2 45.5 5t30 11t16 24t4.5 44v410q0 23 -2.5 36t-8 19.5t-15 8t-23.5 1.5q-12 0 -26.5 -2t-27 -4t-22.5 -4t-14 -3v11q49 17 92.5 34.5t82.5 37.5h31q0 -35 -0.5 -79.5t-0.5 -91v-91.5v-80v-203q0 -28 4.5 -44t15 -24
t27.5 -11t43 -5v-9h-28t-35.5 0.5t-37 0.5h-30.5z" />
    <glyph glyph-name="two" unicode="2" 
d="M232 645q41 0 75.5 -9t59.5 -29.5t39 -52.5t14 -77q0 -56 -28 -112t-82 -117q-27 -30 -57.5 -59.5t-61.5 -55.5t-60 -47.5t-53 -36.5v-1q16 1 50.5 1h66.5h78q40 0 65 3.5t41.5 13t26.5 28t20 48.5h8q-3 -42 -4.5 -73.5t-3.5 -68.5h-209q-45 0 -87 0.5t-87 -0.5v33
q79 73 131 129.5t81 95.5q39 53 63 105t24 118q0 68 -29.5 107.5t-89.5 39.5q-44 0 -62.5 -18.5t-18.5 -40.5q0 -7 0.5 -14.5t0.5 -12.5q0 -14 -9 -23.5t-29 -9.5q-39 0 -39 38q0 17 11.5 34.5t33 31.5t52 23t69.5 9z" />
    <glyph glyph-name="three" unicode="3" 
d="M198 628q-43 0 -63 -16.5t-20 -39.5q0 -8 0.5 -15t0.5 -12q0 -14 -9 -23.5t-29 -9.5q-39 0 -39 38q0 17 12 34t34.5 30.5t54.5 22t71 8.5q79 0 127 -35t48 -112q0 -38 -15 -67.5t-38.5 -49.5t-52.5 -31.5t-56 -14.5v-1q37 -2 70 -11.5t57.5 -28t39 -47.5t14.5 -69
q0 -42 -16 -76.5t-44.5 -60t-69 -39.5t-89.5 -14q-56 0 -91 13t-56 27l7 11q16 -8 44.5 -17t65.5 -9q25 0 55.5 8t56 27.5t43 52t17.5 80.5q0 45 -16.5 73t-42.5 42q-30 16 -64.5 19.5t-68.5 3.5v18q88 -1 131 40t43 119q0 68 -31 100t-81 32z" />
    <glyph glyph-name="four" unicode="4" 
d="M16 181v40l15 24q25 41 60 93t72.5 106t75 104t69.5 86h58q-1 -34 -1.5 -78.5t-1 -90.5t-0.5 -90.5v-78.5v-68h102v-47h-102v-89q0 -28 4.5 -44t13.5 -24t23 -11t34 -5v-8q-21 0 -50 0.5t-54 0.5q-32 0 -59 -0.5t-54 -0.5v8q20 2 34.5 5t24 11t14 24t4.5 44v89h-282z
M298 594h-1l-247 -366h248v366z" />
    <glyph glyph-name="five" unicode="5" 
d="M58 38q13 -8 39 -16.5t61 -8.5q37 0 70.5 13.5t58 37.5t39 58t14.5 75q0 70 -38 112t-104 42q-23 0 -41 -4.5t-31.5 -11t-22.5 -13.5t-14 -13l-19 -1l7 161q2 43 3.5 83t2.5 80h202q28 0 43.5 1t25.5 7q15 8 21 39h9q-2 -29 -3 -57.5t-2 -45.5h-269l-12 -235q6 5 16.5 13
t27 15.5t38 13t50.5 5.5q35 0 68.5 -9.5t59 -31.5t41 -56.5t15.5 -84.5q0 -52 -17 -92.5t-47.5 -68t-72.5 -41.5t-92 -14q-27 0 -49.5 4t-39.5 10t-28.5 12t-17.5 10z" />
    <glyph glyph-name="six" unicode="6" 
d="M298 645q59 0 94.5 -23t35.5 -58q0 -38 -39 -38q-20 0 -29 10.5t-9 24.5q0 5 0.5 13t0.5 15q0 17 -15.5 28t-44.5 11q-47 0 -77 -28t-47.5 -74t-24 -104t-6.5 -118q3 7 13.5 19t28 23.5t43 20t58.5 8.5q81 0 123 -49.5t42 -134.5q0 -45 -13 -82.5t-37.5 -64t-59.5 -41
t-78 -14.5q-51 0 -88 21.5t-61 60.5t-35.5 95t-11.5 125q0 88 17 154t48 110.5t75 67t97 22.5zM138 264q0 -45 5 -91t18 -83.5t36 -61t60 -23.5q31 0 53.5 14t37 38t21.5 56t7 68q0 35 -7.5 65t-23 52.5t-39 35.5t-55.5 13q-22 0 -40.5 -6t-33 -16t-24.5 -21.5t-15 -23.5
v-16z" />
    <glyph glyph-name="seven" unicode="7" 
d="M188 576q-38 0 -55.5 -3.5t-30.5 -11.5q-17 -11 -25.5 -28t-13.5 -42h-10q1 14 2 35t1.5 42.5t1.5 39.5t2 27q23 -1 56.5 -2t72.5 -1h154h24h28.5t28.5 0.5t24 1.5v-37q-6 -17 -19 -51.5t-30 -79.5t-37.5 -97t-41.5 -104q-48 -121 -106 -265q-14 1 -17 1h-13
q-14 0 -29 -0.5t-20 -0.5v8q3 1 6.5 2t5.5 6q14 32 32 70.5t38.5 81t42 87t42.5 88.5q17 36 35 71t34.5 66t30 56t22.5 40h-236z" />
    <glyph glyph-name="eight" unicode="8" 
d="M444 153q0 -39 -14.5 -69t-40.5 -51t-62.5 -31.5t-80.5 -10.5q-38 0 -73 8t-62 26t-43.5 47t-16.5 70q0 35 12 63.5t33 50t50 36.5t62 24q-30 16 -56 33t-45.5 38.5t-31 48t-11.5 60.5q0 32 13 59.5t37.5 47.5t58.5 31.5t76 11.5q89 0 134 -37.5t45 -100.5
q0 -33 -11.5 -60t-31 -48t-45.5 -35.5t-56 -22.5q31 -18 60 -36t51.5 -39.5t35.5 -49t13 -64.5zM366 505q0 55 -28.5 89.5t-88.5 34.5t-90 -33.5t-30 -82.5q0 -30 9 -52t24.5 -39t35 -30t40.5 -25q5 -3 11 -6t11 -6q6 -4 12 -6q43 22 68.5 61.5t25.5 94.5zM376 134
q0 28 -9 49.5t-25 39t-36.5 32t-42.5 28.5q-6 4 -13.5 8t-13.5 8q-8 4 -15 8q-45 -19 -74.5 -60t-29.5 -101q0 -66 30.5 -103t98.5 -37q57 0 93.5 30t36.5 98z" />
    <glyph glyph-name="nine" unicode="9" 
d="M192 -11q-59 0 -94.5 23t-35.5 58q0 38 39 38q20 0 29 -10.5t9 -24.5q0 -5 -0.5 -13t-0.5 -15q0 -17 15.5 -28t44.5 -11q47 0 77 28t47.5 74t24 104t6.5 118q-3 -7 -13.5 -19t-28 -23.5t-43 -20t-58.5 -8.5q-81 0 -123 49.5t-42 134.5q0 45 13 82.5t37.5 64t59 41
t78.5 14.5q51 0 88 -21.5t61 -60.5t35.5 -95t11.5 -125q0 -88 -17 -154t-48 -110.5t-75 -67t-97 -22.5zM352 370q0 45 -5 91t-18 83.5t-36 61t-60 23.5q-31 0 -53.5 -14t-37 -38t-21.5 -56t-7 -68q0 -35 7.5 -65t23 -52.5t39 -35.5t55.5 -13q22 0 40.5 6t33 16t24.5 21.5
t15 23.5v16z" />
    <glyph glyph-name="colon" unicode=":" horiz-adv-x="219" 
d="M56 42q0 23 15 38t38 15q24 0 39 -15t15 -38t-14.5 -38.5t-39.5 -15.5t-39 15t-14 39zM56 365q0 23 15 38t38 15q24 0 39 -15t15 -38t-14.5 -38.5t-39.5 -15.5t-39 15t-14 39z" />
    <glyph glyph-name="semicolon" unicode=";" horiz-adv-x="219" 
d="M56 365q0 23 15 38t38 15q24 0 39 -15t15 -38t-14.5 -38.5t-39.5 -15.5t-39 15t-14 39zM168 25q0 -26 -8.5 -49t-23 -43t-33.5 -35.5t-41 -25.5l-9 10q15 10 28.5 23t24 28.5t17 32.5t5.5 35q-2 -1 -7.5 -3t-16.5 -2q-20 0 -34.5 12.5t-14.5 36.5q0 22 15 36t37 14
q30 0 45.5 -20.5t15.5 -49.5z" />
    <glyph glyph-name="less" unicode="&#x3c;" horiz-adv-x="585" 
d="M51 272l445 192l1 -42l-407 -174q102 -42 205.5 -87t206.5 -88l1 -43l-452 192v50z" />
    <glyph glyph-name="equal" unicode="=" horiz-adv-x="558" 
d="M66 355h458v-39h-458v39zM66 194h458v-39h-458v39z" />
    <glyph glyph-name="greater" unicode="&#x3e;" horiz-adv-x="585" 
d="M523 222l-452 -192l1 43q103 43 206.5 88t205.5 87l-407 174l1 42l445 -192v-50z" />
    <glyph glyph-name="question" unicode="?" horiz-adv-x="413" 
d="M299 522q0 57 -28.5 82t-72.5 25q-40 0 -62 -16.5t-22 -46.5q0 -8 0.5 -15.5t0.5 -12.5q0 -14 -9 -23.5t-30 -9.5q-38 0 -38 36q0 17 11 35.5t32.5 33.5t52 25t69.5 10q33 0 63 -7t53.5 -23t37 -41t13.5 -62q0 -39 -16 -71.5t-39 -60.5q-11 -13 -24.5 -28t-28 -30
t-28 -30t-24.5 -27q-14 -16 -22 -29t-11.5 -25t-4.5 -23t-1 -24v-6h-13q-6 17 -7 31t-1 27q0 28 10 50t30 48q15 19 34 41t35.5 47.5t28 55.5t11.5 64zM121 42q0 23 15 38t38 15q24 0 39 -15t15 -38t-14.5 -38.5t-39.5 -15.5t-39 15t-14 39z" />
    <glyph glyph-name="at" unicode="@" horiz-adv-x="720" 
d="M457 235q-7 -15 -20 -34t-31 -36.5t-41 -29.5t-50 -12q-38 0 -59 24.5t-21 72.5q0 37 14 82t39.5 84.5t61 66t79.5 26.5q27 0 45 -11t26 -29l10 32h47q0 -2 -0.5 -3t-0.5 -3q-6 -26 -15.5 -73t-23.5 -110q-6 -26 -9 -42.5t-5 -27t-2.5 -17t-0.5 -13.5q0 -40 36 -40
q30 0 55.5 19t44.5 50.5t29.5 72.5t10.5 86q0 54 -16.5 98.5t-49.5 76t-82 48.5t-115 17q-69 0 -123 -26t-91.5 -71t-57.5 -105.5t-20 -128.5q0 -63 19.5 -115t55.5 -89t87.5 -57.5t115.5 -20.5q74 0 119.5 15.5t73.5 32.5l6 -13q-11 -7 -30 -17t-46 -19t-60.5 -15t-72.5 -6
q-83 0 -143.5 24.5t-100.5 66t-59.5 96t-19.5 114.5q0 71 25 135t71 112.5t109.5 77t140.5 28.5q65 0 118 -17.5t90.5 -50.5t57.5 -80.5t20 -107.5q0 -47 -11.5 -91.5t-34 -79.5t-56.5 -56.5t-80 -21.5q-35 0 -49.5 12.5t-14.5 40.5q0 6 1.5 17.5t6.5 40.5h-3zM494 411
q0 17 -12.5 34.5t-39.5 17.5q-33 0 -61 -24t-48 -60.5t-31 -79t-11 -78.5q0 -70 50 -70q28 0 53.5 23t46 60.5t34.5 83.5t19 93z" />
    <glyph glyph-name="A" unicode="A" horiz-adv-x="605" 
d="M-10 8q20 3 33 9.5t22.5 16.5t16 23.5t12.5 30.5l20 53q48 131 98.5 256t98.5 255q5 2 9 4q10 4 16 10q16 -46 65 -180.5t138 -370.5q11 -29 18 -48t16.5 -31t23.5 -18t38 -10v-8h-25.5t-32.5 0.5t-33.5 0.5h-28.5h-26.5t-29.5 -0.5t-28.5 -0.5h-23.5v8q6 0 18 1.5
t24 5.5t21 10.5t9 15.5q0 5 -2.5 13t-4.5 16q-16 45 -33.5 94t-34.5 94h-217q-10 -29 -22.5 -62.5t-24 -64.5t-19 -56t-7.5 -36q0 -8 8.5 -13.5t20.5 -9t24 -5.5t19 -3v-8q-19 0 -46 0.5t-47 0.5q-23 0 -44.5 -0.5t-38.5 -0.5v8zM279 554q-8 -23 -21 -55t-24 -63l-59 -156
h200q-14 39 -28 77t-28 77z" />
    <glyph glyph-name="B" unicode="B" horiz-adv-x="604" 
d="M280 -2q-16 0 -28.5 0.5t-25.5 1t-28 1t-36 0.5q-30 0 -65.5 -0.5t-61.5 -0.5v9q20 2 35.5 5.5t26 12.5t16 25t5.5 44v466q0 28 -5.5 44t-16 25t-26 12.5t-35.5 5.5v9q9 0 23.5 -0.5t32 -0.5t35.5 -0.5t34 -0.5q27 0 63 1t84 1q23 0 58.5 -3t68.5 -18q32 -14 56.5 -43
t24.5 -84q0 -41 -12 -70.5t-33 -49.5t-49 -31t-61 -14v-2q33 -1 66.5 -8t60.5 -24.5t44 -48t17 -77.5q0 -36 -12.5 -69t-38.5 -59q-21 -21 -47 -33t-54.5 -18t-58 -7t-57.5 -1zM465 177q0 54 -18.5 84t-44.5 47q-28 16 -58.5 19t-58.5 3h-90v-245q0 -26 7.5 -40t20.5 -20.5
t30 -7.5t35 -1q26 0 57 5t57.5 21.5t44.5 48.5t18 86zM435 501q0 43 -12.5 70t-32.5 41q-24 19 -53 22.5t-58 3.5q-5 0 -19 -0.5t-28 -0.5h-37v-287h94q26 0 51.5 4t46.5 24q24 20 36 52.5t12 70.5z" />
    <glyph glyph-name="C" unicode="C" horiz-adv-x="629" 
d="M60 320q0 79 21.5 143.5t61 110t96.5 70t128 24.5q39 0 69 -4.5t52.5 -9.5t36 -10t19.5 -5q2 0 3.5 0.5t3.5 0.5l2 -1l8 -167h-11q-7 38 -21 70t-36.5 55.5t-53.5 36.5t-73 13q-52 0 -93 -24t-69.5 -66.5t-43.5 -101t-15 -127.5t15 -127t44.5 -100t72 -66t96.5 -24
q44 0 74 13t50 35.5t32 53.5t20 67h11l-8 -151l-2 -2q-35 -15 -78 -26t-106 -11q-71 0 -127.5 21.5t-96 63.5t-61 103.5t-21.5 141.5z" />
    <glyph glyph-name="D" unicode="D" horiz-adv-x="699" 
d="M163 656h29.5t16.5 0.5t15.5 0.5h27.5q36 0 73.5 -1t74.5 -7.5t71.5 -19.5t63.5 -37q56 -46 80 -112t24 -139q0 -72 -24 -142.5t-79 -121.5q-29 -27 -62.5 -42.5t-71 -23.5t-78.5 -10t-85 -2h-26.5t-17.5 0.5t-18 1t-28 0.5q-30 0 -59 -0.5t-55 -0.5v9q20 2 35.5 5.5
t26 12.5t16 25t5.5 44v466q0 28 -5.5 44t-16 25t-26 12.5t-35.5 5.5v9q9 0 24.5 -0.5t33 -0.5t36 -0.5t34.5 -0.5zM552 330q0 31 -4.5 68t-15.5 72t-29 66t-45 52q-22 17 -46 26.5t-50 14.5t-54 6t-58 1q-14 0 -24 -0.5t-17 -0.5h-14v-554q0 -40 19 -52t64 -12q18 0 43 2
t53 10t56.5 23.5t52.5 42.5q31 35 50 91t19 144z" />
    <glyph glyph-name="E" unicode="E" horiz-adv-x="585" 
d="M398 345v-10q0 -36 1 -64.5t2 -46.5h-12q-7 49 -19 71t-40 30q-10 2 -29.5 3.5t-41 2.5t-40.5 1.5t-27 0.5v-242q0 -21 2.5 -35t12 -22.5t28 -11.5t49.5 -3h53q53 0 85.5 8.5t52.5 26.5t32.5 46.5t24.5 69.5h9q0 -2 -0.5 -15t-1.5 -32t-2.5 -41t-2.5 -40.5t-2.5 -31
l-1.5 -12.5q-19 2 -48 2h-67h-126t-72 0.5t-38 0.5h-25q-30 0 -61.5 -0.5t-57.5 -0.5v9q20 2 35.5 5.5t26 12.5t16 25t5.5 44v467q0 28 -5.5 44t-16 25t-26 12.5t-35.5 5.5v8q9 0 24 -0.5t32.5 -0.5t36 -0.5t34.5 -0.5h236q41 0 68.5 1.5t47.5 3.5l1 -1l8 -162h-11
q-6 24 -12 43.5t-16 35.5t-24.5 27.5t-37.5 19.5q-20 6 -51.5 9.5t-74.5 3.5h-103q-1 -25 -1 -53v-54v-182q8 0 27 0.5t40.5 1.5t41 2.5t29.5 3.5q14 4 24 11t16.5 18.5t11 29t7.5 42.5h12q-1 -18 -2 -46.5t-1 -64.5v-1z" />
    <glyph glyph-name="F" unicode="F" horiz-adv-x="536" 
d="M196 96q0 -28 6.5 -44.5t19 -25.5t31 -12.5t43.5 -4.5v-9q-26 0 -60 0.5t-72 0.5t-70.5 -0.5t-58.5 -0.5v9q20 2 35.5 5.5t26 12.5t16 25t5.5 44v466q0 28 -5.5 44t-16 25t-26 12.5t-35.5 5.5v9q9 0 24 -0.5t32.5 -0.5t36 -0.5t34.5 -0.5h228q41 0 70 1.5t49 3.5l1 -1
l8 -162h-11q-6 24 -12 43.5t-16 35.5t-24.5 27.5t-37.5 19.5q-20 6 -48 9.5t-76 3.5h-96q-1 -25 -1 -50v-51v-188q8 0 25 0.5t36.5 1.5t37.5 2.5t28 3.5q14 4 24 11t16.5 18.5t11 29t7.5 42.5h12q-1 -18 -2 -46.5t-1 -64.5v-12q0 -36 1 -64.5t2 -46.5h-12q-7 49 -19 71
t-40 30q-10 2 -28 3.5t-37.5 2.5t-36.5 1.5t-25 0.5v-236z" />
    <glyph glyph-name="G" unicode="G" horiz-adv-x="686" 
d="M595 44q-16 -8 -37 -17.5t-47.5 -17.5t-59 -13.5t-71.5 -5.5q-153 0 -236.5 85t-83.5 249q0 78 22 141.5t63 108.5t100.5 69.5t134.5 24.5q37 0 68.5 -4t55.5 -9.5t39.5 -10t21.5 -4.5q2 0 3.5 0.5t3.5 0.5l2 -1l8 -170h-11q-7 39 -21.5 71.5t-38 55.5t-57.5 35.5
t-79 12.5q-54 0 -96.5 -23.5t-71.5 -66t-44.5 -100.5t-15.5 -127q0 -66 13.5 -122t39.5 -97q29 -45 74.5 -70t111.5 -25q32 0 61 6t46 15q16 9 23 24t7 51v72q0 28 -5.5 44t-16.5 25t-26.5 12.5t-36.5 5.5v9q19 0 50 -1t63 -1q36 0 68 1t51 1v-9q-18 -2 -32 -5.5
t-23.5 -12.5t-14.5 -25t-5 -44v-43v-45.5t2 -47.5z" />
    <glyph glyph-name="H" unicode="H" horiz-adv-x="718" 
d="M566 656q36 0 67 1t50 1v-9q-20 -2 -35.5 -5t-26 -11.5t-16 -24.5t-5.5 -44v-471q0 -28 5.5 -44t16 -24.5t26 -11.5t35.5 -5v-8h-24.5t-24.5 0.5t-29.5 0.5h-39.5q-30 0 -65.5 -0.5t-61.5 -0.5v8q20 2 35.5 5t26 11.5t16 24.5t5.5 44v234h-325v-234q0 -28 5.5 -44
t16 -24.5t26 -11.5t35.5 -5v-8h-24t-24 0.5t-29.5 0.5h-39.5q-30 0 -65.5 -0.5t-61.5 -0.5v8q20 2 35.5 5t26 11.5t16 24.5t5.5 44v471q0 28 -5.5 44t-16 24.5t-26 11.5t-35.5 5v9q9 0 24.5 -0.5t33 -0.5t36 -0.5t34.5 -0.5q36 0 66.5 1t49.5 1v-9q-20 -2 -35.5 -5
t-26 -11.5t-16 -24.5t-5.5 -44v-212h325v212q0 28 -5.5 44t-16 24.5t-26 11.5t-35.5 5v9q9 0 24.5 -0.5t33 -0.5t36 -0.5t34.5 -0.5z" />
    <glyph glyph-name="I" unicode="I" horiz-adv-x="314" 
d="M156 656q36 0 70 1t53 1v-9q-20 -2 -35.5 -5.5t-26 -12.5t-16 -25t-5.5 -44v-466q0 -28 5.5 -44t16 -25t26 -12.5t35.5 -5.5v-9h-25.5t-26.5 0.5t-31.5 0.5h-40.5q-30 0 -62 -0.5t-58 -0.5v9q20 2 35.5 5.5t26 12.5t16 25t5.5 44v466q0 28 -5.5 44t-16 25t-26 12.5
t-35.5 5.5v9q9 0 23 -0.5t30.5 -0.5t34 -0.5t33.5 -0.5z" />
    <glyph glyph-name="J" unicode="J" horiz-adv-x="349" 
d="M169 562q0 28 -6 44t-17 25t-26.5 12.5t-35.5 5.5v9q9 0 23.5 -0.5t31 -0.5t34.5 -0.5t34 -0.5q36 0 69 1t52 1v-9q-20 -2 -35 -5.5t-25.5 -12.5t-15.5 -25t-5 -44v-356q0 -38 -4 -77t-18 -71t-40.5 -52.5t-70.5 -20.5q-42 0 -71 16.5t-29 48.5q0 17 10.5 28t31.5 11
q20 0 29.5 -10t9.5 -25v-26q0 -14 4.5 -21.5t21.5 -7.5q29 0 38.5 34t9.5 117v412z" />
    <glyph glyph-name="K" unicode="K" horiz-adv-x="615" 
d="M487 1q-27 0 -59 0.5t-52 -1.5v9q8 1 17.5 3t17 4.5t12.5 7t5 12.5q0 11 -10.5 25.5t-21.5 29.5q-27 38 -58.5 82t-57.5 82q-32 44 -62 86v3l203 222q14 15 24.5 29t10.5 26q0 14 -18 20t-35 8v9q20 -1 44.5 -1.5t51.5 -0.5q25 0 45 0.5t45 1.5v-9q-18 -3 -32 -7
t-27.5 -12t-28 -20.5t-33.5 -32.5l-188 -197l228 -304q18 -23 30.5 -36t23.5 -19.5t21.5 -8t23.5 -2.5v-10q-26 2 -57 1.5t-63 -0.5zM156 656q36 0 70 1t53 1v-9q-20 -2 -35.5 -5.5t-26 -12.5t-16 -25t-5.5 -44v-466q0 -28 5.5 -44t16 -25t26 -12.5t35.5 -5.5v-9h-25.5
t-26.5 0.5t-31.5 0.5h-40.5q-30 0 -62 -0.5t-58 -0.5v9q20 2 35.5 5.5t26 12.5t16 25t5.5 44v466q0 28 -5.5 44t-16 25t-26 12.5t-35.5 5.5v9q9 0 23 -0.5t30.5 -0.5t34 -0.5t33.5 -0.5z" />
    <glyph glyph-name="L" unicode="L" horiz-adv-x="539" 
d="M196 91q0 -21 2.5 -35t12 -22.5t28 -11.5t49.5 -3h29q53 0 85.5 8.5t52.5 26.5t32.5 46.5t24.5 69.5h9q0 -2 -0.5 -15t-1 -32t-1.5 -41t-2 -40.5t-2 -31l-1 -12.5q-19 2 -49.5 2h-68.5h-123t-65 0.5t-31 0.5h-22q-30 0 -61.5 -0.5t-57.5 -0.5v9q20 2 35.5 5.5t26 12.5
t16 25t5.5 44v466q0 28 -5.5 44t-16 25t-26 12.5t-35.5 5.5v9q9 0 24.5 -0.5t33 -0.5t36 -0.5t34.5 -0.5q36 0 70 1t53 1v-9q-22 -2 -38.5 -5.5t-28 -12.5t-17.5 -25t-6 -44v-471z" />
    <glyph glyph-name="M" unicode="M" horiz-adv-x="796" 
d="M122 656q20 0 37.5 0.5t22.5 0.5l190 -474q8 -21 15 -40.5t9 -26.5q2 4 13 34t29 76t39.5 103.5t44.5 116t44 114t38 97.5q4 0 13.5 -0.5t28.5 -0.5q34 0 66 1t49 1v-9q-20 -2 -35.5 -5.5t-26 -12.5t-16 -25t-5.5 -44v-466q0 -28 5.5 -44t16 -25t26 -12.5t35.5 -5.5v-9
h-23.5t-23 0.5t-28.5 0.5h-39q-30 0 -64 -0.5t-60 -0.5v9q20 2 34.5 5.5t24 12.5t14 25t4.5 44v359q0 38 0.5 74t1.5 59h-1l-34 -93l-24 -64q-34 -90 -60.5 -157.5t-47 -119t-35 -88.5t-24.5 -65h-13q-22 53 -43 109q-10 26 -26 65.5t-35 86t-39.5 97t-39.5 98.5
q-10 25 -22 58t-21 57h-2q2 -41 2.5 -79t0.5 -87v-310q0 -28 5.5 -44t16 -25t26 -12.5t35.5 -5.5v-9q-26 0 -48 0.5t-52 0.5h-35.5t-21 -0.5t-16 -0.5h-20.5v9q20 2 35.5 5.5t26 12.5t16 25t5.5 44v466q0 28 -5.5 44t-16 25t-26 12.5t-35.5 5.5v9q8 0 15 -0.5t17 -0.5
t24.5 -0.5t37.5 -0.5z" />
    <glyph glyph-name="N" unicode="N" horiz-adv-x="698" 
d="M98 656h42.5t30.5 2l332 -437q19 -25 34 -46t25 -36q-1 13 -1 30v75v318q0 28 -5.5 44t-16 25t-26 12.5t-35.5 5.5v9q26 0 48.5 -1t52.5 -1q23 0 35.5 0.5t21 0.5t16 0.5t20.5 0.5v-9q-20 -2 -35.5 -5.5t-26 -12.5t-16 -25t-5.5 -44v-573h-12l-373 491q-24 32 -39 52.5
t-26 37.5v-28q0 -14 0.5 -32t0.5 -41v-373q0 -28 5.5 -44t16.5 -25t27 -12.5t37 -5.5v-9q-26 0 -49.5 0.5t-53.5 0.5h-35.5t-21.5 -0.5t-16.5 -0.5h-20.5v9q20 2 35.5 5.5t26 12.5t16 25t5.5 44v466q0 28 -5.5 44t-16.5 25t-26.5 12.5t-35.5 5.5v9q17 0 31 -1t39 -1z" />
    <glyph glyph-name="O" unicode="O" horiz-adv-x="734" 
d="M367 10q64 0 106.5 27.5t68 72t36.5 101.5t11 117q0 58 -12 115.5t-38 102.5t-68.5 73t-103.5 28t-103 -28t-68.5 -73t-38 -102t-11.5 -116q0 -60 10.5 -117t36 -101.5t68 -72t106.5 -27.5zM367 668q78 0 135.5 -26.5t95.5 -72.5t57 -108.5t19 -134.5q0 -79 -21 -141.5
t-61 -105.5t-96.5 -66t-128.5 -23t-128.5 23t-96.5 66t-61 105.5t-21 141.5q0 72 19 134.5t57 108.5t95.5 72.5t135.5 26.5z" />
    <glyph glyph-name="P" unicode="P" horiz-adv-x="533" 
d="M161 657q19 0 32 0.5t25 0.5t25 0.5t33 0.5q21 0 51.5 -1.5t60.5 -9.5q27 -6 51 -18.5t43 -32t30 -48.5t11 -68q0 -47 -16 -83.5t-45.5 -61.5t-70.5 -38t-91 -13q-38 0 -64 6.5t-40 14.5v-210q0 -28 6.5 -44.5t19 -25.5t31 -12.5t43.5 -4.5v-9q-26 0 -60 0.5t-72 0.5
t-70.5 -0.5t-58.5 -0.5v9q20 2 35.5 5.5t26 12.5t16 25t5.5 44v466q0 28 -5.5 44t-16 25t-26 12.5t-35.5 5.5v9q34 -1 63.5 -1h62.5zM196 317q8 -2 28 -5t47 -3q38 0 69.5 9t54.5 28.5t35.5 51t12.5 77.5q0 45 -12.5 76t-36 50t-57 27.5t-75.5 8.5q-15 0 -27 -0.5t-20 -0.5
q-10 -1 -18 -1z" />
    <glyph glyph-name="Q" unicode="Q" horiz-adv-x="734" 
d="M367 668q78 0 135.5 -26.5t95.5 -72.5t57 -108.5t19 -134.5q0 -145 -67.5 -231.5t-188.5 -101.5v-2q29 -2 48 -7.5t33.5 -14t26 -18.5t24.5 -22q13 -11 25 -22t25.5 -20t30 -14.5t37.5 -5.5q11 0 24.5 1.5t27.5 6.5l3 -8q-12 -8 -36 -17t-67 -9q-38 0 -66 10t-49.5 25
t-39 33t-34 34.5t-34 29.5t-40.5 17q-69 2 -124.5 25.5t-93.5 66.5t-58.5 104.5t-20.5 139.5q0 72 19 134.5t57 108.5t95.5 72.5t135.5 26.5zM367 9q64 0 106.5 27.5t68 72.5t36.5 102t11 117q0 58 -12 115.5t-38 102.5t-68.5 73t-103.5 28t-103 -28t-68.5 -73t-38 -102
t-11.5 -116q0 -60 10.5 -117t36 -102t68 -72.5t106.5 -27.5z" />
    <glyph glyph-name="R" unicode="R" horiz-adv-x="600" 
d="M347 334l16 -2q51 -11 78 -48t46 -103q10 -37 18.5 -68.5t20.5 -55t29.5 -37t47.5 -14.5v-8q-21 -3 -43 -3q-39 0 -64.5 9t-42 28.5t-27 50.5t-19.5 75q-10 44 -22 84t-42 63q-15 10 -30 14.5t-42 4.5h-75v-228q0 -28 6 -44t17 -25t26.5 -12.5t35.5 -5.5v-9h-24.5
t-25 0.5t-30 0.5h-39.5q-30 0 -65.5 -0.5t-61.5 -0.5v9q20 2 35.5 5.5t26 12.5t16 25t5.5 44v466q0 28 -5.5 44t-16 25t-26 12.5t-35.5 5.5v9q26 -1 61 -1.5t67 -0.5q19 0 31.5 0.5t24 0.5t24.5 0.5t33 0.5q45 0 79.5 -3.5t63.5 -14.5q43 -15 69.5 -47.5t26.5 -90.5
q0 -40 -14 -70t-37.5 -50.5t-53.5 -31.5t-63 -13v-3zM432 494q0 46 -14.5 74t-37.5 43t-52.5 20t-59.5 5q-11 0 -23.5 -0.5t-23.5 -0.5h-25v-290h96q30 0 53 8t40 22q22 17 34.5 46t12.5 73z" />
    <glyph glyph-name="S" unicode="S" horiz-adv-x="523" 
d="M421 497q-8 31 -19 58t-29 47.5t-44 32.5t-62 12q-63 0 -99.5 -31.5t-36.5 -88.5q0 -27 8 -47t22 -35.5t33.5 -27t42.5 -22.5l57 -28q25 -12 55 -27.5t56 -38t43 -53t17 -73.5q0 -93 -62 -139t-164 -46q-41 0 -72.5 5t-54.5 12t-36.5 13t-16.5 8q-1 40 -2.5 79.5
t-2.5 78.5h11q9 -39 23 -71.5t35 -55.5t49.5 -35.5t67.5 -12.5q40 0 68 10.5t46 28.5t26 42.5t8 52.5q0 32 -10.5 55t-27.5 40t-38.5 29t-42.5 23l-51 25q-32 15 -61 31.5t-51.5 37.5t-35.5 48.5t-13 65.5q0 47 19 79t49.5 52t68 28.5t74.5 8.5q30 0 54.5 -3t43.5 -7t31 -7
t16 -3t5 1q1 0 2 1l5 -2l6 -151h-10z" />
    <glyph glyph-name="T" unicode="T" horiz-adv-x="592" 
d="M447 656q41 0 68.5 1.5t47.5 3.5l1 -1l8 -165h-10q-6 24 -12 44t-16 36.5t-24.5 28.5t-37.5 20q-20 6 -46 9.5t-69 3.5h-18v-541q0 -28 6.5 -44t19 -25t30 -12.5t40.5 -5.5v-9q-26 0 -58.5 0.5t-78.5 0.5h-33t-36 -0.5t-34.5 -0.5h-29.5v9q22 2 40 5.5t30.5 12.5t19 25
t6.5 44v541h-26q-43 0 -69 -3.5t-46 -9.5q-23 -8 -38 -20t-24.5 -28.5t-15.5 -36.5t-12 -44h-10l8 165l1 1q20 -2 47.5 -3.5t68.5 -1.5h302z" />
    <glyph glyph-name="U" unicode="U" horiz-adv-x="686" 
d="M363 17q72 0 112 25t54 69q9 27 12 59.5t3 70.5v321q0 28 -5.5 44t-16 25t-26 12.5t-35.5 5.5v9q26 0 48 -1t52 -1q23 0 38 0.5t26 0.5t21 0.5t23 0.5v-9q-20 -2 -35.5 -5.5t-26 -12.5t-16 -25t-5.5 -44v-237q0 -38 1 -76t-4 -77q-4 -37 -16.5 -70t-38.5 -58t-69 -39.5
t-107 -14.5q-52 0 -89 8.5t-63 23.5t-42 36.5t-26 47.5q-13 32 -16.5 69.5t-3.5 79.5v307q0 28 -5.5 44t-16 25t-26 12.5t-35.5 5.5v9q9 0 24.5 -0.5t33 -0.5t36 -0.5t34.5 -0.5q36 0 66.5 1t49.5 1v-9q-20 -2 -35.5 -5.5t-26 -12.5t-16 -25t-5.5 -44v-321q0 -43 4 -79
t16 -65q16 -37 53 -58.5t100 -21.5z" />
    <glyph glyph-name="V" unicode="V" horiz-adv-x="609" 
d="M373 224q46 126 75 205.5t45 126.5q8 25 12.5 38.5t4.5 22.5t-7 14.5t-17.5 9t-23 5.5t-22.5 4v8q26 -1 49 -1.5t43 -0.5q23 0 44 0.5t39 1.5v-8q-20 -3 -33 -9.5t-22.5 -16.5t-16 -23.5t-12.5 -30.5q-63 -167 -114.5 -307t-99.5 -269h-30q-8 23 -24 67.5t-40.5 112
t-58 159.5t-78.5 210q-11 29 -18 48t-16.5 31t-23.5 18t-38 10v8q34 -1 65 -1.5t54 -0.5t52.5 0.5t57.5 1.5v-8q-6 0 -18 -1.5t-24 -5.5t-21 -10.5t-9 -15.5q0 -5 2.5 -13t4.5 -16q31 -89 64.5 -179t66.5 -185l44 -126q4 12 9.5 27t11 32t11.5 34.5t12 32.5z" />
    <glyph glyph-name="W" unicode="W" horiz-adv-x="958" 
d="M486 655v1h27q16 -48 34 -101t36 -108t36 -108.5t34 -102.5q8 -26 21 -62t21 -63h1q7 23 14 45q6 19 13.5 40.5t13.5 39.5q21 63 37.5 112t28.5 88t21 68t16 52q8 26 12.5 39.5t4.5 21.5q0 9 -7.5 14.5t-19 9.5t-25 6t-25.5 3v8q26 -1 50.5 -1.5t44.5 -0.5q23 0 47.5 0.5
t42.5 1.5v-8q-20 -3 -33.5 -9.5t-22.5 -16.5t-15.5 -23.5t-12.5 -30.5q-30 -84 -56 -160t-49.5 -147t-46.5 -138t-47 -131h-31l-12 40q-5 17 -12 38.5t-14 43.5q-8 22 -19 54.5t-24.5 71.5t-28.5 83.5t-31 91.5q-6 20 -17 52t-17 55h-1q-8 -26 -16 -54t-16 -52
q-24 -73 -47.5 -146.5t-46.5 -140.5q-13 -38 -25 -72.5t-22 -64.5h-31l-41 122q-23 69 -59 174.5t-86 252.5q-10 30 -17 49t-16.5 30.5t-24 17.5t-38.5 10v8q34 -1 65.5 -1.5t54.5 -0.5t51 0.5t56 1.5v-8q-6 0 -18 -1.5t-24 -5.5t-21 -10.5t-9 -15.5q0 -5 2.5 -13t4.5 -16
q31 -89 61 -175t61 -178q4 -11 9.5 -27t11.5 -33t12 -33.5t9 -28.5h2l17.5 57.5t20.5 65.5q21 63 40 124.5t36 116.5t30.5 101t23.5 78z" />
    <glyph glyph-name="X" unicode="X" horiz-adv-x="580" 
d="M166 626q0 -8 4.5 -19t16.5 -31l116 -186q13 20 30.5 45.5t35.5 52t34.5 51.5t27.5 43q10 17 15.5 27t5.5 18q0 14 -19 17.5t-41 4.5v9q24 -2 43 -2h40h46.5t43.5 2v-9q-20 -3 -33 -7.5t-23.5 -11.5t-20 -18t-21.5 -26q-8 -10 -26 -36t-40 -58.5t-45 -66t-40 -58.5
l169 -271q15 -25 28 -41t25.5 -26t25.5 -14.5t28 -5.5v-9q-8 1 -22 1.5t-29.5 1t-31 0.5h-27.5h-29t-32 -0.5t-30.5 -1t-23.5 -1.5v9q37 2 47.5 7t10.5 16q0 8 -4.5 19t-16.5 31l-139 223q-10 -15 -28.5 -44t-39.5 -62t-41.5 -66t-34.5 -56q-10 -17 -16 -27t-6 -18
q0 -14 19 -18t41 -5v-9q-24 1 -43 1.5t-40 0.5h-45.5t-42.5 -2v9q35 4 53.5 18.5t41.5 45.5q9 12 32.5 47.5t50 76.5t51 77.5t35.5 51.5l-143 236q-15 25 -28 41t-25.5 25.5t-25.5 14t-28 6.5v9q8 -1 22 -1.5t29.5 -0.5h31h27.5h28h30t28.5 0.5t22.5 1.5v-9q-32 -2 -43.5 -7
t-11.5 -16z" />
    <glyph glyph-name="Y" unicode="Y" horiz-adv-x="549" 
d="M314 293v-197q0 -28 6.5 -44t19 -25t30 -12.5t40.5 -5.5v-9q-26 0 -62.5 0.5t-82.5 0.5q-30 0 -64 -0.5t-60 -0.5v9q22 2 40 5.5t30.5 12.5t19 25t6.5 44v179q-14 24 -36.5 65t-48.5 87.5t-52.5 92.5t-46.5 80q-13 21 -22.5 32.5t-34.5 16.5v9q24 -1 51 -1.5t52 -0.5
t54.5 0.5t47.5 1.5v-9q-61 -10 -61 -32q0 -10 6.5 -24t17.5 -33q23 -40 48 -84t48 -81q11 -19 22 -36t19 -32h3q10 17 18 31.5t21 38.5q24 44 50 86.5t46 82.5q8 17 14 30t6 22q0 14 -19 20.5t-43 10.5v9q17 -2 38 -2h39h42t37 2v-9q-13 -3 -22 -6t-16 -8.5t-13.5 -14
t-14.5 -22.5z" />
    <glyph glyph-name="Z" unicode="Z" horiz-adv-x="576" 
d="M541 642l-423 -623h205q53 0 85.5 8.5t52.5 26.5t32.5 46.5t24.5 69.5h9q0 -2 -0.5 -15t-1.5 -32t-2.5 -41t-2.5 -40.5t-2.5 -31l-1.5 -12.5q-19 2 -48 2h-67h-377v18l422 621h-179q-46 0 -72.5 -3.5t-46.5 -9.5q-23 -8 -38 -19.5t-24.5 -27.5t-15.5 -35.5t-12 -43.5h-10
l8 162l1 1q20 -2 49 -3.5t70 -1.5h211q46 0 86 0.5t68 1.5v-18z" />
    <glyph glyph-name="bracketleft" unicode="[" horiz-adv-x="353" 
d="M129 -226v920h153v-16h-93v-888h93v-16h-153z" />
    <glyph glyph-name="backslash" unicode="\" horiz-adv-x="314" 
d="M272 -152h-33l-195 886h33z" />
    <glyph glyph-name="bracketright" unicode="]" horiz-adv-x="353" 
d="M71 -226v16h93v888h-93v16h153v-920h-153z" />
    <glyph glyph-name="asciicircum" unicode="^" horiz-adv-x="343" 
d="M2 251h-42l184 448h54l185 -448h-42l-167 412h-6z" />
    <glyph glyph-name="underscore" unicode="_" horiz-adv-x="537" 
d="M20 -166v30h497v-30h-497z" />
    <glyph glyph-name="grave" unicode="`" horiz-adv-x="695" 
d="M397 511l-6 -9l-174 96q-9 5 -15 12t-6 18q0 14 9 21t20 7q10 0 16 -3.5t11 -8.5z" />
    <glyph glyph-name="a" unicode="a" horiz-adv-x="446" 
d="M290 65q-17 -32 -50 -53.5t-82 -21.5q-55 0 -88.5 30t-33.5 79q0 32 13.5 53.5t36.5 35.5q33 20 78.5 26.5t92.5 6.5q9 0 18.5 -0.5t16.5 -0.5q0 10 0.5 31.5t0.5 41.5q0 24 -2.5 46.5t-11.5 40t-27.5 28.5t-51.5 11q-32 0 -43.5 -7.5t-11.5 -18.5q0 -7 1 -15.5t1 -17.5
q0 -33 -41 -33q-18 0 -28.5 8t-10.5 26q0 14 8 27t22 22q19 12 49 19.5t68 7.5q57 0 86.5 -13.5t42 -35t14 -48t1.5 -51.5v-35q0 -14 -0.5 -35.5t-0.5 -43.5t-0.5 -41.5t-0.5 -29.5q0 -25 2 -41t6.5 -25t12 -12t18.5 -3t19 4.5t12 7.5l5 -5q-11 -14 -30.5 -26.5t-51.5 -12.5
q-34 0 -45.5 21.5t-11.5 52.5h-2zM292 203q-42 0 -76.5 -4t-59 -15t-37.5 -30t-13 -49q0 -42 23.5 -63.5t58.5 -21.5q21 0 39.5 7.5t33 22t23 35.5t8.5 49v69z" />
    <glyph glyph-name="b" unicode="b" horiz-adv-x="530" 
d="M100 609q0 20 -5 32t-14.5 19t-23 10t-31.5 5v10q43 1 80.5 2t63.5 1q-2 -60 -3 -123t-1 -117v-99h3q5 13 15.5 28.5t27.5 28.5t40 21.5t53 8.5q46 0 79.5 -17.5t54.5 -47.5t31 -70.5t10 -86.5q0 -45 -11.5 -86t-34.5 -72t-57.5 -49t-80.5 -18q-28 0 -48.5 6.5t-35.5 16
t-25 21.5t-16 24l-65 -62l-7 2q1 26 1 63v87v462zM161 205q0 -92 28.5 -142t88.5 -50q33 0 57 16.5t40 44t23.5 63.5t7.5 76q0 38 -8 73t-24 62t-39.5 43.5t-54.5 16.5q-60 0 -89.5 -54.5t-29.5 -148.5z" />
    <glyph glyph-name="c" unicode="c" horiz-adv-x="427" 
d="M399 94q-17 -44 -56 -74.5t-102 -30.5q-87 0 -139 58t-52 164q0 53 14.5 95t41.5 71t64.5 44t83.5 15q36 0 62 -8t42.5 -20t24 -27t7.5 -29q0 -21 -10 -27.5t-28 -6.5q-20 0 -29.5 7.5t-9.5 25.5q0 9 0.5 14t0.5 12q0 19 -14 31.5t-47 12.5q-26 0 -49 -12t-40 -36
t-27.5 -60.5t-10.5 -85.5q0 -97 38.5 -152.5t106.5 -55.5q25 0 44 8t33 20t23.5 26t15.5 26z" />
    <glyph glyph-name="d" unicode="d" horiz-adv-x="541" 
d="M362 76q-5 -13 -15.5 -28.5t-27 -28.5t-39.5 -21.5t-53 -8.5q-47 0 -80.5 17.5t-55 47.5t-31.5 70.5t-10 86.5q0 45 11.5 86t34 72t57 49t81.5 18q32 0 55 -8t38.5 -20t24 -25.5t13.5 -24.5v249q0 20 -5 32.5t-14.5 19.5t-23 10.5t-31.5 5.5v10q43 1 80 2t63 1
q-2 -60 -3 -120.5t-1 -114.5v-362q0 -28 4.5 -43.5t13.5 -23.5t23 -10.5t34 -4.5v-9h-140v76h-3zM369 220q0 92 -28 142t-88 50q-33 0 -57 -17t-39.5 -45t-23 -64t-7.5 -74q0 -37 8 -72t23.5 -62.5t39 -44t54.5 -16.5q62 0 90 54.5t28 148.5z" />
    <glyph glyph-name="e" unicode="e" horiz-adv-x="447" 
d="M401 93q-10 -20 -23 -38.5t-32 -33t-44.5 -23.5t-60.5 -9q-87 0 -139 56.5t-52 162.5q0 53 13.5 95.5t38.5 72t60.5 45.5t79.5 16q43 0 73.5 -12.5t49.5 -35.5t28 -54.5t9 -69.5v-12l-278 4q-1 -5 -1 -9v-17q0 -47 9.5 -86t27.5 -67t45 -43.5t63 -15.5q24 0 43.5 7
t34.5 18.5t25.5 25.5t18.5 28zM328 276v14q0 25 -5 48.5t-16 42t-27.5 29.5t-40.5 11q-26 0 -45.5 -11.5t-33.5 -31.5t-22.5 -47t-11.5 -58z" />
    <glyph glyph-name="f" unicode="f" horiz-adv-x="293" 
d="M291 426v-20l-120 1v-314q0 -28 4 -44t14.5 -24t28 -11t44.5 -5v-9h-27.5t-35 0.5t-36.5 0.5h-30q-32 0 -54 -0.5t-49 -0.5v9q20 2 34 5t23 11t13.5 24t4.5 44v313h-70v20l70 -1v28q0 38 4 69.5t14 58.5q17 48 54 80.5t100 32.5q54 0 81.5 -20t27.5 -47q0 -34 -36 -34
q-21 0 -28.5 8t-7.5 22q0 6 0.5 9t0.5 11q0 13 -8.5 25t-39.5 12q-32 0 -51 -15t-29 -40t-13 -57t-3 -65v-78z" />
    <glyph glyph-name="g" unicode="g" horiz-adv-x="470" 
d="M216 437q41 0 72 -13.5t45 -27.5q12 16 29.5 29.5t42.5 13.5q21 0 35.5 -9.5t14.5 -31.5q0 -18 -10 -25t-24 -7q-11 0 -19.5 6t-8.5 17v4q-1 6 -3 11.5t-10 5.5q-11 0 -22.5 -8t-16.5 -13q4 -4 10.5 -13.5t12.5 -22.5t10 -29.5t4 -35.5q0 -74 -45 -111t-120 -37
q-21 0 -34 3q-8 1 -15 3q-11 -10 -17.5 -23.5t-6.5 -27.5q0 -6 1 -11.5t5.5 -10.5t13.5 -8.5t25 -4.5l37 -4q22 -2 44.5 -4.5t44 -7t41.5 -11.5t36 -18q19 -14 31.5 -34.5t12.5 -50.5q0 -45 -19.5 -76.5t-52 -51.5t-73 -29t-82.5 -9q-36 0 -70 7.5t-60.5 22.5t-42.5 39
t-16 57q0 28 11 49t28 35t37.5 23t39.5 13v1q-17 5 -29 17t-12 38q0 18 6 31.5t15.5 23.5t21 17t21.5 11q-20 6 -39 16t-33.5 26.5t-23.5 40.5t-9 58q0 36 12.5 63t35 46t52.5 28.5t66 9.5zM374 -100q0 31 -15 50t-39 29.5t-53 15t-57 6.5l-67 5q-32 -17 -49.5 -44
t-17.5 -62q0 -57 37 -87t102 -30q28 0 56.5 5.5t51.5 18.5t37 35.5t14 57.5zM309 291q0 24 -4.5 47.5t-15 42t-28.5 30.5t-45 12q-28 0 -46.5 -12t-30 -31.5t-16 -43t-4.5 -47.5q0 -23 4.5 -46.5t15 -43t29 -32t45.5 -12.5q29 0 48 12.5t29.5 32t14.5 43.5t4 48z" />
    <glyph glyph-name="h" unicode="h" horiz-adv-x="551" 
d="M172 448q-1 -30 -1 -63.5v-53.5q16 43 56 74.5t101 31.5q69 0 98.5 -39t29.5 -113v-196q0 -28 4.5 -43.5t13.5 -23t23 -10t34 -4.5v-8q-21 0 -50.5 0.5t-54.5 0.5q-32 0 -58 -0.5t-53 -0.5v8q20 2 34 4.5t23 10t13.5 23t4.5 43.5v197q0 57 -22.5 89t-72.5 32
q-27 0 -48.5 -12.5t-37.5 -32.5t-25.5 -47t-11.5 -55v-171q0 -28 4.5 -43.5t13.5 -23t23 -10t34 -4.5v-8q-21 0 -51 0.5t-55 0.5q-32 0 -57.5 -0.5t-52.5 -0.5v8q20 2 34 4.5t23 10t13.5 23t4.5 43.5v520q0 20 -5 32t-14.5 19t-23 10t-31.5 5v10q43 1 80.5 2t63.5 1
q-2 -60 -3 -123t-1 -117z" />
    <glyph glyph-name="i" unicode="i" horiz-adv-x="276" 
d="M137 586q-21 0 -34.5 13t-13.5 35t13.5 34.5t36.5 12.5q20 0 34 -12.5t14 -33.5q0 -23 -14 -36t-36 -13zM31 9q20 2 34 5t23 11t13.5 24t4.5 44v254q0 20 -5 32.5t-14.5 19.5t-23 10.5t-31.5 5.5v10q43 1 80.5 2t63.5 1q-2 -60 -3 -123t-1 -117v-95q0 -28 4.5 -44
t13.5 -24t23 -11t34 -5v-9q-21 0 -51 0.5t-55 0.5q-32 0 -57.5 -0.5t-52.5 -0.5v9z" />
    <glyph glyph-name="j" unicode="j" horiz-adv-x="262" 
d="M106 347q0 20 -5 32.5t-14.5 19.5t-23 10.5t-31.5 5.5v10q43 1 80.5 2t63.5 1q-2 -60 -3 -123t-1 -117v-70q0 -59 -3.5 -104t-14.5 -81q-17 -57 -55 -97t-111 -69l-5 9q43 25 68 49.5t37 54.5t15 69t3 95v303zM137 586q-21 0 -34.5 13t-13.5 35t13.5 34.5t36.5 12.5
q20 0 34 -12.5t14 -33.5q0 -23 -14 -36t-36 -13z" />
    <glyph glyph-name="k" unicode="k" horiz-adv-x="486" 
d="M498 -1q-9 0 -21.5 0.5t-26 1t-27 0.5h-24.5q-18 0 -32.5 -0.5t-24.5 -0.5q-12 -1 -21 -1v10q11 1 24.5 3t13.5 8q0 5 -9.5 17t-17.5 23l-72 94q-20 26 -36 46t-25 31v4l53 46q16 14 34.5 30t34 31.5t25.5 28.5t10 21q0 7 -5 11.5t-12.5 7t-15.5 4t-14 2.5v9
q17 -2 39.5 -2h45.5h39.5t44.5 2v-9q-17 -3 -28.5 -7.5t-22.5 -11t-23.5 -16t-29.5 -23.5l-116 -97q38 -48 79.5 -98t96.5 -117q14 -16 27 -26t37 -12v-10zM31 9q20 2 34 4.5t23 10.5t13.5 23.5t4.5 43.5v518q0 20 -5 32t-14.5 19t-23 10t-31.5 5v10q43 1 80.5 2t63.5 1
q-2 -60 -3 -123t-1 -117v-357q0 -28 4.5 -43.5t13.5 -23.5t23 -10.5t34 -4.5v-9q-21 0 -50.5 0.5t-54.5 0.5q-32 0 -58 -0.5t-53 -0.5v9z" />
    <glyph glyph-name="l" unicode="l" horiz-adv-x="275" 
d="M31 9q20 2 34 4.5t23 10.5t13.5 23.5t4.5 43.5v518q0 20 -5 32t-14.5 19t-23 10t-31.5 5v10q43 1 80.5 2t63.5 1q-2 -60 -3 -123t-1 -117v-357q0 -28 4.5 -43.5t13.5 -23.5t23 -10.5t34 -4.5v-9q-21 0 -50.5 0.5t-54.5 0.5q-32 0 -58 -0.5t-53 -0.5v9z" />
    <glyph glyph-name="m" unicode="m" horiz-adv-x="822" 
d="M28 8q20 2 34 4.5t23 10t13.5 23t4.5 43.5v261q0 20 -5 32t-14.5 18.5t-23 9.5t-31.5 5v10q43 1 79.5 2t62.5 1q-2 -22 -2 -48v-49q16 43 53.5 74.5t98.5 31.5q57 0 86.5 -27.5t37.5 -80.5h1q8 21 21 40.5t32 34.5t44 24t57 9q69 0 98 -39t29 -113v-196q0 -28 4.5 -43.5
t13.5 -23t23 -10t34 -4.5v-8q-21 0 -50.5 0.5t-54.5 0.5q-32 0 -58 -0.5t-53 -0.5v8q20 2 34 4.5t23 10t13.5 23t4.5 43.5v197q0 57 -22 89t-72 32q-27 0 -48 -12.5t-36 -32.5t-24 -47t-11 -55v-171q0 -28 4.5 -43.5t13.5 -23t23 -10t34 -4.5v-8q-21 0 -50.5 0.5t-54.5 0.5
q-32 0 -58 -0.5t-53 -0.5v8q20 2 34 4.5t23 10t13.5 23t4.5 43.5v197q0 57 -22 89t-72 32q-27 0 -48 -12.5t-36 -32.5t-24 -47t-11 -55v-171q0 -28 4.5 -43.5t13.5 -23t23 -10t34 -4.5v-8q-21 0 -51 0.5t-55 0.5q-32 0 -57.5 -0.5t-52.5 -0.5v8z" />
    <glyph glyph-name="n" unicode="n" horiz-adv-x="548" 
d="M28 8q20 2 34 4.5t23 10t13.5 23t4.5 43.5v261q0 20 -5 32t-14.5 18.5t-23 9.5t-31.5 5v10q43 1 79.5 2t62.5 1q-2 -22 -2 -48v-49q16 43 55.5 74.5t100.5 31.5q69 0 98.5 -39t29.5 -113v-196q0 -28 4.5 -43.5t13.5 -23t23 -10t34 -4.5v-8q-21 0 -50.5 0.5t-54.5 0.5
q-32 0 -58 -0.5t-53 -0.5v8q20 2 34 4.5t23 10t13.5 23t4.5 43.5v197q0 57 -22.5 89t-72.5 32q-27 0 -48.5 -12.5t-37.5 -32.5t-25.5 -47t-11.5 -55v-171q0 -28 4.5 -43.5t13.5 -23t23 -10t34 -4.5v-8q-21 0 -51 0.5t-55 0.5q-32 0 -57.5 -0.5t-52.5 -0.5v8z" />
    <glyph glyph-name="o" unicode="o" horiz-adv-x="508" 
d="M458 214q0 -104 -52.5 -164.5t-152.5 -60.5q-99 0 -151 60t-52 161q0 50 14 91.5t40.5 71.5t64 46.5t85.5 16.5t85.5 -16.5t64 -46t40.5 -70t14 -89.5zM384 211q0 93 -32 150.5t-98 57.5q-65 0 -96.5 -57.5t-31.5 -150.5q0 -95 31.5 -150t96.5 -55t97.5 55t32.5 150z" />
    <glyph glyph-name="p" unicode="p" horiz-adv-x="522" 
d="M92 347q0 20 -5 32.5t-14.5 19.5t-23 10.5t-31.5 5.5v10q43 1 79 2t62 1q-1 -8 -1 -19v-24v-36h3q5 13 15.5 28.5t27.5 28.5t40 21.5t53 8.5q46 0 79.5 -17.5t54.5 -47.5t31 -70.5t10 -86.5q0 -45 -11.5 -86t-34.5 -72t-57.5 -49t-80.5 -18q-28 0 -49 7t-36.5 17.5
t-26 23.5t-16.5 25h-2v-194q0 -28 4 -44t14.5 -24t28 -11t44.5 -5v-9h-27.5t-34.5 0.5t-36 0.5h-30q-32 0 -54.5 -0.5t-49.5 -0.5v9q20 2 34 5t23 11t13.5 24t4.5 44v479zM153 205q0 -92 28.5 -142t88.5 -50q33 0 57 16.5t40 44t23.5 63.5t7.5 76q0 38 -8 73t-24 62
t-39.5 43.5t-54.5 16.5q-60 0 -89.5 -54.5t-29.5 -148.5z" />
    <glyph glyph-name="q" unicode="q" horiz-adv-x="520" 
d="M364 -10v53q0 16 1 33h-3q-5 -13 -15.5 -28.5t-27 -28.5t-39.5 -21.5t-53 -8.5q-47 0 -80.5 17.5t-55 47.5t-31.5 70.5t-10 86.5q0 45 11.5 86t34 72t57 49t81.5 18q32 0 55 -8t38.5 -20t24 -25.5t13.5 -24.5v70q26 0 61 -1t78 -2v-11q-18 -2 -31.5 -5.5t-23 -10.5
t-14.5 -19.5t-5 -32.5v-478q0 -28 4.5 -44t13.5 -24t23 -11t34 -5v-9q-27 0 -49 0.5t-54 0.5h-30t-36.5 -0.5t-35.5 -0.5h-27v9q27 2 44.5 5t28 11t14.5 24t4 44v122zM369 220q0 92 -28 142t-88 50q-33 0 -57 -17t-39.5 -45t-23 -64t-7.5 -74q0 -37 8 -72t23.5 -62.5t39 -44
t54.5 -16.5q62 0 90 54.5t28 148.5z" />
    <glyph glyph-name="r" unicode="r" horiz-adv-x="356" 
d="M169 93q0 -28 4 -44t15 -24t30 -11t50 -5v-9h-28t-36 0.5t-37.5 0.5h-30.5q-32 0 -56.5 -0.5t-51.5 -0.5v9q20 2 34 5t23 11t13.5 24t4.5 44v251q0 20 -5 32.5t-14.5 19.5t-23 10.5t-31.5 5.5v13q43 1 79.5 2t62.5 1q-2 -24 -2.5 -50t-1.5 -50h1q6 19 16.5 38t25.5 34.5
t35 25t44 9.5q32 0 48.5 -15t16.5 -38q0 -38 -38 -38q-21 0 -28 9.5t-9 21.5t-4 21.5t-14 9.5q-18 0 -35 -13t-29.5 -34.5t-20 -50.5t-7.5 -60v-155z" />
    <glyph glyph-name="s" unicode="s" horiz-adv-x="377" 
d="M293 323q-4 16 -10.5 33.5t-18 32t-29.5 23.5t-45 9q-33 0 -57.5 -18t-24.5 -55q0 -29 15.5 -47t40.5 -29l52 -23q17 -8 37 -17.5t37.5 -24.5t29 -36.5t11.5 -51.5q0 -64 -44 -96.5t-116 -32.5q-29 0 -51.5 4t-39 8.5t-26 9t-12.5 6.5l-2 104h10q13 -50 40 -83.5
t80 -33.5t75.5 26.5t22.5 61.5q0 20 -7 34.5t-18 25.5t-25.5 18.5t-29.5 14.5l-36 16q-21 9 -40.5 20t-33.5 25t-22.5 32.5t-8.5 43.5q0 32 13.5 53.5t34.5 35t46.5 19t49.5 5.5q41 0 69 -7t36 -7q2 0 3 0.5t2 0.5l2 -1v-99h-10z" />
    <glyph glyph-name="t" unicode="t" horiz-adv-x="313" 
d="M95 470q26 7 39 28t18 56h10q-2 -33 -2.5 -63.5t-0.5 -65.5l130 1v-20l-130 1l-1 -270q0 -59 14 -88.5t58 -29.5q20 0 35.5 8t23.5 16l8 -6q-4 -6 -12.5 -13.5t-22 -15t-31.5 -12.5t-42 -5q-32 0 -51.5 10t-30 30t-13.5 48.5t-3 66.5v5v41.5t0.5 70.5t1 78.5t0.5 64.5
h-70v20l71 -1z" />
    <glyph glyph-name="u" unicode="u" horiz-adv-x="530" 
d="M363 347q0 20 -5 32.5t-14.5 19.5t-23 10.5t-31.5 5.5v10q43 1 80.5 2t63.5 1q-2 -60 -3 -123.5t-1 -117.5v-109q0 -20 5 -32.5t14.5 -19.5t23 -10.5t31.5 -5.5v-10q-43 -1 -79.5 -1h-62.5q2 22 2 49.5v50.5q-16 -45 -55 -77t-103 -32q-35 0 -57.5 10t-35.5 29.5
t-17.5 47.5t-4.5 65v205q0 20 -4 32.5t-12.5 19.5t-21.5 10.5t-31 5.5v10q43 1 78 2t61 1q-2 -60 -3 -123.5t-1 -117.5v-45q0 -57 17 -89t65 -32q27 0 49 11.5t38 31t26 45t12 54.5v184z" />
    <glyph glyph-name="v" unicode="v" horiz-adv-x="435" 
d="M212 -13q-36 97 -75 191.5t-77 190.5q-9 22 -20.5 33t-36.5 16v9q17 -2 41 -2.5t49 -0.5t51.5 0.5t44.5 2.5v-9q-59 -10 -59 -32q0 -10 5.5 -25t12.5 -32q12 -31 26 -65.5t27.5 -68.5t25 -64t19.5 -52l21 55q6 16 15 37t15 38q9 22 19.5 48t20.5 51t16.5 45.5t6.5 31.5
q0 14 -19 21t-43 12v9q17 -2 40.5 -2.5t41.5 -0.5q22 0 34.5 0.5t29.5 2.5v-9q-14 -3 -22 -7t-14 -9.5t-10 -13t-9 -18.5l-10 -23l-147 -360h-20v0z" />
    <glyph glyph-name="w" unicode="w" horiz-adv-x="683" 
d="M164 91q-25 66 -50.5 138.5t-50.5 138.5q-8 21 -20 33t-37 17v9q17 -2 41 -2.5t48 -0.5q26 0 53 0.5t46 2.5v-9q-28 -5 -44.5 -12.5t-16.5 -19.5q0 -9 5.5 -24.5t10.5 -28.5l48 -143l7.5 -22.5l11.5 -34.5q7 -21 16 -45q1 5 4.5 14.5t6.5 17.5l110 307q2 0 5 -0.5
t11 -0.5q7 0 7.5 0.5t2.5 0.5q1 -9 9 -32.5t19 -53.5t23.5 -63t23.5 -63l33 -89q1 -4 3.5 -9.5t4.5 -11.5q3 -7 5 -15q3 10 8 25t11 31.5t12 34.5t12 34l5 14q21 60 36 101.5t15 55.5q0 13 -19.5 20t-42.5 12v9q17 -2 40.5 -2.5t42.5 -0.5q21 0 33.5 0.5t29.5 2.5v-9
q-26 -6 -36 -14.5t-18 -28.5l-16 -41q-18 -46 -37.5 -98t-37 -101t-32 -88.5t-21.5 -59.5h-18q-5 16 -13.5 41t-19.5 54.5t-22.5 61.5t-22.5 63q-5 13 -11.5 30t-12.5 34.5t-11.5 34.5t-8.5 31q-1 -3 -3.5 -10t-5.5 -15t-5.5 -15t-3.5 -10q-14 -40 -31 -87.5t-33 -92.5
l-42 -120h-18z" />
    <glyph glyph-name="x" unicode="x" horiz-adv-x="452" 
d="M0 8q17 2 29 6t21.5 10.5t18.5 16t20 21.5q13 15 27 33t28.5 37t27.5 37t25 33q-22 32 -44.5 64t-44.5 65q-16 24 -28 40t-22.5 25.5t-22 14t-26.5 6.5v10q17 -2 46.5 -2.5t53.5 -0.5q50 0 88 3v-10q-18 -2 -33 -5.5t-15 -16.5q0 -11 6.5 -21.5t19.5 -27.5l64 -89
q11 15 26 34.5t29 39t24 36t10 24.5t-5 13t-12.5 7.5t-16.5 3.5t-16 1v10q17 -2 37.5 -2h41.5h40.5t37.5 2v-10q-32 -4 -51 -17.5t-42 -44.5q-23 -29 -45 -57t-45 -57l62 -90q12 -17 23 -33.5t20 -29t15 -21l6 -8.5q18 -26 34 -37t40 -13v-8q-18 0 -48 0.5t-55 0.5
q-26 0 -47.5 -0.5t-40.5 -0.5v8q17 2 33 5.5t16 17.5q0 8 -11.5 25t-26.5 40q-14 21 -32 45t-30 42q-14 -19 -36 -48t-39 -53q-11 -17 -18.5 -29.5t-7.5 -20.5q0 -14 15.5 -18t35.5 -6v-8q-17 0 -36.5 0.5t-40.5 0.5q-20 0 -43 -0.5t-40 -0.5v8z" />
    <glyph glyph-name="y" unicode="y" horiz-adv-x="435" 
d="M388 363q-8 -20 -22.5 -55.5t-31.5 -77.5t-34.5 -86.5t-32.5 -81.5q-20 -52 -38 -106t-40 -97.5t-52 -71t-75 -27.5q-32 0 -52 14t-20 43q0 17 10 25.5t27 8.5q25 0 30 -12t5 -24q0 -16 1.5 -25.5t14.5 -9.5q23 0 43.5 20.5t37 52t30 67.5t23.5 68q-35 84 -69.5 169.5
t-70.5 170.5l-18 42q-8 18 -19 29t-36 16v12q16 -2 43 -2.5t51 -0.5q26 0 52 0.5t44 2.5v-12q-7 -2 -17 -5.5t-19.5 -8t-16.5 -9.5t-7 -9q0 -9 5 -23.5t12 -31.5q11 -30 25 -65t28 -69.5t26.5 -66.5t21.5 -57q2 9 8 25.5t13.5 36.5t15.5 40.5t14 36.5q8 20 17 42t17 43
q11 29 19 52t8 34q0 7 -7.5 13t-18 10t-21 7l-17.5 5v12q17 -2 38.5 -2.5t40.5 -0.5q21 0 37.5 0.5t33.5 2.5v-12q-28 -6 -37.5 -17.5t-19.5 -34.5z" />
    <glyph glyph-name="z" unicode="z" horiz-adv-x="437" 
d="M28 14l287 394l-1 1q-17 -1 -33 -1h-33h-35q-42 0 -63.5 -3.5t-36.5 -11.5q-22 -11 -32 -29.5t-18 -45.5h-10q1 28 2 57t3 55q17 -2 58 -3.5t89 -1.5h72h31t33.5 0.5t30.5 1t22 0.5l2 -15q-33 -45 -70.5 -94.5t-75 -100.5t-74.5 -102t-70 -99q15 1 37 1h40h59
q41 0 62.5 6t35.5 17q17 13 26 32t17 41h8q-1 -29 -3 -58t-4 -57q-22 2 -62.5 2h-87.5h-204z" />
    <glyph glyph-name="braceleft" unicode="{" horiz-adv-x="354" 
d="M72 231q47 -6 74.5 -20t42 -37.5t18.5 -58.5t4 -83v-95q0 -38 3.5 -65.5t15 -46t32 -29.5t55.5 -15v-11q-51 3 -84 15t-52.5 36t-27 62t-7.5 92v118q0 35 -4.5 58t-17 38t-34.5 24t-57 15v8q35 6 57 15t34.5 24t17 38t4.5 58v118q0 54 7.5 91.5t27 61.5t52.5 36.5
t84 15.5v-10q-35 -4 -55.5 -15t-32 -29.5t-15 -46.5t-3.5 -65v-96q0 -48 -4 -83t-18.5 -58.5t-42 -37.5t-74.5 -20v-2z" />
    <glyph glyph-name="bar" unicode="|" horiz-adv-x="317" 
d="M140 823h37v-997h-37v997z" />
    <glyph glyph-name="braceright" unicode="}" horiz-adv-x="354" 
d="M282 233q-47 6 -74.5 20t-42 37.5t-18.5 58.5t-4 83v96q0 37 -3.5 65t-15 46.5t-32.5 29.5t-55 15v10q51 -3 84 -15.5t52.5 -36.5t27 -61.5t7.5 -91.5v-118q0 -35 4.5 -58t17 -38t34.5 -24t57 -15v-8q-35 -6 -57 -15t-34.5 -24t-17 -38t-4.5 -58v-118q0 -54 -7.5 -92
t-27 -62t-52.5 -36t-84 -15v11q34 4 55 15t32.5 29.5t15 46t3.5 65.5v95q0 48 4 83t18.5 58.5t42 37.5t74.5 20v2z" />
    <glyph glyph-name="asciitilde" unicode="~" horiz-adv-x="640" 
d="M359 335q40 -15 65 -21t42 -6q38 0 68 25t42 73l9 -2q-14 -77 -42.5 -110t-85.5 -33q-28 0 -57.5 9t-55.5 20l-65 25q-40 15 -65 21t-42 6q-38 0 -67 -25t-41 -73l-9 2q13 77 41 110t85 33q26 0 54 -8.5t54 -18.5z" />
    <glyph glyph-name="exclamdown" unicode="&#xa1;" horiz-adv-x="299" 
d="M170 265q4 -48 8 -99.5t7.5 -101t6.5 -94.5t5 -81t3 -60t1 -31q0 -44 -41 -44t-41 44q0 7 1 31t3 60t5 81t6 94.5t7 101t9 99.5h20zM106 380q0 24 14 39t39 15t39.5 -15.5t14.5 -38.5t-15 -38t-39 -15q-23 0 -38 15t-15 38z" />
    <glyph glyph-name="cent" unicode="&#xa2;" 
d="M421 94q-15 -40 -49.5 -69.5t-88.5 -34.5v-114h-24v113q-85 2 -136 59.5t-51 162.5q0 102 51 160.5t136 63.5v110h24v-109q34 -1 58.5 -9.5t40.5 -20.5t23 -26.5t7 -27.5q0 -21 -10 -27.5t-28 -6.5q-20 0 -29.5 7.5t-9.5 25.5q0 9 0.5 14t0.5 12q0 17 -12 29.5t-41 14.5
v-402h10q25 0 44 8t33 20t23.5 26t15.5 26zM148 227q0 -85 29 -137.5t82 -66.5v397q-46 -8 -78.5 -55.5t-32.5 -137.5z" />
    <glyph glyph-name="sterling" unicode="&#xa3;" 
d="M27 331v18l86 -1q-1 17 -1.5 33t-0.5 35q0 52 10.5 94.5t33 72.5t57.5 46t84 16q75 0 108.5 -26.5t33.5 -59.5q0 -39 -39 -39q-20 0 -29 9.5t-9 23.5q0 5 0.5 13t0.5 15q0 47 -67 47q-61 0 -89.5 -46.5t-28.5 -139.5v-47.5t2 -46.5l130 1v-18l-129 1q1 -24 2.5 -59
t1.5 -59q0 -43 -5 -72.5t-14 -49.5t-23 -33t-32 -22v-2q33 2 68 2h73q55 0 89.5 3.5t54.5 15t29.5 32t15.5 54.5h9l-11 -143q-6 0 -31.5 0.5t-54.5 0.5h-234h-52.5t-49.5 -1v13q41 2 63.5 12t30.5 39q6 20 7.5 50t1.5 64q0 36 -2 78t-4 77z" />
    <glyph glyph-name="currency" unicode="&#xa4;" horiz-adv-x="502" 
d="M35 329q0 41 13.5 77t36.5 64l-59 61l25 24l60 -59q29 24 64 37.5t76 13.5q80 -2 139 -50l60 59l25 -25l-59 -59q24 -28 38 -64t14 -78t-13.5 -77t-37.5 -64l59 -58l-25 -25l-60 57q-29 -24 -64.5 -37t-75.5 -13q-41 0 -77 13.5t-64 37.5l-60 -58l-26 26l59 59
q-23 28 -35.5 62.5t-12.5 75.5zM67 330q1 -40 15 -74t38.5 -58.5t58 -38.5t72.5 -14t72.5 14t58.5 39t39 59t14 73t-14.5 73t-39 59t-58.5 39.5t-73 14.5t-72.5 -14.5t-57.5 -39.5t-38 -59t-15 -73z" />
    <glyph glyph-name="yen" unicode="&#xa5;" 
d="M287 294h146v-24h-146v-71h146v-24h-146v-79q0 -28 6.5 -44t19 -25t30 -12.5t40.5 -5.5v-9q-26 0 -62.5 0.5t-82.5 0.5q-30 0 -64 -0.5t-60 -0.5v9q22 2 40 5.5t30.5 12.5t19 25t6.5 44v79h-144v24h144v71h-144v24h133q-16 28 -38 67.5t-46 82.5t-47.5 84t-41.5 72
q-13 21 -22.5 32.5t-34.5 16.5v9q24 -1 51 -1.5t52 -0.5t54.5 0.5t47.5 1.5v-9q-61 -10 -61 -32q0 -10 6.5 -24t17.5 -33q23 -40 48 -84t48 -81q11 -19 22 -36t19 -32h3q10 17 18 31.5t21 38.5q24 44 50 86.5t46 82.5q8 17 14 30t6 22q0 14 -19 20.5t-43 10.5v9q17 -2 38 -2
h39h42t37 2v-9q-13 -3 -22 -6t-16 -8.5t-13.5 -14t-14.5 -22.5z" />
    <glyph glyph-name="brokenbar" unicode="&#xa6;" horiz-adv-x="251" 
d="M128 209h44v-344h-44v344zM128 730h44v-343h-44v343z" />
    <glyph glyph-name="section" unicode="&#xa7;" horiz-adv-x="441" 
d="M221 664q-42 0 -64.5 -17.5t-22.5 -51.5q0 -31 17 -50t49 -33l75 -33q19 -9 39.5 -18.5t37 -23.5t27 -33t10.5 -46q0 -29 -10 -50t-27 -36t-39.5 -24.5t-48.5 -13.5q19 -9 37.5 -21t32.5 -26.5t22.5 -32.5t8.5 -40q0 -62 -46 -94.5t-121 -32.5q-71 0 -104 23.5t-33 51.5
q0 16 10 24t26 8t25.5 -8t9.5 -25q0 -5 -0.5 -10t-0.5 -11q0 -18 13.5 -28t53.5 -10q52 0 78 22.5t26 60.5q0 21 -7 36t-19 26t-27 19t-30 15l-70 31q-48 21 -74.5 47t-26.5 71q0 25 11.5 45.5t30.5 35t44 23t52 9.5v3q-23 10 -43 21t-35 25.5t-24 33t-9 44.5q0 27 12 47.5
t32.5 34t47 20.5t55.5 7q69 0 101.5 -23t32.5 -50q0 -16 -9.5 -23t-25.5 -7q-34 0 -34 31q0 6 0.5 11t0.5 9q0 19 -15.5 28t-51.5 9zM249 240q32 6 55 26.5t23 62.5q0 21 -7 36t-18.5 25.5t-26 18t-30.5 13.5l-28 11q-4 1 -8 1h-7q-17 0 -34.5 -5t-31.5 -14.5t-23 -24.5
t-9 -35q0 -34 18.5 -50.5t56.5 -33.5z" />
    <glyph glyph-name="dieresis" unicode="&#xa8;" horiz-adv-x="498" 
d="M172 586q-20 0 -32 12t-12 32t13 32t33 12q19 0 31.5 -11.5t12.5 -31.5q0 -22 -13 -33.5t-33 -11.5zM325 586q-20 0 -32.5 12t-12.5 32t13 32t34 12q18 0 30.5 -11.5t12.5 -31.5q0 -22 -12.5 -33.5t-32.5 -11.5z" />
    <glyph glyph-name="copyright" unicode="&#xa9;" horiz-adv-x="783" 
d="M215 332q0 48 14 86.5t39.5 65.5t60.5 41.5t78 14.5q35 0 64 -6t42 -10q3 -1 4 0t2 1t1.5 -0.5t1.5 -0.5l1 -1l4 -103h-5q-8 46 -37.5 74.5t-77.5 28.5q-30 0 -55 -14t-43 -38.5t-27.5 -59t-9.5 -75.5q0 -40 10 -74t28 -58.5t43.5 -38t57.5 -13.5q51 0 76 27.5t34 71.5h6
l-6 -94q-23 -10 -50 -16.5t-64 -6.5q-43 0 -78 13t-60.5 38t-39.5 62t-14 85zM728 333q0 -71 -26 -134.5t-71 -110.5t-106 -74.5t-132 -27.5t-133 27t-107.5 73.5t-71.5 109t-26 133.5q0 72 26.5 134.5t72.5 109t108.5 73t134.5 26.5t132.5 -26.5t105 -72t69 -107.5
t24.5 -133zM690 333q0 64 -21.5 120.5t-60.5 99t-93 67t-118 24.5q-66 0 -121.5 -25t-96 -67.5t-63 -100t-22.5 -122.5t22.5 -122.5t62 -100.5t94.5 -68t120 -25q64 0 118.5 25.5t94.5 69t62 101.5t22 124z" />
    <glyph glyph-name="ordfeminine" unicode="&#xaa;" horiz-adv-x="456" 
d="M332 333q-49 0 -51 55q-17 -27 -41.5 -41.5t-58.5 -14.5q-44 0 -70 22t-26 60q0 31 16.5 49.5t42 28t55.5 12t56 2.5h26v50q0 18 -1 35t-7 30.5t-19.5 22t-37.5 8.5q-26 0 -35 -6.5t-9 -15.5q0 -2 1 -4t1 -4q1 -4 1 -15q0 -27 -33 -27q-31 0 -31 28q0 11 6.5 20.5
t17.5 17.5q14 10 37.5 15t52.5 5q42 0 65 -9.5t34 -25t13 -35t2 -38.5v-52q0 -9 -0.5 -18.5t-0.5 -20.5v-45q0 -39 6.5 -51.5t24.5 -12.5q14 0 23 7l4 -4q-10 -10 -25.5 -19t-38.5 -9zM281 492q-29 0 -53.5 -4t-42.5 -12.5t-28.5 -23t-10.5 -35.5q0 -27 15.5 -45t43.5 -18
q29 0 52.5 25t23.5 66v47z" />
    <glyph glyph-name="guillemotleft" unicode="&#xab;" horiz-adv-x="368" 
d="M188 212q15 19 31.5 41.5t33 45.5t31 45t25.5 40h12l-75 -175l75 -174h-12q-11 18 -25.5 40t-31 44.5l-33 45t-31.5 41.5v6zM35 212q15 19 31.5 41.5t33 45.5t31 45t25.5 40h12l-75 -175l75 -174h-12q-11 18 -25.5 40t-31 44.5l-33 45t-31.5 41.5v6z" />
    <glyph glyph-name="logicalnot" unicode="&#xac;" horiz-adv-x="566" 
d="M25 437h516v-279h-38v240h-478v39z" />
    <glyph glyph-name="registered" unicode="&#xae;" horiz-adv-x="783" 
d="M528 442q0 -43 -27 -68q-26 -25 -68 -29v-2q27 -5 46.5 -26.5t31.5 -64.5l6 -21q5 -18 9.5 -33t11.5 -26t16.5 -17.5t24.5 -7.5v-7q-6 -1 -11.5 -1h-13.5q-24 0 -40 5.5t-26.5 17t-16.5 30t-12 45.5q-5 25 -13 49.5t-25 37.5q-15 11 -41 11h-44v-137q0 -16 3.5 -25
t9.5 -14t15.5 -7t21.5 -3v-7h-31q-13 0 -27 0.5t-23 0.5q-11 0 -22.5 -0.5t-22.5 -0.5h-24v7q11 1 20 3t15 7t9.5 14t3.5 25v282q0 31 -12.5 39t-35.5 10v7q16 0 27 -0.5t18.5 -0.5h12.5h10q37 0 51.5 0.5t26.5 0.5q28 0 48.5 -2t37.5 -8q26 -9 43 -29t17 -55zM473 436
q0 26 -8 43t-21.5 26.5t-30.5 13t-35 3.5h-42v-172h57q17 0 30 4.5t24 12.5q11 9 18.5 27t7.5 42zM728 333q0 -71 -26 -134.5t-71 -110.5t-106 -74.5t-132 -27.5t-133 27t-107.5 73.5t-71.5 109t-26 133.5q0 72 26.5 134.5t72.5 109t108.5 73t134.5 26.5t132.5 -26.5
t105 -72t69 -107.5t24.5 -133zM690 333q0 64 -21.5 120.5t-60.5 99t-93 67t-118 24.5q-66 0 -121.5 -25t-96 -67.5t-63 -100t-22.5 -122.5t22.5 -122.5t62 -100.5t94.5 -68t120 -25q64 0 118.5 25.5t94.5 69t62 101.5t22 124z" />
    <glyph glyph-name="macron" unicode="&#xaf;" horiz-adv-x="833" 
d="M166 566v32h252v-32h-252z" />
    <glyph glyph-name="degree" unicode="&#xb0;" horiz-adv-x="364" 
d="M383 546q0 -28 -10.5 -52t-28.5 -41t-42.5 -27t-52.5 -10q-27 0 -51 10t-42 27t-28.5 41t-10.5 52t10.5 51.5t28.5 41t42 27t51 9.5q28 0 52.5 -9.5t42.5 -27t28.5 -41t10.5 -51.5zM357 546q0 48 -31.5 78t-76.5 30t-75.5 -30t-30.5 -78q0 -23 8 -43t22.5 -34.5t33.5 -23
t42 -8.5q22 0 42 8.5t34.5 23t23 34.5t8.5 43z" />
    <glyph glyph-name="plusminus" unicode="&#xb1;" horiz-adv-x="576" 
d="M55 351h208v209h40v-209h210v-39h-210v-210h-40v210h-208v39zM55 39h458v-39h-458v39z" />
    <glyph glyph-name="twosuperior" unicode="&#xb2;" 
d="M235 825q31 0 58 -6.5t46 -21.5t30 -39t11 -58q0 -43 -21 -85t-60 -87q-40 -45 -85.5 -82t-85.5 -62h140q30 0 49.5 2.5t32 10t20.5 21.5t15 36h8q-2 -23 -3.5 -43.5t-3.5 -41.5v-13.5t-1 -13.5h-291v32q56 52 94 92.5t59 68.5q28 38 47 79t19 89t-19 77.5t-65 29.5
q-34 0 -47 -13t-13 -28q0 -2 0.5 -3.5t0.5 -3.5v-17q0 -11 -7 -18.5t-24 -7.5q-31 0 -31 30q0 15 9.5 28.5t26.5 24t40.5 17t50.5 6.5z" />
    <glyph glyph-name="threesuperior" unicode="&#xb3;" 
d="M205 809q-36 0 -49.5 -12.5t-13.5 -28.5v-23q0 -12 -6.5 -19.5t-23.5 -7.5q-31 0 -31 30q0 15 9.5 28.5t27 24t41.5 17t54 6.5q29 0 54.5 -6.5t44 -19.5t29.5 -34t11 -49q0 -27 -9.5 -47.5t-24.5 -35t-34 -23t-38 -11.5v-4q54 -4 87 -33t33 -88q0 -32 -13 -58t-36 -44.5
t-54.5 -29t-68.5 -10.5q-42 0 -67.5 9t-41.5 20l6 11q12 -6 33 -12t47 -6q19 0 41.5 5.5t42 19t32.5 37t13 60.5q0 35 -12 55t-32 31q-23 12 -48.5 14.5t-51.5 2.5v16q130 -1 130 119q0 48 -22 72t-59 24z" />
    <glyph glyph-name="acute" unicode="&#xb4;" horiz-adv-x="695" 
d="M351 644q5 5 11 8.5t16 3.5q11 0 20 -7t9 -21q0 -11 -6 -18t-15 -12l-174 -96l-6 9z" />
    <glyph glyph-name="mu" unicode="&#xb5;" horiz-adv-x="536" 
d="M363 347q0 20 -5 32.5t-14.5 19.5t-23 10.5t-31.5 5.5v10q43 1 80.5 2t63.5 1q-2 -60 -3 -123.5t-1 -117.5v-109q0 -20 5 -32.5t14.5 -19.5t23 -10.5t31.5 -5.5v-10q-43 -1 -79.5 -1h-62.5q2 22 2 49.5v50.5q-16 -45 -55 -77t-103 -32q-15 0 -27 2t-22 5v-201l-68 -21
q1 33 1.5 58.5t0.5 48v43.5v45v377q0 20 -4 32.5t-12.5 19.5t-21.5 10.5t-31 5.5v10q43 1 78 2t61 1q-2 -60 -3 -123.5t-1 -117.5v-45q0 -57 17 -89t65 -32q27 0 49 11.5t38 31t26 45t12 54.5v184z" />
    <glyph glyph-name="mu" unicode="&#x3bc;" horiz-adv-x="536" 
d="M363 347q0 20 -5 32.5t-14.5 19.5t-23 10.5t-31.5 5.5v10q43 1 80.5 2t63.5 1q-2 -60 -3 -123.5t-1 -117.5v-109q0 -20 5 -32.5t14.5 -19.5t23 -10.5t31.5 -5.5v-10q-43 -1 -79.5 -1h-62.5q2 22 2 49.5v50.5q-16 -45 -55 -77t-103 -32q-15 0 -27 2t-22 5v-201l-68 -21
q1 33 1.5 58.5t0.5 48v43.5v45v377q0 20 -4 32.5t-12.5 19.5t-21.5 10.5t-31 5.5v10q43 1 78 2t61 1q-2 -60 -3 -123.5t-1 -117.5v-45q0 -57 17 -89t65 -32q27 0 49 11.5t38 31t26 45t12 54.5v184z" />
    <glyph glyph-name="paragraph" unicode="&#xb6;" horiz-adv-x="535" 
d="M300 -129h-15h-39t-29 -0.5t-24 -0.5h-24v9q21 2 38.5 5.5t29.5 12.5t18.5 25t6.5 44v330q-48 0 -88.5 10.5t-70.5 33t-46.5 57.5t-16.5 83q0 38 11.5 66.5t31.5 49t47.5 33.5t59.5 19q23 5 53 6.5t60 1.5h89q36 0 66 1t49 1v-9q-20 -2 -35.5 -5.5t-26 -12.5t-16 -25
t-5.5 -44v-596q0 -28 5.5 -44t16 -25t26 -12.5t35.5 -5.5v-9h-22.5t-20 0.5t-25 0.5h-36.5h-17v760h-86v-760z" />
    <glyph glyph-name="periodcentered" unicode="&#xb7;" horiz-adv-x="203" 
d="M50 324q0 23 15 38t38 15q24 0 39 -15t15 -38t-14.5 -38.5t-39.5 -15.5t-39 15t-14 39z" />
    <glyph glyph-name="cedilla" unicode="&#xb8;" horiz-adv-x="403" 
d="M161 -70l3 -1q4 3 15.5 9t32.5 6q32 0 54 -19.5t22 -53.5q0 -21 -8.5 -38t-23 -28t-33 -17t-38.5 -6t-35 3.5t-29 10.5l3 9q18 -9 45 -9q33 0 54.5 18.5t21.5 53.5q0 30 -15 43t-38 13q-14 0 -22.5 -3.5t-15.5 -10.5l-11 5l35 89h15z" />
    <glyph glyph-name="onesuperior" unicode="&#xb9;" 
d="M149 349q20 1 34 3.5t22.5 9t12.5 18.5t4 33v303q0 35 -6.5 43.5t-28.5 8.5q-20 0 -39.5 -3.5t-27.5 -5.5v7q37 13 69.5 26.5t59.5 27.5h32q0 -26 -0.5 -59.5t-0.5 -68.5v-68.5v-59.5v-151q0 -21 3 -33.5t11 -19t21 -8.5t33 -3v-7h-199v7z" />
    <glyph glyph-name="ordmasculine" unicode="&#xba;" horiz-adv-x="508" 
d="M414 500q0 -79 -43 -124t-118 -45q-74 0 -115.5 44.5t-41.5 121.5q0 38 11.5 69t32 53t49.5 34t65 12t65.5 -12t50.5 -34t32.5 -52t11.5 -67zM347 497q0 32 -5 60t-16.5 48.5t-29 32.5t-42.5 12q-24 0 -41.5 -12t-28.5 -32.5t-16.5 -48.5t-5.5 -60q0 -66 22 -109t70 -43
q49 0 71 43t22 109z" />
    <glyph glyph-name="guillemotright" unicode="&#xbb;" horiz-adv-x="368" 
d="M180 212v-6q-15 -19 -31.5 -41.5l-33 -45t-31 -44.5t-25.5 -40h-12l75 174l-75 175h12q11 -18 25.5 -40t31 -45t33 -45.5t31.5 -41.5zM333 212v-6q-15 -19 -31.5 -41.5l-33 -45t-31 -44.5t-25.5 -40h-12l75 174l-75 175h12q11 -18 25.5 -40t31 -45t33 -45.5t31.5 -41.5z
" />
    <glyph glyph-name="onequarter" unicode="&#xbc;" horiz-adv-x="767" 
d="M73 194q33 2 44.5 9t11.5 37v248q0 25 -4 31t-19 6q-16 0 -33 -3.5t-22 -5.5v9q57 19 103 44h21q0 -21 -0.5 -47.5t-0.5 -55v-55.5v-48v-123q0 -30 11 -37t42 -9v-8h-24q-11 0 -23.5 0.5t-23.5 0.5t-25 -0.5t-27 -0.5h-31v8zM414 106v29l10 15q16 24 36.5 54.5t43 62
t45.5 61.5t43 53h28q0 -20 -0.5 -47t-0.5 -55v-54.5v-47.5v-40h66v-31h-66v-53q0 -30 10.5 -37t33.5 -9v-7q-18 1 -34 1h-24h-31.5t-42.5 -1v7q23 2 34 9t11 37v53h-162zM575 338h-1l-138 -200v-1h140zM439 569h28l-194 -569h-28z" />
    <glyph glyph-name="onehalf" unicode="&#xbd;" horiz-adv-x="766" 
d="M579 388q25 0 46.5 -5.5t37.5 -17.5t25 -31.5t9 -47.5q0 -32 -16 -64.5t-41 -61.5q-15 -18 -34.5 -36t-39.5 -35t-39.5 -31.5t-35.5 -24.5v-2h116q23 0 37.5 2t24 8t15.5 16.5t12 28.5h8q-2 -25 -2.5 -44.5t-1.5 -41.5h-155q-17 0 -35.5 0.5t-35.5 -0.5v30
q45 42 74.5 73.5t46.5 54.5q23 29 37 60.5t14 69.5q0 45 -19.5 66t-53.5 21q-26 0 -34 -9.5t-8 -21.5v-20q0 -10 -6.5 -17t-20.5 -7q-13 0 -20 7.5t-7 19.5q0 22 28.5 41.5t73.5 19.5zM73 194q33 2 44.5 9t11.5 37v248q0 25 -4 31t-19 6q-16 0 -33 -3.5t-22 -5.5v9
q57 19 103 44h21q0 -21 -0.5 -47.5t-0.5 -55v-55.5v-48v-123q0 -30 11 -37t42 -9v-8h-24q-11 0 -23.5 0.5t-23.5 0.5t-25 -0.5t-27 -0.5h-31v8zM439 569h28l-194 -569h-28z" />
    <glyph glyph-name="threequarters" unicode="&#xbe;" horiz-adv-x="800" 
d="M137 561q-24 0 -33 -8.5t-9 -21.5v-21q0 -10 -6 -17t-20 -7t-21 7.5t-7 19.5q0 22 28 41.5t77 19.5q48 0 80.5 -21.5t32.5 -68.5q0 -41 -27.5 -63t-61.5 -28v-2q45 -4 73 -27t28 -68q0 -53 -40 -85t-101 -32q-32 0 -54 8t-36 17l7 11q10 -5 26.5 -10.5t39.5 -5.5
q18 0 37 5t35 16.5t26 30t10 45.5q0 25 -9 41.5t-23 24.5q-17 10 -43.5 12t-47.5 2v14q52 -1 82 23t30 69q0 40 -21.5 59.5t-51.5 19.5zM441 106v29l10 15q16 24 36.5 54.5t43 62t45.5 61.5t43 53h28q0 -20 -0.5 -47t-0.5 -55v-54.5v-47.5v-40h66v-31h-66v-53
q0 -30 10.5 -37t33.5 -9v-7q-18 1 -34 1h-24h-31.5t-42.5 -1v7q23 2 34 9t11 37v53h-162zM602 338h-1l-138 -200v-1h140zM466 569h28l-194 -569h-28z" />
    <glyph glyph-name="questiondown" unicode="&#xbf;" horiz-adv-x="409" 
d="M109 -100q0 -57 28.5 -82t72.5 -25q40 0 62 16.5t22 46.5q0 8 -0.5 15.5t-0.5 12.5q0 14 9 23.5t30 9.5q38 0 38 -36q0 -17 -11 -35.5t-32.5 -33.5t-52 -25t-69.5 -10q-33 0 -63 7t-53.5 22.5t-37 41t-13.5 62.5q0 39 16 71.5t39 60.5q11 13 24.5 28t28 30t28 30t24.5 27
q14 16 22 29t11.5 25t4.5 23t1 24v6h13q6 -17 7 -31t1 -27q0 -28 -10 -50t-30 -48q-15 -19 -34 -41t-35.5 -47.5t-28 -55.5t-11.5 -64zM287 380q0 -23 -15 -38t-38 -15q-24 0 -39 15t-15 38t14.5 38.5t39.5 15.5t39 -15t14 -39z" />
    <glyph glyph-name="Agrave" unicode="&#xc0;" horiz-adv-x="605" 
d="M-10 8q20 3 33 9.5t22.5 16.5t16 23.5t12.5 30.5l20 53q48 131 98.5 256t98.5 255q5 2 9 4q10 4 16 10q16 -46 65 -180.5t138 -370.5q11 -29 18 -48t16.5 -31t23.5 -18t38 -10v-8h-25.5t-32.5 0.5t-33.5 0.5h-28.5h-26.5t-29.5 -0.5t-28.5 -0.5h-23.5v8q6 0 18 1.5
t24 5.5t21 10.5t9 15.5q0 5 -2.5 13t-4.5 16q-16 45 -33.5 94t-34.5 94h-217q-10 -29 -22.5 -62.5t-24 -64.5t-19 -56t-7.5 -36q0 -8 8.5 -13.5t20.5 -9t24 -5.5t19 -3v-8q-19 0 -46 0.5t-47 0.5q-23 0 -44.5 -0.5t-38.5 -0.5v8zM279 554q-8 -23 -21 -55t-24 -63l-59 -156
h200q-14 39 -28 77t-28 77zM397 742l-6 -9l-174 96q-9 5 -15 12t-6 18q0 14 9 21t20 7q10 0 16 -3.5t11 -8.5z" />
    <glyph glyph-name="Aacute" unicode="&#xc1;" horiz-adv-x="605" 
d="M-10 8q20 3 33 9.5t22.5 16.5t16 23.5t12.5 30.5l20 53q48 131 98.5 256t98.5 255q5 2 9 4q10 4 16 10q16 -46 65 -180.5t138 -370.5q11 -29 18 -48t16.5 -31t23.5 -18t38 -10v-8h-25.5t-32.5 0.5t-33.5 0.5h-28.5h-26.5t-29.5 -0.5t-28.5 -0.5h-23.5v8q6 0 18 1.5
t24 5.5t21 10.5t9 15.5q0 5 -2.5 13t-4.5 16q-16 45 -33.5 94t-34.5 94h-217q-10 -29 -22.5 -62.5t-24 -64.5t-19 -56t-7.5 -36q0 -8 8.5 -13.5t20.5 -9t24 -5.5t19 -3v-8q-19 0 -46 0.5t-47 0.5q-23 0 -44.5 -0.5t-38.5 -0.5v8zM279 554q-8 -23 -21 -55t-24 -63l-59 -156
h200q-14 39 -28 77t-28 77zM359 876q5 5 11 8.5t16 3.5q11 0 20 -7t9 -21q0 -11 -6 -18t-15 -12l-174 -96l-6 9z" />
    <glyph glyph-name="Acircumflex" unicode="&#xc2;" horiz-adv-x="605" 
d="M-10 8q20 3 33 9.5t22.5 16.5t16 23.5t12.5 30.5l20 53q48 131 98.5 256t98.5 255q5 2 9 4q10 4 16 10q16 -46 65 -180.5t138 -370.5q11 -29 18 -48t16.5 -31t23.5 -18t38 -10v-8h-25.5t-32.5 0.5t-33.5 0.5h-28.5h-26.5t-29.5 -0.5t-28.5 -0.5h-23.5v8q6 0 18 1.5
t24 5.5t21 10.5t9 15.5q0 5 -2.5 13t-4.5 16q-16 45 -33.5 94t-34.5 94h-217q-10 -29 -22.5 -62.5t-24 -64.5t-19 -56t-7.5 -36q0 -8 8.5 -13.5t20.5 -9t24 -5.5t19 -3v-8q-19 0 -46 0.5t-47 0.5q-23 0 -44.5 -0.5t-38.5 -0.5v8zM279 554q-8 -23 -21 -55t-24 -63l-59 -156
h200q-14 39 -28 77t-28 77zM200 731l-8 6l105 161h16l105 -160l-8 -7l-105 105z" />
    <glyph glyph-name="Atilde" unicode="&#xc3;" horiz-adv-x="615" 
d="M-10 8q20 3 33 9.5t22.5 16.5t16 23.5t12.5 30.5l20 53q48 131 98.5 256t98.5 255q5 2 9 4q10 4 16 10q16 -46 65 -180.5t138 -370.5q11 -29 18 -48t16.5 -31t23.5 -18t38 -10v-8h-25.5t-32.5 0.5t-33.5 0.5h-28.5h-26.5t-29.5 -0.5t-28.5 -0.5h-23.5v8q6 0 18 1.5
t24 5.5t21 10.5t9 15.5q0 5 -2.5 13t-4.5 16q-16 45 -33.5 94t-34.5 94h-217q-10 -29 -22.5 -62.5t-24 -64.5t-19 -56t-7.5 -36q0 -8 8.5 -13.5t20.5 -9t24 -5.5t19 -3v-8q-19 0 -46 0.5t-47 0.5q-23 0 -44.5 -0.5t-38.5 -0.5v8zM279 554q-8 -23 -21 -55t-24 -63l-59 -156
h200q-14 39 -28 77t-28 77zM253 847q10 0 20.5 -2t30.5 -10l32 -14q14 -6 26 -11t24 -5q17 0 30 11t24 31l7 -2q-12 -39 -32 -56t-49 -17q-14 0 -26 4t-32 12l-24 10q-14 6 -26.5 10.5t-23.5 4.5q-14 0 -28 -9t-25 -29l-7 3q11 36 31.5 52.5t47.5 16.5z" />
    <glyph glyph-name="Adieresis" unicode="&#xc4;" horiz-adv-x="595" 
d="M-10 8q20 3 33 9.5t22.5 16.5t16 23.5t12.5 30.5l20 53q48 131 98.5 256t98.5 255q5 2 9 4q10 4 16 10q16 -46 65 -180.5t138 -370.5q11 -29 18 -48t16.5 -31t23.5 -18t38 -10v-8h-25.5t-32.5 0.5t-33.5 0.5h-28.5h-26.5t-29.5 -0.5t-28.5 -0.5h-23.5v8q6 0 18 1.5
t24 5.5t21 10.5t9 15.5q0 5 -2.5 13t-4.5 16q-16 45 -33.5 94t-34.5 94h-217q-10 -29 -22.5 -62.5t-24 -64.5t-19 -56t-7.5 -36q0 -8 8.5 -13.5t20.5 -9t24 -5.5t19 -3v-8q-19 0 -46 0.5t-47 0.5q-23 0 -44.5 -0.5t-38.5 -0.5v8zM279 554q-8 -23 -21 -55t-24 -63l-59 -156
h200q-14 39 -28 77t-28 77zM234 798q-20 0 -32 12t-12 32t13 32t33 12q19 0 31.5 -11.5t12.5 -31.5q0 -22 -13 -33.5t-33 -11.5zM387 798q-20 0 -32.5 12t-12.5 32t13 32t34 12q18 0 30.5 -11.5t12.5 -31.5q0 -22 -12.5 -33.5t-32.5 -11.5z" />
    <glyph glyph-name="Aring" unicode="&#xc5;" horiz-adv-x="627" 
d="M-10 8q20 3 33 9.5t22.5 16.5t16 23.5t12.5 30.5l20 53q48 131 98.5 256t98.5 255q5 2 9 4q10 4 16 10q16 -46 65 -180.5t138 -370.5q11 -29 18 -48t16.5 -31t23.5 -18t38 -10v-8h-25.5t-32.5 0.5t-33.5 0.5h-28.5h-26.5t-29.5 -0.5t-28.5 -0.5h-23.5v8q6 0 18 1.5
t24 5.5t21 10.5t9 15.5q0 5 -2.5 13t-4.5 16q-16 45 -33.5 94t-34.5 94h-217q-10 -29 -22.5 -62.5t-24 -64.5t-19 -56t-7.5 -36q0 -8 8.5 -13.5t20.5 -9t24 -5.5t19 -3v-8q-19 0 -46 0.5t-47 0.5q-23 0 -44.5 -0.5t-38.5 -0.5v8zM279 554q-8 -23 -21 -55t-24 -63l-59 -156
h200q-14 39 -28 77t-28 77zM398 806q0 -38 -26 -62.5t-64 -24.5q-37 0 -63 24.5t-26 62.5q0 37 26 61.5t63 24.5t63.5 -24.5t26.5 -61.5zM374 806q0 30 -18.5 48.5t-47.5 18.5q-27 0 -46 -18.5t-19 -48.5q0 -31 19 -49.5t46 -18.5q29 0 47.5 18.5t18.5 49.5z" />
    <glyph glyph-name="AE" unicode="&#xc6;" horiz-adv-x="867" 
d="M477 637l21 -299q9 0 25 0.5t33 1.5t33.5 2.5t25.5 3.5q14 4 24 11t16.5 18.5t11 29t7.5 42.5h12q-1 -18 -2 -46.5t-1 -64.5v-11q0 -36 1 -64.5t2 -46.5h-12q-7 49 -19 71t-40 30q-9 2 -25 3.5t-33 2.5t-33 1.5t-25 0.5l17 -232q1 -22 5.5 -36t15.5 -22.5t30 -11.5t50 -3
h9q48 0 78.5 8.5t51 26.5t33.5 47t25 70h9q0 -2 -0.5 -15t-2 -32t-3 -41t-2.5 -40.5t-2.5 -31l-1.5 -12.5q-19 2 -44.5 2h-63.5h-121.5t-61 0.5t-27 0.5h-20.5q-30 0 -61.5 -0.5t-57.5 -0.5v12q20 2 36 5.5t27.5 12.5t16.5 25t3 44l-17 221h-166l-104 -190
q-17 -31 -28 -52.5t-11 -35.5q0 -19 21.5 -25t53.5 -8v-9q-9 0 -23.5 0.5t-30 0.5h-30h-24.5q-23 0 -43.5 -0.5t-37.5 -0.5v9q40 5 60.5 26t38.5 53l263 475q13 23 21 37.5t8 24.5q0 15 -21.5 18.5t-47.5 5.5v9q14 0 32.5 -0.5t38 -1t39 -0.5h35.5h207q41 0 68.5 1.5
t47.5 3.5l1 -1l8 -162h-11q-6 24 -12 43.5t-16 35.5t-24.5 27.5t-37.5 19.5q-20 6 -51.5 9.5t-74.5 3.5h-92zM266 338h153l-10 149q-2 16 -2.5 34.5t-1.5 34.5q-1 18 -1 36h-2q-6 -12 -17 -33t-23.5 -45t-24.5 -47.5t-21 -38.5z" />
    <glyph glyph-name="Ccedilla" unicode="&#xc7;" horiz-adv-x="629" 
d="M60 320q0 79 21.5 143.5t61 110t96.5 70t128 24.5q39 0 69 -4.5t52.5 -9.5t36 -10t19.5 -5q2 0 3.5 0.5t3.5 0.5l2 -1l8 -167h-11q-7 38 -21 70t-36.5 55.5t-53.5 36.5t-73 13q-52 0 -93 -24t-69.5 -66.5t-43.5 -101t-15 -127.5t15 -127t44.5 -100t72 -66t96.5 -24
q44 0 74 13t50 35.5t32 53.5t20 67h11l-8 -151l-2 -2q-35 -15 -78 -26t-106 -11h-5l-26 -60l3 -1q4 3 15.5 9t32.5 6q32 0 54 -19.5t22 -53.5q0 -21 -8.5 -38t-23 -28t-33 -17t-38.5 -6t-35 3.5t-29 10.5l3 9q18 -9 45 -9q33 0 54.5 18.5t21.5 53.5q0 30 -15 43t-38 13
q-14 0 -22.5 -3.5t-15.5 -10.5l-11 5l29 76q-66 3 -119 26t-90 64.5t-57 101.5t-20 137z" />
    <glyph glyph-name="Egrave" unicode="&#xc8;" horiz-adv-x="585" 
d="M398 345v-10q0 -36 1 -64.5t2 -46.5h-12q-7 49 -19 71t-40 30q-10 2 -29.5 3.5t-41 2.5t-40.5 1.5t-27 0.5v-242q0 -21 2.5 -35t12 -22.5t28 -11.5t49.5 -3h53q53 0 85.5 8.5t52.5 26.5t32.5 46.5t24.5 69.5h9q0 -2 -0.5 -15t-1.5 -32t-2.5 -41t-2.5 -40.5t-2.5 -31
l-1.5 -12.5q-19 2 -48 2h-67h-126t-72 0.5t-38 0.5h-25q-30 0 -61.5 -0.5t-57.5 -0.5v9q20 2 35.5 5.5t26 12.5t16 25t5.5 44v467q0 28 -5.5 44t-16 25t-26 12.5t-35.5 5.5v8q9 0 24 -0.5t32.5 -0.5t36 -0.5t34.5 -0.5h236q41 0 68.5 1.5t47.5 3.5l1 -1l8 -162h-11
q-6 24 -12 43.5t-16 35.5t-24.5 27.5t-37.5 19.5q-20 6 -51.5 9.5t-74.5 3.5h-103q-1 -25 -1 -53v-54v-182q8 0 27 0.5t40.5 1.5t41 2.5t29.5 3.5q14 4 24 11t16.5 18.5t11 29t7.5 42.5h12q-1 -18 -2 -46.5t-1 -64.5v-1zM399 742l-6 -9l-174 96q-9 5 -15 12t-6 18q0 14 9 21
t20 7q10 0 16 -3.5t11 -8.5z" />
    <glyph glyph-name="Eacute" unicode="&#xc9;" horiz-adv-x="585" 
d="M398 345v-10q0 -36 1 -64.5t2 -46.5h-12q-7 49 -19 71t-40 30q-10 2 -29.5 3.5t-41 2.5t-40.5 1.5t-27 0.5v-242q0 -21 2.5 -35t12 -22.5t28 -11.5t49.5 -3h53q53 0 85.5 8.5t52.5 26.5t32.5 46.5t24.5 69.5h9q0 -2 -0.5 -15t-1.5 -32t-2.5 -41t-2.5 -40.5t-2.5 -31
l-1.5 -12.5q-19 2 -48 2h-67h-126t-72 0.5t-38 0.5h-25q-30 0 -61.5 -0.5t-57.5 -0.5v9q20 2 35.5 5.5t26 12.5t16 25t5.5 44v467q0 28 -5.5 44t-16 25t-26 12.5t-35.5 5.5v8q9 0 24 -0.5t32.5 -0.5t36 -0.5t34.5 -0.5h236q41 0 68.5 1.5t47.5 3.5l1 -1l8 -162h-11
q-6 24 -12 43.5t-16 35.5t-24.5 27.5t-37.5 19.5q-20 6 -51.5 9.5t-74.5 3.5h-103q-1 -25 -1 -53v-54v-182q8 0 27 0.5t40.5 1.5t41 2.5t29.5 3.5q14 4 24 11t16.5 18.5t11 29t7.5 42.5h12q-1 -18 -2 -46.5t-1 -64.5v-1zM365 876q5 5 11 8.5t16 3.5q11 0 20 -7t9 -21
q0 -11 -6 -18t-15 -12l-174 -96l-6 9z" />
    <glyph glyph-name="Ecircumflex" unicode="&#xca;" horiz-adv-x="585" 
d="M398 345v-10q0 -36 1 -64.5t2 -46.5h-12q-7 49 -19 71t-40 30q-10 2 -29.5 3.5t-41 2.5t-40.5 1.5t-27 0.5v-242q0 -21 2.5 -35t12 -22.5t28 -11.5t49.5 -3h53q53 0 85.5 8.5t52.5 26.5t32.5 46.5t24.5 69.5h9q0 -2 -0.5 -15t-1.5 -32t-2.5 -41t-2.5 -40.5t-2.5 -31
l-1.5 -12.5q-19 2 -48 2h-67h-126t-72 0.5t-38 0.5h-25q-30 0 -61.5 -0.5t-57.5 -0.5v9q20 2 35.5 5.5t26 12.5t16 25t5.5 44v467q0 28 -5.5 44t-16 25t-26 12.5t-35.5 5.5v8q9 0 24 -0.5t32.5 -0.5t36 -0.5t34.5 -0.5h236q41 0 68.5 1.5t47.5 3.5l1 -1l8 -162h-11
q-6 24 -12 43.5t-16 35.5t-24.5 27.5t-37.5 19.5q-20 6 -51.5 9.5t-74.5 3.5h-103q-1 -25 -1 -53v-54v-182q8 0 27 0.5t40.5 1.5t41 2.5t29.5 3.5q14 4 24 11t16.5 18.5t11 29t7.5 42.5h12q-1 -18 -2 -46.5t-1 -64.5v-1zM203 731l-8 6l105 161h16l105 -160l-8 -7l-105 105z
" />
    <glyph glyph-name="Edieresis" unicode="&#xcb;" horiz-adv-x="585" 
d="M398 345v-10q0 -36 1 -64.5t2 -46.5h-12q-7 49 -19 71t-40 30q-10 2 -29.5 3.5t-41 2.5t-40.5 1.5t-27 0.5v-242q0 -21 2.5 -35t12 -22.5t28 -11.5t49.5 -3h53q53 0 85.5 8.5t52.5 26.5t32.5 46.5t24.5 69.5h9q0 -2 -0.5 -15t-1.5 -32t-2.5 -41t-2.5 -40.5t-2.5 -31
l-1.5 -12.5q-19 2 -48 2h-67h-126t-72 0.5t-38 0.5h-25q-30 0 -61.5 -0.5t-57.5 -0.5v9q20 2 35.5 5.5t26 12.5t16 25t5.5 44v467q0 28 -5.5 44t-16 25t-26 12.5t-35.5 5.5v8q9 0 24 -0.5t32.5 -0.5t36 -0.5t34.5 -0.5h236q41 0 68.5 1.5t47.5 3.5l1 -1l8 -162h-11
q-6 24 -12 43.5t-16 35.5t-24.5 27.5t-37.5 19.5q-20 6 -51.5 9.5t-74.5 3.5h-103q-1 -25 -1 -53v-54v-182q8 0 27 0.5t40.5 1.5t41 2.5t29.5 3.5q14 4 24 11t16.5 18.5t11 29t7.5 42.5h12q-1 -18 -2 -46.5t-1 -64.5v-1zM234 798q-20 0 -32 12t-12 32t13 32t33 12
q19 0 31.5 -11.5t12.5 -31.5q0 -22 -13 -33.5t-33 -11.5zM387 798q-20 0 -32.5 12t-12.5 32t13 32t34 12q18 0 30.5 -11.5t12.5 -31.5q0 -22 -12.5 -33.5t-32.5 -11.5z" />
    <glyph glyph-name="Igrave" unicode="&#xcc;" horiz-adv-x="314" 
d="M156 656q36 0 70 1t53 1v-9q-20 -2 -35.5 -5.5t-26 -12.5t-16 -25t-5.5 -44v-466q0 -28 5.5 -44t16 -25t26 -12.5t35.5 -5.5v-9h-25.5t-26.5 0.5t-31.5 0.5h-40.5q-30 0 -62 -0.5t-58 -0.5v9q20 2 35.5 5.5t26 12.5t16 25t5.5 44v466q0 28 -5.5 44t-16 25t-26 12.5
t-35.5 5.5v9q9 0 23 -0.5t30.5 -0.5t34 -0.5t33.5 -0.5zM259 743l-6 -9l-174 96q-9 5 -15 12t-6 18q0 14 9 21t20 7q10 0 16 -3.5t11 -8.5z" />
    <glyph glyph-name="Iacute" unicode="&#xcd;" horiz-adv-x="314" 
d="M156 656q36 0 70 1t53 1v-9q-20 -2 -35.5 -5.5t-26 -12.5t-16 -25t-5.5 -44v-466q0 -28 5.5 -44t16 -25t26 -12.5t35.5 -5.5v-9h-25.5t-26.5 0.5t-31.5 0.5h-40.5q-30 0 -62 -0.5t-58 -0.5v9q20 2 35.5 5.5t26 12.5t16 25t5.5 44v466q0 28 -5.5 44t-16 25t-26 12.5
t-35.5 5.5v9q9 0 23 -0.5t30.5 -0.5t34 -0.5t33.5 -0.5zM212 876q5 5 11 8.5t16 3.5q11 0 20 -7t9 -21q0 -11 -6 -18t-15 -12l-174 -96l-6 9z" />
    <glyph glyph-name="Icircumflex" unicode="&#xce;" horiz-adv-x="314" 
d="M156 656q36 0 70 1t53 1v-9q-20 -2 -35.5 -5.5t-26 -12.5t-16 -25t-5.5 -44v-466q0 -28 5.5 -44t16 -25t26 -12.5t35.5 -5.5v-9h-25.5t-26.5 0.5t-31.5 0.5h-40.5q-30 0 -62 -0.5t-58 -0.5v9q20 2 35.5 5.5t26 12.5t16 25t5.5 44v466q0 28 -5.5 44t-16 25t-26 12.5
t-35.5 5.5v9q9 0 23 -0.5t30.5 -0.5t34 -0.5t33.5 -0.5zM55 731l-8 6l105 161h16l105 -160l-8 -7l-105 105z" />
    <glyph glyph-name="Idieresis" unicode="&#xcf;" horiz-adv-x="314" 
d="M156 656q36 0 70 1t53 1v-9q-20 -2 -35.5 -5.5t-26 -12.5t-16 -25t-5.5 -44v-466q0 -28 5.5 -44t16 -25t26 -12.5t35.5 -5.5v-9h-25.5t-26.5 0.5t-31.5 0.5h-40.5q-30 0 -62 -0.5t-58 -0.5v9q20 2 35.5 5.5t26 12.5t16 25t5.5 44v466q0 28 -5.5 44t-16 25t-26 12.5
t-35.5 5.5v9q9 0 23 -0.5t30.5 -0.5t34 -0.5t33.5 -0.5zM82 818q-20 0 -32 12t-12 32t13 32t33 12q19 0 31.5 -11.5t12.5 -31.5q0 -22 -13 -33.5t-33 -11.5zM235 818q-20 0 -32.5 12t-12.5 32t13 32t34 12q18 0 30.5 -11.5t12.5 -31.5q0 -22 -12.5 -33.5t-32.5 -11.5z" />
    <glyph glyph-name="Eth" unicode="&#xd0;" horiz-adv-x="699" 
d="M163 656h29.5t16.5 0.5t15.5 0.5h27.5q36 0 73.5 -1t74.5 -7.5t71.5 -19.5t63.5 -37q56 -46 80 -112t24 -139q0 -72 -24 -142.5t-79 -121.5q-29 -27 -62.5 -42.5t-71 -23.5t-78.5 -10t-85 -2h-26.5t-17.5 0.5t-18 1t-28 0.5q-30 0 -59 -0.5t-55 -0.5v9q20 2 35.5 5.5
t26 12.5t16 25t5.5 44v238h-93v18h93v210q0 28 -5.5 44t-16 25t-26 12.5t-35.5 5.5v9q9 0 24.5 -0.5t33 -0.5t36 -0.5t34.5 -0.5zM552 330q0 31 -4.5 68t-15.5 72t-29 66t-45 52q-22 17 -46 26.5t-50 14.5t-54 6t-58 1q-14 0 -24 -0.5t-17 -0.5h-14v-283h94v-18h-94v-253
q0 -40 19 -52t64 -12q18 0 43 2t53 10t56.5 23.5t52.5 42.5q31 35 50 91t19 144z" />
    <glyph glyph-name="Ntilde" unicode="&#xd1;" horiz-adv-x="698" 
d="M98 656h42.5t30.5 2l332 -437q19 -25 34 -46t25 -36q-1 13 -1 30v75v318q0 28 -5.5 44t-16 25t-26 12.5t-35.5 5.5v9q26 0 48.5 -1t52.5 -1q23 0 35.5 0.5t21 0.5t16 0.5t20.5 0.5v-9q-20 -2 -35.5 -5.5t-26 -12.5t-16 -25t-5.5 -44v-573h-12l-373 491q-24 32 -39 52.5
t-26 37.5v-28q0 -14 0.5 -32t0.5 -41v-373q0 -28 5.5 -44t16.5 -25t27 -12.5t37 -5.5v-9q-26 0 -49.5 0.5t-53.5 0.5h-35.5t-21.5 -0.5t-16.5 -0.5h-20.5v9q20 2 35.5 5.5t26 12.5t16 25t5.5 44v466q0 28 -5.5 44t-16.5 25t-26.5 12.5t-35.5 5.5v9q17 0 31 -1t39 -1z
M303 847q10 0 20.5 -2t30.5 -10l32 -14q14 -6 26 -11t24 -5q17 0 30 11t24 31l7 -2q-12 -39 -32 -56t-49 -17q-14 0 -26 4t-32 12l-24 10q-14 6 -26.5 10.5t-23.5 4.5q-14 0 -28 -9t-25 -29l-7 3q11 36 31.5 52.5t47.5 16.5z" />
    <glyph glyph-name="Ograve" unicode="&#xd2;" horiz-adv-x="734" 
d="M367 10q64 0 106.5 27.5t68 72t36.5 101.5t11 117q0 58 -12 115.5t-38 102.5t-68.5 73t-103.5 28t-103 -28t-68.5 -73t-38 -102t-11.5 -116q0 -60 10.5 -117t36 -101.5t68 -72t106.5 -27.5zM367 668q78 0 135.5 -26.5t95.5 -72.5t57 -108.5t19 -134.5q0 -79 -21 -141.5
t-61 -105.5t-96.5 -66t-128.5 -23t-128.5 23t-96.5 66t-61 105.5t-21 141.5q0 72 19 134.5t57 108.5t95.5 72.5t135.5 26.5zM467 743l-6 -9l-174 96q-9 5 -15 12t-6 18q0 14 9 21t20 7q10 0 16 -3.5t11 -8.5z" />
    <glyph glyph-name="Oacute" unicode="&#xd3;" horiz-adv-x="734" 
d="M367 10q64 0 106.5 27.5t68 72t36.5 101.5t11 117q0 58 -12 115.5t-38 102.5t-68.5 73t-103.5 28t-103 -28t-68.5 -73t-38 -102t-11.5 -116q0 -60 10.5 -117t36 -101.5t68 -72t106.5 -27.5zM367 668q78 0 135.5 -26.5t95.5 -72.5t57 -108.5t19 -134.5q0 -79 -21 -141.5
t-61 -105.5t-96.5 -66t-128.5 -23t-128.5 23t-96.5 66t-61 105.5t-21 141.5q0 72 19 134.5t57 108.5t95.5 72.5t135.5 26.5zM417 876q5 5 11 8.5t16 3.5q11 0 20 -7t9 -21q0 -11 -6 -18t-15 -12l-174 -96l-6 9z" />
    <glyph glyph-name="Ocircumflex" unicode="&#xd4;" horiz-adv-x="734" 
d="M367 10q64 0 106.5 27.5t68 72t36.5 101.5t11 117q0 58 -12 115.5t-38 102.5t-68.5 73t-103.5 28t-103 -28t-68.5 -73t-38 -102t-11.5 -116q0 -60 10.5 -117t36 -101.5t68 -72t106.5 -27.5zM367 668q78 0 135.5 -26.5t95.5 -72.5t57 -108.5t19 -134.5q0 -79 -21 -141.5
t-61 -105.5t-96.5 -66t-128.5 -23t-128.5 23t-96.5 66t-61 105.5t-21 141.5q0 72 19 134.5t57 108.5t95.5 72.5t135.5 26.5zM263 731l-8 6l105 161h16l105 -160l-8 -7l-105 105z" />
    <glyph glyph-name="Otilde" unicode="&#xd5;" horiz-adv-x="734" 
d="M367 10q64 0 106.5 27.5t68 72t36.5 101.5t11 117q0 58 -12 115.5t-38 102.5t-68.5 73t-103.5 28t-103 -28t-68.5 -73t-38 -102t-11.5 -116q0 -60 10.5 -117t36 -101.5t68 -72t106.5 -27.5zM367 668q78 0 135.5 -26.5t95.5 -72.5t57 -108.5t19 -134.5q0 -79 -21 -141.5
t-61 -105.5t-96.5 -66t-128.5 -23t-128.5 23t-96.5 66t-61 105.5t-21 141.5q0 72 19 134.5t57 108.5t95.5 72.5t135.5 26.5zM309 847q10 0 20.5 -2t30.5 -10l32 -14q14 -6 26 -11t24 -5q17 0 30 11t24 31l7 -2q-12 -39 -32 -56t-49 -17q-14 0 -26 4t-32 12l-24 10
q-14 6 -26.5 10.5t-23.5 4.5q-14 0 -28 -9t-25 -29l-7 3q11 36 31.5 52.5t47.5 16.5z" />
    <glyph glyph-name="Odieresis" unicode="&#xd6;" horiz-adv-x="734" 
d="M367 10q64 0 106.5 27.5t68 72t36.5 101.5t11 117q0 58 -12 115.5t-38 102.5t-68.5 73t-103.5 28t-103 -28t-68.5 -73t-38 -102t-11.5 -116q0 -60 10.5 -117t36 -101.5t68 -72t106.5 -27.5zM367 668q78 0 135.5 -26.5t95.5 -72.5t57 -108.5t19 -134.5q0 -79 -21 -141.5
t-61 -105.5t-96.5 -66t-128.5 -23t-128.5 23t-96.5 66t-61 105.5t-21 141.5q0 72 19 134.5t57 108.5t95.5 72.5t135.5 26.5zM292 798q-20 0 -32 12t-12 32t13 32t33 12q19 0 31.5 -11.5t12.5 -31.5q0 -22 -13 -33.5t-33 -11.5zM445 798q-20 0 -32.5 12t-12.5 32t13 32t34 12
q18 0 30.5 -11.5t12.5 -31.5q0 -22 -12.5 -33.5t-32.5 -11.5z" />
    <glyph glyph-name="multiply" unicode="&#xd7;" horiz-adv-x="561" 
d="M60 34l194 194l-191 188l33 33l188 -190l186 188l32 -33l-186 -186l192 -190l-32 -32l-190 192l-191 -195z" />
    <glyph glyph-name="Oslash" unicode="&#xd8;" horiz-adv-x="734" 
d="M367 668q15 0 29.5 -1.5t28.5 -3.5l16 71h28l-17 -76q56 -14 97.5 -44.5t69.5 -74t41.5 -98t13.5 -115.5q0 -79 -21 -141.5t-61 -105.5t-96.5 -66t-128.5 -23q-16 0 -31.5 1.5t-29.5 3.5l-19 -90h-28l21 95q-105 25 -162.5 108.5t-57.5 217.5q0 72 19 134.5t57 108.5
t95.5 72.5t135.5 26.5zM367 10q64 0 106.5 27.5t68 72t36.5 101.5t11 117q0 48 -8 95t-25 87.5t-44 72t-66 48.5l-135 -615q25 -6 56 -6zM146 328q0 -49 7 -96.5t23 -88t43 -71.5t66 -47l135 615q-12 3 -25.5 5t-27.5 2q-61 0 -103 -28t-68.5 -73t-38 -102t-11.5 -116z" />
    <glyph glyph-name="Ugrave" unicode="&#xd9;" horiz-adv-x="686" 
d="M363 17q72 0 112 25t54 69q9 27 12 59.5t3 70.5v321q0 28 -5.5 44t-16 25t-26 12.5t-35.5 5.5v9q26 0 48 -1t52 -1q23 0 38 0.5t26 0.5t21 0.5t23 0.5v-9q-20 -2 -35.5 -5.5t-26 -12.5t-16 -25t-5.5 -44v-237q0 -38 1 -76t-4 -77q-4 -37 -16.5 -70t-38.5 -58t-69 -39.5
t-107 -14.5q-52 0 -89 8.5t-63 23.5t-42 36.5t-26 47.5q-13 32 -16.5 69.5t-3.5 79.5v307q0 28 -5.5 44t-16 25t-26 12.5t-35.5 5.5v9q9 0 24.5 -0.5t33 -0.5t36 -0.5t34.5 -0.5q36 0 66.5 1t49.5 1v-9q-20 -2 -35.5 -5.5t-26 -12.5t-16 -25t-5.5 -44v-321q0 -43 4 -79
t16 -65q16 -37 53 -58.5t100 -21.5zM437 743l-6 -9l-174 96q-9 5 -15 12t-6 18q0 14 9 21t20 7q10 0 16 -3.5t11 -8.5z" />
    <glyph glyph-name="Uacute" unicode="&#xda;" horiz-adv-x="686" 
d="M363 17q72 0 112 25t54 69q9 27 12 59.5t3 70.5v321q0 28 -5.5 44t-16 25t-26 12.5t-35.5 5.5v9q26 0 48 -1t52 -1q23 0 38 0.5t26 0.5t21 0.5t23 0.5v-9q-20 -2 -35.5 -5.5t-26 -12.5t-16 -25t-5.5 -44v-237q0 -38 1 -76t-4 -77q-4 -37 -16.5 -70t-38.5 -58t-69 -39.5
t-107 -14.5q-52 0 -89 8.5t-63 23.5t-42 36.5t-26 47.5q-13 32 -16.5 69.5t-3.5 79.5v307q0 28 -5.5 44t-16 25t-26 12.5t-35.5 5.5v9q9 0 24.5 -0.5t33 -0.5t36 -0.5t34.5 -0.5q36 0 66.5 1t49.5 1v-9q-20 -2 -35.5 -5.5t-26 -12.5t-16 -25t-5.5 -44v-321q0 -43 4 -79
t16 -65q16 -37 53 -58.5t100 -21.5zM403 876q5 5 11 8.5t16 3.5q11 0 20 -7t9 -21q0 -11 -6 -18t-15 -12l-174 -96l-6 9z" />
    <glyph glyph-name="Ucircumflex" unicode="&#xdb;" horiz-adv-x="686" 
d="M363 17q72 0 112 25t54 69q9 27 12 59.5t3 70.5v321q0 28 -5.5 44t-16 25t-26 12.5t-35.5 5.5v9q26 0 48 -1t52 -1q23 0 38 0.5t26 0.5t21 0.5t23 0.5v-9q-20 -2 -35.5 -5.5t-26 -12.5t-16 -25t-5.5 -44v-237q0 -38 1 -76t-4 -77q-4 -37 -16.5 -70t-38.5 -58t-69 -39.5
t-107 -14.5q-52 0 -89 8.5t-63 23.5t-42 36.5t-26 47.5q-13 32 -16.5 69.5t-3.5 79.5v307q0 28 -5.5 44t-16 25t-26 12.5t-35.5 5.5v9q9 0 24.5 -0.5t33 -0.5t36 -0.5t34.5 -0.5q36 0 66.5 1t49.5 1v-9q-20 -2 -35.5 -5.5t-26 -12.5t-16 -25t-5.5 -44v-321q0 -43 4 -79
t16 -65q16 -37 53 -58.5t100 -21.5zM262 731l-8 6l105 161h16l105 -160l-8 -7l-105 105z" />
    <glyph glyph-name="Udieresis" unicode="&#xdc;" horiz-adv-x="686" 
d="M363 17q72 0 112 25t54 69q9 27 12 59.5t3 70.5v321q0 28 -5.5 44t-16 25t-26 12.5t-35.5 5.5v9q26 0 48 -1t52 -1q23 0 38 0.5t26 0.5t21 0.5t23 0.5v-9q-20 -2 -35.5 -5.5t-26 -12.5t-16 -25t-5.5 -44v-237q0 -38 1 -76t-4 -77q-4 -37 -16.5 -70t-38.5 -58t-69 -39.5
t-107 -14.5q-52 0 -89 8.5t-63 23.5t-42 36.5t-26 47.5q-13 32 -16.5 69.5t-3.5 79.5v307q0 28 -5.5 44t-16 25t-26 12.5t-35.5 5.5v9q9 0 24.5 -0.5t33 -0.5t36 -0.5t34.5 -0.5q36 0 66.5 1t49.5 1v-9q-20 -2 -35.5 -5.5t-26 -12.5t-16 -25t-5.5 -44v-321q0 -43 4 -79
t16 -65q16 -37 53 -58.5t100 -21.5zM288 798q-20 0 -32 12t-12 32t13 32t33 12q19 0 31.5 -11.5t12.5 -31.5q0 -22 -13 -33.5t-33 -11.5zM441 798q-20 0 -32.5 12t-12.5 32t13 32t34 12q18 0 30.5 -11.5t12.5 -31.5q0 -22 -12.5 -33.5t-32.5 -11.5z" />
    <glyph glyph-name="Yacute" unicode="&#xdd;" horiz-adv-x="549" 
d="M314 293v-197q0 -28 6.5 -44t19 -25t30 -12.5t40.5 -5.5v-9q-26 0 -62.5 0.5t-82.5 0.5q-30 0 -64 -0.5t-60 -0.5v9q22 2 40 5.5t30.5 12.5t19 25t6.5 44v179q-14 24 -36.5 65t-48.5 87.5t-52.5 92.5t-46.5 80q-13 21 -22.5 32.5t-34.5 16.5v9q24 -1 51 -1.5t52 -0.5
t54.5 0.5t47.5 1.5v-9q-61 -10 -61 -32q0 -10 6.5 -24t17.5 -33q23 -40 48 -84t48 -81q11 -19 22 -36t19 -32h3q10 17 18 31.5t21 38.5q24 44 50 86.5t46 82.5q8 17 14 30t6 22q0 14 -19 20.5t-43 10.5v9q17 -2 38 -2h39h42t37 2v-9q-13 -3 -22 -6t-16 -8.5t-13.5 -14
t-14.5 -22.5zM349 876q5 5 11 8.5t16 3.5q11 0 20 -7t9 -21q0 -11 -6 -18t-15 -12l-174 -96l-6 9z" />
    <glyph glyph-name="Thorn" unicode="&#xde;" horiz-adv-x="535" 
d="M118 562q0 28 -5.5 44t-16 25t-26 12.5t-35.5 5.5v9q9 0 23 -0.5t30.5 -0.5t34 -0.5t33.5 -0.5q36 0 70 1t53 1v-9q-20 -2 -35 -5.5t-25.5 -12t-16.5 -24t-6 -42.5q19 2 35 3t45 1q21 0 51.5 -1.5t60.5 -9.5q27 -6 51 -18.5t43 -32t30 -48.5t11 -68q0 -47 -16 -83.5
t-45.5 -61.5t-70.5 -38t-91 -13q-38 0 -64 6.5t-40 14.5v-120q0 -28 6.5 -44.5t19 -25.5t31 -12.5t43.5 -4.5v-9q-26 0 -60 0.5t-72 0.5t-70.5 -0.5t-58.5 -0.5v9q20 2 35.5 5.5t26 12.5t16 25t5.5 44v466zM196 227q8 -2 28 -5t47 -3q38 0 69.5 9t54.5 28.5t35.5 51
t12.5 77.5q0 45 -12.5 76t-36 50t-57 27.5t-75.5 8.5q-15 0 -27 -0.5t-21 -0.5q-11 -1 -18 -1v-318z" />
    <glyph glyph-name="germandbls" unicode="&#xdf;" horiz-adv-x="561" 
d="M295 678q-39 0 -65 -21t-37 -56q-9 -29 -10.5 -65.5t-1.5 -80.5v-266q0 -56 0.5 -106t1.5 -82h-31q-32 0 -58.5 -0.5t-53.5 -0.5v9q20 2 34 5t23 11t13.5 24t4.5 44v315h-70v18l70 -1q0 35 3.5 80.5t23.5 87.5t60 71t101 29q77 0 113.5 -29.5t36.5 -75.5q0 -21 -6 -36.5
t-16.5 -29t-23.5 -25.5t-28 -25q-15 -14 -25 -25t-15.5 -21t-7.5 -19.5t-2 -20.5q0 -32 19 -55.5t56 -50.5l20 -15q20 -15 37.5 -29t30 -30.5t20 -35t7.5 -42.5q0 -64 -42 -101t-109 -37q-26 0 -45 3.5t-33 8.5q-16 5 -28 12l-2 93h9q9 -54 31.5 -78t67.5 -24t68.5 26
t23.5 65q0 34 -16 56.5t-47 45.5l-31 22q-21 15 -37.5 28t-28.5 27t-18.5 30t-6.5 37q0 18 4.5 32t13 27t21 26t28.5 29t27 29.5t17.5 27t9.5 29t3 35.5q0 44 -28 72.5t-76 28.5z" />
    <glyph glyph-name="agrave" unicode="&#xe0;" horiz-adv-x="446" 
d="M290 65q-17 -32 -50 -53.5t-82 -21.5q-55 0 -88.5 30t-33.5 79q0 32 13.5 53.5t36.5 35.5q33 20 78.5 26.5t92.5 6.5q9 0 18.5 -0.5t16.5 -0.5q0 10 0.5 31.5t0.5 41.5q0 24 -2.5 46.5t-11.5 40t-27.5 28.5t-51.5 11q-32 0 -43.5 -7.5t-11.5 -18.5q0 -7 1 -15.5t1 -17.5
q0 -33 -41 -33q-18 0 -28.5 8t-10.5 26q0 14 8 27t22 22q19 12 49 19.5t68 7.5q57 0 86.5 -13.5t42 -35t14 -48t1.5 -51.5v-35q0 -14 -0.5 -35.5t-0.5 -43.5t-0.5 -41.5t-0.5 -29.5q0 -25 2 -41t6.5 -25t12 -12t18.5 -3t19 4.5t12 7.5l5 -5q-11 -14 -30.5 -26.5t-51.5 -12.5
q-34 0 -45.5 21.5t-11.5 52.5h-2zM292 203q-42 0 -76.5 -4t-59 -15t-37.5 -30t-13 -49q0 -42 23.5 -63.5t58.5 -21.5q21 0 39.5 7.5t33 22t23 35.5t8.5 49v69zM312 511l-6 -9l-174 96q-9 5 -15 12t-6 18q0 14 9 21t20 7q10 0 16 -3.5t11 -8.5z" />
    <glyph glyph-name="aacute" unicode="&#xe1;" horiz-adv-x="446" 
d="M290 65q-17 -32 -50 -53.5t-82 -21.5q-55 0 -88.5 30t-33.5 79q0 32 13.5 53.5t36.5 35.5q33 20 78.5 26.5t92.5 6.5q9 0 18.5 -0.5t16.5 -0.5q0 10 0.5 31.5t0.5 41.5q0 24 -2.5 46.5t-11.5 40t-27.5 28.5t-51.5 11q-32 0 -43.5 -7.5t-11.5 -18.5q0 -7 1 -15.5t1 -17.5
q0 -33 -41 -33q-18 0 -28.5 8t-10.5 26q0 14 8 27t22 22q19 12 49 19.5t68 7.5q57 0 86.5 -13.5t42 -35t14 -48t1.5 -51.5v-35q0 -14 -0.5 -35.5t-0.5 -43.5t-0.5 -41.5t-0.5 -29.5q0 -25 2 -41t6.5 -25t12 -12t18.5 -3t19 4.5t12 7.5l5 -5q-11 -14 -30.5 -26.5t-51.5 -12.5
q-34 0 -45.5 21.5t-11.5 52.5h-2zM292 203q-42 0 -76.5 -4t-59 -15t-37.5 -30t-13 -49q0 -42 23.5 -63.5t58.5 -21.5q21 0 39.5 7.5t33 22t23 35.5t8.5 49v69zM273 644q5 5 11 8.5t16 3.5q11 0 20 -7t9 -21q0 -11 -6 -18t-15 -12l-174 -96l-6 9z" />
    <glyph glyph-name="acircumflex" unicode="&#xe2;" horiz-adv-x="446" 
d="M290 65q-17 -32 -50 -53.5t-82 -21.5q-55 0 -88.5 30t-33.5 79q0 32 13.5 53.5t36.5 35.5q33 20 78.5 26.5t92.5 6.5q9 0 18.5 -0.5t16.5 -0.5q0 10 0.5 31.5t0.5 41.5q0 24 -2.5 46.5t-11.5 40t-27.5 28.5t-51.5 11q-32 0 -43.5 -7.5t-11.5 -18.5q0 -7 1 -15.5t1 -17.5
q0 -33 -41 -33q-18 0 -28.5 8t-10.5 26q0 14 8 27t22 22q19 12 49 19.5t68 7.5q57 0 86.5 -13.5t42 -35t14 -48t1.5 -51.5v-35q0 -14 -0.5 -35.5t-0.5 -43.5t-0.5 -41.5t-0.5 -29.5q0 -25 2 -41t6.5 -25t12 -12t18.5 -3t19 4.5t12 7.5l5 -5q-11 -14 -30.5 -26.5t-51.5 -12.5
q-34 0 -45.5 21.5t-11.5 52.5h-2zM292 203q-42 0 -76.5 -4t-59 -15t-37.5 -30t-13 -49q0 -42 23.5 -63.5t58.5 -21.5q21 0 39.5 7.5t33 22t23 35.5t8.5 49v69zM111 499l-8 6l105 161h16l105 -160l-8 -7l-105 105z" />
    <glyph glyph-name="atilde" unicode="&#xe3;" horiz-adv-x="446" 
d="M290 65q-17 -32 -50 -53.5t-82 -21.5q-55 0 -88.5 30t-33.5 79q0 32 13.5 53.5t36.5 35.5q33 20 78.5 26.5t92.5 6.5q9 0 18.5 -0.5t16.5 -0.5q0 10 0.5 31.5t0.5 41.5q0 24 -2.5 46.5t-11.5 40t-27.5 28.5t-51.5 11q-32 0 -43.5 -7.5t-11.5 -18.5q0 -7 1 -15.5t1 -17.5
q0 -33 -41 -33q-18 0 -28.5 8t-10.5 26q0 14 8 27t22 22q19 12 49 19.5t68 7.5q57 0 86.5 -13.5t42 -35t14 -48t1.5 -51.5v-35q0 -14 -0.5 -35.5t-0.5 -43.5t-0.5 -41.5t-0.5 -29.5q0 -25 2 -41t6.5 -25t12 -12t18.5 -3t19 4.5t12 7.5l5 -5q-11 -14 -30.5 -26.5t-51.5 -12.5
q-34 0 -45.5 21.5t-11.5 52.5h-2zM292 203q-42 0 -76.5 -4t-59 -15t-37.5 -30t-13 -49q0 -42 23.5 -63.5t58.5 -21.5q21 0 39.5 7.5t33 22t23 35.5t8.5 49v69zM160 615q10 0 20.5 -2t30.5 -10l32 -14q14 -6 26 -11t24 -5q17 0 30 11t24 31l7 -2q-12 -39 -32 -56t-49 -17
q-14 0 -26 4t-32 12l-24 10q-14 6 -26.5 10.5t-23.5 4.5q-14 0 -28 -9t-25 -29l-7 3q11 36 31.5 52.5t47.5 16.5z" />
    <glyph glyph-name="adieresis" unicode="&#xe4;" horiz-adv-x="446" 
d="M290 65q-17 -32 -50 -53.5t-82 -21.5q-55 0 -88.5 30t-33.5 79q0 32 13.5 53.5t36.5 35.5q33 20 78.5 26.5t92.5 6.5q9 0 18.5 -0.5t16.5 -0.5q0 10 0.5 31.5t0.5 41.5q0 24 -2.5 46.5t-11.5 40t-27.5 28.5t-51.5 11q-32 0 -43.5 -7.5t-11.5 -18.5q0 -7 1 -15.5t1 -17.5
q0 -33 -41 -33q-18 0 -28.5 8t-10.5 26q0 14 8 27t22 22q19 12 49 19.5t68 7.5q57 0 86.5 -13.5t42 -35t14 -48t1.5 -51.5v-35q0 -14 -0.5 -35.5t-0.5 -43.5t-0.5 -41.5t-0.5 -29.5q0 -25 2 -41t6.5 -25t12 -12t18.5 -3t19 4.5t12 7.5l5 -5q-11 -14 -30.5 -26.5t-51.5 -12.5
q-34 0 -45.5 21.5t-11.5 52.5h-2zM292 203q-42 0 -76.5 -4t-59 -15t-37.5 -30t-13 -49q0 -42 23.5 -63.5t58.5 -21.5q21 0 39.5 7.5t33 22t23 35.5t8.5 49v69zM135 586q-20 0 -32 12t-12 32t13 32t33 12q19 0 31.5 -11.5t12.5 -31.5q0 -22 -13 -33.5t-33 -11.5zM288 586
q-20 0 -32.5 12t-12.5 32t13 32t34 12q18 0 30.5 -11.5t12.5 -31.5q0 -22 -12.5 -33.5t-32.5 -11.5z" />
    <glyph glyph-name="aring" unicode="&#xe5;" horiz-adv-x="446" 
d="M290 65q-17 -32 -50 -53.5t-82 -21.5q-55 0 -88.5 30t-33.5 79q0 32 13.5 53.5t36.5 35.5q33 20 78.5 26.5t92.5 6.5q9 0 18.5 -0.5t16.5 -0.5q0 10 0.5 31.5t0.5 41.5q0 24 -2.5 46.5t-11.5 40t-27.5 28.5t-51.5 11q-32 0 -43.5 -7.5t-11.5 -18.5q0 -7 1 -15.5t1 -17.5
q0 -33 -41 -33q-18 0 -28.5 8t-10.5 26q0 14 8 27t22 22q19 12 49 19.5t68 7.5q57 0 86.5 -13.5t42 -35t14 -48t1.5 -51.5v-35q0 -14 -0.5 -35.5t-0.5 -43.5t-0.5 -41.5t-0.5 -29.5q0 -25 2 -41t6.5 -25t12 -12t18.5 -3t19 4.5t12 7.5l5 -5q-11 -14 -30.5 -26.5t-51.5 -12.5
q-34 0 -45.5 21.5t-11.5 52.5h-2zM292 203q-42 0 -76.5 -4t-59 -15t-37.5 -30t-13 -49q0 -42 23.5 -63.5t58.5 -21.5q21 0 39.5 7.5t33 22t23 35.5t8.5 49v69zM305 574q0 -38 -26 -62.5t-64 -24.5q-37 0 -63 24.5t-26 62.5q0 37 26 61.5t63 24.5t63.5 -24.5t26.5 -61.5z
M281 574q0 30 -18.5 48.5t-47.5 18.5q-27 0 -46 -18.5t-19 -48.5q0 -31 19 -49.5t46 -18.5q29 0 47.5 18.5t18.5 49.5z" />
    <glyph glyph-name="ae" unicode="&#xe6;" horiz-adv-x="688" 
d="M642 93q-10 -20 -23 -38.5t-32 -33t-44.5 -23.5t-60.5 -9q-60 0 -104 28t-67 81q-23 -58 -63.5 -83t-89.5 -25q-55 0 -88.5 30t-33.5 79q0 32 13.5 53.5t36.5 35.5q33 20 78.5 26.5t92.5 6.5q9 0 18.5 -0.5t16.5 -0.5q0 10 0.5 31.5t0.5 41.5q0 24 -2.5 46.5t-11.5 40
t-27.5 28.5t-51.5 11q-32 0 -43.5 -7.5t-11.5 -18.5q0 -7 1 -15.5t1 -17.5q0 -33 -41 -33q-18 0 -28.5 8t-10.5 26q0 14 8 27t22 22q19 12 49 19.5t68 7.5q60 0 89.5 -16.5t41.5 -42.5q51 59 138 59q43 0 73.5 -12.5t49.5 -35.5t28 -54.5t9 -69.5v-12l-278 4q-1 -5 -1 -9
v-17q0 -47 9.5 -86t27.5 -67t45 -43.5t63 -15.5q24 0 43.5 7t34.5 18.5t25.5 25.5t18.5 28zM292 203q-42 0 -76.5 -4t-59 -15t-37.5 -30t-13 -49q0 -42 23.5 -63.5t58.5 -21.5q21 0 39.5 7.5t33 22t23 35.5t8.5 49v69zM569 276v14q0 25 -5 48.5t-16 42t-27.5 29.5t-40.5 11
q-26 0 -45.5 -11.5t-33.5 -31.5t-22.5 -47t-11.5 -58z" />
    <glyph glyph-name="ccedilla" unicode="&#xe7;" horiz-adv-x="427" 
d="M399 94q-17 -44 -56 -74.5t-102 -30.5q-10 0 -15 1l-25 -60l3 -1q4 3 15.5 9t32.5 6q32 0 54 -19.5t22 -53.5q0 -21 -8.5 -38t-23 -28t-33 -17t-38.5 -6t-35 3.5t-29 10.5l3 9q18 -9 45 -9q33 0 54.5 18.5t21.5 53.5q0 30 -15 43t-38 13q-14 0 -22.5 -3.5t-15.5 -10.5
l-11 5l30 76q-75 9 -119 66t-44 154q0 53 14.5 95t41.5 71t64.5 44t83.5 15q36 0 62 -8t42.5 -20t24 -27t7.5 -29q0 -21 -10 -27.5t-28 -6.5q-20 0 -29.5 7.5t-9.5 25.5q0 9 0.5 14t0.5 12q0 19 -14 31.5t-47 12.5q-26 0 -49 -12t-40 -36t-27.5 -60.5t-10.5 -85.5
q0 -97 38.5 -152.5t106.5 -55.5q25 0 44 8t33 20t23.5 26t15.5 26z" />
    <glyph glyph-name="egrave" unicode="&#xe8;" horiz-adv-x="447" 
d="M401 93q-10 -20 -23 -38.5t-32 -33t-44.5 -23.5t-60.5 -9q-87 0 -139 56.5t-52 162.5q0 53 13.5 95.5t38.5 72t60.5 45.5t79.5 16q43 0 73.5 -12.5t49.5 -35.5t28 -54.5t9 -69.5v-12l-278 4q-1 -5 -1 -9v-17q0 -47 9.5 -86t27.5 -67t45 -43.5t63 -15.5q24 0 43.5 7
t34.5 18.5t25.5 25.5t18.5 28zM328 276v14q0 25 -5 48.5t-16 42t-27.5 29.5t-40.5 11q-26 0 -45.5 -11.5t-33.5 -31.5t-22.5 -47t-11.5 -58zM343 511l-6 -9l-174 96q-9 5 -15 12t-6 18q0 14 9 21t20 7q10 0 16 -3.5t11 -8.5z" />
    <glyph glyph-name="eacute" unicode="&#xe9;" horiz-adv-x="447" 
d="M401 93q-10 -20 -23 -38.5t-32 -33t-44.5 -23.5t-60.5 -9q-87 0 -139 56.5t-52 162.5q0 53 13.5 95.5t38.5 72t60.5 45.5t79.5 16q43 0 73.5 -12.5t49.5 -35.5t28 -54.5t9 -69.5v-12l-278 4q-1 -5 -1 -9v-17q0 -47 9.5 -86t27.5 -67t45 -43.5t63 -15.5q24 0 43.5 7
t34.5 18.5t25.5 25.5t18.5 28zM328 276v14q0 25 -5 48.5t-16 42t-27.5 29.5t-40.5 11q-26 0 -45.5 -11.5t-33.5 -31.5t-22.5 -47t-11.5 -58zM300 644q5 5 11 8.5t16 3.5q11 0 20 -7t9 -21q0 -11 -6 -18t-15 -12l-174 -96l-6 9z" />
    <glyph glyph-name="ecircumflex" unicode="&#xea;" horiz-adv-x="447" 
d="M401 93q-10 -20 -23 -38.5t-32 -33t-44.5 -23.5t-60.5 -9q-87 0 -139 56.5t-52 162.5q0 53 13.5 95.5t38.5 72t60.5 45.5t79.5 16q43 0 73.5 -12.5t49.5 -35.5t28 -54.5t9 -69.5v-12l-278 4q-1 -5 -1 -9v-17q0 -47 9.5 -86t27.5 -67t45 -43.5t63 -15.5q24 0 43.5 7
t34.5 18.5t25.5 25.5t18.5 28zM328 276v14q0 25 -5 48.5t-16 42t-27.5 29.5t-40.5 11q-26 0 -45.5 -11.5t-33.5 -31.5t-22.5 -47t-11.5 -58zM137 499l-8 6l105 161h16l105 -160l-8 -7l-105 105z" />
    <glyph glyph-name="edieresis" unicode="&#xeb;" horiz-adv-x="447" 
d="M401 93q-10 -20 -23 -38.5t-32 -33t-44.5 -23.5t-60.5 -9q-87 0 -139 56.5t-52 162.5q0 53 13.5 95.5t38.5 72t60.5 45.5t79.5 16q43 0 73.5 -12.5t49.5 -35.5t28 -54.5t9 -69.5v-12l-278 4q-1 -5 -1 -9v-17q0 -47 9.5 -86t27.5 -67t45 -43.5t63 -15.5q24 0 43.5 7
t34.5 18.5t25.5 25.5t18.5 28zM328 276v14q0 25 -5 48.5t-16 42t-27.5 29.5t-40.5 11q-26 0 -45.5 -11.5t-33.5 -31.5t-22.5 -47t-11.5 -58zM164 586q-20 0 -32 12t-12 32t13 32t33 12q19 0 31.5 -11.5t12.5 -31.5q0 -22 -13 -33.5t-33 -11.5zM317 586q-20 0 -32.5 12
t-12.5 32t13 32t34 12q18 0 30.5 -11.5t12.5 -31.5q0 -22 -12.5 -33.5t-32.5 -11.5z" />
    <glyph glyph-name="igrave" unicode="&#xec;" horiz-adv-x="276" 
d="M31 9q20 2 34 5t23 11t13.5 24t4.5 44v254q0 20 -5 32.5t-14.5 19.5t-23 10.5t-31.5 5.5v10q43 1 80.5 2t63.5 1q-2 -60 -3 -123t-1 -117v-95q0 -28 4.5 -44t13.5 -24t23 -11t34 -5v-9q-21 0 -51 0.5t-55 0.5q-32 0 -57.5 -0.5t-52.5 -0.5v9zM221 511l-6 -9l-174 96
q-9 5 -15 12t-6 18q0 14 9 21t20 7q10 0 16 -3.5t11 -8.5z" />
    <glyph glyph-name="iacute" unicode="&#xed;" horiz-adv-x="276" 
d="M31 9q20 2 34 5t23 11t13.5 24t4.5 44v254q0 20 -5 32.5t-14.5 19.5t-23 10.5t-31.5 5.5v10q43 1 80.5 2t63.5 1q-2 -60 -3 -123t-1 -117v-95q0 -28 4.5 -44t13.5 -24t23 -11t34 -5v-9q-21 0 -51 0.5t-55 0.5q-32 0 -57.5 -0.5t-52.5 -0.5v9zM181 644q5 5 11 8.5t16 3.5
q11 0 20 -7t9 -21q0 -11 -6 -18t-15 -12l-174 -96l-6 9z" />
    <glyph glyph-name="icircumflex" unicode="&#xee;" horiz-adv-x="276" 
d="M31 9q20 2 34 5t23 11t13.5 24t4.5 44v254q0 20 -5 32.5t-14.5 19.5t-23 10.5t-31.5 5.5v10q43 1 80.5 2t63.5 1q-2 -60 -3 -123t-1 -117v-95q0 -28 4.5 -44t13.5 -24t23 -11t34 -5v-9q-21 0 -51 0.5t-55 0.5q-32 0 -57.5 -0.5t-52.5 -0.5v9zM36 499l-8 6l105 161h16
l105 -160l-8 -7l-105 105z" />
    <glyph glyph-name="idieresis" unicode="&#xef;" horiz-adv-x="276" 
d="M31 9q20 2 34 5t23 11t13.5 24t4.5 44v254q0 20 -5 32.5t-14.5 19.5t-23 10.5t-31.5 5.5v10q43 1 80.5 2t63.5 1q-2 -60 -3 -123t-1 -117v-95q0 -28 4.5 -44t13.5 -24t23 -11t34 -5v-9q-21 0 -51 0.5t-55 0.5q-32 0 -57.5 -0.5t-52.5 -0.5v9zM62 586q-20 0 -32 12t-12 32
t13 32t33 12q19 0 31.5 -11.5t12.5 -31.5q0 -22 -13 -33.5t-33 -11.5zM215 586q-20 0 -32.5 12t-12.5 32t13 32t34 12q18 0 30.5 -11.5t12.5 -31.5q0 -22 -12.5 -33.5t-32.5 -11.5z" />
    <glyph glyph-name="eth" unicode="&#xf0;" horiz-adv-x="508" 
d="M293 599q-49 46 -125 46q-29 0 -45 -4.5t-30 -9.5l-4 10q15 8 41.5 16.5t65.5 8.5q78 0 135 -40l71 51l9 -14l-67 -47q49 -42 74.5 -117.5t25.5 -182.5q0 -155 -47 -241t-151 -86q-89 0 -140 53t-51 166q0 57 14.5 99.5t39.5 71t59 43t72 14.5q52 0 85 -23.5t46 -58.5
l4 1q-3 78 -20.5 136.5t-50.5 95.5l-36 -26t-37 -26l-9 13zM375 284q-2 20 -10 42.5t-22 41.5t-34 31.5t-46 12.5q-63 0 -97 -54t-34 -157q0 -93 27.5 -144.5t87.5 -51.5q34 0 58.5 18.5t40 51.5t23 78t7.5 98v16.5t-1 16.5z" />
    <glyph glyph-name="ntilde" unicode="&#xf1;" horiz-adv-x="548" 
d="M28 8q20 2 34 4.5t23 10t13.5 23t4.5 43.5v261q0 20 -5 32t-14.5 18.5t-23 9.5t-31.5 5v10q43 1 79.5 2t62.5 1q-2 -22 -2 -48v-49q16 43 55.5 74.5t100.5 31.5q69 0 98.5 -39t29.5 -113v-196q0 -28 4.5 -43.5t13.5 -23t23 -10t34 -4.5v-8q-21 0 -50.5 0.5t-54.5 0.5
q-32 0 -58 -0.5t-53 -0.5v8q20 2 34 4.5t23 10t13.5 23t4.5 43.5v197q0 57 -22.5 89t-72.5 32q-27 0 -48.5 -12.5t-37.5 -32.5t-25.5 -47t-11.5 -55v-171q0 -28 4.5 -43.5t13.5 -23t23 -10t34 -4.5v-8q-21 0 -51 0.5t-55 0.5q-32 0 -57.5 -0.5t-52.5 -0.5v8zM237 615
q10 0 20.5 -2t30.5 -10l32 -14q14 -6 26 -11t24 -5q17 0 30 11t24 31l7 -2q-12 -39 -32 -56t-49 -17q-14 0 -26 4t-32 12l-24 10q-14 6 -26.5 10.5t-23.5 4.5q-14 0 -28 -9t-25 -29l-7 3q11 36 31.5 52.5t47.5 16.5z" />
    <glyph glyph-name="ograve" unicode="&#xf2;" horiz-adv-x="508" 
d="M458 214q0 -104 -52.5 -164.5t-152.5 -60.5q-99 0 -151 60t-52 161q0 50 14 91.5t40.5 71.5t64 46.5t85.5 16.5t85.5 -16.5t64 -46t40.5 -70t14 -89.5zM384 211q0 93 -32 150.5t-98 57.5q-65 0 -96.5 -57.5t-31.5 -150.5q0 -95 31.5 -150t96.5 -55t97.5 55t32.5 150z
M348 511l-6 -9l-174 96q-9 5 -15 12t-6 18q0 14 9 21t20 7q10 0 16 -3.5t11 -8.5z" />
    <glyph glyph-name="oacute" unicode="&#xf3;" horiz-adv-x="508" 
d="M458 214q0 -104 -52.5 -164.5t-152.5 -60.5q-99 0 -151 60t-52 161q0 50 14 91.5t40.5 71.5t64 46.5t85.5 16.5t85.5 -16.5t64 -46t40.5 -70t14 -89.5zM384 211q0 93 -32 150.5t-98 57.5q-65 0 -96.5 -57.5t-31.5 -150.5q0 -95 31.5 -150t96.5 -55t97.5 55t32.5 150z
M321 644q5 5 11 8.5t16 3.5q11 0 20 -7t9 -21q0 -11 -6 -18t-15 -12l-174 -96l-6 9z" />
    <glyph glyph-name="ocircumflex" unicode="&#xf4;" horiz-adv-x="508" 
d="M458 214q0 -104 -52.5 -164.5t-152.5 -60.5q-99 0 -151 60t-52 161q0 50 14 91.5t40.5 71.5t64 46.5t85.5 16.5t85.5 -16.5t64 -46t40.5 -70t14 -89.5zM384 211q0 93 -32 150.5t-98 57.5q-65 0 -96.5 -57.5t-31.5 -150.5q0 -95 31.5 -150t96.5 -55t97.5 55t32.5 150z
M151 499l-8 6l105 161h16l105 -160l-8 -7l-105 105z" />
    <glyph glyph-name="otilde" unicode="&#xf5;" horiz-adv-x="508" 
d="M458 214q0 -104 -52.5 -164.5t-152.5 -60.5q-99 0 -151 60t-52 161q0 50 14 91.5t40.5 71.5t64 46.5t85.5 16.5t85.5 -16.5t64 -46t40.5 -70t14 -89.5zM384 211q0 93 -32 150.5t-98 57.5q-65 0 -96.5 -57.5t-31.5 -150.5q0 -95 31.5 -150t96.5 -55t97.5 55t32.5 150z
M202 615q10 0 20.5 -2t30.5 -10l32 -14q14 -6 26 -11t24 -5q17 0 30 11t24 31l7 -2q-12 -39 -32 -56t-49 -17q-14 0 -26 4t-32 12l-24 10q-14 6 -26.5 10.5t-23.5 4.5q-14 0 -28 -9t-25 -29l-7 3q11 36 31.5 52.5t47.5 16.5z" />
    <glyph glyph-name="odieresis" unicode="&#xf6;" horiz-adv-x="508" 
d="M458 214q0 -104 -52.5 -164.5t-152.5 -60.5q-99 0 -151 60t-52 161q0 50 14 91.5t40.5 71.5t64 46.5t85.5 16.5t85.5 -16.5t64 -46t40.5 -70t14 -89.5zM384 211q0 93 -32 150.5t-98 57.5q-65 0 -96.5 -57.5t-31.5 -150.5q0 -95 31.5 -150t96.5 -55t97.5 55t32.5 150z
M177 586q-20 0 -32 12t-12 32t13 32t33 12q19 0 31.5 -11.5t12.5 -31.5q0 -22 -13 -33.5t-33 -11.5zM330 586q-20 0 -32.5 12t-12.5 32t13 32t34 12q18 0 30.5 -11.5t12.5 -31.5q0 -22 -12.5 -33.5t-32.5 -11.5z" />
    <glyph glyph-name="divide" unicode="&#xf7;" horiz-adv-x="568" 
d="M55 225h458v-39h-458v39zM232 37q0 21 13.5 34.5t34.5 13.5q22 0 35.5 -13.5t13.5 -34.5q0 -22 -13 -35.5t-36 -13.5t-35.5 13.5t-12.5 35.5zM232 369q0 21 13.5 34.5t34.5 13.5q22 0 35.5 -13.5t13.5 -34.5q0 -22 -13 -35.5t-36 -13.5t-35.5 13.5t-12.5 35.5z" />
    <glyph glyph-name="oslash" unicode="&#xf8;" horiz-adv-x="508" 
d="M458 214q0 -104 -52.5 -164.5t-152.5 -60.5q-19 0 -37 3l-19 -86h-25l20 90q-69 17 -105.5 73t-36.5 141q0 50 14 91.5t40.5 71.5t64 46.5t85.5 16.5q21 0 39 -3l22 94h25l-23 -100q67 -19 104 -75.5t37 -137.5zM126 211q0 -72 17.5 -121t54.5 -70l91 394q-18 5 -35 5
q-65 0 -96.5 -57.5t-31.5 -150.5zM384 211q0 70 -18 120t-55 73l-90 -394q13 -4 33 -4q65 0 97.5 55t32.5 150z" />
    <glyph glyph-name="ugrave" unicode="&#xf9;" horiz-adv-x="530" 
d="M363 347q0 20 -5 32.5t-14.5 19.5t-23 10.5t-31.5 5.5v10q43 1 80.5 2t63.5 1q-2 -60 -3 -123.5t-1 -117.5v-109q0 -20 5 -32.5t14.5 -19.5t23 -10.5t31.5 -5.5v-10q-43 -1 -79.5 -1h-62.5q2 22 2 49.5v50.5q-16 -45 -55 -77t-103 -32q-35 0 -57.5 10t-35.5 29.5
t-17.5 47.5t-4.5 65v205q0 20 -4 32.5t-12.5 19.5t-21.5 10.5t-31 5.5v10q43 1 78 2t61 1q-2 -60 -3 -123.5t-1 -117.5v-45q0 -57 17 -89t65 -32q27 0 49 11.5t38 31t26 45t12 54.5v184zM339 511l-6 -9l-174 96q-9 5 -15 12t-6 18q0 14 9 21t20 7q10 0 16 -3.5t11 -8.5z" />
    <glyph glyph-name="uacute" unicode="&#xfa;" horiz-adv-x="530" 
d="M363 347q0 20 -5 32.5t-14.5 19.5t-23 10.5t-31.5 5.5v10q43 1 80.5 2t63.5 1q-2 -60 -3 -123.5t-1 -117.5v-109q0 -20 5 -32.5t14.5 -19.5t23 -10.5t31.5 -5.5v-10q-43 -1 -79.5 -1h-62.5q2 22 2 49.5v50.5q-16 -45 -55 -77t-103 -32q-35 0 -57.5 10t-35.5 29.5
t-17.5 47.5t-4.5 65v205q0 20 -4 32.5t-12.5 19.5t-21.5 10.5t-31 5.5v10q43 1 78 2t61 1q-2 -60 -3 -123.5t-1 -117.5v-45q0 -57 17 -89t65 -32q27 0 49 11.5t38 31t26 45t12 54.5v184zM313 644q5 5 11 8.5t16 3.5q11 0 20 -7t9 -21q0 -11 -6 -18t-15 -12l-174 -96l-6 9z
" />
    <glyph glyph-name="ucircumflex" unicode="&#xfb;" horiz-adv-x="530" 
d="M363 347q0 20 -5 32.5t-14.5 19.5t-23 10.5t-31.5 5.5v10q43 1 80.5 2t63.5 1q-2 -60 -3 -123.5t-1 -117.5v-109q0 -20 5 -32.5t14.5 -19.5t23 -10.5t31.5 -5.5v-10q-43 -1 -79.5 -1h-62.5q2 22 2 49.5v50.5q-16 -45 -55 -77t-103 -32q-35 0 -57.5 10t-35.5 29.5
t-17.5 47.5t-4.5 65v205q0 20 -4 32.5t-12.5 19.5t-21.5 10.5t-31 5.5v10q43 1 78 2t61 1q-2 -60 -3 -123.5t-1 -117.5v-45q0 -57 17 -89t65 -32q27 0 49 11.5t38 31t26 45t12 54.5v184zM155 499l-8 6l105 161h16l105 -160l-8 -7l-105 105z" />
    <glyph glyph-name="udieresis" unicode="&#xfc;" horiz-adv-x="530" 
d="M363 347q0 20 -5 32.5t-14.5 19.5t-23 10.5t-31.5 5.5v10q43 1 80.5 2t63.5 1q-2 -60 -3 -123.5t-1 -117.5v-109q0 -20 5 -32.5t14.5 -19.5t23 -10.5t31.5 -5.5v-10q-43 -1 -79.5 -1h-62.5q2 22 2 49.5v50.5q-16 -45 -55 -77t-103 -32q-35 0 -57.5 10t-35.5 29.5
t-17.5 47.5t-4.5 65v205q0 20 -4 32.5t-12.5 19.5t-21.5 10.5t-31 5.5v10q43 1 78 2t61 1q-2 -60 -3 -123.5t-1 -117.5v-45q0 -57 17 -89t65 -32q27 0 49 11.5t38 31t26 45t12 54.5v184zM182 586q-20 0 -32 12t-12 32t13 32t33 12q19 0 31.5 -11.5t12.5 -31.5
q0 -22 -13 -33.5t-33 -11.5zM335 586q-20 0 -32.5 12t-12.5 32t13 32t34 12q18 0 30.5 -11.5t12.5 -31.5q0 -22 -12.5 -33.5t-32.5 -11.5z" />
    <glyph glyph-name="yacute" unicode="&#xfd;" horiz-adv-x="435" 
d="M388 363q-8 -20 -22.5 -55.5t-31.5 -77.5t-34.5 -86.5t-32.5 -81.5q-20 -52 -38 -106t-40 -97.5t-52 -71t-75 -27.5q-32 0 -52 14t-20 43q0 17 10 25.5t27 8.5q25 0 30 -12t5 -24q0 -16 1.5 -25.5t14.5 -9.5q23 0 43.5 20.5t37 52t30 67.5t23.5 68q-35 84 -69.5 169.5
t-70.5 170.5l-18 42q-8 18 -19 29t-36 16v12q16 -2 43 -2.5t51 -0.5q26 0 52 0.5t44 2.5v-12q-7 -2 -17 -5.5t-19.5 -8t-16.5 -9.5t-7 -9q0 -9 5 -23.5t12 -31.5q11 -30 25 -65t28 -69.5t26.5 -66.5t21.5 -57q2 9 8 25.5t13.5 36.5t15.5 40.5t14 36.5q8 20 17 42t17 43
q11 29 19 52t8 34q0 7 -7.5 13t-18 10t-21 7l-17.5 5v12q17 -2 38.5 -2.5t40.5 -0.5q21 0 37.5 0.5t33.5 2.5v-12q-28 -6 -37.5 -17.5t-19.5 -34.5zM304 644q5 5 11 8.5t16 3.5q11 0 20 -7t9 -21q0 -11 -6 -18t-15 -12l-174 -96l-6 9z" />
    <glyph glyph-name="thorn" unicode="&#xfe;" horiz-adv-x="532" 
d="M92 607q0 20 -5 32.5t-14.5 19.5t-23 10.5t-31.5 5.5v10q43 1 79 2t62 1q-1 -8 -1 -19v-24v-296h3q5 13 15.5 28.5t27.5 28.5t40 21.5t53 8.5q46 0 79.5 -17.5t54.5 -47.5t31 -70.5t10 -86.5q0 -45 -11.5 -86t-34.5 -72t-57.5 -49t-80.5 -18q-28 0 -49 7t-36.5 17.5
t-26 23.5t-16.5 25h-2v-194q0 -28 4 -44t14.5 -24t28 -11t44.5 -5v-9h-27.5t-34.5 0.5t-36 0.5h-30q-32 0 -54.5 -0.5t-49.5 -0.5v9q20 2 34 5t23 11t13.5 24t4.5 44v739zM153 205q0 -92 28.5 -142t88.5 -50q33 0 57 16.5t40 44t23.5 63.5t7.5 76q0 38 -8 73t-24 62
t-39.5 43.5t-54.5 16.5q-60 0 -89.5 -54.5t-29.5 -148.5z" />
    <glyph glyph-name="ydieresis" unicode="&#xff;" horiz-adv-x="435" 
d="M388 363q-8 -20 -22.5 -55.5t-31.5 -77.5t-34.5 -86.5t-32.5 -81.5q-20 -52 -38 -106t-40 -97.5t-52 -71t-75 -27.5q-32 0 -52 14t-20 43q0 17 10 25.5t27 8.5q25 0 30 -12t5 -24q0 -16 1.5 -25.5t14.5 -9.5q23 0 43.5 20.5t37 52t30 67.5t23.5 68q-35 84 -69.5 169.5
t-70.5 170.5l-18 42q-8 18 -19 29t-36 16v12q16 -2 43 -2.5t51 -0.5q26 0 52 0.5t44 2.5v-12q-7 -2 -17 -5.5t-19.5 -8t-16.5 -9.5t-7 -9q0 -9 5 -23.5t12 -31.5q11 -30 25 -65t28 -69.5t26.5 -66.5t21.5 -57q2 9 8 25.5t13.5 36.5t15.5 40.5t14 36.5q8 20 17 42t17 43
q11 29 19 52t8 34q0 7 -7.5 13t-18 10t-21 7l-17.5 5v12q17 -2 38.5 -2.5t40.5 -0.5q21 0 37.5 0.5t33.5 2.5v-12q-28 -6 -37.5 -17.5t-19.5 -34.5zM170 586q-20 0 -32 12t-12 32t13 32t33 12q19 0 31.5 -11.5t12.5 -31.5q0 -22 -13 -33.5t-33 -11.5zM323 586
q-20 0 -32.5 12t-12.5 32t13 32t34 12q18 0 30.5 -11.5t12.5 -31.5q0 -22 -12.5 -33.5t-32.5 -11.5z" />
    <glyph glyph-name="Amacron" unicode="&#x100;" horiz-adv-x="605" 
d="M-10 8q20 3 33 9.5t22.5 16.5t16 23.5t12.5 30.5l20 53q48 131 98.5 256t98.5 255q5 2 9 4q10 4 16 10q16 -46 65 -180.5t138 -370.5q11 -29 18 -48t16.5 -31t23.5 -18t38 -10v-8h-25.5t-32.5 0.5t-33.5 0.5h-28.5h-26.5t-29.5 -0.5t-28.5 -0.5h-23.5v8q6 0 18 1.5
t24 5.5t21 10.5t9 15.5q0 5 -2.5 13t-4.5 16q-16 45 -33.5 94t-34.5 94h-217q-10 -29 -22.5 -62.5t-24 -64.5t-19 -56t-7.5 -36q0 -8 8.5 -13.5t20.5 -9t24 -5.5t19 -3v-8q-19 0 -46 0.5t-47 0.5q-23 0 -44.5 -0.5t-38.5 -0.5v8zM279 554q-8 -23 -21 -55t-24 -63l-59 -156
h200q-14 39 -28 77t-28 77zM180 798v32h252v-32h-252z" />
    <glyph glyph-name="amacron" unicode="&#x101;" horiz-adv-x="446" 
d="M290 65q-17 -32 -50 -53.5t-82 -21.5q-55 0 -88.5 30t-33.5 79q0 32 13.5 53.5t36.5 35.5q33 20 78.5 26.5t92.5 6.5q9 0 18.5 -0.5t16.5 -0.5q0 10 0.5 31.5t0.5 41.5q0 24 -2.5 46.5t-11.5 40t-27.5 28.5t-51.5 11q-32 0 -43.5 -7.5t-11.5 -18.5q0 -7 1 -15.5t1 -17.5
q0 -33 -41 -33q-18 0 -28.5 8t-10.5 26q0 14 8 27t22 22q19 12 49 19.5t68 7.5q57 0 86.5 -13.5t42 -35t14 -48t1.5 -51.5v-35q0 -14 -0.5 -35.5t-0.5 -43.5t-0.5 -41.5t-0.5 -29.5q0 -25 2 -41t6.5 -25t12 -12t18.5 -3t19 4.5t12 7.5l5 -5q-11 -14 -30.5 -26.5t-51.5 -12.5
q-34 0 -45.5 21.5t-11.5 52.5h-2zM292 203q-42 0 -76.5 -4t-59 -15t-37.5 -30t-13 -49q0 -42 23.5 -63.5t58.5 -21.5q21 0 39.5 7.5t33 22t23 35.5t8.5 49v69zM95 566v32h252v-32h-252z" />
    <glyph glyph-name="Abreve" unicode="&#x102;" horiz-adv-x="605" 
d="M-10 8q20 3 33 9.5t22.5 16.5t16 23.5t12.5 30.5l20 53q48 131 98.5 256t98.5 255q5 2 9 4q10 4 16 10q16 -46 65 -180.5t138 -370.5q11 -29 18 -48t16.5 -31t23.5 -18t38 -10v-8h-25.5t-32.5 0.5t-33.5 0.5h-28.5h-26.5t-29.5 -0.5t-28.5 -0.5h-23.5v8q6 0 18 1.5
t24 5.5t21 10.5t9 15.5q0 5 -2.5 13t-4.5 16q-16 45 -33.5 94t-34.5 94h-217q-10 -29 -22.5 -62.5t-24 -64.5t-19 -56t-7.5 -36q0 -8 8.5 -13.5t20.5 -9t24 -5.5t19 -3v-8q-19 0 -46 0.5t-47 0.5q-23 0 -44.5 -0.5t-38.5 -0.5v8zM279 554q-8 -23 -21 -55t-24 -63l-59 -156
h200q-14 39 -28 77t-28 77zM307 788q49 0 75.5 25.5t38.5 56.5l10 -4q-2 -11 -8.5 -29.5t-20 -36.5t-36.5 -31t-59 -13t-59 13t-36.5 31t-20 36.5t-8.5 29.5l10 4q6 -15 15.5 -30t23 -26.5t32 -18.5t43.5 -7z" />
    <glyph glyph-name="abreve" unicode="&#x103;" horiz-adv-x="446" 
d="M290 65q-17 -32 -50 -53.5t-82 -21.5q-55 0 -88.5 30t-33.5 79q0 32 13.5 53.5t36.5 35.5q33 20 78.5 26.5t92.5 6.5q9 0 18.5 -0.5t16.5 -0.5q0 10 0.5 31.5t0.5 41.5q0 24 -2.5 46.5t-11.5 40t-27.5 28.5t-51.5 11q-32 0 -43.5 -7.5t-11.5 -18.5q0 -7 1 -15.5t1 -17.5
q0 -33 -41 -33q-18 0 -28.5 8t-10.5 26q0 14 8 27t22 22q19 12 49 19.5t68 7.5q57 0 86.5 -13.5t42 -35t14 -48t1.5 -51.5v-35q0 -14 -0.5 -35.5t-0.5 -43.5t-0.5 -41.5t-0.5 -29.5q0 -25 2 -41t6.5 -25t12 -12t18.5 -3t19 4.5t12 7.5l5 -5q-11 -14 -30.5 -26.5t-51.5 -12.5
q-34 0 -45.5 21.5t-11.5 52.5h-2zM292 203q-42 0 -76.5 -4t-59 -15t-37.5 -30t-13 -49q0 -42 23.5 -63.5t58.5 -21.5q21 0 39.5 7.5t33 22t23 35.5t8.5 49v69zM220 556q49 0 75.5 25.5t38.5 56.5l10 -4q-2 -11 -8.5 -29.5t-20 -36.5t-36.5 -31t-59 -13t-59 13t-36.5 31
t-20 36.5t-8.5 29.5l10 4q6 -15 15.5 -30t23 -26.5t32 -18.5t43.5 -7z" />
    <glyph glyph-name="Aogonek" unicode="&#x104;" horiz-adv-x="605" 
d="M563 -206q-10 -4 -23.5 -7t-28.5 -3q-16 0 -32 3.5t-29 12t-21 24t-8 39.5q0 21 10.5 42t25 39t31 33t28.5 24h-21h-26.5t-29.5 -0.5t-28.5 -0.5h-23.5v8q6 0 18 1.5t24 5.5t21 10.5t9 15.5q0 5 -2.5 13t-4.5 16q-16 45 -33.5 94t-34.5 94h-217q-10 -29 -22.5 -62.5
t-24 -64.5t-19 -56t-7.5 -36q0 -8 8.5 -13.5t20.5 -9t24 -5.5t19 -3v-8q-19 0 -46 0.5t-47 0.5q-23 0 -44.5 -0.5t-38.5 -0.5v8q20 3 33 9.5t22.5 16.5t16 23.5t12.5 30.5l20 53q48 131 98.5 256t98.5 255q5 2 9 4q10 4 16 10q16 -46 65 -180.5t138 -370.5q11 -29 18 -48
t16.5 -31t23.5 -18t38 -10v-8h-38t-47 1q-10 -11 -22 -27.5t-22 -35t-17 -37.5t-7 -37q0 -32 17.5 -49t48.5 -17q19 0 32 4zM279 554q-8 -23 -21 -55t-24 -63l-59 -156h200q-14 39 -28 77t-28 77z" />
    <glyph glyph-name="aogonek" unicode="&#x105;" horiz-adv-x="446" 
d="M413 -206q-10 -4 -23.5 -7t-28.5 -3q-16 0 -32 3.5t-29 12t-21 24t-8 39.5t13 47.5t31 43.5t36 34.5t27 20.5h10q-10 -10 -23 -27t-25 -36.5t-20 -41t-8 -40.5q0 -32 17.5 -49t48.5 -17q19 0 32 4zM290 65q-17 -32 -50 -53.5t-82 -21.5q-55 0 -88.5 30t-33.5 79
q0 32 13.5 53.5t36.5 35.5q33 20 78.5 26.5t92.5 6.5q9 0 18.5 -0.5t16.5 -0.5q0 10 0.5 31.5t0.5 41.5q0 24 -2.5 46.5t-11.5 40t-27.5 28.5t-51.5 11q-32 0 -43.5 -7.5t-11.5 -18.5q0 -7 1 -15.5t1 -17.5q0 -33 -41 -33q-18 0 -28.5 8t-10.5 26q0 14 8 27t22 22
q19 12 49 19.5t68 7.5q57 0 86.5 -13.5t42 -35t14 -48t1.5 -51.5v-35q0 -14 -0.5 -35.5t-0.5 -43.5t-0.5 -41.5t-0.5 -29.5q0 -25 2 -41t6.5 -25t12 -12t18.5 -3t19 4.5t12 7.5l5 -5q-11 -14 -30.5 -26.5t-51.5 -12.5q-34 0 -45.5 21.5t-11.5 52.5h-2zM292 203
q-42 0 -76.5 -4t-59 -15t-37.5 -30t-13 -49q0 -42 23.5 -63.5t58.5 -21.5q21 0 39.5 7.5t33 22t23 35.5t8.5 49v69z" />
    <glyph glyph-name="Cacute" unicode="&#x106;" horiz-adv-x="629" 
d="M60 320q0 79 21.5 143.5t61 110t96.5 70t128 24.5q39 0 69 -4.5t52.5 -9.5t36 -10t19.5 -5q2 0 3.5 0.5t3.5 0.5l2 -1l8 -167h-11q-7 38 -21 70t-36.5 55.5t-53.5 36.5t-73 13q-52 0 -93 -24t-69.5 -66.5t-43.5 -101t-15 -127.5t15 -127t44.5 -100t72 -66t96.5 -24
q44 0 74 13t50 35.5t32 53.5t20 67h11l-8 -151l-2 -2q-35 -15 -78 -26t-106 -11q-71 0 -127.5 21.5t-96 63.5t-61 103.5t-21.5 141.5zM432 876q5 5 11 8.5t16 3.5q11 0 20 -7t9 -21q0 -11 -6 -18t-15 -12l-174 -96l-6 9z" />
    <glyph glyph-name="cacute" unicode="&#x107;" horiz-adv-x="427" 
d="M399 94q-17 -44 -56 -74.5t-102 -30.5q-87 0 -139 58t-52 164q0 53 14.5 95t41.5 71t64.5 44t83.5 15q36 0 62 -8t42.5 -20t24 -27t7.5 -29q0 -21 -10 -27.5t-28 -6.5q-20 0 -29.5 7.5t-9.5 25.5q0 9 0.5 14t0.5 12q0 19 -14 31.5t-47 12.5q-26 0 -49 -12t-40 -36
t-27.5 -60.5t-10.5 -85.5q0 -97 38.5 -152.5t106.5 -55.5q25 0 44 8t33 20t23.5 26t15.5 26zM317 644q5 5 11 8.5t16 3.5q11 0 20 -7t9 -21q0 -11 -6 -18t-15 -12l-174 -96l-6 9z" />
    <glyph glyph-name="Ccircumflex" unicode="&#x108;" horiz-adv-x="629" 
d="M60 320q0 79 21.5 143.5t61 110t96.5 70t128 24.5q39 0 69 -4.5t52.5 -9.5t36 -10t19.5 -5q2 0 3.5 0.5t3.5 0.5l2 -1l8 -167h-11q-7 38 -21 70t-36.5 55.5t-53.5 36.5t-73 13q-52 0 -93 -24t-69.5 -66.5t-43.5 -101t-15 -127.5t15 -127t44.5 -100t72 -66t96.5 -24
q44 0 74 13t50 35.5t32 53.5t20 67h11l-8 -151l-2 -2q-35 -15 -78 -26t-106 -11q-71 0 -127.5 21.5t-96 63.5t-61 103.5t-21.5 141.5zM259 731l-8 6l105 161h16l105 -160l-8 -7l-105 105z" />
    <glyph glyph-name="ccircumflex" unicode="&#x109;" horiz-adv-x="427" 
d="M399 94q-17 -44 -56 -74.5t-102 -30.5q-87 0 -139 58t-52 164q0 53 14.5 95t41.5 71t64.5 44t83.5 15q36 0 62 -8t42.5 -20t24 -27t7.5 -29q0 -21 -10 -27.5t-28 -6.5q-20 0 -29.5 7.5t-9.5 25.5q0 9 0.5 14t0.5 12q0 19 -14 31.5t-47 12.5q-26 0 -49 -12t-40 -36
t-27.5 -60.5t-10.5 -85.5q0 -97 38.5 -152.5t106.5 -55.5q25 0 44 8t33 20t23.5 26t15.5 26zM148 499l-8 6l105 161h16l105 -160l-8 -7l-105 105z" />
    <glyph glyph-name="Cdotaccent" unicode="&#x10a;" horiz-adv-x="629" 
d="M60 320q0 79 21.5 143.5t61 110t96.5 70t128 24.5q39 0 69 -4.5t52.5 -9.5t36 -10t19.5 -5q2 0 3.5 0.5t3.5 0.5l2 -1l8 -167h-11q-7 38 -21 70t-36.5 55.5t-53.5 36.5t-73 13q-52 0 -93 -24t-69.5 -66.5t-43.5 -101t-15 -127.5t15 -127t44.5 -100t72 -66t96.5 -24
q44 0 74 13t50 35.5t32 53.5t20 67h11l-8 -151l-2 -2q-35 -15 -78 -26t-106 -11q-71 0 -127.5 21.5t-96 63.5t-61 103.5t-21.5 141.5zM363 796q-20 0 -32.5 12t-12.5 32t13 32t34 12q19 0 31.5 -11.5t12.5 -31.5q0 -22 -13 -33.5t-33 -11.5z" />
    <glyph glyph-name="cdotaccent" unicode="&#x10b;" horiz-adv-x="427" 
d="M399 94q-17 -44 -56 -74.5t-102 -30.5q-87 0 -139 58t-52 164q0 53 14.5 95t41.5 71t64.5 44t83.5 15q36 0 62 -8t42.5 -20t24 -27t7.5 -29q0 -21 -10 -27.5t-28 -6.5q-20 0 -29.5 7.5t-9.5 25.5q0 9 0.5 14t0.5 12q0 19 -14 31.5t-47 12.5q-26 0 -49 -12t-40 -36
t-27.5 -60.5t-10.5 -85.5q0 -97 38.5 -152.5t106.5 -55.5q25 0 44 8t33 20t23.5 26t15.5 26zM255 584q-20 0 -32.5 12t-12.5 32t13 32t34 12q19 0 31.5 -11.5t12.5 -31.5q0 -22 -13 -33.5t-33 -11.5z" />
    <glyph glyph-name="Ccaron" unicode="&#x10c;" horiz-adv-x="629" 
d="M60 320q0 79 21.5 143.5t61 110t96.5 70t128 24.5q39 0 69 -4.5t52.5 -9.5t36 -10t19.5 -5q2 0 3.5 0.5t3.5 0.5l2 -1l8 -167h-11q-7 38 -21 70t-36.5 55.5t-53.5 36.5t-73 13q-52 0 -93 -24t-69.5 -66.5t-43.5 -101t-15 -127.5t15 -127t44.5 -100t72 -66t96.5 -24
q44 0 74 13t50 35.5t32 53.5t20 67h11l-8 -151l-2 -2q-35 -15 -78 -26t-106 -11q-71 0 -127.5 21.5t-96 63.5t-61 103.5t-21.5 141.5zM368 793l105 105l8 -7l-105 -160h-16l-105 161l8 6z" />
    <glyph glyph-name="ccaron" unicode="&#x10d;" horiz-adv-x="427" 
d="M399 94q-17 -44 -56 -74.5t-102 -30.5q-87 0 -139 58t-52 164q0 53 14.5 95t41.5 71t64.5 44t83.5 15q36 0 62 -8t42.5 -20t24 -27t7.5 -29q0 -21 -10 -27.5t-28 -6.5q-20 0 -29.5 7.5t-9.5 25.5q0 9 0.5 14t0.5 12q0 19 -14 31.5t-47 12.5q-26 0 -49 -12t-40 -36
t-27.5 -60.5t-10.5 -85.5q0 -97 38.5 -152.5t106.5 -55.5q25 0 44 8t33 20t23.5 26t15.5 26zM256 561l105 105l8 -7l-105 -160h-16l-105 161l8 6z" />
    <glyph glyph-name="Dcaron" unicode="&#x10e;" horiz-adv-x="699" 
d="M163 656h29.5t16.5 0.5t15.5 0.5h27.5q36 0 73.5 -1t74.5 -7.5t71.5 -19.5t63.5 -37q56 -46 80 -112t24 -139q0 -72 -24 -142.5t-79 -121.5q-29 -27 -62.5 -42.5t-71 -23.5t-78.5 -10t-85 -2h-26.5t-17.5 0.5t-18 1t-28 0.5q-30 0 -59 -0.5t-55 -0.5v9q20 2 35.5 5.5
t26 12.5t16 25t5.5 44v466q0 28 -5.5 44t-16 25t-26 12.5t-35.5 5.5v9q9 0 24.5 -0.5t33 -0.5t36 -0.5t34.5 -0.5zM552 330q0 31 -4.5 68t-15.5 72t-29 66t-45 52q-22 17 -46 26.5t-50 14.5t-54 6t-58 1q-14 0 -24 -0.5t-17 -0.5h-14v-554q0 -40 19 -52t64 -12q18 0 43 2
t53 10t56.5 23.5t52.5 42.5q31 35 50 91t19 144zM330 793l105 105l8 -7l-105 -160h-16l-105 161l8 6z" />
    <glyph glyph-name="dcaron" unicode="&#x10f;" horiz-adv-x="644" 
d="M364 76q-5 -13 -15.5 -28.5t-27 -28.5t-39.5 -21.5t-53 -8.5q-47 0 -80.5 17.5t-55 47.5t-31.5 70.5t-10 86.5q0 45 11.5 86t34 72t57 49t81.5 18q32 0 55 -8t38.5 -20t24 -25.5t13.5 -24.5v249q0 20 -5 32.5t-14.5 19.5t-23 10.5t-31.5 5.5v10q43 1 80 2t63 1
q-2 -60 -3 -120.5t-1 -114.5v-362q0 -28 4.5 -43.5t13.5 -23.5t23 -10.5t34 -4.5v-9h-140v76h-3zM371 220q0 92 -28 142t-88 50q-33 0 -57 -17t-39.5 -45t-23 -64t-7.5 -74q0 -37 8 -72t23.5 -62.5t39 -44t54.5 -16.5q62 0 90 54.5t28 148.5zM628 626q0 -26 -8.5 -49
t-23 -43t-33.5 -35.5t-41 -25.5l-9 10q15 10 28.5 23t24 28.5t17 32.5t5.5 35q-2 -1 -7.5 -3t-16.5 -2q-20 0 -34.5 12.5t-14.5 36.5q0 22 15 36t37 14q30 0 45.5 -20.5t15.5 -49.5z" />
    <glyph glyph-name="Dcroat" unicode="&#x110;" horiz-adv-x="699" 
d="M163 656h29.5t16.5 0.5t15.5 0.5h27.5q36 0 73.5 -1t74.5 -7.5t71.5 -19.5t63.5 -37q56 -46 80 -112t24 -139q0 -72 -24 -142.5t-79 -121.5q-29 -27 -62.5 -42.5t-71 -23.5t-78.5 -10t-85 -2h-26.5t-17.5 0.5t-18 1t-28 0.5q-30 0 -59 -0.5t-55 -0.5v9q20 2 35.5 5.5
t26 12.5t16 25t5.5 44v238h-93v18h93v210q0 28 -5.5 44t-16 25t-26 12.5t-35.5 5.5v9q9 0 24.5 -0.5t33 -0.5t36 -0.5t34.5 -0.5zM552 330q0 31 -4.5 68t-15.5 72t-29 66t-45 52q-22 17 -46 26.5t-50 14.5t-54 6t-58 1q-14 0 -24 -0.5t-17 -0.5h-14v-283h94v-18h-94v-253
q0 -40 19 -52t64 -12q18 0 43 2t53 10t56.5 23.5t52.5 42.5q31 35 50 91t19 144z" />
    <glyph glyph-name="dcroat" unicode="&#x111;" horiz-adv-x="541" 
d="M362 76q-5 -13 -15.5 -28.5t-27 -28.5t-39.5 -21.5t-53 -8.5q-47 0 -80.5 17.5t-55 47.5t-31.5 70.5t-10 86.5q0 45 11.5 86t34 72t57 49t81.5 18q32 0 55 -8t38.5 -20t24 -25.5t13.5 -24.5v170h-79v15h79v64q0 20 -5 32.5t-14.5 19.5t-23 10.5t-31.5 5.5v10q43 1 80 2
t63 1q-2 -36 -2.5 -73t-1.5 -72h80v-15h-80q-1 -20 -0.5 -38.5t0.5 -36.5v-362q0 -28 4.5 -43.5t13.5 -23.5t23 -10.5t34 -4.5v-9h-140v76h-3zM369 220q0 92 -28 142t-88 50q-33 0 -57 -17t-39.5 -45t-23 -64t-7.5 -74q0 -37 8 -72t23.5 -62.5t39 -44t54.5 -16.5
q62 0 90 54.5t28 148.5z" />
    <glyph glyph-name="Emacron" unicode="&#x112;" horiz-adv-x="585" 
d="M398 345v-10q0 -36 1 -64.5t2 -46.5h-12q-7 49 -19 71t-40 30q-10 2 -29.5 3.5t-41 2.5t-40.5 1.5t-27 0.5v-242q0 -21 2.5 -35t12 -22.5t28 -11.5t49.5 -3h53q53 0 85.5 8.5t52.5 26.5t32.5 46.5t24.5 69.5h9q0 -2 -0.5 -15t-1.5 -32t-2.5 -41t-2.5 -40.5t-2.5 -31
l-1.5 -12.5q-19 2 -48 2h-67h-126t-72 0.5t-38 0.5h-25q-30 0 -61.5 -0.5t-57.5 -0.5v9q20 2 35.5 5.5t26 12.5t16 25t5.5 44v467q0 28 -5.5 44t-16 25t-26 12.5t-35.5 5.5v8q9 0 24 -0.5t32.5 -0.5t36 -0.5t34.5 -0.5h236q41 0 68.5 1.5t47.5 3.5l1 -1l8 -162h-11
q-6 24 -12 43.5t-16 35.5t-24.5 27.5t-37.5 19.5q-20 6 -51.5 9.5t-74.5 3.5h-103q-1 -25 -1 -53v-54v-182q8 0 27 0.5t40.5 1.5t41 2.5t29.5 3.5q14 4 24 11t16.5 18.5t11 29t7.5 42.5h12q-1 -18 -2 -46.5t-1 -64.5v-1zM180 798v32h252v-32h-252z" />
    <glyph glyph-name="emacron" unicode="&#x113;" horiz-adv-x="447" 
d="M401 93q-10 -20 -23 -38.5t-32 -33t-44.5 -23.5t-60.5 -9q-87 0 -139 56.5t-52 162.5q0 53 13.5 95.5t38.5 72t60.5 45.5t79.5 16q43 0 73.5 -12.5t49.5 -35.5t28 -54.5t9 -69.5v-12l-278 4q-1 -5 -1 -9v-17q0 -47 9.5 -86t27.5 -67t45 -43.5t63 -15.5q24 0 43.5 7
t34.5 18.5t25.5 25.5t18.5 28zM328 276v14q0 25 -5 48.5t-16 42t-27.5 29.5t-40.5 11q-26 0 -45.5 -11.5t-33.5 -31.5t-22.5 -47t-11.5 -58zM118 566v32h252v-32h-252z" />
    <glyph glyph-name="Ebreve" unicode="&#x114;" horiz-adv-x="585" 
d="M398 345v-10q0 -36 1 -64.5t2 -46.5h-12q-7 49 -19 71t-40 30q-10 2 -29.5 3.5t-41 2.5t-40.5 1.5t-27 0.5v-242q0 -21 2.5 -35t12 -22.5t28 -11.5t49.5 -3h53q53 0 85.5 8.5t52.5 26.5t32.5 46.5t24.5 69.5h9q0 -2 -0.5 -15t-1.5 -32t-2.5 -41t-2.5 -40.5t-2.5 -31
l-1.5 -12.5q-19 2 -48 2h-67h-126t-72 0.5t-38 0.5h-25q-30 0 -61.5 -0.5t-57.5 -0.5v9q20 2 35.5 5.5t26 12.5t16 25t5.5 44v467q0 28 -5.5 44t-16 25t-26 12.5t-35.5 5.5v8q9 0 24 -0.5t32.5 -0.5t36 -0.5t34.5 -0.5h236q41 0 68.5 1.5t47.5 3.5l1 -1l8 -162h-11
q-6 24 -12 43.5t-16 35.5t-24.5 27.5t-37.5 19.5q-20 6 -51.5 9.5t-74.5 3.5h-103q-1 -25 -1 -53v-54v-182q8 0 27 0.5t40.5 1.5t41 2.5t29.5 3.5q14 4 24 11t16.5 18.5t11 29t7.5 42.5h12q-1 -18 -2 -46.5t-1 -64.5v-1zM316 788q49 0 75.5 25.5t38.5 56.5l10 -4
q-2 -11 -8.5 -29.5t-20 -36.5t-36.5 -31t-59 -13t-59 13t-36.5 31t-20 36.5t-8.5 29.5l10 4q6 -15 15.5 -30t23 -26.5t32 -18.5t43.5 -7z" />
    <glyph glyph-name="ebreve" unicode="&#x115;" horiz-adv-x="447" 
d="M401 93q-10 -20 -23 -38.5t-32 -33t-44.5 -23.5t-60.5 -9q-87 0 -139 56.5t-52 162.5q0 53 13.5 95.5t38.5 72t60.5 45.5t79.5 16q43 0 73.5 -12.5t49.5 -35.5t28 -54.5t9 -69.5v-12l-278 4q-1 -5 -1 -9v-17q0 -47 9.5 -86t27.5 -67t45 -43.5t63 -15.5q24 0 43.5 7
t34.5 18.5t25.5 25.5t18.5 28zM328 276v14q0 25 -5 48.5t-16 42t-27.5 29.5t-40.5 11q-26 0 -45.5 -11.5t-33.5 -31.5t-22.5 -47t-11.5 -58zM241 556q49 0 75.5 25.5t38.5 56.5l10 -4q-2 -11 -8.5 -29.5t-20 -36.5t-36.5 -31t-59 -13t-59 13t-36.5 31t-20 36.5t-8.5 29.5
l10 4q6 -15 15.5 -30t23 -26.5t32 -18.5t43.5 -7z" />
    <glyph glyph-name="Edotaccent" unicode="&#x116;" horiz-adv-x="585" 
d="M398 345v-10q0 -36 1 -64.5t2 -46.5h-12q-7 49 -19 71t-40 30q-10 2 -29.5 3.5t-41 2.5t-40.5 1.5t-27 0.5v-242q0 -21 2.5 -35t12 -22.5t28 -11.5t49.5 -3h53q53 0 85.5 8.5t52.5 26.5t32.5 46.5t24.5 69.5h9q0 -2 -0.5 -15t-1.5 -32t-2.5 -41t-2.5 -40.5t-2.5 -31
l-1.5 -12.5q-19 2 -48 2h-67h-126t-72 0.5t-38 0.5h-25q-30 0 -61.5 -0.5t-57.5 -0.5v9q20 2 35.5 5.5t26 12.5t16 25t5.5 44v467q0 28 -5.5 44t-16 25t-26 12.5t-35.5 5.5v8q9 0 24 -0.5t32.5 -0.5t36 -0.5t34.5 -0.5h236q41 0 68.5 1.5t47.5 3.5l1 -1l8 -162h-11
q-6 24 -12 43.5t-16 35.5t-24.5 27.5t-37.5 19.5q-20 6 -51.5 9.5t-74.5 3.5h-103q-1 -25 -1 -53v-54v-182q8 0 27 0.5t40.5 1.5t41 2.5t29.5 3.5q14 4 24 11t16.5 18.5t11 29t7.5 42.5h12q-1 -18 -2 -46.5t-1 -64.5v-1zM307 796q-20 0 -32.5 12t-12.5 32t13 32t34 12
q19 0 31.5 -11.5t12.5 -31.5q0 -22 -13 -33.5t-33 -11.5z" />
    <glyph glyph-name="edotaccent" unicode="&#x117;" horiz-adv-x="447" 
d="M401 93q-10 -20 -23 -38.5t-32 -33t-44.5 -23.5t-60.5 -9q-87 0 -139 56.5t-52 162.5q0 53 13.5 95.5t38.5 72t60.5 45.5t79.5 16q43 0 73.5 -12.5t49.5 -35.5t28 -54.5t9 -69.5v-12l-278 4q-1 -5 -1 -9v-17q0 -47 9.5 -86t27.5 -67t45 -43.5t63 -15.5q24 0 43.5 7
t34.5 18.5t25.5 25.5t18.5 28zM328 276v14q0 25 -5 48.5t-16 42t-27.5 29.5t-40.5 11q-26 0 -45.5 -11.5t-33.5 -31.5t-22.5 -47t-11.5 -58zM243 584q-20 0 -32.5 12t-12.5 32t13 32t34 12q19 0 31.5 -11.5t12.5 -31.5q0 -22 -13 -33.5t-33 -11.5z" />
    <glyph glyph-name="Eogonek" unicode="&#x118;" horiz-adv-x="585" 
d="M492 -206q-10 -4 -23.5 -7t-28.5 -3q-16 0 -32 3.5t-29 12t-21 24t-8 39.5q0 21 10 41.5t25 38.5t31 33t28 24h-29h-126t-72 0.5t-38 0.5h-25q-30 0 -61.5 -0.5t-57.5 -0.5v9q20 2 35.5 5.5t26 12.5t16 25t5.5 44v467q0 28 -5.5 44t-16 25t-26 12.5t-35.5 5.5v8
q9 0 24 -0.5t32.5 -0.5t36 -0.5t34.5 -0.5h236q41 0 68.5 1.5t47.5 3.5l1 -1l8 -162h-11q-6 24 -12 43.5t-16 35.5t-24.5 27.5t-37.5 19.5q-20 6 -51.5 9.5t-74.5 3.5h-103q-1 -25 -1 -53v-54v-182q8 0 27 0.5t40.5 1.5t41 2.5t29.5 3.5q14 4 24 11t16.5 18.5t11 29
t7.5 42.5h12q-1 -18 -2 -46.5t-1 -64.5v-11q0 -36 1 -64.5t2 -46.5h-12q-7 49 -19 71t-40 30q-10 2 -29.5 3.5t-41 2.5t-40.5 1.5t-27 0.5v-242q0 -21 2.5 -35t12 -22.5t28 -11.5t49.5 -3h53q53 0 85.5 8.5t52.5 26.5t32.5 46.5t24.5 69.5h9q0 -2 -0.5 -15t-1.5 -32
t-2.5 -41t-2.5 -40.5t-2.5 -31l-1.5 -12.5q-13 2 -31.5 2h-40.5q-10 -12 -22 -28t-22 -34.5t-16.5 -37.5t-6.5 -36q0 -32 17.5 -49t48.5 -17q19 0 32 4z" />
    <glyph glyph-name="eogonek" unicode="&#x119;" horiz-adv-x="447" 
d="M317 -206q-10 -4 -23.5 -7t-28.5 -3q-16 0 -32 3.5t-29 12t-21 24t-8 39.5q0 18 8 36t20 34.5t26 31t27 25.5q-5 -1 -15 -1q-87 0 -139 56.5t-52 162.5q0 53 13.5 95.5t38.5 72t60.5 45.5t79.5 16q43 0 73.5 -12.5t49.5 -35.5t28 -54.5t9 -69.5v-12l-278 4q-1 -5 -1 -9
v-17q0 -47 9.5 -86t27.5 -67t45 -43.5t63 -15.5q24 0 43.5 7t34.5 18.5t25.5 25.5t18.5 28l11 -5q-9 -17 -19.5 -33.5t-25.5 -30t-34.5 -23.5t-44.5 -14q-10 -12 -21 -27.5t-20 -32.5t-14.5 -34.5t-5.5 -33.5q0 -32 17.5 -49t48.5 -17q19 0 32 4zM328 276v14q0 25 -5 48.5
t-16 42t-27.5 29.5t-40.5 11q-26 0 -45.5 -11.5t-33.5 -31.5t-22.5 -47t-11.5 -58z" />
    <glyph glyph-name="Ecaron" unicode="&#x11a;" horiz-adv-x="585" 
d="M398 345v-10q0 -36 1 -64.5t2 -46.5h-12q-7 49 -19 71t-40 30q-10 2 -29.5 3.5t-41 2.5t-40.5 1.5t-27 0.5v-242q0 -21 2.5 -35t12 -22.5t28 -11.5t49.5 -3h53q53 0 85.5 8.5t52.5 26.5t32.5 46.5t24.5 69.5h9q0 -2 -0.5 -15t-1.5 -32t-2.5 -41t-2.5 -40.5t-2.5 -31
l-1.5 -12.5q-19 2 -48 2h-67h-126t-72 0.5t-38 0.5h-25q-30 0 -61.5 -0.5t-57.5 -0.5v9q20 2 35.5 5.5t26 12.5t16 25t5.5 44v467q0 28 -5.5 44t-16 25t-26 12.5t-35.5 5.5v8q9 0 24 -0.5t32.5 -0.5t36 -0.5t34.5 -0.5h236q41 0 68.5 1.5t47.5 3.5l1 -1l8 -162h-11
q-6 24 -12 43.5t-16 35.5t-24.5 27.5t-37.5 19.5q-20 6 -51.5 9.5t-74.5 3.5h-103q-1 -25 -1 -53v-54v-182q8 0 27 0.5t40.5 1.5t41 2.5t29.5 3.5q14 4 24 11t16.5 18.5t11 29t7.5 42.5h12q-1 -18 -2 -46.5t-1 -64.5v-1zM304 793l105 105l8 -7l-105 -160h-16l-105 161l8 6z
" />
    <glyph glyph-name="ecaron" unicode="&#x11b;" horiz-adv-x="447" 
d="M401 93q-10 -20 -23 -38.5t-32 -33t-44.5 -23.5t-60.5 -9q-87 0 -139 56.5t-52 162.5q0 53 13.5 95.5t38.5 72t60.5 45.5t79.5 16q43 0 73.5 -12.5t49.5 -35.5t28 -54.5t9 -69.5v-12l-278 4q-1 -5 -1 -9v-17q0 -47 9.5 -86t27.5 -67t45 -43.5t63 -15.5q24 0 43.5 7
t34.5 18.5t25.5 25.5t18.5 28zM328 276v14q0 25 -5 48.5t-16 42t-27.5 29.5t-40.5 11q-26 0 -45.5 -11.5t-33.5 -31.5t-22.5 -47t-11.5 -58zM241 561l105 105l8 -7l-105 -160h-16l-105 161l8 6z" />
    <glyph glyph-name="Gcircumflex" unicode="&#x11c;" horiz-adv-x="686" 
d="M595 44q-16 -8 -37 -17.5t-47.5 -17.5t-59 -13.5t-71.5 -5.5q-153 0 -236.5 85t-83.5 249q0 78 22 141.5t63 108.5t100.5 69.5t134.5 24.5q37 0 68.5 -4t55.5 -9.5t39.5 -10t21.5 -4.5q2 0 3.5 0.5t3.5 0.5l2 -1l8 -170h-11q-7 39 -21.5 71.5t-38 55.5t-57.5 35.5
t-79 12.5q-54 0 -96.5 -23.5t-71.5 -66t-44.5 -100.5t-15.5 -127q0 -66 13.5 -122t39.5 -97q29 -45 74.5 -70t111.5 -25q32 0 61 6t46 15q16 9 23 24t7 51v72q0 28 -5.5 44t-16.5 25t-26.5 12.5t-36.5 5.5v9q19 0 50 -1t63 -1q36 0 68 1t51 1v-9q-18 -2 -32 -5.5
t-23.5 -12.5t-14.5 -25t-5 -44v-43v-45.5t2 -47.5zM274 731l-8 6l105 161h16l105 -160l-8 -7l-105 105z" />
    <glyph glyph-name="gcircumflex" unicode="&#x11d;" horiz-adv-x="470" 
d="M216 437q41 0 72 -13.5t45 -27.5q12 16 29.5 29.5t42.5 13.5q21 0 35.5 -9.5t14.5 -31.5q0 -18 -10 -25t-24 -7q-11 0 -19.5 6t-8.5 17v4q-1 6 -3 11.5t-10 5.5q-11 0 -22.5 -8t-16.5 -13q4 -4 10.5 -13.5t12.5 -22.5t10 -29.5t4 -35.5q0 -74 -45 -111t-120 -37
q-21 0 -34 3q-8 1 -15 3q-11 -10 -17.5 -23.5t-6.5 -27.5q0 -6 1 -11.5t5.5 -10.5t13.5 -8.5t25 -4.5l37 -4q22 -2 44.5 -4.5t44 -7t41.5 -11.5t36 -18q19 -14 31.5 -34.5t12.5 -50.5q0 -45 -19.5 -76.5t-52 -51.5t-73 -29t-82.5 -9q-36 0 -70 7.5t-60.5 22.5t-42.5 39
t-16 57q0 28 11 49t28 35t37.5 23t39.5 13v1q-17 5 -29 17t-12 38q0 18 6 31.5t15.5 23.5t21 17t21.5 11q-20 6 -39 16t-33.5 26.5t-23.5 40.5t-9 58q0 36 12.5 63t35 46t52.5 28.5t66 9.5zM374 -100q0 31 -15 50t-39 29.5t-53 15t-57 6.5l-67 5q-32 -17 -49.5 -44
t-17.5 -62q0 -57 37 -87t102 -30q28 0 56.5 5.5t51.5 18.5t37 35.5t14 57.5zM309 291q0 24 -4.5 47.5t-15 42t-28.5 30.5t-45 12q-28 0 -46.5 -12t-30 -31.5t-16 -43t-4.5 -47.5q0 -23 4.5 -46.5t15 -43t29 -32t45.5 -12.5q29 0 48 12.5t29.5 32t14.5 43.5t4 48zM118 499
l-8 6l105 161h16l105 -160l-8 -7l-105 105z" />
    <glyph glyph-name="Gbreve" unicode="&#x11e;" horiz-adv-x="686" 
d="M595 44q-16 -8 -37 -17.5t-47.5 -17.5t-59 -13.5t-71.5 -5.5q-153 0 -236.5 85t-83.5 249q0 78 22 141.5t63 108.5t100.5 69.5t134.5 24.5q37 0 68.5 -4t55.5 -9.5t39.5 -10t21.5 -4.5q2 0 3.5 0.5t3.5 0.5l2 -1l8 -170h-11q-7 39 -21.5 71.5t-38 55.5t-57.5 35.5
t-79 12.5q-54 0 -96.5 -23.5t-71.5 -66t-44.5 -100.5t-15.5 -127q0 -66 13.5 -122t39.5 -97q29 -45 74.5 -70t111.5 -25q32 0 61 6t46 15q16 9 23 24t7 51v72q0 28 -5.5 44t-16.5 25t-26.5 12.5t-36.5 5.5v9q19 0 50 -1t63 -1q36 0 68 1t51 1v-9q-18 -2 -32 -5.5
t-23.5 -12.5t-14.5 -25t-5 -44v-43v-45.5t2 -47.5zM373 788q49 0 75.5 25.5t38.5 56.5l10 -4q-2 -11 -8.5 -29.5t-20 -36.5t-36.5 -31t-59 -13t-59 13t-36.5 31t-20 36.5t-8.5 29.5l10 4q6 -15 15.5 -30t23 -26.5t32 -18.5t43.5 -7z" />
    <glyph glyph-name="gbreve" unicode="&#x11f;" horiz-adv-x="470" 
d="M216 437q41 0 72 -13.5t45 -27.5q12 16 29.5 29.5t42.5 13.5q21 0 35.5 -9.5t14.5 -31.5q0 -18 -10 -25t-24 -7q-11 0 -19.5 6t-8.5 17v4q-1 6 -3 11.5t-10 5.5q-11 0 -22.5 -8t-16.5 -13q4 -4 10.5 -13.5t12.5 -22.5t10 -29.5t4 -35.5q0 -74 -45 -111t-120 -37
q-21 0 -34 3q-8 1 -15 3q-11 -10 -17.5 -23.5t-6.5 -27.5q0 -6 1 -11.5t5.5 -10.5t13.5 -8.5t25 -4.5l37 -4q22 -2 44.5 -4.5t44 -7t41.5 -11.5t36 -18q19 -14 31.5 -34.5t12.5 -50.5q0 -45 -19.5 -76.5t-52 -51.5t-73 -29t-82.5 -9q-36 0 -70 7.5t-60.5 22.5t-42.5 39
t-16 57q0 28 11 49t28 35t37.5 23t39.5 13v1q-17 5 -29 17t-12 38q0 18 6 31.5t15.5 23.5t21 17t21.5 11q-20 6 -39 16t-33.5 26.5t-23.5 40.5t-9 58q0 36 12.5 63t35 46t52.5 28.5t66 9.5zM374 -100q0 31 -15 50t-39 29.5t-53 15t-57 6.5l-67 5q-32 -17 -49.5 -44
t-17.5 -62q0 -57 37 -87t102 -30q28 0 56.5 5.5t51.5 18.5t37 35.5t14 57.5zM309 291q0 24 -4.5 47.5t-15 42t-28.5 30.5t-45 12q-28 0 -46.5 -12t-30 -31.5t-16 -43t-4.5 -47.5q0 -23 4.5 -46.5t15 -43t29 -32t45.5 -12.5q29 0 48 12.5t29.5 32t14.5 43.5t4 48zM219 556
q49 0 75.5 25.5t38.5 56.5l10 -4q-2 -11 -8.5 -29.5t-20 -36.5t-36.5 -31t-59 -13t-59 13t-36.5 31t-20 36.5t-8.5 29.5l10 4q6 -15 15.5 -30t23 -26.5t32 -18.5t43.5 -7z" />
    <glyph glyph-name="Gdotaccent" unicode="&#x120;" horiz-adv-x="686" 
d="M595 44q-16 -8 -37 -17.5t-47.5 -17.5t-59 -13.5t-71.5 -5.5q-153 0 -236.5 85t-83.5 249q0 78 22 141.5t63 108.5t100.5 69.5t134.5 24.5q37 0 68.5 -4t55.5 -9.5t39.5 -10t21.5 -4.5q2 0 3.5 0.5t3.5 0.5l2 -1l8 -170h-11q-7 39 -21.5 71.5t-38 55.5t-57.5 35.5
t-79 12.5q-54 0 -96.5 -23.5t-71.5 -66t-44.5 -100.5t-15.5 -127q0 -66 13.5 -122t39.5 -97q29 -45 74.5 -70t111.5 -25q32 0 61 6t46 15q16 9 23 24t7 51v72q0 28 -5.5 44t-16.5 25t-26.5 12.5t-36.5 5.5v9q19 0 50 -1t63 -1q36 0 68 1t51 1v-9q-18 -2 -32 -5.5
t-23.5 -12.5t-14.5 -25t-5 -44v-43v-45.5t2 -47.5zM383 816q-20 0 -32.5 12t-12.5 32t13 32t34 12q19 0 31.5 -11.5t12.5 -31.5q0 -22 -13 -33.5t-33 -11.5z" />
    <glyph glyph-name="gdotaccent" unicode="&#x121;" horiz-adv-x="470" 
d="M216 437q41 0 72 -13.5t45 -27.5q12 16 29.5 29.5t42.5 13.5q21 0 35.5 -9.5t14.5 -31.5q0 -18 -10 -25t-24 -7q-11 0 -19.5 6t-8.5 17v4q-1 6 -3 11.5t-10 5.5q-11 0 -22.5 -8t-16.5 -13q4 -4 10.5 -13.5t12.5 -22.5t10 -29.5t4 -35.5q0 -74 -45 -111t-120 -37
q-21 0 -34 3q-8 1 -15 3q-11 -10 -17.5 -23.5t-6.5 -27.5q0 -6 1 -11.5t5.5 -10.5t13.5 -8.5t25 -4.5l37 -4q22 -2 44.5 -4.5t44 -7t41.5 -11.5t36 -18q19 -14 31.5 -34.5t12.5 -50.5q0 -45 -19.5 -76.5t-52 -51.5t-73 -29t-82.5 -9q-36 0 -70 7.5t-60.5 22.5t-42.5 39
t-16 57q0 28 11 49t28 35t37.5 23t39.5 13v1q-17 5 -29 17t-12 38q0 18 6 31.5t15.5 23.5t21 17t21.5 11q-20 6 -39 16t-33.5 26.5t-23.5 40.5t-9 58q0 36 12.5 63t35 46t52.5 28.5t66 9.5zM374 -100q0 31 -15 50t-39 29.5t-53 15t-57 6.5l-67 5q-32 -17 -49.5 -44
t-17.5 -62q0 -57 37 -87t102 -30q28 0 56.5 5.5t51.5 18.5t37 35.5t14 57.5zM309 291q0 24 -4.5 47.5t-15 42t-28.5 30.5t-45 12q-28 0 -46.5 -12t-30 -31.5t-16 -43t-4.5 -47.5q0 -23 4.5 -46.5t15 -43t29 -32t45.5 -12.5q29 0 48 12.5t29.5 32t14.5 43.5t4 48zM222 584
q-20 0 -32.5 12t-12.5 32t13 32t34 12q19 0 31.5 -11.5t12.5 -31.5q0 -22 -13 -33.5t-33 -11.5z" />
    <glyph glyph-name="Gcommaaccent" unicode="&#x122;" horiz-adv-x="686" 
d="M595 44q-16 -8 -37 -17.5t-47.5 -17.5t-59 -13.5t-71.5 -5.5q-153 0 -236.5 85t-83.5 249q0 78 22 141.5t63 108.5t100.5 69.5t134.5 24.5q37 0 68.5 -4t55.5 -9.5t39.5 -10t21.5 -4.5q2 0 3.5 0.5t3.5 0.5l2 -1l8 -170h-11q-7 39 -21.5 71.5t-38 55.5t-57.5 35.5
t-79 12.5q-54 0 -96.5 -23.5t-71.5 -66t-44.5 -100.5t-15.5 -127q0 -66 13.5 -122t39.5 -97q29 -45 74.5 -70t111.5 -25q32 0 61 6t46 15q16 9 23 24t7 51v72q0 28 -5.5 44t-16.5 25t-26.5 12.5t-36.5 5.5v9q19 0 50 -1t63 -1q36 0 68 1t51 1v-9q-18 -2 -32 -5.5
t-23.5 -12.5t-14.5 -25t-5 -44v-43v-45.5t2 -47.5zM343 -199q24 8 42 27.5t18 49.5h-1q-2 -1 -7.5 -3.5t-17.5 -2.5q-18 0 -30.5 11t-12.5 32q0 20 12.5 32t31.5 12q27 0 40 -18.5t13 -43.5q0 -41 -23.5 -68t-60.5 -38z" />
    <glyph glyph-name="gcommaaccent" unicode="&#x123;" horiz-adv-x="470" 
d="M216 437q41 0 72 -13.5t45 -27.5q12 16 29.5 29.5t42.5 13.5q21 0 35.5 -9.5t14.5 -31.5q0 -18 -10 -25t-24 -7q-11 0 -19.5 6t-8.5 17v4q-1 6 -3 11.5t-10 5.5q-11 0 -22.5 -8t-16.5 -13q4 -4 10.5 -13.5t12.5 -22.5t10 -29.5t4 -35.5q0 -74 -45 -111t-120 -37
q-21 0 -34 3q-8 1 -15 3q-11 -10 -17.5 -23.5t-6.5 -27.5q0 -6 1 -11.5t5.5 -10.5t13.5 -8.5t25 -4.5l37 -4q22 -2 44.5 -4.5t44 -7t41.5 -11.5t36 -18q19 -14 31.5 -34.5t12.5 -50.5q0 -45 -19.5 -76.5t-52 -51.5t-73 -29t-82.5 -9q-36 0 -70 7.5t-60.5 22.5t-42.5 39
t-16 57q0 28 11 49t28 35t37.5 23t39.5 13v1q-17 5 -29 17t-12 38q0 18 6 31.5t15.5 23.5t21 17t21.5 11q-20 6 -39 16t-33.5 26.5t-23.5 40.5t-9 58q0 36 12.5 63t35 46t52.5 28.5t66 9.5zM374 -100q0 31 -15 50t-39 29.5t-53 15t-57 6.5l-67 5q-32 -17 -49.5 -44
t-17.5 -62q0 -57 37 -87t102 -30q28 0 56.5 5.5t51.5 18.5t37 35.5t14 57.5zM309 291q0 24 -4.5 47.5t-15 42t-28.5 30.5t-45 12q-28 0 -46.5 -12t-30 -31.5t-16 -43t-4.5 -47.5q0 -23 4.5 -46.5t15 -43t29 -32t45.5 -12.5q29 0 48 12.5t29.5 32t14.5 43.5t4 48zM168 568
q0 25 8.5 48.5t23 43.5t33.5 35.5t41 25.5l9 -10q-15 -10 -28.5 -23t-24 -28.5t-17 -32.5t-5.5 -35q2 1 7.5 3t16.5 2q20 0 34.5 -12.5t14.5 -36.5q0 -22 -15 -36t-37 -14q-30 0 -45.5 20.5t-15.5 49.5z" />
    <glyph glyph-name="Hcircumflex" unicode="&#x124;" horiz-adv-x="718" 
d="M566 656q36 0 67 1t50 1v-9q-20 -2 -35.5 -5t-26 -11.5t-16 -24.5t-5.5 -44v-471q0 -28 5.5 -44t16 -24.5t26 -11.5t35.5 -5v-8h-24.5t-24.5 0.5t-29.5 0.5h-39.5q-30 0 -65.5 -0.5t-61.5 -0.5v8q20 2 35.5 5t26 11.5t16 24.5t5.5 44v234h-325v-234q0 -28 5.5 -44
t16 -24.5t26 -11.5t35.5 -5v-8h-24t-24 0.5t-29.5 0.5h-39.5q-30 0 -65.5 -0.5t-61.5 -0.5v8q20 2 35.5 5t26 11.5t16 24.5t5.5 44v471q0 28 -5.5 44t-16 24.5t-26 11.5t-35.5 5v9q9 0 24.5 -0.5t33 -0.5t36 -0.5t34.5 -0.5q36 0 66.5 1t49.5 1v-9q-20 -2 -35.5 -5
t-26 -11.5t-16 -24.5t-5.5 -44v-212h325v212q0 28 -5.5 44t-16 24.5t-26 11.5t-35.5 5v9q9 0 24.5 -0.5t33 -0.5t36 -0.5t34.5 -0.5zM254 731l-8 6l105 161h16l105 -160l-8 -7l-105 105z" />
    <glyph glyph-name="hcircumflex" unicode="&#x125;" horiz-adv-x="551" 
d="M172 448q-1 -30 -1 -63.5v-53.5q16 43 56 74.5t101 31.5q69 0 98.5 -39t29.5 -113v-196q0 -28 4.5 -43.5t13.5 -23t23 -10t34 -4.5v-8q-21 0 -50.5 0.5t-54.5 0.5q-32 0 -58 -0.5t-53 -0.5v8q20 2 34 4.5t23 10t13.5 23t4.5 43.5v197q0 57 -22.5 89t-72.5 32
q-27 0 -48.5 -12.5t-37.5 -32.5t-25.5 -47t-11.5 -55v-171q0 -28 4.5 -43.5t13.5 -23t23 -10t34 -4.5v-8q-21 0 -51 0.5t-55 0.5q-32 0 -57.5 -0.5t-52.5 -0.5v8q20 2 34 4.5t23 10t13.5 23t4.5 43.5v520q0 20 -5 32t-14.5 19t-23 10t-31.5 5v10q43 1 80.5 2t63.5 1
q-2 -60 -3 -123t-1 -117zM35 731l-8 6l105 161h16l105 -160l-8 -7l-105 105z" />
    <glyph glyph-name="Hbar" unicode="&#x126;" horiz-adv-x="718" 
d="M566 656q36 0 67 1t50 1v-9q-20 -2 -35.5 -5t-26 -11.5t-16 -24.5t-5.5 -44v-471q0 -28 5.5 -44t16 -24.5t26 -11.5t35.5 -5v-8h-24.5t-24.5 0.5t-29.5 0.5h-39.5q-30 0 -65.5 -0.5t-61.5 -0.5v8q20 2 35.5 5t26 11.5t16 24.5t5.5 44v234h-325v-234q0 -28 5.5 -44
t16 -24.5t26 -11.5t35.5 -5v-8h-24t-24 0.5t-29.5 0.5h-39.5q-30 0 -65.5 -0.5t-61.5 -0.5v8q20 2 35.5 5t26 11.5t16 24.5t5.5 44v471q0 28 -5.5 44t-16 24.5t-26 11.5t-35.5 5v9q9 0 24.5 -0.5t33 -0.5t36 -0.5t34.5 -0.5q36 0 66.5 1t49.5 1v-9q-20 -2 -35.5 -5
t-26 -11.5t-16 -24.5t-5.5 -44v-61h325v61q0 28 -5.5 44t-16 24.5t-26 11.5t-35.5 5v9q9 0 24.5 -0.5t33 -0.5t36 -0.5t34.5 -0.5zM521 352v126h-325v-126h325z" />
    <glyph glyph-name="hbar" unicode="&#x127;" horiz-adv-x="551" 
d="M106 543v66q0 20 -5 32t-14.5 19t-23 10t-31.5 5v10q43 1 80.5 2t63.5 1q-2 -35 -2.5 -72t-1.5 -73h75v-15h-75q-1 -21 -0.5 -41t0.5 -39q-1 -30 -1 -63.5v-53.5q16 43 56 74.5t101 31.5q69 0 98.5 -39t29.5 -113v-196q0 -28 4.5 -43.5t13.5 -23t23 -10t34 -4.5v-8
q-21 0 -50.5 0.5t-54.5 0.5q-32 0 -58 -0.5t-53 -0.5v8q20 2 34 4.5t23 10t13.5 23t4.5 43.5v197q0 57 -22.5 89t-72.5 32q-27 0 -48.5 -12.5t-37.5 -32.5t-25.5 -47t-11.5 -55v-171q0 -28 4.5 -43.5t13.5 -23t23 -10t34 -4.5v-8q-21 0 -51 0.5t-55 0.5q-32 0 -57.5 -0.5
t-52.5 -0.5v8q20 2 34 4.5t23 10t13.5 23t4.5 43.5v439h-75v15h75z" />
    <glyph glyph-name="Itilde" unicode="&#x128;" horiz-adv-x="314" 
d="M156 656q36 0 70 1t53 1v-9q-20 -2 -35.5 -5.5t-26 -12.5t-16 -25t-5.5 -44v-466q0 -28 5.5 -44t16 -25t26 -12.5t35.5 -5.5v-9h-25.5t-26.5 0.5t-31.5 0.5h-40.5q-30 0 -62 -0.5t-58 -0.5v9q20 2 35.5 5.5t26 12.5t16 25t5.5 44v466q0 28 -5.5 44t-16 25t-26 12.5
t-35.5 5.5v9q9 0 23 -0.5t30.5 -0.5t34 -0.5t33.5 -0.5zM105 847q10 0 20.5 -2t30.5 -10l32 -14q14 -6 26 -11t24 -5q17 0 30 11t24 31l7 -2q-12 -39 -32 -56t-49 -17q-14 0 -26 4t-32 12l-24 10q-14 6 -26.5 10.5t-23.5 4.5q-14 0 -28 -9t-25 -29l-7 3q11 36 31.5 52.5
t47.5 16.5z" />
    <glyph glyph-name="itilde" unicode="&#x129;" horiz-adv-x="276" 
d="M31 9q20 2 34 5t23 11t13.5 24t4.5 44v254q0 20 -5 32.5t-14.5 19.5t-23 10.5t-31.5 5.5v10q43 1 80.5 2t63.5 1q-2 -60 -3 -123t-1 -117v-95q0 -28 4.5 -44t13.5 -24t23 -11t34 -5v-9q-21 0 -51 0.5t-55 0.5q-32 0 -57.5 -0.5t-52.5 -0.5v9zM85 615q10 0 20.5 -2
t30.5 -10l32 -14q14 -6 26 -11t24 -5q17 0 30 11t24 31l7 -2q-12 -39 -32 -56t-49 -17q-14 0 -26 4t-32 12l-24 10q-14 6 -26.5 10.5t-23.5 4.5q-14 0 -28 -9t-25 -29l-7 3q11 36 31.5 52.5t47.5 16.5z" />
    <glyph glyph-name="Imacron" unicode="&#x12a;" horiz-adv-x="314" 
d="M156 656q36 0 70 1t53 1v-9q-20 -2 -35.5 -5.5t-26 -12.5t-16 -25t-5.5 -44v-466q0 -28 5.5 -44t16 -25t26 -12.5t35.5 -5.5v-9h-25.5t-26.5 0.5t-31.5 0.5h-40.5q-30 0 -62 -0.5t-58 -0.5v9q20 2 35.5 5.5t26 12.5t16 25t5.5 44v466q0 28 -5.5 44t-16 25t-26 12.5
t-35.5 5.5v9q9 0 23 -0.5t30.5 -0.5t34 -0.5t33.5 -0.5zM33 798v32h252v-32h-252z" />
    <glyph glyph-name="imacron" unicode="&#x12b;" horiz-adv-x="276" 
d="M31 9q20 2 34 5t23 11t13.5 24t4.5 44v254q0 20 -5 32.5t-14.5 19.5t-23 10.5t-31.5 5.5v10q43 1 80.5 2t63.5 1q-2 -60 -3 -123t-1 -117v-95q0 -28 4.5 -44t13.5 -24t23 -11t34 -5v-9q-21 0 -51 0.5t-55 0.5q-32 0 -57.5 -0.5t-52.5 -0.5v9zM13 566v32h252v-32h-252z
" />
    <glyph glyph-name="Ibreve" unicode="&#x12c;" horiz-adv-x="314" 
d="M156 656q36 0 70 1t53 1v-9q-20 -2 -35.5 -5.5t-26 -12.5t-16 -25t-5.5 -44v-466q0 -28 5.5 -44t16 -25t26 -12.5t35.5 -5.5v-9h-25.5t-26.5 0.5t-31.5 0.5h-40.5q-30 0 -62 -0.5t-58 -0.5v9q20 2 35.5 5.5t26 12.5t16 25t5.5 44v466q0 28 -5.5 44t-16 25t-26 12.5
t-35.5 5.5v9q9 0 23 -0.5t30.5 -0.5t34 -0.5t33.5 -0.5zM159 788q49 0 75.5 25.5t38.5 56.5l10 -4q-2 -11 -8.5 -29.5t-20 -36.5t-36.5 -31t-59 -13t-59 13t-36.5 31t-20 36.5t-8.5 29.5l10 4q6 -15 15.5 -30t23 -26.5t32 -18.5t43.5 -7z" />
    <glyph glyph-name="ibreve" unicode="&#x12d;" horiz-adv-x="276" 
d="M31 9q20 2 34 5t23 11t13.5 24t4.5 44v254q0 20 -5 32.5t-14.5 19.5t-23 10.5t-31.5 5.5v10q43 1 80.5 2t63.5 1q-2 -60 -3 -123t-1 -117v-95q0 -28 4.5 -44t13.5 -24t23 -11t34 -5v-9q-21 0 -51 0.5t-55 0.5q-32 0 -57.5 -0.5t-52.5 -0.5v9zM141 556q49 0 75.5 25.5
t38.5 56.5l10 -4q-2 -11 -8.5 -29.5t-20 -36.5t-36.5 -31t-59 -13t-59 13t-36.5 31t-20 36.5t-8.5 29.5l10 4q6 -15 15.5 -30t23 -26.5t32 -18.5t43.5 -7z" />
    <glyph glyph-name="Iogonek" unicode="&#x12e;" horiz-adv-x="314" 
d="M156 656q36 0 70 1t53 1v-9q-20 -2 -35.5 -5.5t-26 -12.5t-16 -25t-5.5 -44v-466q0 -28 5.5 -44t16 -25t26 -12.5t35.5 -5.5v-9h-25.5t-26.5 0.5t-31.5 0.5h-40.5q-30 0 -62 -0.5t-58 -0.5v9q20 2 35.5 5.5t26 12.5t16 25t5.5 44v466q0 28 -5.5 44t-16 25t-26 12.5
t-35.5 5.5v9q9 0 23 -0.5t30.5 -0.5t34 -0.5t33.5 -0.5zM215 -206q-10 -4 -23.5 -7t-28.5 -3q-16 0 -32 3.5t-29 12t-21 24t-8 39.5t13 47.5t31 43.5t36 34.5t27 20.5h10q-10 -10 -23 -27t-25 -36.5t-20 -41t-8 -40.5q0 -32 17.5 -49t48.5 -17q19 0 32 4z" />
    <glyph glyph-name="iogonek" unicode="&#x12f;" horiz-adv-x="276" 
d="M137 586q-21 0 -34.5 13t-13.5 35t13.5 34.5t36.5 12.5q20 0 34 -12.5t14 -33.5q0 -23 -14 -36t-36 -13zM31 9q20 2 34 5t23 11t13.5 24t4.5 44v254q0 20 -5 32.5t-14.5 19.5t-23 10.5t-31.5 5.5v10q43 1 80.5 2t63.5 1q-2 -60 -3 -123t-1 -117v-95q0 -28 4.5 -44
t13.5 -24t23 -11t34 -5v-9q-21 0 -51 0.5t-55 0.5q-32 0 -57.5 -0.5t-52.5 -0.5v9zM192 -206q-10 -4 -23.5 -7t-28.5 -3q-16 0 -32 3.5t-29 12t-21 24t-8 39.5t13 47.5t31 43.5t36 34.5t27 20.5h10q-10 -10 -23 -27t-25 -36.5t-20 -41t-8 -40.5q0 -32 17.5 -49t48.5 -17
q19 0 32 4z" />
    <glyph glyph-name="Idotaccent" unicode="&#x130;" horiz-adv-x="314" 
d="M156 656q36 0 70 1t53 1v-9q-20 -2 -35.5 -5.5t-26 -12.5t-16 -25t-5.5 -44v-466q0 -28 5.5 -44t16 -25t26 -12.5t35.5 -5.5v-9h-25.5t-26.5 0.5t-31.5 0.5h-40.5q-30 0 -62 -0.5t-58 -0.5v9q20 2 35.5 5.5t26 12.5t16 25t5.5 44v466q0 28 -5.5 44t-16 25t-26 12.5
t-35.5 5.5v9q9 0 23 -0.5t30.5 -0.5t34 -0.5t33.5 -0.5zM159 816q-20 0 -32.5 12t-12.5 32t13 32t34 12q19 0 31.5 -11.5t12.5 -31.5q0 -22 -13 -33.5t-33 -11.5z" />
    <glyph glyph-name="dotlessi" unicode="&#x131;" horiz-adv-x="276" 
d="M31 9q20 2 34 5t23 11t13.5 24t4.5 44v254q0 20 -5 32.5t-14.5 19.5t-23 10.5t-31.5 5.5v10q43 1 80.5 2t63.5 1q-2 -60 -3 -123t-1 -117v-95q0 -28 4.5 -44t13.5 -24t23 -11t34 -5v-9q-21 0 -51 0.5t-55 0.5q-32 0 -57.5 -0.5t-52.5 -0.5v9z" />
    <glyph glyph-name="Jcircumflex" unicode="&#x134;" horiz-adv-x="349" 
d="M169 562q0 28 -6 44t-17 25t-26.5 12.5t-35.5 5.5v9q9 0 23.5 -0.5t31 -0.5t34.5 -0.5t34 -0.5q36 0 69 1t52 1v-9q-20 -2 -35 -5.5t-25.5 -12.5t-15.5 -25t-5 -44v-356q0 -38 -4 -77t-18 -71t-40.5 -52.5t-70.5 -20.5q-42 0 -71 16.5t-29 48.5q0 17 10.5 28t31.5 11
q20 0 29.5 -10t9.5 -25v-26q0 -14 4.5 -21.5t21.5 -7.5q29 0 38.5 34t9.5 117v412zM100 731l-8 6l105 161h16l105 -160l-8 -7l-105 105z" />
    <glyph glyph-name="jcircumflex" unicode="&#x135;" horiz-adv-x="262" 
d="M106 347q0 20 -5 32.5t-14.5 19.5t-23 10.5t-31.5 5.5v10q43 1 80.5 2t63.5 1q-2 -60 -3 -123t-1 -117v-70q0 -59 -3.5 -104t-14.5 -81q-17 -57 -55 -97t-111 -69l-5 9q43 25 68 49.5t37 54.5t15 69t3 95v303zM31 499l-8 6l105 161h16l105 -160l-8 -7l-105 105z" />
    <glyph glyph-name="Kcommaaccent" unicode="&#x136;" horiz-adv-x="615" 
d="M487 1q-27 0 -59 0.5t-52 -1.5v9q8 1 17.5 3t17 4.5t12.5 7t5 12.5q0 11 -10.5 25.5t-21.5 29.5q-27 38 -58.5 82t-57.5 82q-32 44 -62 86v3l203 222q14 15 24.5 29t10.5 26q0 14 -18 20t-35 8v9q20 -1 44.5 -1.5t51.5 -0.5q25 0 45 0.5t45 1.5v-9q-18 -3 -32 -7
t-27.5 -12t-28 -20.5t-33.5 -32.5l-188 -197l228 -304q18 -23 30.5 -36t23.5 -19.5t21.5 -8t23.5 -2.5v-10q-26 2 -57 1.5t-63 -0.5zM156 656q36 0 70 1t53 1v-9q-20 -2 -35.5 -5.5t-26 -12.5t-16 -25t-5.5 -44v-466q0 -28 5.5 -44t16 -25t26 -12.5t35.5 -5.5v-9h-25.5
t-26.5 0.5t-31.5 0.5h-40.5q-30 0 -62 -0.5t-58 -0.5v9q20 2 35.5 5.5t26 12.5t16 25t5.5 44v466q0 28 -5.5 44t-16 25t-26 12.5t-35.5 5.5v9q9 0 23 -0.5t30.5 -0.5t34 -0.5t33.5 -0.5zM266 -199q24 8 42 27.5t18 49.5h-1q-2 -1 -7.5 -3.5t-17.5 -2.5q-18 0 -30.5 11
t-12.5 32q0 20 12.5 32t31.5 12q27 0 40 -18.5t13 -43.5q0 -41 -23.5 -68t-60.5 -38z" />
    <glyph glyph-name="kcommaaccent" unicode="&#x137;" horiz-adv-x="486" 
d="M498 -1q-9 0 -21.5 0.5t-26 1t-27 0.5h-24.5q-18 0 -32.5 -0.5t-24.5 -0.5q-12 -1 -21 -1v10q11 1 24.5 3t13.5 8q0 5 -9.5 17t-17.5 23l-72 94q-20 26 -36 46t-25 31v4l53 46q16 14 34.5 30t34 31.5t25.5 28.5t10 21q0 7 -5 11.5t-12.5 7t-15.5 4t-14 2.5v9
q17 -2 39.5 -2h45.5h39.5t44.5 2v-9q-17 -3 -28.5 -7.5t-22.5 -11t-23.5 -16t-29.5 -23.5l-116 -97q38 -48 79.5 -98t96.5 -117q14 -16 27 -26t37 -12v-10zM31 9q20 2 34 4.5t23 10.5t13.5 23.5t4.5 43.5v518q0 20 -5 32t-14.5 19t-23 10t-31.5 5v10q43 1 80.5 2t63.5 1
q-2 -60 -3 -123t-1 -117v-357q0 -28 4.5 -43.5t13.5 -23.5t23 -10.5t34 -4.5v-9q-21 0 -50.5 0.5t-54.5 0.5q-32 0 -58 -0.5t-53 -0.5v9zM217 -199q24 8 42 27.5t18 49.5h-1q-2 -1 -7.5 -3.5t-17.5 -2.5q-18 0 -30.5 11t-12.5 32q0 20 12.5 32t31.5 12q27 0 40 -18.5
t13 -43.5q0 -41 -23.5 -68t-60.5 -38z" />
    <glyph glyph-name="kgreenlandic" unicode="&#x138;" horiz-adv-x="483" 
d="M495 -1q-9 0 -21.5 0.5t-26 1t-27 0.5h-24.5q-18 0 -32.5 -0.5t-24.5 -0.5q-12 -1 -21 -1v10q11 1 24.5 3t13.5 8q0 5 -9.5 17t-17.5 23l-72 94q-20 26 -36 46t-25 31v4l53 46q16 14 34.5 30t34 31.5t25.5 28.5t10 21q0 7 -5 11.5t-12.5 7t-15.5 4t-14 2.5v9
q17 -2 39.5 -2h45.5h39.5t44.5 2v-9q-17 -3 -28.5 -7.5t-22.5 -11t-23.5 -16t-29.5 -23.5l-116 -97q38 -48 79.5 -98t96.5 -117q14 -16 27 -26t37 -12v-10zM28 9q20 2 34 4.5t23 10.5t13.5 23.5t4.5 43.5v258q0 20 -5 32t-14.5 19t-23 10t-31.5 5v10q43 1 80.5 2t63.5 1
q-2 -60 -3 -123.5t-1 -117.5v-96q0 -28 4.5 -43.5t13.5 -23.5t23 -10.5t34 -4.5v-9q-21 0 -50.5 0.5t-54.5 0.5q-32 0 -58 -0.5t-53 -0.5v9z" />
    <glyph glyph-name="Lacute" unicode="&#x139;" horiz-adv-x="539" 
d="M196 91q0 -21 2.5 -35t12 -22.5t28 -11.5t49.5 -3h29q53 0 85.5 8.5t52.5 26.5t32.5 46.5t24.5 69.5h9q0 -2 -0.5 -15t-1 -32t-1.5 -41t-2 -40.5t-2 -31l-1 -12.5q-19 2 -49.5 2h-68.5h-123t-65 0.5t-31 0.5h-22q-30 0 -61.5 -0.5t-57.5 -0.5v9q20 2 35.5 5.5t26 12.5
t16 25t5.5 44v466q0 28 -5.5 44t-16 25t-26 12.5t-35.5 5.5v9q9 0 24.5 -0.5t33 -0.5t36 -0.5t34.5 -0.5q36 0 70 1t53 1v-9q-22 -2 -38.5 -5.5t-28 -12.5t-17.5 -25t-6 -44v-471zM256 876q5 5 11 8.5t16 3.5q11 0 20 -7t9 -21q0 -11 -6 -18t-15 -12l-174 -96l-6 9z" />
    <glyph glyph-name="lacute" unicode="&#x13a;" horiz-adv-x="275" 
d="M31 9q20 2 34 4.5t23 10.5t13.5 23.5t4.5 43.5v518q0 20 -5 32t-14.5 19t-23 10t-31.5 5v10q43 1 80.5 2t63.5 1q-2 -60 -3 -123t-1 -117v-357q0 -28 4.5 -43.5t13.5 -23.5t23 -10.5t34 -4.5v-9q-21 0 -50.5 0.5t-54.5 0.5q-32 0 -58 -0.5t-53 -0.5v9zM178 876
q5 5 11 8.5t16 3.5q11 0 20 -7t9 -21q0 -11 -6 -18t-15 -12l-174 -96l-6 9z" />
    <glyph glyph-name="Lcommaaccent" unicode="&#x13b;" horiz-adv-x="539" 
d="M196 91q0 -21 2.5 -35t12 -22.5t28 -11.5t49.5 -3h29q53 0 85.5 8.5t52.5 26.5t32.5 46.5t24.5 69.5h9q0 -2 -0.5 -15t-1 -32t-1.5 -41t-2 -40.5t-2 -31l-1 -12.5q-19 2 -49.5 2h-68.5h-123t-65 0.5t-31 0.5h-22q-30 0 -61.5 -0.5t-57.5 -0.5v9q20 2 35.5 5.5t26 12.5
t16 25t5.5 44v466q0 28 -5.5 44t-16 25t-26 12.5t-35.5 5.5v9q9 0 24.5 -0.5t33 -0.5t36 -0.5t34.5 -0.5q36 0 70 1t53 1v-9q-22 -2 -38.5 -5.5t-28 -12.5t-17.5 -25t-6 -44v-471zM251 -199q24 8 42 27.5t18 49.5h-1q-2 -1 -7.5 -3.5t-17.5 -2.5q-18 0 -30.5 11t-12.5 32
q0 20 12.5 32t31.5 12q27 0 40 -18.5t13 -43.5q0 -41 -23.5 -68t-60.5 -38z" />
    <glyph glyph-name="lcommaaccent" unicode="&#x13c;" horiz-adv-x="275" 
d="M31 9q20 2 34 4.5t23 10.5t13.5 23.5t4.5 43.5v518q0 20 -5 32t-14.5 19t-23 10t-31.5 5v10q43 1 80.5 2t63.5 1q-2 -60 -3 -123t-1 -117v-357q0 -28 4.5 -43.5t13.5 -23.5t23 -10.5t34 -4.5v-9q-21 0 -50.5 0.5t-54.5 0.5q-32 0 -58 -0.5t-53 -0.5v9zM99 -199
q24 8 42 27.5t18 49.5h-1q-2 -1 -7.5 -3.5t-17.5 -2.5q-18 0 -30.5 11t-12.5 32q0 20 12.5 32t31.5 12q27 0 40 -18.5t13 -43.5q0 -41 -23.5 -68t-60.5 -38z" />
    <glyph glyph-name="Lcaron" unicode="&#x13d;" horiz-adv-x="539" 
d="M196 91q0 -21 2.5 -35t12 -22.5t28 -11.5t49.5 -3h29q53 0 85.5 8.5t52.5 26.5t32.5 46.5t24.5 69.5h9q0 -2 -0.5 -15t-1 -32t-1.5 -41t-2 -40.5t-2 -31l-1 -12.5q-19 2 -49.5 2h-68.5h-123t-65 0.5t-31 0.5h-22q-30 0 -61.5 -0.5t-57.5 -0.5v9q20 2 35.5 5.5t26 12.5
t16 25t5.5 44v466q0 28 -5.5 44t-16 25t-26 12.5t-35.5 5.5v9q9 0 24.5 -0.5t33 -0.5t36 -0.5t34.5 -0.5q36 0 70 1t53 1v-9q-22 -2 -38.5 -5.5t-28 -12.5t-17.5 -25t-6 -44v-471zM458 626q0 -26 -8.5 -49t-23 -43t-33.5 -35.5t-41 -25.5l-9 10q15 10 28.5 23t24 28.5
t17 32.5t5.5 35q-2 -1 -7.5 -3t-16.5 -2q-20 0 -34.5 12.5t-14.5 36.5q0 22 15 36t37 14q30 0 45.5 -20.5t15.5 -49.5z" />
    <glyph glyph-name="lcaron" unicode="&#x13e;" horiz-adv-x="366" 
d="M31 9q20 2 34 4.5t23 10.5t13.5 23.5t4.5 43.5v518q0 20 -5 32t-14.5 19t-23 10t-31.5 5v10q43 1 80.5 2t63.5 1q-2 -60 -3 -123t-1 -117v-357q0 -28 4.5 -43.5t13.5 -23.5t23 -10.5t34 -4.5v-9q-21 0 -50.5 0.5t-54.5 0.5q-32 0 -58 -0.5t-53 -0.5v9zM360 626
q0 -26 -8.5 -49t-23 -43t-33.5 -35.5t-41 -25.5l-9 10q15 10 28.5 23t24 28.5t17 32.5t5.5 35q-2 -1 -7.5 -3t-16.5 -2q-20 0 -34.5 12.5t-14.5 36.5q0 22 15 36t37 14q30 0 45.5 -20.5t15.5 -49.5z" />
    <glyph glyph-name="Ldot" unicode="&#x13f;" horiz-adv-x="539" 
d="M196 91q0 -21 2.5 -35t12 -22.5t28 -11.5t49.5 -3h29q53 0 85.5 8.5t52.5 26.5t32.5 46.5t24.5 69.5h9q0 -2 -0.5 -15t-1 -32t-1.5 -41t-2 -40.5t-2 -31l-1 -12.5q-19 2 -49.5 2h-68.5h-123t-65 0.5t-31 0.5h-22q-30 0 -61.5 -0.5t-57.5 -0.5v9q20 2 35.5 5.5t26 12.5
t16 25t5.5 44v466q0 28 -5.5 44t-16 25t-26 12.5t-35.5 5.5v9q9 0 24.5 -0.5t33 -0.5t36 -0.5t34.5 -0.5q36 0 70 1t53 1v-9q-22 -2 -38.5 -5.5t-28 -12.5t-17.5 -25t-6 -44v-471zM294 324q0 23 15 38t38 15q24 0 39 -15t15 -38t-14.5 -38.5t-39.5 -15.5t-39 15t-14 39z" />
    <glyph glyph-name="ldot" unicode="&#x140;" horiz-adv-x="346" 
d="M31 9q20 2 34 4.5t23 10.5t13.5 23.5t4.5 43.5v518q0 20 -5 32t-14.5 19t-23 10t-31.5 5v10q43 1 80.5 2t63.5 1q-2 -60 -3 -123t-1 -117v-357q0 -28 4.5 -43.5t13.5 -23.5t23 -10.5t34 -4.5v-9q-21 0 -50.5 0.5t-54.5 0.5q-32 0 -58 -0.5t-53 -0.5v9zM255 324
q0 23 15 38t38 15q24 0 39 -15t15 -38t-14.5 -38.5t-39.5 -15.5t-39 15t-14 39z" />
    <glyph glyph-name="Lslash" unicode="&#x141;" horiz-adv-x="539" 
d="M118 309v253q0 28 -5.5 44t-16 25t-26 12.5t-35.5 5.5v9q9 0 24.5 -0.5t33 -0.5t36 -0.5t34.5 -0.5q36 0 70 1t53 1v-9q-22 -2 -38.5 -5.5t-28 -12.5t-17.5 -25t-6 -44v-198l74 53l10 -14l-84 -60v-252q0 -21 2.5 -35t12 -22.5t28 -11.5t49.5 -3h29q53 0 85.5 8.5
t52.5 26.5t32.5 46.5t24.5 69.5h9q0 -2 -0.5 -15t-1 -32t-1.5 -41t-2 -40.5t-2 -31l-1 -12.5q-19 2 -49.5 2h-68.5h-123t-65 0.5t-31 0.5h-22q-30 0 -61.5 -0.5t-57.5 -0.5v9q20 2 35.5 5.5t26 12.5t16 25t5.5 44v192l-65 -46l-10 14z" />
    <glyph glyph-name="lslash" unicode="&#x142;" horiz-adv-x="275" 
d="M31 9q20 2 34 4.5t23 10.5t13.5 23.5t4.5 43.5v201l-58 -40l-10 14l68 47v296q0 20 -5 32t-14.5 19t-23 10t-31.5 5v10q43 1 80.5 2t63.5 1q-2 -60 -3 -123t-1 -117v-89l66 47l10 -14l-76 -54v-247q0 -28 4.5 -43.5t13.5 -23.5t23 -10.5t34 -4.5v-9q-21 0 -50.5 0.5
t-54.5 0.5q-32 0 -58 -0.5t-53 -0.5v9z" />
    <glyph glyph-name="Nacute" unicode="&#x143;" horiz-adv-x="698" 
d="M98 656h42.5t30.5 2l332 -437q19 -25 34 -46t25 -36q-1 13 -1 30v75v318q0 28 -5.5 44t-16 25t-26 12.5t-35.5 5.5v9q26 0 48.5 -1t52.5 -1q23 0 35.5 0.5t21 0.5t16 0.5t20.5 0.5v-9q-20 -2 -35.5 -5.5t-26 -12.5t-16 -25t-5.5 -44v-573h-12l-373 491q-24 32 -39 52.5
t-26 37.5v-28q0 -14 0.5 -32t0.5 -41v-373q0 -28 5.5 -44t16.5 -25t27 -12.5t37 -5.5v-9q-26 0 -49.5 0.5t-53.5 0.5h-35.5t-21.5 -0.5t-16.5 -0.5h-20.5v9q20 2 35.5 5.5t26 12.5t16 25t5.5 44v466q0 28 -5.5 44t-16.5 25t-26.5 12.5t-35.5 5.5v9q17 0 31 -1t39 -1z
M424 876q5 5 11 8.5t16 3.5q11 0 20 -7t9 -21q0 -11 -6 -18t-15 -12l-174 -96l-6 9z" />
    <glyph glyph-name="nacute" unicode="&#x144;" horiz-adv-x="548" 
d="M28 8q20 2 34 4.5t23 10t13.5 23t4.5 43.5v261q0 20 -5 32t-14.5 18.5t-23 9.5t-31.5 5v10q43 1 79.5 2t62.5 1q-2 -22 -2 -48v-49q16 43 55.5 74.5t100.5 31.5q69 0 98.5 -39t29.5 -113v-196q0 -28 4.5 -43.5t13.5 -23t23 -10t34 -4.5v-8q-21 0 -50.5 0.5t-54.5 0.5
q-32 0 -58 -0.5t-53 -0.5v8q20 2 34 4.5t23 10t13.5 23t4.5 43.5v197q0 57 -22.5 89t-72.5 32q-27 0 -48.5 -12.5t-37.5 -32.5t-25.5 -47t-11.5 -55v-171q0 -28 4.5 -43.5t13.5 -23t23 -10t34 -4.5v-8q-21 0 -51 0.5t-55 0.5q-32 0 -57.5 -0.5t-52.5 -0.5v8zM342 644
q5 5 11 8.5t16 3.5q11 0 20 -7t9 -21q0 -11 -6 -18t-15 -12l-174 -96l-6 9z" />
    <glyph glyph-name="Ncommaaccent" unicode="&#x145;" horiz-adv-x="698" 
d="M98 656h42.5t30.5 2l332 -437q19 -25 34 -46t25 -36q-1 13 -1 30v75v318q0 28 -5.5 44t-16 25t-26 12.5t-35.5 5.5v9q26 0 48.5 -1t52.5 -1q23 0 35.5 0.5t21 0.5t16 0.5t20.5 0.5v-9q-20 -2 -35.5 -5.5t-26 -12.5t-16 -25t-5.5 -44v-573h-12l-373 491q-24 32 -39 52.5
t-26 37.5v-28q0 -14 0.5 -32t0.5 -41v-373q0 -28 5.5 -44t16.5 -25t27 -12.5t37 -5.5v-9q-26 0 -49.5 0.5t-53.5 0.5h-35.5t-21.5 -0.5t-16.5 -0.5h-20.5v9q20 2 35.5 5.5t26 12.5t16 25t5.5 44v466q0 28 -5.5 44t-16.5 25t-26.5 12.5t-35.5 5.5v9q17 0 31 -1t39 -1z
M317 -199q24 8 42 27.5t18 49.5h-1q-2 -1 -7.5 -3.5t-17.5 -2.5q-18 0 -30.5 11t-12.5 32q0 20 12.5 32t31.5 12q27 0 40 -18.5t13 -43.5q0 -41 -23.5 -68t-60.5 -38z" />
    <glyph glyph-name="ncommaaccent" unicode="&#x146;" horiz-adv-x="548" 
d="M28 8q20 2 34 4.5t23 10t13.5 23t4.5 43.5v261q0 20 -5 32t-14.5 18.5t-23 9.5t-31.5 5v10q43 1 79.5 2t62.5 1q-2 -22 -2 -48v-49q16 43 55.5 74.5t100.5 31.5q69 0 98.5 -39t29.5 -113v-196q0 -28 4.5 -43.5t13.5 -23t23 -10t34 -4.5v-8q-21 0 -50.5 0.5t-54.5 0.5
q-32 0 -58 -0.5t-53 -0.5v8q20 2 34 4.5t23 10t13.5 23t4.5 43.5v197q0 57 -22.5 89t-72.5 32q-27 0 -48.5 -12.5t-37.5 -32.5t-25.5 -47t-11.5 -55v-171q0 -28 4.5 -43.5t13.5 -23t23 -10t34 -4.5v-8q-21 0 -51 0.5t-55 0.5q-32 0 -57.5 -0.5t-52.5 -0.5v8zM246 -199
q24 8 42 27.5t18 49.5h-1q-2 -1 -7.5 -3.5t-17.5 -2.5q-18 0 -30.5 11t-12.5 32q0 20 12.5 32t31.5 12q27 0 40 -18.5t13 -43.5q0 -41 -23.5 -68t-60.5 -38z" />
    <glyph glyph-name="Ncaron" unicode="&#x147;" horiz-adv-x="698" 
d="M98 656h42.5t30.5 2l332 -437q19 -25 34 -46t25 -36q-1 13 -1 30v75v318q0 28 -5.5 44t-16 25t-26 12.5t-35.5 5.5v9q26 0 48.5 -1t52.5 -1q23 0 35.5 0.5t21 0.5t16 0.5t20.5 0.5v-9q-20 -2 -35.5 -5.5t-26 -12.5t-16 -25t-5.5 -44v-573h-12l-373 491q-24 32 -39 52.5
t-26 37.5v-28q0 -14 0.5 -32t0.5 -41v-373q0 -28 5.5 -44t16.5 -25t27 -12.5t37 -5.5v-9q-26 0 -49.5 0.5t-53.5 0.5h-35.5t-21.5 -0.5t-16.5 -0.5h-20.5v9q20 2 35.5 5.5t26 12.5t16 25t5.5 44v466q0 28 -5.5 44t-16.5 25t-26.5 12.5t-35.5 5.5v9q17 0 31 -1t39 -1z
M357 793l105 105l8 -7l-105 -160h-16l-105 161l8 6z" />
    <glyph glyph-name="ncaron" unicode="&#x148;" horiz-adv-x="548" 
d="M28 8q20 2 34 4.5t23 10t13.5 23t4.5 43.5v261q0 20 -5 32t-14.5 18.5t-23 9.5t-31.5 5v10q43 1 79.5 2t62.5 1q-2 -22 -2 -48v-49q16 43 55.5 74.5t100.5 31.5q69 0 98.5 -39t29.5 -113v-196q0 -28 4.5 -43.5t13.5 -23t23 -10t34 -4.5v-8q-21 0 -50.5 0.5t-54.5 0.5
q-32 0 -58 -0.5t-53 -0.5v8q20 2 34 4.5t23 10t13.5 23t4.5 43.5v197q0 57 -22.5 89t-72.5 32q-27 0 -48.5 -12.5t-37.5 -32.5t-25.5 -47t-11.5 -55v-171q0 -28 4.5 -43.5t13.5 -23t23 -10t34 -4.5v-8q-21 0 -51 0.5t-55 0.5q-32 0 -57.5 -0.5t-52.5 -0.5v8zM287 561
l105 105l8 -7l-105 -160h-16l-105 161l8 6z" />
    <glyph glyph-name="Eng" unicode="&#x14a;" horiz-adv-x="698" 
d="M98 656h42.5t30.5 2l332 -437q19 -25 34 -46t25 -36q-1 13 -1 30v75v318q0 28 -5.5 44t-16 25t-26 12.5t-35.5 5.5v9q26 0 48.5 -1t52.5 -1q23 0 35.5 0.5t21 0.5t16 0.5t20.5 0.5v-9q-20 -2 -35.5 -5.5t-26 -12.5t-16 -25t-5.5 -44v-631q0 -38 -3.5 -67t-14 -49
t-30 -30.5t-51.5 -10.5q-43 0 -65.5 17t-22.5 47q0 17 10.5 28t31.5 11q20 0 29 -10t9 -25q0 -5 -0.5 -9t-0.5 -12q0 -14 3.5 -21t19.5 -7q14 0 24.5 7.5t18 24.5t11 45.5t3.5 69.5v68l-357 472q-24 32 -39 52.5t-26 37.5v-28q0 -14 0.5 -32t0.5 -41v-373q0 -28 5.5 -44
t16.5 -25t27 -12.5t37 -5.5v-9q-26 0 -49.5 0.5t-53.5 0.5h-35.5t-21.5 -0.5t-16.5 -0.5h-20.5v9q20 2 35.5 5.5t26 12.5t16 25t5.5 44v466q0 28 -5.5 44t-16.5 25t-26.5 12.5t-35.5 5.5v9q17 0 31 -1t39 -1z" />
    <glyph glyph-name="eng" unicode="&#x14b;" horiz-adv-x="543" 
d="M453 118q0 -59 -3.5 -104t-14.5 -81q-17 -57 -55 -97t-111 -69l-5 9q43 25 68 49.5t37 54.5t15 69t3 95v242q0 57 -22.5 89t-72.5 32q-27 0 -48.5 -12.5t-37.5 -32.5t-25.5 -47t-11.5 -55v-171q0 -28 4.5 -43.5t13.5 -23t23 -10t34 -4.5v-8q-21 0 -51 0.5t-55 0.5
q-32 0 -57.5 -0.5t-52.5 -0.5v8q20 2 34 4.5t23 10t13.5 23t4.5 43.5v261q0 20 -5 32t-14.5 18.5t-23 9.5t-31.5 5v10q43 1 79.5 2t62.5 1q-2 -22 -2 -48v-49q16 43 55.5 74.5t100.5 31.5q69 0 98.5 -39t29.5 -113v-167v0z" />
    <glyph glyph-name="Omacron" unicode="&#x14c;" horiz-adv-x="734" 
d="M367 10q64 0 106.5 27.5t68 72t36.5 101.5t11 117q0 58 -12 115.5t-38 102.5t-68.5 73t-103.5 28t-103 -28t-68.5 -73t-38 -102t-11.5 -116q0 -60 10.5 -117t36 -101.5t68 -72t106.5 -27.5zM367 668q78 0 135.5 -26.5t95.5 -72.5t57 -108.5t19 -134.5q0 -79 -21 -141.5
t-61 -105.5t-96.5 -66t-128.5 -23t-128.5 23t-96.5 66t-61 105.5t-21 141.5q0 72 19 134.5t57 108.5t95.5 72.5t135.5 26.5zM244 798v32h252v-32h-252z" />
    <glyph glyph-name="omacron" unicode="&#x14d;" horiz-adv-x="508" 
d="M458 214q0 -104 -52.5 -164.5t-152.5 -60.5q-99 0 -151 60t-52 161q0 50 14 91.5t40.5 71.5t64 46.5t85.5 16.5t85.5 -16.5t64 -46t40.5 -70t14 -89.5zM384 211q0 93 -32 150.5t-98 57.5q-65 0 -96.5 -57.5t-31.5 -150.5q0 -95 31.5 -150t96.5 -55t97.5 55t32.5 150z
M131 566v32h252v-32h-252z" />
    <glyph glyph-name="Obreve" unicode="&#x14e;" horiz-adv-x="734" 
d="M367 10q64 0 106.5 27.5t68 72t36.5 101.5t11 117q0 58 -12 115.5t-38 102.5t-68.5 73t-103.5 28t-103 -28t-68.5 -73t-38 -102t-11.5 -116q0 -60 10.5 -117t36 -101.5t68 -72t106.5 -27.5zM367 668q78 0 135.5 -26.5t95.5 -72.5t57 -108.5t19 -134.5q0 -79 -21 -141.5
t-61 -105.5t-96.5 -66t-128.5 -23t-128.5 23t-96.5 66t-61 105.5t-21 141.5q0 72 19 134.5t57 108.5t95.5 72.5t135.5 26.5zM368 788q49 0 75.5 25.5t38.5 56.5l10 -4q-2 -11 -8.5 -29.5t-20 -36.5t-36.5 -31t-59 -13t-59 13t-36.5 31t-20 36.5t-8.5 29.5l10 4
q6 -15 15.5 -30t23 -26.5t32 -18.5t43.5 -7z" />
    <glyph glyph-name="obreve" unicode="&#x14f;" horiz-adv-x="508" 
d="M458 214q0 -104 -52.5 -164.5t-152.5 -60.5q-99 0 -151 60t-52 161q0 50 14 91.5t40.5 71.5t64 46.5t85.5 16.5t85.5 -16.5t64 -46t40.5 -70t14 -89.5zM384 211q0 93 -32 150.5t-98 57.5q-65 0 -96.5 -57.5t-31.5 -150.5q0 -95 31.5 -150t96.5 -55t97.5 55t32.5 150z
M256 556q49 0 75.5 25.5t38.5 56.5l10 -4q-2 -11 -8.5 -29.5t-20 -36.5t-36.5 -31t-59 -13t-59 13t-36.5 31t-20 36.5t-8.5 29.5l10 4q6 -15 15.5 -30t23 -26.5t32 -18.5t43.5 -7z" />
    <glyph glyph-name="Ohungarumlaut" unicode="&#x150;" horiz-adv-x="734" 
d="M367 10q64 0 106.5 27.5t68 72t36.5 101.5t11 117q0 58 -12 115.5t-38 102.5t-68.5 73t-103.5 28t-103 -28t-68.5 -73t-38 -102t-11.5 -116q0 -60 10.5 -117t36 -101.5t68 -72t106.5 -27.5zM367 668q78 0 135.5 -26.5t95.5 -72.5t57 -108.5t19 -134.5q0 -79 -21 -141.5
t-61 -105.5t-96.5 -66t-128.5 -23t-128.5 23t-96.5 66t-61 105.5t-21 141.5q0 72 19 134.5t57 108.5t95.5 72.5t135.5 26.5zM282 737l-6 7l61 131h55zM422 737l-6 7l61 131h55z" />
    <glyph glyph-name="ohungarumlaut" unicode="&#x151;" horiz-adv-x="508" 
d="M458 214q0 -104 -52.5 -164.5t-152.5 -60.5q-99 0 -151 60t-52 161q0 50 14 91.5t40.5 71.5t64 46.5t85.5 16.5t85.5 -16.5t64 -46t40.5 -70t14 -89.5zM384 211q0 93 -32 150.5t-98 57.5q-65 0 -96.5 -57.5t-31.5 -150.5q0 -95 31.5 -150t96.5 -55t97.5 55t32.5 150z
M167 505l-6 7l61 131h55zM307 505l-6 7l61 131h55z" />
    <glyph glyph-name="OE" unicode="&#x152;" horiz-adv-x="951" 
d="M448 0q-19 -5 -39 -7.5t-42 -2.5q-72 0 -128.5 23t-96.5 66t-61 105.5t-21 141.5q0 72 19 134.5t57 108.5t95.5 72.5t135.5 26.5q23 0 44.5 -3.5t41.5 -8.5h311q41 0 68.5 1.5t47.5 3.5l1 -1l8 -162h-11q-6 24 -12 43.5t-16 35.5t-24.5 27.5t-37.5 19.5q-20 6 -51.5 9.5
t-74.5 3.5h-103q-1 -25 -1 -53v-54v-182q8 0 27 0.5t40.5 1.5t41 2.5t29.5 3.5q14 4 24 11t16.5 18.5t11 29t7.5 42.5h12q-1 -18 -2 -46.5t-1 -64.5v-11q0 -36 1 -64.5t2 -46.5h-12q-7 49 -19 71t-40 30q-10 2 -29.5 3.5t-41 2.5t-40.5 1.5t-27 0.5v-242q0 -21 2.5 -35
t12 -22.5t28 -11.5t49.5 -3h53q53 0 85.5 8.5t52.5 26.5t32.5 46.5t24.5 69.5h9q0 -2 -0.5 -15t-1.5 -32t-2.5 -41t-2.5 -40.5t-2.5 -31l-1.5 -12.5q-19 2 -48 2h-67h-106t-68.5 0.5t-41.5 0.5h-25zM367 10q74 0 117 37v560q-22 17 -52 28.5t-65 11.5q-61 0 -103 -28
t-68.5 -73t-38 -102t-11.5 -116q0 -60 10.5 -117t36 -101.5t68 -72t106.5 -27.5z" />
    <glyph glyph-name="oe" unicode="&#x153;" horiz-adv-x="772" 
d="M726 93q-10 -20 -23 -38.5t-32 -33t-44.5 -23.5t-60.5 -9q-50 0 -89 19t-64 56q-26 -36 -66.5 -55.5t-95.5 -19.5q-99 0 -150 60t-51 161q0 50 13.5 91.5t39.5 71.5t63.5 46.5t85.5 16.5q54 0 94.5 -21t66.5 -59q25 39 64 60t90 21q43 0 73.5 -12.5t49.5 -35.5t28 -54.5
t9 -69.5v-12l-278 4q-1 -5 -1 -9v-17q0 -47 9.5 -86t27.5 -67t45 -43.5t63 -15.5q24 0 43.5 7t34.5 18.5t25.5 25.5t18.5 28zM380 211q0 93 -31 150.5t-97 57.5q-33 0 -56.5 -15t-39 -42.5t-23 -66t-7.5 -84.5q0 -95 30.5 -150t95.5 -55t96.5 55t31.5 150zM653 276v14
q0 25 -5 48.5t-16 42t-27.5 29.5t-40.5 11q-26 0 -45.5 -11.5t-33.5 -31.5t-22.5 -47t-11.5 -58z" />
    <glyph glyph-name="Racute" unicode="&#x154;" horiz-adv-x="600" 
d="M347 334l16 -2q51 -11 78 -48t46 -103q10 -37 18.5 -68.5t20.5 -55t29.5 -37t47.5 -14.5v-8q-21 -3 -43 -3q-39 0 -64.5 9t-42 28.5t-27 50.5t-19.5 75q-10 44 -22 84t-42 63q-15 10 -30 14.5t-42 4.5h-75v-228q0 -28 6 -44t17 -25t26.5 -12.5t35.5 -5.5v-9h-24.5
t-25 0.5t-30 0.5h-39.5q-30 0 -65.5 -0.5t-61.5 -0.5v9q20 2 35.5 5.5t26 12.5t16 25t5.5 44v466q0 28 -5.5 44t-16 25t-26 12.5t-35.5 5.5v9q26 -1 61 -1.5t67 -0.5q19 0 31.5 0.5t24 0.5t24.5 0.5t33 0.5q45 0 79.5 -3.5t63.5 -14.5q43 -15 69.5 -47.5t26.5 -90.5
q0 -40 -14 -70t-37.5 -50.5t-53.5 -31.5t-63 -13v-3zM432 494q0 46 -14.5 74t-37.5 43t-52.5 20t-59.5 5q-11 0 -23.5 -0.5t-23.5 -0.5h-25v-290h96q30 0 53 8t40 22q22 17 34.5 46t12.5 73zM356 876q5 5 11 8.5t16 3.5q11 0 20 -7t9 -21q0 -11 -6 -18t-15 -12l-174 -96
l-6 9z" />
    <glyph glyph-name="racute" unicode="&#x155;" horiz-adv-x="356" 
d="M169 93q0 -28 4 -44t15 -24t30 -11t50 -5v-9h-28t-36 0.5t-37.5 0.5h-30.5q-32 0 -56.5 -0.5t-51.5 -0.5v9q20 2 34 5t23 11t13.5 24t4.5 44v251q0 20 -5 32.5t-14.5 19.5t-23 10.5t-31.5 5.5v13q43 1 79.5 2t62.5 1q-2 -24 -2.5 -50t-1.5 -50h1q6 19 16.5 38t25.5 34.5
t35 25t44 9.5q32 0 48.5 -15t16.5 -38q0 -38 -38 -38q-21 0 -28 9.5t-9 21.5t-4 21.5t-14 9.5q-18 0 -35 -13t-29.5 -34.5t-20 -50.5t-7.5 -60v-155zM251 644q5 5 11 8.5t16 3.5q11 0 20 -7t9 -21q0 -11 -6 -18t-15 -12l-174 -96l-6 9z" />
    <glyph glyph-name="Rcommaaccent" unicode="&#x156;" horiz-adv-x="600" 
d="M347 334l16 -2q51 -11 78 -48t46 -103q10 -37 18.5 -68.5t20.5 -55t29.5 -37t47.5 -14.5v-8q-21 -3 -43 -3q-39 0 -64.5 9t-42 28.5t-27 50.5t-19.5 75q-10 44 -22 84t-42 63q-15 10 -30 14.5t-42 4.5h-75v-228q0 -28 6 -44t17 -25t26.5 -12.5t35.5 -5.5v-9h-24.5
t-25 0.5t-30 0.5h-39.5q-30 0 -65.5 -0.5t-61.5 -0.5v9q20 2 35.5 5.5t26 12.5t16 25t5.5 44v466q0 28 -5.5 44t-16 25t-26 12.5t-35.5 5.5v9q26 -1 61 -1.5t67 -0.5q19 0 31.5 0.5t24 0.5t24.5 0.5t33 0.5q45 0 79.5 -3.5t63.5 -14.5q43 -15 69.5 -47.5t26.5 -90.5
q0 -40 -14 -70t-37.5 -50.5t-53.5 -31.5t-63 -13v-3zM432 494q0 46 -14.5 74t-37.5 43t-52.5 20t-59.5 5q-11 0 -23.5 -0.5t-23.5 -0.5h-25v-290h96q30 0 53 8t40 22q22 17 34.5 46t12.5 73zM288 -199q24 8 42 27.5t18 49.5h-1q-2 -1 -7.5 -3.5t-17.5 -2.5q-18 0 -30.5 11
t-12.5 32q0 20 12.5 32t31.5 12q27 0 40 -18.5t13 -43.5q0 -41 -23.5 -68t-60.5 -38z" />
    <glyph glyph-name="rcommaaccent" unicode="&#x157;" horiz-adv-x="356" 
d="M169 93q0 -28 4 -44t15 -24t30 -11t50 -5v-9h-28t-36 0.5t-37.5 0.5h-30.5q-32 0 -56.5 -0.5t-51.5 -0.5v9q20 2 34 5t23 11t13.5 24t4.5 44v251q0 20 -5 32.5t-14.5 19.5t-23 10.5t-31.5 5.5v13q43 1 79.5 2t62.5 1q-2 -24 -2.5 -50t-1.5 -50h1q6 19 16.5 38t25.5 34.5
t35 25t44 9.5q32 0 48.5 -15t16.5 -38q0 -38 -38 -38q-21 0 -28 9.5t-9 21.5t-4 21.5t-14 9.5q-18 0 -35 -13t-29.5 -34.5t-20 -50.5t-7.5 -60v-155zM94 -199q24 8 42 27.5t18 49.5h-1q-2 -1 -7.5 -3.5t-17.5 -2.5q-18 0 -30.5 11t-12.5 32q0 20 12.5 32t31.5 12
q27 0 40 -18.5t13 -43.5q0 -41 -23.5 -68t-60.5 -38z" />
    <glyph glyph-name="Rcaron" unicode="&#x158;" horiz-adv-x="600" 
d="M347 334l16 -2q51 -11 78 -48t46 -103q10 -37 18.5 -68.5t20.5 -55t29.5 -37t47.5 -14.5v-8q-21 -3 -43 -3q-39 0 -64.5 9t-42 28.5t-27 50.5t-19.5 75q-10 44 -22 84t-42 63q-15 10 -30 14.5t-42 4.5h-75v-228q0 -28 6 -44t17 -25t26.5 -12.5t35.5 -5.5v-9h-24.5
t-25 0.5t-30 0.5h-39.5q-30 0 -65.5 -0.5t-61.5 -0.5v9q20 2 35.5 5.5t26 12.5t16 25t5.5 44v466q0 28 -5.5 44t-16 25t-26 12.5t-35.5 5.5v9q26 -1 61 -1.5t67 -0.5q19 0 31.5 0.5t24 0.5t24.5 0.5t33 0.5q45 0 79.5 -3.5t63.5 -14.5q43 -15 69.5 -47.5t26.5 -90.5
q0 -40 -14 -70t-37.5 -50.5t-53.5 -31.5t-63 -13v-3zM432 494q0 46 -14.5 74t-37.5 43t-52.5 20t-59.5 5q-11 0 -23.5 -0.5t-23.5 -0.5h-25v-290h96q30 0 53 8t40 22q22 17 34.5 46t12.5 73zM294 793l105 105l8 -7l-105 -160h-16l-105 161l8 6z" />
    <glyph glyph-name="rcaron" unicode="&#x159;" horiz-adv-x="356" 
d="M169 93q0 -28 4 -44t15 -24t30 -11t50 -5v-9h-28t-36 0.5t-37.5 0.5h-30.5q-32 0 -56.5 -0.5t-51.5 -0.5v9q20 2 34 5t23 11t13.5 24t4.5 44v251q0 20 -5 32.5t-14.5 19.5t-23 10.5t-31.5 5.5v13q43 1 79.5 2t62.5 1q-2 -24 -2.5 -50t-1.5 -50h1q6 19 16.5 38t25.5 34.5
t35 25t44 9.5q32 0 48.5 -15t16.5 -38q0 -38 -38 -38q-21 0 -28 9.5t-9 21.5t-4 21.5t-14 9.5q-18 0 -35 -13t-29.5 -34.5t-20 -50.5t-7.5 -60v-155zM170 561l105 105l8 -7l-105 -160h-16l-105 161l8 6z" />
    <glyph glyph-name="Sacute" unicode="&#x15a;" horiz-adv-x="523" 
d="M421 497q-8 31 -19 58t-29 47.5t-44 32.5t-62 12q-63 0 -99.5 -31.5t-36.5 -88.5q0 -27 8 -47t22 -35.5t33.5 -27t42.5 -22.5l57 -28q25 -12 55 -27.5t56 -38t43 -53t17 -73.5q0 -93 -62 -139t-164 -46q-41 0 -72.5 5t-54.5 12t-36.5 13t-16.5 8q-1 40 -2.5 79.5
t-2.5 78.5h11q9 -39 23 -71.5t35 -55.5t49.5 -35.5t67.5 -12.5q40 0 68 10.5t46 28.5t26 42.5t8 52.5q0 32 -10.5 55t-27.5 40t-38.5 29t-42.5 23l-51 25q-32 15 -61 31.5t-51.5 37.5t-35.5 48.5t-13 65.5q0 47 19 79t49.5 52t68 28.5t74.5 8.5q30 0 54.5 -3t43.5 -7t31 -7
t16 -3t5 1q1 0 2 1l5 -2l6 -151h-10zM328 876q5 5 11 8.5t16 3.5q11 0 20 -7t9 -21q0 -11 -6 -18t-15 -12l-174 -96l-6 9z" />
    <glyph glyph-name="sacute" unicode="&#x15b;" horiz-adv-x="377" 
d="M293 323q-4 16 -10.5 33.5t-18 32t-29.5 23.5t-45 9q-33 0 -57.5 -18t-24.5 -55q0 -29 15.5 -47t40.5 -29l52 -23q17 -8 37 -17.5t37.5 -24.5t29 -36.5t11.5 -51.5q0 -64 -44 -96.5t-116 -32.5q-29 0 -51.5 4t-39 8.5t-26 9t-12.5 6.5l-2 104h10q13 -50 40 -83.5
t80 -33.5t75.5 26.5t22.5 61.5q0 20 -7 34.5t-18 25.5t-25.5 18.5t-29.5 14.5l-36 16q-21 9 -40.5 20t-33.5 25t-22.5 32.5t-8.5 43.5q0 32 13.5 53.5t34.5 35t46.5 19t49.5 5.5q41 0 69 -7t36 -7q2 0 3 0.5t2 0.5l2 -1v-99h-10zM243 644q5 5 11 8.5t16 3.5q11 0 20 -7
t9 -21q0 -11 -6 -18t-15 -12l-174 -96l-6 9z" />
    <glyph glyph-name="Scircumflex" unicode="&#x15c;" horiz-adv-x="523" 
d="M421 497q-8 31 -19 58t-29 47.5t-44 32.5t-62 12q-63 0 -99.5 -31.5t-36.5 -88.5q0 -27 8 -47t22 -35.5t33.5 -27t42.5 -22.5l57 -28q25 -12 55 -27.5t56 -38t43 -53t17 -73.5q0 -93 -62 -139t-164 -46q-41 0 -72.5 5t-54.5 12t-36.5 13t-16.5 8q-1 40 -2.5 79.5
t-2.5 78.5h11q9 -39 23 -71.5t35 -55.5t49.5 -35.5t67.5 -12.5q40 0 68 10.5t46 28.5t26 42.5t8 52.5q0 32 -10.5 55t-27.5 40t-38.5 29t-42.5 23l-51 25q-32 15 -61 31.5t-51.5 37.5t-35.5 48.5t-13 65.5q0 47 19 79t49.5 52t68 28.5t74.5 8.5q30 0 54.5 -3t43.5 -7t31 -7
t16 -3t5 1q1 0 2 1l5 -2l6 -151h-10zM162 731l-8 6l105 161h16l105 -160l-8 -7l-105 105z" />
    <glyph glyph-name="scircumflex" unicode="&#x15d;" horiz-adv-x="376" 
d="M293 323q-4 16 -10.5 33.5t-18 32t-29.5 23.5t-45 9q-33 0 -57.5 -18t-24.5 -55q0 -29 15.5 -47t40.5 -29l52 -23q17 -8 37 -17.5t37.5 -24.5t29 -36.5t11.5 -51.5q0 -64 -44 -96.5t-116 -32.5q-29 0 -51.5 4t-39 8.5t-26 9t-12.5 6.5l-2 104h10q13 -50 40 -83.5
t80 -33.5t75.5 26.5t22.5 61.5q0 20 -7 34.5t-18 25.5t-25.5 18.5t-29.5 14.5l-36 16q-21 9 -40.5 20t-33.5 25t-22.5 32.5t-8.5 43.5q0 32 13.5 53.5t34.5 35t46.5 19t49.5 5.5q41 0 69 -7t36 -7q2 0 3 0.5t2 0.5l2 -1v-99h-10zM87 499l-8 6l105 161h16l105 -160l-8 -7
l-105 105z" />
    <glyph glyph-name="Scedilla" unicode="&#x15e;" horiz-adv-x="523" 
d="M421 497q-8 31 -19 58t-29 47.5t-44 32.5t-62 12q-63 0 -99.5 -31.5t-36.5 -88.5q0 -27 8 -47t22 -35.5t33.5 -27t42.5 -22.5l57 -28q25 -12 55 -27.5t56 -38t43 -53t17 -73.5q0 -45 -15 -78.5t-42.5 -56.5t-66 -35t-85.5 -14l-26 -61l3 -1q4 3 15.5 9t32.5 6
q32 0 54 -19.5t22 -53.5q0 -21 -8.5 -38t-23 -28t-33 -17t-38.5 -6t-35 3.5t-29 10.5l3 9q18 -9 45 -9q33 0 54.5 18.5t21.5 53.5q0 30 -15 43t-38 13q-14 0 -22.5 -3.5t-15.5 -10.5l-11 5l29 75h-2q-41 0 -72.5 5t-54.5 12t-36.5 13t-16.5 8q-1 40 -2.5 79.5t-2.5 78.5h11
q9 -39 23 -71.5t35 -55.5t49.5 -35.5t67.5 -12.5q40 0 68 10.5t46 28.5t26 42.5t8 52.5q0 32 -10.5 55t-27.5 40t-38.5 29t-42.5 23l-51 25q-32 15 -61 31.5t-51.5 37.5t-35.5 48.5t-13 65.5q0 47 19 79t49.5 52t68 28.5t74.5 8.5q30 0 54.5 -3t43.5 -7t31 -7t16 -3t5 1
q1 0 2 1l5 -2l6 -151h-10z" />
    <glyph glyph-name="scedilla" unicode="&#x15f;" horiz-adv-x="377" 
d="M293 323q-4 16 -10.5 33.5t-18 32t-29.5 23.5t-45 9q-33 0 -57.5 -18t-24.5 -55q0 -29 15.5 -47t40.5 -29l52 -23q17 -8 37 -17.5t37.5 -24.5t29 -36.5t11.5 -51.5q0 -60 -39 -92t-102 -36l-26 -61l3 -1q4 3 15.5 9t32.5 6q32 0 54 -19.5t22 -53.5q0 -21 -8.5 -38
t-23 -28t-33 -17t-38.5 -6t-35 3.5t-29 10.5l3 9q18 -9 45 -9q33 0 54.5 18.5t21.5 53.5q0 30 -15 43t-38 13q-14 0 -22.5 -3.5t-15.5 -10.5l-11 5l29 75h-4q-29 0 -51.5 4t-39 8.5t-26 9t-12.5 6.5l-2 104h10q13 -50 40 -83.5t80 -33.5t75.5 26.5t22.5 61.5q0 20 -7 34.5
t-18 25.5t-25.5 18.5t-29.5 14.5l-36 16q-21 9 -40.5 20t-33.5 25t-22.5 32.5t-8.5 43.5q0 32 13.5 53.5t34.5 35t46.5 19t49.5 5.5q41 0 69 -7t36 -7q2 0 3 0.5t2 0.5l2 -1v-99h-10z" />
    <glyph glyph-name="Scaron" unicode="&#x160;" horiz-adv-x="523" 
d="M421 497q-8 31 -19 58t-29 47.5t-44 32.5t-62 12q-63 0 -99.5 -31.5t-36.5 -88.5q0 -27 8 -47t22 -35.5t33.5 -27t42.5 -22.5l57 -28q25 -12 55 -27.5t56 -38t43 -53t17 -73.5q0 -93 -62 -139t-164 -46q-41 0 -72.5 5t-54.5 12t-36.5 13t-16.5 8q-1 40 -2.5 79.5
t-2.5 78.5h11q9 -39 23 -71.5t35 -55.5t49.5 -35.5t67.5 -12.5q40 0 68 10.5t46 28.5t26 42.5t8 52.5q0 32 -10.5 55t-27.5 40t-38.5 29t-42.5 23l-51 25q-32 15 -61 31.5t-51.5 37.5t-35.5 48.5t-13 65.5q0 47 19 79t49.5 52t68 28.5t74.5 8.5q30 0 54.5 -3t43.5 -7t31 -7
t16 -3t5 1q1 0 2 1l5 -2l6 -151h-10zM276 789l105 105l8 -7l-105 -160h-16l-105 161l8 6z" />
    <glyph glyph-name="scaron" unicode="&#x161;" horiz-adv-x="377" 
d="M293 323q-4 16 -10.5 33.5t-18 32t-29.5 23.5t-45 9q-33 0 -57.5 -18t-24.5 -55q0 -29 15.5 -47t40.5 -29l52 -23q17 -8 37 -17.5t37.5 -24.5t29 -36.5t11.5 -51.5q0 -64 -44 -96.5t-116 -32.5q-29 0 -51.5 4t-39 8.5t-26 9t-12.5 6.5l-2 104h10q13 -50 40 -83.5
t80 -33.5t75.5 26.5t22.5 61.5q0 20 -7 34.5t-18 25.5t-25.5 18.5t-29.5 14.5l-36 16q-21 9 -40.5 20t-33.5 25t-22.5 32.5t-8.5 43.5q0 32 13.5 53.5t34.5 35t46.5 19t49.5 5.5q41 0 69 -7t36 -7q2 0 3 0.5t2 0.5l2 -1v-99h-10zM199 561l105 105l8 -7l-105 -160h-16
l-105 161l8 6z" />
    <glyph glyph-name="Tcommaaccent" unicode="&#x162;" horiz-adv-x="592" 
d="M447 656q41 0 68.5 1.5t47.5 3.5l1 -1l8 -165h-10q-6 24 -12 44t-16 36.5t-24.5 28.5t-37.5 20q-20 6 -46 9.5t-69 3.5h-18v-541q0 -28 6.5 -44t19 -25t30 -12.5t40.5 -5.5v-9q-26 0 -58.5 0.5t-78.5 0.5h-33t-36 -0.5t-34.5 -0.5h-29.5v9q22 2 40 5.5t30.5 12.5t19 25
t6.5 44v541h-26q-43 0 -69 -3.5t-46 -9.5q-23 -8 -38 -20t-24.5 -28.5t-15.5 -36.5t-12 -44h-10l8 165l1 1q20 -2 47.5 -3.5t68.5 -1.5h302zM260 -199q24 8 42 27.5t18 49.5h-1q-2 -1 -7.5 -3.5t-17.5 -2.5q-18 0 -30.5 11t-12.5 32q0 20 12.5 32t31.5 12q27 0 40 -18.5
t13 -43.5q0 -41 -23.5 -68t-60.5 -38z" />
    <glyph glyph-name="tcommaaccent" unicode="&#x163;" horiz-adv-x="313" 
d="M95 470q26 7 39 28t18 56h10q-2 -33 -2.5 -63.5t-0.5 -65.5l130 1v-20l-130 1l-1 -270q0 -59 14 -88.5t58 -29.5q20 0 35.5 8t23.5 16l8 -6q-4 -6 -12.5 -13.5t-22 -15t-31.5 -12.5t-42 -5q-32 0 -51.5 10t-30 30t-13.5 48.5t-3 66.5v5v41.5t0.5 70.5t1 78.5t0.5 64.5
h-70v20l71 -1zM126 -199q24 8 42 27.5t18 49.5h-1q-2 -1 -7.5 -3.5t-17.5 -2.5q-18 0 -30.5 11t-12.5 32q0 20 12.5 32t31.5 12q27 0 40 -18.5t13 -43.5q0 -41 -23.5 -68t-60.5 -38z" />
    <glyph glyph-name="Tcaron" unicode="&#x164;" horiz-adv-x="592" 
d="M447 656q41 0 68.5 1.5t47.5 3.5l1 -1l8 -165h-10q-6 24 -12 44t-16 36.5t-24.5 28.5t-37.5 20q-20 6 -46 9.5t-69 3.5h-18v-541q0 -28 6.5 -44t19 -25t30 -12.5t40.5 -5.5v-9q-26 0 -58.5 0.5t-78.5 0.5h-33t-36 -0.5t-34.5 -0.5h-29.5v9q22 2 40 5.5t30.5 12.5t19 25
t6.5 44v541h-26q-43 0 -69 -3.5t-46 -9.5q-23 -8 -38 -20t-24.5 -28.5t-15.5 -36.5t-12 -44h-10l8 165l1 1q20 -2 47.5 -3.5t68.5 -1.5h302zM302 793l105 105l8 -7l-105 -160h-16l-105 161l8 6z" />
    <glyph glyph-name="tcaron" unicode="&#x165;" horiz-adv-x="326" 
d="M95 470q26 7 39 28t18 56h10q-2 -33 -2.5 -63.5t-0.5 -65.5l130 1v-20l-130 1l-1 -270q0 -59 14 -88.5t58 -29.5q20 0 35.5 8t23.5 16l8 -6q-4 -6 -12.5 -13.5t-22 -15t-31.5 -12.5t-42 -5q-32 0 -51.5 10t-30 30t-13.5 48.5t-3 66.5v5v41.5t0.5 70.5t1 78.5t0.5 64.5
h-70v20l71 -1zM376 626q0 -26 -8.5 -49t-23 -43t-33.5 -35.5t-41 -25.5l-9 10q15 10 28.5 23t24 28.5t17 32.5t5.5 35q-2 -1 -7.5 -3t-16.5 -2q-20 0 -34.5 12.5t-14.5 36.5q0 22 15 36t37 14q30 0 45.5 -20.5t15.5 -49.5z" />
    <glyph glyph-name="Tbar" unicode="&#x166;" horiz-adv-x="592" 
d="M137 382h124v255h-26q-43 0 -69 -3.5t-46 -9.5q-23 -8 -38 -20t-24.5 -28.5t-15.5 -36.5t-12 -44h-10l8 165l1 1q20 -2 47.5 -3.5t68.5 -1.5h302q41 0 68.5 1.5t47.5 3.5l1 -1l8 -165h-10q-6 24 -12 44t-16 36.5t-24.5 28.5t-37.5 20q-20 6 -46 9.5t-69 3.5h-18v-255h125
v-18h-125v-268q0 -28 6.5 -44t19 -25t30 -12.5t40.5 -5.5v-9q-26 0 -58.5 0.5t-78.5 0.5h-33t-36 -0.5t-34.5 -0.5h-29.5v9q22 2 40 5.5t30.5 12.5t19 25t6.5 44v268h-124v18z" />
    <glyph glyph-name="tbar" unicode="&#x167;" horiz-adv-x="313" 
d="M158 305v-168q0 -59 14 -88.5t58 -29.5q20 0 35.5 8t23.5 16l8 -6q-4 -6 -12.5 -13.5t-22 -15t-31.5 -12.5t-42 -5q-32 0 -51.5 10t-30 30t-13.5 48.5t-3 66.5v5v154h-66v15h67v47t1 39h-70v20l71 -1l1 45q26 7 39 28t18 56h10q-2 -33 -2.5 -63.5t-0.5 -65.5l130 1v-20
l-130 1l-1 -87h71v-15h-71z" />
    <glyph glyph-name="Utilde" unicode="&#x168;" horiz-adv-x="686" 
d="M363 17q72 0 112 25t54 69q9 27 12 59.5t3 70.5v321q0 28 -5.5 44t-16 25t-26 12.5t-35.5 5.5v9q26 0 48 -1t52 -1q23 0 38 0.5t26 0.5t21 0.5t23 0.5v-9q-20 -2 -35.5 -5.5t-26 -12.5t-16 -25t-5.5 -44v-237q0 -38 1 -76t-4 -77q-4 -37 -16.5 -70t-38.5 -58t-69 -39.5
t-107 -14.5q-52 0 -89 8.5t-63 23.5t-42 36.5t-26 47.5q-13 32 -16.5 69.5t-3.5 79.5v307q0 28 -5.5 44t-16 25t-26 12.5t-35.5 5.5v9q9 0 24.5 -0.5t33 -0.5t36 -0.5t34.5 -0.5q36 0 66.5 1t49.5 1v-9q-20 -2 -35.5 -5.5t-26 -12.5t-16 -25t-5.5 -44v-321q0 -43 4 -79
t16 -65q16 -37 53 -58.5t100 -21.5zM316 847q10 0 20.5 -2t30.5 -10l32 -14q14 -6 26 -11t24 -5q17 0 30 11t24 31l7 -2q-12 -39 -32 -56t-49 -17q-14 0 -26 4t-32 12l-24 10q-14 6 -26.5 10.5t-23.5 4.5q-14 0 -28 -9t-25 -29l-7 3q11 36 31.5 52.5t47.5 16.5z" />
    <glyph glyph-name="utilde" unicode="&#x169;" horiz-adv-x="530" 
d="M363 347q0 20 -5 32.5t-14.5 19.5t-23 10.5t-31.5 5.5v10q43 1 80.5 2t63.5 1q-2 -60 -3 -123.5t-1 -117.5v-109q0 -20 5 -32.5t14.5 -19.5t23 -10.5t31.5 -5.5v-10q-43 -1 -79.5 -1h-62.5q2 22 2 49.5v50.5q-16 -45 -55 -77t-103 -32q-35 0 -57.5 10t-35.5 29.5
t-17.5 47.5t-4.5 65v205q0 20 -4 32.5t-12.5 19.5t-21.5 10.5t-31 5.5v10q43 1 78 2t61 1q-2 -60 -3 -123.5t-1 -117.5v-45q0 -57 17 -89t65 -32q27 0 49 11.5t38 31t26 45t12 54.5v184zM205 615q10 0 20.5 -2t30.5 -10l32 -14q14 -6 26 -11t24 -5q17 0 30 11t24 31l7 -2
q-12 -39 -32 -56t-49 -17q-14 0 -26 4t-32 12l-24 10q-14 6 -26.5 10.5t-23.5 4.5q-14 0 -28 -9t-25 -29l-7 3q11 36 31.5 52.5t47.5 16.5z" />
    <glyph glyph-name="Umacron" unicode="&#x16a;" horiz-adv-x="686" 
d="M363 17q72 0 112 25t54 69q9 27 12 59.5t3 70.5v321q0 28 -5.5 44t-16 25t-26 12.5t-35.5 5.5v9q26 0 48 -1t52 -1q23 0 38 0.5t26 0.5t21 0.5t23 0.5v-9q-20 -2 -35.5 -5.5t-26 -12.5t-16 -25t-5.5 -44v-237q0 -38 1 -76t-4 -77q-4 -37 -16.5 -70t-38.5 -58t-69 -39.5
t-107 -14.5q-52 0 -89 8.5t-63 23.5t-42 36.5t-26 47.5q-13 32 -16.5 69.5t-3.5 79.5v307q0 28 -5.5 44t-16 25t-26 12.5t-35.5 5.5v9q9 0 24.5 -0.5t33 -0.5t36 -0.5t34.5 -0.5q36 0 66.5 1t49.5 1v-9q-20 -2 -35.5 -5.5t-26 -12.5t-16 -25t-5.5 -44v-321q0 -43 4 -79
t16 -65q16 -37 53 -58.5t100 -21.5zM235 798v32h252v-32h-252z" />
    <glyph glyph-name="umacron" unicode="&#x16b;" horiz-adv-x="530" 
d="M363 347q0 20 -5 32.5t-14.5 19.5t-23 10.5t-31.5 5.5v10q43 1 80.5 2t63.5 1q-2 -60 -3 -123.5t-1 -117.5v-109q0 -20 5 -32.5t14.5 -19.5t23 -10.5t31.5 -5.5v-10q-43 -1 -79.5 -1h-62.5q2 22 2 49.5v50.5q-16 -45 -55 -77t-103 -32q-35 0 -57.5 10t-35.5 29.5
t-17.5 47.5t-4.5 65v205q0 20 -4 32.5t-12.5 19.5t-21.5 10.5t-31 5.5v10q43 1 78 2t61 1q-2 -60 -3 -123.5t-1 -117.5v-45q0 -57 17 -89t65 -32q27 0 49 11.5t38 31t26 45t12 54.5v184zM134 566v32h252v-32h-252z" />
    <glyph glyph-name="Ubreve" unicode="&#x16c;" horiz-adv-x="686" 
d="M363 17q72 0 112 25t54 69q9 27 12 59.5t3 70.5v321q0 28 -5.5 44t-16 25t-26 12.5t-35.5 5.5v9q26 0 48 -1t52 -1q23 0 38 0.5t26 0.5t21 0.5t23 0.5v-9q-20 -2 -35.5 -5.5t-26 -12.5t-16 -25t-5.5 -44v-237q0 -38 1 -76t-4 -77q-4 -37 -16.5 -70t-38.5 -58t-69 -39.5
t-107 -14.5q-52 0 -89 8.5t-63 23.5t-42 36.5t-26 47.5q-13 32 -16.5 69.5t-3.5 79.5v307q0 28 -5.5 44t-16 25t-26 12.5t-35.5 5.5v9q9 0 24.5 -0.5t33 -0.5t36 -0.5t34.5 -0.5q36 0 66.5 1t49.5 1v-9q-20 -2 -35.5 -5.5t-26 -12.5t-16 -25t-5.5 -44v-321q0 -43 4 -79
t16 -65q16 -37 53 -58.5t100 -21.5zM356 788q49 0 75.5 25.5t38.5 56.5l10 -4q-2 -11 -8.5 -29.5t-20 -36.5t-36.5 -31t-59 -13t-59 13t-36.5 31t-20 36.5t-8.5 29.5l10 4q6 -15 15.5 -30t23 -26.5t32 -18.5t43.5 -7z" />
    <glyph glyph-name="ubreve" unicode="&#x16d;" horiz-adv-x="530" 
d="M363 347q0 20 -5 32.5t-14.5 19.5t-23 10.5t-31.5 5.5v10q43 1 80.5 2t63.5 1q-2 -60 -3 -123.5t-1 -117.5v-109q0 -20 5 -32.5t14.5 -19.5t23 -10.5t31.5 -5.5v-10q-43 -1 -79.5 -1h-62.5q2 22 2 49.5v50.5q-16 -45 -55 -77t-103 -32q-35 0 -57.5 10t-35.5 29.5
t-17.5 47.5t-4.5 65v205q0 20 -4 32.5t-12.5 19.5t-21.5 10.5t-31 5.5v10q43 1 78 2t61 1q-2 -60 -3 -123.5t-1 -117.5v-45q0 -57 17 -89t65 -32q27 0 49 11.5t38 31t26 45t12 54.5v184zM260 556q49 0 75.5 25.5t38.5 56.5l10 -4q-2 -11 -8.5 -29.5t-20 -36.5t-36.5 -31
t-59 -13t-59 13t-36.5 31t-20 36.5t-8.5 29.5l10 4q6 -15 15.5 -30t23 -26.5t32 -18.5t43.5 -7z" />
    <glyph glyph-name="Uring" unicode="&#x16e;" horiz-adv-x="686" 
d="M363 17q72 0 112 25t54 69q9 27 12 59.5t3 70.5v321q0 28 -5.5 44t-16 25t-26 12.5t-35.5 5.5v9q26 0 48 -1t52 -1q23 0 38 0.5t26 0.5t21 0.5t23 0.5v-9q-20 -2 -35.5 -5.5t-26 -12.5t-16 -25t-5.5 -44v-237q0 -38 1 -76t-4 -77q-4 -37 -16.5 -70t-38.5 -58t-69 -39.5
t-107 -14.5q-52 0 -89 8.5t-63 23.5t-42 36.5t-26 47.5q-13 32 -16.5 69.5t-3.5 79.5v307q0 28 -5.5 44t-16 25t-26 12.5t-35.5 5.5v9q9 0 24.5 -0.5t33 -0.5t36 -0.5t34.5 -0.5q36 0 66.5 1t49.5 1v-9q-20 -2 -35.5 -5.5t-26 -12.5t-16 -25t-5.5 -44v-321q0 -43 4 -79
t16 -65q16 -37 53 -58.5t100 -21.5zM452 806q0 -38 -26 -62.5t-64 -24.5q-37 0 -63 24.5t-26 62.5q0 37 26 61.5t63 24.5t63.5 -24.5t26.5 -61.5zM428 806q0 30 -18.5 48.5t-47.5 18.5q-27 0 -46 -18.5t-19 -48.5q0 -31 19 -49.5t46 -18.5q29 0 47.5 18.5t18.5 49.5z" />
    <glyph glyph-name="uring" unicode="&#x16f;" horiz-adv-x="530" 
d="M363 347q0 20 -5 32.5t-14.5 19.5t-23 10.5t-31.5 5.5v10q43 1 80.5 2t63.5 1q-2 -60 -3 -123.5t-1 -117.5v-109q0 -20 5 -32.5t14.5 -19.5t23 -10.5t31.5 -5.5v-10q-43 -1 -79.5 -1h-62.5q2 22 2 49.5v50.5q-16 -45 -55 -77t-103 -32q-35 0 -57.5 10t-35.5 29.5
t-17.5 47.5t-4.5 65v205q0 20 -4 32.5t-12.5 19.5t-21.5 10.5t-31 5.5v10q43 1 78 2t61 1q-2 -60 -3 -123.5t-1 -117.5v-45q0 -57 17 -89t65 -32q27 0 49 11.5t38 31t26 45t12 54.5v184zM352 574q0 -38 -26 -62.5t-64 -24.5q-37 0 -63 24.5t-26 62.5q0 37 26 61.5t63 24.5
t63.5 -24.5t26.5 -61.5zM328 574q0 30 -18.5 48.5t-47.5 18.5q-27 0 -46 -18.5t-19 -48.5q0 -31 19 -49.5t46 -18.5q29 0 47.5 18.5t18.5 49.5z" />
    <glyph glyph-name="Uhungarumlaut" unicode="&#x170;" horiz-adv-x="686" 
d="M363 17q72 0 112 25t54 69q9 27 12 59.5t3 70.5v321q0 28 -5.5 44t-16 25t-26 12.5t-35.5 5.5v9q26 0 48 -1t52 -1q23 0 38 0.5t26 0.5t21 0.5t23 0.5v-9q-20 -2 -35.5 -5.5t-26 -12.5t-16 -25t-5.5 -44v-237q0 -38 1 -76t-4 -77q-4 -37 -16.5 -70t-38.5 -58t-69 -39.5
t-107 -14.5q-52 0 -89 8.5t-63 23.5t-42 36.5t-26 47.5q-13 32 -16.5 69.5t-3.5 79.5v307q0 28 -5.5 44t-16 25t-26 12.5t-35.5 5.5v9q9 0 24.5 -0.5t33 -0.5t36 -0.5t34.5 -0.5q36 0 66.5 1t49.5 1v-9q-20 -2 -35.5 -5.5t-26 -12.5t-16 -25t-5.5 -44v-321q0 -43 4 -79
t16 -65q16 -37 53 -58.5t100 -21.5zM268 737l-6 7l61 131h55zM408 737l-6 7l61 131h55z" />
    <glyph glyph-name="uhungarumlaut" unicode="&#x171;" horiz-adv-x="530" 
d="M363 347q0 20 -5 32.5t-14.5 19.5t-23 10.5t-31.5 5.5v10q43 1 80.5 2t63.5 1q-2 -60 -3 -123.5t-1 -117.5v-109q0 -20 5 -32.5t14.5 -19.5t23 -10.5t31.5 -5.5v-10q-43 -1 -79.5 -1h-62.5q2 22 2 49.5v50.5q-16 -45 -55 -77t-103 -32q-35 0 -57.5 10t-35.5 29.5
t-17.5 47.5t-4.5 65v205q0 20 -4 32.5t-12.5 19.5t-21.5 10.5t-31 5.5v10q43 1 78 2t61 1q-2 -60 -3 -123.5t-1 -117.5v-45q0 -57 17 -89t65 -32q27 0 49 11.5t38 31t26 45t12 54.5v184zM162 505l-6 7l61 131h55zM302 505l-6 7l61 131h55z" />
    <glyph glyph-name="Uogonek" unicode="&#x172;" horiz-adv-x="686" 
d="M417 -206q-10 -4 -23.5 -7t-28.5 -3q-16 0 -32 3.5t-29 12t-21 24t-8 39.5q0 18 8 36t20 35t26.5 31t26.5 25h-4q-52 0 -89 8.5t-63 23.5t-42 36.5t-26 47.5q-13 32 -16.5 69.5t-3.5 79.5v307q0 28 -5.5 44t-16 25t-26 12.5t-35.5 5.5v9q9 0 24.5 -0.5t33 -0.5t36 -0.5
t34.5 -0.5q36 0 66.5 1t49.5 1v-9q-20 -2 -35.5 -5.5t-26 -12.5t-16 -25t-5.5 -44v-321q0 -43 4 -79t16 -65q16 -37 53 -58.5t100 -21.5q72 0 112 25t54 69q9 27 12 59.5t3 70.5v321q0 28 -5.5 44t-16 25t-26 12.5t-35.5 5.5v9q26 0 48 -1t52 -1q23 0 38 0.5t26 0.5t21 0.5
t23 0.5v-9q-20 -2 -35.5 -5.5t-26 -12.5t-16 -25t-5.5 -44v-237q0 -38 1 -76t-4 -77q-4 -35 -15.5 -67t-35 -56.5t-62 -39.5t-95.5 -18q-10 -12 -20.5 -27.5t-19 -32.5t-14 -34t-5.5 -33q0 -32 17.5 -49t48.5 -17q19 0 32 4z" />
    <glyph glyph-name="uogonek" unicode="&#x173;" horiz-adv-x="530" 
d="M450 -206q-10 -4 -23.5 -7t-28.5 -3q-16 0 -32 3.5t-29 12t-21 24t-8 39.5q0 20 10 40.5t24 38.5t30.5 33t28.5 24h-40q2 22 2 49.5v50.5q-16 -45 -55 -77t-103 -32q-35 0 -57.5 10t-35.5 29.5t-17.5 47.5t-4.5 65v205q0 20 -4 32.5t-12.5 19.5t-21.5 10.5t-31 5.5v10
q43 1 78 2t61 1q-2 -60 -3 -123.5t-1 -117.5v-45q0 -57 17 -89t65 -32q27 0 49 11.5t38 31t26 45t12 54.5v184q0 20 -5 32.5t-14.5 19.5t-23 10.5t-31.5 5.5v10q43 1 80.5 2t63.5 1q-2 -60 -3 -123.5t-1 -117.5v-109q0 -20 5 -32.5t14.5 -19.5t23 -10.5t31.5 -5.5v-10
q-25 0 -46.5 -0.5t-41.5 -0.5q-10 -12 -21.5 -28t-21.5 -34t-16.5 -37t-6.5 -36q0 -32 17.5 -49t48.5 -17q19 0 32 4z" />
    <glyph glyph-name="Wcircumflex" unicode="&#x174;" horiz-adv-x="958" 
d="M486 655v1h27q16 -48 34 -101t36 -108t36 -108.5t34 -102.5q8 -26 21 -62t21 -63h1q7 23 14 45q6 19 13.5 40.5t13.5 39.5q21 63 37.5 112t28.5 88t21 68t16 52q8 26 12.5 39.5t4.5 21.5q0 9 -7.5 14.5t-19 9.5t-25 6t-25.5 3v8q26 -1 50.5 -1.5t44.5 -0.5q23 0 47.5 0.5
t42.5 1.5v-8q-20 -3 -33.5 -9.5t-22.5 -16.5t-15.5 -23.5t-12.5 -30.5q-30 -84 -56 -160t-49.5 -147t-46.5 -138t-47 -131h-31l-12 40q-5 17 -12 38.5t-14 43.5q-8 22 -19 54.5t-24.5 71.5t-28.5 83.5t-31 91.5q-6 20 -17 52t-17 55h-1q-8 -26 -16 -54t-16 -52
q-24 -73 -47.5 -146.5t-46.5 -140.5q-13 -38 -25 -72.5t-22 -64.5h-31l-41 122q-23 69 -59 174.5t-86 252.5q-10 30 -17 49t-16.5 30.5t-24 17.5t-38.5 10v8q34 -1 65.5 -1.5t54.5 -0.5t51 0.5t56 1.5v-8q-6 0 -18 -1.5t-24 -5.5t-21 -10.5t-9 -15.5q0 -5 2.5 -13t4.5 -16
q31 -89 61 -175t61 -178q4 -11 9.5 -27t11.5 -33t12 -33.5t9 -28.5h2l17.5 57.5t20.5 65.5q21 63 40 124.5t36 116.5t30.5 101t23.5 78zM403 731l-8 6l105 161h16l105 -160l-8 -7l-105 105z" />
    <glyph glyph-name="wcircumflex" unicode="&#x175;" horiz-adv-x="683" 
d="M164 91q-25 66 -50.5 138.5t-50.5 138.5q-8 21 -20 33t-37 17v9q17 -2 41 -2.5t48 -0.5q26 0 53 0.5t46 2.5v-9q-28 -5 -44.5 -12.5t-16.5 -19.5q0 -9 5.5 -24.5t10.5 -28.5l48 -143l7.5 -22.5l11.5 -34.5q7 -21 16 -45q1 5 4.5 14.5t6.5 17.5l110 307q2 0 5 -0.5
t11 -0.5q7 0 7.5 0.5t2.5 0.5q1 -9 9 -32.5t19 -53.5t23.5 -63t23.5 -63l33 -89q1 -4 3.5 -9.5t4.5 -11.5q3 -7 5 -15q3 10 8 25t11 31.5t12 34.5t12 34l5 14q21 60 36 101.5t15 55.5q0 13 -19.5 20t-42.5 12v9q17 -2 40.5 -2.5t42.5 -0.5q21 0 33.5 0.5t29.5 2.5v-9
q-26 -6 -36 -14.5t-18 -28.5l-16 -41q-18 -46 -37.5 -98t-37 -101t-32 -88.5t-21.5 -59.5h-18q-5 16 -13.5 41t-19.5 54.5t-22.5 61.5t-22.5 63q-5 13 -11.5 30t-12.5 34.5t-11.5 34.5t-8.5 31q-1 -3 -3.5 -10t-5.5 -15t-5.5 -15t-3.5 -10q-14 -40 -31 -87.5t-33 -92.5
l-42 -120h-18zM257 499l-8 6l105 161h16l105 -160l-8 -7l-105 105z" />
    <glyph glyph-name="Ycircumflex" unicode="&#x176;" horiz-adv-x="549" 
d="M314 293v-197q0 -28 6.5 -44t19 -25t30 -12.5t40.5 -5.5v-9q-26 0 -62.5 0.5t-82.5 0.5q-30 0 -64 -0.5t-60 -0.5v9q22 2 40 5.5t30.5 12.5t19 25t6.5 44v179q-14 24 -36.5 65t-48.5 87.5t-52.5 92.5t-46.5 80q-13 21 -22.5 32.5t-34.5 16.5v9q24 -1 51 -1.5t52 -0.5
t54.5 0.5t47.5 1.5v-9q-61 -10 -61 -32q0 -10 6.5 -24t17.5 -33q23 -40 48 -84t48 -81q11 -19 22 -36t19 -32h3q10 17 18 31.5t21 38.5q24 44 50 86.5t46 82.5q8 17 14 30t6 22q0 14 -19 20.5t-43 10.5v9q17 -2 38 -2h39h42t37 2v-9q-13 -3 -22 -6t-16 -8.5t-13.5 -14
t-14.5 -22.5zM180 731l-8 6l105 161h16l105 -160l-8 -7l-105 105z" />
    <glyph glyph-name="ycircumflex" unicode="&#x177;" horiz-adv-x="435" 
d="M388 363q-8 -20 -22.5 -55.5t-31.5 -77.5t-34.5 -86.5t-32.5 -81.5q-20 -52 -38 -106t-40 -97.5t-52 -71t-75 -27.5q-32 0 -52 14t-20 43q0 17 10 25.5t27 8.5q25 0 30 -12t5 -24q0 -16 1.5 -25.5t14.5 -9.5q23 0 43.5 20.5t37 52t30 67.5t23.5 68q-35 84 -69.5 169.5
t-70.5 170.5l-18 42q-8 18 -19 29t-36 16v12q16 -2 43 -2.5t51 -0.5q26 0 52 0.5t44 2.5v-12q-7 -2 -17 -5.5t-19.5 -8t-16.5 -9.5t-7 -9q0 -9 5 -23.5t12 -31.5q11 -30 25 -65t28 -69.5t26.5 -66.5t21.5 -57q2 9 8 25.5t13.5 36.5t15.5 40.5t14 36.5q8 20 17 42t17 43
q11 29 19 52t8 34q0 7 -7.5 13t-18 10t-21 7l-17.5 5v12q17 -2 38.5 -2.5t40.5 -0.5q21 0 37.5 0.5t33.5 2.5v-12q-28 -6 -37.5 -17.5t-19.5 -34.5zM137 499l-8 6l105 161h16l105 -160l-8 -7l-105 105z" />
    <glyph glyph-name="Ydieresis" unicode="&#x178;" horiz-adv-x="549" 
d="M314 293v-197q0 -28 6.5 -44t19 -25t30 -12.5t40.5 -5.5v-9q-26 0 -62.5 0.5t-82.5 0.5q-30 0 -64 -0.5t-60 -0.5v9q22 2 40 5.5t30.5 12.5t19 25t6.5 44v179q-14 24 -36.5 65t-48.5 87.5t-52.5 92.5t-46.5 80q-13 21 -22.5 32.5t-34.5 16.5v9q24 -1 51 -1.5t52 -0.5
t54.5 0.5t47.5 1.5v-9q-61 -10 -61 -32q0 -10 6.5 -24t17.5 -33q23 -40 48 -84t48 -81q11 -19 22 -36t19 -32h3q10 17 18 31.5t21 38.5q24 44 50 86.5t46 82.5q8 17 14 30t6 22q0 14 -19 20.5t-43 10.5v9q17 -2 38 -2h39h42t37 2v-9q-13 -3 -22 -6t-16 -8.5t-13.5 -14
t-14.5 -22.5zM214 798q-20 0 -32 12t-12 32t13 32t33 12q19 0 31.5 -11.5t12.5 -31.5q0 -22 -13 -33.5t-33 -11.5zM367 798q-20 0 -32.5 12t-12.5 32t13 32t34 12q18 0 30.5 -11.5t12.5 -31.5q0 -22 -12.5 -33.5t-32.5 -11.5z" />
    <glyph glyph-name="Zacute" unicode="&#x179;" horiz-adv-x="576" 
d="M541 642l-423 -623h205q53 0 85.5 8.5t52.5 26.5t32.5 46.5t24.5 69.5h9q0 -2 -0.5 -15t-1.5 -32t-2.5 -41t-2.5 -40.5t-2.5 -31l-1.5 -12.5q-19 2 -48 2h-67h-377v18l422 621h-179q-46 0 -72.5 -3.5t-46.5 -9.5q-23 -8 -38 -19.5t-24.5 -27.5t-15.5 -35.5t-12 -43.5h-10
l8 162l1 1q20 -2 49 -3.5t70 -1.5h211q46 0 86 0.5t68 1.5v-18zM365 876q5 5 11 8.5t16 3.5q11 0 20 -7t9 -21q0 -11 -6 -18t-15 -12l-174 -96l-6 9z" />
    <glyph glyph-name="zacute" unicode="&#x17a;" horiz-adv-x="437" 
d="M28 14l287 394l-1 1q-17 -1 -33 -1h-33h-35q-42 0 -63.5 -3.5t-36.5 -11.5q-22 -11 -32 -29.5t-18 -45.5h-10q1 28 2 57t3 55q17 -2 58 -3.5t89 -1.5h72h31t33.5 0.5t30.5 1t22 0.5l2 -15q-33 -45 -70.5 -94.5t-75 -100.5t-74.5 -102t-70 -99q15 1 37 1h40h59
q41 0 62.5 6t35.5 17q17 13 26 32t17 41h8q-1 -29 -3 -58t-4 -57q-22 2 -62.5 2h-87.5h-204zM285 644q5 5 11 8.5t16 3.5q11 0 20 -7t9 -21q0 -11 -6 -18t-15 -12l-174 -96l-6 9z" />
    <glyph glyph-name="Zdotaccent" unicode="&#x17b;" horiz-adv-x="576" 
d="M541 642l-423 -623h205q53 0 85.5 8.5t52.5 26.5t32.5 46.5t24.5 69.5h9q0 -2 -0.5 -15t-1.5 -32t-2.5 -41t-2.5 -40.5t-2.5 -31l-1.5 -12.5q-19 2 -48 2h-67h-377v18l422 621h-179q-46 0 -72.5 -3.5t-46.5 -9.5q-23 -8 -38 -19.5t-24.5 -27.5t-15.5 -35.5t-12 -43.5h-10
l8 162l1 1q20 -2 49 -3.5t70 -1.5h211q46 0 86 0.5t68 1.5v-18zM298 816q-20 0 -32.5 12t-12.5 32t13 32t34 12q19 0 31.5 -11.5t12.5 -31.5q0 -22 -13 -33.5t-33 -11.5z" />
    <glyph glyph-name="zdotaccent" unicode="&#x17c;" horiz-adv-x="437" 
d="M28 14l287 394l-1 1q-17 -1 -33 -1h-33h-35q-42 0 -63.5 -3.5t-36.5 -11.5q-22 -11 -32 -29.5t-18 -45.5h-10q1 28 2 57t3 55q17 -2 58 -3.5t89 -1.5h72h31t33.5 0.5t30.5 1t22 0.5l2 -15q-33 -45 -70.5 -94.5t-75 -100.5t-74.5 -102t-70 -99q15 1 37 1h40h59
q41 0 62.5 6t35.5 17q17 13 26 32t17 41h8q-1 -29 -3 -58t-4 -57q-22 2 -62.5 2h-87.5h-204zM229 584q-20 0 -32.5 12t-12.5 32t13 32t34 12q19 0 31.5 -11.5t12.5 -31.5q0 -22 -13 -33.5t-33 -11.5z" />
    <glyph glyph-name="Zcaron" unicode="&#x17d;" horiz-adv-x="576" 
d="M541 642l-423 -623h205q53 0 85.5 8.5t52.5 26.5t32.5 46.5t24.5 69.5h9q0 -2 -0.5 -15t-1.5 -32t-2.5 -41t-2.5 -40.5t-2.5 -31l-1.5 -12.5q-19 2 -48 2h-67h-377v18l422 621h-179q-46 0 -72.5 -3.5t-46.5 -9.5q-23 -8 -38 -19.5t-24.5 -27.5t-15.5 -35.5t-12 -43.5h-10
l8 162l1 1q20 -2 49 -3.5t70 -1.5h211q46 0 86 0.5t68 1.5v-18zM288 793l105 105l8 -7l-105 -160h-16l-105 161l8 6z" />
    <glyph glyph-name="zcaron" unicode="&#x17e;" horiz-adv-x="437" 
d="M28 14l287 394l-1 1q-17 -1 -33 -1h-33h-35q-42 0 -63.5 -3.5t-36.5 -11.5q-22 -11 -32 -29.5t-18 -45.5h-10q1 28 2 57t3 55q17 -2 58 -3.5t89 -1.5h72h31t33.5 0.5t30.5 1t22 0.5l2 -15q-33 -45 -70.5 -94.5t-75 -100.5t-74.5 -102t-70 -99q15 1 37 1h40h59
q41 0 62.5 6t35.5 17q17 13 26 32t17 41h8q-1 -29 -3 -58t-4 -57q-22 2 -62.5 2h-87.5h-204zM225 561l105 105l8 -7l-105 -160h-16l-105 161l8 6z" />
    <glyph glyph-name="uni0186" unicode="&#x186;" horiz-adv-x="629" 
d="M569.004 320q0 79 -21.499 143.5t-60.9961 110q-39.498 45.5 -96.4941 70q-56.9971 24.5 -127.992 24.5q-38.998 0 -68.9961 -4.5t-52.4961 -9.5q-22.499 -5 -35.998 -10t-19.499 -5q-2 0 -3.5 0.5t-3.5 0.5l-1.99902 -1l-8 -167h10.999q7 38 20.999 70t36.498 55.5
q22.498 23.5 53.4961 36.5q30.999 13 72.9961 13q51.9971 0 92.9941 -24t69.4961 -66.5q28.498 -42.5 43.4971 -101t14.999 -127.5t-14.999 -127t-44.4971 -100t-71.9961 -66q-42.4971 -24 -96.4941 -24q-43.9971 0 -73.9951 13t-49.9971 35.5t-31.998 53.5t-19.999 67
h-10.999l7.99902 -151l2 -2q34.998 -15 77.9961 -26q42.9971 -11 105.993 -11q70.9951 0 127.492 21.5q56.4961 21.5 95.9941 63.5q39.4971 42 60.9961 103.5t21.499 141.5z" />
    <glyph glyph-name="uni018F" unicode="&#x18f;" horiz-adv-x="641" 
d="M32 511q15 30 37 58.5t53.5 50t72 35t91.5 13.5q68 0 124.5 -22.5t96.5 -65.5t62 -105t22 -141t-23 -142.5t-63.5 -108.5t-97 -69t-122.5 -24q-65 0 -113 19.5t-79.5 54.5t-47 82.5t-15.5 104.5v15l473 -7q0 13 1 24q0 10 0.5 19t0.5 14q0 71 -17 128.5t-49 98.5
t-80 63.5t-109 22.5q-42 0 -74.5 -12t-57 -30.5t-42 -40.5t-29.5 -43zM117 238v-27q0 -42 10.5 -78.5t32 -64t53 -43.5t73.5 -16q86 0 144 60t71 174z" />
    <glyph glyph-name="uni0190" unicode="&#x190;" 
d="M272.012 628q42.998 0 62.9961 -16.5q19.999 -16.5 19.999 -39.5q0 -8 -0.5 -15t-0.5 -12q0 -14 9 -23.5q8.99902 -9.5 28.998 -9.5q38.9971 0 38.9971 38q0 17 -11.999 34t-34.498 30.5q-22.498 13.5 -54.4961 22t-70.9961 8.5q-78.9951 0 -126.992 -35t-47.9971 -112
q0 -38 14.999 -67.5t38.498 -49.5q23.498 -20 52.4971 -31.5q28.998 -11.5 55.9961 -14.5v-1q-36.998 -2 -69.9961 -11.5t-57.4961 -28t-38.998 -47.5q-14.499 -29 -14.499 -69q0 -42 15.999 -76.5t44.498 -60q28.498 -25.5 68.9951 -39.5q40.498 -14 89.4951 -14
q55.9961 0 90.9941 13t55.9961 27l-6.99902 11q-15.999 -8 -44.4971 -17q-28.499 -9 -65.4961 -9q-24.999 0 -55.4971 8t-55.9961 27.5q-25.499 19.5 -42.998 52t-17.499 80.5q0 45 16.499 73t42.498 42q29.998 16 64.4961 19.5t68.4951 3.5v18q-87.9941 -1 -130.991 40
q-42.998 41 -42.998 119q0 68 30.998 100q30.999 32 80.9951 32z" />
    <glyph glyph-name="florin" unicode="&#x192;" 
d="M137 407l4 19l82 -1q9 43 22 91t35 87.5t56 65.5t85 26q55 0 79.5 -19.5t24.5 -45.5q0 -36 -37 -36q-34 0 -34 28q0 5 0.5 11t0.5 11q0 14 -7.5 25t-33.5 11q-31 0 -52 -21t-35 -53t-23 -72t-16 -77l-6 -32q29 0 60.5 0.5t60.5 0.5l-5 -19h-119l-80 -403q-9 -48 -24 -90
t-36 -73.5t-50 -49.5t-67 -18q-51 0 -71.5 18.5t-20.5 42.5q0 35 37 35q34 0 34 -29q0 -4 -0.5 -12t-0.5 -12q0 -10 4.5 -21t25.5 -11q24 0 40.5 16.5t28.5 43t20.5 61t15.5 70.5l84 432h-82z" />
    <glyph glyph-name="uni019D" unicode="&#x19d;" horiz-adv-x="698" 
d="M140 -69q0 -38 -3.5 -67t-14 -49t-30 -30.5t-51.5 -10.5q-43 0 -65.5 17t-22.5 47q0 17 10.5 28t31.5 11q20 0 29 -10t9 -25q0 -5 -0.5 -9t-0.5 -12q0 -14 3.5 -21t19.5 -7q14 0 24.5 7.5t18 24.5t11 45.5t3.5 69.5v622q0 28 -5.5 44t-16.5 25t-26.5 12.5t-35.5 5.5v9
q17 0 31 -1t39 -1h42.5t30.5 2l332 -437q19 -25 34 -46t25 -36q-1 13 -1 30v75v318q0 28 -5.5 44t-16 25t-26 12.5t-35.5 5.5v9q26 0 48.5 -1t52.5 -1q23 0 35.5 0.5t21 0.5t16 0.5t20.5 0.5v-9q-20 -2 -35.5 -5.5t-26 -12.5t-16 -25t-5.5 -44v-573h-12l-373 491
q-24 32 -39 52.5t-26 37.5v-28q0 -14 0.5 -32t0.5 -41v-538v0z" />
    <glyph glyph-name="uni019F" unicode="&#x19f;" horiz-adv-x="734" 
d="M367 668q78 0 135.5 -26.5t95.5 -72.5t57 -108.5t19 -134.5q0 -79 -21 -141.5t-61 -105.5t-96.5 -66t-128.5 -23t-128.5 23t-96.5 66t-61 105.5t-21 141.5q0 72 19 134.5t57 108.5t95.5 72.5t135.5 26.5zM367 10q63 0 106 27t68.5 71.5t36.5 101.5t11 117h-443
q0 -60 10.5 -117t36 -101.5t68 -71.5t106.5 -27zM367 647q-58 0 -99 -25t-67 -66.5t-39.5 -94.5t-15.5 -109h442q-2 55 -15.5 108.5t-39.5 94.5t-67 66.5t-99 25.5z" />
    <glyph glyph-name="Ohorn" unicode="&#x1a0;" horiz-adv-x="734" 
d="M367 10q64 0 106.5 27.5t68 72t36.5 101.5t11 117q0 58 -12 115.5t-38 102.5t-68.5 73t-103.5 28t-103 -28t-68.5 -73t-38 -102t-11.5 -116q0 -60 10.5 -117t36 -101.5t68 -72t106.5 -27.5zM367 668q78 0 135.5 -26.5t95.5 -72.5t57 -108.5t19 -134.5q0 -79 -21 -141.5
t-61 -105.5t-96.5 -66t-128.5 -23t-128.5 23t-96.5 66t-61 105.5t-21 141.5q0 72 19 134.5t57 108.5t95.5 72.5t135.5 26.5zM585 599q24 8 42 27.5t18 49.5h-1q-2 -1 -7.5 -3.5t-17.5 -2.5q-18 0 -30.5 11t-12.5 32q0 20 12.5 32t31.5 12q27 0 40 -18.5t13 -43.5
q0 -41 -23.5 -68t-60.5 -38z" />
    <glyph glyph-name="ohorn" unicode="&#x1a1;" horiz-adv-x="508" 
d="M458 214q0 -104 -52.5 -164.5t-152.5 -60.5q-99 0 -151 60t-52 161q0 50 14 91.5t40.5 71.5t64 46.5t85.5 16.5t85.5 -16.5t64 -46t40.5 -70t14 -89.5zM384 211q0 93 -32 150.5t-98 57.5q-65 0 -96.5 -57.5t-31.5 -150.5q0 -95 31.5 -150t96.5 -55t97.5 55t32.5 150z
M393 399q24 8 42 27.5t18 49.5h-1q-2 -1 -7.5 -3.5t-17.5 -2.5q-18 0 -30.5 11t-12.5 32q0 20 12.5 32t31.5 12q27 0 40 -18.5t13 -43.5q0 -41 -23.5 -68t-60.5 -38z" />
    <glyph glyph-name="Uhorn" unicode="&#x1af;" horiz-adv-x="686" 
d="M363 17q72 0 112 25t54 69q9 27 12 59.5t3 70.5v321q0 28 -5.5 44t-16 25t-26 12.5t-35.5 5.5v9q26 0 48 -1t52 -1q23 0 38 0.5t26 0.5t21 0.5t23 0.5v-9q-20 -2 -35.5 -5.5t-26 -12.5t-16 -25t-5.5 -44v-237q0 -38 1 -76t-4 -77q-4 -37 -16.5 -70t-38.5 -58t-69 -39.5
t-107 -14.5q-52 0 -89 8.5t-63 23.5t-42 36.5t-26 47.5q-13 32 -16.5 69.5t-3.5 79.5v307q0 28 -5.5 44t-16 25t-26 12.5t-35.5 5.5v9q9 0 24.5 -0.5t33 -0.5t36 -0.5t34.5 -0.5q36 0 66.5 1t49.5 1v-9q-20 -2 -35.5 -5.5t-26 -12.5t-16 -25t-5.5 -44v-321q0 -43 4 -79
t16 -65q16 -37 53 -58.5t100 -21.5zM563 725q24 8 42 27.5t18 49.5h-1q-2 -1 -7.5 -3.5t-17.5 -2.5q-18 0 -30.5 11t-12.5 32q0 20 12.5 32t31.5 12q27 0 40 -18.5t13 -43.5q0 -41 -23.5 -68t-60.5 -38z" />
    <glyph glyph-name="uhorn" unicode="&#x1b0;" horiz-adv-x="530" 
d="M363 347q0 20 -5 32.5t-14.5 19.5t-23 10.5t-31.5 5.5v10q43 1 80.5 2t63.5 1q-2 -60 -3 -123.5t-1 -117.5v-109q0 -20 5 -32.5t14.5 -19.5t23 -10.5t31.5 -5.5v-10q-43 -1 -79.5 -1h-62.5q2 22 2 49.5v50.5q-16 -45 -55 -77t-103 -32q-35 0 -57.5 10t-35.5 29.5
t-17.5 47.5t-4.5 65v205q0 20 -4 32.5t-12.5 19.5t-21.5 10.5t-31 5.5v10q43 1 78 2t61 1q-2 -60 -3 -123.5t-1 -117.5v-45q0 -57 17 -89t65 -32q27 0 49 11.5t38 31t26 45t12 54.5v184zM342 491q24 8 42 27.5t18 49.5h-1q-2 -1 -7.5 -3.5t-17.5 -2.5q-18 0 -30.5 11
t-12.5 32q0 20 12.5 32t31.5 12q27 0 40 -18.5t13 -43.5q0 -41 -23.5 -68t-60.5 -38z" />
    <glyph glyph-name="uni01C4" unicode="&#x1c4;" horiz-adv-x="1227" 
d="M164 656h29.5t16.5 0.5t15.5 0.5h27.5q36 0 73.5 -1t74.5 -7.5t71.5 -19.5t63.5 -37q56 -46 80 -112t24 -139q0 -72 -24 -142.5t-79 -121.5q-29 -27 -62.5 -42.5t-71 -23.5t-78.5 -10t-85 -2h-26.5t-17.5 0.5t-18 1t-28 0.5q-30 0 -59 -0.5t-55 -0.5v9q20 2 35.5 5.5
t26 12.5t16 25t5.5 44v466q0 28 -5.5 44t-16 25t-26 12.5t-35.5 5.5v9q9 0 24.5 -0.5t33 -0.5t36 -0.5t34.5 -0.5zM553 330q0 31 -4.5 68t-15.5 72t-29 66t-45 52q-22 17 -46 26.5t-50 14.5t-54 6t-58 1q-14 0 -24 -0.5t-17 -0.5h-14v-554q0 -40 19 -52t64 -12q18 0 43 2
t53 10t56.5 23.5t52.5 42.5q31 35 50 91t19 144zM1192 642l-423 -623h205q53 0 85.5 8.5t52.5 26.5t32.5 46.5t24.5 69.5h9q0 -2 -0.5 -15t-1.5 -32t-2.5 -41t-2.5 -40.5t-2.5 -31l-1.5 -12.5q-19 2 -48 2h-67h-377v18l422 621h-179q-46 0 -72.5 -3.5t-46.5 -9.5
q-23 -8 -38 -19.5t-24.5 -27.5t-15.5 -35.5t-12 -43.5h-10l8 162l1 1q20 -2 49 -3.5t70 -1.5h211q46 0 86 0.5t68 1.5v-18zM935 789l105 105l8 -7l-105 -160h-16l-105 161l8 6z" />
    </font>
</defs>
</svg>
