<?xml version="1.0" standalone="no"?>
<!DOCTYPE svg PUBLIC "-//W3C//DTD SVG 1.1//EN" "http://www.w3.org/Graphics/SVG/1.1/DTD/svg11.dtd" >
<svg xmlns="http://www.w3.org/2000/svg" xmlns:xlink="http://www.w3.org/1999/xlink" version="1.1">
<metadata>
Created by FontForge 20170731 at Fri May  5 14:18:46 2017
 By Aleksey,,,
Copyright (c) 2015, Cadson Demak (info@cadsondemak.com)
</metadata>
<defs>
<font id="Kanit-MediumItalic" horiz-adv-x="0" >
  <font-face 
    font-family="Kanit Medium"
    font-weight="500"
    font-style="italic"
    font-stretch="normal"
    units-per-em="1000"
    panose-1="0 0 6 0 0 0 0 0 0 0"
    ascent="750"
    descent="-250"
    x-height="474"
    cap-height="644"
    bbox="-523 -363 1216 1041"
    underline-thickness="50"
    underline-position="-150"
    slope="-12"
    unicode-range="U+000D-FB02"
  />
<missing-glyph horiz-adv-x="486" 
d="M-19 714h411v-714h-411v714zM341 51v612h-309v-612h309z" />
    <glyph glyph-name="fi" unicode="fi" horiz-adv-x="547" 
d="M105 370h-66l22 104h66l10 47q36 169 238 169q80 0 123 -20l-21 -100q-11 6 -35.5 10t-46.5 4q-61 0 -88 -13.5t-36 -53.5l-9 -43h272l-100 -474h-135l78 370h-137l-78 -370h-135z" />
    <glyph glyph-name="fl" unicode="fl" horiz-adv-x="547" 
d="M105 370h-66l22 104h66l10 47q16 75 65.5 122t132.5 47q74 0 120 -15h122l-143 -675h-135l78 370h-137l-78 -370h-135zM399 474l23 107q-11 4 -28.5 6t-31.5 2q-38 0 -60.5 -18t-30.5 -55l-9 -42h137z" />
    <glyph glyph-name="ru_lakkhangyaothai" unicode="&#xe24;&#xe45;" horiz-adv-x="903" 
d="M438 329q6 27 6 48q0 36 -25 52t-85 16q-43 0 -84 -13t-69 -33l-3 -14l105 -30l-17 -82q-41 -10 -60 -32.5t-29 -69.5l-6 -29q-2 -7 -2 -17q0 -11 6.5 -15.5t22.5 -4.5h55l-22 -105h-122q-39 0 -61.5 22t-22.5 58q0 13 3 26l14 66q11 51 35 84.5t70 46.5l-96 27l27 129
q55 39 129 65t156 26q95 0 149 -32q33 13 81 22.5t94 9.5q87 0 132.5 -37t45.5 -106q0 -26 -6 -56l-109 -511h-135l105 492q7 35 7 51q0 33 -20 47.5t-68 14.5q-31 0 -71 -7q10 -23 10 -61q0 -28 -5 -51l-104 -486h-135z" />
    <glyph glyph-name="lu_lakkhangyaothai" unicode="&#xe26;&#xe45;" horiz-adv-x="939" 
d="M473 329q6 29 6 48q0 37 -22.5 52.5t-75.5 15.5q-43 0 -84 -13t-69 -33l-3 -14l105 -30l-17 -82q-40 -12 -56 -33t-26 -69l-8 -37q-15 -70 -55 -102t-105 -32h-72l22 105h33q19 0 28 8t13 28l7 31q11 52 32.5 83.5t67.5 47.5l-96 27l27 129q55 39 129 65t156 26
q84 0 137 -32q33 14 82.5 23t93.5 9q87 0 132.5 -37t45.5 -106q0 -26 -6 -56l-109 -511h-135l105 492q7 35 7 51q0 33 -20 47.5t-68 14.5q-42 0 -74 -7q12 -33 12 -67q0 -18 -5 -45l-104 -486h-135z" />
    <glyph glyph-name=".notdef" horiz-adv-x="486" 
d="M-19 714h411v-714h-411v714zM341 51v612h-309v-612h309z" />
    <glyph glyph-name=".null" horiz-adv-x="500" 
 />
    <glyph glyph-name="nonmarkingreturn" unicode="&#xd;" horiz-adv-x="400" 
 />
    <glyph glyph-name="space" unicode=" " horiz-adv-x="360" 
 />
    <glyph glyph-name="exclam" unicode="!" horiz-adv-x="216" 
d="M86 479l35 165h135l-35 -165l-72 -310h-123zM2 99h142l-21 -99h-142z" />
    <glyph glyph-name="quotedbl" unicode="&#x22;" horiz-adv-x="361" 
d="M117 644h114l-56 -201h-100zM290 644h114l-56 -201h-100z" />
    <glyph glyph-name="numbersign" unicode="#" horiz-adv-x="705" 
d="M92 165h-76l18 89h105l71 136h-103l20 90h131l86 164h117l-86 -164h149l86 164h117l-86 -164h73l-20 -90h-101l-71 -136h99l-18 -89h-128l-87 -165h-116l86 165h-149l-87 -165h-116zM405 254l71 136h-149l-71 -136h149z" />
    <glyph glyph-name="dollar" unicode="$" horiz-adv-x="555" 
d="M173 -9q-113 3 -175 34l25 119q37 -17 83 -28t91 -12l38 176l-11 3q-75 20 -112 55t-37 90q0 16 5 41q17 77 76.5 124t157.5 58l17 79h99l-17 -77q86 -4 144 -26l-26 -119q-67 27 -142 30l-35 -166q80 -25 115 -62.5t35 -90.5q0 -18 -5 -43q-16 -73 -73.5 -120.5
t-152.5 -60.5l-17 -81h-99zM289 532q-74 -15 -74 -80q0 -17 10.5 -28.5t35.5 -22.5zM340 133.5q15 15.5 21 42.5q2 7 2 20q0 17 -8.5 29t-27.5 22l-29 -136q27 7 42 22.5z" />
    <glyph glyph-name="percent" unicode="%" horiz-adv-x="742" 
d="M113.5 384.5q-31.5 29.5 -31.5 78.5q0 19 4 35q34 156 179 156q56 0 86 -28.5t30 -80.5q0 -26 -5 -47q-14 -67 -57.5 -105t-117.5 -38q-56 0 -87.5 29.5zM556 644h128l-476 -644h-127zM298 500q4 16 4 33q0 23 -12.5 33t-41.5 10q-34 0 -53.5 -18t-27.5 -58
q-3 -13 -3 -25q0 -21 12.5 -32t40.5 -11q66 0 81 68zM414.5 19.5q-31.5 29.5 -31.5 78.5q0 19 4 35q34 156 179 156q56 0 86 -28.5t30 -80.5q0 -26 -5 -47q-14 -67 -57.5 -105t-117.5 -38q-56 0 -87.5 29.5zM599 135q4 16 4 33q0 23 -12.5 33t-41.5 10q-34 0 -53.5 -18
t-27.5 -58q-3 -13 -3 -25q0 -21 12.5 -32t40.5 -11q66 0 81 68z" />
    <glyph glyph-name="ampersand" unicode="&#x26;" horiz-adv-x="676" 
d="M442 62q-41 -35 -99.5 -53.5t-125.5 -18.5q-96 0 -151 37t-55 101q0 10 4 34q14 64 60 110t126 87q-26 34 -39 58.5t-13 53.5q0 14 3 30q15 70 68.5 111.5t143.5 41.5q69 0 109.5 -32t40.5 -87q0 -18 -4 -34q-10 -49 -41.5 -84.5t-90.5 -73.5l108 -141q20 28 28 66l5 20
h102l-5 -23q-8 -37 -26.5 -73t-42.5 -63l51 -66l-99 -75zM372 442q21 20 28 53q3 12 3 23q0 46 -58 46q-36 0 -57 -16.5t-27 -45.5q-2 -7 -2 -20q0 -21 11 -40.5t35 -44.5q46 25 67 45zM315 96.5q36 13.5 60 38.5l-110 143q-54 -22 -82.5 -48t-36.5 -65q-2 -7 -2 -19
q0 -31 24 -47t69 -16q42 0 78 13.5z" />
    <glyph glyph-name="quotesingle" unicode="'" horiz-adv-x="188" 
d="M117 644h114l-56 -201h-100z" />
    <glyph glyph-name="parenleft" unicode="(" horiz-adv-x="340" 
d="M28 153q0 71 17 150q24 114 77.5 213.5t134.5 161.5h153q-176 -132 -228 -375q-16 -77 -16 -138q0 -146 84 -237h-153q-69 79 -69 225z" />
    <glyph glyph-name="parenright" unicode=")" horiz-adv-x="340" 
d="M173 303q16 78 16 139q0 145 -84 236h154q68 -79 68 -225q0 -73 -17 -150q-24 -114 -77.5 -213.5t-133.5 -161.5h-154q177 131 228 375z" />
    <glyph glyph-name="asterisk" unicode="*" horiz-adv-x="436" 
d="M85 374l104 91l-101 46l59 78l83 -48l17 103h102l-27 -103l105 48l22 -83l-121 -46l66 -91l-85 -57l-55 102l-98 -102z" />
    <glyph glyph-name="plus" unicode="+" horiz-adv-x="470" 
d="M172 219h-140l22 105h140l29 137h106l-29 -137h140l-22 -105h-140l-28 -134h-106z" />
    <glyph glyph-name="comma" unicode="," horiz-adv-x="221" 
d="M29 81h116l-93 -201h-97z" />
    <glyph glyph-name="hyphen" unicode="-" horiz-adv-x="460" 
d="M49 324h386l-22 -105h-386z" />
    <glyph glyph-name="period" unicode="." horiz-adv-x="184" 
d="M2 101h110l-21 -101h-110z" />
    <glyph glyph-name="slash" unicode="/" horiz-adv-x="446" 
d="M355 662h138l-374 -662h-138z" />
    <glyph glyph-name="zero" unicode="0" horiz-adv-x="656" 
d="M33 193q0 53 14 121q36 169 121 254.5t243 85.5q233 0 233 -217q0 -55 -15 -123q-35 -169 -120 -254.5t-243 -85.5q-233 0 -233 219zM421.5 145.5q46.5 55.5 70.5 168.5q14 65 14 110q0 58 -28 86t-92 28q-84 0 -131.5 -55.5t-70.5 -168.5q-14 -67 -14 -111
q0 -58 28 -85.5t93 -27.5q84 0 130.5 55.5z" />
    <glyph glyph-name="one" unicode="1" horiz-adv-x="334" 
d="M196 522l-108 -17l24 113l248 36l-139 -654h-135z" />
    <glyph glyph-name="two" unicode="2" horiz-adv-x="513" 
d="M-6 65q36 52 84.5 95.5t124.5 101.5l30 22q57 43 80.5 63.5t37 42t20.5 55.5q3 15 3 27q0 33 -24 49.5t-77 16.5q-77 0 -162 -31l26 119q40 13 92 20.5t99 7.5q89 0 138 -40.5t49 -113.5q0 -25 -6 -52q-13 -61 -52 -107t-109 -97l-19 -14q-52 -38 -87.5 -67t-62.5 -59
h263l-22 -104h-439z" />
    <glyph glyph-name="three" unicode="3" horiz-adv-x="524" 
d="M70 -1q-55 9 -85 22l25 118q70 -33 165 -33q73 0 111 20.5t48 70.5q2 14 2 20q0 31 -26 45t-77 14h-101l31 99h84q58 0 89.5 19.5t39.5 61.5q3 12 3 22q0 31 -27 46t-86 15q-42 0 -86.5 -8.5t-80.5 -23.5l25 115q36 14 88.5 23t101.5 9q99 0 153 -38.5t54 -103.5
q0 -20 -4 -37q-10 -50 -41 -90.5t-78 -58.5q38 -13 56.5 -39t18.5 -64q0 -17 -5 -40q-21 -97 -97.5 -145t-200.5 -48q-45 0 -100 9z" />
    <glyph glyph-name="four" unicode="4" horiz-adv-x="545" 
d="M301 135h-312l20 92l417 417h118l-85 -400h63l-23 -109h-63l-28 -135h-135zM346 239l55 256l-261 -256h206z" />
    <glyph glyph-name="five" unicode="5" horiz-adv-x="518" 
d="M70 -2q-51 8 -82 23l25 117q31 -15 76.5 -23.5t84.5 -8.5q70 0 107.5 22.5t48.5 74.5q5 22 5 36q0 29 -21.5 42t-76.5 13h-194l16 76l75 274h383l-32 -104h-258l-39 -142h97q91 0 139 -37t48 -109q0 -25 -6 -54q-44 -208 -298 -208q-47 0 -98 8z" />
    <glyph glyph-name="six" unicode="6" horiz-adv-x="578" 
d="M77 35q-53 45 -53 133q0 39 8 75l29 138q26 124 115 198.5t228 74.5q49 0 84.5 -6t67.5 -18l-24 -116q-59 25 -144 25q-166 0 -194 -131l-6 -31q35 22 80 34t83 12q90 0 137.5 -39.5t47.5 -114.5q0 -29 -7 -60q-22 -103 -94 -161t-204 -58q-101 0 -154 45zM359 119.5
q36 29.5 48 84.5q5 27 5 43q0 37 -24 55t-83 18q-32 0 -68.5 -11.5t-70.5 -31.5l-13 -61q-5 -28 -5 -46q0 -41 25 -60.5t81 -19.5q69 0 105 29.5z" />
    <glyph glyph-name="seven" unicode="7" horiz-adv-x="498" 
d="M380 540h-295l22 104h443l-17 -83l-356 -561h-140z" />
    <glyph glyph-name="eight" unicode="8" horiz-adv-x="597" 
d="M71 26q-57 36 -57 107q0 26 5 46q11 53 47 94.5t89 59.5q-31 15 -46.5 41t-15.5 58q0 12 4 34q19 88 90.5 138t193.5 50q105 0 157 -37.5t52 -106.5q0 -17 -5 -44q-11 -46 -40.5 -83t-79.5 -57q80 -31 80 -108q0 -20 -4 -39q-41 -189 -302 -189q-111 0 -168 36zM422 401
q25 21 34 62q3 15 3 27q0 31 -23.5 44.5t-77.5 13.5q-59 0 -91.5 -20t-42.5 -65q-3 -12 -3 -23q0 -48 61 -60l64 -13q51 13 76 34zM366.5 115.5q36.5 20.5 46.5 65.5q3 14 3 24q0 27 -18 41t-60 23l-74 16q-50 -11 -78.5 -33t-37.5 -67q-3 -15 -3 -27q0 -34 27.5 -48.5
t89.5 -14.5q68 0 104.5 20.5z" />
    <glyph glyph-name="nine" unicode="9" horiz-adv-x="578" 
d="M113 -4q-36 6 -68 18l25 116q59 -25 144 -25q81 0 131 35t63 96l6 31q-35 -22 -80.5 -34t-83.5 -12q-88 0 -136 40.5t-48 114.5q0 22 7 59q46 219 298 219q102 0 155 -45.5t53 -132.5q0 -34 -9 -75l-30 -138q-29 -132 -119 -202.5t-223 -70.5q-49 0 -85 6zM365.5 335.5
q36.5 11.5 70.5 31.5l12 61q5 27 5 44q0 42 -25 62t-80 20q-63 0 -102 -30.5t-51 -83.5q-5 -25 -5 -42q0 -37 24.5 -55.5t82.5 -18.5q32 0 68.5 11.5z" />
    <glyph glyph-name="colon" unicode=":" horiz-adv-x="185" 
d="M71 426h110l-22 -103h-110zM7 126h110l-22 -103h-110z" />
    <glyph glyph-name="semicolon" unicode=";" horiz-adv-x="222" 
d="M106 426h110l-22 -103h-110zM29 81h116l-93 -201h-97z" />
    <glyph glyph-name="less" unicode="&#x3c;" horiz-adv-x="542" 
d="M33 248l24 111l513 211l-27 -130l-355 -140l295 -141l-27 -122z" />
    <glyph glyph-name="equal" unicode="=" horiz-adv-x="464" 
d="M66 400h389l-20 -94h-389zM31 236h389l-21 -95h-389z" />
    <glyph glyph-name="greater" unicode="&#x3e;" horiz-adv-x="542" 
d="M15 167l355 141l-295 140l27 122l423 -211l-24 -111l-513 -211z" />
    <glyph glyph-name="question" unicode="?" horiz-adv-x="497" 
d="M127 190q10 47 42 79.5t90 72.5q48 34 72 57t31 54q3 15 3 28q0 32 -25.5 44.5t-88.5 12.5q-39 0 -84.5 -10.5t-79.5 -25.5l24 114q40 18 93 28t108 10q93 0 144 -38.5t51 -106.5q0 -17 -5 -42q-11 -53 -40 -86.5t-87 -73.5q-7 -5 -41 -28.5t-50.5 -45.5t-22.5 -48
l-3 -15h-135zM104 99h142l-21 -99h-142z" />
    <glyph glyph-name="at" unicode="@" horiz-adv-x="761" 
d="M89.5 -70.5q-78.5 61.5 -78.5 177.5q0 38 9 81q36 170 149 253.5t286 83.5q133 0 203 -52.5t70 -149.5q0 -31 -8 -69q-21 -100 -77.5 -152t-158.5 -52h-26q-70 -47 -171 -47q-50 0 -80 21t-30 63q0 13 3 28q24 116 172 116h113l5 24q3 15 3 27q0 25 -18.5 34.5t-65.5 9.5
q-60 0 -123 -19l12 57q28 11 66.5 17t78.5 6q66 0 98 -23t32 -73q0 -24 -5 -45l-27 -128q39 0 64.5 31t40.5 99q8 38 8 66q0 67 -45.5 100t-149.5 33q-135 0 -215.5 -63t-109.5 -197q-10 -50 -10 -81q0 -85 53.5 -123t161.5 -38q110 0 177 19l-17 -78q-79 -18 -175 -18
q-136 0 -214.5 61.5zM388 71q26 11 50 34l15 72h-93q-44 0 -65 -15t-27 -46q-2 -12 -2 -16q0 -40 63 -40q33 0 59 11z" />
    <glyph glyph-name="A" unicode="A" horiz-adv-x="713" 
d="M363 644h148l109 -644h-135l-29 155h-237l-92 -155h-146zM459 259l-44 259l-153 -259h197z" />
    <glyph glyph-name="B" unicode="B" horiz-adv-x="636" 
d="M137 644h326q77 0 118.5 -35t41.5 -96q0 -18 -5 -43q-22 -99 -103 -140q72 -24 72 -100q0 -17 -5 -42q-21 -94 -80 -141t-163 -47h-338zM382 377q47 0 73 21t35 61q3 15 3 28q0 29 -20 43t-66 14h-156l-35 -167h166zM328 99q52 0 80 21.5t39 73.5q3 15 3 27q0 30 -22 44
t-71 14h-162l-38 -180h171z" />
    <glyph glyph-name="C" unicode="C" horiz-adv-x="600" 
d="M111.5 54.5q-72.5 64.5 -72.5 177.5q0 39 9 84q71 338 405 338q103 0 185 -32l-25 -118q-78 35 -175 35q-109 0 -169 -54.5t-84 -168.5q-10 -43 -10 -80q0 -67 41 -99.5t132 -32.5q98 0 188 34l-25 -119q-95 -29 -199 -29q-128 0 -200.5 64.5z" />
    <glyph glyph-name="D" unicode="D" horiz-adv-x="656" 
d="M137 644h270q113 0 174 -56t61 -166q0 -46 -12 -103q-35 -166 -120 -242.5t-239 -76.5h-270zM274 104q57 0 98.5 18t72 65t48.5 132q14 68 14 108q0 60 -32 82.5t-107 22.5h-119l-91 -428h116z" />
    <glyph glyph-name="E" unicode="E" horiz-adv-x="556" 
d="M137 644h462l-22 -105h-327l-35 -165h290l-22 -104h-290l-35 -166h327l-22 -104h-462z" />
    <glyph glyph-name="F" unicode="F" horiz-adv-x="527" 
d="M137 644h453l-22 -105h-318l-35 -165h281l-22 -104h-281l-57 -270h-135z" />
    <glyph glyph-name="G" unicode="G" horiz-adv-x="644" 
d="M107.5 51q-70.5 61 -70.5 172q0 44 10 88q34 162 139.5 252.5t271.5 90.5q110 0 188 -27l-25 -116q-73 28 -178 28q-108 0 -171.5 -56.5t-87.5 -171.5q-10 -43 -10 -81q0 -64 37.5 -95t123.5 -31q66 0 128 20l32 150h-150l18 86h264l-67 -315q-43 -24 -106.5 -39.5
t-145.5 -15.5q-130 0 -200.5 61z" />
    <glyph glyph-name="H" unicode="H" horiz-adv-x="665" 
d="M137 644h135l-57 -270h281l57 270h135l-136 -644h-135l57 270h-281l-57 -270h-135z" />
    <glyph glyph-name="I" unicode="I" horiz-adv-x="249" 
d="M137 644h135l-136 -644h-135z" />
    <glyph glyph-name="J" unicode="J" horiz-adv-x="436" 
d="M-37 13l24 114q47 -22 113 -22q65 0 95.5 25t42.5 84l91 430h135l-97 -460q-21 -98 -85.5 -146t-179.5 -48q-81 0 -139 23z" />
    <glyph glyph-name="K" unicode="K" horiz-adv-x="644" 
d="M137 644h135l-58 -273l306 273h155l-288 -261l164 -383h-144l-122 297l-106 -93l-43 -204h-135z" />
    <glyph glyph-name="L" unicode="L" horiz-adv-x="526" 
d="M137 644h135l-114 -540h317l-22 -104h-452z" />
    <glyph glyph-name="M" unicode="M" horiz-adv-x="763" 
d="M137 644h131l107 -387l271 387h140l-136 -644h-135l89 419l-216 -308h-78l-85 308l-89 -419h-135z" />
    <glyph glyph-name="N" unicode="N" horiz-adv-x="671" 
d="M137 644h117l214 -429l91 429h135l-136 -644h-117l-214 429l-91 -429h-135z" />
    <glyph glyph-name="O" unicode="O" horiz-adv-x="700" 
d="M101.5 46.5q-65.5 56.5 -65.5 168.5q0 47 12 104q37 177 128.5 256t256.5 79q126 0 190.5 -53t64.5 -166q0 -49 -14 -116q-36 -168 -128 -248.5t-255 -80.5q-124 0 -189.5 56.5zM459.5 157q53.5 52 77.5 162q14 65 14 105q0 62 -33.5 88.5t-109.5 26.5q-93 0 -146 -50.5
t-77 -169.5q-11 -57 -11 -92q0 -64 33.5 -93t108.5 -29q90 0 143.5 52z" />
    <glyph glyph-name="P" unicode="P" horiz-adv-x="598" 
d="M137 644h294q90 0 139 -47.5t49 -122.5q0 -25 -6 -52q-22 -103 -88.5 -161.5t-177.5 -58.5h-169l-42 -202h-135zM336 309q118 0 141 113q6 26 6 45q0 35 -22 52.5t-71 17.5h-140l-49 -228h135z" />
    <glyph glyph-name="Q" unicode="Q" horiz-adv-x="700" 
d="M254 -141q-33 31 -33 89q0 19 5 47q-93 14 -141.5 68.5t-48.5 150.5q0 48 12 105q37 177 128.5 256t256.5 79q126 0 190.5 -53t64.5 -166q0 -49 -14 -116q-33 -155 -114.5 -235.5t-220.5 -91.5q-3 -17 -3 -28q0 -23 14 -31.5t49 -8.5q38 0 74 11l-20 -94q-20 -6 -49 -9.5
t-56 -3.5q-61 0 -94 31zM459.5 157q53.5 52 77.5 162q14 65 14 105q0 62 -33.5 88.5t-109.5 26.5q-93 0 -146 -50.5t-77 -169.5q-11 -57 -11 -92q0 -64 33.5 -93t108.5 -29q90 0 143.5 52z" />
    <glyph glyph-name="R" unicode="R" horiz-adv-x="618" 
d="M137 644h309q85 0 130.5 -41.5t45.5 -114.5q0 -31 -7 -60q-14 -66 -57 -114t-109 -66q12 -13 19 -28t12 -40l40 -180h-140l-40 173q-6 23 -16 31.5t-37 8.5h-106l-45 -213h-135zM344 325q56 0 89.5 24.5t44.5 78.5q5 20 5 42q0 33 -20 47.5t-67 14.5h-147l-44 -207h139z
" />
    <glyph glyph-name="S" unicode="S" horiz-adv-x="555" 
d="M-2 25l25 119q41 -18 90 -29t97 -11q75 0 108.5 14t42.5 58q2 7 2 20q0 21 -13 34.5t-41.5 24.5t-84.5 28q-79 23 -114 55.5t-35 83.5q0 26 5 47q19 91 90 138t204 47q55 0 104 -7.5t79 -19.5l-26 -119q-74 31 -164 31q-69 0 -105.5 -15t-44.5 -55q-2 -12 -2 -17
q0 -18 12 -30.5t38.5 -22.5t77.5 -24q88 -24 124.5 -61t36.5 -90q0 -20 -5 -48q-19 -91 -87.5 -138.5t-213.5 -47.5q-128 0 -200 35z" />
    <glyph glyph-name="T" unicode="T" horiz-adv-x="564" 
d="M273 540h-198l22 104h530l-22 -104h-197l-114 -540h-135z" />
    <glyph glyph-name="U" unicode="U" horiz-adv-x="679" 
d="M105.5 41q-65.5 51 -65.5 143q0 21 7 58l85 402h135l-83 -392q-7 -32 -7 -59q0 -48 29.5 -68t99.5 -20q80 0 123.5 36t59.5 111l83 392h135l-85 -402q-27 -127 -111 -189.5t-230 -62.5q-110 0 -175.5 51z" />
    <glyph glyph-name="V" unicode="V" horiz-adv-x="713" 
d="M117 644h137l74 -493l283 493h145l-381 -644h-148z" />
    <glyph glyph-name="W" unicode="W" horiz-adv-x="875" 
d="M117 644h133l5 -435l180 351l17 84h110l32 -436l192 436h132l-285 -644h-124l-31 412l-214 -412h-133z" />
    <glyph glyph-name="X" unicode="X" horiz-adv-x="702" 
d="M282 323l-159 321h159l104 -215l194 215h159l-295 -321l165 -323h-161l-108 215l-198 -215h-161z" />
    <glyph glyph-name="Y" unicode="Y" horiz-adv-x="671" 
d="M262 238l-145 406h137l97 -291l219 291h144l-317 -406l-50 -238h-135z" />
    <glyph glyph-name="Z" unicode="Z" horiz-adv-x="579" 
d="M-5 70l423 462h-308l23 112h484l-17 -82l-418 -458h326l-22 -104h-505z" />
    <glyph glyph-name="bracketleft" unicode="[" horiz-adv-x="359" 
d="M131 706h290l-19 -105h-159l-126 -596h160l-27 -104h-291z" />
    <glyph glyph-name="backslash" unicode="\" horiz-adv-x="467" 
d="M121 662h140l100 -716h-139z" />
    <glyph glyph-name="bracketright" unicode="]" horiz-adv-x="359" 
d="M-28 5h160l126 596h-159l27 105h290l-172 -805h-291z" />
    <glyph glyph-name="asciicircum" unicode="^" horiz-adv-x="493" 
d="M272 624h95l113 -242h-121l-54 144l-113 -144h-130z" />
    <glyph glyph-name="underscore" unicode="_" horiz-adv-x="533" 
d="M-19 0h459l-20 -90h-459z" />
    <glyph glyph-name="grave" unicode="`" horiz-adv-x="277" 
d="M133 709h117l40 -187h-109z" />
    <glyph glyph-name="a" unicode="a" horiz-adv-x="591" 
d="M66 27.5q-48 37.5 -48 117.5q0 27 8 69q18 83 60 144t100.5 93.5t126.5 32.5q41 0 70 -9t53 -32l6 31h135l-100 -474h-116l1 44q-37 -27 -77 -40.5t-89 -13.5q-82 0 -130 37.5zM314.5 99q27.5 10 55.5 33l44 211q-31 42 -87 42q-63 0 -104.5 -43.5t-59.5 -127.5
q-7 -29 -7 -54q0 -39 23 -55t75 -16q33 0 60.5 10z" />
    <glyph glyph-name="b" unicode="b" horiz-adv-x="590" 
d="M134 44l-16 -44h-117l143 674h135l-48 -226q66 36 147 36t129.5 -43.5t48.5 -128.5q0 -29 -8 -71q-26 -127 -93.5 -189t-177.5 -62q-94 0 -143 54zM358.5 126q35.5 37 52.5 115q8 40 8 65q0 43 -22.5 61t-74.5 18q-66 0 -112 -35l-46 -218q15 -21 40 -32t56 -11
q63 0 98.5 37z" />
    <glyph glyph-name="c" unicode="c" horiz-adv-x="497" 
d="M82 37q-58 47 -58 135q0 33 7 65q52 247 318 247q50 0 84.5 -7t65.5 -23l-21 -97q-47 26 -123 26q-79 0 -124.5 -33t-62.5 -113q-7 -31 -7 -58q0 -46 30 -67t101 -21q74 0 137 28l-21 -100q-74 -29 -168 -29q-100 0 -158 47z" />
    <glyph glyph-name="d" unicode="d" horiz-adv-x="590" 
d="M70 32.5q-48 42.5 -48 127.5q0 38 8 74q27 125 98.5 187.5t180.5 62.5q80 0 128 -36l48 226h135l-143 -674h-116l1 44q-37 -27 -77 -40.5t-89 -13.5q-78 0 -126 42.5zM314.5 99q27.5 10 55.5 33l45 216q-32 37 -92 37q-124 0 -156 -153q-8 -37 -8 -60q0 -43 23 -63
t72 -20q33 0 60.5 10z" />
    <glyph glyph-name="e" unicode="e" horiz-adv-x="542" 
d="M83 36.5q-59 46.5 -59 136.5q0 31 7 65q25 120 94 183t199 63q92 0 140.5 -41.5t48.5 -113.5q0 -24 -6 -53l-18 -86h-343q-1 -39 12 -60t45.5 -30t91.5 -9q38 0 79 7t71 18l-20 -96q-72 -30 -180 -30q-103 0 -162 46.5zM389 273l5 26q3 14 3 25q0 63 -89 63
q-66 0 -98.5 -26.5t-45.5 -87.5h225z" />
    <glyph glyph-name="f" unicode="f" horiz-adv-x="354" 
d="M105 370h-66l22 104h66l10 48q16 78 65 123t137 45q60 0 103 -19l-20 -93q-28 11 -57 11q-43 0 -64 -15.5t-29 -53.5l-10 -46h120l-28 -104h-114l-78 -370h-135z" />
    <glyph glyph-name="g" unicode="g" horiz-adv-x="591" 
d="M98.5 -172.5q-40.5 3.5 -59.5 7.5l22 103q19 -6 50 -9.5t54 -3.5q77 0 123 20t56 66l5 25q-61 -36 -143 -36q-85 0 -135 39.5t-50 121.5q0 32 7 64q26 128 97.5 193.5t182.5 65.5q48 0 78.5 -13t57.5 -41l17 44h116l-93 -441q-21 -97 -98 -153t-221 -56q-26 0 -66.5 3.5z
M370 135l44 207q-18 22 -40.5 32.5t-54.5 10.5q-63 0 -99.5 -40t-53.5 -119q-7 -31 -7 -56q0 -39 22.5 -55t74.5 -16q64 0 114 36z" />
    <glyph glyph-name="h" unicode="h" horiz-adv-x="587" 
d="M144 674h135l-51 -240q36 23 80 36.5t92 13.5q73 0 110.5 -31.5t37.5 -93.5q0 -25 -6 -55l-64 -304h-135l63 297q4 19 4 36q0 28 -18 40t-60 12q-31 0 -65 -13.5t-60 -35.5l-71 -336h-135z" />
    <glyph glyph-name="i" unicode="i" horiz-adv-x="321" 
d="M202 667h147l-22 -106h-147zM151 374h-71l33 100h194l-100 -474h-135z" />
    <glyph glyph-name="j" unicode="j" horiz-adv-x="320" 
d="M201 667h147l-22 -106h-147zM-110 -216l19 93q29 -10 58 -10q44 0 63.5 16t27.5 53l93 438h-71l33 100h194l-117 -551q-33 -157 -197 -157q-63 0 -103 18z" />
    <glyph glyph-name="k" unicode="k" horiz-adv-x="571" 
d="M144 674h135l-79 -371l213 171h154l-232 -194l143 -280h-143l-100 209l-66 -53l-33 -156h-135z" />
    <glyph glyph-name="l" unicode="l" horiz-adv-x="298" 
d="M22 82q0 17 5 42l117 550h135l-115 -539q-2 -8 -2 -20q0 -13 7.5 -18.5t24.5 -5.5q26 0 48 7l-19 -93q-23 -8 -44 -11.5t-49 -3.5q-108 0 -108 92z" />
    <glyph glyph-name="m" unicode="m" horiz-adv-x="858" 
d="M101 474h125l-5 -46q87 56 174 56q48 0 73.5 -14.5t34.5 -43.5q87 58 188 58q64 0 97 -29t33 -88q0 -25 -6 -55l-66 -312h-133l63 297q4 19 4 36q0 27 -16 39.5t-54 12.5q-28 0 -57 -11.5t-52 -31.5q1 -17 -4 -41l-63 -301h-126l63 297q4 19 4 37q0 26 -13.5 38.5
t-45.5 12.5q-51 0 -115 -51l-70 -334h-133z" />
    <glyph glyph-name="n" unicode="n" horiz-adv-x="587" 
d="M101 474h125l-4 -45q37 24 84 39.5t94 15.5q74 0 111 -31.5t37 -92.5q0 -26 -6 -56l-64 -304h-135l63 297q4 19 4 36q0 28 -16.5 40t-55.5 12q-36 0 -70 -13.5t-61 -35.5l-71 -336h-135z" />
    <glyph glyph-name="o" unicode="o" horiz-adv-x="589" 
d="M76.5 34.5q-53.5 44.5 -53.5 129.5q-1 32 8 73q26 122 100.5 184.5t208.5 62.5q107 0 160.5 -45t53.5 -130q0 -30 -8 -72q-26 -123 -100 -185t-211 -62q-105 0 -158.5 44.5zM359.5 135q33.5 30 49.5 102q7 31 7 57q0 41 -23 58t-77 17q-65 0 -99 -30t-49 -102
q-8 -37 -8 -58q0 -40 23.5 -57t76.5 -17q66 0 99.5 30z" />
    <glyph glyph-name="p" unicode="p" horiz-adv-x="590" 
d="M101 474h117l-2 -44q37 27 77 40.5t89 13.5q84 0 129 -40.5t45 -123.5q0 -37 -9 -82q-27 -127 -95.5 -187.5t-182.5 -60.5q-80 0 -128 36l-51 -242h-135zM355.5 125.5q38.5 36.5 55.5 114.5q8 40 8 65q0 42 -22.5 61t-73.5 19q-62 0 -115 -43l-46 -217q19 -18 40.5 -27
t53.5 -9q61 0 99.5 36.5z" />
    <glyph glyph-name="q" unicode="q" horiz-adv-x="651" 
d="M314 -149q0 21 6 47l27 128q-63 -36 -144 -36q-82 0 -131 43.5t-49 129.5q0 39 8 75q27 126 94 186t177 60q49 0 82 -13.5t60 -40.5l17 44h116l-119 -563q-3 -14 -3 -23q0 -16 10 -22.5t32 -6.5q18 0 42 7l-20 -93q-23 -8 -43 -11.5t-48 -3.5q-114 0 -114 93zM316.5 98
q25.5 9 51.5 27l46 217q-18 22 -40.5 32.5t-54.5 10.5q-66 0 -100 -34t-50 -111q-8 -40 -8 -64q0 -45 23.5 -66t73.5 -21q33 0 58.5 9z" />
    <glyph glyph-name="r" unicode="r" horiz-adv-x="378" 
d="M101 474h125l-4 -49q37 21 87.5 37t97.5 22l-21 -102q-44 -6 -96 -20.5t-84 -30.5l-70 -331h-135z" />
    <glyph glyph-name="s" unicode="s" horiz-adv-x="471" 
d="M67 -3q-46 7 -74 19l24 112q30 -14 72.5 -21.5t81.5 -7.5q52 0 73 6.5t25 26.5q3 18 -13 28t-63 26q-7 3 -15.5 5.5t-19.5 6.5q-55 20 -82 46t-27 66q0 17 4 33q16 71 71.5 106t167.5 35q41 0 79.5 -6t65.5 -16l-24 -111q-23 12 -56.5 19t-64.5 7q-51 0 -76.5 -8
t-25.5 -30q0 -14 15.5 -22t56.5 -21q13 -3 30 -9q64 -22 91 -48.5t27 -66.5q0 -19 -4 -38q-15 -73 -72.5 -108.5t-168.5 -35.5q-52 0 -98 7z" />
    <glyph glyph-name="t" unicode="t" horiz-adv-x="368" 
d="M87.5 20q-33.5 30 -33.5 84q0 19 5 46l47 220h-67l22 104h67l22 102l143 40l-30 -142h120l-30 -104h-112l-45 -211q-3 -16 -3 -28q0 -22 14.5 -31t48.5 -9q27 0 60 10l-20 -93q-48 -18 -110 -18q-65 0 -98.5 30z" />
    <glyph glyph-name="u" unicode="u" horiz-adv-x="587" 
d="M65.5 24q-38.5 34 -38.5 98q0 25 6 55l63 297h135l-62 -294q-4 -17 -4 -34q0 -30 18 -43.5t58 -13.5q34 0 66.5 13.5t59.5 35.5l71 336h135l-100 -474h-125l4 45q-81 -55 -179 -55q-69 0 -107.5 34z" />
    <glyph glyph-name="v" unicode="v" horiz-adv-x="593" 
d="M81 474h136l46 -338l191 338h145l-286 -474h-145z" />
    <glyph glyph-name="w" unicode="w" horiz-adv-x="757" 
d="M81 474h135l7 -308l131 247l13 61h103l25 -308l135 308h134l-224 -474h-119l-33 277l-151 -277h-131z" />
    <glyph glyph-name="x" unicode="x" horiz-adv-x="585" 
d="M214 241l-126 233h146l73 -138l131 138h146l-223 -233l130 -241h-147l-78 145l-138 -145h-147z" />
    <glyph glyph-name="y" unicode="y" horiz-adv-x="600" 
d="M85.5 -172.5q-40.5 3.5 -59.5 7.5l22 103q19 -6 50 -9.5t54 -3.5q174 0 194 90l6 30q-81 -55 -178 -55q-65 0 -105 38.5t-40 103.5q0 18 5 45l63 297h135l-62 -294q-5 -25 -5 -39q0 -27 17.5 -39.5t59.5 -12.5q34 0 66.5 13.5t59.5 35.5l71 336h135l-93 -441
q-21 -100 -98 -154.5t-231 -54.5q-26 0 -66.5 3.5z" />
    <glyph glyph-name="z" unicode="z" horiz-adv-x="489" 
d="M-5 70l301 292h-229l24 112h398l-17 -82l-295 -288h241l-22 -104h-415z" />
    <glyph glyph-name="braceleft" unicode="{" horiz-adv-x="312" 
d="M42.5 -88q-23.5 16 -23.5 53q0 20 6 47l34 162q5 22 5 35q0 43 -49 49l18 81q39 5 56 27.5t27 74.5l31 144q13 63 44.5 89.5t102.5 26.5h83l-23 -104h-24q-27 0 -39 -12t-18 -42l-32 -151q-7 -32 -25.5 -57t-47.5 -37q36 -19 36 -65q0 -13 -3 -28l-32 -151q-3 -15 -3 -25
q0 -15 8.5 -22t29.5 -7h24l-23 -104h-83q-56 0 -79.5 16z" />
    <glyph glyph-name="bar" unicode="|" horiz-adv-x="210" 
d="M137 735h135l-182 -855h-135z" />
    <glyph glyph-name="braceright" unicode="}" horiz-adv-x="312" 
d="M-29 0h24q27 0 39 12t18 42l32 151q7 32 25.5 56.5t47.5 36.5q-36 18 -36 65q0 14 3 29l32 151q3 15 3 25q0 15 -8.5 22t-29.5 7h-24l23 104h83q56 0 79.5 -16t23.5 -53q0 -20 -6 -47l-31 -144q-7 -37 -7 -52q0 -23 11 -34.5t37 -15.5l-18 -81q-35 -4 -53 -24t-27 -60
l-34 -162q-13 -63 -44.5 -89.5t-102.5 -26.5h-83z" />
    <glyph glyph-name="asciitilde" unicode="~" horiz-adv-x="552" 
d="M330 214.5q-25 8.5 -60 25.5q-33 17 -58 25.5t-54 8.5q-38 0 -69.5 -14t-62.5 -45l28 133q23 23 58 37t72 14q31 0 56.5 -8.5t62.5 -26.5q32 -16 56.5 -24.5t51.5 -8.5q38 0 68 13.5t61 44.5l-28 -133q-22 -24 -56 -37t-72 -13q-29 0 -54 8.5z" />
    <glyph glyph-name="uni00A0" unicode="&#xa0;" horiz-adv-x="360" 
 />
    <glyph glyph-name="exclamdown" unicode="&#xa1;" horiz-adv-x="216" 
d="M90 596h142l-21 -99h-142zM-8 117l72 310h123l-60 -310l-35 -165h-135z" />
    <glyph glyph-name="cent" unicode="&#xa2;" horiz-adv-x="497" 
d="M197 -8q-83 9 -128.5 54t-45.5 123q0 30 8 68q23 111 92.5 172t178.5 72l17 79h99l-17 -79q57 -6 98 -27l-21 -97q-41 22 -98 25l-62 -290q63 5 111 27l-21 -100q-49 -20 -111 -26l-17 -79h-99zM279 374q-44 -13 -71.5 -46t-39.5 -91q-8 -35 -8 -59q0 -32 14 -51.5
t46 -27.5z" />
    <glyph glyph-name="sterling" unicode="&#xa3;" horiz-adv-x="494" 
d="M3 104h23q26 0 42.5 15.5t22.5 42.5l27 127h-66l22 104h66l19 89q17 80 74 126t143 46q74 0 118 -22l-20 -93q-12 6 -34.5 10t-43.5 4q-45 0 -70 -19.5t-34 -59.5l-17 -81h166l-27 -104h-161l-26 -120q-5 -24 -13 -39t-24 -26h232l-22 -104h-419z" />
    <glyph glyph-name="currency" unicode="&#xa4;" horiz-adv-x="571" 
d="M6 121l93 59q-10 23 -10 52q0 20 4 37q9 47 43 88l-66 60l75 73l68 -65q53 34 113 34q59 0 99 -35l97 65l44 -72l-94 -60q11 -27 11 -56q0 -15 -3 -32q-10 -46 -45 -89l67 -60l-73 -72l-71 64q-53 -34 -112 -34t-99 34l-96 -64zM322.5 190.5q27.5 16.5 44.5 43.5t17 58
q0 33 -20 53t-58 20q-30 0 -57 -17t-43.5 -45t-16.5 -59q0 -32 19.5 -51t56.5 -19q30 0 57.5 16.5z" />
    <glyph glyph-name="yen" unicode="&#xa5;" horiz-adv-x="671" 
d="M230 85h-145l16 79h145l12 55h-145l17 79h110l-123 346h137l97 -291l219 291h144l-270 -346h111l-17 -79h-145l-12 -55h145l-16 -79h-145l-18 -85h-135z" />
    <glyph glyph-name="brokenbar" unicode="&#xa6;" horiz-adv-x="210" 
d="M137 735h135l-71 -331h-135zM25 211h135l-70 -331h-135z" />
    <glyph glyph-name="section" unicode="&#xa7;" horiz-adv-x="555" 
d="M-2 25l25 119q41 -18 90 -29t97 -11q71 0 106.5 14.5t44.5 57.5q2 12 2 16q0 32 -31 49.5t-109 39.5q-81 26 -116 55t-35 75q0 20 4 37q10 45 35 70q-7 15 -7 40q0 17 3 33q18 83 90.5 128.5t199.5 45.5q47 0 99.5 -8t83.5 -19l-25 -119q-80 31 -169 31q-55 0 -95.5 -13
t-49.5 -56q-2 -12 -2 -16q0 -27 28 -43.5t100 -35.5q94 -25 130.5 -53t36.5 -73q0 -16 -5 -41q-3 -16 -14 -39.5t-22 -36.5q8 -19 8 -43q0 -14 -3 -28q-19 -90 -95 -136t-205 -46q-128 0 -200 35zM417 331q4 23 -20 38t-94 35q-40 11 -63 22t-34 24q-5 -9 -8 -20
q-1 -3 -1 -10q0 -19 22.5 -30.5t86.5 -30.5q44 -13 68.5 -24.5t33.5 -25.5q5 8 9 22z" />
    <glyph glyph-name="dieresis" unicode="&#xa8;" horiz-adv-x="376" 
d="M120 655h106l-21 -98h-106zM316 655h106l-21 -98h-106z" />
    <glyph glyph-name="copyright" unicode="&#xa9;" horiz-adv-x="739" 
d="M171 24.5q-61 34.5 -95 94.5t-34 134q0 35 7 69q20 92 77 167.5t142.5 120t183.5 44.5q78 0 139 -34.5t95 -94.5t34 -134q0 -35 -7 -69q-20 -93 -75 -168.5t-139.5 -119.5t-188.5 -44q-78 0 -139 34.5zM465.5 98q64.5 33 108.5 91.5t60 132.5q8 38 8 70q0 86 -52.5 136.5
t-153.5 50.5q-77 0 -141.5 -33t-107 -91.5t-58.5 -132.5q-8 -40 -8 -70q0 -86 52.5 -136.5t152.5 -50.5q75 0 139.5 33zM213 150.5q-46 42.5 -46 116.5q0 27 6 55q22 103 91.5 158.5t166.5 55.5q75 0 121 -35l-14 -68q-43 27 -101 27q-64 0 -111.5 -33.5t-62.5 -104.5
q-7 -35 -7 -53q0 -46 28 -66t90 -20q29 0 60.5 8t57.5 22l-15 -71q-63 -34 -141 -34q-77 0 -123 42.5z" />
    <glyph glyph-name="ordfeminine" unicode="&#xaa;" horiz-adv-x="340" 
d="M97.5 395q-21.5 15 -21.5 46q0 13 2 20q20 88 127 88h78l1 5q2 12 2 15q0 13 -12.5 18.5t-46.5 5.5q-45 0 -89 -14l12 58q21 8 50 12.5t57 4.5q50 0 79.5 -19.5t29.5 -57.5q0 -11 -3 -25l-35 -166h-71l-1 23q-21 -15 -44.5 -22t-56.5 -7q-36 0 -57.5 15zM265 465l7 33
h-61q-27 0 -40 -7t-17 -26q-1 -3 -1 -8q0 -13 10 -18t30 -5q44 0 72 31z" />
    <glyph glyph-name="guillemotleft" unicode="&#xab;" horiz-adv-x="639" 
d="M36 259l11 53l303 193l36 -81l-225 -144l163 -144l-67 -70zM286 259l11 53l303 193l36 -81l-225 -144l163 -144l-67 -70z" />
    <glyph glyph-name="logicalnot" unicode="&#xac;" horiz-adv-x="517" 
d="M374 270h-336l22 105h442l-51 -239h-106z" />
    <glyph glyph-name="uni00AD" unicode="&#xad;" horiz-adv-x="460" 
d="M49 324h386l-22 -105h-386z" />
    <glyph glyph-name="registered" unicode="&#xae;" horiz-adv-x="739" 
d="M171 24.5q-61 34.5 -95 94.5t-34 134q0 35 7 69q20 92 77 167.5t142.5 120t183.5 44.5q78 0 139 -34.5t95 -94.5t34 -134q0 -35 -7 -69q-20 -93 -75 -168.5t-139.5 -119.5t-188.5 -44q-78 0 -139 34.5zM465.5 98q64.5 33 108.5 91.5t60 132.5q8 38 8 70q0 86 -52.5 136.5
t-153.5 50.5q-77 0 -141.5 -33t-107 -91.5t-58.5 -132.5q-8 -40 -8 -70q0 -86 52.5 -136.5t152.5 -50.5q75 0 139.5 33zM277 517h187q53 0 80 -24t27 -66q0 -19 -4 -35q-10 -45 -36.5 -74.5t-69.5 -40.5q8 -8 12 -17.5t6 -24.5l21 -107h-74l-19 113q-5 14 -14 19t-33 5h-60
l-29 -137h-76zM376 324q52 0 79 12.5t36 55.5q3 12 3 22q0 44 -58 44h-95l-29 -134h64z" />
    <glyph glyph-name="macron" unicode="&#xaf;" horiz-adv-x="342" 
d="M97 644h308l-17 -83h-308z" />
    <glyph glyph-name="degree" unicode="&#xb0;" horiz-adv-x="305" 
d="M132.5 521.5q-26.5 24.5 -26.5 64.5q0 13 3 26q10 52 49 83.5t92 31.5q43 0 70 -24t27 -65q0 -12 -3 -26q-11 -52 -50 -83.5t-93 -31.5q-42 0 -68.5 24.5zM256 584q17 17 17 41q0 32 -38 32q-19 0 -34.5 -13t-19.5 -32q-2 -10 -2 -13q0 -15 9.5 -23.5t27.5 -8.5
q23 0 40 17z" />
    <glyph glyph-name="plusminus" unicode="&#xb1;" horiz-adv-x="470" 
d="M185 279h-140l22 105h140l29 137h106l-29 -137h140l-22 -105h-140l-29 -134h-106zM8 105h386l-22 -105h-386z" />
    <glyph glyph-name="uni00B2" unicode="&#xb2;" horiz-adv-x="303" 
d="M68 414q19 21 35.5 33.5t52.5 37.5q28 20 27 19q30 20 39 29.5t9 24.5q0 13 -11 18.5t-35 5.5q-33 0 -77 -16l15 71q20 7 51 12t58 5q47 0 72.5 -19t25.5 -49q0 -4 -2 -16q-6 -27 -20.5 -46t-46.5 -44l-25 -18q-19 -13 -28 -20h94l-15 -72h-228z" />
    <glyph glyph-name="uni00B3" unicode="&#xb3;" horiz-adv-x="306" 
d="M102.5 366q-28.5 4 -42.5 10l14 63q31 -14 72 -14q32 0 47 6t19 21q6 29 -46 29h-42l17 56h34q49 0 55 30q5 23 -49 23q-36 0 -73 -14l14 64q16 6 44 10t54 4q57 0 83.5 -17t26.5 -46q0 -6 -2 -18q-10 -47 -50 -64q32 -10 32 -44q0 -5 -2 -17q-18 -86 -152 -86
q-25 0 -53.5 4z" />
    <glyph glyph-name="acute" unicode="&#xb4;" horiz-adv-x="277" 
d="M213 709h117l-128 -187h-109z" />
    <glyph glyph-name="paragraph" unicode="&#xb6;" horiz-adv-x="636" 
d="M275 253q-93 0 -146.5 38t-53.5 121q0 31 7 65q25 119 106.5 176t199.5 57h324l-167 -787h-135l145 683h-70l-145 -683h-135z" />
    <glyph glyph-name="periodcentered" unicode="&#xb7;" horiz-adv-x="184" 
d="M52 336h110l-22 -101h-110z" />
    <glyph glyph-name="cedilla" unicode="&#xb8;" horiz-adv-x="273" 
d="M-44.5 -237.5q-22.5 2.5 -33.5 5.5l15 68q26 -8 58 -8q46 0 64.5 7t23.5 30q1 3 1 10q0 17 -16.5 22t-53.5 5h-44l50 98h88l-25 -45q45 0 67 -18t22 -50q0 -15 -2 -23q-22 -104 -175 -104q-17 0 -39.5 2.5z" />
    <glyph glyph-name="uni00B9" unicode="&#xb9;" horiz-adv-x="194" 
d="M148 565l-72 -14l15 71l169 32l-61 -284h-93z" />
    <glyph glyph-name="ordmasculine" unicode="&#xba;" horiz-adv-x="361" 
d="M85 475q0 17 5 42q15 70 55.5 103.5t117.5 33.5q119 0 119 -94q0 -16 -5 -43q-15 -69 -56 -103t-117 -34q-119 0 -119 95zM268.5 458.5q18.5 18.5 26.5 58.5q5 23 5 35q0 21 -11.5 31t-38.5 10q-33 0 -52 -18.5t-27 -57.5q-5 -23 -5 -37q0 -21 11.5 -30.5t39.5 -9.5
q33 0 51.5 18.5z" />
    <glyph glyph-name="guillemotright" unicode="&#xbb;" horiz-adv-x="639" 
d="M10 146l225 144l-163 144l68 71l221 -193l-11 -53l-303 -193zM260 146l225 144l-163 144l68 71l221 -193l-11 -53l-303 -193z" />
    <glyph glyph-name="onequarter" unicode="&#xbc;" horiz-adv-x="657" 
d="M170 565l-72 -14l15 71l169 32l-61 -284h-93zM508 644h128l-476 -644h-127zM451 50h-139l13 61l173 173h95l-36 -170h30l-14 -64h-30l-10 -50h-92zM486 115l19 92l-89 -92h70z" />
    <glyph glyph-name="onehalf" unicode="&#xbd;" horiz-adv-x="673" 
d="M170 565l-72 -14l15 71l169 32l-61 -284h-93zM508 644h128l-476 -644h-127zM340 44q16 18 31.5 30.5t32 24t23.5 16.5l26 18q31 21 40.5 30t9.5 24q0 13 -11 19t-35 6q-34 0 -78 -16l15 71q20 7 51 12t58 5q47 0 72.5 -19t25.5 -49q0 -4 -2 -16q-6 -27 -20.5 -46.5
t-46.5 -43.5l-22 -16q-23 -16 -30 -22h94l-15 -72h-228z" />
    <glyph glyph-name="threequarters" unicode="&#xbe;" horiz-adv-x="679" 
d="M102.5 366q-28.5 4 -42.5 10l14 63q31 -14 72 -14q32 0 47 6t19 21q6 29 -46 29h-42l17 56h34q49 0 55 30q5 23 -49 23q-36 0 -73 -14l14 64q16 6 44 10t54 4q57 0 83.5 -17t26.5 -46q0 -6 -2 -18q-10 -47 -50 -64q32 -10 32 -44q0 -5 -2 -17q-18 -86 -152 -86
q-25 0 -53.5 4zM508 644h128l-476 -644h-127zM451 50h-139l13 61l173 173h95l-36 -170h30l-14 -64h-30l-10 -50h-92zM486 115l19 92l-89 -92h70z" />
    <glyph glyph-name="questiondown" unicode="&#xbf;" horiz-adv-x="497" 
d="M331 596h142l-21 -99h-142zM100 -19.5q-51 38.5 -51 106.5q0 17 5 42q11 53 40 86.5t87 73.5q7 5 41 28.5t50.5 45.5t22.5 48l3 15h135l-4 -20q-10 -47 -42 -79.5t-90 -72.5q-48 -34 -72 -57t-31 -54q-3 -15 -3 -28q0 -31 25.5 -44t88.5 -13q39 0 84.5 10.5t79.5 25.5
l-24 -114q-40 -18 -93 -28t-108 -10q-93 0 -144 38.5z" />
    <glyph glyph-name="Agrave" unicode="&#xc0;" horiz-adv-x="713" 
d="M342 875h117l40 -187h-109zM363 644h148l109 -644h-135l-29 155h-237l-92 -155h-146zM459 259l-44 259l-153 -259h197z" />
    <glyph glyph-name="Aacute" unicode="&#xc1;" horiz-adv-x="713" 
d="M507 875h117l-128 -187h-109zM363 644h148l109 -644h-135l-29 155h-237l-92 -155h-146zM459 259l-44 259l-153 -259h197z" />
    <glyph glyph-name="Acircumflex" unicode="&#xc2;" horiz-adv-x="713" 
d="M440 862h86l98 -174h-99l-53 100l-93 -100h-110zM363 644h148l109 -644h-135l-29 155h-237l-92 -155h-146zM459 259l-44 259l-153 -259h197z" />
    <glyph glyph-name="Atilde" unicode="&#xc3;" horiz-adv-x="713" 
d="M495 694q-18 5 -46 16q-44 19 -69 19q-55 0 -98 -37l21 96q17 14 42 22.5t51 8.5q21 0 39.5 -5.5t40.5 -15.5q26 -10 40.5 -14.5t32.5 -4.5q56 0 91 38l-21 -96q-12 -14 -35.5 -23t-50.5 -9q-20 0 -38 5zM363 644h148l109 -644h-135l-29 155h-237l-92 -155h-146zM459 259
l-44 259l-153 -259h197z" />
    <glyph glyph-name="Adieresis" unicode="&#xc4;" horiz-adv-x="713" 
d="M321 810h105l-21 -98h-105zM516 810h106l-21 -98h-106zM363 644h148l109 -644h-135l-29 155h-237l-92 -155h-146zM459 259l-44 259l-153 -259h197z" />
    <glyph glyph-name="Aring" unicode="&#xc5;" horiz-adv-x="713" 
d="M350 622q-25 25 -25 64q0 40 19 73.5t53.5 54t78.5 20.5q49 0 76 -25.5t27 -66.5q0 -14 -3 -28q-12 -61 -61 -94l105 -620h-135l-29 155h-237l-92 -155h-146zM486.5 672.5q17.5 15.5 23.5 41.5q2 10 2 14q0 19 -13 31t-36 12q-28 0 -46 -16t-24 -41q-1 -5 -1 -13
q0 -20 12.5 -32t34.5 -12q30 0 47.5 15.5zM459 259l-44 259l-153 -259h197z" />
    <glyph glyph-name="AE" unicode="&#xc6;" horiz-adv-x="849" 
d="M363 644h529l-22 -105h-274l-35 -165h237l-22 -104h-237l-35 -166h274l-22 -104h-409l33 156h-160l-93 -156h-146zM402 260l60 284h-26l-163 -284h129z" />
    <glyph glyph-name="Ccedilla" unicode="&#xc7;" horiz-adv-x="600" 
d="M201 -237.5q-23 2.5 -34 5.5l15 68q27 -8 59 -8q46 0 64.5 7t22.5 30q1 4 1 10q0 17 -16 22t-53 5h-44l45 91q-105 12 -163.5 74.5t-58.5 164.5q0 39 9 84q71 338 405 338q103 0 185 -32l-25 -118q-78 35 -175 35q-109 0 -169 -54.5t-84 -168.5q-10 -43 -10 -80
q0 -67 41 -99.5t132 -32.5q98 0 188 34l-25 -119q-80 -24 -163 -28l-20 -36q45 0 67 -18t22 -50q0 -15 -2 -23q-11 -50 -54 -77t-120 -27q-17 0 -40 2.5z" />
    <glyph glyph-name="Egrave" unicode="&#xc8;" horiz-adv-x="556" 
d="M291 875h117l40 -187h-109zM137 644h462l-22 -105h-327l-35 -165h290l-22 -104h-290l-35 -166h327l-22 -104h-462z" />
    <glyph glyph-name="Eacute" unicode="&#xc9;" horiz-adv-x="556" 
d="M432 875h117l-128 -187h-109zM137 644h462l-22 -105h-327l-35 -165h290l-22 -104h-290l-35 -166h327l-22 -104h-462z" />
    <glyph glyph-name="Ecircumflex" unicode="&#xca;" horiz-adv-x="556" 
d="M371 862h86l98 -174h-99l-53 100l-93 -100h-110zM137 644h462l-22 -105h-327l-35 -165h290l-22 -104h-290l-35 -166h327l-22 -104h-462z" />
    <glyph glyph-name="Edieresis" unicode="&#xcb;" horiz-adv-x="556" 
d="M258 811h105l-21 -98h-105zM453 811h106l-21 -98h-106zM137 644h462l-22 -105h-327l-35 -165h290l-22 -104h-290l-35 -166h327l-22 -104h-462z" />
    <glyph glyph-name="Igrave" unicode="&#xcc;" horiz-adv-x="249" 
d="M111 875h117l40 -187h-109zM137 644h135l-136 -644h-135z" />
    <glyph glyph-name="Iacute" unicode="&#xcd;" horiz-adv-x="250" 
d="M280 875h117l-128 -187h-109zM137 644h135l-136 -644h-135z" />
    <glyph glyph-name="Icircumflex" unicode="&#xce;" horiz-adv-x="250" 
d="M209 862h86l98 -174h-99l-53 100l-93 -100h-110zM137 644h135l-136 -644h-135z" />
    <glyph glyph-name="Idieresis" unicode="&#xcf;" horiz-adv-x="249" 
d="M92 816h105l-21 -98h-105zM287 816h106l-21 -98h-106zM137 644h135l-136 -644h-135z" />
    <glyph glyph-name="Eth" unicode="&#xd0;" horiz-adv-x="704" 
d="M105 264h-68l22 104h68l58 276h270q113 0 174 -56t61 -166q0 -46 -12 -103q-35 -166 -120 -242.5t-239 -76.5h-270zM322 104q57 0 98.5 18t72 65t48.5 132q14 68 14 108q0 60 -32 82.5t-107 22.5h-119l-35 -164h149l-22 -104h-149l-34 -160h116z" />
    <glyph glyph-name="Ntilde" unicode="&#xd1;" horiz-adv-x="671" 
d="M484 705q-18 5 -46 16q-44 19 -69 19q-55 0 -98 -37l21 96q17 14 42 22.5t51 8.5q21 0 39.5 -5.5t40.5 -15.5q26 -10 40.5 -14.5t32.5 -4.5q56 0 91 38l-21 -96q-12 -14 -35.5 -23t-50.5 -9q-20 0 -38 5zM137 644h117l214 -429l91 429h135l-136 -644h-117l-214 429
l-91 -429h-135z" />
    <glyph glyph-name="Ograve" unicode="&#xd2;" horiz-adv-x="700" 
d="M343 875h117l40 -187h-109zM101.5 46.5q-65.5 56.5 -65.5 168.5q0 47 12 104q37 177 128.5 256t256.5 79q126 0 190.5 -53t64.5 -166q0 -49 -14 -116q-36 -168 -128 -248.5t-255 -80.5q-124 0 -189.5 56.5zM459.5 157q53.5 52 77.5 162q14 65 14 105q0 62 -33.5 88.5
t-109.5 26.5q-93 0 -146 -50.5t-77 -169.5q-11 -57 -11 -92q0 -64 33.5 -93t108.5 -29q90 0 143.5 52z" />
    <glyph glyph-name="Oacute" unicode="&#xd3;" horiz-adv-x="700" 
d="M498 875h117l-128 -187h-109zM101.5 46.5q-65.5 56.5 -65.5 168.5q0 47 12 104q37 177 128.5 256t256.5 79q126 0 190.5 -53t64.5 -166q0 -49 -14 -116q-36 -168 -128 -248.5t-255 -80.5q-124 0 -189.5 56.5zM459.5 157q53.5 52 77.5 162q14 65 14 105q0 62 -33.5 88.5
t-109.5 26.5q-93 0 -146 -50.5t-77 -169.5q-11 -57 -11 -92q0 -64 33.5 -93t108.5 -29q90 0 143.5 52z" />
    <glyph glyph-name="Ocircumflex" unicode="&#xd4;" horiz-adv-x="700" 
d="M434 862h86l98 -174h-99l-53 100l-93 -100h-110zM101.5 46.5q-65.5 56.5 -65.5 168.5q0 47 12 104q37 177 128.5 256t256.5 79q126 0 190.5 -53t64.5 -166q0 -49 -14 -116q-36 -168 -128 -248.5t-255 -80.5q-124 0 -189.5 56.5zM459.5 157q53.5 52 77.5 162q14 65 14 105
q0 62 -33.5 88.5t-109.5 26.5q-93 0 -146 -50.5t-77 -169.5q-11 -57 -11 -92q0 -64 33.5 -93t108.5 -29q90 0 143.5 52z" />
    <glyph glyph-name="Otilde" unicode="&#xd5;" horiz-adv-x="700" 
d="M493 715q-18 5 -46 16q-44 19 -69 19q-55 0 -98 -37l21 96q17 14 42 22.5t51 8.5q21 0 39.5 -5.5t40.5 -15.5q26 -10 40.5 -14.5t32.5 -4.5q56 0 91 38l-21 -96q-12 -14 -35.5 -23t-50.5 -9q-20 0 -38 5zM101.5 46.5q-65.5 56.5 -65.5 168.5q0 47 12 104
q37 177 128.5 256t256.5 79q126 0 190.5 -53t64.5 -166q0 -49 -14 -116q-36 -168 -128 -248.5t-255 -80.5q-124 0 -189.5 56.5zM459.5 157q53.5 52 77.5 162q14 65 14 105q0 62 -33.5 88.5t-109.5 26.5q-93 0 -146 -50.5t-77 -169.5q-11 -57 -11 -92q0 -64 33.5 -93
t108.5 -29q90 0 143.5 52z" />
    <glyph glyph-name="Odieresis" unicode="&#xd6;" horiz-adv-x="700" 
d="M316 811h105l-21 -98h-105zM511 811h106l-21 -98h-106zM101.5 46.5q-65.5 56.5 -65.5 168.5q0 47 12 104q37 177 128.5 256t256.5 79q126 0 190.5 -53t64.5 -166q0 -49 -14 -116q-36 -168 -128 -248.5t-255 -80.5q-124 0 -189.5 56.5zM459.5 157q53.5 52 77.5 162
q14 65 14 105q0 62 -33.5 88.5t-109.5 26.5q-93 0 -146 -50.5t-77 -169.5q-11 -57 -11 -92q0 -64 33.5 -93t108.5 -29q90 0 143.5 52z" />
    <glyph glyph-name="multiply" unicode="&#xd7;" horiz-adv-x="418" 
d="M192 183l-122 -100l-54 67l123 101l-83 104l81 67l81 -105l128 104l53 -67l-128 -105l83 -105l-79 -66z" />
    <glyph glyph-name="Oslash" unicode="&#xd8;" horiz-adv-x="700" 
d="M137 22q-101 52 -101 192q0 48 12 105q37 177 128.5 256t256.5 79q41 0 76 -6l27 45h77l-38 -64q113 -47 113 -194q0 -49 -14 -116q-36 -168 -128 -248.5t-255 -80.5q-49 0 -90 9l-31 -52h-77zM443 537q-22 2 -35 2q-93 0 -146 -50.5t-77 -169.5q-11 -57 -11 -92
q0 -61 31 -91zM459.5 157q53.5 52 77.5 162q14 64 14 104q0 70 -42 95l-243 -409q20 -4 50 -4q90 0 143.5 52z" />
    <glyph glyph-name="Ugrave" unicode="&#xd9;" horiz-adv-x="679" 
d="M339 875h117l40 -187h-109zM105.5 41q-65.5 51 -65.5 143q0 21 7 58l85 402h135l-83 -392q-7 -32 -7 -59q0 -48 29.5 -68t99.5 -20q80 0 123.5 36t59.5 111l83 392h135l-85 -402q-27 -127 -111 -189.5t-230 -62.5q-110 0 -175.5 51z" />
    <glyph glyph-name="Uacute" unicode="&#xda;" horiz-adv-x="679" 
d="M491 875h117l-128 -187h-109zM105.5 41q-65.5 51 -65.5 143q0 21 7 58l85 402h135l-83 -392q-7 -32 -7 -59q0 -48 29.5 -68t99.5 -20q80 0 123.5 36t59.5 111l83 392h135l-85 -402q-27 -127 -111 -189.5t-230 -62.5q-110 0 -175.5 51z" />
    <glyph glyph-name="Ucircumflex" unicode="&#xdb;" horiz-adv-x="679" 
d="M424 862h86l98 -174h-99l-53 100l-93 -100h-110zM105.5 41q-65.5 51 -65.5 143q0 21 7 58l85 402h135l-83 -392q-7 -32 -7 -59q0 -48 29.5 -68t99.5 -20q80 0 123.5 36t59.5 111l83 392h135l-85 -402q-27 -127 -111 -189.5t-230 -62.5q-110 0 -175.5 51z" />
    <glyph glyph-name="Udieresis" unicode="&#xdc;" horiz-adv-x="679" 
d="M306 811h105l-21 -98h-105zM501 811h106l-21 -98h-106zM105.5 41q-65.5 51 -65.5 143q0 21 7 58l85 402h135l-83 -392q-7 -32 -7 -59q0 -48 29.5 -68t99.5 -20q80 0 123.5 36t59.5 111l83 392h135l-85 -402q-27 -127 -111 -189.5t-230 -62.5q-110 0 -175.5 51z" />
    <glyph glyph-name="Yacute" unicode="&#xdd;" horiz-adv-x="671" 
d="M483 875h117l-128 -187h-109zM262 238l-145 406h137l97 -291l219 291h144l-317 -406l-50 -238h-135z" />
    <glyph glyph-name="Thorn" unicode="&#xde;" horiz-adv-x="598" 
d="M137 644h135l-21 -102h167q88 0 134 -44.5t46 -119.5q0 -28 -6 -58q-22 -103 -90 -161.5t-182 -58.5h-163l-21 -100h-135zM314 207q117 0 142 113q5 27 5 43q0 36 -21.5 54t-71.5 18h-140l-49 -228h135z" />
    <glyph glyph-name="germandbls" unicode="&#xdf;" horiz-adv-x="634" 
d="M190 13l24 114q47 -22 113 -22q45 0 76.5 23t41.5 66q3 17 3 30q0 34 -22.5 50t-70.5 16h-73l22 104h70q51 0 80.5 24.5t40.5 72.5q3 12 3 24q0 70 -115 70q-64 0 -107 -34t-58 -105l-94 -446h-128l95 448q24 115 102.5 183.5t213.5 68.5q107 0 162.5 -47t55.5 -120
q0 -23 -4 -42q-12 -57 -37 -96t-71 -62q72 -27 72 -105q0 -16 -5 -41q-20 -93 -85.5 -145t-165.5 -52q-81 0 -139 23z" />
    <glyph glyph-name="agrave" unicode="&#xe0;" horiz-adv-x="591" 
d="M249 709h117l40 -187h-109zM66 27.5q-48 37.5 -48 117.5q0 27 8 69q18 83 60 144t100.5 93.5t126.5 32.5q41 0 70 -9t53 -32l6 31h135l-100 -474h-116l1 44q-37 -27 -77 -40.5t-89 -13.5q-82 0 -130 37.5zM314.5 99q27.5 10 55.5 33l44 211q-31 42 -87 42
q-63 0 -104.5 -43.5t-59.5 -127.5q-7 -29 -7 -54q0 -39 23 -55t75 -16q33 0 60.5 10z" />
    <glyph glyph-name="aacute" unicode="&#xe1;" horiz-adv-x="591" 
d="M404 709h117l-128 -187h-109zM66 27.5q-48 37.5 -48 117.5q0 27 8 69q18 83 60 144t100.5 93.5t126.5 32.5q41 0 70 -9t53 -32l6 31h135l-100 -474h-116l1 44q-37 -27 -77 -40.5t-89 -13.5q-82 0 -130 37.5zM314.5 99q27.5 10 55.5 33l44 211q-31 42 -87 42
q-63 0 -104.5 -43.5t-59.5 -127.5q-7 -29 -7 -54q0 -39 23 -55t75 -16q33 0 60.5 10z" />
    <glyph glyph-name="acircumflex" unicode="&#xe2;" horiz-adv-x="591" 
d="M337 696h86l98 -174h-99l-53 100l-93 -100h-110zM66 27.5q-48 37.5 -48 117.5q0 27 8 69q18 83 60 144t100.5 93.5t126.5 32.5q41 0 70 -9t53 -32l6 31h135l-100 -474h-116l1 44q-37 -27 -77 -40.5t-89 -13.5q-82 0 -130 37.5zM314.5 99q27.5 10 55.5 33l44 211
q-31 42 -87 42q-63 0 -104.5 -43.5t-59.5 -127.5q-7 -29 -7 -54q0 -39 23 -55t75 -16q33 0 60.5 10z" />
    <glyph glyph-name="atilde" unicode="&#xe3;" horiz-adv-x="591" 
d="M403 539q-18 5 -46 16q-44 19 -69 19q-55 0 -98 -37l21 96q17 14 42 22.5t51 8.5q21 0 39.5 -5.5t40.5 -15.5q26 -10 40.5 -14.5t32.5 -4.5q56 0 91 38l-21 -96q-12 -14 -35.5 -23t-50.5 -9q-20 0 -38 5zM66 27.5q-48 37.5 -48 117.5q0 27 8 69q18 83 60 144t100.5 93.5
t126.5 32.5q41 0 70 -9t53 -32l6 31h135l-100 -474h-116l1 44q-37 -27 -77 -40.5t-89 -13.5q-82 0 -130 37.5zM314.5 99q27.5 10 55.5 33l44 211q-31 42 -87 42q-63 0 -104.5 -43.5t-59.5 -127.5q-7 -29 -7 -54q0 -39 23 -55t75 -16q33 0 60.5 10z" />
    <glyph glyph-name="adieresis" unicode="&#xe4;" horiz-adv-x="591" 
d="M227 645h105l-21 -98h-105zM422 645h106l-21 -98h-106zM66 27.5q-48 37.5 -48 117.5q0 27 8 69q18 83 60 144t100.5 93.5t126.5 32.5q41 0 70 -9t53 -32l6 31h135l-100 -474h-116l1 44q-37 -27 -77 -40.5t-89 -13.5q-82 0 -130 37.5zM314.5 99q27.5 10 55.5 33l44 211
q-31 42 -87 42q-63 0 -104.5 -43.5t-59.5 -127.5q-7 -29 -7 -54q0 -39 23 -55t75 -16q33 0 60.5 10z" />
    <glyph glyph-name="aring" unicode="&#xe5;" horiz-adv-x="591" 
d="M280.5 547q-26.5 25 -26.5 66q0 40 19.5 74t54 54t77.5 20q49 0 76 -25.5t27 -66.5q0 -14 -3 -28q-11 -52 -50.5 -85.5t-99.5 -33.5q-48 0 -74.5 25zM415.5 599.5q17.5 15.5 23.5 41.5q2 10 2 14q0 19 -13 31t-36 12q-28 0 -46 -16t-24 -41q-1 -5 -1 -13q0 -20 12.5 -32
t34.5 -12q30 0 47.5 15.5zM66 27.5q-48 37.5 -48 117.5q0 27 8 69q18 83 60 144t100.5 93.5t126.5 32.5q41 0 70 -9t53 -32l6 31h135l-100 -474h-116l1 44q-37 -27 -77 -40.5t-89 -13.5q-82 0 -130 37.5zM314.5 99q27.5 10 55.5 33l44 211q-31 42 -87 42q-63 0 -104.5 -43.5
t-59.5 -127.5q-7 -29 -7 -54q0 -39 23 -55t75 -16q33 0 60.5 10z" />
    <glyph glyph-name="ae" unicode="&#xe6;" horiz-adv-x="882" 
d="M50.5 20.5q-43.5 30.5 -43.5 85.5q0 15 3 31q15 71 74 112.5t154 41.5h140l3 13q3 15 3 26q0 30 -24 42t-85 12q-81 0 -161 -25l20 95q85 30 190 30q58 0 96.5 -12.5t60.5 -39.5q35 25 82.5 38.5t100.5 13.5q92 0 140.5 -41.5t48.5 -113.5q0 -24 -6 -53l-18 -86h-343
q-1 -56 34.5 -79t113.5 -23q37 0 78.5 7t72.5 18l-20 -93q-72 -30 -180 -30q-57 0 -106.5 20t-70.5 57q-56 -40 -111.5 -58.5t-137.5 -18.5q-65 0 -108.5 30.5zM729 273l5 26q4 22 4 30q0 29 -20.5 43.5t-69.5 14.5q-66 0 -98.5 -26.5t-45.5 -87.5h225zM344 128l16 79h-137
q-79 0 -92 -65q-2 -7 -2 -19q0 -22 17 -33t57 -11q82 0 141 49z" />
    <glyph glyph-name="ccedilla" unicode="&#xe7;" horiz-adv-x="497" 
d="M118.5 -237.5q-23.5 2.5 -33.5 5.5l15 68q27 -8 59 -8q46 0 64.5 7t22.5 30q1 4 1 10q0 17 -16 22t-53 5h-44l46 93q-74 13 -115 58t-41 119q0 33 7 65q52 247 318 247q50 0 84.5 -7t65.5 -23l-21 -97q-47 26 -123 26q-79 0 -124.5 -33t-62.5 -113q-7 -31 -7 -58
q0 -46 30 -67t101 -21q74 0 137 28l-21 -100q-61 -25 -143 -28l-19 -36q45 0 67 -18t22 -50q0 -15 -2 -23q-11 -50 -54 -77t-120 -27q-17 0 -40.5 2.5z" />
    <glyph glyph-name="egrave" unicode="&#xe8;" horiz-adv-x="542" 
d="M233 709h117l40 -187h-109zM83 36.5q-59 46.5 -59 136.5q0 31 7 65q25 120 94 183t199 63q92 0 140.5 -41.5t48.5 -113.5q0 -24 -6 -53l-18 -86h-343q-1 -39 12 -60t45.5 -30t91.5 -9q38 0 79 7t71 18l-20 -96q-72 -30 -180 -30q-103 0 -162 46.5zM389 273l5 26
q3 14 3 25q0 63 -89 63q-66 0 -98.5 -26.5t-45.5 -87.5h225z" />
    <glyph glyph-name="eacute" unicode="&#xe9;" horiz-adv-x="542" 
d="M399 709h117l-128 -187h-109zM83 36.5q-59 46.5 -59 136.5q0 31 7 65q25 120 94 183t199 63q92 0 140.5 -41.5t48.5 -113.5q0 -24 -6 -53l-18 -86h-343q-1 -39 12 -60t45.5 -30t91.5 -9q38 0 79 7t71 18l-20 -96q-72 -30 -180 -30q-103 0 -162 46.5zM389 273l5 26
q3 14 3 25q0 63 -89 63q-66 0 -98.5 -26.5t-45.5 -87.5h225z" />
    <glyph glyph-name="ecircumflex" unicode="&#xea;" horiz-adv-x="542" 
d="M328 696h86l98 -174h-99l-53 100l-93 -100h-110zM83 36.5q-59 46.5 -59 136.5q0 31 7 65q25 120 94 183t199 63q92 0 140.5 -41.5t48.5 -113.5q0 -24 -6 -53l-18 -86h-343q-1 -39 12 -60t45.5 -30t91.5 -9q38 0 79 7t71 18l-20 -96q-72 -30 -180 -30q-103 0 -162 46.5z
M389 273l5 26q3 14 3 25q0 63 -89 63q-66 0 -98.5 -26.5t-45.5 -87.5h225z" />
    <glyph glyph-name="edieresis" unicode="&#xeb;" horiz-adv-x="542" 
d="M209 645h105l-21 -98h-105zM404 645h106l-21 -98h-106zM83 36.5q-59 46.5 -59 136.5q0 31 7 65q25 120 94 183t199 63q92 0 140.5 -41.5t48.5 -113.5q0 -24 -6 -53l-18 -86h-343q-1 -39 12 -60t45.5 -30t91.5 -9q38 0 79 7t71 18l-20 -96q-72 -30 -180 -30
q-103 0 -162 46.5zM389 273l5 26q3 14 3 25q0 63 -89 63q-66 0 -98.5 -26.5t-45.5 -87.5h225z" />
    <glyph glyph-name="igrave" unicode="&#xec;" horiz-adv-x="321" 
d="M144 709h117l40 -187h-109zM151 374h-71l33 100h194l-100 -474h-135z" />
    <glyph glyph-name="iacute" unicode="&#xed;" horiz-adv-x="321" 
d="M302 709h117l-128 -187h-109zM151 374h-71l33 100h194l-100 -474h-135z" />
    <glyph glyph-name="icircumflex" unicode="&#xee;" horiz-adv-x="321" 
d="M219 696h86l98 -174h-99l-53 100l-93 -100h-110zM151 374h-71l33 100h194l-100 -474h-135z" />
    <glyph glyph-name="idieresis" unicode="&#xef;" horiz-adv-x="321" 
d="M95 645h105l-21 -98h-105zM290 645h106l-21 -98h-106zM151 374h-71l33 100h194l-100 -474h-135z" />
    <glyph glyph-name="eth" unicode="&#xf0;" horiz-adv-x="573" 
d="M68.5 29.5q-52.5 39.5 -52.5 112.5q0 22 7 57q44 204 268 204q38 0 77 -12t65 -34l8 35q10 52 10 81q0 11 -2 27l-136 -54l13 60l98 39q-28 22 -92 22q-75 0 -150 -27l19 89q77 25 171 25q113 0 164 -65l100 40l-13 -60l-62 -25q13 -36 13 -83q0 -43 -10 -86l-28 -132
q-28 -131 -99.5 -192t-207.5 -61q-108 0 -160.5 39.5zM350 112q38 32 52 99l14 64q-25 20 -55.5 31.5t-62.5 11.5q-71 0 -106 -30t-48 -89q-5 -23 -5 -39q0 -39 26 -59.5t83 -20.5q64 0 102 32z" />
    <glyph glyph-name="ntilde" unicode="&#xf1;" horiz-adv-x="587" 
d="M405 539q-18 5 -46 16q-44 19 -69 19q-55 0 -98 -37l21 96q17 14 42 22.5t51 8.5q21 0 39.5 -5.5t40.5 -15.5q26 -10 40.5 -14.5t32.5 -4.5q56 0 91 38l-21 -96q-12 -14 -35.5 -23t-50.5 -9q-20 0 -38 5zM101 474h125l-4 -45q37 24 84 39.5t94 15.5q74 0 111 -31.5
t37 -92.5q0 -26 -6 -56l-64 -304h-135l63 297q4 19 4 36q0 28 -16.5 40t-55.5 12q-36 0 -70 -13.5t-61 -35.5l-71 -336h-135z" />
    <glyph glyph-name="ograve" unicode="&#xf2;" horiz-adv-x="589" 
d="M250 709h117l40 -187h-109zM76.5 34.5q-53.5 44.5 -53.5 129.5q-1 32 8 73q26 122 100.5 184.5t208.5 62.5q107 0 160.5 -45t53.5 -130q0 -30 -8 -72q-26 -123 -100 -185t-211 -62q-105 0 -158.5 44.5zM359.5 135q33.5 30 49.5 102q7 31 7 57q0 41 -23 58t-77 17
q-65 0 -99 -30t-49 -102q-8 -37 -8 -58q0 -40 23.5 -57t76.5 -17q66 0 99.5 30z" />
    <glyph glyph-name="oacute" unicode="&#xf3;" horiz-adv-x="589" 
d="M407 709h117l-128 -187h-109zM76.5 34.5q-53.5 44.5 -53.5 129.5q-1 32 8 73q26 122 100.5 184.5t208.5 62.5q107 0 160.5 -45t53.5 -130q0 -30 -8 -72q-26 -123 -100 -185t-211 -62q-105 0 -158.5 44.5zM359.5 135q33.5 30 49.5 102q7 31 7 57q0 41 -23 58t-77 17
q-65 0 -99 -30t-49 -102q-8 -37 -8 -58q0 -40 23.5 -57t76.5 -17q66 0 99.5 30z" />
    <glyph glyph-name="ocircumflex" unicode="&#xf4;" horiz-adv-x="589" 
d="M342 696h86l98 -174h-99l-53 100l-93 -100h-110zM76.5 34.5q-53.5 44.5 -53.5 129.5q-1 32 8 73q26 122 100.5 184.5t208.5 62.5q107 0 160.5 -45t53.5 -130q0 -30 -8 -72q-26 -123 -100 -185t-211 -62q-105 0 -158.5 44.5zM359.5 135q33.5 30 49.5 102q7 31 7 57
q0 41 -23 58t-77 17q-65 0 -99 -30t-49 -102q-8 -37 -8 -58q0 -40 23.5 -57t76.5 -17q66 0 99.5 30z" />
    <glyph glyph-name="otilde" unicode="&#xf5;" horiz-adv-x="589" 
d="M402 549q-18 5 -46 16q-44 19 -69 19q-55 0 -98 -37l21 96q17 14 42 22.5t51 8.5q21 0 39.5 -5.5t40.5 -15.5q26 -10 40.5 -14.5t32.5 -4.5q56 0 91 38l-21 -96q-12 -14 -35.5 -23t-50.5 -9q-20 0 -38 5zM76.5 34.5q-53.5 44.5 -53.5 129.5q-1 32 8 73
q26 122 100.5 184.5t208.5 62.5q107 0 160.5 -45t53.5 -130q0 -30 -8 -72q-26 -123 -100 -185t-211 -62q-105 0 -158.5 44.5zM359.5 135q33.5 30 49.5 102q7 31 7 57q0 41 -23 58t-77 17q-65 0 -99 -30t-49 -102q-8 -37 -8 -58q0 -40 23.5 -57t76.5 -17q66 0 99.5 30z" />
    <glyph glyph-name="odieresis" unicode="&#xf6;" horiz-adv-x="589" 
d="M224 645h105l-21 -98h-105zM419 645h106l-21 -98h-106zM76.5 34.5q-53.5 44.5 -53.5 129.5q-1 32 8 73q26 122 100.5 184.5t208.5 62.5q107 0 160.5 -45t53.5 -130q0 -30 -8 -72q-26 -123 -100 -185t-211 -62q-105 0 -158.5 44.5zM359.5 135q33.5 30 49.5 102q7 31 7 57
q0 41 -23 58t-77 17q-65 0 -99 -30t-49 -102q-8 -37 -8 -58q0 -40 23.5 -57t76.5 -17q66 0 99.5 30z" />
    <glyph glyph-name="divide" unicode="&#xf7;" horiz-adv-x="460" 
d="M230 492h106l-20 -95h-106zM54 324h386l-22 -105h-386zM157 150h106l-20 -95h-106z" />
    <glyph glyph-name="oslash" unicode="&#xf8;" horiz-adv-x="589" 
d="M112 12q-89 40 -89 152q0 38 8 73q26 122 100.5 184.5t208.5 62.5q27 0 51 -3l28 47h77l-38 -64q96 -40 96 -155q0 -30 -8 -72q-26 -123 -100 -185t-211 -62q-33 0 -57 4l-27 -47h-77zM324 369h-8q-65 0 -99 -30t-49 -102q-8 -37 -8 -59q0 -37 19 -53zM260 105
q66 0 99.5 30t49.5 102q7 39 7 56q0 42 -24 59l-147 -247h15z" />
    <glyph glyph-name="ugrave" unicode="&#xf9;" horiz-adv-x="587" 
d="M257 709h117l40 -187h-109zM65.5 24q-38.5 34 -38.5 98q0 25 6 55l63 297h135l-62 -294q-4 -17 -4 -34q0 -30 18 -43.5t58 -13.5q34 0 66.5 13.5t59.5 35.5l71 336h135l-100 -474h-125l4 45q-81 -55 -179 -55q-69 0 -107.5 34z" />
    <glyph glyph-name="uacute" unicode="&#xfa;" horiz-adv-x="587" 
d="M395 709h117l-128 -187h-109zM65.5 24q-38.5 34 -38.5 98q0 25 6 55l63 297h135l-62 -294q-4 -17 -4 -34q0 -30 18 -43.5t58 -13.5q34 0 66.5 13.5t59.5 35.5l71 336h135l-100 -474h-125l4 45q-81 -55 -179 -55q-69 0 -107.5 34z" />
    <glyph glyph-name="ucircumflex" unicode="&#xfb;" horiz-adv-x="587" 
d="M338 696h86l98 -174h-99l-53 100l-93 -100h-110zM65.5 24q-38.5 34 -38.5 98q0 25 6 55l63 297h135l-62 -294q-4 -17 -4 -34q0 -30 18 -43.5t58 -13.5q34 0 66.5 13.5t59.5 35.5l71 336h135l-100 -474h-125l4 45q-81 -55 -179 -55q-69 0 -107.5 34z" />
    <glyph glyph-name="udieresis" unicode="&#xfc;" horiz-adv-x="587" 
d="M220 645h105l-21 -98h-105zM415 645h106l-21 -98h-106zM65.5 24q-38.5 34 -38.5 98q0 25 6 55l63 297h135l-62 -294q-4 -17 -4 -34q0 -30 18 -43.5t58 -13.5q34 0 66.5 13.5t59.5 35.5l71 336h135l-100 -474h-125l4 45q-81 -55 -179 -55q-69 0 -107.5 34z" />
    <glyph glyph-name="yacute" unicode="&#xfd;" horiz-adv-x="600" 
d="M429 709h117l-128 -187h-109zM84.5 -172.5q-40.5 3.5 -59.5 7.5l22 103q19 -6 50 -9.5t54 -3.5q174 0 194 90l6 30q-81 -55 -178 -55q-65 0 -105 38.5t-40 103.5q0 18 5 45l63 297h135l-62 -294q-5 -25 -5 -39q0 -27 17.5 -39.5t59.5 -12.5q34 0 66.5 13.5t59.5 35.5
l71 336h135l-93 -441q-21 -100 -98 -154.5t-231 -54.5q-26 0 -66.5 3.5z" />
    <glyph glyph-name="thorn" unicode="&#xfe;" horiz-adv-x="590" 
d="M149 700h135l-53 -252q63 36 148 36q83 0 130 -42t47 -126q0 -34 -9 -78q-27 -127 -96.5 -187.5t-181.5 -60.5q-80 0 -128 36l-51 -242h-135zM355.5 125.5q38.5 36.5 55.5 114.5q8 38 8 63q0 43 -22.5 62.5t-73.5 19.5q-62 0 -115 -43l-46 -217q19 -18 40.5 -27t53.5 -9
q61 0 99.5 36.5z" />
    <glyph glyph-name="ydieresis" unicode="&#xff;" horiz-adv-x="600" 
d="M252 659h105l-21 -98h-105zM447 659h106l-21 -98h-106zM84.5 -172.5q-40.5 3.5 -59.5 7.5l22 103q19 -6 50 -9.5t54 -3.5q174 0 194 90l6 30q-81 -55 -178 -55q-65 0 -105 38.5t-40 103.5q0 18 5 45l63 297h135l-62 -294q-5 -25 -5 -39q0 -27 17.5 -39.5t59.5 -12.5
q34 0 66.5 13.5t59.5 35.5l71 336h135l-93 -441q-21 -100 -98 -154.5t-231 -54.5q-26 0 -66.5 3.5z" />
    <glyph glyph-name="Amacron" unicode="&#x100;" horiz-adv-x="713" 
d="M314 790h307l-17 -83h-307zM363 644h148l109 -644h-135l-29 155h-237l-92 -155h-146zM459 259l-44 259l-153 -259h197z" />
    <glyph glyph-name="amacron" unicode="&#x101;" horiz-adv-x="591" 
d="M221 624h307l-17 -83h-307zM66 27.5q-48 37.5 -48 117.5q0 27 8 69q18 83 60 144t100.5 93.5t126.5 32.5q41 0 70 -9t53 -32l6 31h135l-100 -474h-116l1 44q-37 -27 -77 -40.5t-89 -13.5q-82 0 -130 37.5zM314.5 99q27.5 10 55.5 33l44 211q-31 42 -87 42
q-63 0 -104.5 -43.5t-59.5 -127.5q-7 -29 -7 -54q0 -39 23 -55t75 -16q33 0 60.5 10z" />
    <glyph glyph-name="Abreve" unicode="&#x102;" horiz-adv-x="713" 
d="M352 718.5q-34 30.5 -34 84.5q0 17 5 42h84q-3 -15 -3 -29q0 -50 53 -50q33 0 56 23t30 56h95q-16 -75 -65 -116t-128 -41q-59 0 -93 30.5zM363 644h148l109 -644h-135l-29 155h-237l-92 -155h-146zM459 259l-44 259l-153 -259h197z" />
    <glyph glyph-name="abreve" unicode="&#x103;" horiz-adv-x="591" 
d="M261 552.5q-34 30.5 -34 84.5q0 17 5 42h84q-3 -15 -3 -29q0 -50 53 -50q33 0 56 23t30 56h95q-16 -75 -65 -116t-128 -41q-59 0 -93 30.5zM66 27.5q-48 37.5 -48 117.5q0 27 8 69q18 83 60 144t100.5 93.5t126.5 32.5q41 0 70 -9t53 -32l6 31h135l-100 -474h-116l1 44
q-37 -27 -77 -40.5t-89 -13.5q-82 0 -130 37.5zM314.5 99q27.5 10 55.5 33l44 211q-31 42 -87 42q-63 0 -104.5 -43.5t-59.5 -127.5q-7 -29 -7 -54q0 -39 23 -55t75 -16q33 0 60.5 10z" />
    <glyph glyph-name="Aogonek" unicode="&#x104;" horiz-adv-x="713" 
d="M445.5 -201q-26.5 19 -26.5 57q0 10 1 15q5 40 25 73t46 56l-29 155h-243l-92 -155h-146l382 644h148l109 -644q-37 -21 -60 -48t-29 -56q-1 -4 -1 -10q0 -27 39 -27q28 0 50 11l-16 -76q-15 -6 -39 -10t-48 -4q-44 0 -70.5 19zM459 259l-44 259l-153 -259h197z" />
    <glyph glyph-name="aogonek" unicode="&#x105;" horiz-adv-x="591" 
d="M302.5 -201.5q-27.5 18.5 -27.5 52.5q0 6 2 20q8 39 31.5 72t52.5 57l1 44q-37 -27 -77 -40.5t-89 -13.5q-82 0 -130 37.5t-48 117.5q0 27 8 69q18 83 60 144t100.5 93.5t126.5 32.5q41 0 70 -9t53 -32l6 31h135l-100 -474q-78 -49 -89 -104q-1 -4 -1 -10q0 -27 39 -27
q28 0 50 11l-16 -76q-15 -6 -39 -10t-48 -4q-43 0 -70.5 18.5zM314.5 99q27.5 10 55.5 33l44 211q-31 42 -87 42q-63 0 -104.5 -43.5t-59.5 -127.5q-7 -29 -7 -54q0 -39 23 -55t75 -16q33 0 60.5 10z" />
    <glyph glyph-name="Cacute" unicode="&#x106;" horiz-adv-x="600" 
d="M512 875h117l-128 -187h-109zM111.5 54.5q-72.5 64.5 -72.5 177.5q0 39 9 84q71 338 405 338q103 0 185 -32l-25 -118q-78 35 -175 35q-109 0 -169 -54.5t-84 -168.5q-10 -43 -10 -80q0 -67 41 -99.5t132 -32.5q98 0 188 34l-25 -119q-95 -29 -199 -29
q-128 0 -200.5 64.5z" />
    <glyph glyph-name="cacute" unicode="&#x107;" horiz-adv-x="497" 
d="M400 709h117l-128 -187h-109zM82 37q-58 47 -58 135q0 33 7 65q52 247 318 247q50 0 84.5 -7t65.5 -23l-21 -97q-47 26 -123 26q-79 0 -124.5 -33t-62.5 -113q-7 -31 -7 -58q0 -46 30 -67t101 -21q74 0 137 28l-21 -100q-74 -29 -168 -29q-100 0 -158 47z" />
    <glyph glyph-name="Ccircumflex" unicode="&#x108;" horiz-adv-x="600" 
d="M427 862h86l98 -174h-99l-53 100l-93 -100h-110zM111.5 54.5q-72.5 64.5 -72.5 177.5q0 39 9 84q71 338 405 338q103 0 185 -32l-25 -118q-78 35 -175 35q-109 0 -169 -54.5t-84 -168.5q-10 -43 -10 -80q0 -67 41 -99.5t132 -32.5q98 0 188 34l-25 -119q-95 -29 -199 -29
q-128 0 -200.5 64.5z" />
    <glyph glyph-name="ccircumflex" unicode="&#x109;" horiz-adv-x="497" 
d="M327 696h86l98 -174h-99l-53 100l-93 -100h-110zM82 37q-58 47 -58 135q0 33 7 65q52 247 318 247q50 0 84.5 -7t65.5 -23l-21 -97q-47 26 -123 26q-79 0 -124.5 -33t-62.5 -113q-7 -31 -7 -58q0 -46 30 -67t101 -21q74 0 137 28l-21 -100q-74 -29 -168 -29
q-100 0 -158 47z" />
    <glyph glyph-name="Cdotaccent" unicode="&#x10a;" horiz-adv-x="600" 
d="M420 811h105l-21 -98h-105zM111.5 54.5q-72.5 64.5 -72.5 177.5q0 39 9 84q71 338 405 338q103 0 185 -32l-25 -118q-78 35 -175 35q-109 0 -169 -54.5t-84 -168.5q-10 -43 -10 -80q0 -67 41 -99.5t132 -32.5q98 0 188 34l-25 -119q-95 -29 -199 -29q-128 0 -200.5 64.5z
" />
    <glyph glyph-name="cdotaccent" unicode="&#x10b;" horiz-adv-x="497" 
d="M308 645h105l-21 -98h-105zM82 37q-58 47 -58 135q0 33 7 65q52 247 318 247q50 0 84.5 -7t65.5 -23l-21 -97q-47 26 -123 26q-79 0 -124.5 -33t-62.5 -113q-7 -31 -7 -58q0 -46 30 -67t101 -21q74 0 137 28l-21 -100q-74 -29 -168 -29q-100 0 -158 47z" />
    <glyph glyph-name="Ccaron" unicode="&#x10c;" horiz-adv-x="600" 
d="M323 862h100l50 -100l96 100h109l-172 -174h-86zM111.5 54.5q-72.5 64.5 -72.5 177.5q0 39 9 84q71 338 405 338q103 0 185 -32l-25 -118q-78 35 -175 35q-109 0 -169 -54.5t-84 -168.5q-10 -43 -10 -80q0 -67 41 -99.5t132 -32.5q98 0 188 34l-25 -119q-95 -29 -199 -29
q-128 0 -200.5 64.5z" />
    <glyph glyph-name="ccaron" unicode="&#x10d;" horiz-adv-x="498" 
d="M197 696h100l50 -100l96 100h109l-172 -174h-86zM82 37q-58 47 -58 135q0 33 7 65q52 247 318 247q50 0 84.5 -7t65.5 -23l-21 -97q-47 26 -123 26q-79 0 -124.5 -33t-62.5 -113q-7 -31 -7 -58q0 -46 30 -67t101 -21q74 0 137 28l-21 -100q-74 -29 -168 -29
q-100 0 -158 47z" />
    <glyph glyph-name="Dcaron" unicode="&#x10e;" horiz-adv-x="656" 
d="M261 884h100l50 -100l96 100h109l-172 -174h-86zM137 644h270q113 0 174 -56t61 -166q0 -46 -12 -103q-35 -166 -120 -242.5t-239 -76.5h-270zM274 104q57 0 98.5 18t72 65t48.5 132q14 68 14 108q0 60 -32 82.5t-107 22.5h-119l-91 -428h116z" />
    <glyph glyph-name="dcaron" unicode="&#x10f;" horiz-adv-x="591" 
d="M733 691h114l-134 -197h-105zM70 32.5q-48 42.5 -48 127.5q0 38 8 74q27 125 98.5 187.5t180.5 62.5q80 0 128 -36l48 226h135l-143 -674h-116l1 44q-37 -27 -77 -40.5t-89 -13.5q-78 0 -126 42.5zM314.5 99q27.5 10 55.5 33l45 216q-32 37 -92 37q-124 0 -156 -153
q-8 -37 -8 -60q0 -43 23 -63t72 -20q33 0 60.5 10z" />
    <glyph glyph-name="Dcroat" unicode="&#x110;" horiz-adv-x="694" 
d="M95 264h-68l22 104h68l58 276h270q113 0 174 -56t61 -166q0 -46 -12 -103q-35 -166 -120 -242.5t-239 -76.5h-270zM312 104q57 0 98.5 18t72 65t48.5 132q14 68 14 108q0 60 -32 82.5t-107 22.5h-119l-35 -164h149l-22 -104h-149l-34 -160h116z" />
    <glyph glyph-name="dcroat" unicode="&#x111;" horiz-adv-x="591" 
d="M640 527h-51l-112 -527h-116l1 44q-37 -27 -77 -40.5t-89 -13.5q-78 0 -126 42.5t-48 127.5q0 38 8 74q27 125 98.5 187.5t180.5 62.5q80 0 128 -36l17 79h-139l19 90h139l12 57h135l-12 -57h51zM415 348q-32 37 -92 37q-124 0 -156 -153q-8 -37 -8 -60q0 -43 23 -63
t72 -20q33 0 60.5 10t55.5 33z" />
    <glyph glyph-name="Emacron" unicode="&#x112;" horiz-adv-x="556" 
d="M243 805h307l-17 -83h-307zM137 644h462l-22 -105h-327l-35 -165h290l-22 -104h-290l-35 -166h327l-22 -104h-462z" />
    <glyph glyph-name="emacron" unicode="&#x113;" horiz-adv-x="542" 
d="M213 639h307l-17 -83h-307zM83 36.5q-59 46.5 -59 136.5q0 31 7 65q25 120 94 183t199 63q92 0 140.5 -41.5t48.5 -113.5q0 -24 -6 -53l-18 -86h-343q-1 -39 12 -60t45.5 -30t91.5 -9q38 0 79 7t71 18l-20 -96q-72 -30 -180 -30q-103 0 -162 46.5zM389 273l5 26
q3 14 3 25q0 63 -89 63q-66 0 -98.5 -26.5t-45.5 -87.5h225z" />
    <glyph glyph-name="Ebreve" unicode="&#x114;" horiz-adv-x="556" 
d="M291 718.5q-34 30.5 -34 84.5q0 17 5 42h84q-3 -15 -3 -29q0 -50 53 -50q33 0 56 23t30 56h95q-16 -75 -65 -116t-128 -41q-59 0 -93 30.5zM137 644h462l-22 -105h-327l-35 -165h290l-22 -104h-290l-35 -166h327l-22 -104h-462z" />
    <glyph glyph-name="ebreve" unicode="&#x115;" horiz-adv-x="542" 
d="M244 552.5q-34 30.5 -34 84.5q0 17 5 42h84q-3 -15 -3 -29q0 -50 53 -50q33 0 56 23t30 56h95q-16 -75 -65 -116t-128 -41q-59 0 -93 30.5zM83 36.5q-59 46.5 -59 136.5q0 31 7 65q25 120 94 183t199 63q92 0 140.5 -41.5t48.5 -113.5q0 -24 -6 -53l-18 -86h-343
q-1 -39 12 -60t45.5 -30t91.5 -9q38 0 79 7t71 18l-20 -96q-72 -30 -180 -30q-103 0 -162 46.5zM389 273l5 26q3 14 3 25q0 63 -89 63q-66 0 -98.5 -26.5t-45.5 -87.5h225z" />
    <glyph glyph-name="Edotaccent" unicode="&#x116;" horiz-adv-x="556" 
d="M352 811h105l-21 -98h-105zM137 644h462l-22 -105h-327l-35 -165h290l-22 -104h-290l-35 -166h327l-22 -104h-462z" />
    <glyph glyph-name="edotaccent" unicode="&#x117;" horiz-adv-x="542" 
d="M309 645h105l-21 -98h-105zM83 36.5q-59 46.5 -59 136.5q0 31 7 65q25 120 94 183t199 63q92 0 140.5 -41.5t48.5 -113.5q0 -24 -6 -53l-18 -86h-343q-1 -39 12 -60t45.5 -30t91.5 -9q38 0 79 7t71 18l-20 -96q-72 -30 -180 -30q-103 0 -162 46.5zM389 273l5 26
q3 14 3 25q0 63 -89 63q-66 0 -98.5 -26.5t-45.5 -87.5h225z" />
    <glyph glyph-name="Eogonek" unicode="&#x118;" horiz-adv-x="556" 
d="M250 539l-35 -165h290l-22 -104h-290l-35 -166h327l-22 -104h-43q-78 -49 -89 -104q-1 -4 -1 -10q0 -27 39 -27q28 0 50 11l-16 -76q-15 -6 -39 -10t-48 -4q-43 0 -70.5 18.5t-27.5 52.5q0 6 2 20q8 38 34 71.5t66 57.5h-319l136 644h462l-22 -105h-327z" />
    <glyph glyph-name="eogonek" unicode="&#x119;" horiz-adv-x="542" 
d="M464.5 442.5q48.5 -41.5 48.5 -113.5q0 -24 -6 -53l-18 -86h-343q-1 -39 12 -60t45.5 -30t91.5 -9q38 0 79 7t71 18l-20 -96q-30 -13 -72 -21q-77 -49 -88 -103q-1 -4 -1 -10q0 -27 39 -27q28 0 50 11l-16 -76q-15 -6 -39 -10t-48 -4q-43 0 -70.5 18.5t-27.5 52.5
q0 6 2 20q8 34 30 65t55 54q-100 2 -157.5 48t-57.5 134q0 32 7 66q25 120 94 183t199 63q92 0 140.5 -41.5zM397 324q0 63 -89 63q-66 0 -98.5 -26.5t-45.5 -87.5h225l5 26q3 14 3 25z" />
    <glyph glyph-name="Ecaron" unicode="&#x11a;" horiz-adv-x="556" 
d="M247 862h100l50 -100l96 100h109l-172 -174h-86zM137 644h462l-22 -105h-327l-35 -165h290l-22 -104h-290l-35 -166h327l-22 -104h-462z" />
    <glyph glyph-name="ecaron" unicode="&#x11b;" horiz-adv-x="542" 
d="M202 696h100l50 -100l96 100h109l-172 -174h-86zM83 36.5q-59 46.5 -59 136.5q0 31 7 65q25 120 94 183t199 63q92 0 140.5 -41.5t48.5 -113.5q0 -24 -6 -53l-18 -86h-343q-1 -39 12 -60t45.5 -30t91.5 -9q38 0 79 7t71 18l-20 -96q-72 -30 -180 -30q-103 0 -162 46.5z
M389 273l5 26q3 14 3 25q0 63 -89 63q-66 0 -98.5 -26.5t-45.5 -87.5h225z" />
    <glyph glyph-name="Gcircumflex" unicode="&#x11c;" horiz-adv-x="644" 
d="M444 862h86l98 -174h-99l-53 100l-93 -100h-110zM107.5 51q-70.5 61 -70.5 172q0 44 10 88q34 162 139.5 252.5t271.5 90.5q110 0 188 -27l-25 -116q-73 28 -178 28q-108 0 -171.5 -56.5t-87.5 -171.5q-10 -43 -10 -81q0 -64 37.5 -95t123.5 -31q66 0 128 20l32 150h-150
l18 86h264l-67 -315q-43 -24 -106.5 -39.5t-145.5 -15.5q-130 0 -200.5 61z" />
    <glyph glyph-name="gcircumflex" unicode="&#x11d;" horiz-adv-x="591" 
d="M323 696h86l98 -174h-99l-53 100l-93 -100h-110zM98.5 -172.5q-40.5 3.5 -59.5 7.5l22 103q19 -6 50 -9.5t54 -3.5q77 0 123 20t56 66l5 25q-61 -36 -143 -36q-85 0 -135 39.5t-50 121.5q0 32 7 64q26 128 97.5 193.5t182.5 65.5q48 0 78.5 -13t57.5 -41l17 44h116
l-93 -441q-21 -97 -98 -153t-221 -56q-26 0 -66.5 3.5zM370 135l44 207q-18 22 -40.5 32.5t-54.5 10.5q-63 0 -99.5 -40t-53.5 -119q-7 -31 -7 -56q0 -39 22.5 -55t74.5 -16q64 0 114 36z" />
    <glyph glyph-name="Gbreve" unicode="&#x11e;" horiz-adv-x="644" 
d="M364 718.5q-34 30.5 -34 84.5q0 17 5 42h84q-3 -15 -3 -29q0 -50 53 -50q33 0 56 23t30 56h95q-16 -75 -65 -116t-128 -41q-59 0 -93 30.5zM107.5 51q-70.5 61 -70.5 172q0 44 10 88q34 162 139.5 252.5t271.5 90.5q110 0 188 -27l-25 -116q-73 28 -178 28
q-108 0 -171.5 -56.5t-87.5 -171.5q-10 -43 -10 -81q0 -64 37.5 -95t123.5 -31q66 0 128 20l32 150h-150l18 86h264l-67 -315q-43 -24 -106.5 -39.5t-145.5 -15.5q-130 0 -200.5 61z" />
    <glyph glyph-name="gbreve" unicode="&#x11f;" horiz-adv-x="591" 
d="M231 552.5q-34 30.5 -34 84.5q0 17 5 42h84q-3 -15 -3 -29q0 -50 53 -50q33 0 56 23t30 56h95q-16 -75 -65 -116t-128 -41q-59 0 -93 30.5zM98.5 -172.5q-40.5 3.5 -59.5 7.5l22 103q19 -6 50 -9.5t54 -3.5q77 0 123 20t56 66l5 25q-61 -36 -143 -36q-85 0 -135 39.5
t-50 121.5q0 32 7 64q26 128 97.5 193.5t182.5 65.5q48 0 78.5 -13t57.5 -41l17 44h116l-93 -441q-21 -97 -98 -153t-221 -56q-26 0 -66.5 3.5zM370 135l44 207q-18 22 -40.5 32.5t-54.5 10.5q-63 0 -99.5 -40t-53.5 -119q-7 -31 -7 -56q0 -39 22.5 -55t74.5 -16
q64 0 114 36z" />
    <glyph glyph-name="Gdotaccent" unicode="&#x120;" horiz-adv-x="644" 
d="M438 811h105l-21 -98h-105zM107.5 51q-70.5 61 -70.5 172q0 44 10 88q34 162 139.5 252.5t271.5 90.5q110 0 188 -27l-25 -116q-73 28 -178 28q-108 0 -171.5 -56.5t-87.5 -171.5q-10 -43 -10 -81q0 -64 37.5 -95t123.5 -31q66 0 128 20l32 150h-150l18 86h264l-67 -315
q-43 -24 -106.5 -39.5t-145.5 -15.5q-130 0 -200.5 61z" />
    <glyph glyph-name="gdotaccent" unicode="&#x121;" horiz-adv-x="591" 
d="M289 635h105l-21 -98h-105zM98.5 -172.5q-40.5 3.5 -59.5 7.5l22 103q19 -6 50 -9.5t54 -3.5q77 0 123 20t56 66l5 25q-61 -36 -143 -36q-85 0 -135 39.5t-50 121.5q0 32 7 64q26 128 97.5 193.5t182.5 65.5q48 0 78.5 -13t57.5 -41l17 44h116l-93 -441q-21 -97 -98 -153
t-221 -56q-26 0 -66.5 3.5zM370 135l44 207q-18 22 -40.5 32.5t-54.5 10.5q-63 0 -99.5 -40t-53.5 -119q-7 -31 -7 -56q0 -39 22.5 -55t74.5 -16q64 0 114 36z" />
    <glyph glyph-name="Gcommaaccent" unicode="&#x122;" horiz-adv-x="644" 
d="M107.5 51q-70.5 61 -70.5 172q0 44 10 88q34 162 139.5 252.5t271.5 90.5q110 0 188 -27l-25 -116q-73 28 -178 28q-108 0 -171.5 -56.5t-87.5 -171.5q-10 -43 -10 -81q0 -64 37.5 -95t123.5 -31q66 0 128 20l32 150h-150l18 86h264l-67 -315q-43 -24 -106.5 -39.5
t-145.5 -15.5q-130 0 -200.5 61zM263 -37h106l-93 -201h-86z" />
    <glyph glyph-name="gcommaaccent" unicode="&#x123;" horiz-adv-x="591" 
d="M361 723h86l-73 -201h-106zM98.5 -172.5q-40.5 3.5 -59.5 7.5l22 103q19 -6 50 -9.5t54 -3.5q77 0 123 20t56 66l5 25q-61 -36 -143 -36q-85 0 -135 39.5t-50 121.5q0 32 7 64q26 128 97.5 193.5t182.5 65.5q48 0 78.5 -13t57.5 -41l17 44h116l-93 -441q-21 -97 -98 -153
t-221 -56q-26 0 -66.5 3.5zM370 135l44 207q-18 22 -40.5 32.5t-54.5 10.5q-63 0 -99.5 -40t-53.5 -119q-7 -31 -7 -56q0 -39 22.5 -55t74.5 -16q64 0 114 36z" />
    <glyph glyph-name="Hcircumflex" unicode="&#x124;" horiz-adv-x="665" 
d="M416 862h86l98 -174h-99l-53 100l-93 -100h-110zM137 644h135l-57 -270h281l57 270h135l-136 -644h-135l57 270h-281l-57 -270h-135z" />
    <glyph glyph-name="hcircumflex" unicode="&#x125;" horiz-adv-x="587" 
d="M326 879h86l98 -174h-99l-53 100l-93 -100h-110zM144 674h135l-51 -240q36 23 80 36.5t92 13.5q73 0 110.5 -31.5t37.5 -93.5q0 -25 -6 -55l-64 -304h-135l63 297q4 19 4 36q0 28 -18 40t-60 12q-31 0 -65 -13.5t-60 -35.5l-71 -336h-135z" />
    <glyph glyph-name="Hbar" unicode="&#x126;" horiz-adv-x="666" 
d="M96 451h-44l23 105h43l19 88h135l-19 -88h281l19 88h135l-19 -88h40l-23 -105h-39l-95 -451h-135l57 270h-281l-57 -270h-135zM496 374l16 77h-281l-16 -77h281z" />
    <glyph glyph-name="hbar" unicode="&#x127;" horiz-adv-x="587" 
d="M113 529h-50l19 92h50l12 53h135l-12 -53h134l-19 -92h-134l-20 -95q36 23 80 36.5t92 13.5q73 0 110.5 -31.5t37.5 -93.5q0 -25 -6 -55l-64 -304h-135l63 297q4 19 4 36q0 28 -18 40t-60 12q-31 0 -65 -13.5t-60 -35.5l-71 -336h-135z" />
    <glyph glyph-name="Itilde" unicode="&#x128;" horiz-adv-x="250" 
d="M265 705q-18 5 -46 16q-44 19 -69 19q-55 0 -98 -37l21 96q17 14 42 22.5t51 8.5q21 0 39.5 -5.5t40.5 -15.5q26 -10 40.5 -14.5t32.5 -4.5q56 0 91 38l-21 -96q-12 -14 -35.5 -23t-50.5 -9q-20 0 -38 5zM137 644h135l-136 -644h-135z" />
    <glyph glyph-name="itilde" unicode="&#x129;" horiz-adv-x="321" 
d="M267 538q-18 5 -46 16q-44 19 -69 19q-55 0 -98 -37l21 96q17 14 42 22.5t51 8.5q21 0 39.5 -5.5t40.5 -15.5q26 -10 40.5 -14.5t32.5 -4.5q56 0 91 38l-21 -96q-12 -14 -35.5 -23t-50.5 -9q-20 0 -38 5zM151 374h-71l33 100h194l-100 -474h-135z" />
    <glyph glyph-name="Imacron" unicode="&#x12a;" horiz-adv-x="250" 
d="M86 805h308l-17 -83h-308zM137 644h135l-136 -644h-135z" />
    <glyph glyph-name="imacron" unicode="&#x12b;" horiz-adv-x="321" 
d="M91 653h308l-17 -83h-308zM151 374h-71l33 100h194l-100 -474h-135z" />
    <glyph glyph-name="Ibreve" unicode="&#x12c;" horiz-adv-x="250" 
d="M123 731.5q-34 30.5 -34 84.5q0 17 5 42h84q-3 -15 -3 -29q0 -50 53 -50q33 0 56 23t30 56h95q-16 -75 -65 -116t-128 -41q-59 0 -93 30.5zM137 644h135l-136 -644h-135z" />
    <glyph glyph-name="ibreve" unicode="&#x12d;" horiz-adv-x="321" 
d="M127.5 552.5q-34.5 30.5 -34.5 84.5q0 17 5 42h85q-4 -20 -4 -30q0 -49 54 -49q35 0 57 22.5t29 56.5h95q-16 -74 -66.5 -115.5t-126.5 -41.5q-59 0 -93.5 30.5zM151 374h-71l33 100h194l-100 -474h-135z" />
    <glyph glyph-name="Iogonek" unicode="&#x12e;" horiz-adv-x="250" 
d="M-51.5 -201.5q-27.5 18.5 -27.5 52.5q0 6 2 20q8 38 34 71.5t66 57.5h-22l136 644h135l-136 -644h-13q-78 -49 -89 -104q-1 -4 -1 -10q0 -27 39 -27q28 0 50 11l-16 -76q-15 -6 -39 -10t-48 -4q-43 0 -70.5 18.5z" />
    <glyph glyph-name="iogonek" unicode="&#x12f;" horiz-adv-x="321" 
d="M202 667h147l-22 -106h-147zM21.5 -201.5q-27.5 18.5 -27.5 52.5q0 6 2 20q8 38 34 71.5t66 57.5h-24l79 374h-71l33 100h194l-100 -474h-11q-78 -49 -89 -104q-1 -4 -1 -10q0 -27 39 -27q28 0 50 11l-16 -76q-15 -6 -39 -10t-48 -4q-43 0 -70.5 18.5z" />
    <glyph glyph-name="Idotaccent" unicode="&#x130;" horiz-adv-x="249" 
d="M189 816h105l-21 -98h-105zM137 644h135l-136 -644h-135z" />
    <glyph glyph-name="dotlessi" unicode="&#x131;" horiz-adv-x="321" 
d="M151 374h-71l33 100h194l-100 -474h-135z" />
    <glyph glyph-name="IJ" unicode="&#x132;" horiz-adv-x="674" 
d="M137 644h135l-136 -644h-135zM200 13l24 114q47 -22 113 -22q65 0 95.5 25t42.5 84l91 430h135l-97 -460q-21 -98 -85.5 -146t-179.5 -48q-81 0 -139 23z" />
    <glyph glyph-name="ij" unicode="&#x133;" horiz-adv-x="582" 
d="M202 667h147l-22 -106h-147zM463 667h147l-22 -106h-147zM151 374h-71l33 100h194l-100 -474h-135zM152 -216l19 93q29 -10 58 -10q44 0 63.5 16t27.5 53l93 438h-71l33 100h194l-117 -551q-33 -157 -197 -157q-63 0 -103 18z" />
    <glyph glyph-name="Jcircumflex" unicode="&#x134;" horiz-adv-x="436" 
d="M402 862h86l98 -174h-99l-53 100l-93 -100h-110zM-37 13l24 114q47 -22 113 -22q65 0 95.5 25t42.5 84l91 430h135l-97 -460q-21 -98 -85.5 -146t-179.5 -48q-81 0 -139 23z" />
    <glyph glyph-name="jcircumflex" unicode="&#x135;" horiz-adv-x="319" 
d="M218 696h86l98 -174h-99l-53 100l-93 -100h-110zM-110 -216l19 93q29 -10 58 -10q47 0 65 15t26 54l93 438h-71l33 100h194l-117 -551q-33 -157 -197 -157q-63 0 -103 18z" />
    <glyph glyph-name="Kcommaaccent" unicode="&#x136;" horiz-adv-x="644" 
d="M137 644h135l-58 -273l306 273h155l-288 -261l164 -383h-144l-122 297l-106 -93l-43 -204h-135zM209 -37h106l-93 -201h-86z" />
    <glyph glyph-name="kcommaaccent" unicode="&#x137;" horiz-adv-x="571" 
d="M144 674h135l-79 -371l213 171h154l-232 -194l143 -280h-143l-100 209l-66 -53l-33 -156h-135zM160 -37h106l-93 -201h-86z" />
    <glyph glyph-name="kgreenlandic" unicode="&#x138;" horiz-adv-x="571" 
d="M101 474h135l-39 -187l216 187h154l-235 -206l146 -268h-143l-102 196l-68 -58l-29 -138h-135z" />
    <glyph glyph-name="Lacute" unicode="&#x139;" horiz-adv-x="526" 
d="M283 875h117l-128 -187h-109zM137 644h135l-114 -540h317l-22 -104h-452z" />
    <glyph glyph-name="lacute" unicode="&#x13a;" horiz-adv-x="298" 
d="M293 924h117l-128 -187h-109zM22 82q0 17 5 42l117 550h135l-115 -539q-2 -8 -2 -20q0 -13 7.5 -18.5t24.5 -5.5q26 0 48 7l-19 -93q-23 -8 -44 -11.5t-49 -3.5q-108 0 -108 92z" />
    <glyph glyph-name="Lcommaaccent" unicode="&#x13b;" horiz-adv-x="526" 
d="M137 644h135l-114 -540h317l-22 -104h-452zM182 -37h106l-93 -201h-86z" />
    <glyph glyph-name="lcommaaccent" unicode="&#x13c;" horiz-adv-x="298" 
d="M22 82q0 17 5 42l117 550h135l-115 -539q-2 -8 -2 -20q0 -13 7.5 -18.5t24.5 -5.5q26 0 48 7l-19 -93q-23 -8 -44 -11.5t-49 -3.5q-108 0 -108 92zM70 -37h106l-93 -201h-86z" />
    <glyph glyph-name="Lcaron" unicode="&#x13d;" horiz-adv-x="526" 
d="M459 765h106l-93 -201h-86zM137 644h135l-114 -540h317l-22 -104h-452z" />
    <glyph glyph-name="lcaron" unicode="&#x13e;" horiz-adv-x="298" 
d="M405 861h106l-93 -201h-86zM22 82q0 17 5 42l117 550h135l-115 -539q-2 -8 -2 -20q0 -13 7.5 -18.5t24.5 -5.5q26 0 48 7l-19 -93q-23 -8 -44 -11.5t-49 -3.5q-108 0 -108 92z" />
    <glyph glyph-name="Ldot" unicode="&#x13f;" horiz-adv-x="526" 
d="M137 644h135l-114 -540h317l-22 -104h-452zM332 374h105l-21 -98h-105z" />
    <glyph glyph-name="ldot" unicode="&#x140;" horiz-adv-x="360" 
d="M22 82q0 17 5 42l117 550h135l-115 -539q-2 -8 -2 -20q0 -13 7.5 -18.5t24.5 -5.5q26 0 48 7l-19 -93q-23 -8 -44 -11.5t-49 -3.5q-108 0 -108 92zM267 379h105l-21 -98h-105z" />
    <glyph glyph-name="Lslash" unicode="&#x141;" horiz-adv-x="526" 
d="M475 104l-22 -104h-452l54 258l-82 -33l21 97l82 33l61 289h135l-49 -230l137 55l-20 -97l-137 -55l-45 -213h317z" />
    <glyph glyph-name="lslash" unicode="&#x142;" horiz-adv-x="298" 
d="M164 135q-2 -8 -2 -20q0 -13 7.5 -18.5t24.5 -5.5q26 0 48 7l-19 -93q-23 -8 -44 -11.5t-49 -3.5q-108 0 -108 92q0 17 5 42l31 144l-94 -37l20 97l94 38l66 308h135l-53 -250l100 40l-20 -97l-101 -40z" />
    <glyph glyph-name="Nacute" unicode="&#x143;" horiz-adv-x="671" 
d="M480 875h117l-128 -187h-109zM137 644h117l214 -429l91 429h135l-136 -644h-117l-214 429l-91 -429h-135z" />
    <glyph glyph-name="nacute" unicode="&#x144;" horiz-adv-x="587" 
d="M398 709h117l-128 -187h-109zM101 474h125l-4 -45q37 24 84 39.5t94 15.5q74 0 111 -31.5t37 -92.5q0 -26 -6 -56l-64 -304h-135l63 297q4 19 4 36q0 28 -16.5 40t-55.5 12q-36 0 -70 -13.5t-61 -35.5l-71 -336h-135z" />
    <glyph glyph-name="Ncommaaccent" unicode="&#x145;" horiz-adv-x="671" 
d="M137 644h117l214 -429l91 429h135l-136 -644h-117l-214 429l-91 -429h-135zM227 -37h106l-93 -201h-86z" />
    <glyph glyph-name="ncommaaccent" unicode="&#x146;" horiz-adv-x="587" 
d="M101 474h125l-4 -45q37 24 84 39.5t94 15.5q74 0 111 -31.5t37 -92.5q0 -26 -6 -56l-64 -304h-135l63 297q4 19 4 36q0 28 -16.5 40t-55.5 12q-36 0 -70 -13.5t-61 -35.5l-71 -336h-135zM190 -37h106l-93 -201h-86z" />
    <glyph glyph-name="Ncaron" unicode="&#x147;" horiz-adv-x="671" 
d="M288 862h100l50 -100l96 100h109l-172 -174h-86zM137 644h117l214 -429l91 429h135l-136 -644h-117l-214 429l-91 -429h-135z" />
    <glyph glyph-name="ncaron" unicode="&#x148;" horiz-adv-x="587" 
d="M200 696h100l50 -100l96 100h109l-172 -174h-86zM101 474h125l-4 -45q37 24 84 39.5t94 15.5q74 0 111 -31.5t37 -92.5q0 -26 -6 -56l-64 -304h-135l63 297q4 19 4 36q0 28 -16.5 40t-55.5 12q-36 0 -70 -13.5t-61 -35.5l-71 -336h-135z" />
    <glyph glyph-name="napostrophe" unicode="&#x149;" horiz-adv-x="612" 
d="M45 646h106l-93 -201h-86zM126 474h125l-4 -45q37 24 84 39.5t94 15.5q74 0 111 -31.5t37 -92.5q0 -26 -6 -56l-64 -304h-135l63 297q4 19 4 36q0 28 -16.5 40t-55.5 12q-36 0 -70 -13.5t-61 -35.5l-71 -336h-135z" />
    <glyph glyph-name="Eng" unicode="&#x14a;" horiz-adv-x="671" 
d="M240 -216l19 93q29 -10 58 -10q41 0 63 16.5t29 52.5l19 89l-201 404l-91 -429h-135l136 644h117l214 -429l91 429h135l-153 -721q-16 -73 -66 -115t-131 -42q-63 0 -104 18z" />
    <glyph glyph-name="eng" unicode="&#x14b;" horiz-adv-x="587" 
d="M160 -216l19 93q29 -10 58 -10q41 0 63 16.5t29 52.5l77 361q4 17 4 34q0 29 -18 41.5t-60 12.5q-31 0 -65 -13.5t-60 -35.5l-71 -336h-135l100 474h125l-4 -45q37 24 84 39.5t94 15.5q76 0 112.5 -29t36.5 -89q0 -30 -7 -62l-81 -381q-16 -73 -66 -115t-131 -42
q-63 0 -104 18z" />
    <glyph glyph-name="Omacron" unicode="&#x14c;" horiz-adv-x="700" 
d="M308 806h307l-17 -83h-307zM101.5 46.5q-65.5 56.5 -65.5 168.5q0 47 12 104q37 177 128.5 256t256.5 79q126 0 190.5 -53t64.5 -166q0 -49 -14 -116q-36 -168 -128 -248.5t-255 -80.5q-124 0 -189.5 56.5zM459.5 157q53.5 52 77.5 162q14 65 14 105q0 62 -33.5 88.5
t-109.5 26.5q-93 0 -146 -50.5t-77 -169.5q-11 -57 -11 -92q0 -64 33.5 -93t108.5 -29q90 0 143.5 52z" />
    <glyph glyph-name="omacron" unicode="&#x14d;" horiz-adv-x="589" 
d="M214 639h307l-17 -83h-307zM76.5 34.5q-53.5 44.5 -53.5 129.5q-1 32 8 73q26 122 100.5 184.5t208.5 62.5q107 0 160.5 -45t53.5 -130q0 -30 -8 -72q-26 -123 -100 -185t-211 -62q-105 0 -158.5 44.5zM359.5 135q33.5 30 49.5 102q7 31 7 57q0 41 -23 58t-77 17
q-65 0 -99 -30t-49 -102q-8 -37 -8 -58q0 -40 23.5 -57t76.5 -17q66 0 99.5 30z" />
    <glyph glyph-name="Obreve" unicode="&#x14e;" horiz-adv-x="700" 
d="M346 718.5q-34 30.5 -34 84.5q0 17 5 42h84q-3 -15 -3 -29q0 -50 53 -50q33 0 56 23t30 56h95q-16 -75 -65 -116t-128 -41q-59 0 -93 30.5zM101.5 46.5q-65.5 56.5 -65.5 168.5q0 47 12 104q37 177 128.5 256t256.5 79q126 0 190.5 -53t64.5 -166q0 -49 -14 -116
q-36 -168 -128 -248.5t-255 -80.5q-124 0 -189.5 56.5zM459.5 157q53.5 52 77.5 162q14 65 14 105q0 62 -33.5 88.5t-109.5 26.5q-93 0 -146 -50.5t-77 -169.5q-11 -57 -11 -92q0 -64 33.5 -93t108.5 -29q90 0 143.5 52z" />
    <glyph glyph-name="obreve" unicode="&#x14f;" horiz-adv-x="589" 
d="M255 552.5q-34 30.5 -34 84.5q0 17 5 42h84q-3 -15 -3 -29q0 -50 53 -50q33 0 56 23t30 56h95q-16 -75 -65 -116t-128 -41q-59 0 -93 30.5zM76.5 34.5q-53.5 44.5 -53.5 129.5q-1 32 8 73q26 122 100.5 184.5t208.5 62.5q107 0 160.5 -45t53.5 -130q0 -30 -8 -72
q-26 -123 -100 -185t-211 -62q-105 0 -158.5 44.5zM359.5 135q33.5 30 49.5 102q7 31 7 57q0 41 -23 58t-77 17q-65 0 -99 -30t-49 -102q-8 -37 -8 -58q0 -40 23.5 -57t76.5 -17q66 0 99.5 30z" />
    <glyph glyph-name="Ohungarumlaut" unicode="&#x150;" horiz-adv-x="700" 
d="M361 863h119l-129 -176h-107zM588 863h120l-130 -176h-107zM101.5 46.5q-65.5 56.5 -65.5 168.5q0 47 12 104q37 177 128.5 256t256.5 79q126 0 190.5 -53t64.5 -166q0 -49 -14 -116q-36 -168 -128 -248.5t-255 -80.5q-124 0 -189.5 56.5zM459.5 157q53.5 52 77.5 162
q14 65 14 105q0 62 -33.5 88.5t-109.5 26.5q-93 0 -146 -50.5t-77 -169.5q-11 -57 -11 -92q0 -64 33.5 -93t108.5 -29q90 0 143.5 52z" />
    <glyph glyph-name="ohungarumlaut" unicode="&#x151;" horiz-adv-x="589" 
d="M291 697h119l-129 -176h-107zM518 697h120l-130 -176h-107zM76.5 34.5q-53.5 44.5 -53.5 129.5q-1 32 8 73q26 122 100.5 184.5t208.5 62.5q107 0 160.5 -45t53.5 -130q0 -30 -8 -72q-26 -123 -100 -185t-211 -62q-105 0 -158.5 44.5zM359.5 135q33.5 30 49.5 102
q7 31 7 57q0 41 -23 58t-77 17q-65 0 -99 -30t-49 -102q-8 -37 -8 -58q0 -40 23.5 -57t76.5 -17q66 0 99.5 30z" />
    <glyph glyph-name="OE" unicode="&#x152;" horiz-adv-x="1027" 
d="M721 539l-35 -165h290l-22 -104h-290l-35 -166h327l-22 -104h-462l6 26q-78 -36 -187 -36q-124 0 -189.5 56.5t-65.5 168.5q0 47 12 104q37 177 128.5 256t256.5 79q108 0 169 -38l6 28h462l-22 -105h-327zM459.5 157q53.5 52 77.5 162q14 65 14 105q0 62 -33.5 88.5
t-109.5 26.5q-93 0 -146 -50.5t-77 -169.5q-11 -57 -11 -92q0 -64 33.5 -93t108.5 -29q90 0 143.5 52z" />
    <glyph glyph-name="oe" unicode="&#x153;" horiz-adv-x="930" 
d="M852.5 442.5q48.5 -41.5 48.5 -113.5q0 -24 -6 -53l-18 -86h-343q-1 -39 12 -60t45.5 -30t91.5 -9q38 0 79 7t71 18l-20 -96q-72 -30 -180 -30q-61 0 -107.5 16.5t-74.5 49.5q-77 -66 -216 -66q-105 0 -158.5 44.5t-53.5 129.5q-1 32 8 73q26 122 100.5 184.5t208.5 62.5
q124 0 176 -60q73 60 196 60q92 0 140.5 -41.5zM785 324q0 63 -89 63q-66 0 -98.5 -26.5t-45.5 -87.5h225l5 26q3 14 3 25zM359.5 135q33.5 30 49.5 102q7 31 7 57q0 41 -23 58t-77 17q-65 0 -99 -30t-49 -102q-8 -37 -8 -58q0 -40 23.5 -57t76.5 -17q66 0 99.5 30z" />
    <glyph glyph-name="Racute" unicode="&#x154;" horiz-adv-x="618" 
d="M443 875h117l-128 -187h-109zM137 644h309q85 0 130.5 -41.5t45.5 -114.5q0 -31 -7 -60q-14 -66 -57 -114t-109 -66q12 -13 19 -28t12 -40l40 -180h-140l-40 173q-6 23 -16 31.5t-37 8.5h-106l-45 -213h-135zM344 325q56 0 89.5 24.5t44.5 78.5q5 20 5 42q0 33 -20 47.5
t-67 14.5h-147l-44 -207h139z" />
    <glyph glyph-name="racute" unicode="&#x155;" horiz-adv-x="378" 
d="M281 709h117l-128 -187h-109zM101 474h125l-4 -49q37 21 87.5 37t97.5 22l-21 -102q-44 -6 -96 -20.5t-84 -30.5l-70 -331h-135z" />
    <glyph glyph-name="Rcommaaccent" unicode="&#x156;" horiz-adv-x="618" 
d="M137 644h309q85 0 130.5 -41.5t45.5 -114.5q0 -31 -7 -60q-14 -66 -57 -114t-109 -66q12 -13 19 -28t12 -40l40 -180h-140l-40 173q-6 23 -16 31.5t-37 8.5h-106l-45 -213h-135zM344 325q56 0 89.5 24.5t44.5 78.5q5 20 5 42q0 33 -20 47.5t-67 14.5h-147l-44 -207h139z
M182 -37h106l-93 -201h-86z" />
    <glyph glyph-name="rcommaaccent" unicode="&#x157;" horiz-adv-x="378" 
d="M101 474h125l-4 -49q37 21 87.5 37t97.5 22l-21 -102q-44 -6 -96 -20.5t-84 -30.5l-70 -331h-135zM6 -37h106l-93 -201h-86z" />
    <glyph glyph-name="Rcaron" unicode="&#x158;" horiz-adv-x="618" 
d="M251 862h100l50 -100l96 100h109l-172 -174h-86zM137 644h309q85 0 130.5 -41.5t45.5 -114.5q0 -31 -7 -60q-14 -66 -57 -114t-109 -66q12 -13 19 -28t12 -40l40 -180h-140l-40 173q-6 23 -16 31.5t-37 8.5h-106l-45 -213h-135zM344 325q56 0 89.5 24.5t44.5 78.5
q5 20 5 42q0 33 -20 47.5t-67 14.5h-147l-44 -207h139z" />
    <glyph glyph-name="rcaron" unicode="&#x159;" horiz-adv-x="378" 
d="M71 696h100l50 -100l96 100h109l-172 -174h-86zM101 474h125l-4 -49q37 21 87.5 37t97.5 22l-21 -102q-44 -6 -96 -20.5t-84 -30.5l-70 -331h-135z" />
    <glyph glyph-name="Sacute" unicode="&#x15a;" horiz-adv-x="555" 
d="M423 881h117l-128 -187h-109zM-2 25l25 119q41 -18 90 -29t97 -11q75 0 108.5 14t42.5 58q2 7 2 20q0 21 -13 34.5t-41.5 24.5t-84.5 28q-79 23 -114 55.5t-35 83.5q0 26 5 47q19 91 90 138t204 47q55 0 104 -7.5t79 -19.5l-26 -119q-74 31 -164 31q-69 0 -105.5 -15
t-44.5 -55q-2 -12 -2 -17q0 -18 12 -30.5t38.5 -22.5t77.5 -24q88 -24 124.5 -61t36.5 -90q0 -20 -5 -48q-19 -91 -87.5 -138.5t-213.5 -47.5q-128 0 -200 35z" />
    <glyph glyph-name="sacute" unicode="&#x15b;" horiz-adv-x="471" 
d="M347 709h117l-128 -187h-109zM67 -3q-46 7 -74 19l24 112q30 -14 72.5 -21.5t81.5 -7.5q52 0 73 6.5t25 26.5q3 18 -13 28t-63 26q-7 3 -15.5 5.5t-19.5 6.5q-55 20 -82 46t-27 66q0 17 4 33q16 71 71.5 106t167.5 35q41 0 79.5 -6t65.5 -16l-24 -111q-23 12 -56.5 19
t-64.5 7q-51 0 -76.5 -8t-25.5 -30q0 -14 15.5 -22t56.5 -21q13 -3 30 -9q64 -22 91 -48.5t27 -66.5q0 -19 -4 -38q-15 -73 -72.5 -108.5t-168.5 -35.5q-52 0 -98 7z" />
    <glyph glyph-name="Scircumflex" unicode="&#x15c;" horiz-adv-x="555" 
d="M357 878h86l98 -174h-99l-53 100l-93 -100h-110zM-2 25l25 119q41 -18 90 -29t97 -11q75 0 108.5 14t42.5 58q2 7 2 20q0 21 -13 34.5t-41.5 24.5t-84.5 28q-79 23 -114 55.5t-35 83.5q0 26 5 47q19 91 90 138t204 47q55 0 104 -7.5t79 -19.5l-26 -119q-74 31 -164 31
q-69 0 -105.5 -15t-44.5 -55q-2 -12 -2 -17q0 -18 12 -30.5t38.5 -22.5t77.5 -24q88 -24 124.5 -61t36.5 -90q0 -20 -5 -48q-19 -91 -87.5 -138.5t-213.5 -47.5q-128 0 -200 35z" />
    <glyph glyph-name="scircumflex" unicode="&#x15d;" horiz-adv-x="471" 
d="M290 706h86l98 -174h-99l-53 100l-93 -100h-110zM67 -3q-46 7 -74 19l24 112q30 -14 72.5 -21.5t81.5 -7.5q52 0 73 6.5t25 26.5q3 18 -13 28t-63 26q-7 3 -15.5 5.5t-19.5 6.5q-55 20 -82 46t-27 66q0 17 4 33q16 71 71.5 106t167.5 35q41 0 79.5 -6t65.5 -16l-24 -111
q-23 12 -56.5 19t-64.5 7q-51 0 -76.5 -8t-25.5 -30q0 -14 15.5 -22t56.5 -21q13 -3 30 -9q64 -22 91 -48.5t27 -66.5q0 -19 -4 -38q-15 -73 -72.5 -108.5t-168.5 -35.5q-52 0 -98 7z" />
    <glyph glyph-name="Scedilla" unicode="&#x15e;" horiz-adv-x="555" 
d="M100.5 -237.5q-23.5 2.5 -33.5 5.5l15 68q27 -8 59 -8q46 0 64.5 7t22.5 30q1 4 1 10q0 17 -16 22t-53 5h-44l44 89q-103 5 -162 34l25 119q41 -18 90 -29t97 -11q75 0 108.5 14t42.5 58q2 7 2 20q0 21 -13 34.5t-41.5 24.5t-84.5 28q-79 23 -114 55.5t-35 83.5
q0 26 5 47q19 91 90 138t204 47q55 0 104 -7.5t79 -19.5l-26 -119q-74 31 -164 31q-69 0 -105.5 -15t-44.5 -55q-2 -12 -2 -17q0 -18 12 -30.5t38.5 -22.5t77.5 -24q88 -24 124.5 -61t36.5 -90q0 -20 -5 -48q-18 -83 -75 -129.5t-176 -54.5l-20 -37q45 0 67 -18t22 -50
q0 -15 -2 -23q-11 -50 -54 -77t-120 -27q-17 0 -40.5 2.5z" />
    <glyph glyph-name="scedilla" unicode="&#x15f;" horiz-adv-x="471" 
d="M69 -237.5q-23 2.5 -34 5.5l15 68q27 -8 59 -8q46 0 64.5 7t22.5 30q1 4 1 10q0 17 -16 22t-53 5h-44l44 89q-90 5 -135 25l24 112q30 -14 72.5 -21.5t81.5 -7.5q52 0 73 6.5t25 26.5q3 18 -13 28t-63 26q-7 3 -15.5 5.5t-19.5 6.5q-55 20 -82 46t-27 66q0 17 4 33
q16 71 71.5 106t167.5 35q41 0 79.5 -6t65.5 -16l-24 -111q-23 12 -56.5 19t-64.5 7q-51 0 -76.5 -8t-25.5 -30q0 -14 15.5 -22t56.5 -21q13 -3 30 -9q64 -22 91 -48.5t27 -66.5q0 -19 -4 -38q-14 -64 -59 -99t-130 -42l-21 -38q45 0 67 -18t22 -50q0 -15 -2 -23
q-11 -50 -54 -77t-120 -27q-17 0 -40 2.5z" />
    <glyph glyph-name="Scaron" unicode="&#x160;" horiz-adv-x="555" 
d="M235 862h100l50 -100l96 100h109l-172 -174h-86zM-2 25l25 119q41 -18 90 -29t97 -11q75 0 108.5 14t42.5 58q2 7 2 20q0 21 -13 34.5t-41.5 24.5t-84.5 28q-79 23 -114 55.5t-35 83.5q0 26 5 47q19 91 90 138t204 47q55 0 104 -7.5t79 -19.5l-26 -119q-74 31 -164 31
q-69 0 -105.5 -15t-44.5 -55q-2 -12 -2 -17q0 -18 12 -30.5t38.5 -22.5t77.5 -24q88 -24 124.5 -61t36.5 -90q0 -20 -5 -48q-19 -91 -87.5 -138.5t-213.5 -47.5q-128 0 -200 35z" />
    <glyph glyph-name="scaron" unicode="&#x161;" horiz-adv-x="471" 
d="M147 696h100l50 -100l96 100h109l-172 -174h-86zM67 -3q-46 7 -74 19l24 112q30 -14 72.5 -21.5t81.5 -7.5q52 0 73 6.5t25 26.5q3 18 -13 28t-63 26q-7 3 -15.5 5.5t-19.5 6.5q-55 20 -82 46t-27 66q0 17 4 33q16 71 71.5 106t167.5 35q41 0 79.5 -6t65.5 -16l-24 -111
q-23 12 -56.5 19t-64.5 7q-51 0 -76.5 -8t-25.5 -30q0 -14 15.5 -22t56.5 -21q13 -3 30 -9q64 -22 91 -48.5t27 -66.5q0 -19 -4 -38q-15 -73 -72.5 -108.5t-168.5 -35.5q-52 0 -98 7z" />
    <glyph glyph-name="uni0162" unicode="&#x162;" horiz-adv-x="564" 
d="M121 -237.5q-23 2.5 -34 5.5l15 68q27 -8 59 -8q46 0 64.5 7t22.5 30q1 4 1 10q0 17 -16 22t-53 5h-44l49 98h-26l114 540h-198l22 104h530l-22 -104h-197l-114 -540h-21l-25 -45q45 0 67 -18t22 -50q0 -15 -2 -23q-11 -50 -54 -77t-120 -27q-17 0 -40 2.5z" />
    <glyph glyph-name="uni0163" unicode="&#x163;" horiz-adv-x="391" 
d="M74.5 -237.5q-23.5 2.5 -33.5 5.5l15 68q27 -8 59 -8q46 0 64.5 7t22.5 30q1 4 1 10q0 17 -16 22t-53 5h-44l46 94q-40 10 -61 37.5t-21 70.5q0 25 5 46l47 220h-67l22 104h67l22 102l143 40l-30 -142h120l-30 -104h-112l-45 -211q-3 -16 -3 -28q0 -22 14.5 -31t48.5 -9
q27 0 60 10l-20 -93q-38 -13 -74 -16l-20 -37q45 0 67 -18t22 -50q0 -15 -2 -23q-11 -50 -54 -77t-120 -27q-17 0 -40.5 2.5z" />
    <glyph glyph-name="Tcaron" unicode="&#x164;" horiz-adv-x="564" 
d="M235 878h100l50 -100l96 100h109l-172 -174h-86zM273 540h-198l22 104h530l-22 -104h-197l-114 -540h-135z" />
    <glyph glyph-name="tcaron" unicode="&#x165;" horiz-adv-x="487" 
d="M460 760h106l-93 -201h-86zM87.5 20q-33.5 30 -33.5 84q0 19 5 46l47 220h-67l22 104h67l22 102l143 40l-30 -142h120l-30 -104h-112l-45 -211q-3 -16 -3 -28q0 -22 14.5 -31t48.5 -9q27 0 60 10l-20 -93q-48 -18 -110 -18q-65 0 -98.5 30z" />
    <glyph glyph-name="Tbar" unicode="&#x166;" horiz-adv-x="564" 
d="M221 293h-117l21 99h117l31 148h-198l22 104h530l-22 -104h-197l-31 -148h118l-21 -99h-118l-62 -293h-135z" />
    <glyph glyph-name="tbar" unicode="&#x167;" horiz-adv-x="368" 
d="M87.5 20q-33.5 30 -33.5 84q0 19 5 46l9 45h-66l19 91h67l18 84h-67l22 104h67l22 102l143 40l-30 -142h120l-30 -104h-112l-18 -84h121l-19 -91h-122l-7 -36q-3 -16 -3 -28q0 -22 14.5 -31t48.5 -9q27 0 60 10l-20 -93q-48 -18 -110 -18q-65 0 -98.5 30z" />
    <glyph glyph-name="Utilde" unicode="&#x168;" horiz-adv-x="679" 
d="M480 705q-18 5 -46 16q-44 19 -69 19q-55 0 -98 -37l21 96q17 14 42 22.5t51 8.5q21 0 39.5 -5.5t40.5 -15.5q26 -10 40.5 -14.5t32.5 -4.5q56 0 91 38l-21 -96q-12 -14 -35.5 -23t-50.5 -9q-20 0 -38 5zM105.5 41q-65.5 51 -65.5 143q0 21 7 58l85 402h135l-83 -392
q-7 -32 -7 -59q0 -48 29.5 -68t99.5 -20q80 0 123.5 36t59.5 111l83 392h135l-85 -402q-27 -127 -111 -189.5t-230 -62.5q-110 0 -175.5 51z" />
    <glyph glyph-name="utilde" unicode="&#x169;" horiz-adv-x="587" 
d="M400 539q-18 5 -46 16q-44 19 -69 19q-55 0 -98 -37l21 96q17 14 42 22.5t51 8.5q21 0 39.5 -5.5t40.5 -15.5q26 -10 40.5 -14.5t32.5 -4.5q56 0 91 38l-21 -96q-12 -14 -35.5 -23t-50.5 -9q-20 0 -38 5zM65.5 24q-38.5 34 -38.5 98q0 25 6 55l63 297h135l-62 -294
q-4 -17 -4 -34q0 -30 18 -43.5t58 -13.5q34 0 66.5 13.5t59.5 35.5l71 336h135l-100 -474h-125l4 45q-81 -55 -179 -55q-69 0 -107.5 34z" />
    <glyph glyph-name="Umacron" unicode="&#x16a;" horiz-adv-x="679" 
d="M301 805h307l-17 -83h-307zM105.5 41q-65.5 51 -65.5 143q0 21 7 58l85 402h135l-83 -392q-7 -32 -7 -59q0 -48 29.5 -68t99.5 -20q80 0 123.5 36t59.5 111l83 392h135l-85 -402q-27 -127 -111 -189.5t-230 -62.5q-110 0 -175.5 51z" />
    <glyph glyph-name="umacron" unicode="&#x16b;" horiz-adv-x="587" 
d="M221 639h307l-17 -83h-307zM65.5 24q-38.5 34 -38.5 98q0 25 6 55l63 297h135l-62 -294q-4 -17 -4 -34q0 -30 18 -43.5t58 -13.5q34 0 66.5 13.5t59.5 35.5l71 336h135l-100 -474h-125l4 45q-81 -55 -179 -55q-69 0 -107.5 34z" />
    <glyph glyph-name="Ubreve" unicode="&#x16c;" horiz-adv-x="679" 
d="M330 718.5q-34 30.5 -34 84.5q0 17 5 42h84q-3 -15 -3 -29q0 -50 53 -50q33 0 56 23t30 56h95q-16 -75 -65 -116t-128 -41q-59 0 -93 30.5zM105.5 41q-65.5 51 -65.5 143q0 21 7 58l85 402h135l-83 -392q-7 -32 -7 -59q0 -48 29.5 -68t99.5 -20q80 0 123.5 36t59.5 111
l83 392h135l-85 -402q-27 -127 -111 -189.5t-230 -62.5q-110 0 -175.5 51z" />
    <glyph glyph-name="ubreve" unicode="&#x16d;" horiz-adv-x="587" 
d="M259 552.5q-34 30.5 -34 84.5q0 17 5 42h84q-3 -15 -3 -29q0 -50 53 -50q33 0 56 23t30 56h95q-16 -75 -65 -116t-128 -41q-59 0 -93 30.5zM65.5 24q-38.5 34 -38.5 98q0 25 6 55l63 297h135l-62 -294q-4 -17 -4 -34q0 -30 18 -43.5t58 -13.5q34 0 66.5 13.5t59.5 35.5
l71 336h135l-100 -474h-125l4 45q-81 -55 -179 -55q-69 0 -107.5 34z" />
    <glyph glyph-name="Uring" unicode="&#x16e;" horiz-adv-x="679" 
d="M354.5 713q-26.5 25 -26.5 66q0 40 19.5 74t54 54t77.5 20q49 0 76 -25.5t27 -66.5q0 -14 -3 -28q-11 -52 -50.5 -85.5t-99.5 -33.5q-48 0 -74.5 25zM489.5 765.5q17.5 15.5 23.5 41.5q2 10 2 14q0 19 -13 31t-36 12q-28 0 -46 -16t-24 -41q-1 -5 -1 -13q0 -20 12.5 -32
t34.5 -12q30 0 47.5 15.5zM105.5 41q-65.5 51 -65.5 143q0 21 7 58l85 402h135l-83 -392q-7 -32 -7 -59q0 -48 29.5 -68t99.5 -20q80 0 123.5 36t59.5 111l83 392h135l-85 -402q-27 -127 -111 -189.5t-230 -62.5q-110 0 -175.5 51z" />
    <glyph glyph-name="uring" unicode="&#x16f;" horiz-adv-x="587" 
d="M271.5 547q-26.5 25 -26.5 66q0 40 19.5 74t54 54t77.5 20q49 0 76 -25.5t27 -66.5q0 -14 -3 -28q-11 -52 -50.5 -85.5t-99.5 -33.5q-48 0 -74.5 25zM406.5 599.5q17.5 15.5 23.5 41.5q2 10 2 14q0 19 -13 31t-36 12q-28 0 -46 -16t-24 -41q-1 -5 -1 -13q0 -20 12.5 -32
t34.5 -12q30 0 47.5 15.5zM65.5 24q-38.5 34 -38.5 98q0 25 6 55l63 297h135l-62 -294q-4 -17 -4 -34q0 -30 18 -43.5t58 -13.5q34 0 66.5 13.5t59.5 35.5l71 336h135l-100 -474h-125l4 45q-81 -55 -179 -55q-69 0 -107.5 34z" />
    <glyph glyph-name="Uhungarumlaut" unicode="&#x170;" horiz-adv-x="679" 
d="M357 863h119l-129 -176h-107zM584 863h120l-130 -176h-107zM105.5 41q-65.5 51 -65.5 143q0 21 7 58l85 402h135l-83 -392q-7 -32 -7 -59q0 -48 29.5 -68t99.5 -20q80 0 123.5 36t59.5 111l83 392h135l-85 -402q-27 -127 -111 -189.5t-230 -62.5q-110 0 -175.5 51z" />
    <glyph glyph-name="uhungarumlaut" unicode="&#x171;" horiz-adv-x="587" 
d="M270 697h119l-129 -176h-107zM497 697h120l-130 -176h-107zM65.5 24q-38.5 34 -38.5 98q0 25 6 55l63 297h135l-62 -294q-4 -17 -4 -34q0 -30 18 -43.5t58 -13.5q34 0 66.5 13.5t59.5 35.5l71 336h135l-100 -474h-125l4 45q-81 -55 -179 -55q-69 0 -107.5 34z" />
    <glyph glyph-name="Uogonek" unicode="&#x172;" horiz-adv-x="679" 
d="M199.5 -201.5q-27.5 18.5 -27.5 52.5q0 6 2 20q8 34 29.5 65t55.5 55q-101 5 -160 55.5t-59 136.5q0 30 7 59l85 402h135l-83 -392q-7 -32 -7 -59q0 -48 29.5 -68t99.5 -20q80 0 123.5 36t59.5 111l83 392h135l-85 -402q-23 -107 -85.5 -168.5t-168.5 -77.5
q-73 -48 -83 -100q-1 -4 -1 -10q0 -27 39 -27q28 0 50 11l-16 -76q-15 -6 -39 -10t-48 -4q-43 0 -70.5 18.5z" />
    <glyph glyph-name="uogonek" unicode="&#x173;" horiz-adv-x="592" 
d="M298.5 -201.5q-27.5 18.5 -27.5 53.5q0 5 2 19q14 73 84 129l-5 45q-81 -55 -179 -55q-69 0 -107.5 34t-38.5 98q0 25 6 55l63 297h135l-62 -294q-4 -17 -4 -34q0 -30 18 -43.5t58 -13.5q34 0 66.5 13.5t59.5 35.5l71 336h135l-100 -474q-38 -20 -60.5 -47t-28.5 -57
q-1 -4 -1 -10q0 -27 39 -27q28 0 50 11l-16 -76q-15 -6 -39 -10t-48 -4q-43 0 -70.5 18.5z" />
    <glyph glyph-name="Wcircumflex" unicode="&#x174;" horiz-adv-x="875" 
d="M527 862h86l98 -174h-99l-53 100l-93 -100h-110zM117 644h133l5 -435l180 351l17 84h110l32 -436l192 436h132l-285 -644h-124l-31 412l-214 -412h-133z" />
    <glyph glyph-name="wcircumflex" unicode="&#x175;" horiz-adv-x="757" 
d="M429 696h86l98 -174h-99l-53 100l-93 -100h-110zM81 474h135l7 -308l131 247l13 61h103l25 -308l135 308h134l-224 -474h-119l-33 277l-151 -277h-131z" />
    <glyph glyph-name="Ycircumflex" unicode="&#x176;" horiz-adv-x="671" 
d="M420 862h86l98 -174h-99l-53 100l-93 -100h-110zM262 238l-145 406h137l97 -291l219 291h144l-317 -406l-50 -238h-135z" />
    <glyph glyph-name="ycircumflex" unicode="&#x177;" horiz-adv-x="600" 
d="M366 696h86l98 -174h-99l-53 100l-93 -100h-110zM84.5 -172.5q-40.5 3.5 -59.5 7.5l22 103q19 -6 50 -9.5t54 -3.5q174 0 194 90l6 30q-81 -55 -178 -55q-65 0 -105 38.5t-40 103.5q0 18 5 45l63 297h135l-62 -294q-5 -25 -5 -39q0 -27 17.5 -39.5t59.5 -12.5
q34 0 66.5 13.5t59.5 35.5l71 336h135l-93 -441q-21 -100 -98 -154.5t-231 -54.5q-26 0 -66.5 3.5z" />
    <glyph glyph-name="Ydieresis" unicode="&#x178;" horiz-adv-x="671" 
d="M302 811h105l-21 -98h-105zM497 811h106l-21 -98h-106zM262 238l-145 406h137l97 -291l219 291h144l-317 -406l-50 -238h-135z" />
    <glyph glyph-name="Zacute" unicode="&#x179;" horiz-adv-x="579" 
d="M451 875h117l-128 -187h-109zM-5 70l423 462h-308l23 112h484l-17 -82l-418 -458h326l-22 -104h-505z" />
    <glyph glyph-name="zacute" unicode="&#x17a;" horiz-adv-x="489" 
d="M368 709h117l-128 -187h-109zM-5 70l301 292h-229l24 112h398l-17 -82l-295 -288h241l-22 -104h-415z" />
    <glyph glyph-name="Zdotaccent" unicode="&#x17b;" horiz-adv-x="579" 
d="M368 811h105l-21 -98h-105zM-5 70l423 462h-308l23 112h484l-17 -82l-418 -458h326l-22 -104h-505z" />
    <glyph glyph-name="zdotaccent" unicode="&#x17c;" horiz-adv-x="489" 
d="M278 645h105l-21 -98h-105zM-5 70l301 292h-229l24 112h398l-17 -82l-295 -288h241l-22 -104h-415z" />
    <glyph glyph-name="Zcaron" unicode="&#x17d;" horiz-adv-x="579" 
d="M263 862h100l50 -100l96 100h109l-172 -174h-86zM-5 70l423 462h-308l23 112h484l-17 -82l-418 -458h326l-22 -104h-505z" />
    <glyph glyph-name="zcaron" unicode="&#x17e;" horiz-adv-x="489" 
d="M160 696h100l50 -100l96 100h109l-172 -174h-86zM-5 70l301 292h-229l24 112h398l-17 -82l-295 -288h241l-22 -104h-415z" />
    <glyph glyph-name="uni018F" unicode="&#x18f;" horiz-adv-x="679" 
d="M93.5 45.5q-63.5 55.5 -63.5 152.5q0 35 7 67l25 117h481q4 34 4 48q0 47 -20.5 73.5t-66.5 38t-127 11.5q-46 0 -105.5 -11.5t-100.5 -27.5l21 99q51 18 113.5 29.5t122.5 11.5q133 0 206 -63t73 -180q0 -42 -11 -97q-33 -154 -128 -239t-254 -85q-113 0 -176.5 55.5z
M522 284h-363l-10 -47q-6 -25 -6 -47q0 -51 35.5 -77t112.5 -26q189 0 231 197z" />
    <glyph glyph-name="florin" unicode="&#x192;" horiz-adv-x="517" 
d="M-155 -104l40 93q27 -11 55 -11q42 0 66.5 15.5t43.5 61.5l133 315h-66l44 104h66l20 48q35 81 89.5 124.5t148.5 43.5q61 0 99 -19l-40 -93q-25 11 -54 11q-43 0 -67 -15.5t-41 -53.5l-20 -46h120l-50 -104h-114l-137 -325q-35 -81 -90 -124.5t-147 -43.5q-59 0 -99 19z
" />
    <glyph glyph-name="Ohorn" unicode="&#x1a0;" horiz-adv-x="780" 
d="M101.5 46.5q-65.5 56.5 -65.5 168.5q0 47 12 104q37 177 128.5 256t256.5 79q150 0 211 -74q51 2 77 25.5t39 82.5h97q-20 -92 -61.5 -136t-113.5 -56q5 -24 5 -62q0 -53 -13 -115q-36 -168 -128 -248.5t-255 -80.5q-124 0 -189.5 56.5zM459.5 157q53.5 52 77.5 162
q14 65 14 105q0 62 -33.5 88.5t-109.5 26.5q-93 0 -146 -50.5t-77 -169.5q-11 -57 -11 -92q0 -64 33.5 -93t108.5 -29q90 0 143.5 52z" />
    <glyph glyph-name="ohorn" unicode="&#x1a1;" horiz-adv-x="694" 
d="M76.5 34.5q-53.5 44.5 -53.5 129.5q-1 32 8 73q26 122 100.5 184.5t208.5 62.5q124 0 177 -61q56 1 83.5 26.5t40.5 86.5h97q-20 -95 -64 -141t-121 -58l-1 1q2 -20 2 -31q0 -30 -8 -70q-26 -123 -100 -185t-211 -62q-105 0 -158.5 44.5zM359.5 135q33.5 30 49.5 102
q7 31 7 57q0 41 -23 58t-77 17q-65 0 -99 -30t-49 -102q-8 -37 -8 -58q0 -40 23.5 -57t76.5 -17q66 0 99.5 30z" />
    <glyph glyph-name="Uhorn" unicode="&#x1af;" horiz-adv-x="838" 
d="M105.5 41q-65.5 51 -65.5 143q0 21 7 58l85 402h135l-83 -392q-7 -32 -7 -59q0 -48 29.5 -68t99.5 -20q80 0 123.5 36t59.5 111l83 392h135l-14 -64q57 1 82 24t38 84h97q-16 -74 -45.5 -117t-75 -61.5t-115.5 -19.5l-52 -248q-27 -127 -111 -189.5t-230 -62.5
q-110 0 -175.5 51z" />
    <glyph glyph-name="uhorn" unicode="&#x1b0;" horiz-adv-x="726" 
d="M65.5 24q-38.5 34 -38.5 98q0 25 6 55l63 297h135l-62 -294q-4 -17 -4 -34q0 -30 18 -43.5t58 -13.5q34 0 66.5 13.5t59.5 35.5l71 336h135l-11 -50q47 4 70.5 29.5t35.5 82.5h97q-22 -106 -73.5 -151.5t-148.5 -50.5l-70 -334h-125l4 45q-81 -55 -179 -55
q-69 0 -107.5 34z" />
    <glyph glyph-name="uni01CD" unicode="&#x1cd;" horiz-adv-x="713" 
d="M306 862h100l50 -100l96 100h109l-172 -174h-86zM363 644h148l109 -644h-135l-29 155h-237l-92 -155h-146zM459 259l-44 259l-153 -259h197z" />
    <glyph glyph-name="uni01CE" unicode="&#x1ce;" horiz-adv-x="591" 
d="M201 696h100l50 -100l96 100h109l-172 -174h-86zM66 27.5q-48 37.5 -48 117.5q0 27 8 69q18 83 60 144t100.5 93.5t126.5 32.5q41 0 70 -9t53 -32l6 31h135l-100 -474h-116l1 44q-37 -27 -77 -40.5t-89 -13.5q-82 0 -130 37.5zM314.5 99q27.5 10 55.5 33l44 211
q-31 42 -87 42q-63 0 -104.5 -43.5t-59.5 -127.5q-7 -29 -7 -54q0 -39 23 -55t75 -16q33 0 60.5 10z" />
    <glyph glyph-name="uni01CF" unicode="&#x1cf;" horiz-adv-x="250" 
d="M75 862h100l50 -100l96 100h109l-172 -174h-86zM137 644h135l-136 -644h-135z" />
    <glyph glyph-name="uni01D0" unicode="&#x1d0;" horiz-adv-x="321" 
d="M92 696h100l50 -100l96 100h109l-172 -174h-86zM151 374h-71l33 100h194l-100 -474h-135z" />
    <glyph glyph-name="uni01D1" unicode="&#x1d1;" horiz-adv-x="700" 
d="M300 862h100l50 -100l96 100h109l-172 -174h-86zM101.5 46.5q-65.5 56.5 -65.5 168.5q0 47 12 104q37 177 128.5 256t256.5 79q126 0 190.5 -53t64.5 -166q0 -49 -14 -116q-36 -168 -128 -248.5t-255 -80.5q-124 0 -189.5 56.5zM459.5 157q53.5 52 77.5 162q14 65 14 105
q0 62 -33.5 88.5t-109.5 26.5q-93 0 -146 -50.5t-77 -169.5q-11 -57 -11 -92q0 -64 33.5 -93t108.5 -29q90 0 143.5 52z" />
    <glyph glyph-name="uni01D2" unicode="&#x1d2;" horiz-adv-x="589" 
d="M208 696h100l50 -100l96 100h109l-172 -174h-86zM76.5 34.5q-53.5 44.5 -53.5 129.5q-1 32 8 73q26 122 100.5 184.5t208.5 62.5q107 0 160.5 -45t53.5 -130q0 -30 -8 -72q-26 -123 -100 -185t-211 -62q-105 0 -158.5 44.5zM359.5 135q33.5 30 49.5 102q7 31 7 57
q0 41 -23 58t-77 17q-65 0 -99 -30t-49 -102q-8 -37 -8 -58q0 -40 23.5 -57t76.5 -17q66 0 99.5 30z" />
    <glyph glyph-name="uni01D3" unicode="&#x1d3;" horiz-adv-x="679" 
d="M290 862h100l50 -100l96 100h109l-172 -174h-86zM105.5 41q-65.5 51 -65.5 143q0 21 7 58l85 402h135l-83 -392q-7 -32 -7 -59q0 -48 29.5 -68t99.5 -20q80 0 123.5 36t59.5 111l83 392h135l-85 -402q-27 -127 -111 -189.5t-230 -62.5q-110 0 -175.5 51z" />
    <glyph glyph-name="uni01D4" unicode="&#x1d4;" horiz-adv-x="587" 
d="M205 696h100l50 -100l96 100h109l-172 -174h-86zM65.5 24q-38.5 34 -38.5 98q0 25 6 55l63 297h135l-62 -294q-4 -17 -4 -34q0 -30 18 -43.5t58 -13.5q34 0 66.5 13.5t59.5 35.5l71 336h135l-100 -474h-125l4 45q-81 -55 -179 -55q-69 0 -107.5 34z" />
    <glyph glyph-name="uni01D5" unicode="&#x1d5;" horiz-adv-x="679" 
d="M325 923h307l-17 -83h-307zM303 800h105l-21 -98h-105zM498 800h106l-21 -98h-106zM105.5 41q-65.5 51 -65.5 143q0 21 7 58l85 402h135l-83 -392q-7 -32 -7 -59q0 -48 29.5 -68t99.5 -20q80 0 123.5 36t59.5 111l83 392h135l-85 -402q-27 -127 -111 -189.5t-230 -62.5
q-110 0 -175.5 51z" />
    <glyph glyph-name="uni01D6" unicode="&#x1d6;" horiz-adv-x="587" 
d="M251 768h307l-17 -83h-307zM223 635h105l-21 -98h-105zM418 635h106l-21 -98h-106zM65.5 24q-38.5 34 -38.5 98q0 25 6 55l63 297h135l-62 -294q-4 -17 -4 -34q0 -30 18 -43.5t58 -13.5q34 0 66.5 13.5t59.5 35.5l71 336h135l-100 -474h-125l4 45q-81 -55 -179 -55
q-69 0 -107.5 34z" />
    <glyph glyph-name="uni01D7" unicode="&#x1d7;" horiz-adv-x="679" 
d="M489 930h102l-93 -129h-95zM299 781h100l-20 -93h-100zM499 781h101l-20 -93h-101zM105.5 41q-65.5 51 -65.5 143q0 21 7 58l85 402h135l-83 -392q-7 -32 -7 -59q0 -48 29.5 -68t99.5 -20q80 0 123.5 36t59.5 111l83 392h135l-85 -402q-27 -127 -111 -189.5t-230 -62.5
q-110 0 -175.5 51z" />
    <glyph glyph-name="uni01D8" unicode="&#x1d8;" horiz-adv-x="587" 
d="M397 764h102l-93 -129h-95zM207 615h100l-20 -93h-100zM407 615h101l-20 -93h-101zM65.5 24q-38.5 34 -38.5 98q0 25 6 55l63 297h135l-62 -294q-4 -17 -4 -34q0 -30 18 -43.5t58 -13.5q34 0 66.5 13.5t59.5 35.5l71 336h135l-100 -474h-125l4 45q-81 -55 -179 -55
q-69 0 -107.5 34z" />
    <glyph glyph-name="uni01D9" unicode="&#x1d9;" horiz-adv-x="679" 
d="M320 919h95l44 -73l76 73h103l-138 -121h-93zM299 781h101l-20 -93h-101zM500 781h100l-20 -93h-100zM105.5 41q-65.5 51 -65.5 143q0 21 7 58l85 402h135l-83 -392q-7 -32 -7 -59q0 -48 29.5 -68t99.5 -20q80 0 123.5 36t59.5 111l83 392h135l-85 -402
q-27 -127 -111 -189.5t-230 -62.5q-110 0 -175.5 51z" />
    <glyph glyph-name="uni01DA" unicode="&#x1da;" horiz-adv-x="587" 
d="M239 752h95l44 -73l76 73h103l-138 -121h-93zM218 614h101l-20 -93h-101zM419 614h100l-20 -93h-100zM65.5 24q-38.5 34 -38.5 98q0 25 6 55l63 297h135l-62 -294q-4 -17 -4 -34q0 -30 18 -43.5t58 -13.5q34 0 66.5 13.5t59.5 35.5l71 336h135l-100 -474h-125l4 45
q-81 -55 -179 -55q-69 0 -107.5 34z" />
    <glyph glyph-name="uni01DB" unicode="&#x1db;" horiz-adv-x="679" 
d="M368 930h102l32 -129h-95zM298 781h100l-20 -93h-100zM498 781h101l-20 -93h-101zM105.5 41q-65.5 51 -65.5 143q0 21 7 58l85 402h135l-83 -392q-7 -32 -7 -59q0 -48 29.5 -68t99.5 -20q80 0 123.5 36t59.5 111l83 392h135l-85 -402q-27 -127 -111 -189.5t-230 -62.5
q-110 0 -175.5 51z" />
    <glyph glyph-name="uni01DC" unicode="&#x1dc;" horiz-adv-x="587" 
d="M292 764h102l32 -129h-95zM222 615h100l-20 -93h-100zM422 615h101l-20 -93h-101zM65.5 24q-38.5 34 -38.5 98q0 25 6 55l63 297h135l-62 -294q-4 -17 -4 -34q0 -30 18 -43.5t58 -13.5q34 0 66.5 13.5t59.5 35.5l71 336h135l-100 -474h-125l4 45q-81 -55 -179 -55
q-69 0 -107.5 34z" />
    <glyph glyph-name="Gcaron" unicode="&#x1e6;" horiz-adv-x="644" 
d="M316 861h100l50 -100l96 100h109l-172 -174h-86zM107.5 51q-70.5 61 -70.5 172q0 44 10 88q34 162 139.5 252.5t271.5 90.5q110 0 188 -27l-25 -116q-73 28 -178 28q-108 0 -171.5 -56.5t-87.5 -171.5q-10 -43 -10 -81q0 -64 37.5 -95t123.5 -31q66 0 128 20l32 150h-150
l18 86h264l-67 -315q-43 -24 -106.5 -39.5t-145.5 -15.5q-130 0 -200.5 61z" />
    <glyph glyph-name="gcaron" unicode="&#x1e7;" horiz-adv-x="591" 
d="M206 696h100l50 -100l96 100h109l-172 -174h-86zM98.5 -172.5q-40.5 3.5 -59.5 7.5l22 103q19 -6 50 -9.5t54 -3.5q77 0 123 20t56 66l5 25q-61 -36 -143 -36q-85 0 -135 39.5t-50 121.5q0 32 7 64q26 128 97.5 193.5t182.5 65.5q48 0 78.5 -13t57.5 -41l17 44h116
l-93 -441q-21 -97 -98 -153t-221 -56q-26 0 -66.5 3.5zM370 135l44 207q-18 22 -40.5 32.5t-54.5 10.5q-63 0 -99.5 -40t-53.5 -119q-7 -31 -7 -56q0 -39 22.5 -55t74.5 -16q64 0 114 36z" />
    <glyph glyph-name="Aringacute" unicode="&#x1fa;" horiz-adv-x="713" 
d="M538 1041h117l-128 -187h-109zM350 622q-25 25 -25 64q0 40 19 73.5t53.5 54t78.5 20.5q49 0 76 -25.5t27 -66.5q0 -14 -3 -28q-12 -61 -61 -94l105 -620h-135l-29 155h-237l-92 -155h-146zM486.5 672.5q17.5 15.5 23.5 41.5q2 10 2 14q0 19 -13 31t-36 12q-28 0 -46 -16
t-24 -41q-1 -5 -1 -13q0 -20 12.5 -32t34.5 -12q30 0 47.5 15.5zM459 259l-44 259l-153 -259h197z" />
    <glyph glyph-name="aringacute" unicode="&#x1fb;" horiz-adv-x="591" 
d="M495 935h117l-128 -149h-109zM279.5 542q-26.5 25 -26.5 66q0 40 19.5 74t54 54t77.5 20q49 0 76 -25.5t27 -66.5q0 -14 -3 -28q-11 -52 -50.5 -85.5t-99.5 -33.5q-48 0 -74.5 25zM414.5 594.5q17.5 15.5 23.5 41.5q2 10 2 14q0 19 -13 31t-36 12q-28 0 -46 -16t-24 -41
q-1 -5 -1 -13q0 -20 12.5 -32t34.5 -12q30 0 47.5 15.5zM66 27.5q-48 37.5 -48 117.5q0 27 8 69q18 83 60 144t100.5 93.5t126.5 32.5q41 0 70 -9t53 -32l6 31h135l-100 -474h-116l1 44q-37 -27 -77 -40.5t-89 -13.5q-82 0 -130 37.5zM314.5 99q27.5 10 55.5 33l44 211
q-31 42 -87 42q-63 0 -104.5 -43.5t-59.5 -127.5q-7 -29 -7 -54q0 -39 23 -55t75 -16q33 0 60.5 10z" />
    <glyph glyph-name="AEacute" unicode="&#x1fc;" horiz-adv-x="849" 
d="M631 875h117l-128 -187h-109zM363 644h529l-22 -105h-274l-35 -165h237l-22 -104h-237l-35 -166h274l-22 -104h-409l33 156h-160l-93 -156h-146zM402 260l60 284h-26l-163 -284h129z" />
    <glyph glyph-name="aeacute" unicode="&#x1fd;" horiz-adv-x="882" 
d="M558 709h117l-128 -187h-109zM50.5 20.5q-43.5 30.5 -43.5 85.5q0 15 3 31q15 71 74 112.5t154 41.5h140l3 13q3 15 3 26q0 30 -24 42t-85 12q-81 0 -161 -25l20 95q85 30 190 30q58 0 96.5 -12.5t60.5 -39.5q35 25 82.5 38.5t100.5 13.5q92 0 140.5 -41.5t48.5 -113.5
q0 -24 -6 -53l-18 -86h-343q-1 -56 34.5 -79t113.5 -23q37 0 78.5 7t72.5 18l-20 -93q-72 -30 -180 -30q-57 0 -106.5 20t-70.5 57q-56 -40 -111.5 -58.5t-137.5 -18.5q-65 0 -108.5 30.5zM729 273l5 26q4 22 4 30q0 29 -20.5 43.5t-69.5 14.5q-66 0 -98.5 -26.5
t-45.5 -87.5h225zM344 128l16 79h-137q-79 0 -92 -65q-2 -7 -2 -19q0 -22 17 -33t57 -11q82 0 141 49z" />
    <glyph glyph-name="Oslashacute" unicode="&#x1fe;" horiz-adv-x="700" 
d="M479 875h117l-128 -187h-109zM137 22q-101 52 -101 192q0 48 12 105q37 177 128.5 256t256.5 79q41 0 76 -6l27 45h77l-38 -64q113 -47 113 -194q0 -49 -14 -116q-36 -168 -128 -248.5t-255 -80.5q-49 0 -90 9l-31 -52h-77zM443 537q-22 2 -35 2q-93 0 -146 -50.5
t-77 -169.5q-11 -57 -11 -92q0 -61 31 -91zM459.5 157q53.5 52 77.5 162q14 64 14 104q0 70 -42 95l-243 -409q20 -4 50 -4q90 0 143.5 52z" />
    <glyph glyph-name="oslashacute" unicode="&#x1ff;" horiz-adv-x="589" 
d="M390 709h117l-128 -187h-109zM112 12q-89 40 -89 152q0 38 8 73q26 122 100.5 184.5t208.5 62.5q27 0 51 -3l28 47h77l-38 -64q96 -40 96 -155q0 -30 -8 -72q-26 -123 -100 -185t-211 -62q-33 0 -57 4l-27 -47h-77zM324 369h-8q-65 0 -99 -30t-49 -102q-8 -37 -8 -59
q0 -37 19 -53zM260 105q66 0 99.5 30t49.5 102q7 39 7 56q0 42 -24 59l-147 -247h15z" />
    <glyph glyph-name="Scommaaccent" unicode="&#x218;" horiz-adv-x="555" 
d="M-2 25l25 119q41 -18 90 -29t97 -11q75 0 108.5 14t42.5 58q2 7 2 20q0 21 -13 34.5t-41.5 24.5t-84.5 28q-79 23 -114 55.5t-35 83.5q0 26 5 47q19 91 90 138t204 47q55 0 104 -7.5t79 -19.5l-26 -119q-74 31 -164 31q-69 0 -105.5 -15t-44.5 -55q-2 -12 -2 -17
q0 -18 12 -30.5t38.5 -22.5t77.5 -24q88 -24 124.5 -61t36.5 -90q0 -20 -5 -48q-19 -91 -87.5 -138.5t-213.5 -47.5q-128 0 -200 35zM158 -47h116l-80 -179h-103z" />
    <glyph glyph-name="scommaaccent" unicode="&#x219;" horiz-adv-x="471" 
d="M67 -3q-46 7 -74 19l24 112q30 -14 72.5 -21.5t81.5 -7.5q52 0 73 6.5t25 26.5q3 18 -13 28t-63 26q-7 3 -15.5 5.5t-19.5 6.5q-55 20 -82 46t-27 66q0 17 4 33q16 71 71.5 106t167.5 35q41 0 79.5 -6t65.5 -16l-24 -111q-23 12 -56.5 19t-64.5 7q-51 0 -76.5 -8
t-25.5 -30q0 -14 15.5 -22t56.5 -21q13 -3 30 -9q64 -22 91 -48.5t27 -66.5q0 -19 -4 -38q-15 -73 -72.5 -108.5t-168.5 -35.5q-52 0 -98 7zM119 -47h116l-80 -179h-103z" />
    <glyph glyph-name="uni021A" unicode="&#x21a;" horiz-adv-x="564" 
d="M273 540h-198l22 104h530l-22 -104h-197l-114 -540h-135zM167 -47h106l-93 -201h-86z" />
    <glyph glyph-name="uni021B" unicode="&#x21b;" horiz-adv-x="368" 
d="M87.5 20q-33.5 30 -33.5 84q0 19 5 46l47 220h-67l22 104h67l22 102l143 40l-30 -142h120l-30 -104h-112l-45 -211q-3 -16 -3 -28q0 -22 14.5 -31t48.5 -9q27 0 60 10l-20 -93q-48 -18 -110 -18q-65 0 -98.5 30zM111 -47h106l-93 -201h-86z" />
    <glyph glyph-name="uni0237" unicode="&#x237;" horiz-adv-x="319" 
d="M-110 -216l19 93q29 -10 58 -10q47 0 65 15t26 54l93 438h-71l33 100h194l-117 -551q-33 -157 -197 -157q-63 0 -103 18z" />
    <glyph glyph-name="uni0251" unicode="&#x251;" horiz-adv-x="591" 
d="M66 27.5q-48 37.5 -48 117.5q0 27 8 69q18 83 60 144t100.5 93.5t126.5 32.5q41 0 70 -9t53 -32l6 31h135l-100 -474h-116l1 44q-37 -27 -77 -40.5t-89 -13.5q-82 0 -130 37.5zM314.5 99q27.5 10 55.5 33l44 211q-31 42 -87 42q-63 0 -104.5 -43.5t-59.5 -127.5
q-7 -29 -7 -54q0 -39 23 -55t75 -16q33 0 60.5 10z" />
    <glyph glyph-name="uni0259" unicode="&#x259;" horiz-adv-x="542" 
d="M67.5 30.5q-50.5 40.5 -50.5 115.5q0 24 6 52l18 86h343q1 40 -10.5 60.5t-43.5 29.5t-95 9q-37 0 -78.5 -7t-71.5 -18l20 96q72 30 179 30q110 0 166.5 -44t56.5 -132q0 -30 -8 -72q-25 -115 -96.5 -180.5t-197.5 -65.5q-87 0 -137.5 40.5zM320.5 113.5
q32.5 26.5 45.5 87.5h-225l-5 -26q-3 -16 -3 -29q0 -30 20 -44.5t69 -14.5q66 0 98.5 26.5z" />
    <glyph glyph-name="uni02BB" unicode="&#x2bb;" horiz-adv-x="246" 
d="M190 654h102l-100 -206h-116z" />
    <glyph glyph-name="uni02BC" unicode="&#x2bc;" horiz-adv-x="246" 
d="M176 654h116l-114 -206h-102z" />
    <glyph glyph-name="uni02BE" unicode="&#x2be;" 
d="M-326 540q36 0 59 19.5t31 54.5q2 7 2 21q0 24 -15.5 37.5t-45.5 13.5l18 85q61 0 95 -31.5t34 -84.5q0 -18 -5 -41q-15 -71 -66.5 -115t-124.5 -44z" />
    <glyph glyph-name="uni02BF" unicode="&#x2bf;" 
d="M-281.5 486.5q-33.5 31.5 -33.5 85.5q0 17 5 42q15 71 66 114t124 43l-18 -85q-36 0 -58.5 -19t-30.5 -53q-3 -12 -3 -22q0 -25 15.5 -38.5t45.5 -13.5l-18 -85q-61 0 -94.5 31.5z" />
    <glyph glyph-name="circumflex" unicode="&#x2c6;" horiz-adv-x="295" 
d="M198 706h86l98 -174h-99l-53 100l-93 -100h-111z" />
    <glyph glyph-name="caron" unicode="&#x2c7;" horiz-adv-x="295" 
d="M63 706h101l50 -100l96 100h109l-172 -174h-86z" />
    <glyph glyph-name="uni02C8" unicode="&#x2c8;" 
d="M18 666h88l-39 -186h-88z" />
    <glyph glyph-name="uni02C9" unicode="&#x2c9;" 
d="M201 644h308l-17 -83h-308z" />
    <glyph glyph-name="uni02CA" unicode="&#x2ca;" 
d="M53 709h117l-128 -187h-108z" />
    <glyph glyph-name="uni02CB" unicode="&#x2cb;" 
d="M-31 709h117l40 -187h-109z" />
    <glyph glyph-name="uni02CC" unicode="&#x2cc;" 
d="M-131 -41h87l-39 -186h-88z" />
    <glyph glyph-name="breve" unicode="&#x2d8;" horiz-adv-x="266" 
d="M94.5 565.5q-34.5 30.5 -34.5 84.5q0 17 5 42h85q-4 -20 -4 -30q0 -49 54 -49q35 0 57 22.5t29 56.5h95q-16 -74 -66.5 -115.5t-126.5 -41.5q-59 0 -93.5 30.5z" />
    <glyph glyph-name="dotaccent" unicode="&#x2d9;" horiz-adv-x="110" 
d="M85 655h105l-21 -98h-105z" />
    <glyph glyph-name="ring" unicode="&#x2da;" horiz-adv-x="266" 
d="M121 552.5q-28 25.5 -28 65.5q0 12 3 24q11 51 51 83.5t95 32.5q44 0 71 -25.5t27 -65.5q0 -11 -3 -25q-11 -51 -50 -83t-94 -32q-44 0 -72 25.5zM243 609q17 14 21 33q1 4 1 12q0 36 -38 36q-22 0 -40.5 -18t-18.5 -41q0 -16 10 -26t29 -10t36 14z" />
    <glyph glyph-name="ogonek" unicode="&#x2db;" horiz-adv-x="208" 
d="M-50 -202q-27 18 -27 53q0 6 2 20q8 38 34 71.5t66 57.5h100q-79 -50 -90 -104q-1 -4 -1 -10q0 -27 39 -27q29 0 51 11l-16 -76q-15 -6 -39.5 -10t-48.5 -4q-43 0 -70 18z" />
    <glyph glyph-name="tilde" unicode="&#x2dc;" horiz-adv-x="336" 
d="M276 561q-18 5 -46 16q-44 19 -69 19q-55 0 -98 -37l21 96q17 14 42 22.5t51 8.5q21 0 39.5 -5.5t40.5 -15.5q26 -10 40.5 -14.5t32.5 -4.5q56 0 91 38l-21 -96q-12 -14 -35.5 -23t-50.5 -9q-20 0 -38 5z" />
    <glyph glyph-name="hungarumlaut" unicode="&#x2dd;" horiz-adv-x="359" 
d="M141 706h120l-130 -176h-107zM369 706h120l-130 -176h-107z" />
    <glyph glyph-name="gravecomb" unicode="&#x300;" 
d="M-380 709h117l40 -187h-109z" />
    <glyph glyph-name="acutecomb" unicode="&#x301;" 
d="M-255 709h117l-128 -187h-109z" />
    <glyph glyph-name="uni0302" unicode="&#x302;" 
d="M17 706h86l98 -174h-99l-53 100l-93 -100h-110z" />
    <glyph glyph-name="tildecomb" unicode="&#x303;" 
d="M-227 561q-18 5 -46 16q-44 19 -69 19q-55 0 -98 -37l21 96q17 14 42 22.5t51 8.5q21 0 39.5 -5.5t40.5 -15.5q26 -10 40.5 -14.5t32.5 -4.5q56 0 91 38l-21 -96q-12 -14 -35.5 -23t-50.5 -9q-20 0 -38 5z" />
    <glyph glyph-name="uni0304" unicode="&#x304;" 
d="M-104 644h307l-17 -83h-307z" />
    <glyph glyph-name="uni0306" unicode="&#x306;" 
d="M-59 565.5q-34 30.5 -34 84.5q0 17 5 42h84q-3 -15 -3 -29q0 -50 53 -50q33 0 56 23t30 56h95q-16 -75 -65 -116t-128 -41q-59 0 -93 30.5z" />
    <glyph glyph-name="uni0307" unicode="&#x307;" 
d="M8 655h105l-21 -98h-105z" />
    <glyph glyph-name="uni0308" unicode="&#x308;" 
d="M-73 655h105l-21 -98h-105zM122 655h106l-21 -98h-106z" />
    <glyph glyph-name="hookabovecomb" unicode="&#x309;" 
d="M-309 587q54 3 74.5 13.5t25.5 34.5q1 3 1 8q0 31 -61 31q-15 0 -33.5 -3t-31.5 -8l15 67q41 13 102 13q55 0 84 -20t29 -56q0 -6 -2 -20q-9 -42 -33.5 -64t-73.5 -31l-10 -46h-103z" />
    <glyph glyph-name="uni030A" unicode="&#x30a;" 
d="M-43.5 543q-26.5 25 -26.5 66q0 40 19.5 74t54 54t77.5 20q49 0 76 -25.5t27 -66.5q0 -14 -3 -28q-11 -52 -50.5 -85.5t-99.5 -33.5q-48 0 -74.5 25zM91.5 595.5q17.5 15.5 23.5 41.5q2 10 2 14q0 19 -13 31t-36 12q-28 0 -46 -16t-24 -41q-1 -5 -1 -13q0 -20 12.5 -32
t34.5 -12q30 0 47.5 15.5z" />
    <glyph glyph-name="uni030B" unicode="&#x30b;" 
d="M-73 706h119l-129 -176h-107zM154 706h120l-130 -176h-107z" />
    <glyph glyph-name="uni030C" unicode="&#x30c;" 
d="M-117 706h100l50 -100l96 100h109l-172 -174h-86z" />
    <glyph glyph-name="uni031B" unicode="&#x31b;" 
d="M-56 608q42 0 66 9.5t38 32.5t23 66h97q-16 -76 -46 -118t-77 -59.5t-120 -18.5z" />
    <glyph glyph-name="dotbelowcomb" unicode="&#x323;" 
d="M-449 -82h107l-21 -99h-107z" />
    <glyph glyph-name="uni0324" unicode="&#x324;" 
d="M-254 -82h107l-21 -99h-107zM-46 -82h107l-21 -99h-106z" />
    <glyph glyph-name="uni0326" unicode="&#x326;" 
d="M-212 -37h106l-93 -201h-86z" />
    <glyph glyph-name="uni0327" unicode="&#x327;" 
d="M-181.5 -237.5q-23.5 2.5 -33.5 5.5l15 68q27 -8 59 -8q46 0 64.5 7t22.5 30q1 4 1 10q0 17 -16 22t-53 5h-44l49 98h88l-25 -45q45 0 67 -18t22 -50q0 -15 -2 -23q-11 -50 -54 -77t-120 -27q-17 0 -40.5 2.5z" />
    <glyph glyph-name="uni0328" unicode="&#x328;" 
d="M-179.5 -201.5q-27.5 18.5 -27.5 52.5q0 6 2 20q8 38 34 71.5t66 57.5h100q-78 -49 -89 -104q-1 -4 -1 -10q0 -27 39 -27q28 0 50 11l-16 -76q-15 -6 -39 -10t-48 -4q-43 0 -70.5 18.5z" />
    <glyph glyph-name="uni032E" unicode="&#x32e;" 
d="M-216.5 -185q-35.5 32 -35.5 87q0 21 4 38h86q-3 -15 -3 -28q0 -51 53 -51q33 0 55.5 22.5t29.5 56.5h94q-16 -74 -66.5 -115.5t-125.5 -41.5q-56 0 -91.5 32z" />
    <glyph glyph-name="uni0331" unicode="&#x331;" 
d="M-256 -72h307l-17 -83h-307z" />
    <glyph glyph-name="uni0394" unicode="&#x394;" horiz-adv-x="644" 
d="M-4 73l346 571h118l106 -572l-15 -72h-570zM446 104l-71 391l-238 -391h309z" />
    <glyph glyph-name="uni03A9" unicode="&#x3a9;" horiz-adv-x="759" 
d="M9 100h128q-40 32 -63.5 83.5t-23.5 112.5q0 32 8 70q33 153 136 241t276 88q88 0 151.5 -32.5t96 -90t32.5 -131.5q0 -33 -8 -75q-19 -89 -67.5 -156.5t-123.5 -109.5h128l-21 -100h-286l21 103q176 87 211 255q9 44 9 79q0 70 -40 106.5t-127 36.5q-105 0 -167.5 -59
t-84.5 -163q-8 -37 -8 -67q0 -119 109 -188l-21 -103h-286z" />
    <glyph glyph-name="uni03BC" unicode="&#x3bc;" horiz-adv-x="592" 
d="M101 474h135l-62 -294q-4 -16 -4 -32q0 -30 18.5 -44.5t57.5 -14.5q34 0 66.5 13.5t59.5 35.5l71 336h135l-100 -474h-125l4 45q-81 -55 -179 -55q-25 0 -43 8l-30 -141h-135z" />
    <glyph glyph-name="pi" unicode="&#x3c0;" horiz-adv-x="676" 
d="M391.5 21q-34.5 31 -34.5 86q0 18 5 43l47 220h-160l-78 -370h-135l78 370h-65l22 104h559l-22 -104h-64l-45 -211q-4 -16 -4 -31q0 -21 14 -29t50 -8q27 0 60 10l-20 -93q-48 -18 -110 -18q-63 0 -97.5 31z" />
    <glyph glyph-name="uni0E01" unicode="&#xe01;" horiz-adv-x="622" 
d="M42 172q11 51 35 84.5t70 46.5l-96 27l27 129q55 39 129 65t156 26q107 0 162.5 -38t55.5 -120q0 -28 -8 -66l-69 -326h-135l69 329q6 26 6 45q0 38 -25.5 54.5t-84.5 16.5q-43 0 -84 -13t-69 -33l-3 -14l105 -30l-17 -82q-41 -10 -60 -32.5t-29 -69.5l-36 -171h-135z
" />
    <glyph glyph-name="uni0E02" unicode="&#xe02;" horiz-adv-x="595" 
d="M79 35q-53 45 -53 119q0 20 5 45l7 34q7 36 27.5 63.5t53.5 60.5q21 22 30.5 34t12.5 24q1 3 1 9q0 9 -6 12.5t-22 3.5h-65l32 100h140q70 0 70 -54q0 -11 -3 -23q-6 -30 -22.5 -55t-45.5 -59q-28 -33 -44.5 -58.5t-23.5 -56.5l-9 -43q-4 -17 -4 -34q0 -33 21.5 -47.5
t70.5 -14.5q110 0 131 100l73 345h135l-72 -339q-22 -104 -93 -157.5t-197 -53.5q-97 0 -150 45z" />
    <glyph glyph-name="uni0E03" unicode="&#xe03;" horiz-adv-x="595" 
d="M78 35q-54 45 -54 115q0 19 5 42l3 13q8 36 35 71t70 78q26 27 39 43t16 27l1 6q-1 13 -13 13t-28 -11l-8 -41h-85l31 149h89l-6 -28q20 14 40.5 21t46.5 7q66 0 66 -55q0 -12 -3 -27q-7 -35 -26.5 -63.5t-54.5 -67.5q-32 -35 -49.5 -60t-23.5 -54l-5 -22q-4 -17 -4 -34
q0 -33 21.5 -47.5t70.5 -14.5q110 0 131 100l73 345h135l-72 -339q-22 -104 -93 -157.5t-197 -53.5q-97 0 -151 45z" />
    <glyph glyph-name="uni0E04" unicode="&#xe04;" horiz-adv-x="629" 
d="M72 335q24 111 93.5 163t206.5 52q102 0 158 -45t56 -121q0 -28 -5 -49l-71 -335h-135l73 345q4 17 4 35q0 35 -23.5 50t-78.5 15q-66 0 -98 -23.5t-43 -76.5l-21 -97q49 32 101 32h65l-19 -107h-72q-53 0 -97 -29l-30 -144h-135z" />
    <glyph glyph-name="uni0E05" unicode="&#xe05;" horiz-adv-x="629" 
d="M83 386q16 76 59 120t113 44q69 0 103 -51q23 26 59 38.5t76 12.5q53 0 79.5 -27.5t26.5 -79.5q0 -20 -7 -57l-82 -386h-134l80 379q3 15 3 25q0 31 -33 31q-38 0 -59 -36h-55q-2 17 -10 26.5t-24 9.5q-28 0 -42.5 -14t-20.5 -42l-28 -131q49 32 101 32h66l-19 -107h-73
q-53 0 -97 -29l-30 -144h-134z" />
    <glyph glyph-name="uni0E06" unicode="&#xe06;" horiz-adv-x="619" 
d="M142 53l-17 -53h-124l40 192q9 41 37.5 79.5t72.5 83.5q25 27 37.5 42.5t15.5 26.5l1 6q-1 13 -13 13t-28 -11l-8 -41h-85l31 149h89l-6 -28q20 14 40.5 21t46.5 7q32 0 49 -14.5t17 -42.5q0 -11 -3 -25q-8 -37 -28 -67t-56 -72q-32 -36 -49.5 -62.5t-23.5 -56.5l-10 -49
q17 -24 50 -40t70 -16q55 0 81 23t37 79l73 343h135l-74 -351q-21 -96 -78.5 -147.5t-151.5 -51.5q-105 0 -168 63z" />
    <glyph glyph-name="uni0E07" unicode="&#xe07;" horiz-adv-x="548" 
d="M143.5 -6q-29.5 4 -49.5 11l-74 370h131l58 -289q74 0 118.5 49.5t66.5 151.5q10 46 10 80q0 43 -22 60t-76 17h-41l20 96h60q187 0 187 -167q0 -40 -10 -86q-33 -154 -113.5 -225.5t-207.5 -71.5q-28 0 -57.5 4z" />
    <glyph glyph-name="uni0E08" unicode="&#xe08;" horiz-adv-x="560" 
d="M165 -5.5q-27 4.5 -43 10.5l-33 203h-74l26 96h153l34 -211q62 0 105.5 44t63.5 138q10 50 10 77q0 52 -34.5 72.5t-121.5 20.5q-41 0 -87.5 -6.5t-89.5 -19.5l21 100q104 31 213 31q114 0 170.5 -49t56.5 -141q0 -42 -10 -85q-30 -138 -112 -211.5t-199 -73.5
q-22 0 -49 4.5z" />
    <glyph glyph-name="uni0E09" unicode="&#xe09;" horiz-adv-x="596" 
d="M56 24q-38 34 -38 99q0 24 6 54l26 123h135l-22 -103q-6 -27 -6 -45q0 -31 18 -44t62 -13q75 0 137 57l35 167q6 29 6 49q0 43 -32 60t-111 17q-41 0 -100 -8.5t-103 -21.5l21 100q50 16 114 25.5t125 9.5q223 0 223 -164q0 -28 -8 -68l-67 -318h-124l5 54
q-90 -64 -199 -64q-65 0 -103 34z" />
    <glyph glyph-name="uni0E0A" unicode="&#xe0a;" horiz-adv-x="598" 
d="M80 31.5q-53 41.5 -53 116.5q0 24 6 51l7 34q8 38 29 67t53 60q20 20 29.5 32t12.5 23q1 3 1 9q0 9 -6 12.5t-22 3.5h-65l32 100h140q70 0 70 -54q0 -11 -3 -23q-6 -30 -22.5 -55t-45.5 -59q-28 -33 -44.5 -58.5t-23.5 -56.5l-9 -43q-4 -17 -4 -34q0 -33 21.5 -47.5
t70.5 -14.5q110 0 131 100l13 63q4 16 4 31q0 21 -11 30t-37 9h-28l26 94h18q36 0 52.5 16t25.5 55l12 57h135l-11 -54q-9 -47 -30.5 -75t-64.5 -46q47 -28 47 -86q0 -20 -4 -36l-11 -52q-44 -211 -290 -211q-98 0 -151 41.5z" />
    <glyph glyph-name="uni0E0B" unicode="&#xe0b;" horiz-adv-x="598" 
d="M79.5 31q-53.5 41 -53.5 113q0 22 4 42l5 25q7 38 33 71t72 77q27 26 39 40t15 25l1 6q-1 13 -13 13t-28 -11l-8 -41h-85l31 149h89l-6 -28q42 28 87 28q66 0 66 -56q0 -12 -3 -26q-7 -33 -26 -60.5t-54 -67.5q-33 -37 -50.5 -62.5t-23.5 -54.5l-5 -22q-4 -17 -4 -34
q0 -32 21.5 -47t70.5 -15q58 0 89 24.5t42 75.5l13 63q4 16 4 31q0 21 -11 30t-37 9h-28l26 94h18q36 0 52.5 16t25.5 55l12 57h135l-11 -54q-9 -47 -30.5 -75t-64.5 -46q47 -31 47 -89q0 -11 -4 -33l-11 -52q-44 -211 -290 -211q-98 0 -151.5 41z" />
    <glyph glyph-name="uni0E0C" unicode="&#xe0c;" horiz-adv-x="962" 
d="M565 6q-39 16 -70 47l-17 -53h-119l69 329q6 26 6 45q0 38 -23.5 54.5t-76.5 16.5q-43 0 -84 -13t-69 -33l-3 -14l105 -30l-17 -82q-41 -10 -60 -32.5t-29 -69.5l-6 -29q-3 -12 -3 -20q0 -10 6 -13.5t20 -3.5h59l-22 -105h-122q-39 0 -61.5 22t-22.5 58q0 13 3 26l14 66
q11 51 35 84.5t70 46.5l-96 27l27 129q55 39 129 65t156 26q202 0 202 -158q0 -32 -7 -66l-37 -175q17 -25 48 -40.5t67 -15.5q37 0 58 9t33.5 30.5t21.5 62.5l73 343h135l-74 -351q-21 -100 -76.5 -149.5t-148.5 -49.5q-54 0 -93 16z" />
    <glyph glyph-name="uni0E0D" unicode="&#xe0d;" horiz-adv-x="977" 
d="M401 -28l22 104q74 -43 193 -43q62 0 102.5 13t45.5 36q1 2 1 7q0 7 -4 13.5t-9 9.5q-54 -32 -129 -32q-95 0 -149.5 41.5t-54.5 128.5q0 31 5 57l4 22q7 35 7 52q0 34 -23 49t-78 15q-43 0 -84 -13t-69 -33l-3 -14l105 -30l-17 -82q-41 -10 -60 -32.5t-29 -69.5l-6 -29
q-3 -12 -3 -20q0 -10 6 -13.5t20 -3.5h59l-22 -105h-122q-39 0 -61.5 22t-22.5 58q0 13 3 26l14 66q11 51 35 84.5t70 46.5l-96 27l27 129q55 39 129 65t156 26q91 0 147 -41.5t56 -121.5q0 -26 -8 -61l-5 -21q-8 -34 -8 -53q0 -36 23 -51.5t77 -15.5q57 0 93 30.5t49 89.5
l50 235h135l-49 -233q-10 -48 -28 -82t-49 -59q31 -29 31 -73q0 -15 -2 -22q-16 -72 -83 -107t-194 -35q-110 0 -197 43z" />
    <glyph glyph-name="uni0E0E" unicode="&#xe0e;" horiz-adv-x="658" 
d="M88 -94q80 35 177 35q38 0 70 -7t51 -18l87 413q6 27 6 48q0 36 -23 52t-75 16q-43 0 -84 -13t-69 -33l-3 -14l105 -30l-17 -82q-40 -12 -56 -33t-26 -69l-8 -37q-15 -72 -52 -103t-108 -31h-72l22 105h33q19 0 28 8t13 28l7 31q11 52 32.5 83.5t67.5 47.5l-96 27l27 129
q55 39 129 65t156 26q97 0 151 -40.5t54 -121.5q0 -31 -7 -62l-111 -520h-135q-47 30 -135 30q-38 0 -83 -9.5t-78 -23.5z" />
    <glyph glyph-name="uni0E0F" unicode="&#xe0f;" horiz-adv-x="658" 
d="M271 -182q-29 13 -41 35q-37 -47 -101 -47h-104l28 102h73q29 0 46.5 10t31.5 34h86q2 -24 11.5 -36t33.5 -12q48 0 59 51l79 374q6 29 6 49q0 36 -22 51.5t-76 15.5q-43 0 -84 -13t-69 -33l-3 -14l105 -30l-17 -82q-40 -12 -56 -33t-26 -69l-8 -37q-15 -72 -54.5 -103
t-105.5 -31h-72l22 105h33q19 0 28 8t13 28l7 31q11 52 32.5 83.5t67.5 47.5l-96 27l27 129q55 39 129 65t156 26q95 0 150 -41.5t55 -123.5q0 -22 -7 -59l-79 -373q-16 -73 -60.5 -110.5t-131.5 -37.5q-37 0 -66 13z" />
    <glyph glyph-name="uni0E10" unicode="&#xe10;" horiz-adv-x="599" 
d="M165 -5.5q-27 4.5 -43 10.5l-33 203h-74l26 96h153l34 -211q62 0 105.5 44t63.5 138q10 50 10 77q0 52 -34.5 72.5t-121.5 20.5q-41 0 -87.5 -6.5t-89.5 -19.5l21 100q104 31 213 31q47 0 90 -10h237l-29 -103h-90q18 -36 18 -87q0 -36 -9 -75q-30 -138 -112 -211.5
t-199 -73.5q-22 0 -49 4.5zM143 -161q-37 -47 -101 -47h-90l28 102h59q29 0 46.5 10t31.5 34h86q2 -24 13.5 -36t38.5 -12q55 0 66 51l5 23h112l-5 -25q-33 -148 -187 -148q-77 0 -103 48z" />
    <glyph glyph-name="uni0E11" unicode="&#xe11;" horiz-adv-x="613" 
d="M59 197q7 34 28.5 68t54.5 75q24 32 36.5 50.5t15.5 33.5l1 6q-1 13 -13 13t-28 -11l-8 -41h-85l31 149h89l-6 -28q21 14 39 21t44 7q39 0 54 -29q28 17 62.5 28t69.5 11q134 0 134 -123q0 -30 -7 -62l-77 -365h-135l76 361q5 27 5 40q0 23 -12.5 33.5t-40.5 10.5
q-17 0 -39.5 -7.5t-36.5 -17.5q-6 -27 -19 -49.5t-35 -53.5q-25 -34 -40.5 -61.5t-22.5 -62.5l-41 -193h-135z" />
    <glyph glyph-name="uni0E12" unicode="&#xe12;" horiz-adv-x="994" 
d="M76 37.5q-49 47.5 -49 139.5q0 37 9 82q30 145 88 218t150 73q40 0 61 -13t34 -38q24 23 59.5 37t75.5 14q54 0 80 -27t26 -75q0 -25 -6 -54l-51 -243q17 -25 48 -40.5t67 -15.5q52 0 77 23t36 79l73 343h135l-74 -351q-21 -96 -77.5 -147.5t-147.5 -51.5q-54 0 -93 16
t-70 47l-17 -53h-119l79 373q6 32 6 40q0 16 -7.5 24t-24.5 8q-19 0 -35.5 -11.5t-27.5 -34.5h-65q-6 25 -14.5 35.5t-28.5 10.5q-41 0 -65.5 -47t-43.5 -139q-10 -43 -10 -77q0 -47 23 -67t74 -20q46 0 70 8l-21 -99q-40 -14 -96 -14q-79 0 -128 47.5z" />
    <glyph glyph-name="uni0E13" unicode="&#xe13;" horiz-adv-x="967" 
d="M433 28.5q-40 38.5 -40 107.5q0 25 6 53l29 140q6 26 6 46q0 37 -23.5 53.5t-76.5 16.5q-43 0 -84 -13t-69 -33l-3 -14l105 -30l-17 -82q-41 -10 -60 -32.5t-29 -69.5l-6 -29l-2 -16q0 -11 7 -16t24 -5h53l-22 -105h-122q-39 0 -61.5 22t-22.5 58q0 13 3 26l14 66
q11 51 35 84.5t70 46.5l-96 27l27 129q55 39 129 65t156 26q95 0 149 -39t54 -119q0 -28 -8 -66l-28 -129q-6 -28 -6 -47q0 -32 18.5 -43.5t63.5 -11.5q36 0 73.5 15.5t65.5 40.5l82 389h135l-114 -540h-124l5 53q-82 -63 -191 -63q-65 0 -105 38.5z" />
    <glyph glyph-name="uni0E14" unicode="&#xe14;" horiz-adv-x="654" 
d="M74.5 35q-48.5 45 -48.5 135q0 42 10 89q30 143 112.5 217t230.5 74q78 0 129.5 -26t75.5 -68.5t24 -90.5q0 -22 -4 -39l-69 -326h-135l67 317q6 26 6 47q0 41 -27 61t-91 20q-73 0 -122.5 -47t-68.5 -139q-10 -44 -10 -78q0 -46 23 -66t74 -20q46 0 70 8l-21 -99
q-40 -14 -96 -14q-81 0 -129.5 45z" />
    <glyph glyph-name="uni0E15" unicode="&#xe15;" horiz-adv-x="660" 
d="M74.5 35q-48.5 45 -48.5 136q0 42 10 88q61 291 248 291q40 0 60.5 -13t33.5 -38q26 24 62 37.5t79 13.5q54 0 82.5 -27.5t28.5 -78.5q0 -23 -6 -50l-83 -394h-135l79 373q5 23 5 36q0 18 -8.5 27t-27.5 9t-35.5 -11.5t-27.5 -34.5h-65q-6 25 -14.5 35.5t-28.5 10.5
q-43 0 -71.5 -48.5t-47.5 -137.5q-11 -50 -11 -80q0 -46 23 -65t75 -19q46 0 70 8l-21 -99q-40 -14 -96 -14q-81 0 -129.5 45z" />
    <glyph glyph-name="uni0E16" unicode="&#xe16;" horiz-adv-x="622" 
d="M47.5 22q-22.5 22 -22.5 58q0 13 3 26l14 66q11 51 35 84.5t70 46.5l-96 27l27 129q55 39 129 65t156 26q103 0 160 -39t57 -122q0 -31 -7 -63l-69 -326h-135l69 329q6 27 6 47q0 37 -25 53t-85 16q-43 0 -84 -13t-69 -33l-3 -14l105 -30l-17 -82q-41 -10 -60 -32.5
t-29 -69.5l-6 -29q-3 -10 -3 -18q0 -10 6.5 -14.5t23.5 -4.5h55l-22 -105h-122q-39 0 -61.5 22z" />
    <glyph glyph-name="uni0E17" unicode="&#xe17;" horiz-adv-x="619" 
d="M115 540h124l-5 -53q45 31 92.5 47t107.5 16q69 0 108 -38.5t39 -103.5q0 -24 -6 -53l-75 -355h-135l73 347q5 20 5 42q0 30 -16.5 43t-55.5 13q-41 0 -83.5 -16t-69.5 -40l-82 -389h-135z" />
    <glyph glyph-name="uni0E18" unicode="&#xe18;" horiz-adv-x="538" 
d="M93 2q-57 12 -96 30l43 201h124l-26 -123q33 -15 92 -15q62 0 89 15.5t36 56.5q1 5 1 13q0 28 -26.5 41t-90.5 30l-30 8q-71 18 -108.5 43.5t-37.5 72.5q0 12 3 25q15 74 81 112t191 38q57 0 109.5 -7.5t81.5 -17.5l-23 -108q-29 13 -76 20.5t-96 7.5q-141 0 -141 -48
q0 -17 20 -26.5t69 -21.5q35 -7 62 -16q69 -20 104.5 -51t35.5 -81q0 -10 -4 -34q-17 -87 -83.5 -132t-181.5 -45q-65 0 -122 12z" />
    <glyph glyph-name="uni0E19" unicode="&#xe19;" horiz-adv-x="619" 
d="M76.5 29q-41.5 39 -41.5 108q0 24 6 52l74 351h135l-73 -343q-5 -25 -5 -40q0 -34 19.5 -48t61.5 -14q37 0 76.5 16t67.5 40l82 389h135l-114 -540h-124l5 53q-92 -63 -196 -63q-67 0 -108.5 39z" />
    <glyph glyph-name="uni0E1A" unicode="&#xe1a;" horiz-adv-x="634" 
d="M97.5 36q-56.5 46 -56.5 128q0 25 6 53l68 323h135l-69 -325q-6 -27 -6 -47q0 -39 24 -56t79 -17q63 0 98.5 29t48.5 91l69 325h135l-68 -323q-25 -114 -100.5 -170.5t-205.5 -56.5q-101 0 -157.5 46z" />
    <glyph glyph-name="uni0E1B" unicode="&#xe1b;" horiz-adv-x="634" 
d="M97.5 36q-56.5 46 -56.5 128q0 25 6 53l68 323h135l-69 -325q-6 -27 -6 -47q0 -39 24 -56t79 -17q63 0 98.5 29t48.5 91l103 485h135l-102 -483q-48 -227 -306 -227q-101 0 -157.5 46z" />
    <glyph glyph-name="uni0E1C" unicode="&#xe1c;" horiz-adv-x="650" 
d="M93 437q10 47 40 75t76 28h121l-15 -100h-51q-41 0 -52 -45l-46 -217l155 197h50l71 -197l77 362h127l-114 -540h-124l-84 244l-187 -244h-136z" />
    <glyph glyph-name="uni0E1D" unicode="&#xe1d;" horiz-adv-x="650" 
d="M93 437q10 47 40 75t76 28h121l-15 -100h-51q-41 0 -52 -45l-46 -217l155 197h50l71 -197l111 522h127l-148 -700h-124l-84 244l-187 -244h-136z" />
    <glyph glyph-name="uni0E1E" unicode="&#xe1e;" horiz-adv-x="725" 
d="M85 540h130l-2 -347l137 261l18 86h94l23 -347l142 347h129l-240 -540h-111l-24 309l-161 -309h-123z" />
    <glyph glyph-name="uni0E1F" unicode="&#xe1f;" horiz-adv-x="725" 
d="M85 540h130l-2 -347l137 261l18 86h94l23 -347l202 507h129l-300 -700h-111l-24 309l-161 -309h-123z" />
    <glyph glyph-name="uni0E20" unicode="&#xe20;" horiz-adv-x="630" 
d="M13 105h33q19 0 28 8t13 28l7 31q11 52 32.5 83.5t67.5 47.5l-96 27l27 129q55 39 129 65t156 26q96 0 150.5 -42.5t54.5 -123.5q0 -21 -7 -58l-69 -326h-135l69 329q6 29 6 48q0 37 -22.5 52.5t-75.5 15.5q-43 0 -84 -13t-69 -33l-3 -14l105 -30l-17 -82
q-40 -12 -56 -33t-26 -69l-8 -37q-15 -72 -52 -103t-108 -31h-72z" />
    <glyph glyph-name="uni0E21" unicode="&#xe21;" horiz-adv-x="619" 
d="M142 53l-17 -53h-124l114 540h135l-82 -389q17 -25 48.5 -40.5t71.5 -15.5q51 0 79 24t39 78l73 343h135l-74 -351q-20 -95 -79.5 -147t-150.5 -52q-105 0 -168 63z" />
    <glyph glyph-name="uni0E22" unicode="&#xe22;" horiz-adv-x="608" 
d="M68 23q-63 33 -63 105q0 19 4 36q8 37 31.5 67.5t61.5 49.5q-21 11 -33.5 31.5t-12.5 48.5q0 14 3 29q17 78 72.5 119t140.5 41q56 0 90 -14l-21 -99q-27 8 -67 8q-38 0 -59 -13t-28 -42q-2 -12 -2 -16q0 -23 18 -32.5t56 -9.5h56l-16 -99h-62q-85 0 -100 -69
q-2 -12 -2 -16q0 -27 26 -40t87 -13q67 0 102.5 26.5t46.5 78.5l72 340h135l-69 -328q-26 -117 -97.5 -169.5t-206.5 -52.5q-100 0 -163 33z" />
    <glyph glyph-name="uni0E23" unicode="&#xe23;" horiz-adv-x="503" 
d="M74 -2q-50 8 -78 21l23 109q33 -15 77 -24t82 -9q68 0 98 10.5t37 40.5q1 4 1 12q0 21 -19 33t-70 29l-39 14q-65 24 -96 51.5t-31 71.5q0 8 4 32q17 76 80.5 118.5t178.5 42.5q46 0 91.5 -7t74.5 -17l-23 -108q-29 13 -69.5 20t-76.5 7q-54 0 -87.5 -11.5t-39.5 -41.5
q-1 -3 -1 -9q0 -18 19.5 -29t66.5 -27q17 -5 43 -15q67 -25 96.5 -52.5t29.5 -71.5q0 -17 -5 -42q-17 -79 -80.5 -117.5t-180.5 -38.5q-56 0 -106 8z" />
    <glyph glyph-name="uni0E24" unicode="&#xe24;" horiz-adv-x="594" 
d="M438 329q6 27 6 48q0 36 -25 52t-85 16q-43 0 -84 -13t-69 -33l-3 -14l105 -30l-17 -82q-41 -10 -60 -32.5t-29 -69.5l-6 -29q-2 -7 -2 -17q0 -11 6.5 -15.5t22.5 -4.5h55l-22 -105h-122q-39 0 -61.5 22t-22.5 58q0 13 3 26l14 66q11 51 35 84.5t70 46.5l-96 27l27 129
q55 39 129 65t156 26q104 0 160.5 -39.5t56.5 -121.5q0 -31 -7 -63l-104 -486h-135z" />
    <glyph glyph-name="uni0E25" unicode="&#xe25;" horiz-adv-x="601" 
d="M54.5 22q-44.5 32 -44.5 96q0 17 5 42q17 84 75.5 126t172.5 42h153l6 26q5 22 5 35q0 31 -25 43.5t-88 12.5q-93 0 -185 -27l22 101q45 14 101 22.5t106 8.5q100 0 151 -39.5t51 -114.5q0 -26 -6 -56l-72 -340h-135l48 229h-145q-46 0 -72.5 -16t-34.5 -53
q-3 -13 -3 -24q0 -23 18.5 -32t63.5 -9q49 0 73 8l-21 -99q-47 -14 -108 -14q-67 0 -111.5 32z" />
    <glyph glyph-name="uni0E26" unicode="&#xe26;" horiz-adv-x="658" 
d="M473 329q6 29 6 48q0 37 -22.5 52.5t-75.5 15.5q-43 0 -84 -13t-69 -33l-3 -14l105 -30l-17 -82q-40 -12 -56 -33t-26 -69l-8 -37q-15 -70 -55 -102t-105 -32h-72l22 105h33q19 0 28 8t13 28l7 31q11 52 32.5 83.5t67.5 47.5l-96 27l27 129q55 39 129 65t156 26
q96 0 150.5 -41.5t54.5 -121.5q0 -30 -7 -61l-104 -486h-135z" />
    <glyph glyph-name="uni0E27" unicode="&#xe27;" horiz-adv-x="491" 
d="M-31 22l22 103q62 -30 134 -30q94 0 142.5 39.5t69.5 135.5q10 50 10 76q0 54 -33.5 76.5t-114.5 22.5q-71 0 -146 -30l22 103q81 32 178 32q106 0 163.5 -52t57.5 -147q0 -37 -9 -81q-30 -143 -106.5 -211.5t-224.5 -68.5q-96 0 -165 32z" />
    <glyph glyph-name="uni0E28" unicode="&#xe28;" horiz-adv-x="647" 
d="M72 335q24 111 93.5 163t206.5 52q44 0 86 -10h217l-29 -103h-75q14 -30 14 -66q0 -20 -4 -36l-71 -335h-135l73 345q4 17 4 35q0 35 -23.5 50t-78.5 15q-66 0 -98 -23.5t-43 -76.5l-21 -97q49 32 101 32h65l-19 -107h-72q-53 0 -97 -29l-30 -144h-135z" />
    <glyph glyph-name="uni0E29" unicode="&#xe29;" horiz-adv-x="654" 
d="M97.5 36q-56.5 46 -56.5 128q0 25 6 53l68 323h135l-69 -325q-6 -27 -6 -47q0 -39 24 -56t79 -17q63 0 98.5 29t48.5 91l13 61h-115l21 99h115l35 165h135l-35 -165h57l-30 -99h-48l-12 -59q-25 -114 -100.5 -170.5t-205.5 -56.5q-101 0 -157.5 46z" />
    <glyph glyph-name="uni0E2A" unicode="&#xe2a;" horiz-adv-x="619" 
d="M54.5 22q-44.5 32 -44.5 96q0 17 5 42q17 84 75.5 126t172.5 42h153l6 26q5 22 5 35q0 31 -25 43.5t-88 12.5q-93 0 -185 -27l22 101q45 14 101 22.5t106 8.5q45 0 87 -10h195l-29 -103h-63q11 -24 11 -54q0 -18 -5 -43l-72 -340h-135l48 229h-145q-46 0 -72.5 -16
t-34.5 -53q-3 -13 -3 -24q0 -23 18.5 -32t63.5 -9q49 0 73 8l-21 -99q-47 -14 -108 -14q-67 0 -111.5 32z" />
    <glyph glyph-name="uni0E2B" unicode="&#xe2b;" horiz-adv-x="613" 
d="M115 540h135l-35 -164h134q53 0 77 21.5t34 69.5l15 73h135l-15 -75q-12 -56 -35 -90t-73 -54q51 -28 51 -86q0 -16 -5 -41l-41 -194h-135l39 186q5 23 5 37q0 30 -17.5 42t-58.5 12h-131l-58 -277h-135z" />
    <glyph glyph-name="uni0E2C" unicode="&#xe2c;" horiz-adv-x="725" 
d="M85 540h130l-2 -347l128 221l19 86h94l31 -307l101 236q14 34 14 51t-11.5 24.5t-34.5 7.5h-40l38 98h46q35 0 55.5 13t35.5 46l13 31h114l-23 -56q-17 -41 -40 -63t-57 -29q23 -21 23 -53q0 -28 -18 -69l-186 -430h-110l-30 279l-155 -279h-123z" />
    <glyph glyph-name="uni0E2D" unicode="&#xe2d;" horiz-adv-x="581" 
d="M89.5 2q-57.5 12 -95.5 30l61 284h229l-15 -99h-107l-24 -109q18 -6 44 -9.5t50 -3.5q73 0 118.5 40.5t65.5 132.5q11 50 11 82q0 53 -34.5 74t-120.5 21q-96 0 -189 -27l22 101q47 15 106.5 23t115.5 8q113 0 170 -49t57 -145q0 -42 -10 -88q-20 -95 -57 -155
t-104.5 -91.5t-174.5 -31.5q-61 0 -118.5 12z" />
    <glyph glyph-name="uni0E2E" unicode="&#xe2e;" horiz-adv-x="621" 
d="M89.5 2q-57.5 12 -95.5 30l61 284h229l-15 -99h-107l-24 -109q18 -6 44 -9.5t50 -3.5q73 0 118.5 40.5t65.5 132.5q11 50 11 82q0 53 -34.5 74t-120.5 21q-96 0 -189 -27l22 101q47 15 106.5 23t115.5 8q46 0 89 -10h226l-29 -103h-85q24 -40 24 -99q0 -30 -8 -70
q-20 -95 -57 -155t-104.5 -91.5t-174.5 -31.5q-61 0 -118.5 12z" />
    <glyph glyph-name="uni0E2F" unicode="&#xe2f;" horiz-adv-x="599" 
d="M398 246q-30 -15 -67.5 -24.5t-73.5 -9.5q-80 0 -129 36.5t-49 105.5q0 18 5 43q14 68 64 143h130q-50 -69 -64 -134q-4 -16 -4 -32q0 -32 21 -47.5t66 -15.5q37 0 66 8.5t56 25.5l41 195h135l-114 -540h-135z" />
    <glyph glyph-name="uni0E30" unicode="&#xe30;" horiz-adv-x="323" 
d="M80 470h114l-10 -49h139l-25 -99h-249zM23 202h114l-10 -49h139l-25 -99h-249z" />
    <glyph glyph-name="uni0E31" unicode="&#xe31;" 
d="M-205 773h110l-14 -67h248l-25 -92h-353z" />
    <glyph glyph-name="uni0E32" unicode="&#xe32;" horiz-adv-x="446" 
d="M262 332q7 35 7 51q0 33 -20 47.5t-68 14.5q-32 0 -70.5 -7t-70.5 -19l21 99q33 14 79 23t89 9q87 0 132.5 -37t45.5 -106q0 -26 -6 -56l-74 -351h-135z" />
    <glyph glyph-name="uni0E33" unicode="&#xe33;" horiz-adv-x="446" 
d="M-127.5 611.5q-27.5 24.5 -27.5 64.5q0 13 3 26q11 51 51 83.5t93 32.5q44 0 71.5 -25.5t27.5 -65.5q0 -11 -3 -25q-11 -51 -51 -83t-93 -32q-44 0 -71.5 24.5zM-8 671.5q16 13.5 20 30.5q1 4 1 12q0 33 -36 33q-21 0 -37.5 -17.5t-16.5 -38.5q0 -14 9 -23.5t26 -9.5
q18 0 34 13.5zM262 332q7 35 7 51q0 33 -20 47.5t-68 14.5q-32 0 -70.5 -7t-70.5 -19l21 99q33 14 79 23t89 9q87 0 132.5 -37t45.5 -106q0 -26 -6 -56l-74 -351h-135z" />
    <glyph glyph-name="uni0E34" unicode="&#xe34;" 
d="M-392 706h429l-20 -92h-436z" />
    <glyph glyph-name="uni0E35" unicode="&#xe35;" 
d="M-392 706h320l16 81h110l-37 -173h-436z" />
    <glyph glyph-name="uni0E36" unicode="&#xe36;" 
d="M-392 706h251q4 39 34.5 68t81.5 29q40 0 60.5 -19.5t20.5 -51.5q0 -10 -3 -22q-9 -43 -40 -69.5t-82 -26.5h-350zM-18 686q14 15 14 34q0 13 -8 21t-23 8q-18 0 -33 -14t-15 -35q0 -13 8 -21t23 -8q20 0 34 15z" />
    <glyph glyph-name="uni0E37" unicode="&#xe37;" 
d="M-392 706h183l17 81h95l-17 -81h57l16 81h95l-37 -173h-436z" />
    <glyph glyph-name="uni0E38" unicode="&#xe38;" 
d="M-257 -137h-60l24 86h169l-43 -202h-114z" />
    <glyph glyph-name="uni0E39" unicode="&#xe39;" 
d="M-388.5 -242.5q-29.5 21.5 -29.5 55.5q0 5 2 17l8 38h-55l23 81h144l-21 -96l-2 -12q0 -10 7.5 -15t24.5 -5q18 0 30 8t15 24l21 96h96l-23 -106q-10 -46 -50.5 -76.5t-106.5 -30.5q-54 0 -83.5 21.5z" />
    <glyph glyph-name="uni0E3A" unicode="&#xe3a;" 
d="M-258.5 -166.5q-16.5 15.5 -16.5 39.5q0 35 27.5 61t61.5 26q26 0 42 -16t16 -40q0 -35 -27 -60.5t-61 -25.5q-26 0 -42.5 15.5z" />
    <glyph glyph-name="uni0E3F" unicode="&#xe3f;" horiz-adv-x="636" 
d="M205 0h-204l136 644h205l19 86h98l-19 -86h23q77 0 118.5 -35t41.5 -96q0 -18 -5 -43q-22 -99 -103 -140q72 -24 72 -100q0 -17 -5 -42q-21 -94 -80 -141t-163 -47h-36l-18 -86h-98zM286 377l35 167h-70l-35 -167h70zM490 459q3 15 3 28q0 28 -17 42t-57 15l-35 -167
q89 0 106 82zM226 99l39 180h-70l-38 -180h69zM328 99q52 0 80 21.5t39 73.5q3 14 3 26q0 29 -20.5 43.5t-66.5 15.5l-39 -180h4z" />
    <glyph glyph-name="uni0E40" unicode="&#xe40;" horiz-adv-x="308" 
d="M46 17.5q-24 17.5 -24 55.5q0 14 5 39l91 428h135l-83 -393q-3 -13 -3 -21q0 -11 7 -16t25 -5h37l-22 -105h-92q-52 0 -76 17.5z" />
    <glyph glyph-name="uni0E41" unicode="&#xe41;" horiz-adv-x="562" 
d="M46 17.5q-24 17.5 -24 55.5q0 14 5 39l91 428h135l-83 -393q-3 -13 -3 -21q0 -11 7 -16t25 -5h37l-22 -105h-92q-52 0 -76 17.5zM302 17.5q-24 17.5 -24 55.5q0 14 5 39l91 428h135l-83 -393q-3 -13 -3 -21q0 -11 7 -16t25 -5h37l-22 -105h-92q-52 0 -76 17.5z" />
    <glyph glyph-name="uni0E42" unicode="&#xe42;" horiz-adv-x="313" 
d="M77 17.5q-24 17.5 -24 55.5q0 14 5 39l72 339q6 27 6 47q0 37 -18 60t-56 37l21 99h317l-22 -105h-147q41 -30 41 -87q0 -21 -6 -47l-65 -308q-3 -13 -3 -21q0 -11 7 -16t25 -5h37l-22 -105h-92q-52 0 -76 17.5z" />
    <glyph glyph-name="uni0E43" unicode="&#xe43;" horiz-adv-x="300" 
d="M29 17.5q-24 17.5 -24 55.5q0 14 5 39l46 216q11 51 37.5 85.5t68.5 72.5q25 22 36 34.5t14 25.5q2 10 2 14q0 17 -12.5 24.5t-39.5 7.5q-54 0 -112 -30l21 97q34 18 78 28t85 10q129 0 129 -86q0 -14 -3 -29q-7 -36 -26.5 -62t-56.5 -63q-36 -36 -57 -65.5t-30 -68.5
l-37 -176q-3 -13 -3 -21q0 -11 7 -16t25 -5h37l-22 -105h-92q-52 0 -76 17.5z" />
    <glyph glyph-name="uni0E44" unicode="&#xe44;" horiz-adv-x="308" 
d="M57 17.5q-24 17.5 -24 55.5q0 14 5 39l70 330q23 101 98 147h-145l22 105h308l-21 -98q-53 -18 -83.5 -56.5t-44.5 -103.5l-61 -289q-3 -13 -3 -21q0 -11 7 -16t25 -5h37l-22 -105h-92q-52 0 -76 17.5z" />
    <glyph glyph-name="uni0E45" unicode="&#xe45;" horiz-adv-x="445" 
d="M262 332q7 35 7 51q0 33 -20 47.5t-68 14.5q-32 0 -70.5 -7t-70.5 -19l21 99q33 14 79 23t89 9q87 0 132.5 -37t45.5 -106q0 -26 -6 -56l-109 -511h-135z" />
    <glyph glyph-name="uni0E46" unicode="&#xe46;" horiz-adv-x="628" 
d="M459 399q3 12 3 20q0 13 -7 19.5t-23 6.5q-32 0 -59 -46h-52q-2 24 -9 35t-25 11q-24 0 -41.5 -23t-25.5 -65q-4 -19 -4 -36q0 -25 14.5 -36t48.5 -11q46 0 70 8l-21 -99q-40 -14 -96 -14q-73 0 -117 37t-44 104q0 26 5 47q18 79 67.5 136t132.5 57q35 0 57 -11.5
t37 -38.5q53 50 126 50q51 0 77.5 -25.5t26.5 -74.5q0 -23 -6 -52l-84 -398h-135z" />
    <glyph glyph-name="uni0E47" unicode="&#xe47;" 
d="M-365 635.5q-30 24.5 -30 68.5q0 13 3 28q13 59 54.5 92.5t111.5 33.5h251l-22 -75h-232q-30 0 -48 -12t-24 -39q-2 -12 -2 -16q0 -16 9.5 -23.5t32.5 -7.5q49 0 57 40l4 18h80l-4 -18q-2 -10 -2 -13q0 -13 9 -18.5t28 -5.5h60l-16 -75h-70q-48 0 -65 31
q-13 -15 -44.5 -24t-61.5 -9q-49 0 -79 24.5z" />
    <glyph glyph-name="uni0E48" unicode="&#xe48;" 
d="M-81 779h134l-35 -165h-134z" />
    <glyph glyph-name="uni0E49" unicode="&#xe49;" 
d="M-212 702h-78l20 92h169l-19 -89h213l-25 -92h-299z" />
    <glyph glyph-name="uni0E4A" unicode="&#xe4a;" 
d="M-350.5 626.5q-26.5 20.5 -26.5 60.5q0 12 3 27q11 52 43 80.5t80 28.5q52 0 58 -37h1q26 37 80 37q39 0 57.5 -15.5t18.5 -43.5q0 -14 -2 -22l-13 -62h8q11 0 16.5 5.5t8.5 20.5l24 112h74l-25 -118q-8 -39 -36.5 -62t-68.5 -23h-88l22 103q2 14 2 18q0 10 -5 15t-17 5
q-18 0 -26.5 -10.5t-11.5 -29.5l-3 -13h-58l3 13q2 12 2 16q0 24 -24 24q-33 0 -42 -45q-2 -6 -2 -16q0 -15 10.5 -21.5t32.5 -6.5h29l-13 -61h-40q-45 0 -71.5 20.5z" />
    <glyph glyph-name="uni0E4B" unicode="&#xe4b;" 
d="M-109 646h-58l21 98h58l8 39h124l-9 -39h61l-21 -98h-60l-7 -32h-124z" />
    <glyph glyph-name="uni0E4C" unicode="&#xe4c;" 
d="M-206 771h305l-23 -92h-191l-14 -65h-110z" />
    <glyph glyph-name="uni0E4D" unicode="&#xe4d;" 
d="M-127.5 611.5q-27.5 24.5 -27.5 64.5q0 13 3 26q11 51 51 83.5t93 32.5q44 0 71.5 -25.5t27.5 -65.5q0 -11 -3 -25q-11 -51 -51 -83t-93 -32q-44 0 -71.5 24.5zM-8 671.5q16 13.5 20 30.5q1 4 1 12q0 33 -36 33q-21 0 -37.5 -17.5t-16.5 -38.5q0 -14 9 -23.5t26 -9.5
q18 0 34 13.5z" />
    <glyph glyph-name="uni0E4E" unicode="&#xe4e;" 
d="M-201 671q0 5 2 17q7 35 33.5 55.5t61.5 25.5q-7 10 -7 23q0 35 31.5 58t90.5 23q16 0 33 -3t27 -8l-12 -54q-8 6 -22 9t-26 3q-45 0 -45 -26q0 -9 8.5 -14t26.5 -8l-11 -51q-17 9 -41 9q-52 0 -59 -30q-3 -14 7 -20t34 -6q40 0 65 15l-13 -60q-27 -16 -81 -16
q-103 0 -103 58z" />
    <glyph glyph-name="uni0E4F" unicode="&#xe4f;" horiz-adv-x="599" 
d="M130 16.5q-48 26.5 -75 73t-27 105.5q0 29 6 57q16 73 63 133t114 94.5t141 34.5q62 0 110 -27t75 -74t27 -105q0 -27 -6 -56q-16 -74 -63 -133.5t-113.5 -94t-141.5 -34.5q-62 0 -110 26.5zM351 101.5q45 23.5 77 63.5t42 87q5 21 5 49q0 57 -34.5 91t-107.5 34
q-47 0 -92 -23.5t-77 -63.5t-42 -87q-6 -27 -6 -51q0 -57 34.5 -90t108.5 -33q47 0 92 23.5zM196 154q-28 28 -28 71q0 39 22.5 74.5t58.5 56.5t74 21q45 0 73 -28t28 -70q0 -40 -22.5 -75.5t-58.5 -56.5t-74 -21q-45 0 -73 28zM331.5 217.5q20.5 20.5 20.5 48.5
q0 18 -11 29t-33 11q-23 0 -42 -15.5t-24 -38.5q-2 -12 -2 -16q0 -18 11 -28.5t33 -10.5q27 0 47.5 20.5z" />
    <glyph glyph-name="uni0E50" unicode="&#xe50;" horiz-adv-x="610" 
d="M84.5 36.5q-60.5 46.5 -60.5 136.5q0 32 7 64q25 121 111.5 184t208.5 63q101 0 161.5 -47t60.5 -137q0 -31 -7 -63q-26 -122 -111.5 -184.5t-208.5 -62.5q-101 0 -161.5 46.5zM380.5 129q41.5 34 57.5 108q6 30 6 53q0 47 -27 68t-88 21q-69 0 -112 -34.5t-58 -107.5
q-7 -35 -7 -54q0 -46 28 -67t89 -21q70 0 111.5 34z" />
    <glyph glyph-name="uni0E51" unicode="&#xe51;" horiz-adv-x="634" 
d="M243 5q98 23 148 75t68 141q7 29 7 58q0 50 -29.5 75t-96.5 25q-78 0 -120.5 -29.5t-56.5 -92.5q-5 -27 -5 -42q0 -32 19.5 -46t65.5 -14q21 0 48 5.5t44 14.5l-21 -98q-52 -27 -123 -27q-75 0 -118.5 39.5t-43.5 110.5q0 26 6 56q48 228 327 228q114 0 173.5 -49
t59.5 -142q0 -39 -8 -75q-26 -122 -121 -208.5t-247 -115.5z" />
    <glyph glyph-name="uni0E52" unicode="&#xe52;" horiz-adv-x="710" 
d="M170 14q-59 24 -91.5 68.5t-32.5 105.5q0 26 6 53l63 299h118l-62 -293q-7 -35 -7 -54q0 -52 37.5 -76.5t127.5 -24.5q81 0 131.5 33.5t65.5 101.5l24 116q3 12 3 21q0 26 -26 26q-20 0 -31 -14t-21 -40h-73q-1 28 -5.5 41t-23.5 13q-22 0 -34 -17.5t-21 -60.5
q-4 -22 -4 -28q0 -20 14 -28.5t48 -8.5t61 9l-17 -80q-37 -14 -82 -14q-55 0 -90 27.5t-35 81.5q0 16 5 41q19 90 56.5 131t98.5 41q34 0 54.5 -11t31.5 -37q48 48 118 48q49 0 73.5 -23.5t24.5 -66.5q0 -17 -5 -42l-25 -117q-52 -245 -338 -245q-78 0 -137 24z" />
    <glyph glyph-name="uni0E53" unicode="&#xe53;" horiz-adv-x="643" 
d="M67.5 30q-47.5 40 -47.5 124q0 29 8 71q26 132 86 195.5t145 63.5q37 0 61 -13t39 -40q29 28 60.5 40.5t71.5 12.5q57 0 89 -28.5t32 -75.5q0 -10 -4 -32l-73 -348h-131l69 326q3 14 3 24q0 16 -8.5 22.5t-26.5 6.5q-43 0 -54 -47l-18 -83h-97l18 84q2 10 2 13
q0 16 -10.5 24.5t-27.5 8.5q-37 0 -60.5 -36t-41.5 -119q-8 -40 -8 -62q0 -39 22 -53t76 -14q46 0 70 8l-21 -99q-40 -14 -96 -14q-80 0 -127.5 40z" />
    <glyph glyph-name="uni0E54" unicode="&#xe54;" horiz-adv-x="626" 
d="M73.5 33q-52.5 43 -52.5 126q0 32 7 64q27 130 116.5 195.5t263.5 65.5q85 0 138.5 8.5t99.5 33.5l-22 -103q-68 -40 -231 -40q-107 0 -165 -38t-76 -122q-7 -31 -7 -57q0 -40 23.5 -57t78.5 -17q18 0 38 7q-4 13 -4 32q0 15 3 30q14 70 62 106.5t131 36.5q65 0 101 -20
l-19 -88q-28 16 -68 16q-41 0 -63.5 -11.5t-28.5 -41.5q-2 -14 -2 -18q0 -24 18.5 -30.5t64.5 -6.5h95l-22 -104h-87q-69 0 -115 23q-63 -33 -138 -33q-87 0 -139.5 43z" />
    <glyph glyph-name="uni0E55" unicode="&#xe55;" horiz-adv-x="621" 
d="M73.5 33q-52.5 43 -52.5 126q0 32 7 64q18 88 71 143t151 85q-17 4 -34.5 14t-27.5 19l26 82q25 -29 86 -55.5t115 -26.5q80 0 132.5 9t98.5 33l-22 -103q-68 -40 -231 -40q-107 0 -165 -38t-76 -122q-7 -31 -7 -57q0 -40 22 -57t74 -17q21 0 44 7q-4 13 -4 32q0 15 3 30
q14 70 62 106.5t131 36.5q65 0 101 -20l-19 -88q-28 16 -68 16q-41 0 -63.5 -11.5t-28.5 -41.5q-2 -14 -2 -18q0 -24 18.5 -30.5t64.5 -6.5h95l-22 -104h-87q-69 0 -115 23q-63 -33 -138 -33q-87 0 -139.5 43z" />
    <glyph glyph-name="uni0E56" unicode="&#xe56;" horiz-adv-x="643" 
d="M92 41l22 102q67 -48 167 -48q161 0 191 142q6 30 6 54q0 45 -25 66.5t-79 21.5q-56 0 -102 -31t-71 -87h-90l-36 279h116l16 -143q37 41 91 64t116 23q96 0 145 -48t49 -130q0 -31 -8 -69q-25 -118 -110 -182.5t-221 -64.5q-111 0 -177 51z" />
    <glyph glyph-name="uni0E57" unicode="&#xe57;" horiz-adv-x="850" 
d="M67.5 29.5q-47.5 39.5 -47.5 122.5q0 37 8 73q29 135 83 197t141 62q40 0 63 -12.5t38 -40.5q48 53 131 53q57 0 85.5 -24.5t28.5 -70.5q0 -18 -5 -43l-52 -246h17q47 0 68 19.5t32 72.5l74 348h118l-69 -325q-16 -77 -43 -123.5t-75 -69t-125 -22.5h-133l69 326
q3 14 3 24q0 16 -9 22.5t-29 6.5q-19 0 -34.5 -12.5t-20.5 -34.5l-18 -83h-108l18 83q2 12 2 15q0 16 -9 24t-25 8q-36 0 -56 -38t-37 -117q-8 -40 -8 -62q0 -42 23.5 -56.5t77.5 -14.5q46 0 71 8l-21 -95q-39 -14 -99 -14q-80 0 -127.5 39.5z" />
    <glyph glyph-name="uni0E58" unicode="&#xe58;" horiz-adv-x="627" 
d="M56 29.5q-36 39.5 -36 115.5q0 36 9 81q28 131 114.5 194.5t252.5 63.5q89 0 146 8.5t104 33.5l-22 -103q-77 -40 -246 -40q-73 0 -117.5 -15t-70 -49t-37.5 -93q-11 -52 -11 -77q0 -32 12.5 -44.5t39.5 -12.5q24 0 42 12.5t23 34.5l16 73h91l-16 -74q-1 -3 -1 -10
q0 -18 14 -27t33 -9t31 4.5t25 14.5l24 111h-58l22 79h157l-55 -262q-32 -25 -66 -37t-80 -12q-76 0 -106 52q-51 -52 -138 -52q-60 0 -96 39.5z" />
    <glyph glyph-name="uni0E59" unicode="&#xe59;" horiz-adv-x="743" 
d="M60.5 29q-40.5 39 -40.5 117q0 35 9 80q28 133 84 195.5t151 62.5q78 0 97 -54q22 26 55.5 40t70.5 14q49 0 80.5 -22t31.5 -60q0 -5 -2 -19l-3 -16h6q27 0 41 14t23 54l18 85h98l-12 -58q-16 -75 -39.5 -114.5t-61.5 -55.5t-104 -16h-78l8 38q5 23 5 35q0 15 -8 22.5
t-27 7.5q-26 0 -39.5 -16t-11.5 -45l26 -318h-116l-28 332q-3 25 -12 36t-36 11q-32 0 -54 -36.5t-40 -119.5q-10 -50 -10 -72q0 -33 16 -46t53 -13q27 0 54 7l-22 -102q-31 -7 -75 -7q-67 0 -107.5 39z" />
    <glyph glyph-name="uni0E5A" unicode="&#xe5a;" horiz-adv-x="952" 
d="M398 246q-30 -15 -67.5 -24.5t-73.5 -9.5q-81 0 -129.5 37t-48.5 104q0 17 5 44q16 71 64 143h130q-50 -69 -64 -134q-4 -16 -4 -32q0 -32 21 -47.5t66 -15.5q37 0 66 8.5t56 25.5l41 195h135l-38 -181q11 -23 37 -35.5t56 -12.5q37 0 66 8.5t56 25.5l41 195h135
l-114 -540h-135l52 246q-30 -15 -67.5 -24.5t-73.5 -9.5q-22 0 -44.5 6t-35.5 17l-49 -235h-135z" />
    <glyph glyph-name="uni0E5B" unicode="&#xe5b;" horiz-adv-x="1149" 
d="M98 75q-63 53 -63 148q0 34 7 66q25 119 97 190t190 71q87 0 134.5 -37.5t47.5 -104.5q0 -17 -5 -44q-17 -77 -66 -123t-129 -67l19 89q42 18 60.5 39t26.5 59q4 17 4 35q0 36 -24 54t-79 18q-68 0 -112 -48t-61 -126q-9 -40 -9 -73q0 -56 34 -83.5t114 -27.5
q108 0 179 61.5t94 170.5q16 74 17 126h97q15 -36 23.5 -81t10.5 -89h2q17 32 36 77.5t25 74.5h68q7 -27 13.5 -67.5t7.5 -76.5h2q14 25 30 62t25 66h58q7 -21 12 -57t4 -62h2q28 39 39 99h60q-5 -35 -14 -56h56l-20 -71h-68q-18 -38 -53 -80h-51q1 19 -2.5 51t-9.5 49h-2
q-8 -23 -26 -62.5t-31 -60.5h-70q1 31 -3.5 69.5t-12.5 66.5h-2q-11 -32 -31 -77t-40 -81h-69q4 27 4 66q0 57 -9 97h-2q-30 -139 -125 -221t-243 -82q-104 0 -167 53z" />
    <glyph glyph-name="uni1E0C" unicode="&#x1e0c;" horiz-adv-x="656" 
d="M137 644h270q113 0 174 -56t61 -166q0 -46 -12 -103q-35 -166 -120 -242.5t-239 -76.5h-270zM274 104q57 0 98.5 18t72 65t48.5 132q14 68 14 108q0 60 -32 82.5t-107 22.5h-119l-91 -428h116zM194 -82h107l-21 -99h-107z" />
    <glyph glyph-name="uni1E0D" unicode="&#x1e0d;" horiz-adv-x="590" 
d="M70 32.5q-48 42.5 -48 127.5q0 38 8 74q27 125 98.5 187.5t180.5 62.5q80 0 128 -36l48 226h135l-143 -674h-116l1 44q-37 -27 -77 -40.5t-89 -13.5q-78 0 -126 42.5zM314.5 99q27.5 10 55.5 33l45 216q-32 37 -92 37q-124 0 -156 -153q-8 -37 -8 -60q0 -43 23 -63
t72 -20q33 0 60.5 10zM167 -82h107l-21 -99h-107z" />
    <glyph glyph-name="uni1E0E" unicode="&#x1e0e;" horiz-adv-x="656" 
d="M137 644h270q113 0 174 -56t61 -166q0 -46 -12 -103q-35 -166 -120 -242.5t-239 -76.5h-270zM274 104q57 0 98.5 18t72 65t48.5 132q14 68 14 108q0 60 -32 82.5t-107 22.5h-119l-91 -428h116zM47 -99h307l-17 -83h-307z" />
    <glyph glyph-name="uni1E0F" unicode="&#x1e0f;" horiz-adv-x="590" 
d="M70 32.5q-48 42.5 -48 127.5q0 38 8 74q27 125 98.5 187.5t180.5 62.5q80 0 128 -36l48 226h135l-143 -674h-116l1 44q-37 -27 -77 -40.5t-89 -13.5q-78 0 -126 42.5zM314.5 99q27.5 10 55.5 33l45 216q-32 37 -92 37q-124 0 -156 -153q-8 -37 -8 -60q0 -43 23 -63
t72 -20q33 0 60.5 10zM74 -100h307l-17 -83h-307z" />
    <glyph glyph-name="uni1E20" unicode="&#x1e20;" horiz-adv-x="644" 
d="M332 800h307l-17 -83h-307zM107.5 51q-70.5 61 -70.5 172q0 44 10 88q34 162 139.5 252.5t271.5 90.5q110 0 188 -27l-25 -116q-73 28 -178 28q-108 0 -171.5 -56.5t-87.5 -171.5q-10 -43 -10 -81q0 -64 37.5 -95t123.5 -31q66 0 128 20l32 150h-150l18 86h264l-67 -315
q-43 -24 -106.5 -39.5t-145.5 -15.5q-130 0 -200.5 61z" />
    <glyph glyph-name="uni1E21" unicode="&#x1e21;" horiz-adv-x="591" 
d="M209 634h307l-17 -83h-307zM98.5 -172.5q-40.5 3.5 -59.5 7.5l22 103q19 -6 50 -9.5t54 -3.5q77 0 123 20t56 66l5 25q-61 -36 -143 -36q-85 0 -135 39.5t-50 121.5q0 32 7 64q26 128 97.5 193.5t182.5 65.5q48 0 78.5 -13t57.5 -41l17 44h116l-93 -441q-21 -97 -98 -153
t-221 -56q-26 0 -66.5 3.5zM370 135l44 207q-18 22 -40.5 32.5t-54.5 10.5q-63 0 -99.5 -40t-53.5 -119q-7 -31 -7 -56q0 -39 22.5 -55t74.5 -16q64 0 114 36z" />
    <glyph glyph-name="uni1E24" unicode="&#x1e24;" horiz-adv-x="665" 
d="M137 644h135l-57 -270h281l57 270h135l-136 -644h-135l57 270h-281l-57 -270h-135zM205 -82h107l-21 -99h-107z" />
    <glyph glyph-name="uni1E25" unicode="&#x1e25;" horiz-adv-x="587" 
d="M144 674h135l-51 -240q36 23 80 36.5t92 13.5q73 0 110.5 -31.5t37.5 -93.5q0 -25 -6 -55l-64 -304h-135l63 297q4 19 4 36q0 28 -18 40t-60 12q-31 0 -65 -13.5t-60 -35.5l-71 -336h-135zM175 -82h107l-21 -99h-107z" />
    <glyph glyph-name="uni1E2A" unicode="&#x1e2a;" horiz-adv-x="665" 
d="M137 644h135l-57 -270h281l57 270h135l-136 -644h-135l57 270h-281l-57 -270h-135zM136.5 -185q-35.5 32 -35.5 87q0 21 4 38h86q-3 -15 -3 -28q0 -51 53 -51q33 0 55.5 22.5t29.5 56.5h94q-16 -74 -66.5 -115.5t-125.5 -41.5q-56 0 -91.5 32z" />
    <glyph glyph-name="uni1E2B" unicode="&#x1e2b;" horiz-adv-x="587" 
d="M144 674h135l-51 -240q36 23 80 36.5t92 13.5q73 0 110.5 -31.5t37.5 -93.5q0 -25 -6 -55l-64 -304h-135l63 297q4 19 4 36q0 28 -18 40t-60 12q-31 0 -65 -13.5t-60 -35.5l-71 -336h-135zM109.5 -185q-35.5 32 -35.5 87q0 21 4 38h86q-3 -15 -3 -28q0 -51 53 -51
q33 0 55.5 22.5t29.5 56.5h94q-16 -74 -66.5 -115.5t-125.5 -41.5q-56 0 -91.5 32z" />
    <glyph glyph-name="uni1E36" unicode="&#x1e36;" horiz-adv-x="526" 
d="M137 644h135l-114 -540h317l-22 -104h-452zM149 -82h107l-21 -99h-107z" />
    <glyph glyph-name="uni1E37" unicode="&#x1e37;" horiz-adv-x="298" 
d="M22 82q0 17 5 42l117 550h135l-115 -539q-2 -8 -2 -20q0 -13 7.5 -18.5t24.5 -5.5q26 0 48 7l-19 -93q-23 -8 -44 -11.5t-49 -3.5q-108 0 -108 92zM34 -82h107l-21 -99h-107z" />
    <glyph glyph-name="uni1E38" unicode="&#x1e38;" horiz-adv-x="542" 
d="M119 800h307l-17 -83h-307zM153 644h135l-114 -540h317l-22 -104h-452zM165 -82h107l-21 -99h-107z" />
    <glyph glyph-name="uni1E39" unicode="&#x1e39;" horiz-adv-x="298" 
d="M86 807h307l-17 -83h-307zM22 82q0 17 5 42l117 550h135l-115 -539q-2 -8 -2 -20q0 -13 7.5 -18.5t24.5 -5.5q26 0 48 7l-19 -93q-23 -8 -44 -11.5t-49 -3.5q-108 0 -108 92zM34 -82h107l-21 -99h-107z" />
    <glyph glyph-name="uni1E3A" unicode="&#x1e3a;" horiz-adv-x="526" 
d="M137 644h135l-114 -540h317l-22 -104h-452zM51 -75h307l-17 -83h-307z" />
    <glyph glyph-name="uni1E3B" unicode="&#x1e3b;" horiz-adv-x="298" 
d="M22 82q0 17 5 42l117 550h135l-115 -539q-2 -8 -2 -20q0 -13 7.5 -18.5t24.5 -5.5q26 0 48 7l-19 -93q-23 -8 -44 -11.5t-49 -3.5q-108 0 -108 92zM-72 -75h307l-17 -83h-307z" />
    <glyph glyph-name="uni1E42" unicode="&#x1e42;" horiz-adv-x="763" 
d="M137 644h131l107 -387l271 387h140l-136 -644h-135l89 419l-216 -308h-78l-85 308l-89 -419h-135zM268 -82h107l-21 -99h-107z" />
    <glyph glyph-name="uni1E43" unicode="&#x1e43;" horiz-adv-x="858" 
d="M101 474h125l-5 -46q87 56 174 56q48 0 73.5 -14.5t34.5 -43.5q87 58 188 58q64 0 97 -29t33 -88q0 -25 -6 -55l-66 -312h-133l63 297q4 19 4 36q0 27 -16 39.5t-54 12.5q-28 0 -57 -11.5t-52 -31.5q1 -17 -4 -41l-63 -301h-126l63 297q4 19 4 37q0 26 -13.5 38.5
t-45.5 12.5q-51 0 -115 -51l-70 -334h-133zM317 -82h107l-21 -99h-107z" />
    <glyph glyph-name="uni1E44" unicode="&#x1e44;" horiz-adv-x="671" 
d="M407 811h105l-21 -98h-105zM137 644h117l214 -429l91 429h135l-136 -644h-117l-214 429l-91 -429h-135z" />
    <glyph glyph-name="uni1E45" unicode="&#x1e45;" horiz-adv-x="587" 
d="M324 645h105l-21 -98h-105zM101 474h125l-4 -45q37 24 84 39.5t94 15.5q74 0 111 -31.5t37 -92.5q0 -26 -6 -56l-64 -304h-135l63 297q4 19 4 36q0 28 -16.5 40t-55.5 12q-36 0 -70 -13.5t-61 -35.5l-71 -336h-135z" />
    <glyph glyph-name="uni1E46" unicode="&#x1e46;" horiz-adv-x="671" 
d="M137 644h117l214 -429l91 429h135l-136 -644h-117l-214 429l-91 -429h-135zM211 -82h107l-21 -99h-107z" />
    <glyph glyph-name="uni1E47" unicode="&#x1e47;" horiz-adv-x="587" 
d="M101 474h125l-4 -45q37 24 84 39.5t94 15.5q74 0 111 -31.5t37 -92.5q0 -26 -6 -56l-64 -304h-135l63 297q4 19 4 36q0 28 -16.5 40t-55.5 12q-36 0 -70 -13.5t-61 -35.5l-71 -336h-135zM176 -82h107l-21 -99h-107z" />
    <glyph glyph-name="uni1E48" unicode="&#x1e48;" horiz-adv-x="671" 
d="M137 644h117l214 -429l91 429h135l-136 -644h-117l-214 429l-91 -429h-135zM114 -72h307l-17 -83h-307z" />
    <glyph glyph-name="uni1E49" unicode="&#x1e49;" horiz-adv-x="587" 
d="M101 474h125l-4 -45q37 24 84 39.5t94 15.5q74 0 111 -31.5t37 -92.5q0 -26 -6 -56l-64 -304h-135l63 297q4 19 4 36q0 28 -16.5 40t-55.5 12q-36 0 -70 -13.5t-61 -35.5l-71 -336h-135zM77 -72h307l-17 -83h-307z" />
    <glyph glyph-name="uni1E5A" unicode="&#x1e5a;" horiz-adv-x="618" 
d="M137 644h309q85 0 130.5 -41.5t45.5 -114.5q0 -31 -7 -60q-14 -66 -57 -114t-109 -66q12 -13 19 -28t12 -40l40 -180h-140l-40 173q-6 23 -16 31.5t-37 8.5h-106l-45 -213h-135zM344 325q56 0 89.5 24.5t44.5 78.5q5 20 5 42q0 33 -20 47.5t-67 14.5h-147l-44 -207h139z
M185 -82h107l-21 -99h-107z" />
    <glyph glyph-name="uni1E5B" unicode="&#x1e5b;" horiz-adv-x="378" 
d="M101 474h125l-4 -49q37 21 87.5 37t97.5 22l-21 -102q-44 -6 -96 -20.5t-84 -30.5l-70 -331h-135zM-10 -82h107l-21 -99h-107z" />
    <glyph glyph-name="uni1E5C" unicode="&#x1e5c;" horiz-adv-x="618" 
d="M255 800h307l-17 -83h-307zM137 644h309q85 0 130.5 -41.5t45.5 -114.5q0 -31 -7 -60q-14 -66 -57 -114t-109 -66q12 -13 19 -28t12 -40l40 -180h-140l-40 173q-6 23 -16 31.5t-37 8.5h-106l-45 -213h-135zM344 325q56 0 89.5 24.5t44.5 78.5q5 20 5 42q0 33 -20 47.5
t-67 14.5h-147l-44 -207h139zM168 -82h107l-21 -99h-107z" />
    <glyph glyph-name="uni1E5D" unicode="&#x1e5d;" horiz-adv-x="386" 
d="M100 634h307l-17 -83h-307zM109 474h125l-4 -49q37 21 87.5 37t97.5 22l-21 -102q-44 -6 -96 -20.5t-84 -30.5l-70 -331h-135zM5 -82h107l-21 -99h-107z" />
    <glyph glyph-name="uni1E5E" unicode="&#x1e5e;" horiz-adv-x="618" 
d="M137 644h309q85 0 130.5 -41.5t45.5 -114.5q0 -31 -7 -60q-14 -66 -57 -114t-109 -66q12 -13 19 -28t12 -40l40 -180h-140l-40 173q-6 23 -16 31.5t-37 8.5h-106l-45 -213h-135zM344 325q56 0 89.5 24.5t44.5 78.5q5 20 5 42q0 33 -20 47.5t-67 14.5h-147l-44 -207h139z
M73 -72h307l-17 -83h-307z" />
    <glyph glyph-name="uni1E5F" unicode="&#x1e5f;" horiz-adv-x="378" 
d="M101 474h125l-4 -49q37 21 87.5 37t97.5 22l-21 -102q-44 -6 -96 -20.5t-84 -30.5l-70 -331h-135zM-96 -72h307l-17 -83h-307z" />
    <glyph glyph-name="uni1E60" unicode="&#x1e60;" horiz-adv-x="555" 
d="M335 811h105l-21 -98h-105zM-2 25l25 119q41 -18 90 -29t97 -11q75 0 108.5 14t42.5 58q2 7 2 20q0 21 -13 34.5t-41.5 24.5t-84.5 28q-79 23 -114 55.5t-35 83.5q0 26 5 47q19 91 90 138t204 47q55 0 104 -7.5t79 -19.5l-26 -119q-74 31 -164 31q-69 0 -105.5 -15
t-44.5 -55q-2 -12 -2 -17q0 -18 12 -30.5t38.5 -22.5t77.5 -24q88 -24 124.5 -61t36.5 -90q0 -20 -5 -48q-19 -91 -87.5 -138.5t-213.5 -47.5q-128 0 -200 35z" />
    <glyph glyph-name="uni1E61" unicode="&#x1e61;" horiz-adv-x="471" 
d="M259 645h105l-21 -98h-105zM67 -3q-46 7 -74 19l24 112q30 -14 72.5 -21.5t81.5 -7.5q52 0 73 6.5t25 26.5q3 18 -13 28t-63 26q-7 3 -15.5 5.5t-19.5 6.5q-55 20 -82 46t-27 66q0 17 4 33q16 71 71.5 106t167.5 35q41 0 79.5 -6t65.5 -16l-24 -111q-23 12 -56.5 19
t-64.5 7q-51 0 -76.5 -8t-25.5 -30q0 -14 15.5 -22t56.5 -21q13 -3 30 -9q64 -22 91 -48.5t27 -66.5q0 -19 -4 -38q-15 -73 -72.5 -108.5t-168.5 -35.5q-52 0 -98 7z" />
    <glyph glyph-name="uni1E62" unicode="&#x1e62;" horiz-adv-x="555" 
d="M-2 25l25 119q41 -18 90 -29t97 -11q75 0 108.5 14t42.5 58q2 7 2 20q0 21 -13 34.5t-41.5 24.5t-84.5 28q-79 23 -114 55.5t-35 83.5q0 26 5 47q19 91 90 138t204 47q55 0 104 -7.5t79 -19.5l-26 -119q-74 31 -164 31q-69 0 -105.5 -15t-44.5 -55q-2 -12 -2 -17
q0 -18 12 -30.5t38.5 -22.5t77.5 -24q88 -24 124.5 -61t36.5 -90q0 -20 -5 -48q-19 -91 -87.5 -138.5t-213.5 -47.5q-128 0 -200 35zM148 -82h107l-21 -99h-107z" />
    <glyph glyph-name="uni1E63" unicode="&#x1e63;" horiz-adv-x="471" 
d="M67 -3q-46 7 -74 19l24 112q30 -14 72.5 -21.5t81.5 -7.5q52 0 73 6.5t25 26.5q3 18 -13 28t-63 26q-7 3 -15.5 5.5t-19.5 6.5q-55 20 -82 46t-27 66q0 17 4 33q16 71 71.5 106t167.5 35q41 0 79.5 -6t65.5 -16l-24 -111q-23 12 -56.5 19t-64.5 7q-51 0 -76.5 -8
t-25.5 -30q0 -14 15.5 -22t56.5 -21q13 -3 30 -9q64 -22 91 -48.5t27 -66.5q0 -19 -4 -38q-15 -73 -72.5 -108.5t-168.5 -35.5q-52 0 -98 7zM121 -82h107l-21 -99h-107z" />
    <glyph glyph-name="uni1E6C" unicode="&#x1e6c;" horiz-adv-x="564" 
d="M273 540h-198l22 104h530l-22 -104h-197l-114 -540h-135zM155 -72h107l-21 -99h-107z" />
    <glyph glyph-name="uni1E6D" unicode="&#x1e6d;" horiz-adv-x="368" 
d="M87.5 20q-33.5 30 -33.5 84q0 19 5 46l47 220h-67l22 104h67l22 102l143 40l-30 -142h120l-30 -104h-112l-45 -211q-3 -16 -3 -28q0 -22 14.5 -31t48.5 -9q27 0 60 10l-20 -93q-48 -18 -110 -18q-65 0 -98.5 30zM104 -72h107l-21 -99h-107z" />
    <glyph glyph-name="uni1E6E" unicode="&#x1e6e;" horiz-adv-x="564" 
d="M273 540h-198l22 104h530l-22 -104h-197l-114 -540h-135zM59 -62h307l-17 -83h-307z" />
    <glyph glyph-name="uni1E6F" unicode="&#x1e6f;" horiz-adv-x="376" 
d="M87.5 20q-33.5 30 -33.5 84q0 19 5 46l47 220h-67l22 104h67l22 102l143 40l-30 -142h120l-30 -104h-112l-45 -211q-3 -16 -3 -28q0 -22 14.5 -31t48.5 -9q27 0 60 10l-20 -93q-48 -18 -110 -18q-65 0 -98.5 30zM-18 -62h307l-17 -83h-307z" />
    <glyph glyph-name="Wgrave" unicode="&#x1e80;" horiz-adv-x="875" 
d="M419 875h117l40 -187h-109zM117 644h133l5 -435l180 351l17 84h110l32 -436l192 436h132l-285 -644h-124l-31 412l-214 -412h-133z" />
    <glyph glyph-name="wgrave" unicode="&#x1e81;" horiz-adv-x="757" 
d="M326 709h117l40 -187h-109zM81 474h135l7 -308l131 247l13 61h103l25 -308l135 308h134l-224 -474h-119l-33 277l-151 -277h-131z" />
    <glyph glyph-name="Wacute" unicode="&#x1e82;" horiz-adv-x="875" 
d="M586 875h117l-128 -187h-109zM117 644h133l5 -435l180 351l17 84h110l32 -436l192 436h132l-285 -644h-124l-31 412l-214 -412h-133z" />
    <glyph glyph-name="wacute" unicode="&#x1e83;" horiz-adv-x="757" 
d="M495 709h117l-128 -187h-109zM81 474h135l7 -308l131 247l13 61h103l25 -308l135 308h134l-224 -474h-119l-33 277l-151 -277h-131z" />
    <glyph glyph-name="Wdieresis" unicode="&#x1e84;" horiz-adv-x="875" 
d="M409 811h105l-21 -98h-105zM604 811h106l-21 -98h-106zM117 644h133l5 -435l180 351l17 84h110l32 -436l192 436h132l-285 -644h-124l-31 412l-214 -412h-133z" />
    <glyph glyph-name="wdieresis" unicode="&#x1e85;" horiz-adv-x="757" 
d="M311 645h105l-21 -98h-105zM506 645h106l-21 -98h-106zM81 474h135l7 -308l131 247l13 61h103l25 -308l135 308h134l-224 -474h-119l-33 277l-151 -277h-131z" />
    <glyph glyph-name="uni1E8E" unicode="&#x1e8e;" horiz-adv-x="671" 
d="M399 811h105l-21 -98h-105zM262 238l-145 406h137l97 -291l219 291h144l-317 -406l-50 -238h-135z" />
    <glyph glyph-name="uni1E8F" unicode="&#x1e8f;" horiz-adv-x="600" 
d="M344 645h105l-21 -98h-105zM84.5 -172.5q-40.5 3.5 -59.5 7.5l22 103q19 -6 50 -9.5t54 -3.5q174 0 194 90l6 30q-81 -55 -178 -55q-65 0 -105 38.5t-40 103.5q0 18 5 45l63 297h135l-62 -294q-5 -25 -5 -39q0 -27 17.5 -39.5t59.5 -12.5q34 0 66.5 13.5t59.5 35.5
l71 336h135l-93 -441q-21 -100 -98 -154.5t-231 -54.5q-26 0 -66.5 3.5z" />
    <glyph glyph-name="uni1E92" unicode="&#x1e92;" horiz-adv-x="579" 
d="M-5 70l423 462h-308l23 112h484l-17 -82l-418 -458h326l-22 -104h-505zM183 -82h107l-21 -99h-107z" />
    <glyph glyph-name="uni1E93" unicode="&#x1e93;" horiz-adv-x="489" 
d="M-5 70l301 292h-229l24 112h398l-17 -82l-295 -288h241l-22 -104h-415zM119 -82h107l-21 -99h-107z" />
    <glyph glyph-name="uni1E97" unicode="&#x1e97;" horiz-adv-x="369" 
d="M120 740h105l-21 -98h-105zM315 740h106l-21 -98h-106zM87.5 20q-33.5 30 -33.5 84q0 19 5 46l47 220h-67l22 104h67l22 102l143 40l-30 -142h120l-30 -104h-112l-45 -211q-3 -16 -3 -28q0 -22 14.5 -31t48.5 -9q27 0 60 10l-20 -93q-48 -18 -110 -18q-65 0 -98.5 30z
" />
    <glyph glyph-name="uni1E9E" unicode="&#x1e9e;" horiz-adv-x="627" 
d="M194 13l24 114q22 -10 52.5 -16t60.5 -6q99 0 116 82q3 12 3 22q0 25 -19 36t-62 11h-94l22 106l186 102q2 12 2 17q0 63 -112 63q-68 0 -107.5 -30t-52.5 -91l-89 -423h-128l88 417q51 237 313 237q104 0 158 -48t54 -125q0 -20 -5 -48l-176 -94h25q54 0 89 -33t35 -87
q0 -18 -4 -34q-19 -87 -80.5 -141t-159.5 -54q-81 0 -139 23z" />
    <glyph glyph-name="uni1EA0" unicode="&#x1ea0;" horiz-adv-x="713" 
d="M363 644h148l109 -644h-135l-29 155h-237l-92 -155h-146zM459 259l-44 259l-153 -259h197zM230 -82h107l-21 -99h-107z" />
    <glyph glyph-name="uni1EA1" unicode="&#x1ea1;" horiz-adv-x="591" 
d="M66 27.5q-48 37.5 -48 117.5q0 27 8 69q18 83 60 144t100.5 93.5t126.5 32.5q41 0 70 -9t53 -32l6 31h135l-100 -474h-116l1 44q-37 -27 -77 -40.5t-89 -13.5q-82 0 -130 37.5zM314.5 99q27.5 10 55.5 33l44 211q-31 42 -87 42q-63 0 -104.5 -43.5t-59.5 -127.5
q-7 -29 -7 -54q0 -39 23 -55t75 -16q33 0 60.5 10zM172 -82h107l-21 -99h-107z" />
    <glyph glyph-name="uni1EA2" unicode="&#x1ea2;" horiz-adv-x="713" 
d="M414 769q54 3 74.5 13.5t25.5 34.5q1 3 1 8q0 31 -61 31q-15 0 -33.5 -3t-31.5 -8l15 67q41 13 102 13q55 0 84 -20t29 -56q0 -6 -2 -20q-9 -42 -33.5 -64t-73.5 -31l-10 -46h-103zM363 644h148l109 -644h-135l-29 155h-237l-92 -155h-146zM459 259l-44 259l-153 -259
h197z" />
    <glyph glyph-name="uni1EA3" unicode="&#x1ea3;" horiz-adv-x="591" 
d="M302 602q54 3 74.5 13.5t25.5 34.5q1 3 1 8q0 31 -61 31q-15 0 -33.5 -3t-31.5 -8l15 67q41 13 102 13q55 0 84 -20t29 -56q0 -6 -2 -20q-9 -42 -33.5 -64t-73.5 -31l-10 -46h-103zM66 27.5q-48 37.5 -48 117.5q0 27 8 69q18 83 60 144t100.5 93.5t126.5 32.5q41 0 70 -9
t53 -32l6 31h135l-100 -474h-116l1 44q-37 -27 -77 -40.5t-89 -13.5q-82 0 -130 37.5zM314.5 99q27.5 10 55.5 33l44 211q-31 42 -87 42q-63 0 -104.5 -43.5t-59.5 -127.5q-7 -29 -7 -54q0 -39 23 -55t75 -16q33 0 60.5 10z" />
    <glyph glyph-name="uni1EA4" unicode="&#x1ea4;" horiz-adv-x="713" 
d="M664 946h102l-103 -141h-94zM419 823h103l98 -135h-104l-51 81l-84 -81h-116zM363 644h148l109 -644h-135l-29 155h-237l-92 -155h-146zM459 259l-44 259l-153 -259h197z" />
    <glyph glyph-name="uni1EA5" unicode="&#x1ea5;" horiz-adv-x="591" 
d="M572 779h102l-103 -141h-94zM327 656h103l98 -135h-104l-51 81l-84 -81h-116zM66 27.5q-48 37.5 -48 117.5q0 27 8 69q18 83 60 144t100.5 93.5t126.5 32.5q41 0 70 -9t53 -32l6 31h135l-100 -474h-116l1 44q-37 -27 -77 -40.5t-89 -13.5q-82 0 -130 37.5zM314.5 99
q27.5 10 55.5 33l44 211q-31 42 -87 42q-63 0 -104.5 -43.5t-59.5 -127.5q-7 -29 -7 -54q0 -39 23 -55t75 -16q33 0 60.5 10z" />
    <glyph glyph-name="uni1EA6" unicode="&#x1ea6;" horiz-adv-x="713" 
d="M232 946h102l36 -141h-95zM423 823h103l98 -135h-104l-51 81l-84 -81h-116zM363 644h148l109 -644h-135l-29 155h-237l-92 -155h-146zM459 259l-44 259l-153 -259h197z" />
    <glyph glyph-name="uni1EA7" unicode="&#x1ea7;" horiz-adv-x="591" 
d="M129 779h102l36 -141h-95zM320 656h103l98 -135h-104l-51 81l-84 -81h-116zM66 27.5q-48 37.5 -48 117.5q0 27 8 69q18 83 60 144t100.5 93.5t126.5 32.5q41 0 70 -9t53 -32l6 31h135l-100 -474h-116l1 44q-37 -27 -77 -40.5t-89 -13.5q-82 0 -130 37.5zM314.5 99
q27.5 10 55.5 33l44 211q-31 42 -87 42q-63 0 -104.5 -43.5t-59.5 -127.5q-7 -29 -7 -54q0 -39 23 -55t75 -16q33 0 60.5 10z" />
    <glyph glyph-name="uni1EA8" unicode="&#x1ea8;" horiz-adv-x="713" 
d="M592 853q44 2 61 10t20 25q3 15 -6.5 21t-32.5 6q-27 0 -56 -12l14 62q38 12 84 12t70.5 -17.5t24.5 -47.5q0 -4 -2 -16q-14 -67 -93 -79l-7 -34h-92zM423 823h103l98 -135h-104l-51 81l-84 -81h-116zM363 644h148l109 -644h-135l-29 155h-237l-92 -155h-146zM459 259
l-44 259l-153 -259h197z" />
    <glyph glyph-name="uni1EA9" unicode="&#x1ea9;" horiz-adv-x="591" 
d="M488 686q44 2 61 10t20 25q3 15 -6.5 21t-32.5 6q-27 0 -56 -12l14 62q38 12 84 12t70.5 -17.5t24.5 -47.5q0 -4 -2 -16q-14 -67 -93 -79l-7 -34h-92zM319 656h103l98 -135h-104l-51 81l-84 -81h-116zM66 27.5q-48 37.5 -48 117.5q0 27 8 69q18 83 60 144t100.5 93.5
t126.5 32.5q41 0 70 -9t53 -32l6 31h135l-100 -474h-116l1 44q-37 -27 -77 -40.5t-89 -13.5q-82 0 -130 37.5zM314.5 99q27.5 10 55.5 33l44 211q-31 42 -87 42q-63 0 -104.5 -43.5t-59.5 -127.5q-7 -29 -7 -54q0 -39 23 -55t75 -16q33 0 60.5 10z" />
    <glyph glyph-name="uni1EAA" unicode="&#x1eaa;" horiz-adv-x="713" 
d="M535 843q-18 5 -46 16q-44 19 -69 19q-55 0 -98 -37l19 86q16 14 41.5 22.5t51.5 8.5q21 0 39.5 -5.5t40.5 -15.5q26 -10 40.5 -14.5t32.5 -4.5q55 0 90 38l-19 -86q-12 -14 -35 -23t-50 -9q-20 0 -38 5zM423 823h103l98 -135h-104l-51 81l-84 -81h-116zM363 644h148
l109 -644h-135l-29 155h-237l-92 -155h-146zM459 259l-44 259l-153 -259h197z" />
    <glyph glyph-name="uni1EAB" unicode="&#x1eab;" horiz-adv-x="591" 
d="M433 676q-18 5 -46 16q-44 19 -69 19q-55 0 -98 -37l19 86q16 14 41.5 22.5t51.5 8.5q21 0 39.5 -5.5t40.5 -15.5q26 -10 40.5 -14.5t32.5 -4.5q55 0 90 38l-19 -86q-12 -14 -35 -23t-50 -9q-20 0 -38 5zM321 656h103l98 -135h-104l-51 81l-84 -81h-116zM66 27.5
q-48 37.5 -48 117.5q0 27 8 69q18 83 60 144t100.5 93.5t126.5 32.5q41 0 70 -9t53 -32l6 31h135l-100 -474h-116l1 44q-37 -27 -77 -40.5t-89 -13.5q-82 0 -130 37.5zM314.5 99q27.5 10 55.5 33l44 211q-31 42 -87 42q-63 0 -104.5 -43.5t-59.5 -127.5q-7 -29 -7 -54
q0 -39 23 -55t75 -16q33 0 60.5 10z" />
    <glyph glyph-name="uni1EAC" unicode="&#x1eac;" horiz-adv-x="713" 
d="M440 862h86l98 -174h-99l-53 100l-93 -100h-110zM363 644h148l109 -644h-135l-29 155h-237l-92 -155h-146zM459 259l-44 259l-153 -259h197zM230 -82h107l-21 -99h-107z" />
    <glyph glyph-name="uni1EAD" unicode="&#x1ead;" horiz-adv-x="591" 
d="M340 696h86l98 -174h-99l-53 100l-93 -100h-110zM66 27.5q-48 37.5 -48 117.5q0 27 8 69q18 83 60 144t100.5 93.5t126.5 32.5q41 0 70 -9t53 -32l6 31h135l-100 -474h-116l1 44q-37 -27 -77 -40.5t-89 -13.5q-82 0 -130 37.5zM314.5 99q27.5 10 55.5 33l44 211
q-31 42 -87 42q-63 0 -104.5 -43.5t-59.5 -127.5q-7 -29 -7 -54q0 -39 23 -55t75 -16q33 0 60.5 10zM166 -82h107l-21 -99h-107z" />
    <glyph glyph-name="uni1EAE" unicode="&#x1eae;" horiz-adv-x="713" 
d="M516 959h102l-103 -141h-95zM349 716q-38 28 -38 86q0 17 5 42h77q-4 -16 -4 -31q0 -27 17 -40.5t54 -13.5q83 0 102 85h83q-18 -81 -67.5 -118.5t-129.5 -37.5q-61 0 -99 28zM363 644h148l109 -644h-135l-29 155h-237l-92 -155h-146zM459 259l-44 259l-153 -259h197z
" />
    <glyph glyph-name="uni1EAF" unicode="&#x1eaf;" horiz-adv-x="591" 
d="M422 793h102l-103 -141h-95zM255 550q-38 28 -38 86q0 17 5 42h77q-4 -16 -4 -31q0 -27 17 -40.5t54 -13.5q83 0 102 85h83q-18 -81 -67.5 -118.5t-129.5 -37.5q-61 0 -99 28zM66 27.5q-48 37.5 -48 117.5q0 27 8 69q18 83 60 144t100.5 93.5t126.5 32.5q41 0 70 -9
t53 -32l6 31h135l-100 -474h-116l1 44q-37 -27 -77 -40.5t-89 -13.5q-82 0 -130 37.5zM314.5 99q27.5 10 55.5 33l44 211q-31 42 -87 42q-63 0 -104.5 -43.5t-59.5 -127.5q-7 -29 -7 -54q0 -39 23 -55t75 -16q33 0 60.5 10z" />
    <glyph glyph-name="uni1EB0" unicode="&#x1eb0;" horiz-adv-x="713" 
d="M391 959h102l36 -141h-95zM349 716q-38 28 -38 86q0 17 5 42h77q-4 -16 -4 -31q0 -27 17 -40.5t54 -13.5q83 0 102 85h83q-18 -81 -67.5 -118.5t-129.5 -37.5q-61 0 -99 28zM363 644h148l109 -644h-135l-29 155h-237l-92 -155h-146zM459 259l-44 259l-153 -259h197z" />
    <glyph glyph-name="uni1EB1" unicode="&#x1eb1;" horiz-adv-x="591" 
d="M293 793h102l36 -141h-95zM251 550q-38 28 -38 86q0 17 5 42h77q-4 -16 -4 -31q0 -27 17 -40.5t54 -13.5q83 0 102 85h83q-18 -81 -67.5 -118.5t-129.5 -37.5q-61 0 -99 28zM66 27.5q-48 37.5 -48 117.5q0 27 8 69q18 83 60 144t100.5 93.5t126.5 32.5q41 0 70 -9t53 -32
l6 31h135l-100 -474h-116l1 44q-37 -27 -77 -40.5t-89 -13.5q-82 0 -130 37.5zM314.5 99q27.5 10 55.5 33l44 211q-31 42 -87 42q-63 0 -104.5 -43.5t-59.5 -127.5q-7 -29 -7 -54q0 -39 23 -55t75 -16q33 0 60.5 10z" />
    <glyph glyph-name="uni1EB2" unicode="&#x1eb2;" horiz-adv-x="713" 
d="M440 887q50 2 69.5 14t19.5 36q0 13 -10.5 18t-33.5 5q-28 0 -57 -12l12 57q41 12 91 12q43 0 66.5 -17t23.5 -46q0 -5 -2 -17q-8 -33 -29.5 -51.5t-63.5 -26.5l-7 -32h-92zM349 716q-38 28 -38 86q0 17 5 42h77q-4 -16 -4 -31q0 -27 17 -40.5t54 -13.5q83 0 102 85h83
q-18 -81 -67.5 -118.5t-129.5 -37.5q-61 0 -99 28zM363 644h148l109 -644h-135l-29 155h-237l-92 -155h-146zM459 259l-44 259l-153 -259h197z" />
    <glyph glyph-name="uni1EB3" unicode="&#x1eb3;" horiz-adv-x="591" 
d="M348 721q50 2 69.5 14t19.5 36q0 13 -10.5 18t-33.5 5q-28 0 -57 -12l12 57q41 12 91 12q43 0 66.5 -17t23.5 -46q0 -5 -2 -17q-8 -33 -29.5 -51.5t-63.5 -26.5l-7 -32h-92zM257 550q-38 28 -38 86q0 17 5 42h77q-4 -16 -4 -31q0 -27 17 -40.5t54 -13.5q83 0 102 85h83
q-18 -81 -67.5 -118.5t-129.5 -37.5q-61 0 -99 28zM66 27.5q-48 37.5 -48 117.5q0 27 8 69q18 83 60 144t100.5 93.5t126.5 32.5q41 0 70 -9t53 -32l6 31h135l-100 -474h-116l1 44q-37 -27 -77 -40.5t-89 -13.5q-82 0 -130 37.5zM314.5 99q27.5 10 55.5 33l44 211
q-31 42 -87 42q-63 0 -104.5 -43.5t-59.5 -127.5q-7 -29 -7 -54q0 -39 23 -55t75 -16q33 0 60.5 10z" />
    <glyph glyph-name="uni1EB4" unicode="&#x1eb4;" horiz-adv-x="713" 
d="M532 870.5q-18 5.5 -44 15.5q-44 19 -69 19q-57 0 -98 -37l18 86q17 14 42.5 22.5t51.5 8.5q35 0 79 -21q26 -10 40.5 -14.5t32.5 -4.5q57 0 90 38l-17 -86q-13 -14 -36.5 -23t-50.5 -9q-21 0 -39 5.5zM349 716q-38 28 -38 86q0 17 5 42h77q-4 -16 -4 -31q0 -27 17 -40.5
t54 -13.5q83 0 102 85h83q-18 -81 -67.5 -118.5t-129.5 -37.5q-61 0 -99 28zM363 644h148l109 -644h-135l-29 155h-237l-92 -155h-146zM459 259l-44 259l-153 -259h197z" />
    <glyph glyph-name="uni1EB5" unicode="&#x1eb5;" horiz-adv-x="591" 
d="M446 704.5q-18 5.5 -44 15.5q-44 19 -69 19q-57 0 -98 -37l18 86q17 14 42.5 22.5t51.5 8.5q35 0 79 -21q26 -10 40.5 -14.5t32.5 -4.5q57 0 90 38l-17 -86q-13 -14 -36.5 -23t-50.5 -9q-21 0 -39 5.5zM263 550q-38 28 -38 86q0 17 5 42h77q-4 -16 -4 -31q0 -27 17 -40.5
t54 -13.5q83 0 102 85h83q-18 -81 -67.5 -118.5t-129.5 -37.5q-61 0 -99 28zM66 27.5q-48 37.5 -48 117.5q0 27 8 69q18 83 60 144t100.5 93.5t126.5 32.5q41 0 70 -9t53 -32l6 31h135l-100 -474h-116l1 44q-37 -27 -77 -40.5t-89 -13.5q-82 0 -130 37.5zM314.5 99
q27.5 10 55.5 33l44 211q-31 42 -87 42q-63 0 -104.5 -43.5t-59.5 -127.5q-7 -29 -7 -54q0 -39 23 -55t75 -16q33 0 60.5 10z" />
    <glyph glyph-name="uni1EB6" unicode="&#x1eb6;" horiz-adv-x="713" 
d="M351 718.5q-34 30.5 -34 84.5q0 17 5 42h84q-3 -15 -3 -29q0 -50 53 -50q33 0 56 23t30 56h95q-16 -75 -65 -116t-128 -41q-59 0 -93 30.5zM363 644h148l109 -644h-135l-29 155h-237l-92 -155h-146zM459 259l-44 259l-153 -259h197zM230 -82h107l-21 -99h-107z" />
    <glyph glyph-name="uni1EB7" unicode="&#x1eb7;" horiz-adv-x="591" 
d="M261 552.5q-34 30.5 -34 84.5q0 17 5 42h84q-3 -15 -3 -29q0 -50 53 -50q33 0 56 23t30 56h95q-16 -75 -65 -116t-128 -41q-59 0 -93 30.5zM66 27.5q-48 37.5 -48 117.5q0 27 8 69q18 83 60 144t100.5 93.5t126.5 32.5q41 0 70 -9t53 -32l6 31h135l-100 -474h-116l1 44
q-37 -27 -77 -40.5t-89 -13.5q-82 0 -130 37.5zM314.5 99q27.5 10 55.5 33l44 211q-31 42 -87 42q-63 0 -104.5 -43.5t-59.5 -127.5q-7 -29 -7 -54q0 -39 23 -55t75 -16q33 0 60.5 10zM175 -82h107l-21 -99h-107z" />
    <glyph glyph-name="uni1EB8" unicode="&#x1eb8;" horiz-adv-x="556" 
d="M137 644h462l-22 -105h-327l-35 -165h290l-22 -104h-290l-35 -166h327l-22 -104h-462zM158 -82h107l-21 -99h-107z" />
    <glyph glyph-name="uni1EB9" unicode="&#x1eb9;" horiz-adv-x="542" 
d="M83 36.5q-59 46.5 -59 136.5q0 31 7 65q25 120 94 183t199 63q92 0 140.5 -41.5t48.5 -113.5q0 -24 -6 -53l-18 -86h-343q-1 -39 12 -60t45.5 -30t91.5 -9q38 0 79 7t71 18l-20 -96q-72 -30 -180 -30q-103 0 -162 46.5zM389 273l5 26q3 14 3 25q0 63 -89 63
q-66 0 -98.5 -26.5t-45.5 -87.5h225zM158 -82h107l-21 -99h-107z" />
    <glyph glyph-name="uni1EBA" unicode="&#x1eba;" horiz-adv-x="556" 
d="M342 768q54 3 74.5 13.5t25.5 34.5q1 3 1 8q0 31 -61 31q-15 0 -33.5 -3t-31.5 -8l15 67q41 13 102 13q55 0 84 -20t29 -56q0 -6 -2 -20q-9 -42 -33.5 -64t-73.5 -31l-10 -46h-103zM137 644h462l-22 -105h-327l-35 -165h290l-22 -104h-290l-35 -166h327l-22 -104h-462z
" />
    <glyph glyph-name="uni1EBB" unicode="&#x1ebb;" horiz-adv-x="542" 
d="M304 602q54 3 74.5 13.5t25.5 34.5q1 3 1 8q0 31 -61 31q-15 0 -33.5 -3t-31.5 -8l15 67q41 13 102 13q55 0 84 -20t29 -56q0 -6 -2 -20q-9 -42 -33.5 -64t-73.5 -31l-10 -46h-103zM83 36.5q-59 46.5 -59 136.5q0 31 7 65q25 120 94 183t199 63q92 0 140.5 -41.5
t48.5 -113.5q0 -24 -6 -53l-18 -86h-343q-1 -39 12 -60t45.5 -30t91.5 -9q38 0 79 7t71 18l-20 -96q-72 -30 -180 -30q-103 0 -162 46.5zM389 273l5 26q3 14 3 25q0 63 -89 63q-66 0 -98.5 -26.5t-45.5 -87.5h225z" />
    <glyph glyph-name="uni1EBC" unicode="&#x1ebc;" horiz-adv-x="556" 
d="M429 705q-18 5 -46 16q-44 19 -69 19q-55 0 -98 -37l21 96q17 14 42 22.5t51 8.5q21 0 39.5 -5.5t40.5 -15.5q26 -10 40.5 -14.5t32.5 -4.5q56 0 91 38l-21 -96q-12 -14 -35.5 -23t-50.5 -9q-20 0 -38 5zM137 644h462l-22 -105h-327l-35 -165h290l-22 -104h-290l-35 -166
h327l-22 -104h-462z" />
    <glyph glyph-name="uni1EBD" unicode="&#x1ebd;" horiz-adv-x="542" 
d="M389 539q-18 5 -46 16q-44 19 -69 19q-55 0 -98 -37l21 96q17 14 42 22.5t51 8.5q21 0 39.5 -5.5t40.5 -15.5q26 -10 40.5 -14.5t32.5 -4.5q56 0 91 38l-21 -96q-12 -14 -35.5 -23t-50.5 -9q-20 0 -38 5zM83 36.5q-59 46.5 -59 136.5q0 31 7 65q25 120 94 183t199 63
q92 0 140.5 -41.5t48.5 -113.5q0 -24 -6 -53l-18 -86h-343q-1 -39 12 -60t45.5 -30t91.5 -9q38 0 79 7t71 18l-20 -96q-72 -30 -180 -30q-103 0 -162 46.5zM389 273l5 26q3 14 3 25q0 63 -89 63q-66 0 -98.5 -26.5t-45.5 -87.5h225z" />
    <glyph glyph-name="uni1EBE" unicode="&#x1ebe;" horiz-adv-x="556" 
d="M601 945h102l-103 -141h-94zM356 822h103l98 -135h-104l-51 81l-84 -81h-116zM137 644h462l-22 -105h-327l-35 -165h290l-22 -104h-290l-35 -166h327l-22 -104h-462z" />
    <glyph glyph-name="uni1EBF" unicode="&#x1ebf;" horiz-adv-x="542" 
d="M562 779h102l-103 -141h-94zM317 656h103l98 -135h-104l-51 81l-84 -81h-116zM83 36.5q-59 46.5 -59 136.5q0 31 7 65q25 120 94 183t199 63q92 0 140.5 -41.5t48.5 -113.5q0 -24 -6 -53l-18 -86h-343q-1 -39 12 -60t45.5 -30t91.5 -9q38 0 79 7t71 18l-20 -96
q-72 -30 -180 -30q-103 0 -162 46.5zM389 273l5 26q3 14 3 25q0 63 -89 63q-66 0 -98.5 -26.5t-45.5 -87.5h225z" />
    <glyph glyph-name="uni1EC0" unicode="&#x1ec0;" horiz-adv-x="556" 
d="M167 945h102l36 -141h-95zM358 822h103l98 -135h-104l-51 81l-84 -81h-116zM137 644h462l-22 -105h-327l-35 -165h290l-22 -104h-290l-35 -166h327l-22 -104h-462z" />
    <glyph glyph-name="uni1EC1" unicode="&#x1ec1;" horiz-adv-x="542" 
d="M128 789h102l36 -141h-95zM319 666h103l98 -135h-104l-51 81l-84 -81h-116zM83 36.5q-59 46.5 -59 136.5q0 31 7 65q25 120 94 183t199 63q92 0 140.5 -41.5t48.5 -113.5q0 -24 -6 -53l-18 -86h-343q-1 -39 12 -60t45.5 -30t91.5 -9q38 0 79 7t71 18l-20 -96
q-72 -30 -180 -30q-103 0 -162 46.5zM389 273l5 26q3 14 3 25q0 63 -89 63q-66 0 -98.5 -26.5t-45.5 -87.5h225z" />
    <glyph glyph-name="uni1EC2" unicode="&#x1ec2;" horiz-adv-x="556" 
d="M525 852q44 2 61 10t20 25q3 15 -6.5 21t-32.5 6q-27 0 -56 -12l14 62q38 12 84 12t70.5 -17.5t24.5 -47.5q0 -4 -2 -16q-14 -67 -93 -79l-7 -34h-92zM356 822h103l98 -135h-104l-51 81l-84 -81h-116zM137 644h462l-22 -105h-327l-35 -165h290l-22 -104h-290l-35 -166
h327l-22 -104h-462z" />
    <glyph glyph-name="uni1EC3" unicode="&#x1ec3;" horiz-adv-x="542" 
d="M481 686q44 2 61 10t20 25q3 15 -6.5 21t-32.5 6q-27 0 -56 -12l14 62q38 12 84 12t70.5 -17.5t24.5 -47.5q0 -4 -2 -16q-14 -67 -93 -79l-7 -34h-92zM312 656h103l98 -135h-104l-51 81l-84 -81h-116zM83 36.5q-59 46.5 -59 136.5q0 31 7 65q25 120 94 183t199 63
q92 0 140.5 -41.5t48.5 -113.5q0 -24 -6 -53l-18 -86h-343q-1 -39 12 -60t45.5 -30t91.5 -9q38 0 79 7t71 18l-20 -96q-72 -30 -180 -30q-103 0 -162 46.5zM389 273l5 26q3 14 3 25q0 63 -89 63q-66 0 -98.5 -26.5t-45.5 -87.5h225z" />
    <glyph glyph-name="uni1EC4" unicode="&#x1ec4;" horiz-adv-x="556" 
d="M469 842q-18 5 -46 16q-44 19 -69 19q-55 0 -98 -37l19 86q16 14 41.5 22.5t51.5 8.5q21 0 39.5 -5.5t40.5 -15.5q26 -10 40.5 -14.5t32.5 -4.5q55 0 90 38l-19 -86q-12 -14 -35 -23t-50 -9q-20 0 -38 5zM357 822h103l98 -135h-104l-51 81l-84 -81h-116zM137 644h462
l-22 -105h-327l-35 -165h290l-22 -104h-290l-35 -166h327l-22 -104h-462z" />
    <glyph glyph-name="uni1EC5" unicode="&#x1ec5;" horiz-adv-x="542" 
d="M427 676q-18 5 -46 16q-44 19 -69 19q-55 0 -98 -37l19 86q16 14 41.5 22.5t51.5 8.5q21 0 39.5 -5.5t40.5 -15.5q26 -10 40.5 -14.5t32.5 -4.5q55 0 90 38l-19 -86q-12 -14 -35 -23t-50 -9q-20 0 -38 5zM315 656h103l98 -135h-104l-51 81l-84 -81h-116zM83 36.5
q-59 46.5 -59 136.5q0 31 7 65q25 120 94 183t199 63q92 0 140.5 -41.5t48.5 -113.5q0 -24 -6 -53l-18 -86h-343q-1 -39 12 -60t45.5 -30t91.5 -9q38 0 79 7t71 18l-20 -96q-72 -30 -180 -30q-103 0 -162 46.5zM389 273l5 26q3 14 3 25q0 63 -89 63q-66 0 -98.5 -26.5
t-45.5 -87.5h225z" />
    <glyph glyph-name="uni1EC6" unicode="&#x1ec6;" horiz-adv-x="556" 
d="M367 862h86l98 -174h-99l-53 100l-93 -100h-110zM137 644h462l-22 -105h-327l-35 -165h290l-22 -104h-290l-35 -166h327l-22 -104h-462zM157 -82h107l-21 -99h-107z" />
    <glyph glyph-name="uni1EC7" unicode="&#x1ec7;" horiz-adv-x="542" 
d="M328 696h86l98 -174h-99l-53 100l-93 -100h-110zM83 36.5q-59 46.5 -59 136.5q0 31 7 65q25 120 94 183t199 63q92 0 140.5 -41.5t48.5 -113.5q0 -24 -6 -53l-18 -86h-343q-1 -39 12 -60t45.5 -30t91.5 -9q38 0 79 7t71 18l-20 -96q-72 -30 -180 -30q-103 0 -162 46.5z
M389 273l5 26q3 14 3 25q0 63 -89 63q-66 0 -98.5 -26.5t-45.5 -87.5h225zM154 -82h107l-21 -99h-107z" />
    <glyph glyph-name="uni1EC8" unicode="&#x1ec8;" horiz-adv-x="250" 
d="M179 768q54 3 74.5 13.5t25.5 34.5q1 3 1 8q0 31 -61 31q-15 0 -33.5 -3t-31.5 -8l15 67q41 13 102 13q55 0 84 -20t29 -56q0 -6 -2 -20q-9 -42 -33.5 -64t-73.5 -31l-10 -46h-103zM137 644h135l-136 -644h-135z" />
    <glyph glyph-name="uni1EC9" unicode="&#x1ec9;" horiz-adv-x="321" 
d="M192 602q54 3 74.5 13.5t25.5 34.5q1 3 1 8q0 31 -61 31q-15 0 -33.5 -3t-31.5 -8l15 67q41 13 102 13q55 0 84 -20t29 -56q0 -6 -2 -20q-9 -42 -33.5 -64t-73.5 -31l-10 -46h-103zM151 374h-71l33 100h194l-100 -474h-135z" />
    <glyph glyph-name="uni1ECA" unicode="&#x1eca;" horiz-adv-x="249" 
d="M137 644h135l-136 -644h-135zM-2 -82h107l-21 -99h-107z" />
    <glyph glyph-name="uni1ECB" unicode="&#x1ecb;" horiz-adv-x="321" 
d="M202 667h147l-22 -106h-147zM151 374h-71l33 100h194l-100 -474h-135zM70 -82h107l-21 -99h-107z" />
    <glyph glyph-name="uni1ECC" unicode="&#x1ecc;" horiz-adv-x="700" 
d="M101.5 46.5q-65.5 56.5 -65.5 168.5q0 47 12 104q37 177 128.5 256t256.5 79q126 0 190.5 -53t64.5 -166q0 -49 -14 -116q-36 -168 -128 -248.5t-255 -80.5q-124 0 -189.5 56.5zM459.5 157q53.5 52 77.5 162q14 65 14 105q0 62 -33.5 88.5t-109.5 26.5q-93 0 -146 -50.5
t-77 -169.5q-11 -57 -11 -92q0 -64 33.5 -93t108.5 -29q90 0 143.5 52zM224 -82h107l-21 -99h-107z" />
    <glyph glyph-name="uni1ECD" unicode="&#x1ecd;" horiz-adv-x="589" 
d="M76.5 34.5q-53.5 44.5 -53.5 129.5q-1 32 8 73q26 122 100.5 184.5t208.5 62.5q107 0 160.5 -45t53.5 -130q0 -30 -8 -72q-26 -123 -100 -185t-211 -62q-105 0 -158.5 44.5zM359.5 135q33.5 30 49.5 102q7 31 7 57q0 41 -23 58t-77 17q-65 0 -99 -30t-49 -102
q-8 -37 -8 -58q0 -40 23.5 -57t76.5 -17q66 0 99.5 30zM168 -82h107l-21 -99h-107z" />
    <glyph glyph-name="uni1ECE" unicode="&#x1ece;" horiz-adv-x="700" 
d="M406 768q54 3 74.5 13.5t25.5 34.5q1 3 1 8q0 31 -61 31q-15 0 -33.5 -3t-31.5 -8l15 67q41 13 102 13q55 0 84 -20t29 -56q0 -6 -2 -20q-9 -42 -33.5 -64t-73.5 -31l-10 -46h-103zM101.5 46.5q-65.5 56.5 -65.5 168.5q0 47 12 104q37 177 128.5 256t256.5 79
q126 0 190.5 -53t64.5 -166q0 -49 -14 -116q-36 -168 -128 -248.5t-255 -80.5q-124 0 -189.5 56.5zM459.5 157q53.5 52 77.5 162q14 65 14 105q0 62 -33.5 88.5t-109.5 26.5q-93 0 -146 -50.5t-77 -169.5q-11 -57 -11 -92q0 -64 33.5 -93t108.5 -29q90 0 143.5 52z" />
    <glyph glyph-name="uni1ECF" unicode="&#x1ecf;" horiz-adv-x="589" 
d="M317 602q54 3 74.5 13.5t25.5 34.5q1 3 1 8q0 31 -61 31q-15 0 -33.5 -3t-31.5 -8l15 67q41 13 102 13q55 0 84 -20t29 -56q0 -6 -2 -20q-9 -42 -33.5 -64t-73.5 -31l-10 -46h-103zM76.5 34.5q-53.5 44.5 -53.5 129.5q-1 32 8 73q26 122 100.5 184.5t208.5 62.5
q107 0 160.5 -45t53.5 -130q0 -30 -8 -72q-26 -123 -100 -185t-211 -62q-105 0 -158.5 44.5zM359.5 135q33.5 30 49.5 102q7 31 7 57q0 41 -23 58t-77 17q-65 0 -99 -30t-49 -102q-8 -37 -8 -58q0 -40 23.5 -57t76.5 -17q66 0 99.5 30z" />
    <glyph glyph-name="uni1ED0" unicode="&#x1ed0;" horiz-adv-x="700" 
d="M664 945h102l-103 -141h-94zM419 822h103l98 -135h-104l-51 81l-84 -81h-116zM101.5 46.5q-65.5 56.5 -65.5 168.5q0 47 12 104q37 177 128.5 256t256.5 79q126 0 190.5 -53t64.5 -166q0 -49 -14 -116q-36 -168 -128 -248.5t-255 -80.5q-124 0 -189.5 56.5zM459.5 157
q53.5 52 77.5 162q14 65 14 105q0 62 -33.5 88.5t-109.5 26.5q-93 0 -146 -50.5t-77 -169.5q-11 -57 -11 -92q0 -64 33.5 -93t108.5 -29q90 0 143.5 52z" />
    <glyph glyph-name="uni1ED1" unicode="&#x1ed1;" horiz-adv-x="589" 
d="M575 779h102l-103 -141h-94zM330 656h103l98 -135h-104l-51 81l-84 -81h-116zM76.5 34.5q-53.5 44.5 -53.5 129.5q-1 32 8 73q26 122 100.5 184.5t208.5 62.5q107 0 160.5 -45t53.5 -130q0 -30 -8 -72q-26 -123 -100 -185t-211 -62q-105 0 -158.5 44.5zM359.5 135
q33.5 30 49.5 102q7 31 7 57q0 41 -23 58t-77 17q-65 0 -99 -30t-49 -102q-8 -37 -8 -58q0 -40 23.5 -57t76.5 -17q66 0 99.5 30z" />
    <glyph glyph-name="uni1ED2" unicode="&#x1ed2;" horiz-adv-x="700" 
d="M223 945h102l36 -141h-95zM414 822h103l98 -135h-104l-51 81l-84 -81h-116zM101.5 46.5q-65.5 56.5 -65.5 168.5q0 47 12 104q37 177 128.5 256t256.5 79q126 0 190.5 -53t64.5 -166q0 -49 -14 -116q-36 -168 -128 -248.5t-255 -80.5q-124 0 -189.5 56.5zM459.5 157
q53.5 52 77.5 162q14 65 14 105q0 62 -33.5 88.5t-109.5 26.5q-93 0 -146 -50.5t-77 -169.5q-11 -57 -11 -92q0 -64 33.5 -93t108.5 -29q90 0 143.5 52z" />
    <glyph glyph-name="uni1ED3" unicode="&#x1ed3;" horiz-adv-x="589" 
d="M135 779h102l36 -141h-95zM326 656h103l98 -135h-104l-51 81l-84 -81h-116zM76.5 34.5q-53.5 44.5 -53.5 129.5q-1 32 8 73q26 122 100.5 184.5t208.5 62.5q107 0 160.5 -45t53.5 -130q0 -30 -8 -72q-26 -123 -100 -185t-211 -62q-105 0 -158.5 44.5zM359.5 135
q33.5 30 49.5 102q7 31 7 57q0 41 -23 58t-77 17q-65 0 -99 -30t-49 -102q-8 -37 -8 -58q0 -40 23.5 -57t76.5 -17q66 0 99.5 30z" />
    <glyph glyph-name="uni1ED4" unicode="&#x1ed4;" horiz-adv-x="700" 
d="M582 852q44 2 61 10t20 25q3 15 -6.5 21t-32.5 6q-27 0 -56 -12l14 62q38 12 84 12t70.5 -17.5t24.5 -47.5q0 -4 -2 -16q-14 -67 -93 -79l-7 -34h-92zM413 822h103l98 -135h-104l-51 81l-84 -81h-116zM101.5 46.5q-65.5 56.5 -65.5 168.5q0 47 12 104q37 177 128.5 256
t256.5 79q126 0 190.5 -53t64.5 -166q0 -49 -14 -116q-36 -168 -128 -248.5t-255 -80.5q-124 0 -189.5 56.5zM459.5 157q53.5 52 77.5 162q14 65 14 105q0 62 -33.5 88.5t-109.5 26.5q-93 0 -146 -50.5t-77 -169.5q-11 -57 -11 -92q0 -64 33.5 -93t108.5 -29q90 0 143.5 52z
" />
    <glyph glyph-name="uni1ED5" unicode="&#x1ed5;" horiz-adv-x="589" 
d="M502 686q44 2 61 10t20 25q3 15 -6.5 21t-32.5 6q-27 0 -56 -12l14 62q38 12 84 12t70.5 -17.5t24.5 -47.5q0 -4 -2 -16q-14 -67 -93 -79l-7 -34h-92zM333 656h103l98 -135h-104l-51 81l-84 -81h-116zM76.5 34.5q-53.5 44.5 -53.5 129.5q-1 32 8 73q26 122 100.5 184.5
t208.5 62.5q107 0 160.5 -45t53.5 -130q0 -30 -8 -72q-26 -123 -100 -185t-211 -62q-105 0 -158.5 44.5zM359.5 135q33.5 30 49.5 102q7 31 7 57q0 41 -23 58t-77 17q-65 0 -99 -30t-49 -102q-8 -37 -8 -58q0 -40 23.5 -57t76.5 -17q66 0 99.5 30z" />
    <glyph glyph-name="uni1ED6" unicode="&#x1ed6;" horiz-adv-x="700" 
d="M525 870.5q-18 5.5 -44 15.5q-44 19 -69 19q-57 0 -98 -37l18 86q17 14 42.5 22.5t51.5 8.5q35 0 79 -21q26 -10 40.5 -14.5t32.5 -4.5q57 0 90 38l-17 -86q-13 -14 -36.5 -23t-50.5 -9q-21 0 -39 5.5zM342 716q-38 28 -38 86q0 17 5 42h77q-4 -16 -4 -31q0 -27 17 -40.5
t54 -13.5q83 0 102 85h83q-18 -81 -67.5 -118.5t-129.5 -37.5q-61 0 -99 28zM101.5 46.5q-65.5 56.5 -65.5 168.5q0 47 12 104q37 177 128.5 256t256.5 79q126 0 190.5 -53t64.5 -166q0 -49 -14 -116q-36 -168 -128 -248.5t-255 -80.5q-124 0 -189.5 56.5zM459.5 157
q53.5 52 77.5 162q14 65 14 105q0 62 -33.5 88.5t-109.5 26.5q-93 0 -146 -50.5t-77 -169.5q-11 -57 -11 -92q0 -64 33.5 -93t108.5 -29q90 0 143.5 52z" />
    <glyph glyph-name="uni1ED7" unicode="&#x1ed7;" horiz-adv-x="589" 
d="M433 704.5q-18 5.5 -44 15.5q-44 19 -69 19q-57 0 -98 -37l18 86q17 14 42.5 22.5t51.5 8.5q35 0 79 -21q26 -10 40.5 -14.5t32.5 -4.5q57 0 90 38l-17 -86q-13 -14 -36.5 -23t-50.5 -9q-21 0 -39 5.5zM250 550q-38 28 -38 86q0 17 5 42h77q-4 -16 -4 -31q0 -27 17 -40.5
t54 -13.5q83 0 102 85h83q-18 -81 -67.5 -118.5t-129.5 -37.5q-61 0 -99 28zM76.5 34.5q-53.5 44.5 -53.5 129.5q-1 32 8 73q26 122 100.5 184.5t208.5 62.5q107 0 160.5 -45t53.5 -130q0 -30 -8 -72q-26 -123 -100 -185t-211 -62q-105 0 -158.5 44.5zM359.5 135
q33.5 30 49.5 102q7 31 7 57q0 41 -23 58t-77 17q-65 0 -99 -30t-49 -102q-8 -37 -8 -58q0 -40 23.5 -57t76.5 -17q66 0 99.5 30z" />
    <glyph glyph-name="uni1ED8" unicode="&#x1ed8;" horiz-adv-x="700" 
d="M436 872h86l98 -174h-99l-53 100l-93 -100h-110zM101.5 46.5q-65.5 56.5 -65.5 168.5q0 47 12 104q37 177 128.5 256t256.5 79q126 0 190.5 -53t64.5 -166q0 -49 -14 -116q-36 -168 -128 -248.5t-255 -80.5q-124 0 -189.5 56.5zM459.5 157q53.5 52 77.5 162q14 65 14 105
q0 62 -33.5 88.5t-109.5 26.5q-93 0 -146 -50.5t-77 -169.5q-11 -57 -11 -92q0 -64 33.5 -93t108.5 -29q90 0 143.5 52zM224 -82h107l-21 -99h-107z" />
    <glyph glyph-name="uni1ED9" unicode="&#x1ed9;" horiz-adv-x="589" 
d="M342 696h86l98 -174h-99l-53 100l-93 -100h-110zM76.5 34.5q-53.5 44.5 -53.5 129.5q-1 32 8 73q26 122 100.5 184.5t208.5 62.5q107 0 160.5 -45t53.5 -130q0 -30 -8 -72q-26 -123 -100 -185t-211 -62q-105 0 -158.5 44.5zM359.5 135q33.5 30 49.5 102q7 31 7 57
q0 41 -23 58t-77 17q-65 0 -99 -30t-49 -102q-8 -37 -8 -58q0 -40 23.5 -57t76.5 -17q66 0 99.5 30zM168 -82h107l-21 -99h-107z" />
    <glyph glyph-name="uni1EDA" unicode="&#x1eda;" horiz-adv-x="780" 
d="M515 875h117l-128 -187h-109zM101.5 46.5q-65.5 56.5 -65.5 168.5q0 47 12 104q37 177 128.5 256t256.5 79q150 0 211 -74q51 2 77 25.5t39 82.5h97q-20 -92 -61.5 -136t-113.5 -56q5 -24 5 -62q0 -53 -13 -115q-36 -168 -128 -248.5t-255 -80.5q-124 0 -189.5 56.5z
M459.5 157q53.5 52 77.5 162q14 65 14 105q0 62 -33.5 88.5t-109.5 26.5q-93 0 -146 -50.5t-77 -169.5q-11 -57 -11 -92q0 -64 33.5 -93t108.5 -29q90 0 143.5 52z" />
    <glyph glyph-name="uni1EDB" unicode="&#x1edb;" horiz-adv-x="694" 
d="M420 709h117l-128 -187h-109zM76.5 34.5q-53.5 44.5 -53.5 129.5q-1 32 8 73q26 122 100.5 184.5t208.5 62.5q124 0 177 -61q56 1 83.5 26.5t40.5 86.5h97q-20 -95 -64 -141t-121 -58l-1 1q2 -20 2 -31q0 -30 -8 -70q-26 -123 -100 -185t-211 -62q-105 0 -158.5 44.5z
M359.5 135q33.5 30 49.5 102q7 31 7 57q0 41 -23 58t-77 17q-65 0 -99 -30t-49 -102q-8 -37 -8 -58q0 -40 23.5 -57t76.5 -17q66 0 99.5 30z" />
    <glyph glyph-name="uni1EDC" unicode="&#x1edc;" horiz-adv-x="780" 
d="M363 875h117l40 -187h-109zM101.5 46.5q-65.5 56.5 -65.5 168.5q0 47 12 104q37 177 128.5 256t256.5 79q150 0 211 -74q51 2 77 25.5t39 82.5h97q-20 -92 -61.5 -136t-113.5 -56q5 -24 5 -62q0 -53 -13 -115q-36 -168 -128 -248.5t-255 -80.5q-124 0 -189.5 56.5z
M459.5 157q53.5 52 77.5 162q14 65 14 105q0 62 -33.5 88.5t-109.5 26.5q-93 0 -146 -50.5t-77 -169.5q-11 -57 -11 -92q0 -64 33.5 -93t108.5 -29q90 0 143.5 52z" />
    <glyph glyph-name="uni1EDD" unicode="&#x1edd;" horiz-adv-x="694" 
d="M265 709h117l40 -187h-109zM76.5 34.5q-53.5 44.5 -53.5 129.5q-1 32 8 73q26 122 100.5 184.5t208.5 62.5q124 0 177 -61q56 1 83.5 26.5t40.5 86.5h97q-20 -95 -64 -141t-121 -58l-1 1q2 -20 2 -31q0 -30 -8 -70q-26 -123 -100 -185t-211 -62q-105 0 -158.5 44.5z
M359.5 135q33.5 30 49.5 102q7 31 7 57q0 41 -23 58t-77 17q-65 0 -99 -30t-49 -102q-8 -37 -8 -58q0 -40 23.5 -57t76.5 -17q66 0 99.5 30z" />
    <glyph glyph-name="uni1EDE" unicode="&#x1ede;" horiz-adv-x="780" 
d="M410 768q54 3 74.5 13.5t25.5 34.5q1 3 1 8q0 31 -61 31q-15 0 -33.5 -3t-31.5 -8l15 67q41 13 102 13q55 0 84 -20t29 -56q0 -6 -2 -20q-9 -42 -33.5 -64t-73.5 -31l-10 -46h-103zM101.5 46.5q-65.5 56.5 -65.5 168.5q0 47 12 104q37 177 128.5 256t256.5 79
q150 0 211 -74q51 2 77 25.5t39 82.5h97q-20 -92 -61.5 -136t-113.5 -56q5 -24 5 -62q0 -53 -13 -115q-36 -168 -128 -248.5t-255 -80.5q-124 0 -189.5 56.5zM459.5 157q53.5 52 77.5 162q14 65 14 105q0 62 -33.5 88.5t-109.5 26.5q-93 0 -146 -50.5t-77 -169.5
q-11 -57 -11 -92q0 -64 33.5 -93t108.5 -29q90 0 143.5 52z" />
    <glyph glyph-name="uni1EDF" unicode="&#x1edf;" horiz-adv-x="694" 
d="M313 602q54 3 74.5 13.5t25.5 34.5q1 3 1 8q0 31 -61 31q-15 0 -33.5 -3t-31.5 -8l15 67q41 13 102 13q55 0 84 -20t29 -56q0 -6 -2 -20q-9 -42 -33.5 -64t-73.5 -31l-10 -46h-103zM76.5 34.5q-53.5 44.5 -53.5 129.5q-1 32 8 73q26 122 100.5 184.5t208.5 62.5
q124 0 177 -61q56 1 83.5 26.5t40.5 86.5h97q-20 -95 -64 -141t-121 -58l-1 1q2 -20 2 -31q0 -30 -8 -70q-26 -123 -100 -185t-211 -62q-105 0 -158.5 44.5zM359.5 135q33.5 30 49.5 102q7 31 7 57q0 41 -23 58t-77 17q-65 0 -99 -30t-49 -102q-8 -37 -8 -58q0 -40 23.5 -57
t76.5 -17q66 0 99.5 30z" />
    <glyph glyph-name="uni1EE0" unicode="&#x1ee0;" horiz-adv-x="780" 
d="M501 702q-18 5 -46 16q-44 19 -69 19q-55 0 -98 -37l21 96q17 14 42 22.5t51 8.5q21 0 39.5 -5.5t40.5 -15.5q26 -10 40.5 -14.5t32.5 -4.5q56 0 91 38l-21 -96q-12 -14 -35.5 -23t-50.5 -9q-20 0 -38 5zM101.5 46.5q-65.5 56.5 -65.5 168.5q0 47 12 104
q37 177 128.5 256t256.5 79q150 0 211 -74q51 2 77 25.5t39 82.5h97q-20 -92 -61.5 -136t-113.5 -56q5 -24 5 -62q0 -53 -13 -115q-36 -168 -128 -248.5t-255 -80.5q-124 0 -189.5 56.5zM459.5 157q53.5 52 77.5 162q14 65 14 105q0 62 -33.5 88.5t-109.5 26.5
q-93 0 -146 -50.5t-77 -169.5q-11 -57 -11 -92q0 -64 33.5 -93t108.5 -29q90 0 143.5 52z" />
    <glyph glyph-name="uni1EE1" unicode="&#x1ee1;" horiz-adv-x="694" 
d="M405 536q-18 5 -46 16q-44 19 -69 19q-55 0 -98 -37l21 96q17 14 42 22.5t51 8.5q21 0 39.5 -5.5t40.5 -15.5q26 -10 40.5 -14.5t32.5 -4.5q56 0 91 38l-21 -96q-12 -14 -35.5 -23t-50.5 -9q-20 0 -38 5zM76.5 34.5q-53.5 44.5 -53.5 129.5q-1 32 8 73
q26 122 100.5 184.5t208.5 62.5q124 0 177 -61q56 1 83.5 26.5t40.5 86.5h97q-20 -95 -64 -141t-121 -58l-1 1q2 -20 2 -31q0 -30 -8 -70q-26 -123 -100 -185t-211 -62q-105 0 -158.5 44.5zM359.5 135q33.5 30 49.5 102q7 31 7 57q0 41 -23 58t-77 17q-65 0 -99 -30
t-49 -102q-8 -37 -8 -58q0 -40 23.5 -57t76.5 -17q66 0 99.5 30z" />
    <glyph glyph-name="uni1EE2" unicode="&#x1ee2;" horiz-adv-x="780" 
d="M101.5 46.5q-65.5 56.5 -65.5 168.5q0 47 12 104q37 177 128.5 256t256.5 79q150 0 211 -74q51 2 77 25.5t39 82.5h97q-20 -92 -61.5 -136t-113.5 -56q5 -24 5 -62q0 -53 -13 -115q-36 -168 -128 -248.5t-255 -80.5q-124 0 -189.5 56.5zM459.5 157q53.5 52 77.5 162
q14 65 14 105q0 62 -33.5 88.5t-109.5 26.5q-93 0 -146 -50.5t-77 -169.5q-11 -57 -11 -92q0 -64 33.5 -93t108.5 -29q90 0 143.5 52zM227 -82h107l-21 -99h-107z" />
    <glyph glyph-name="uni1EE3" unicode="&#x1ee3;" horiz-adv-x="694" 
d="M76.5 34.5q-53.5 44.5 -53.5 129.5q-1 32 8 73q26 122 100.5 184.5t208.5 62.5q124 0 177 -61q56 1 83.5 26.5t40.5 86.5h97q-20 -95 -64 -141t-121 -58l-1 1q2 -20 2 -31q0 -30 -8 -70q-26 -123 -100 -185t-211 -62q-105 0 -158.5 44.5zM359.5 135q33.5 30 49.5 102
q7 31 7 57q0 41 -23 58t-77 17q-65 0 -99 -30t-49 -102q-8 -37 -8 -58q0 -40 23.5 -57t76.5 -17q66 0 99.5 30zM176 -82h107l-21 -99h-107z" />
    <glyph glyph-name="uni1EE4" unicode="&#x1ee4;" horiz-adv-x="679" 
d="M105.5 41q-65.5 51 -65.5 143q0 21 7 58l85 402h135l-83 -392q-7 -32 -7 -59q0 -48 29.5 -68t99.5 -20q80 0 123.5 36t59.5 111l83 392h135l-85 -402q-27 -127 -111 -189.5t-230 -62.5q-110 0 -175.5 51zM213 -82h107l-21 -99h-107z" />
    <glyph glyph-name="uni1EE5" unicode="&#x1ee5;" horiz-adv-x="587" 
d="M65.5 24q-38.5 34 -38.5 98q0 25 6 55l63 297h135l-62 -294q-4 -17 -4 -34q0 -30 18 -43.5t58 -13.5q34 0 66.5 13.5t59.5 35.5l71 336h135l-100 -474h-125l4 45q-81 -55 -179 -55q-69 0 -107.5 34zM160 -82h107l-21 -99h-107z" />
    <glyph glyph-name="uni1EE6" unicode="&#x1ee6;" horiz-adv-x="679" 
d="M394 768q54 3 74.5 13.5t25.5 34.5q1 3 1 8q0 31 -61 31q-15 0 -33.5 -3t-31.5 -8l15 67q41 13 102 13q55 0 84 -20t29 -56q0 -6 -2 -20q-9 -42 -33.5 -64t-73.5 -31l-10 -46h-103zM105.5 41q-65.5 51 -65.5 143q0 21 7 58l85 402h135l-83 -392q-7 -32 -7 -59
q0 -48 29.5 -68t99.5 -20q80 0 123.5 36t59.5 111l83 392h135l-85 -402q-27 -127 -111 -189.5t-230 -62.5q-110 0 -175.5 51z" />
    <glyph glyph-name="uni1EE7" unicode="&#x1ee7;" horiz-adv-x="587" 
d="M311 602q54 3 74.5 13.5t25.5 34.5q1 3 1 8q0 31 -61 31q-15 0 -33.5 -3t-31.5 -8l15 67q41 13 102 13q55 0 84 -20t29 -56q0 -6 -2 -20q-9 -42 -33.5 -64t-73.5 -31l-10 -46h-103zM65.5 24q-38.5 34 -38.5 98q0 25 6 55l63 297h135l-62 -294q-4 -17 -4 -34
q0 -30 18 -43.5t58 -13.5q34 0 66.5 13.5t59.5 35.5l71 336h135l-100 -474h-125l4 45q-81 -55 -179 -55q-69 0 -107.5 34z" />
    <glyph glyph-name="uni1EE8" unicode="&#x1ee8;" horiz-adv-x="838" 
d="M502 875h117l-128 -187h-109zM105.5 41q-65.5 51 -65.5 143q0 21 7 58l85 402h135l-83 -392q-7 -32 -7 -59q0 -48 29.5 -68t99.5 -20q80 0 123.5 36t59.5 111l83 392h135l-14 -64q57 1 82 24t38 84h97q-16 -74 -45.5 -117t-75 -61.5t-115.5 -19.5l-52 -248
q-27 -127 -111 -189.5t-230 -62.5q-110 0 -175.5 51z" />
    <glyph glyph-name="uni1EE9" unicode="&#x1ee9;" horiz-adv-x="726" 
d="M414 709h117l-128 -187h-109zM65.5 24q-38.5 34 -38.5 98q0 25 6 55l63 297h135l-62 -294q-4 -17 -4 -34q0 -30 18 -43.5t58 -13.5q34 0 66.5 13.5t59.5 35.5l71 336h135l-11 -50q47 4 70.5 29.5t35.5 82.5h97q-22 -106 -73.5 -151.5t-148.5 -50.5l-70 -334h-125l4 45
q-81 -55 -179 -55q-69 0 -107.5 34z" />
    <glyph glyph-name="uni1EEA" unicode="&#x1eea;" horiz-adv-x="838" 
d="M337 875h117l40 -187h-109zM105.5 41q-65.5 51 -65.5 143q0 21 7 58l85 402h135l-83 -392q-7 -32 -7 -59q0 -48 29.5 -68t99.5 -20q80 0 123.5 36t59.5 111l83 392h135l-14 -64q57 1 82 24t38 84h97q-16 -74 -45.5 -117t-75 -61.5t-115.5 -19.5l-52 -248
q-27 -127 -111 -189.5t-230 -62.5q-110 0 -175.5 51z" />
    <glyph glyph-name="uni1EEB" unicode="&#x1eeb;" horiz-adv-x="726" 
d="M254 709h117l40 -187h-109zM65.5 24q-38.5 34 -38.5 98q0 25 6 55l63 297h135l-62 -294q-4 -17 -4 -34q0 -30 18 -43.5t58 -13.5q34 0 66.5 13.5t59.5 35.5l71 336h135l-11 -50q47 4 70.5 29.5t35.5 82.5h97q-22 -106 -73.5 -151.5t-148.5 -50.5l-70 -334h-125l4 45
q-81 -55 -179 -55q-69 0 -107.5 34z" />
    <glyph glyph-name="uni1EEC" unicode="&#x1eec;" horiz-adv-x="838" 
d="M400 768q54 3 74.5 13.5t25.5 34.5q1 3 1 8q0 31 -61 31q-15 0 -33.5 -3t-31.5 -8l15 67q41 13 102 13q55 0 84 -20t29 -56q0 -6 -2 -20q-9 -42 -33.5 -64t-73.5 -31l-10 -46h-103zM105.5 41q-65.5 51 -65.5 143q0 21 7 58l85 402h135l-83 -392q-7 -32 -7 -59
q0 -48 29.5 -68t99.5 -20q80 0 123.5 36t59.5 111l83 392h135l-14 -64q57 1 82 24t38 84h97q-16 -74 -45.5 -117t-75 -61.5t-115.5 -19.5l-52 -248q-27 -127 -111 -189.5t-230 -62.5q-110 0 -175.5 51z" />
    <glyph glyph-name="uni1EED" unicode="&#x1eed;" horiz-adv-x="726" 
d="M316 602q54 3 74.5 13.5t25.5 34.5q1 3 1 8q0 31 -61 31q-15 0 -33.5 -3t-31.5 -8l15 67q41 13 102 13q55 0 84 -20t29 -56q0 -6 -2 -20q-9 -42 -33.5 -64t-73.5 -31l-10 -46h-103zM65.5 24q-38.5 34 -38.5 98q0 25 6 55l63 297h135l-62 -294q-4 -17 -4 -34
q0 -30 18 -43.5t58 -13.5q34 0 66.5 13.5t59.5 35.5l71 336h135l-11 -50q47 4 70.5 29.5t35.5 82.5h97q-22 -106 -73.5 -151.5t-148.5 -50.5l-70 -334h-125l4 45q-81 -55 -179 -55q-69 0 -107.5 34z" />
    <glyph glyph-name="uni1EEE" unicode="&#x1eee;" horiz-adv-x="838" 
d="M480 702q-18 5 -46 16q-44 19 -69 19q-55 0 -98 -37l21 96q17 14 42 22.5t51 8.5q21 0 39.5 -5.5t40.5 -15.5q26 -10 40.5 -14.5t32.5 -4.5q56 0 91 38l-21 -96q-12 -14 -35.5 -23t-50.5 -9q-20 0 -38 5zM105.5 41q-65.5 51 -65.5 143q0 21 7 58l85 402h135l-83 -392
q-7 -32 -7 -59q0 -48 29.5 -68t99.5 -20q80 0 123.5 36t59.5 111l83 392h135l-14 -64q57 1 82 24t38 84h97q-16 -74 -45.5 -117t-75 -61.5t-115.5 -19.5l-52 -248q-27 -127 -111 -189.5t-230 -62.5q-110 0 -175.5 51z" />
    <glyph glyph-name="uni1EEF" unicode="&#x1eef;" horiz-adv-x="726" 
d="M402 536q-18 5 -46 16q-44 19 -69 19q-55 0 -98 -37l21 96q17 14 42 22.5t51 8.5q21 0 39.5 -5.5t40.5 -15.5q26 -10 40.5 -14.5t32.5 -4.5q56 0 91 38l-21 -96q-12 -14 -35.5 -23t-50.5 -9q-20 0 -38 5zM65.5 24q-38.5 34 -38.5 98q0 25 6 55l63 297h135l-62 -294
q-4 -17 -4 -34q0 -30 18 -43.5t58 -13.5q34 0 66.5 13.5t59.5 35.5l71 336h135l-11 -50q47 4 70.5 29.5t35.5 82.5h97q-22 -106 -73.5 -151.5t-148.5 -50.5l-70 -334h-125l4 45q-81 -55 -179 -55q-69 0 -107.5 34z" />
    <glyph glyph-name="uni1EF0" unicode="&#x1ef0;" horiz-adv-x="838" 
d="M105.5 41q-65.5 51 -65.5 143q0 21 7 58l85 402h135l-83 -392q-7 -32 -7 -59q0 -48 29.5 -68t99.5 -20q80 0 123.5 36t59.5 111l83 392h135l-14 -64q57 1 82 24t38 84h97q-16 -74 -45.5 -117t-75 -61.5t-115.5 -19.5l-52 -248q-27 -127 -111 -189.5t-230 -62.5
q-110 0 -175.5 51zM212 -82h107l-21 -99h-107z" />
    <glyph glyph-name="uni1EF1" unicode="&#x1ef1;" horiz-adv-x="726" 
d="M65.5 24q-38.5 34 -38.5 98q0 25 6 55l63 297h135l-62 -294q-4 -17 -4 -34q0 -30 18 -43.5t58 -13.5q34 0 66.5 13.5t59.5 35.5l71 336h135l-11 -50q47 4 70.5 29.5t35.5 82.5h97q-22 -106 -73.5 -151.5t-148.5 -50.5l-70 -334h-125l4 45q-81 -55 -179 -55
q-69 0 -107.5 34zM164 -82h107l-21 -99h-107z" />
    <glyph glyph-name="Ygrave" unicode="&#x1ef2;" horiz-adv-x="671" 
d="M333 875h117l40 -187h-109zM262 238l-145 406h137l97 -291l219 291h144l-317 -406l-50 -238h-135z" />
    <glyph glyph-name="ygrave" unicode="&#x1ef3;" horiz-adv-x="600" 
d="M272 709h117l40 -187h-109zM84.5 -172.5q-40.5 3.5 -59.5 7.5l22 103q19 -6 50 -9.5t54 -3.5q174 0 194 90l6 30q-81 -55 -178 -55q-65 0 -105 38.5t-40 103.5q0 18 5 45l63 297h135l-62 -294q-5 -25 -5 -39q0 -27 17.5 -39.5t59.5 -12.5q34 0 66.5 13.5t59.5 35.5
l71 336h135l-93 -441q-21 -100 -98 -154.5t-231 -54.5q-26 0 -66.5 3.5z" />
    <glyph glyph-name="uni1EF4" unicode="&#x1ef4;" horiz-adv-x="671" 
d="M262 238l-145 406h137l97 -291l219 291h144l-317 -406l-50 -238h-135zM211 -72h107l-21 -99h-107z" />
    <glyph glyph-name="uni1EF5" unicode="&#x1ef5;" horiz-adv-x="600" 
d="M84.5 -172.5q-40.5 3.5 -59.5 7.5l22 103q19 -6 50 -9.5t54 -3.5q174 0 194 90l6 30q-81 -55 -178 -55q-65 0 -105 38.5t-40 103.5q0 18 5 45l63 297h135l-62 -294q-5 -25 -5 -39q0 -27 17.5 -39.5t59.5 -12.5q34 0 66.5 13.5t59.5 35.5l71 336h135l-93 -441
q-21 -100 -98 -154.5t-231 -54.5q-26 0 -66.5 3.5zM459 -72h107l-21 -99h-107z" />
    <glyph glyph-name="uni1EF6" unicode="&#x1ef6;" horiz-adv-x="671" 
d="M386 768q54 3 74.5 13.5t25.5 34.5q1 3 1 8q0 31 -61 31q-15 0 -33.5 -3t-31.5 -8l15 67q41 13 102 13q55 0 84 -20t29 -56q0 -6 -2 -20q-9 -42 -33.5 -64t-73.5 -31l-10 -46h-103zM262 238l-145 406h137l97 -291l219 291h144l-317 -406l-50 -238h-135z" />
    <glyph glyph-name="uni1EF7" unicode="&#x1ef7;" horiz-adv-x="600" 
d="M339 602q54 3 74.5 13.5t25.5 34.5q1 3 1 8q0 31 -61 31q-15 0 -33.5 -3t-31.5 -8l15 67q41 13 102 13q55 0 84 -20t29 -56q0 -6 -2 -20q-9 -42 -33.5 -64t-73.5 -31l-10 -46h-103zM84.5 -172.5q-40.5 3.5 -59.5 7.5l22 103q19 -6 50 -9.5t54 -3.5q174 0 194 90l6 30
q-81 -55 -178 -55q-65 0 -105 38.5t-40 103.5q0 18 5 45l63 297h135l-62 -294q-5 -25 -5 -39q0 -27 17.5 -39.5t59.5 -12.5q34 0 66.5 13.5t59.5 35.5l71 336h135l-93 -441q-21 -100 -98 -154.5t-231 -54.5q-26 0 -66.5 3.5z" />
    <glyph glyph-name="uni1EF8" unicode="&#x1ef8;" horiz-adv-x="671" 
d="M476 705q-18 5 -46 16q-44 19 -69 19q-55 0 -98 -37l21 96q17 14 42 22.5t51 8.5q21 0 39.5 -5.5t40.5 -15.5q26 -10 40.5 -14.5t32.5 -4.5q56 0 91 38l-21 -96q-12 -14 -35.5 -23t-50.5 -9q-20 0 -38 5zM262 238l-145 406h137l97 -291l219 291h144l-317 -406l-50 -238
h-135z" />
    <glyph glyph-name="uni1EF9" unicode="&#x1ef9;" horiz-adv-x="600" 
d="M421 539q-18 5 -46 16q-44 19 -69 19q-55 0 -98 -37l21 96q17 14 42 22.5t51 8.5q21 0 39.5 -5.5t40.5 -15.5q26 -10 40.5 -14.5t32.5 -4.5q56 0 91 38l-21 -96q-12 -14 -35.5 -23t-50.5 -9q-20 0 -38 5zM84.5 -172.5q-40.5 3.5 -59.5 7.5l22 103q19 -6 50 -9.5t54 -3.5
q174 0 194 90l6 30q-81 -55 -178 -55q-65 0 -105 38.5t-40 103.5q0 18 5 45l63 297h135l-62 -294q-5 -25 -5 -39q0 -27 17.5 -39.5t59.5 -12.5q34 0 66.5 13.5t59.5 35.5l71 336h135l-93 -441q-21 -100 -98 -154.5t-231 -54.5q-26 0 -66.5 3.5z" />
    <glyph glyph-name="uni2007" unicode="&#x2007;" 
 />
    <glyph glyph-name="uni2010" unicode="&#x2010;" horiz-adv-x="497" 
d="M49 324h422l-22 -105h-422z" />
    <glyph glyph-name="figuredash" unicode="&#x2012;" horiz-adv-x="593" 
d="M49 324h519l-22 -105h-519z" />
    <glyph glyph-name="endash" unicode="&#x2013;" horiz-adv-x="566" 
d="M49 324h492l-22 -105h-492z" />
    <glyph glyph-name="emdash" unicode="&#x2014;" horiz-adv-x="839" 
d="M49 324h765l-22 -105h-765z" />
    <glyph glyph-name="uni2015" unicode="&#x2015;" horiz-adv-x="883" 
d="M49 324h809l-22 -105h-809z" />
    <glyph glyph-name="quoteleft" unicode="&#x2018;" horiz-adv-x="246" 
d="M190 654h102l-100 -206h-116z" />
    <glyph glyph-name="quoteright" unicode="&#x2019;" horiz-adv-x="246" 
d="M176 654h116l-114 -206h-102z" />
    <glyph glyph-name="quotesinglbase" unicode="&#x201a;" horiz-adv-x="246" 
d="M44 33h116l-114 -206h-102z" />
    <glyph glyph-name="quotedblleft" unicode="&#x201c;" horiz-adv-x="393" 
d="M190 654h92l-100 -206h-106zM347 654h91l-99 -206h-106z" />
    </font>
</defs>
</svg>
