<?xml version="1.0" standalone="no"?>
<!DOCTYPE svg PUBLIC "-//W3C//DTD SVG 1.1//EN" "http://www.w3.org/Graphics/SVG/1.1/DTD/svg11.dtd" >
<svg xmlns="http://www.w3.org/2000/svg" xmlns:xlink="http://www.w3.org/1999/xlink" version="1.1">
<metadata>
Created by FontForge 20170731 at Fri May  5 14:18:45 2017
 By Aleksey,,,
Copyright (c) 2015, Cadson Demak (info@cadsondemak.com)
</metadata>
<defs>
<font id="Kanit-ExtraLightItalic" horiz-adv-x="0" >
  <font-face 
    font-family="Kanit ExtraLight"
    font-weight="275"
    font-style="italic"
    font-stretch="normal"
    units-per-em="1000"
    panose-1="0 0 3 0 0 0 0 0 0 0"
    ascent="750"
    descent="-250"
    x-height="474"
    cap-height="644"
    bbox="-459 -337 1143 1009"
    underline-thickness="50"
    underline-position="-150"
    slope="-12"
    unicode-range="U+000D-FB02"
  />
<missing-glyph horiz-adv-x="509" 
d="M9 714h411v-714h-411v714zM369 51v612h-309v-612h309z" />
    <glyph glyph-name="fi" unicode="fi" horiz-adv-x="494" 
d="M158 428h-73l10 46h73l15 69q15 71 67 111.5t129 40.5q67 0 99 -16l-10 -44q-12 7 -35.5 10.5t-49.5 3.5q-67 0 -100 -25t-45 -80l-15 -70h256l-100 -474h-55l90 428h-201l-90 -428h-55z" />
    <glyph glyph-name="fl" unicode="fl" horiz-adv-x="494" 
d="M158 428h-73l10 46h73l15 69q15 72 65.5 112t130.5 40q60 0 101 -16h43l-144 -679h-55l90 428h-201l-90 -428h-55zM424 474l34 161q-30 14 -75 14q-65 0 -99.5 -25.5t-45.5 -79.5l-15 -70h201z" />
    <glyph glyph-name="ru_lakkhangyaothai" unicode="&#xe24;&#xe45;" horiz-adv-x="851" 
d="M514 356q6 30 6 52q0 51 -34.5 72.5t-112.5 21.5q-61 0 -118.5 -18.5t-91.5 -48.5l-6 -28l114 -26l-10 -48q-84 -19 -99 -93l-30 -139q-3 -15 -3 -26q0 -16 9.5 -22.5t33.5 -6.5h59l-9 -46h-80q-34 0 -52 17t-18 48q0 13 3 26l32 152q8 40 35.5 68.5t70.5 40.5l-112 26
l17 80q48 39 117 65.5t149 26.5q82 0 129 -26q33 12 73.5 19t79.5 7q80 0 117.5 -28.5t37.5 -91.5q0 -33 -8 -68l-111 -522h-55l110 517q8 38 8 64q0 42 -26.5 61.5t-92.5 19.5q-44 0 -94 -11q23 -32 23 -81q0 -27 -6 -57l-110 -513h-55z" />
    <glyph glyph-name="lu_lakkhangyaothai" unicode="&#xe26;&#xe45;" horiz-adv-x="887" 
d="M550 356q6 30 6 52q0 51 -34.5 72.5t-112.5 21.5q-61 0 -118.5 -18.5t-91.5 -48.5l-6 -28l117 -26l-10 -48q-39 -10 -57.5 -30.5t-27.5 -62.5l-31 -142q-10 -47 -38 -72.5t-71 -25.5h-57l9 46h43q25 0 39.5 13t20.5 41l30 143q9 42 30.5 69.5t61.5 39.5l-115 26l17 80
q48 39 117 65.5t149 26.5q82 0 129 -26q33 12 73.5 19t79.5 7q80 0 117.5 -28.5t37.5 -91.5q0 -33 -8 -68l-111 -522h-55l110 517q9 41 9 68q0 41 -26.5 59t-93.5 18q-44 0 -94 -11q23 -32 23 -81q0 -27 -6 -57l-110 -513h-55z" />
    <glyph glyph-name=".notdef" horiz-adv-x="509" 
d="M9 714h411v-714h-411v714zM369 51v612h-309v-612h309z" />
    <glyph glyph-name=".null" horiz-adv-x="500" 
 />
    <glyph glyph-name="nonmarkingreturn" unicode="&#xd;" horiz-adv-x="400" 
 />
    <glyph glyph-name="space" unicode=" " horiz-adv-x="390" 
 />
    <glyph glyph-name="exclam" unicode="!" horiz-adv-x="171" 
d="M122 491l32 153h55l-32 -153l-78 -345h-44zM25 48h61l-10 -48h-61z" />
    <glyph glyph-name="quotedbl" unicode="&#x22;" horiz-adv-x="297" 
d="M151 644h53l-47 -165h-41zM285 644h53l-47 -165h-41z" />
    <glyph glyph-name="numbersign" unicode="#" horiz-adv-x="694" 
d="M151 187h-97l9 41h109l98 186h-120l9 42h133l99 188h50l-99 -188h207l99 188h51l-99 -188h95l-9 -42h-108l-98 -186h119l-9 -41h-132l-98 -187h-50l98 187h-208l-98 -187h-49zM429 228l98 186h-207l-98 -186h207z" />
    <glyph glyph-name="dollar" unicode="$" horiz-adv-x="553" 
d="M210 -10q-113 1 -176 28l11 49q74 -30 175 -30l58 270l-2 1q-84 21 -123.5 53.5t-39.5 83.5q0 19 4 36q16 75 73.5 120t160.5 52l17 77h46l-16 -76q46 -1 88 -8.5t66 -15.5l-10 -49q-67 25 -155 25l-55 -260q87 -23 125.5 -58t38.5 -87q0 -20 -4 -37q-17 -80 -74.5 -123
t-161.5 -49l-16 -78h-46zM341 604q-74 -7 -116.5 -36.5t-53.5 -86.5q-4 -15 -4 -31q0 -33 27 -53.5t94 -39.5zM383 74.5q42 30.5 55 89.5q3 17 3 29q0 38 -28 60.5t-92 41.5l-55 -257q75 6 117 36.5z" />
    <glyph glyph-name="percent" unicode="%" horiz-adv-x="695" 
d="M145.5 396.5q-27.5 26.5 -27.5 72.5q0 20 4 37q31 148 166 148q51 0 78.5 -27.5t27.5 -76.5q0 -17 -5 -44q-14 -64 -53.5 -100t-108.5 -36q-54 0 -81.5 26.5zM588 644h52l-480 -644h-52zM309 435q28 25 38 71q5 21 5 44q0 33 -17.5 48t-55.5 15q-46 0 -74.5 -26
t-40.5 -81q-4 -17 -4 -35q0 -30 17.5 -45.5t58.5 -15.5q45 0 73 25zM381.5 16.5q-27.5 26.5 -27.5 72.5q0 20 4 37q31 148 166 148q51 0 78.5 -27.5t27.5 -76.5q0 -17 -5 -44q-14 -64 -53.5 -100t-108.5 -36q-54 0 -81.5 26.5zM545 55q28 25 38 71q5 21 5 44q0 33 -17.5 48
t-55.5 15q-46 0 -74.5 -26t-40.5 -81q-4 -17 -4 -35q0 -30 17.5 -45.5t58.5 -15.5q45 0 73 25z" />
    <glyph glyph-name="ampersand" unicode="&#x26;" horiz-adv-x="652" 
d="M90 23.5q-48 33.5 -48 91.5q0 10 4 32q13 65 64.5 113t142.5 94q-35 40 -52 69t-17 63q0 14 3 30q13 60 59.5 99t119.5 39q56 0 87.5 -27.5t31.5 -75.5q0 -19 -4 -35q-11 -52 -48 -90t-108 -80l149 -194q28 42 40 99l4 20h46l-4 -19q-16 -77 -60 -132l72 -93l-39 -30
l-67 85q-44 -46 -106 -69t-138 -23q-84 0 -132 33.5zM393.5 440q29.5 28 39.5 74q4 24 4 33q0 63 -81 63q-49 0 -81 -27t-41 -69q-3 -12 -3 -22q0 -20 8 -37.5t24 -37.5t34 -42q67 37 96.5 65zM439 114l-159 206q-84 -40 -126.5 -77.5t-54.5 -94.5q-3 -13 -3 -26
q0 -44 35.5 -67t99.5 -23q131 0 208 82z" />
    <glyph glyph-name="quotesingle" unicode="'" horiz-adv-x="163" 
d="M151 644h53l-47 -165h-41z" />
    <glyph glyph-name="parenleft" unicode="(" horiz-adv-x="292" 
d="M63 155q0 73 16 148q23 110 77.5 212t141.5 163h63q-175 -123 -228 -375q-17 -79 -17 -143q0 -146 85 -232h-63q-75 74 -75 227z" />
    <glyph glyph-name="parenright" unicode=")" horiz-adv-x="292" 
d="M124.5 86q55.5 94 81.5 217q16 74 16 143q0 146 -83 232h63q75 -75 75 -227q0 -74 -16 -148q-23 -111 -77.5 -213t-141.5 -162h-63q90 64 145.5 158z" />
    <glyph glyph-name="asterisk" unicode="*" horiz-adv-x="421" 
d="M123 375l118 110l-113 50l26 37l106 -55l23 127h47l-31 -127l129 55l11 -39l-137 -51l74 -109l-39 -27l-66 117l-116 -117z" />
    <glyph glyph-name="plus" unicode="+" horiz-adv-x="482" 
d="M226 235h-162l10 45h162l34 162h47l-34 -162h163l-10 -45h-163l-33 -156h-47z" />
    <glyph glyph-name="comma" unicode="," horiz-adv-x="189" 
d="M50 45h53l-73 -165h-41z" />
    <glyph glyph-name="hyphen" unicode="-" horiz-adv-x="482" 
d="M74 280h372l-10 -45h-372z" />
    <glyph glyph-name="period" unicode="." horiz-adv-x="163" 
d="M25 51h53l-10 -51h-53z" />
    <glyph glyph-name="slash" unicode="/" horiz-adv-x="399" 
d="M389 662h55l-374 -662h-55z" />
    <glyph glyph-name="zero" unicode="0" horiz-adv-x="639" 
d="M120.5 46q-52.5 56 -52.5 157q0 50 12 107q36 170 116 257t223 87q107 0 157 -52t50 -153q0 -60 -17 -139q-32 -152 -114.5 -236t-217.5 -84q-104 0 -156.5 56zM462 110.5q67 73.5 93 199.5q18 87 18 138q0 79 -38.5 118.5t-126.5 39.5q-111 0 -176.5 -74.5t-97.5 -221.5
q-12 -57 -12 -105q0 -81 39 -124.5t126 -43.5q108 0 175 73.5z" />
    <glyph glyph-name="one" unicode="1" horiz-adv-x="286" 
d="M243 600l-105 -17l10 46l162 25l-139 -654h-55z" />
    <glyph glyph-name="two" unicode="2" horiz-adv-x="499" 
d="M22 34q34 59 90.5 110t137.5 110q70 51 107 83.5t57.5 64.5t28.5 73q5 25 5 42q0 43 -30.5 66t-101.5 23q-78 0 -153 -27l10 50q33 11 77 18t81 7q82 0 126.5 -35t44.5 -99q0 -18 -5 -45q-10 -48 -35 -85.5t-60.5 -69t-96.5 -77.5l-29 -22q-70 -51 -114 -90t-74 -87h325
l-9 -44h-389z" />
    <glyph glyph-name="three" unicode="3" horiz-adv-x="506" 
d="M87 -3q-44 7 -69 18l10 49q68 -27 152 -27q94 0 146 33t67 104q4 16 4 35q0 48 -36 72t-104 24h-88l15 43h74q78 0 125 35.5t61 100.5q5 23 5 37q0 43 -34 64t-110 21q-77 0 -155 -27l10 49q29 11 74.5 18.5t86.5 7.5q91 0 136.5 -34.5t45.5 -94.5q0 -18 -5 -41
q-11 -55 -49.5 -99.5t-99.5 -58.5q51 -12 76.5 -43t25.5 -74q0 -19 -4 -35q-19 -91 -90 -137.5t-182 -46.5q-44 0 -88 7z" />
    <glyph glyph-name="four" unicode="4" horiz-adv-x="536" 
d="M368 155h-341l10 47l439 442h51l-94 -443h70l-10 -46h-70l-32 -155h-55zM383 200l80 376l-373 -376h293z" />
    <glyph glyph-name="five" unicode="5" horiz-adv-x="506" 
d="M88.5 -3.5q-43.5 6.5 -67.5 18.5l10 50q67 -28 153 -28q85 0 141 38.5t72 113.5q6 30 6 53q0 47 -31 69t-105 22h-182l10 47l73 264h331l-15 -45h-280l-61 -221h133q91 0 136 -33t45 -101q0 -25 -6 -55q-20 -96 -90 -147.5t-183 -51.5q-46 0 -89.5 6.5z" />
    <glyph glyph-name="six" unicode="6" horiz-adv-x="561" 
d="M54 149q0 38 10 82l33 159q26 127 105 195.5t199 68.5q82 0 139 -20l-10 -48q-52 20 -138 20q-97 0 -158.5 -56t-81.5 -151l-12 -58q47 30 100 45.5t96 15.5q89 0 133.5 -36t44.5 -106q0 -31 -7 -63q-20 -97 -88 -152t-181 -55q-184 0 -184 159zM386 78q53 43 69 118
q7 29 7 59q0 51 -32 77t-108 26q-48 0 -98.5 -17t-92.5 -44l-19 -87q-7 -31 -7 -61q0 -58 34.5 -86t107.5 -28q86 0 139 43z" />
    <glyph glyph-name="seven" unicode="7" horiz-adv-x="495" 
d="M482 599h-350l9 45h405l-9 -45l-380 -599h-55z" />
    <glyph glyph-name="eight" unicode="8" horiz-adv-x="575" 
d="M96 23.5q-51 33.5 -51 99.5q0 18 5 43q13 62 57 106.5t111 60.5q-45 12 -66.5 41t-21.5 69q0 19 4 35q18 83 81 129.5t171 46.5q90 0 135.5 -34.5t45.5 -97.5q0 -19 -5 -44q-24 -116 -154 -156q57 -13 84 -42t27 -74q0 -21 -4 -40q-38 -176 -271 -176q-97 0 -148 33.5z
M461.5 388q38.5 31 50.5 90q4 17 4 37q0 47 -34 70.5t-106 23.5q-79 0 -128 -33.5t-63 -97.5q-3 -16 -3 -30q0 -73 88 -92l78 -16q75 17 113.5 48zM464 166q5 23 5 37q0 38 -25.5 58t-85.5 32l-87 19q-71 -14 -114 -48t-57 -97q-4 -17 -4 -37q0 -48 38 -71.5t120 -23.5
q182 0 210 131z" />
    <glyph glyph-name="nine" unicode="9" horiz-adv-x="561" 
d="M76 9l11 49q51 -21 139 -21q97 0 157.5 56.5t80.5 150.5l12 56q-47 -31 -97.5 -46t-97.5 -15q-87 0 -133 37.5t-46 109.5q0 21 7 58q20 98 88.5 154t183.5 56q90 0 136 -38t46 -119q0 -39 -10 -85l-34 -158q-26 -124 -103 -194t-198 -70q-88 0 -142 19zM486 344l19 90
q8 38 8 65q0 56 -33.5 83t-107.5 27q-87 0 -142 -44t-71 -120q-7 -35 -7 -56q0 -52 33.5 -79t110.5 -27q97 0 190 61z" />
    <glyph glyph-name="colon" unicode=":" horiz-adv-x="164" 
d="M96 384h54l-11 -52h-54zM32 82h54l-11 -52h-54z" />
    <glyph glyph-name="semicolon" unicode=";" horiz-adv-x="190" 
d="M123 384h53l-11 -52h-53zM56 71h53l-73 -165h-41z" />
    <glyph glyph-name="less" unicode="&#x3c;" horiz-adv-x="546" 
d="M72 269l9 45l480 204l-12 -55l-415 -173l342 -174l-12 -51z" />
    <glyph glyph-name="equal" unicode="=" horiz-adv-x="488" 
d="M88 348h378l-8 -42h-378zM59 209h378l-9 -42h-378z" />
    <glyph glyph-name="greater" unicode="&#x3e;" horiz-adv-x="546" 
d="M40 120l417 174l-344 173l12 51l392 -204l-9 -45l-480 -204z" />
    <glyph glyph-name="question" unicode="?" horiz-adv-x="488" 
d="M172 172q11 53 43 86t89 72l17 12q55 38 82.5 66t36.5 70q5 25 5 41q0 44 -32.5 65.5t-107.5 21.5q-89 0 -169 -35l10 48q34 16 81 25.5t99 9.5q85 0 129 -33.5t44 -95.5q0 -26 -5 -46q-8 -36 -26.5 -64t-43.5 -48.5t-67 -50.5q-14 -10 -21 -14q-38 -27 -57 -42.5
t-32.5 -37t-20.5 -53.5l-4 -21h-55zM143 48h61l-10 -48h-61z" />
    <glyph glyph-name="at" unicode="@" horiz-adv-x="768" 
d="M118 -79q-75 53 -75 172q0 40 11 95q72 337 421 337q129 0 194 -50.5t65 -146.5q0 -38 -8 -74q-21 -101 -72.5 -156t-140.5 -55h-18q-72 -63 -180 -63q-56 0 -90 23.5t-34 68.5q0 14 3 27q12 59 55.5 94t124.5 35h142l7 33q7 33 7 49q0 32 -22.5 44t-82.5 12
q-67 0 -130 -21l8 40q57 22 142 22q65 0 97 -23.5t32 -73.5q0 -21 -6 -48l-37 -176q59 0 93.5 40t53.5 128q9 41 9 74q0 77 -52.5 114t-169.5 37q-148 0 -239 -69.5t-124 -222.5q-11 -53 -11 -91q0 -100 61.5 -141.5t176.5 -41.5q110 0 177 19l-10 -46q-79 -18 -175 -18
q-128 0 -203 53zM415.5 34q37.5 15 69.5 47l22 107h-137q-60 0 -90.5 -22t-39.5 -67q-3 -13 -3 -25q0 -29 23 -42t71 -13q47 0 84.5 15z" />
    <glyph glyph-name="A" unicode="A" horiz-adv-x="667" 
d="M395 644h70l107 -644h-53l-32 188h-302l-110 -188h-60zM484 233l-61 367l-216 -367h277z" />
    <glyph glyph-name="B" unicode="B" horiz-adv-x="619" 
d="M171 644h283q75 0 112.5 -31t37.5 -90q0 -19 -5 -47q-12 -53 -42 -90t-73 -55q83 -19 83 -103q0 -25 -5 -46q-20 -94 -75.5 -138t-149.5 -44h-302zM398 354q122 0 148 119q6 27 6 50q0 39 -26.5 58t-92.5 19h-216l-52 -246h233zM341 43q72 0 112 32.5t56 108.5q5 25 5 41
q0 43 -30.5 64.5t-100.5 21.5h-227l-57 -268h242z" />
    <glyph glyph-name="C" unicode="C" horiz-adv-x="589" 
d="M127.5 47q-59.5 57 -59.5 159q0 43 11 98q36 167 124 258.5t246 91.5q101 0 177 -29l-10 -49q-74 30 -173 30q-133 0 -206 -77.5t-104 -224.5q-12 -52 -12 -96q0 -84 48.5 -127.5t155.5 -43.5q46 0 94 7t88 20l-10 -49q-86 -25 -189 -25q-121 0 -180.5 57z" />
    <glyph glyph-name="D" unicode="D" horiz-adv-x="632" 
d="M171 644h240q108 0 159 -45.5t51 -144.5q0 -57 -17 -137q-25 -114 -62 -182.5t-100.5 -101.5t-164.5 -33h-242zM274 44q79 0 130 22.5t86.5 82t58.5 168.5q19 90 19 142q0 78 -41 109t-135 31h-175l-118 -555h175z" />
    <glyph glyph-name="E" unicode="E" horiz-adv-x="541" 
d="M171 644h421l-9 -45h-366l-54 -255h331l-10 -44h-331l-54 -256h366l-9 -44h-421z" />
    <glyph glyph-name="F" unicode="F" horiz-adv-x="516" 
d="M171 644h406l-9 -45h-351l-54 -255h314l-10 -44h-314l-63 -300h-55z" />
    <glyph glyph-name="G" unicode="G" horiz-adv-x="633" 
d="M128.5 48q-60.5 58 -60.5 162q0 42 11 94q36 166 126 258t244 92q102 0 178 -27l-11 -49q-77 28 -172 28q-132 0 -206 -78t-105 -224q-12 -55 -12 -100q0 -83 47.5 -125t155.5 -42q46 0 94 8t84 22l48 229h-183l10 44h233l-64 -301q-36 -21 -95.5 -35t-142.5 -14
q-119 0 -179.5 58z" />
    <glyph glyph-name="H" unicode="H" horiz-adv-x="630" 
d="M171 644h55l-63 -300h370l63 300h55l-136 -644h-55l63 300h-370l-63 -300h-55z" />
    <glyph glyph-name="I" unicode="I" horiz-adv-x="205" 
d="M171 644h55l-136 -644h-55z" />
    <glyph glyph-name="J" unicode="J" horiz-adv-x="419" 
d="M-3 13l10 48q22 -11 53.5 -17.5t64.5 -6.5q70 0 110 31.5t54 99.5l101 476h55l-101 -479q-18 -87 -71.5 -131t-150.5 -44q-72 0 -125 23z" />
    <glyph glyph-name="K" unicode="K" horiz-adv-x="585" 
d="M171 644h55l-72 -342l399 342h67l-299 -256l169 -388h-60l-151 352l-140 -121l-49 -231h-55z" />
    <glyph glyph-name="L" unicode="L" horiz-adv-x="521" 
d="M171 644h55l-127 -600h356l-9 -44h-411z" />
    <glyph glyph-name="M" unicode="M" horiz-adv-x="744" 
d="M171 644h61l132 -477l334 477h67l-136 -644h-54l119 564l-317 -452h-43l-126 452l-119 -564h-54z" />
    <glyph glyph-name="N" unicode="N" horiz-adv-x="656" 
d="M171 644h52l280 -562l119 562h55l-136 -644h-53l-279 561l-119 -561h-55z" />
    <glyph glyph-name="O" unicode="O" horiz-adv-x="688" 
d="M69 207q0 53 13 112q37 173 123.5 254t237.5 81q117 0 174.5 -51.5t57.5 -158.5q0 -54 -15 -125q-35 -165 -121.5 -247t-237.5 -82q-232 0 -232 217zM502 105.5q72 68.5 103 213.5q16 71 16 127q0 86 -45 123t-144 37q-81 0 -138.5 -28t-96.5 -91t-61 -168
q-14 -68 -14 -115q0 -87 45 -127t144 -40q119 0 191 68.5z" />
    <glyph glyph-name="P" unicode="P" horiz-adv-x="571" 
d="M171 644h256q84 0 126.5 -38.5t42.5 -107.5q0 -26 -6 -55q-19 -91 -86.5 -143.5t-164.5 -52.5h-197l-52 -247h-55zM343 291q82 0 129 39.5t63 112.5q7 35 7 55q0 50 -30.5 75.5t-97.5 25.5h-197l-66 -308h192z" />
    <glyph glyph-name="Q" unicode="Q" horiz-adv-x="688" 
d="M285 -147q-24 25 -24 75q0 22 7 64q-199 15 -199 214q0 52 13 113q37 173 123.5 254t237.5 81q117 0 174.5 -51.5t57.5 -158.5q0 -54 -15 -125q-34 -159 -115.5 -240.5t-222.5 -87.5q-8 -38 -8 -60q0 -29 15 -42t51 -13q38 0 73 10l-10 -48q-37 -10 -81 -10q-53 0 -77 25
zM502 105.5q72 68.5 103 213.5q16 71 16 127q0 86 -45 123t-144 37q-81 0 -138.5 -28t-96.5 -91t-61 -168q-14 -68 -14 -115q0 -87 45 -127t144 -40q119 0 191 68.5z" />
    <glyph glyph-name="R" unicode="R" horiz-adv-x="592" 
d="M171 644h269q80 0 119 -35.5t39 -100.5q0 -26 -6 -56q-16 -75 -62 -122t-119 -60q19 -10 26.5 -24.5t14.5 -44.5l44 -201h-56l-44 194q-5 25 -14.5 38t-29.5 19.5t-57 6.5h-151l-54 -258h-55zM352 302q152 0 185 150q6 29 6 52q0 48 -27.5 71.5t-88.5 23.5h-210l-63 -297
h198z" />
    <glyph glyph-name="S" unicode="S" horiz-adv-x="553" 
d="M34 18l11 49q75 -30 176 -30q96 0 149.5 30t67.5 97q4 22 4 31q0 43 -37 67t-127 46q-86 20 -125.5 52.5t-39.5 83.5q0 20 4 37q37 173 268 173q50 0 95.5 -7.5t71.5 -16.5l-10 -49q-67 25 -157 25q-96 0 -148.5 -30t-65.5 -95q-4 -22 -4 -29q0 -26 15.5 -44t49 -31.5
t93.5 -28.5q93 -23 132.5 -57t39.5 -85q0 -17 -5 -42q-18 -86 -88.5 -130t-188.5 -44q-116 0 -181 28z" />
    <glyph glyph-name="T" unicode="T" horiz-adv-x="569" 
d="M344 599h-222l9 45h499l-9 -45h-222l-127 -599h-55z" />
    <glyph glyph-name="U" unicode="U" horiz-adv-x="663" 
d="M126.5 36q-55.5 46 -55.5 130q0 29 8 67l87 411h55l-88 -417q-7 -32 -7 -62q0 -65 42.5 -96t131.5 -31q97 0 161.5 46t84.5 143l88 417h55l-87 -411q-52 -243 -313 -243q-107 0 -162.5 46z" />
    <glyph glyph-name="V" unicode="V" horiz-adv-x="668" 
d="M151 644h54l96 -595l348 595h60l-379 -644h-72z" />
    <glyph glyph-name="W" unicode="W" horiz-adv-x="850" 
d="M151 644h55l11 -577l265 512l13 65h45l41 -577l256 577h54l-285 -644h-63l-37 530l-271 -530h-70z" />
    <glyph glyph-name="X" unicode="X" horiz-adv-x="624" 
d="M306 318l-154 326h62l133 -287l255 287h61l-292 -326l158 -318h-62l-136 278l-254 -278h-62z" />
    <glyph glyph-name="Y" unicode="Y" horiz-adv-x="624" 
d="M295 241l-144 403h54l125 -355l275 355h60l-315 -403l-51 -241h-55z" />
    <glyph glyph-name="Z" unicode="Z" horiz-adv-x="568" 
d="M22 34l510 565h-373l9 45h441l-8 -39l-506 -561h392l-9 -44h-463z" />
    <glyph glyph-name="bracketleft" unicode="[" horiz-adv-x="333" 
d="M165 706h231l-8 -45h-178l-152 -716h178l-12 -44h-231z" />
    <glyph glyph-name="backslash" unicode="\" horiz-adv-x="418" 
d="M155 662h55l101 -716h-55z" />
    <glyph glyph-name="bracketright" unicode="]" horiz-adv-x="333" 
d="M-7 -55h178l152 716h-178l12 45h231l-172 -805h-231z" />
    <glyph glyph-name="asciicircum" unicode="^" horiz-adv-x="439" 
d="M288 624h46l94 -227h-50l-72 186l-151 -186h-56z" />
    <glyph glyph-name="underscore" unicode="_" horiz-adv-x="554" 
d="M15 0h444l-10 -45h-444z" />
    <glyph glyph-name="grave" unicode="`" horiz-adv-x="229" 
d="M159 680h52l33 -158h-45z" />
    <glyph glyph-name="a" unicode="a" horiz-adv-x="531" 
d="M52 143q0 35 9 78q27 126 102.5 194.5t175.5 68.5q49 0 82.5 -11.5t64.5 -38.5l8 40h55l-100 -474h-46l6 53q-42 -32 -86.5 -47.5t-98.5 -15.5q-172 0 -172 153zM415 99l61 287q-25 26 -55 39t-75 13q-89 0 -149 -56t-82 -161q-9 -42 -9 -74q0 -60 33.5 -86t107.5 -26
q94 0 168 64z" />
    <glyph glyph-name="b" unicode="b" horiz-adv-x="564" 
d="M162.5 5q-37.5 15 -65.5 48l-16 -53h-46l143 674h55l-51 -240q79 50 177 50q82 0 126 -39.5t44 -121.5q0 -37 -9 -82q-27 -128 -93.5 -189.5t-172.5 -61.5q-54 0 -91.5 15zM392.5 86q51.5 51 73.5 155q10 50 10 79q0 62 -34 90t-107 28q-91 0 -163 -52l-61 -287
q45 -64 140 -64q90 0 141.5 51z" />
    <glyph glyph-name="c" unicode="c" horiz-adv-x="483" 
d="M104 33.5q-48 43.5 -48 125.5q0 36 9 78q26 122 103.5 184.5t191.5 62.5q43 0 70 -6t54 -20l-10 -45q-47 25 -114 25q-95 0 -157 -49.5t-84 -151.5q-10 -50 -10 -79q0 -64 38 -93.5t123 -29.5q65 0 130 26l-9 -46q-66 -25 -144 -25q-95 0 -143 43.5z" />
    <glyph glyph-name="d" unicode="d" horiz-adv-x="564" 
d="M99.5 30q-45.5 40 -45.5 122q0 31 10 81q27 126 97 188.5t173 62.5q49 0 85.5 -11.5t66.5 -38.5l51 240h55l-143 -674h-46l6 53q-42 -32 -86.5 -47.5t-98.5 -15.5q-79 0 -124.5 40zM415 99l61 287q-25 26 -57 39t-79 13q-86 0 -143 -50.5t-79 -154.5q-10 -50 -10 -79
q0 -61 33.5 -90t105.5 -29q94 0 168 64z" />
    <glyph glyph-name="e" unicode="e" horiz-adv-x="525" 
d="M104 29.5q-49 39.5 -49 121.5q0 37 11 89q51 244 270 244q82 0 122 -37.5t40 -100.5q0 -25 -6 -52l-18 -86h-360q-6 -33 -6 -60q0 -61 39 -87t131 -26q66 0 133 25l-9 -45q-67 -25 -145 -25q-104 0 -153 39.5zM433 251l9 45q6 27 6 51q0 45 -28 68t-92 23
q-90 0 -137.5 -46.5t-67.5 -140.5h310z" />
    <glyph glyph-name="f" unicode="f" horiz-adv-x="339" 
d="M158 428h-73l10 46h73l17 80q14 67 57 101.5t111 34.5q43 0 74 -13l-9 -44q-28 11 -61 11q-54 0 -80 -20.5t-37 -68.5l-17 -81h132l-13 -46h-129l-90 -428h-55z" />
    <glyph glyph-name="g" unicode="g" horiz-adv-x="542" 
d="M139 -173q-34 3 -51 7l10 48q19 -6 48.5 -9t53.5 -3q78 0 128.5 31t63.5 91l12 57q-40 -26 -81 -37.5t-92 -11.5q-83 0 -129 38t-46 119q0 34 9 79q26 127 93.5 187.5t170.5 60.5q54 0 92 -15.5t66 -48.5l16 54h46l-101 -477q-17 -80 -82.5 -126.5t-165.5 -46.5
q-27 0 -61 3zM414 98l59 276q-47 64 -140 64q-90 0 -141.5 -49.5t-72.5 -152.5q-10 -50 -10 -77q0 -61 34.5 -87.5t110.5 -26.5q89 0 160 53z" />
    <glyph glyph-name="h" unicode="h" horiz-adv-x="559" 
d="M178 674h55l-55 -257q45 32 94.5 49.5t109.5 17.5q139 0 139 -116q0 -25 -6 -55l-66 -313h-55l66 312q6 29 6 51q0 40 -26 57.5t-88 17.5q-47 0 -96 -19t-88 -51l-78 -368h-55z" />
    <glyph glyph-name="i" unicode="i" horiz-adv-x="270" 
d="M231 657h63l-13 -60h-63zM189 428h-74l16 46h123l-100 -474h-55z" />
    <glyph glyph-name="j" unicode="j" horiz-adv-x="269" 
d="M231 657h63l-13 -60h-63zM-107 -222l10 45q29 -10 59 -10q55 0 80.5 20.5t34.5 67.5l112 527h-74l16 46h123l-122 -576q-29 -132 -162 -132q-46 0 -77 12z" />
    <glyph glyph-name="k" unicode="k" horiz-adv-x="506" 
d="M178 674h55l-91 -428l292 228h66l-234 -185l145 -289h-58l-130 258l-94 -74l-39 -184h-55z" />
    <glyph glyph-name="l" unicode="l" horiz-adv-x="246" 
d="M67.5 4.5q-17.5 14.5 -17.5 48.5q0 19 4 38l124 583h55l-124 -581q-4 -22 -4 -28q0 -16 8 -22t26 -6q22 0 46 6l-10 -46q-22 -7 -55 -7q-35 0 -52.5 14.5z" />
    <glyph glyph-name="m" unicode="m" horiz-adv-x="850" 
d="M135 474h48l-7 -58q96 68 191 68q49 0 77.5 -18.5t35.5 -49.5q95 68 203 68q130 0 130 -112q0 -25 -6 -55l-67 -317h-54l66 312q7 35 7 52q0 41 -24.5 57.5t-81.5 16.5q-46 0 -89.5 -15.5t-76.5 -45.5q0 -33 -8 -67l-65 -310h-53l65 309q8 35 8 58q0 37 -21.5 54
t-70.5 17q-42 0 -89 -19t-86 -50l-78 -369h-54z" />
    <glyph glyph-name="n" unicode="n" horiz-adv-x="559" 
d="M135 474h48l-7 -58q95 68 206 68q139 0 139 -116q0 -25 -6 -55l-66 -313h-55l66 312q7 31 7 56q0 38 -24 54t-83 16q-51 0 -102 -18.5t-90 -50.5l-78 -369h-55z" />
    <glyph glyph-name="o" unicode="o" horiz-adv-x="563" 
d="M99.5 30q-44.5 40 -44.5 119q0 42 10 88q26 124 91.5 185.5t186.5 61.5q185 0 185 -162q0 -41 -10 -85q-26 -125 -91.5 -186t-188.5 -61q-94 0 -138.5 40zM391 85q50 48 72 152q11 50 11 83q0 60 -33 88t-108 28q-92 0 -142 -48t-72 -151q-11 -52 -11 -86
q0 -59 32.5 -86.5t107.5 -27.5q93 0 143 48z" />
    <glyph glyph-name="p" unicode="p" horiz-adv-x="564" 
d="M135 474h46l-6 -54q41 33 85.5 48.5t98.5 15.5q82 0 126 -39.5t44 -121.5q0 -39 -10 -85q-52 -248 -269 -248q-50 0 -86 11.5t-66 37.5l-54 -255h-55zM389 84q54 49 76 154q10 44 10 82q0 61 -32.5 89.5t-105.5 28.5q-95 0 -168 -64l-61 -286q50 -53 138 -53q89 0 143 49
z" />
    <glyph glyph-name="q" unicode="q" horiz-adv-x="603" 
d="M383.5 -223q-21.5 19 -21.5 57q0 15 5 40l35 165q-41 -26 -82.5 -37.5t-91.5 -11.5q-84 0 -128.5 40.5t-44.5 122.5q0 41 10 85q53 246 264 246q54 0 92 -15.5t66 -48.5l16 54h46l-127 -598q-5 -23 -5 -36q0 -19 11.5 -27t40.5 -8q16 0 38 6l-9 -46q-25 -7 -53 -7
q-40 0 -61.5 19zM412 88l61 286q-47 64 -140 64q-91 0 -141.5 -48.5t-72.5 -151.5q-10 -46 -10 -83q0 -62 34 -91t109 -29q87 0 160 53z" />
    <glyph glyph-name="r" unicode="r" horiz-adv-x="342" 
d="M135 474h48l-8 -66q42 25 93.5 45t100.5 31l-9 -45q-47 -11 -103 -32.5t-90 -42.5l-77 -364h-55z" />
    <glyph glyph-name="s" unicode="s" horiz-adv-x="447" 
d="M92.5 -4.5q-37.5 5.5 -62.5 14.5l10 49q60 -22 134 -22q70 0 104 19t44 64q3 12 3 22q0 27 -20 40.5t-76 33.5l-24 9q-46 17 -67 27t-36 28.5t-15 47.5q0 9 4 31q13 63 61 94t139 31q69 0 123 -17l-11 -49q-54 18 -114 18q-71 0 -103.5 -17.5t-40.5 -58.5q-2 -7 -2 -20
q0 -27 22 -40.5t84 -34.5q71 -24 101.5 -47t30.5 -65q0 -17 -4 -33q-28 -130 -206 -130q-41 0 -78.5 5.5z" />
    <glyph glyph-name="t" unicode="t" horiz-adv-x="350" 
d="M117.5 14.5q-27.5 24.5 -27.5 69.5q0 16 5 39l64 305h-74l10 46h74l27 124l58 18l-30 -142h137l-13 -46h-134l-64 -303q-5 -23 -5 -37q0 -30 18.5 -41.5t59.5 -11.5q28 0 61 11l-9 -44q-36 -12 -78 -12q-52 0 -79.5 24.5z" />
    <glyph glyph-name="u" unicode="u" horiz-adv-x="559" 
d="M96 23q-36 33 -36 95q0 26 6 56l64 300h55l-64 -302q-6 -28 -6 -51q0 -46 28 -66t90 -20q48 0 93.5 18.5t84.5 50.5l78 370h55l-100 -474h-49l7 58q-45 -33 -94 -50.5t-108 -17.5q-68 0 -104 33z" />
    <glyph glyph-name="v" unicode="v" horiz-adv-x="546" 
d="M115 474h54l70 -428l253 428h59l-285 -474h-66z" />
    <glyph glyph-name="w" unicode="w" horiz-adv-x="719" 
d="M115 474h55l15 -418l197 366l11 52h43l41 -418l192 418h55l-223 -474h-56l-41 377l-203 -377h-63z" />
    <glyph glyph-name="x" unicode="x" horiz-adv-x="528" 
d="M245 241l-125 233h60l102 -195l185 195h59l-220 -233l127 -241h-60l-107 204l-192 -204h-59z" />
    <glyph glyph-name="y" unicode="y" horiz-adv-x="566" 
d="M116 -173q-34 3 -51 7l10 48q19 -6 48.5 -9t53.5 -3q82 0 139.5 31.5t71.5 90.5l14 66q-45 -33 -94 -50.5t-108 -17.5q-68 0 -104 33t-36 95q0 26 6 56l64 300h55l-64 -302q-6 -28 -6 -51q0 -46 28 -66t90 -20q48 0 93.5 18.5t84.5 50.5l78 370h55l-101 -477
q-11 -52 -50 -91t-96 -60.5t-120 -21.5q-27 0 -61 3z" />
    <glyph glyph-name="z" unicode="z" horiz-adv-x="479" 
d="M22 34l381 394h-284l10 46h349l-8 -38l-379 -391h302l-9 -45h-369z" />
    <glyph glyph-name="braceleft" unicode="{" horiz-adv-x="285" 
d="M79 -89.5q-21 14.5 -21 48.5q0 18 4 35l40 185q6 34 6 44q0 25 -12.5 38t-41.5 17l8 40q42 5 60.5 27.5t29.5 71.5l39 185q12 54 41 76t84 22h32l-9 -45h-24q-33 0 -48 -12.5t-22 -47.5l-45 -209q-6 -31 -26 -57t-54 -35q23 -7 33.5 -25t10.5 -41q0 -14 -3 -26l-42 -201
q-4 -22 -4 -27q0 -18 11 -25.5t37 -7.5h24l-10 -45h-32q-45 0 -66 14.5z" />
    <glyph glyph-name="bar" unicode="|" horiz-adv-x="165" 
d="M171 735h55l-182 -855h-55z" />
    <glyph glyph-name="braceright" unicode="}" horiz-adv-x="285" 
d="M-8 -59h24q33 0 48 12.5t22 47.5l43 205q7 31 27 57t54 35q-23 7 -33.5 25.5t-10.5 42.5q0 16 2 24l44 205q4 22 4 27q0 18 -11 25.5t-37 7.5h-24l9 45h32q45 0 66 -14.5t21 -47.5q0 -17 -4 -36l-39 -185q-6 -25 -6 -45q0 -24 12.5 -37t41.5 -17l-8 -40q-43 -5 -61.5 -28
t-28.5 -71l-40 -185q-11 -54 -40.5 -76t-84.5 -22h-32z" />
    <glyph glyph-name="asciitilde" unicode="~" horiz-adv-x="579" 
d="M367.5 250q-24.5 9 -59.5 27q-33 18 -58 27t-52 9q-37 0 -67.5 -14.5t-62.5 -46.5l12 58q23 24 57.5 38.5t71.5 14.5q32 0 58 -10t59 -28q34 -18 56 -26t48 -8q37 0 66.5 14t61.5 46l-12 -58q-23 -24 -56 -38t-70 -14q-28 0 -52.5 9z" />
    <glyph glyph-name="uni00A0" unicode="&#xa0;" horiz-adv-x="390" 
 />
    <glyph glyph-name="exclamdown" unicode="&#xa1;" horiz-adv-x="171" 
d="M144 632h61l-10 -48h-61zM43 141l78 345h44l-67 -345l-32 -153h-55z" />
    <glyph glyph-name="cent" unicode="&#xa2;" horiz-adv-x="483" 
d="M223 -9q-84 5 -125.5 48t-41.5 119q0 36 9 79q23 113 92 175t171 70l17 78h44l-16 -76q36 -1 60.5 -7t50.5 -19l-10 -45q-47 24 -111 25l-86 -403q61 1 123 26l-9 -46q-56 -21 -124 -24l-16 -77h-44zM318 435q-78 -9 -129 -58.5t-70 -139.5q-10 -50 -10 -79
q0 -56 29.5 -86t94.5 -36z" />
    <glyph glyph-name="sterling" unicode="&#xa3;" horiz-adv-x="505" 
d="M24 45h27q62 0 80 78l41 196h-73l10 45h73l30 140q15 73 66.5 111.5t129.5 38.5q67 0 101 -18l-10 -44q-12 7 -36.5 11.5t-49.5 4.5q-65 0 -100 -25t-47 -80l-29 -139h213l-11 -45h-212l-41 -193q-11 -58 -46 -81h279l-9 -45h-395z" />
    <glyph glyph-name="currency" unicode="&#xa4;" horiz-adv-x="571" 
d="M36 100l97 63q-17 29 -17 68q0 21 4 38q12 59 58 105l-70 64l33 33l70 -67q60 46 129 46q34 0 62 -12t47 -34l101 67l19 -33l-98 -64q18 -33 18 -71q0 -10 -4 -34q-13 -58 -59 -107l71 -63l-33 -33l-72 66q-59 -45 -128 -45q-68 0 -110 45l-99 -66zM378 170q49 41 62 99
q3 17 3 32q0 47 -29.5 77t-82.5 30q-58 0 -106 -40.5t-60 -98.5q-4 -16 -4 -34q0 -47 29 -76.5t82 -29.5q57 0 106 41z" />
    <glyph glyph-name="yen" unicode="&#xa5;" horiz-adv-x="615" 
d="M262 110h-163l9 41h163l14 68h-163l9 41h152l-132 384h53l121 -355l271 355h60l-296 -384h153l-9 -41h-163l-14 -68h163l-9 -41h-163l-23 -110h-56z" />
    <glyph glyph-name="brokenbar" unicode="&#xa6;" horiz-adv-x="165" 
d="M171 735h55l-64 -301h-55zM53 180h55l-64 -300h-55z" />
    <glyph glyph-name="section" unicode="&#xa7;" horiz-adv-x="553" 
d="M34 18l11 49q75 -30 176 -30q95 0 149 30t68 97q3 15 3 29q0 44 -37.5 67t-128.5 46t-129 50t-38 72q0 8 4 32q7 32 31 63q-6 17 -6 36q0 18 4 34q17 81 84.5 126.5t182.5 45.5q50 0 95.5 -7.5t72.5 -16.5l-10 -49q-67 25 -157 25q-94 0 -147.5 -30t-67.5 -95
q-3 -15 -3 -28q0 -39 34.5 -61.5t123.5 -44.5q67 -17 104.5 -32.5t55 -36.5t17.5 -51q0 -17 -4 -33q-3 -16 -11.5 -35.5t-19.5 -35.5q5 -14 5 -35q0 -20 -4 -36q-18 -87 -86.5 -130t-190.5 -43q-116 0 -181 28zM474 306q3 12 3 23q0 23 -15.5 37t-47 24.5t-100.5 29.5
q-59 16 -91.5 30.5t-46.5 34.5q-9 -12 -13 -30q-2 -7 -2 -20q0 -22 15 -37t46.5 -26t90.5 -26q116 -29 147 -75q9 14 14 35z" />
    <glyph glyph-name="dieresis" unicode="&#xa8;" horiz-adv-x="333" 
d="M147 622h56l-12 -55h-56zM313 622h57l-12 -55h-57z" />
    <glyph glyph-name="copyright" unicode="&#xa9;" horiz-adv-x="774" 
d="M205 24.5q-61 34.5 -95 94.5t-34 134q0 35 7 69q20 92 76.5 168t141.5 120t185 44q78 0 139 -34.5t95 -94.5t34 -134q0 -35 -7 -69q-19 -91 -77.5 -167t-143.5 -120.5t-182 -44.5q-78 0 -139 34.5zM509.5 71q73.5 38 125 104t68.5 147q8 38 8 70q0 64 -27.5 113.5
t-80.5 77t-127 27.5q-86 0 -159.5 -37.5t-122.5 -103t-67 -147.5q-8 -38 -8 -70q0 -64 27.5 -113.5t81 -77.5t126.5 -28q82 0 155.5 38zM224 128.5q-50 45.5 -50 127.5q0 33 7 65q16 77 59.5 130.5t103.5 80t127 26.5q79 0 123 -28l-8 -40q-51 27 -116 27
q-88 0 -154.5 -49.5t-87.5 -146.5q-9 -40 -9 -73q0 -65 39 -94.5t124 -29.5q31 0 67.5 7.5t64.5 20.5l-9 -41q-29 -13 -66.5 -20.5t-76.5 -7.5q-88 0 -138 45.5z" />
    <glyph glyph-name="ordfeminine" unicode="&#xaa;" horiz-adv-x="348" 
d="M131 394.5q-22 14.5 -22 43.5q0 6 2 18q18 84 121 84h94l4 17q3 14 3 24q0 21 -15.5 29.5t-56.5 8.5q-42 0 -84 -14l8 35q42 14 93 14q45 0 70.5 -17.5t25.5 -52.5q0 -11 -3 -25l-36 -173h-37l3 32q-23 -20 -50 -29t-61 -9q-37 0 -59 14.5zM262 422q24 10 46 32l11 54
h-91q-37 0 -54 -11.5t-23 -39.5q-2 -10 -2 -13q0 -17 14 -24.5t44 -7.5q31 0 55 10z" />
    <glyph glyph-name="guillemotleft" unicode="&#xab;" horiz-adv-x="581" 
d="M72 271l7 32l289 184l16 -37l-257 -166l186 -166l-30 -31zM269 271l7 32l289 184l17 -37l-258 -166l187 -166l-31 -31z" />
    <glyph glyph-name="logicalnot" unicode="&#xac;" horiz-adv-x="535" 
d="M460 319h-378l10 45h425l-45 -212h-47z" />
    <glyph glyph-name="uni00AD" unicode="&#xad;" horiz-adv-x="482" 
d="M74 280h372l-10 -45h-372z" />
    <glyph glyph-name="registered" unicode="&#xae;" horiz-adv-x="774" 
d="M205 24.5q-61 34.5 -95 94.5t-34 134q0 35 7 69q20 92 76.5 168t141.5 120t185 44q78 0 139 -34.5t95 -94.5t34 -134q0 -35 -7 -69q-19 -91 -77.5 -167t-143.5 -120.5t-182 -44.5q-78 0 -139 34.5zM509.5 71q73.5 38 125 104t68.5 147q8 38 8 70q0 64 -27.5 113.5
t-80.5 77t-127 27.5q-86 0 -159.5 -37.5t-122.5 -103t-67 -147.5q-8 -38 -8 -70q0 -64 27.5 -113.5t81 -77.5t126.5 -28q82 0 155.5 38zM307 545h188q56 0 86 -25t30 -70q0 -19 -4 -36q-11 -52 -44 -84.5t-85 -41.5q13 -8 18.5 -18.5t10.5 -30.5l30 -139h-44l-31 137
q-4 17 -10.5 25.5t-21 11.5t-43.5 3h-92l-37 -177h-45zM429 316q58 0 90.5 21t43.5 77q5 23 5 37q0 30 -19.5 42.5t-64.5 12.5h-140l-40 -190h125z" />
    <glyph glyph-name="macron" unicode="&#xaf;" horiz-adv-x="387" 
d="M144 609h277l-9 -42h-277z" />
    <glyph glyph-name="degree" unicode="&#xb0;" horiz-adv-x="321" 
d="M166 530q-24 23 -24 59q0 35 17.5 64.5t47.5 46.5t65 17q39 0 62.5 -23t23.5 -60q0 -14 -2 -22q-10 -46 -46 -75.5t-83 -29.5q-37 0 -61 23zM293 570.5q25 24.5 25 58.5q0 22 -13.5 35.5t-40.5 13.5q-28 0 -51 -19t-28 -47q-2 -12 -2 -18q0 -23 13 -35.5t40 -12.5
q32 0 57 24.5z" />
    <glyph glyph-name="plusminus" unicode="&#xb1;" horiz-adv-x="482" 
d="M229 245h-162l9 45h162l35 162h47l-35 -162h163l-9 -45h-163l-34 -156h-47zM24 45h372l-9 -45h-372z" />
    <glyph glyph-name="uni00B2" unicode="&#xb2;" horiz-adv-x="296" 
d="M99 396q16 24 39 43t62 46q42 30 57.5 47t20.5 40q2 10 2 14q0 33 -53 33q-35 0 -73 -12l7 34q15 5 38.5 9t43.5 4q38 0 58 -17t20 -46q0 -5 -2 -19q-6 -29 -23.5 -48.5t-60.5 -50.5l-23 -17q-41 -28 -60 -52h134l-7 -34h-186z" />
    <glyph glyph-name="uni00B3" unicode="&#xb3;" horiz-adv-x="298" 
d="M125 365q-20 3 -31 8l7 34q30 -12 66 -12q42 0 61.5 11.5t25.5 39.5q2 10 2 13q0 18 -15.5 26.5t-46.5 8.5h-35l10 31h27q36 0 55 12t25 39l2 12q0 17 -14.5 24.5t-47.5 7.5q-34 0 -67 -11l7 34q13 4 34.5 7.5t40.5 3.5q46 0 68 -15.5t22 -42.5q0 -29 -17 -53.5
t-48 -33.5q43 -8 43 -47q0 -5 -2 -17q-8 -41 -41 -62t-90 -21q-21 0 -41 3z" />
    <glyph glyph-name="acute" unicode="&#xb4;" horiz-adv-x="229" 
d="M226 680h52l-109 -158h-44z" />
    <glyph glyph-name="paragraph" unicode="&#xb6;" horiz-adv-x="611" 
d="M343 253q-110 0 -172.5 36t-62.5 123q0 27 8 65q26 122 107.5 177.5t206.5 55.5h236l-167 -787h-55l158 742h-116l-158 -742h-55z" />
    <glyph glyph-name="periodcentered" unicode="&#xb7;" horiz-adv-x="163" 
d="M80 309h53l-11 -51h-53z" />
    <glyph glyph-name="cedilla" unicode="&#xb8;" horiz-adv-x="315" 
d="M-5.5 -237.5q-18.5 2.5 -29.5 5.5l8 37q27 -8 61 -8q52 0 79 14.5t34 49.5q2 12 2 16q0 22 -19 30.5t-63 8.5h-33l46 84h43l-28 -51q45 0 71 -17.5t26 -50.5q0 -6 -2 -20q-22 -101 -162 -101q-15 0 -33.5 2.5z" />
    <glyph glyph-name="uni00B9" unicode="&#xb9;" horiz-adv-x="206" 
d="M221 614l-80 -17l8 34l121 23l-61 -284h-40z" />
    <glyph glyph-name="ordmasculine" unicode="&#xba;" horiz-adv-x="363" 
d="M119 470q0 26 5 47q15 68 52.5 102.5t103.5 34.5q102 0 102 -91q0 -25 -5 -46q-15 -69 -52.5 -103t-103.5 -34q-102 0 -102 90zM300 439.5q25 25.5 36 77.5q5 27 5 43q0 30 -16 44.5t-53 14.5q-46 0 -71.5 -25.5t-36.5 -76.5q-6 -25 -6 -46q0 -29 16 -43t54 -14
q47 0 72 25.5z" />
    <glyph glyph-name="guillemotright" unicode="&#xbb;" horiz-adv-x="581" 
d="M40 124l258 166l-187 166l30 31l211 -184l-7 -32l-289 -184zM237 124l259 166l-188 166l31 31l211 -184l-7 -32l-289 -184z" />
    <glyph glyph-name="onequarter" unicode="&#xbc;" horiz-adv-x="616" 
d="M221 614l-80 -17l8 34l121 23l-61 -284h-40zM543 644h52l-480 -644h-52zM463 62h-155l7 34l187 188h48l-40 -189h31l-7 -33h-31l-13 -62h-40zM477 95l33 158l-156 -158h123z" />
    <glyph glyph-name="onehalf" unicode="&#xbd;" horiz-adv-x="615" 
d="M221 614l-80 -17l8 34l121 23l-61 -284h-40zM543 644h52l-480 -644h-52zM339 26q18 24 40.5 43.5t60.5 45.5q43 30 58.5 47t19.5 40q2 12 2 15q0 16 -12.5 24t-40.5 8q-34 0 -73 -12l7 34q15 5 38.5 9t43.5 4q37 0 58 -17.5t21 -46.5q0 -6 -2 -18q-6 -29 -23.5 -48.5
t-60.5 -50.5l-22 -16q-17 -12 -32.5 -25t-27.5 -28h133l-7 -34h-186z" />
    <glyph glyph-name="threequarters" unicode="&#xbe;" horiz-adv-x="630" 
d="M125 365q-20 3 -31 8l7 33q30 -12 66 -12q42 0 61.5 12t25.5 40q2 10 2 13q0 18 -15.5 26.5t-46.5 8.5h-35l10 31h27q36 0 55 12t25 39q2 10 2 13q0 17 -15 24.5t-47 7.5t-67 -11l7 33q13 4 34.5 7.5t40.5 3.5q90 0 90 -56q0 -30 -16.5 -55t-48.5 -34q43 -8 43 -47
q0 -5 -2 -17q-8 -41 -41 -62t-90 -21q-21 0 -41 3zM556 644h52l-479 -644h-52zM477 62h-155l7 34l186 188h49l-40 -189h31l-7 -33h-31l-13 -62h-40zM490 95l33 158l-155 -158h122z" />
    <glyph glyph-name="questiondown" unicode="&#xbf;" horiz-adv-x="488" 
d="M358 632h61l-10 -48h-61zM97 11.5q-44 33.5 -44 95.5q0 26 5 46q8 36 26.5 64t43.5 48.5t67 50.5q14 10 21 14q38 27 57 42.5t32.5 37t20.5 53.5l4 21h55l-5 -24q-11 -53 -43 -86t-89 -72l-17 -12q-55 -38 -82.5 -66t-36.5 -70q-5 -25 -5 -41q0 -44 32.5 -65.5
t107.5 -21.5q89 0 169 35l-10 -48q-34 -16 -81 -25.5t-99 -9.5q-85 0 -129 33.5z" />
    <glyph glyph-name="Agrave" unicode="&#xc0;" horiz-adv-x="667" 
d="M370 846h52l33 -158h-45zM395 644h70l107 -644h-53l-32 188h-302l-110 -188h-60zM484 233l-61 367l-216 -367h277z" />
    <glyph glyph-name="Aacute" unicode="&#xc1;" horiz-adv-x="667" 
d="M507 846h52l-108 -158h-45zM395 644h70l107 -644h-53l-32 188h-302l-110 -188h-60zM484 233l-61 367l-216 -367h277z" />
    <glyph glyph-name="Acircumflex" unicode="&#xc2;" horiz-adv-x="667" 
d="M443 822h48l76 -135h-48l-57 103l-101 -103h-51zM395 644h70l107 -644h-53l-32 188h-302l-110 -188h-60zM484 233l-61 367l-216 -367h277z" />
    <glyph glyph-name="Atilde" unicode="&#xc3;" horiz-adv-x="667" 
d="M482 715q-16 5 -36 15q-18 8 -30.5 12.5t-25.5 4.5q-51 0 -86 -35l10 47q14 13 37.5 21t46.5 8q18 0 32 -4.5t34 -14.5q18 -9 30.5 -13.5t27.5 -4.5q48 0 80 35l-10 -47q-12 -14 -32.5 -21.5t-44.5 -7.5q-17 0 -33 5zM395 644h70l107 -644h-53l-32 188h-302l-110 -188
h-60zM484 233l-61 367l-216 -367h277z" />
    <glyph glyph-name="Adieresis" unicode="&#xc4;" horiz-adv-x="667" 
d="M345 768h57l-12 -55h-56zM512 768h56l-12 -55h-56zM395 644h70l107 -644h-53l-32 188h-302l-110 -188h-60zM484 233l-61 367l-216 -367h277z" />
    <glyph glyph-name="Aring" unicode="&#xc5;" horiz-adv-x="667" 
d="M379 617q-20 10 -31 28.5t-11 41.5q0 15 2 23q9 44 43 73t81 29q38 0 60.5 -22t22.5 -57q0 -15 -2 -23q-7 -31 -26.5 -55.5t-48.5 -36.5l103 -618h-53l-32 188h-302l-110 -188h-60zM485 669.5q24 24.5 24 58.5q0 22 -13.5 35t-40.5 13q-33 0 -57.5 -24.5t-24.5 -58.5
q0 -22 13.5 -35t40.5 -13q34 0 58 24.5zM484 233l-61 367l-216 -367h277z" />
    <glyph glyph-name="AE" unicode="&#xc6;" horiz-adv-x="832" 
d="M395 644h478l-9 -46h-312l-54 -254h277l-10 -45h-277l-54 -255h312l-9 -44h-367l40 189h-225l-112 -189h-58zM419 233l78 365h-70l-216 -365h208z" />
    <glyph glyph-name="Ccedilla" unicode="&#xc7;" horiz-adv-x="589" 
d="M237 528.5q-73 -77.5 -104 -224.5q-12 -52 -12 -96q0 -84 48.5 -127.5t155.5 -43.5q46 0 94 7t88 20l-10 -49q-82 -24 -176 -25l-22 -41q96 0 96 -66q0 -14 -2 -22q-22 -101 -160 -101q-15 0 -34 2.5t-30 5.5l8 37q27 -8 61 -8q52 0 78.5 14.5t33.5 49.5q2 10 2 15
q0 22 -19.5 31t-61.5 9h-33l40 75q-106 7 -158 63t-52 152q0 43 11 98q36 167 124 258.5t246 91.5q101 0 177 -29l-10 -49q-74 30 -173 30q-133 0 -206 -77.5z" />
    <glyph glyph-name="Egrave" unicode="&#xc8;" horiz-adv-x="541" 
d="M337 846h52l33 -158h-45zM171 644h421l-9 -45h-366l-54 -255h331l-10 -44h-331l-54 -256h366l-9 -44h-421z" />
    <glyph glyph-name="Eacute" unicode="&#xc9;" horiz-adv-x="541" 
d="M464 846h52l-108 -158h-45zM171 644h421l-9 -45h-366l-54 -255h331l-10 -44h-331l-54 -256h366l-9 -44h-421z" />
    <glyph glyph-name="Ecircumflex" unicode="&#xca;" horiz-adv-x="541" 
d="M387 822h48l76 -135h-48l-57 103l-101 -103h-51zM171 644h421l-9 -45h-366l-54 -255h331l-10 -44h-331l-54 -256h366l-9 -44h-421z" />
    <glyph glyph-name="Edieresis" unicode="&#xcb;" horiz-adv-x="541" 
d="M295 769h57l-12 -55h-56zM462 769h56l-12 -55h-56zM171 644h421l-9 -45h-366l-54 -255h331l-10 -44h-331l-54 -256h366l-9 -44h-421z" />
    <glyph glyph-name="Igrave" unicode="&#xcc;" horiz-adv-x="205" 
d="M146 846h52l33 -158h-45zM171 644h55l-136 -644h-55z" />
    <glyph glyph-name="Iacute" unicode="&#xcd;" horiz-adv-x="205" 
d="M285 846h52l-108 -158h-45zM171 644h55l-136 -644h-55z" />
    <glyph glyph-name="Icircumflex" unicode="&#xce;" horiz-adv-x="205" 
d="M212 822h48l76 -135h-48l-57 103l-101 -103h-51zM171 644h55l-136 -644h-55z" />
    <glyph glyph-name="Idieresis" unicode="&#xcf;" horiz-adv-x="205" 
d="M113 770h57l-12 -55h-56zM280 770h56l-12 -55h-56zM171 644h55l-136 -644h-55z" />
    <glyph glyph-name="Eth" unicode="&#xd0;" horiz-adv-x="673" 
d="M138 294h-81l10 45h80l65 305h240q108 0 159 -45.5t51 -144.5q0 -57 -17 -137q-25 -114 -62 -182.5t-100.5 -101.5t-164.5 -33h-242zM315 44q79 0 130 22.5t86.5 82t58.5 168.5q19 90 19 142q0 78 -41 109t-135 31h-175l-56 -260h191l-10 -45h-190l-53 -250h175z" />
    <glyph glyph-name="Ntilde" unicode="&#xd1;" horiz-adv-x="656" 
d="M477 718q-16 5 -36 15q-18 8 -30.5 12.5t-25.5 4.5q-51 0 -86 -35l10 47q14 13 37.5 21t46.5 8q18 0 32 -4.5t34 -14.5q18 -9 30.5 -13.5t27.5 -4.5q48 0 80 35l-10 -47q-12 -14 -32.5 -21.5t-44.5 -7.5q-17 0 -33 5zM171 644h52l280 -562l119 562h55l-136 -644h-53
l-279 561l-119 -561h-55z" />
    <glyph glyph-name="Ograve" unicode="&#xd2;" horiz-adv-x="688" 
d="M393 846h52l33 -158h-45zM69 207q0 53 13 112q37 173 123.5 254t237.5 81q117 0 174.5 -51.5t57.5 -158.5q0 -54 -15 -125q-35 -165 -121.5 -247t-237.5 -82q-232 0 -232 217zM502 105.5q72 68.5 103 213.5q16 71 16 127q0 86 -45 123t-144 37q-81 0 -138.5 -28
t-96.5 -91t-61 -168q-14 -68 -14 -115q0 -87 45 -127t144 -40q119 0 191 68.5z" />
    <glyph glyph-name="Oacute" unicode="&#xd3;" horiz-adv-x="688" 
d="M529 846h52l-108 -158h-45zM69 207q0 53 13 112q37 173 123.5 254t237.5 81q117 0 174.5 -51.5t57.5 -158.5q0 -54 -15 -125q-35 -165 -121.5 -247t-237.5 -82q-232 0 -232 217zM502 105.5q72 68.5 103 213.5q16 71 16 127q0 86 -45 123t-144 37q-81 0 -138.5 -28
t-96.5 -91t-61 -168q-14 -68 -14 -115q0 -87 45 -127t144 -40q119 0 191 68.5z" />
    <glyph glyph-name="Ocircumflex" unicode="&#xd4;" horiz-adv-x="688" 
d="M454 822h48l76 -135h-48l-57 103l-101 -103h-51zM69 207q0 53 13 112q37 173 123.5 254t237.5 81q117 0 174.5 -51.5t57.5 -158.5q0 -54 -15 -125q-35 -165 -121.5 -247t-237.5 -82q-232 0 -232 217zM502 105.5q72 68.5 103 213.5q16 71 16 127q0 86 -45 123t-144 37
q-81 0 -138.5 -28t-96.5 -91t-61 -168q-14 -68 -14 -115q0 -87 45 -127t144 -40q119 0 191 68.5z" />
    <glyph glyph-name="Otilde" unicode="&#xd5;" horiz-adv-x="688" 
d="M494 720q-16 5 -36 15q-18 8 -30.5 12.5t-25.5 4.5q-51 0 -86 -35l10 47q14 13 37.5 21t46.5 8q18 0 32 -4.5t34 -14.5q18 -9 30.5 -13.5t27.5 -4.5q48 0 80 35l-10 -47q-12 -14 -32.5 -21.5t-44.5 -7.5q-17 0 -33 5zM69 207q0 53 13 112q37 173 123.5 254t237.5 81
q117 0 174.5 -51.5t57.5 -158.5q0 -54 -15 -125q-35 -165 -121.5 -247t-237.5 -82q-232 0 -232 217zM502 105.5q72 68.5 103 213.5q16 71 16 127q0 86 -45 123t-144 37q-81 0 -138.5 -28t-96.5 -91t-61 -168q-14 -68 -14 -115q0 -87 45 -127t144 -40q119 0 191 68.5z" />
    <glyph glyph-name="Odieresis" unicode="&#xd6;" horiz-adv-x="688" 
d="M356 769h57l-12 -55h-56zM523 769h56l-12 -55h-56zM69 207q0 53 13 112q37 173 123.5 254t237.5 81q117 0 174.5 -51.5t57.5 -158.5q0 -54 -15 -125q-35 -165 -121.5 -247t-237.5 -82q-232 0 -232 217zM502 105.5q72 68.5 103 213.5q16 71 16 127q0 86 -45 123t-144 37
q-81 0 -138.5 -28t-96.5 -91t-61 -168q-14 -68 -14 -115q0 -87 45 -127t144 -40q119 0 191 68.5z" />
    <glyph glyph-name="multiply" unicode="&#xd7;" horiz-adv-x="403" 
d="M210 222l-136 -111l-24 31l134 112l-91 115l37 31l90 -117l141 116l25 -31l-141 -117l91 -116l-35 -29z" />
    <glyph glyph-name="Oslash" unicode="&#xd8;" horiz-adv-x="688" 
d="M163 19q-94 51 -94 187q0 54 13 113q37 173 123.5 254t237.5 81q42 0 80 -8l27 47h50l-34 -59q109 -45 109 -191q0 -53 -15 -124q-35 -165 -121.5 -247t-237.5 -82q-49 0 -97 12l-32 -55h-50zM497 601q-32 5 -65 5q-81 0 -138.5 -28t-96.5 -91t-61 -168q-14 -68 -14 -115
q0 -104 66 -142zM502 105.5q72 68.5 103 213.5q16 78 16 125q0 58 -20 93t-61 52l-311 -543q35 -9 82 -9q119 0 191 68.5z" />
    <glyph glyph-name="Ugrave" unicode="&#xd9;" horiz-adv-x="663" 
d="M395 846h52l33 -158h-45zM126.5 36q-55.5 46 -55.5 130q0 29 8 67l87 411h55l-88 -417q-7 -32 -7 -62q0 -65 42.5 -96t131.5 -31q97 0 161.5 46t84.5 143l88 417h55l-87 -411q-52 -243 -313 -243q-107 0 -162.5 46z" />
    <glyph glyph-name="Uacute" unicode="&#xda;" horiz-adv-x="663" 
d="M508 846h52l-108 -158h-45zM126.5 36q-55.5 46 -55.5 130q0 29 8 67l87 411h55l-88 -417q-7 -32 -7 -62q0 -65 42.5 -96t131.5 -31q97 0 161.5 46t84.5 143l88 417h55l-87 -411q-52 -243 -313 -243q-107 0 -162.5 46z" />
    <glyph glyph-name="Ucircumflex" unicode="&#xdb;" horiz-adv-x="663" 
d="M441 822h48l76 -135h-48l-57 103l-101 -103h-51zM126.5 36q-55.5 46 -55.5 130q0 29 8 67l87 411h55l-88 -417q-7 -32 -7 -62q0 -65 42.5 -96t131.5 -31q97 0 161.5 46t84.5 143l88 417h55l-87 -411q-52 -243 -313 -243q-107 0 -162.5 46z" />
    <glyph glyph-name="Udieresis" unicode="&#xdc;" horiz-adv-x="663" 
d="M336 769h57l-12 -55h-56zM503 769h56l-12 -55h-56zM126.5 36q-55.5 46 -55.5 130q0 29 8 67l87 411h55l-88 -417q-7 -32 -7 -62q0 -65 42.5 -96t131.5 -31q97 0 161.5 46t84.5 143l88 417h55l-87 -411q-52 -243 -313 -243q-107 0 -162.5 46z" />
    <glyph glyph-name="Yacute" unicode="&#xdd;" horiz-adv-x="624" 
d="M483 846h52l-108 -158h-45zM295 241l-144 403h54l125 -355l275 355h60l-315 -403l-51 -241h-55z" />
    <glyph glyph-name="Thorn" unicode="&#xde;" horiz-adv-x="591" 
d="M171 644h55l-26 -125h201q83 0 126 -39t43 -107q0 -24 -6 -53q-21 -94 -85 -146t-167 -52h-197l-25 -122h-55zM317 167q77 0 127 41t65 112q7 37 7 57q0 49 -30 73t-99 24h-197l-65 -307h192z" />
    <glyph glyph-name="germandbls" unicode="&#xdf;" horiz-adv-x="620" 
d="M186 12l10 48q50 -23 133 -23q71 0 118 40t63 114q6 26 6 47q0 47 -30.5 72t-97.5 25h-87l9 44h91q64 0 102.5 37t50.5 96q5 25 5 42q0 47 -36 72.5t-120 25.5q-89 0 -144 -45t-74 -133l-100 -474h-55l101 478q22 104 95 163t187 59q99 0 148.5 -39.5t49.5 -105.5
q0 -18 -5 -43q-12 -56 -44.5 -98t-75.5 -59q40 -11 62 -42t22 -77q0 -26 -5 -47q-21 -95 -83 -147t-157 -52q-88 0 -139 22z" />
    <glyph glyph-name="agrave" unicode="&#xe0;" horiz-adv-x="531" 
d="M299 680h52l33 -158h-45zM52 143q0 35 9 78q27 126 102.5 194.5t175.5 68.5q49 0 82.5 -11.5t64.5 -38.5l8 40h55l-100 -474h-46l6 53q-42 -32 -86.5 -47.5t-98.5 -15.5q-172 0 -172 153zM415 99l61 287q-25 26 -55 39t-75 13q-89 0 -149 -56t-82 -161q-9 -42 -9 -74
q0 -60 33.5 -86t107.5 -26q94 0 168 64z" />
    <glyph glyph-name="aacute" unicode="&#xe1;" horiz-adv-x="531" 
d="M424 680h52l-108 -158h-45zM52 143q0 35 9 78q27 126 102.5 194.5t175.5 68.5q49 0 82.5 -11.5t64.5 -38.5l8 40h55l-100 -474h-46l6 53q-42 -32 -86.5 -47.5t-98.5 -15.5q-172 0 -172 153zM415 99l61 287q-25 26 -55 39t-75 13q-89 0 -149 -56t-82 -161q-9 -42 -9 -74
q0 -60 33.5 -86t107.5 -26q94 0 168 64z" />
    <glyph glyph-name="acircumflex" unicode="&#xe2;" horiz-adv-x="531" 
d="M353 656h48l76 -135h-48l-57 103l-101 -103h-51zM52 143q0 35 9 78q27 126 102.5 194.5t175.5 68.5q49 0 82.5 -11.5t64.5 -38.5l8 40h55l-100 -474h-46l6 53q-42 -32 -86.5 -47.5t-98.5 -15.5q-172 0 -172 153zM415 99l61 287q-25 26 -55 39t-75 13q-89 0 -149 -56
t-82 -161q-9 -42 -9 -74q0 -60 33.5 -86t107.5 -26q94 0 168 64z" />
    <glyph glyph-name="atilde" unicode="&#xe3;" horiz-adv-x="531" 
d="M392 552q-16 5 -36 15q-18 8 -30.5 12.5t-25.5 4.5q-51 0 -86 -35l10 47q14 13 37.5 21t46.5 8q18 0 32 -4.5t34 -14.5q18 -9 30.5 -13.5t27.5 -4.5q48 0 80 35l-10 -47q-12 -14 -32.5 -21.5t-44.5 -7.5q-17 0 -33 5zM52 143q0 35 9 78q27 126 102.5 194.5t175.5 68.5
q49 0 82.5 -11.5t64.5 -38.5l8 40h55l-100 -474h-46l6 53q-42 -32 -86.5 -47.5t-98.5 -15.5q-172 0 -172 153zM415 99l61 287q-25 26 -55 39t-75 13q-89 0 -149 -56t-82 -161q-9 -42 -9 -74q0 -60 33.5 -86t107.5 -26q94 0 168 64z" />
    <glyph glyph-name="adieresis" unicode="&#xe4;" horiz-adv-x="531" 
d="M258 603h57l-12 -55h-56zM425 603h56l-12 -55h-56zM52 143q0 35 9 78q27 126 102.5 194.5t175.5 68.5q49 0 82.5 -11.5t64.5 -38.5l8 40h55l-100 -474h-46l6 53q-42 -32 -86.5 -47.5t-98.5 -15.5q-172 0 -172 153zM415 99l61 287q-25 26 -55 39t-75 13q-89 0 -149 -56
t-82 -161q-9 -42 -9 -74q0 -60 33.5 -86t107.5 -26q94 0 168 64z" />
    <glyph glyph-name="aring" unicode="&#xe5;" horiz-adv-x="531" 
d="M293.5 543.5q-22.5 22.5 -22.5 56.5q0 14 2 22q9 44 43 73t81 29q38 0 60.5 -22t22.5 -57q0 -15 -2 -23q-9 -43 -43 -72t-81 -29q-38 0 -60.5 22.5zM419 581.5q24 24.5 24 58.5q0 22 -13.5 35t-40.5 13q-33 0 -57.5 -24.5t-24.5 -58.5q0 -22 13.5 -35t40.5 -13
q34 0 58 24.5zM52 143q0 35 9 78q27 126 102.5 194.5t175.5 68.5q49 0 82.5 -11.5t64.5 -38.5l8 40h55l-100 -474h-46l6 53q-42 -32 -86.5 -47.5t-98.5 -15.5q-172 0 -172 153zM415 99l61 287q-25 26 -55 39t-75 13q-89 0 -149 -56t-82 -161q-9 -42 -9 -74q0 -60 33.5 -86
t107.5 -26q94 0 168 64z" />
    <glyph glyph-name="ae" unicode="&#xe6;" horiz-adv-x="879" 
d="M75.5 16q-38.5 26 -38.5 78q0 8 4 32q30 142 206 142h177l7 33q6 26 6 46q0 45 -29 67.5t-94 22.5q-80 0 -158 -26l10 47q72 26 166 26q135 0 150 -91q69 91 205 91q82 0 123.5 -38t41.5 -102q0 -24 -6 -50l-18 -86h-361q-6 -34 -6 -61q0 -61 38.5 -86.5t131.5 -25.5
q65 0 134 25l-9 -45q-69 -25 -145 -25q-84 0 -131 25t-62 79q-38 -48 -99 -76t-142 -28q-63 0 -101.5 26zM786 251l9 45q6 27 6 50q0 45 -28.5 68.5t-93.5 23.5q-91 0 -136.5 -44.5t-66.5 -142.5h310zM396 136l19 88h-175q-68 0 -101 -24t-44 -74q-3 -12 -3 -23
q0 -67 109 -67q139 0 195 100z" />
    <glyph glyph-name="ccedilla" unicode="&#xe7;" horiz-adv-x="483" 
d="M203 388.5q-62 -49.5 -84 -151.5q-10 -50 -10 -79q0 -64 38 -93.5t123 -29.5q65 0 130 26l-9 -46q-64 -25 -140 -25l-22 -41q96 0 96 -66q0 -14 -2 -22q-22 -101 -160 -101q-15 0 -34 2.5t-30 5.5l8 37q27 -8 61 -8q52 0 78.5 14.5t33.5 49.5q2 10 2 15q0 22 -19.5 31
t-61.5 9h-33l41 76q-77 8 -115 50.5t-38 116.5q0 36 9 78q26 122 103.5 184.5t191.5 62.5q43 0 70 -6t54 -20l-10 -45q-47 25 -114 25q-95 0 -157 -49.5z" />
    <glyph glyph-name="egrave" unicode="&#xe8;" horiz-adv-x="525" 
d="M278 680h52l33 -158h-45zM104 29.5q-49 39.5 -49 121.5q0 37 11 89q51 244 270 244q82 0 122 -37.5t40 -100.5q0 -25 -6 -52l-18 -86h-360q-6 -33 -6 -60q0 -61 39 -87t131 -26q66 0 133 25l-9 -45q-67 -25 -145 -25q-104 0 -153 39.5zM433 251l9 45q6 27 6 51
q0 45 -28 68t-92 23q-90 0 -137.5 -46.5t-67.5 -140.5h310z" />
    <glyph glyph-name="eacute" unicode="&#xe9;" horiz-adv-x="525" 
d="M411 680h52l-108 -158h-45zM104 29.5q-49 39.5 -49 121.5q0 37 11 89q51 244 270 244q82 0 122 -37.5t40 -100.5q0 -25 -6 -52l-18 -86h-360q-6 -33 -6 -60q0 -61 39 -87t131 -26q66 0 133 25l-9 -45q-67 -25 -145 -25q-104 0 -153 39.5zM433 251l9 45q6 27 6 51
q0 45 -28 68t-92 23q-90 0 -137.5 -46.5t-67.5 -140.5h310z" />
    <glyph glyph-name="ecircumflex" unicode="&#xea;" horiz-adv-x="525" 
d="M343 656h48l76 -135h-48l-57 103l-101 -103h-51zM104 29.5q-49 39.5 -49 121.5q0 37 11 89q51 244 270 244q82 0 122 -37.5t40 -100.5q0 -25 -6 -52l-18 -86h-360q-6 -33 -6 -60q0 -61 39 -87t131 -26q66 0 133 25l-9 -45q-67 -25 -145 -25q-104 0 -153 39.5zM433 251
l9 45q6 27 6 51q0 45 -28 68t-92 23q-90 0 -137.5 -46.5t-67.5 -140.5h310z" />
    <glyph glyph-name="edieresis" unicode="&#xeb;" horiz-adv-x="525" 
d="M242 603h57l-12 -55h-56zM409 603h56l-12 -55h-56zM104 29.5q-49 39.5 -49 121.5q0 37 11 89q51 244 270 244q82 0 122 -37.5t40 -100.5q0 -25 -6 -52l-18 -86h-360q-6 -33 -6 -60q0 -61 39 -87t131 -26q66 0 133 25l-9 -45q-67 -25 -145 -25q-104 0 -153 39.5zM433 251
l9 45q6 27 6 51q0 45 -28 68t-92 23q-90 0 -137.5 -46.5t-67.5 -140.5h310z" />
    <glyph glyph-name="igrave" unicode="&#xec;" horiz-adv-x="270" 
d="M176 680h52l33 -158h-45zM190 428h-75l14 46h126l-100 -474h-55z" />
    <glyph glyph-name="iacute" unicode="&#xed;" horiz-adv-x="270" 
d="M305 680h52l-108 -158h-45zM190 428h-75l14 46h126l-100 -474h-55z" />
    <glyph glyph-name="icircumflex" unicode="&#xee;" horiz-adv-x="270" 
d="M226 656h48l76 -135h-48l-57 103l-101 -103h-51zM190 428h-75l14 46h126l-100 -474h-55z" />
    <glyph glyph-name="idieresis" unicode="&#xef;" horiz-adv-x="270" 
d="M108 603h57l-12 -55h-56zM275 603h56l-12 -55h-56zM190 428h-75l14 46h126l-100 -474h-55z" />
    <glyph glyph-name="eth" unicode="&#xf0;" horiz-adv-x="570" 
d="M97 29.5q-47 39.5 -47 110.5q0 25 6 55q43 205 262 205q43 0 87.5 -15.5t79.5 -45.5l11 56q13 63 13 102q0 27 -8 51l-153 -61l8 39l128 51q-32 34 -111 34q-80 0 -145 -21l9 44q73 20 151 20q98 0 141 -59l106 43l-8 -39l-82 -33q14 -34 14 -84q0 -44 -10 -91l-34 -160
q-27 -126 -95 -183.5t-183 -57.5q-93 0 -140 39.5zM457 208l18 88q-31 27 -73 44t-85 17q-94 0 -144 -42t-67 -120q-6 -27 -6 -49q0 -113 147 -113q173 0 210 175z" />
    <glyph glyph-name="ntilde" unicode="&#xf1;" horiz-adv-x="559" 
d="M401 552q-16 5 -36 15q-18 8 -30.5 12.5t-25.5 4.5q-51 0 -86 -35l10 47q14 13 37.5 21t46.5 8q18 0 32 -4.5t34 -14.5q18 -9 30.5 -13.5t27.5 -4.5q48 0 80 35l-10 -47q-12 -14 -32.5 -21.5t-44.5 -7.5q-17 0 -33 5zM135 474h48l-7 -58q95 68 206 68q139 0 139 -116
q0 -25 -6 -55l-66 -313h-55l66 312q7 31 7 56q0 38 -24 54t-83 16q-51 0 -102 -18.5t-90 -50.5l-78 -369h-55z" />
    <glyph glyph-name="ograve" unicode="&#xf2;" horiz-adv-x="563" 
d="M297 680h52l33 -158h-45zM99.5 30q-44.5 40 -44.5 119q0 42 10 88q26 124 91.5 185.5t186.5 61.5q185 0 185 -162q0 -41 -10 -85q-26 -125 -91.5 -186t-188.5 -61q-94 0 -138.5 40zM391 85q50 48 72 152q11 50 11 83q0 60 -33 88t-108 28q-92 0 -142 -48t-72 -151
q-11 -52 -11 -86q0 -59 32.5 -86.5t107.5 -27.5q93 0 143 48z" />
    <glyph glyph-name="oacute" unicode="&#xf3;" horiz-adv-x="563" 
d="M433 680h52l-108 -158h-45zM99.5 30q-44.5 40 -44.5 119q0 42 10 88q26 124 91.5 185.5t186.5 61.5q185 0 185 -162q0 -41 -10 -85q-26 -125 -91.5 -186t-188.5 -61q-94 0 -138.5 40zM391 85q50 48 72 152q11 50 11 83q0 60 -33 88t-108 28q-92 0 -142 -48t-72 -151
q-11 -52 -11 -86q0 -59 32.5 -86.5t107.5 -27.5q93 0 143 48z" />
    <glyph glyph-name="ocircumflex" unicode="&#xf4;" horiz-adv-x="563" 
d="M356 656h48l76 -135h-48l-57 103l-101 -103h-51zM99.5 30q-44.5 40 -44.5 119q0 42 10 88q26 124 91.5 185.5t186.5 61.5q185 0 185 -162q0 -41 -10 -85q-26 -125 -91.5 -186t-188.5 -61q-94 0 -138.5 40zM391 85q50 48 72 152q11 50 11 83q0 60 -33 88t-108 28
q-92 0 -142 -48t-72 -151q-11 -52 -11 -86q0 -59 32.5 -86.5t107.5 -27.5q93 0 143 48z" />
    <glyph glyph-name="otilde" unicode="&#xf5;" horiz-adv-x="563" 
d="M395 554q-16 5 -36 15q-18 8 -30.5 12.5t-25.5 4.5q-51 0 -86 -35l10 47q14 13 37.5 21t46.5 8q18 0 32 -4.5t34 -14.5q18 -9 30.5 -13.5t27.5 -4.5q48 0 80 35l-10 -47q-12 -14 -32.5 -21.5t-44.5 -7.5q-17 0 -33 5zM99.5 30q-44.5 40 -44.5 119q0 42 10 88
q26 124 91.5 185.5t186.5 61.5q185 0 185 -162q0 -41 -10 -85q-26 -125 -91.5 -186t-188.5 -61q-94 0 -138.5 40zM391 85q50 48 72 152q11 50 11 83q0 60 -33 88t-108 28q-92 0 -142 -48t-72 -151q-11 -52 -11 -86q0 -59 32.5 -86.5t107.5 -27.5q93 0 143 48z" />
    <glyph glyph-name="odieresis" unicode="&#xf6;" horiz-adv-x="563" 
d="M257 603h57l-12 -55h-56zM424 603h56l-12 -55h-56zM99.5 30q-44.5 40 -44.5 119q0 42 10 88q26 124 91.5 185.5t186.5 61.5q185 0 185 -162q0 -41 -10 -85q-26 -125 -91.5 -186t-188.5 -61q-94 0 -138.5 40zM391 85q50 48 72 152q11 50 11 83q0 60 -33 88t-108 28
q-92 0 -142 -48t-72 -151q-11 -52 -11 -86q0 -59 32.5 -86.5t107.5 -27.5q93 0 143 48z" />
    <glyph glyph-name="divide" unicode="&#xf7;" horiz-adv-x="481" 
d="M266 442h54l-11 -54h-54zM74 280h371l-10 -45h-371zM201 133h54l-12 -54h-54z" />
    <glyph glyph-name="oslash" unicode="&#xf8;" horiz-adv-x="563" 
d="M140 5q-86 34 -86 143q0 37 11 89q26 124 91.5 185.5t186.5 61.5q39 0 67 -7l29 51h49l-37 -65q77 -36 77 -141q0 -33 -10 -85q-26 -125 -91.5 -186t-188.5 -61q-22 0 -56 4l-27 -48h-49zM384 432q-30 4 -51 4q-92 0 -142 -48t-72 -151q-11 -52 -11 -86q0 -39 13.5 -63.5
t43.5 -37.5zM391 85q50 48 72 152q10 44 10 83q0 73 -48 98l-217 -379q24 -2 40 -2q93 0 143 48z" />
    <glyph glyph-name="ugrave" unicode="&#xf9;" horiz-adv-x="559" 
d="M292 680h52l33 -158h-45zM96 23q-36 33 -36 95q0 26 6 56l64 300h55l-64 -302q-6 -28 -6 -51q0 -46 28 -66t90 -20q48 0 93.5 18.5t84.5 50.5l78 370h55l-100 -474h-49l7 58q-45 -33 -94 -50.5t-108 -17.5q-68 0 -104 33z" />
    <glyph glyph-name="uacute" unicode="&#xfa;" horiz-adv-x="559" 
d="M414 680h52l-108 -158h-45zM96 23q-36 33 -36 95q0 26 6 56l64 300h55l-64 -302q-6 -28 -6 -51q0 -46 28 -66t90 -20q48 0 93.5 18.5t84.5 50.5l78 370h55l-100 -474h-49l7 58q-45 -33 -94 -50.5t-108 -17.5q-68 0 -104 33z" />
    <glyph glyph-name="ucircumflex" unicode="&#xfb;" horiz-adv-x="559" 
d="M351 656h48l76 -135h-48l-57 103l-101 -103h-51zM96 23q-36 33 -36 95q0 26 6 56l64 300h55l-64 -302q-6 -28 -6 -51q0 -46 28 -66t90 -20q48 0 93.5 18.5t84.5 50.5l78 370h55l-100 -474h-49l7 58q-45 -33 -94 -50.5t-108 -17.5q-68 0 -104 33z" />
    <glyph glyph-name="udieresis" unicode="&#xfc;" horiz-adv-x="559" 
d="M249 601h57l-12 -55h-56zM416 601h56l-12 -55h-56zM96 23q-36 33 -36 95q0 26 6 56l64 300h55l-64 -302q-6 -28 -6 -51q0 -46 28 -66t90 -20q48 0 93.5 18.5t84.5 50.5l78 370h55l-100 -474h-49l7 58q-45 -33 -94 -50.5t-108 -17.5q-68 0 -104 33z" />
    <glyph glyph-name="yacute" unicode="&#xfd;" horiz-adv-x="566" 
d="M430 680h52l-108 -158h-45zM116 -173q-34 3 -51 7l10 48q19 -6 48.5 -9t53.5 -3q82 0 139.5 31.5t71.5 90.5l14 66q-45 -33 -94 -50.5t-108 -17.5q-68 0 -104 33t-36 95q0 26 6 56l64 300h55l-64 -302q-6 -28 -6 -51q0 -46 28 -66t90 -20q48 0 93.5 18.5t84.5 50.5
l78 370h55l-101 -477q-11 -52 -50 -91t-96 -60.5t-120 -21.5q-27 0 -61 3z" />
    <glyph glyph-name="thorn" unicode="&#xfe;" horiz-adv-x="564" 
d="M183 700h55l-58 -272q41 29 84.5 42.5t94.5 13.5q81 0 125.5 -40t44.5 -122q0 -40 -10 -84q-26 -125 -96 -186.5t-173 -61.5q-50 0 -86 11.5t-66 37.5l-54 -255h-55zM389 84q54 49 76 154q10 44 10 82q0 60 -33 89t-105 29q-95 0 -168 -64l-61 -286q50 -53 138 -53
q89 0 143 49z" />
    <glyph glyph-name="ydieresis" unicode="&#xff;" horiz-adv-x="566" 
d="M272 606h57l-12 -55h-56zM439 606h56l-12 -55h-56zM116 -173q-34 3 -51 7l10 48q19 -6 48.5 -9t53.5 -3q82 0 139.5 31.5t71.5 90.5l14 66q-45 -33 -94 -50.5t-108 -17.5q-68 0 -104 33t-36 95q0 26 6 56l64 300h55l-64 -302q-6 -28 -6 -51q0 -46 28 -66t90 -20
q48 0 93.5 18.5t84.5 50.5l78 370h55l-101 -477q-11 -52 -50 -91t-96 -60.5t-120 -21.5q-27 0 -61 3z" />
    <glyph glyph-name="Amacron" unicode="&#x100;" horiz-adv-x="667" 
d="M316 757h276l-9 -42h-276zM395 644h70l107 -644h-53l-32 188h-302l-110 -188h-60zM484 233l-61 367l-216 -367h277z" />
    <glyph glyph-name="amacron" unicode="&#x101;" horiz-adv-x="531" 
d="M224 591h276l-9 -42h-276zM52 143q0 35 9 78q27 126 102.5 194.5t175.5 68.5q49 0 82.5 -11.5t64.5 -38.5l8 40h55l-100 -474h-46l6 53q-42 -32 -86.5 -47.5t-98.5 -15.5q-172 0 -172 153zM415 99l61 287q-25 26 -55 39t-75 13q-89 0 -149 -56t-82 -161q-9 -42 -9 -74
q0 -60 33.5 -86t107.5 -26q94 0 168 64z" />
    <glyph glyph-name="Abreve" unicode="&#x102;" horiz-adv-x="667" 
d="M371.5 709.5q-23.5 22.5 -23.5 60.5q0 13 3 28h40q-3 -13 -3 -24q0 -48 56 -48q32 0 55.5 19t30.5 53h44q-11 -50 -47 -80.5t-89 -30.5q-43 0 -66.5 22.5zM395 644h70l107 -644h-53l-32 188h-302l-110 -188h-60zM484 233l-61 367l-216 -367h277z" />
    <glyph glyph-name="abreve" unicode="&#x103;" horiz-adv-x="531" 
d="M288.5 543.5q-23.5 22.5 -23.5 60.5q0 13 3 28h40q-3 -13 -3 -24q0 -48 56 -48q32 0 55.5 19t30.5 53h44q-11 -50 -47 -80.5t-89 -30.5q-43 0 -66.5 22.5zM52 143q0 35 9 78q27 126 102.5 194.5t175.5 68.5q49 0 82.5 -11.5t64.5 -38.5l8 40h55l-100 -474h-46l6 53
q-42 -32 -86.5 -47.5t-98.5 -15.5q-172 0 -172 153zM415 99l61 287q-25 26 -55 39t-75 13q-89 0 -149 -56t-82 -161q-9 -42 -9 -74q0 -60 33.5 -86t107.5 -26q94 0 168 64z" />
    <glyph glyph-name="Aogonek" unicode="&#x104;" horiz-adv-x="667" 
d="M440.5 -205q-20.5 15 -20.5 47q0 43 29.5 86.5t69.5 71.5l-32 188h-302l-110 -188h-60l380 644h70l107 -644q-42 -27 -67.5 -60t-33.5 -68q-2 -7 -2 -18q0 -18 10.5 -25.5t33.5 -7.5q30 0 52 11l-9 -41q-23 -11 -60 -11q-35 0 -55.5 15zM484 233l-61 367l-216 -367h277z
" />
    <glyph glyph-name="aogonek" unicode="&#x105;" horiz-adv-x="560" 
d="M317.5 -205q-20.5 15 -20.5 47q0 44 31 88t75 70l6 53q-42 -32 -86.5 -47.5t-98.5 -15.5q-172 0 -172 153q0 35 9 78q27 126 102.5 194.5t175.5 68.5q49 0 82.5 -11.5t64.5 -38.5l8 40h55l-100 -474q-42 -27 -67.5 -60t-33.5 -68q-2 -7 -2 -18q0 -18 10.5 -25.5
t33.5 -7.5q30 0 52 11l-9 -41q-23 -11 -60 -11q-35 0 -55.5 15zM415 99l61 287q-25 26 -55 39t-75 13q-89 0 -149 -56t-82 -161q-9 -42 -9 -74q0 -60 33.5 -86t107.5 -26q94 0 168 64z" />
    <glyph glyph-name="Cacute" unicode="&#x106;" horiz-adv-x="589" 
d="M521 846h52l-108 -158h-45zM127.5 47q-59.5 57 -59.5 159q0 43 11 98q36 167 124 258.5t246 91.5q101 0 177 -29l-10 -49q-74 30 -173 30q-133 0 -206 -77.5t-104 -224.5q-12 -52 -12 -96q0 -84 48.5 -127.5t155.5 -43.5q46 0 94 7t88 20l-10 -49q-86 -25 -189 -25
q-121 0 -180.5 57z" />
    <glyph glyph-name="cacute" unicode="&#x107;" horiz-adv-x="483" 
d="M415 680h52l-108 -158h-45zM104 33.5q-48 43.5 -48 125.5q0 36 9 78q26 122 103.5 184.5t191.5 62.5q43 0 70 -6t54 -20l-10 -45q-47 25 -114 25q-95 0 -157 -49.5t-84 -151.5q-10 -50 -10 -79q0 -64 38 -93.5t123 -29.5q65 0 130 26l-9 -46q-66 -25 -144 -25
q-95 0 -143 43.5z" />
    <glyph glyph-name="Ccircumflex" unicode="&#x108;" horiz-adv-x="589" 
d="M445 822h48l76 -135h-48l-57 103l-101 -103h-51zM127.5 47q-59.5 57 -59.5 159q0 43 11 98q36 167 124 258.5t246 91.5q101 0 177 -29l-10 -49q-74 30 -173 30q-133 0 -206 -77.5t-104 -224.5q-12 -52 -12 -96q0 -84 48.5 -127.5t155.5 -43.5q46 0 94 7t88 20l-10 -49
q-86 -25 -189 -25q-121 0 -180.5 57z" />
    <glyph glyph-name="ccircumflex" unicode="&#x109;" horiz-adv-x="483" 
d="M350 656h48l76 -135h-48l-57 103l-101 -103h-51zM104 33.5q-48 43.5 -48 125.5q0 36 9 78q26 122 103.5 184.5t191.5 62.5q43 0 70 -6t54 -20l-10 -45q-47 25 -114 25q-95 0 -157 -49.5t-84 -151.5q-10 -50 -10 -79q0 -64 38 -93.5t123 -29.5q65 0 130 26l-9 -46
q-66 -25 -144 -25q-95 0 -143 43.5z" />
    <glyph glyph-name="Cdotaccent" unicode="&#x10a;" horiz-adv-x="589" 
d="M444 770h57l-12 -56h-57zM127.5 47q-59.5 57 -59.5 159q0 43 11 98q36 167 124 258.5t246 91.5q101 0 177 -29l-10 -49q-74 30 -173 30q-133 0 -206 -77.5t-104 -224.5q-12 -52 -12 -96q0 -84 48.5 -127.5t155.5 -43.5q46 0 94 7t88 20l-10 -49q-86 -25 -189 -25
q-121 0 -180.5 57z" />
    <glyph glyph-name="cdotaccent" unicode="&#x10b;" horiz-adv-x="483" 
d="M341 604h57l-12 -56h-57zM104 33.5q-48 43.5 -48 125.5q0 36 9 78q26 122 103.5 184.5t191.5 62.5q43 0 70 -6t54 -20l-10 -45q-47 25 -114 25q-95 0 -157 -49.5t-84 -151.5q-10 -50 -10 -79q0 -64 38 -93.5t123 -29.5q65 0 130 26l-9 -46q-66 -25 -144 -25
q-95 0 -143 43.5z" />
    <glyph glyph-name="Ccaron" unicode="&#x10c;" horiz-adv-x="589" 
d="M365 822h47l57 -103l101 103h52l-134 -135h-48zM127.5 47q-59.5 57 -59.5 159q0 43 11 98q36 167 124 258.5t246 91.5q101 0 177 -29l-10 -49q-74 30 -173 30q-133 0 -206 -77.5t-104 -224.5q-12 -52 -12 -96q0 -84 48.5 -127.5t155.5 -43.5q46 0 94 7t88 20l-10 -49
q-86 -25 -189 -25q-121 0 -180.5 57z" />
    <glyph glyph-name="ccaron" unicode="&#x10d;" horiz-adv-x="483" 
d="M244 656h47l57 -103l101 103h52l-134 -135h-48zM104 33.5q-48 43.5 -48 125.5q0 36 9 78q26 122 103.5 184.5t191.5 62.5q43 0 70 -6t54 -20l-10 -45q-47 25 -114 25q-95 0 -157 -49.5t-84 -151.5q-10 -50 -10 -79q0 -64 38 -93.5t123 -29.5q65 0 130 26l-9 -46
q-66 -25 -144 -25q-95 0 -143 43.5z" />
    <glyph glyph-name="Dcaron" unicode="&#x10e;" horiz-adv-x="632" 
d="M314 844h47l57 -103l101 103h52l-134 -135h-48zM171 644h240q108 0 159 -45.5t51 -144.5q0 -57 -17 -137q-25 -114 -62 -182.5t-100.5 -101.5t-164.5 -33h-242zM274 44q79 0 130 22.5t86.5 82t58.5 168.5q19 90 19 142q0 78 -41 109t-135 31h-175l-118 -555h175z" />
    <glyph glyph-name="dcaron" unicode="&#x10f;" horiz-adv-x="685" 
d="M719 708h51l-109 -161h-44zM99 29.5q-45 39.5 -45 121.5q0 38 10 82q27 126 97 188.5t173 62.5q49 0 85.5 -11.5t66.5 -38.5l51 240h55l-143 -674h-46l6 53q-42 -32 -86.5 -47.5t-98.5 -15.5q-80 0 -125 39.5zM415 99l61 287q-25 26 -57 39t-79 13q-89 0 -144.5 -50
t-77.5 -155q-9 -40 -9 -74q0 -124 138 -124q94 0 168 64z" />
    <glyph glyph-name="Dcroat" unicode="&#x110;" horiz-adv-x="663" 
d="M128 294h-81l10 45h80l65 305h240q108 0 159 -45.5t51 -144.5q0 -57 -17 -137q-25 -114 -62 -182.5t-100.5 -101.5t-164.5 -33h-242zM305 44q79 0 130 22.5t86.5 82t58.5 168.5q19 90 19 142q0 78 -41 109t-135 31h-175l-56 -260h191l-10 -45h-190l-53 -250h175z" />
    <glyph glyph-name="dcroat" unicode="&#x111;" horiz-adv-x="573" 
d="M99.5 30q-45.5 40 -45.5 122q0 31 10 81q27 126 97 188.5t173 62.5q49 0 85.5 -11.5t66.5 -38.5l26 122h-176l9 45h176l16 73h55l-16 -73h59l-9 -45h-59l-118 -556h-46l6 53q-42 -32 -86.5 -47.5t-98.5 -15.5q-79 0 -124.5 40zM415 99l61 287q-25 26 -57 39t-79 13
q-86 0 -143 -50.5t-79 -154.5q-10 -50 -10 -79q0 -61 33.5 -90t105.5 -29q94 0 168 64z" />
    <glyph glyph-name="Emacron" unicode="&#x112;" horiz-adv-x="541" 
d="M264 761h276l-9 -42h-276zM171 644h421l-9 -45h-366l-54 -255h331l-10 -44h-331l-54 -256h366l-9 -44h-421z" />
    <glyph glyph-name="emacron" unicode="&#x113;" horiz-adv-x="525" 
d="M234 595h276l-9 -42h-276zM104 29.5q-49 39.5 -49 121.5q0 37 11 89q51 244 270 244q82 0 122 -37.5t40 -100.5q0 -25 -6 -52l-18 -86h-360q-6 -33 -6 -60q0 -61 39 -87t131 -26q66 0 133 25l-9 -45q-67 -25 -145 -25q-104 0 -153 39.5zM433 251l9 45q6 27 6 51
q0 45 -28 68t-92 23q-90 0 -137.5 -46.5t-67.5 -140.5h310z" />
    <glyph glyph-name="Ebreve" unicode="&#x114;" horiz-adv-x="541" 
d="M329.5 709.5q-23.5 22.5 -23.5 60.5q0 13 3 28h40q-3 -13 -3 -24q0 -48 56 -48q32 0 55.5 19t30.5 53h44q-11 -50 -47 -80.5t-89 -30.5q-43 0 -66.5 22.5zM171 644h421l-9 -45h-366l-54 -255h331l-10 -44h-331l-54 -256h366l-9 -44h-421z" />
    <glyph glyph-name="ebreve" unicode="&#x115;" horiz-adv-x="525" 
d="M275.5 543.5q-23.5 22.5 -23.5 60.5q0 13 3 28h40q-3 -13 -3 -24q0 -48 56 -48q32 0 55.5 19t30.5 53h44q-11 -50 -47 -80.5t-89 -30.5q-43 0 -66.5 22.5zM104 29.5q-49 39.5 -49 121.5q0 37 11 89q51 244 270 244q82 0 122 -37.5t40 -100.5q0 -25 -6 -52l-18 -86h-360
q-6 -33 -6 -60q0 -61 39 -87t131 -26q66 0 133 25l-9 -45q-67 -25 -145 -25q-104 0 -153 39.5zM433 251l9 45q6 27 6 51q0 45 -28 68t-92 23q-90 0 -137.5 -46.5t-67.5 -140.5h310z" />
    <glyph glyph-name="Edotaccent" unicode="&#x116;" horiz-adv-x="541" 
d="M379 770h57l-12 -56h-57zM171 644h421l-9 -45h-366l-54 -255h331l-10 -44h-331l-54 -256h366l-9 -44h-421z" />
    <glyph glyph-name="edotaccent" unicode="&#x117;" horiz-adv-x="525" 
d="M329 604h57l-12 -56h-57zM104 29.5q-49 39.5 -49 121.5q0 37 11 89q51 244 270 244q82 0 122 -37.5t40 -100.5q0 -25 -6 -52l-18 -86h-360q-6 -33 -6 -60q0 -61 39 -87t131 -26q66 0 133 25l-9 -45q-67 -25 -145 -25q-104 0 -153 39.5zM433 251l9 45q6 27 6 51
q0 45 -28 68t-92 23q-90 0 -137.5 -46.5t-67.5 -140.5h310z" />
    <glyph glyph-name="Eogonek" unicode="&#x118;" horiz-adv-x="541" 
d="M301.5 -205q-20.5 15 -20.5 47q0 44 31 88t75 70h-352l136 644h421l-9 -45h-366l-54 -255h331l-10 -44h-331l-54 -256h366l-9 -44h-23q-42 -27 -67.5 -60t-33.5 -68q-2 -7 -2 -18q0 -18 10.5 -25.5t33.5 -7.5q30 0 52 11l-9 -41q-23 -11 -60 -11q-35 0 -55.5 15z" />
    <glyph glyph-name="eogonek" unicode="&#x119;" horiz-adv-x="525" 
d="M218.5 -205q-20.5 15 -20.5 47q0 41 26.5 81t65.5 68q-11 -1 -33 -1q-104 0 -153 39.5t-49 121.5q0 37 11 89q51 244 270 244q82 0 122 -37.5t40 -100.5q0 -25 -6 -52l-18 -86h-360q-6 -33 -6 -60q0 -61 39 -87t131 -26q66 0 133 25l-9 -45q-26 -9 -52 -15
q-42 -27 -67.5 -60t-33.5 -68q-2 -7 -2 -18q0 -18 10.5 -25.5t33.5 -7.5q30 0 52 11l-9 -41q-23 -11 -60 -11q-35 0 -55.5 15zM433 251l9 45q6 27 6 51q0 45 -28 68t-92 23q-90 0 -137.5 -46.5t-67.5 -140.5h310z" />
    <glyph glyph-name="Ecaron" unicode="&#x11a;" horiz-adv-x="541" 
d="M298 822h47l57 -103l101 103h52l-134 -135h-48zM171 644h421l-9 -45h-366l-54 -255h331l-10 -44h-331l-54 -256h366l-9 -44h-421z" />
    <glyph glyph-name="ecaron" unicode="&#x11b;" horiz-adv-x="525" 
d="M249 656h47l57 -103l101 103h52l-134 -135h-48zM104 29.5q-49 39.5 -49 121.5q0 37 11 89q51 244 270 244q82 0 122 -37.5t40 -100.5q0 -25 -6 -52l-18 -86h-360q-6 -33 -6 -60q0 -61 39 -87t131 -26q66 0 133 25l-9 -45q-67 -25 -145 -25q-104 0 -153 39.5zM433 251
l9 45q6 27 6 51q0 45 -28 68t-92 23q-90 0 -137.5 -46.5t-67.5 -140.5h310z" />
    <glyph glyph-name="Gcircumflex" unicode="&#x11c;" horiz-adv-x="633" 
d="M463 822h48l76 -135h-48l-57 103l-101 -103h-51zM128.5 48q-60.5 58 -60.5 162q0 42 11 94q36 166 126 258t244 92q102 0 178 -27l-11 -49q-77 28 -172 28q-132 0 -206 -78t-105 -224q-12 -55 -12 -100q0 -83 47.5 -125t155.5 -42q46 0 94 8t84 22l48 229h-183l10 44h233
l-64 -301q-36 -21 -95.5 -35t-142.5 -14q-119 0 -179.5 58z" />
    <glyph glyph-name="gcircumflex" unicode="&#x11d;" horiz-adv-x="542" 
d="M343 656h48l76 -135h-48l-57 103l-101 -103h-51zM139 -173q-34 3 -51 7l10 48q19 -6 48.5 -9t53.5 -3q78 0 128.5 31t63.5 91l12 57q-40 -26 -81 -37.5t-92 -11.5q-83 0 -129 38t-46 119q0 34 9 79q26 127 93.5 187.5t170.5 60.5q54 0 92 -15.5t66 -48.5l16 54h46
l-101 -477q-17 -80 -82.5 -126.5t-165.5 -46.5q-27 0 -61 3zM414 98l59 276q-47 64 -140 64q-90 0 -141.5 -49.5t-72.5 -152.5q-10 -50 -10 -77q0 -61 34.5 -87.5t110.5 -26.5q89 0 160 53z" />
    <glyph glyph-name="Gbreve" unicode="&#x11e;" horiz-adv-x="633" 
d="M388.5 709.5q-23.5 22.5 -23.5 60.5q0 13 3 28h40q-3 -13 -3 -24q0 -48 56 -48q32 0 55.5 19t30.5 53h44q-11 -50 -47 -80.5t-89 -30.5q-43 0 -66.5 22.5zM128.5 48q-60.5 58 -60.5 162q0 42 11 94q36 166 126 258t244 92q102 0 178 -27l-11 -49q-77 28 -172 28
q-132 0 -206 -78t-105 -224q-12 -55 -12 -100q0 -83 47.5 -125t155.5 -42q46 0 94 8t84 22l48 229h-183l10 44h233l-64 -301q-36 -21 -95.5 -35t-142.5 -14q-119 0 -179.5 58z" />
    <glyph glyph-name="gbreve" unicode="&#x11f;" horiz-adv-x="542" 
d="M276.5 543.5q-23.5 22.5 -23.5 60.5q0 13 3 28h40q-3 -13 -3 -24q0 -48 56 -48q32 0 55.5 19t30.5 53h44q-11 -50 -47 -80.5t-89 -30.5q-43 0 -66.5 22.5zM139 -173q-34 3 -51 7l10 48q19 -6 48.5 -9t53.5 -3q78 0 128.5 31t63.5 91l12 57q-40 -26 -81 -37.5t-92 -11.5
q-83 0 -129 38t-46 119q0 34 9 79q26 127 93.5 187.5t170.5 60.5q54 0 92 -15.5t66 -48.5l16 54h46l-101 -477q-17 -80 -82.5 -126.5t-165.5 -46.5q-27 0 -61 3zM414 98l59 276q-47 64 -140 64q-90 0 -141.5 -49.5t-72.5 -152.5q-10 -50 -10 -77q0 -61 34.5 -87.5
t110.5 -26.5q89 0 160 53z" />
    <glyph glyph-name="Gdotaccent" unicode="&#x120;" horiz-adv-x="633" 
d="M445 770h57l-12 -56h-57zM128.5 48q-60.5 58 -60.5 162q0 42 11 94q36 166 126 258t244 92q102 0 178 -27l-11 -49q-77 28 -172 28q-132 0 -206 -78t-105 -224q-12 -55 -12 -100q0 -83 47.5 -125t155.5 -42q46 0 94 8t84 22l48 229h-183l10 44h233l-64 -301
q-36 -21 -95.5 -35t-142.5 -14q-119 0 -179.5 58z" />
    <glyph glyph-name="gdotaccent" unicode="&#x121;" horiz-adv-x="542" 
d="M327 601h57l-12 -56h-57zM139 -173q-34 3 -51 7l10 48q19 -6 48.5 -9t53.5 -3q78 0 128.5 31t63.5 91l12 57q-40 -26 -81 -37.5t-92 -11.5q-83 0 -129 38t-46 119q0 34 9 79q26 127 93.5 187.5t170.5 60.5q54 0 92 -15.5t66 -48.5l16 54h46l-101 -477
q-17 -80 -82.5 -126.5t-165.5 -46.5q-27 0 -61 3zM414 98l59 276q-47 64 -140 64q-90 0 -141.5 -49.5t-72.5 -152.5q-10 -50 -10 -77q0 -61 34.5 -87.5t110.5 -26.5q89 0 160 53z" />
    <glyph glyph-name="Gcommaaccent" unicode="&#x122;" horiz-adv-x="633" 
d="M128.5 48q-60.5 58 -60.5 162q0 42 11 94q36 166 126 258t244 92q102 0 178 -27l-11 -49q-77 28 -172 28q-132 0 -206 -78t-105 -224q-12 -55 -12 -100q0 -83 47.5 -125t155.5 -42q46 0 94 8t84 22l48 229h-183l10 44h233l-64 -301q-36 -21 -95.5 -35t-142.5 -14
q-119 0 -179.5 58zM288 -42h53l-73 -165h-41z" />
    <glyph glyph-name="gcommaaccent" unicode="&#x123;" horiz-adv-x="542" 
d="M368 687h41l-61 -165h-53zM139 -173q-34 3 -51 7l10 48q19 -6 48.5 -9t53.5 -3q78 0 128.5 31t63.5 91l12 57q-40 -26 -81 -37.5t-92 -11.5q-83 0 -129 38t-46 119q0 34 9 79q26 127 93.5 187.5t170.5 60.5q54 0 92 -15.5t66 -48.5l16 54h46l-101 -477
q-17 -80 -82.5 -126.5t-165.5 -46.5q-27 0 -61 3zM414 98l59 276q-47 64 -140 64q-90 0 -141.5 -49.5t-72.5 -152.5q-10 -50 -10 -77q0 -61 34.5 -87.5t110.5 -26.5q89 0 160 53z" />
    <glyph glyph-name="Hcircumflex" unicode="&#x124;" horiz-adv-x="630" 
d="M425 822h48l76 -135h-48l-57 103l-101 -103h-51zM171 644h55l-63 -300h370l63 300h55l-136 -644h-55l63 300h-370l-63 -300h-55z" />
    <glyph glyph-name="hcircumflex" unicode="&#x125;" horiz-adv-x="559" 
d="M320 834h48l76 -135h-48l-57 103l-101 -103h-51zM178 674h55l-55 -257q45 32 94.5 49.5t109.5 17.5q139 0 139 -116q0 -25 -6 -55l-66 -313h-55l66 312q6 29 6 51q0 40 -26 57.5t-88 17.5q-47 0 -96 -19t-88 -51l-78 -368h-55z" />
    <glyph glyph-name="Hbar" unicode="&#x126;" horiz-adv-x="671" 
d="M148 471h-70l9 45h71l27 128h55l-27 -128h370l27 128h55l-27 -128h70l-9 -45h-71l-99 -471h-55l63 300h-370l-63 -300h-55zM547 344l26 127h-370l-26 -127h370z" />
    <glyph glyph-name="hbar" unicode="&#x127;" horiz-adv-x="581" 
d="M173 548h-62l10 45h62l17 81h55l-18 -81h176l-10 -45h-175l-28 -131q45 32 94.5 49.5t109.5 17.5q139 0 139 -116q0 -25 -6 -55l-66 -313h-55l66 312q6 29 6 51q0 40 -26 57.5t-88 17.5q-47 0 -96 -19t-88 -51l-78 -368h-55z" />
    <glyph glyph-name="Itilde" unicode="&#x128;" horiz-adv-x="205" 
d="M246 695q-16 5 -36 15q-18 8 -30.5 12.5t-25.5 4.5q-51 0 -86 -35l10 47q14 13 37.5 21t46.5 8q18 0 32 -4.5t34 -14.5q18 -9 30.5 -13.5t27.5 -4.5q48 0 80 35l-10 -47q-12 -14 -32.5 -21.5t-44.5 -7.5q-17 0 -33 5zM171 644h55l-136 -644h-55z" />
    <glyph glyph-name="itilde" unicode="&#x129;" horiz-adv-x="270" 
d="M238 529q-16 5 -36 15q-18 8 -30.5 12.5t-25.5 4.5q-51 0 -86 -35l10 47q14 13 37.5 21t46.5 8q18 0 32 -4.5t34 -14.5q18 -9 30.5 -13.5t27.5 -4.5q48 0 80 35l-10 -47q-12 -14 -32.5 -21.5t-44.5 -7.5q-17 0 -33 5zM190 428h-75l14 46h126l-100 -474h-55z" />
    <glyph glyph-name="Imacron" unicode="&#x12a;" horiz-adv-x="205" 
d="M86 761h277l-9 -42h-277zM171 644h55l-136 -644h-55z" />
    <glyph glyph-name="imacron" unicode="&#x12b;" horiz-adv-x="270" 
d="M76 598h277l-9 -42h-277zM190 428h-75l14 46h126l-100 -474h-55z" />
    <glyph glyph-name="Ibreve" unicode="&#x12c;" horiz-adv-x="205" 
d="M141.5 713.5q-23.5 22.5 -23.5 60.5q0 13 3 28h40q-3 -13 -3 -24q0 -48 56 -48q32 0 55.5 19t30.5 53h44q-11 -50 -47 -80.5t-89 -30.5q-43 0 -66.5 22.5zM171 644h55l-136 -644h-55z" />
    <glyph glyph-name="ibreve" unicode="&#x12d;" horiz-adv-x="270" 
d="M151.5 543.5q-23.5 22.5 -23.5 60.5q0 14 3 27h39q-2 -8 -2 -22q0 -24 14 -37t42 -13q33 0 56 19.5t30 52.5h43q-10 -49 -47 -79.5t-88 -30.5q-43 0 -66.5 22.5zM190 428h-75l14 46h126l-100 -474h-55z" />
    <glyph glyph-name="Iogonek" unicode="&#x12e;" horiz-adv-x="205" 
d="M-41.5 -205q-20.5 15 -20.5 47q0 43 29.5 86.5t67.5 71.5l136 644h55l-136 -644q-42 -27 -67.5 -60t-33.5 -68q-2 -7 -2 -18q0 -18 10.5 -25.5t33.5 -7.5q30 0 52 11l-9 -41q-23 -11 -60 -11q-35 0 -55.5 15z" />
    <glyph glyph-name="iogonek" unicode="&#x12f;" horiz-adv-x="270" 
d="M231 657h63l-13 -60h-63zM22.5 -205q-20.5 15 -20.5 47q0 43 29.5 86.5t67.5 71.5l90 428h-74l16 46h123l-100 -474q-42 -27 -67.5 -60t-33.5 -68q-2 -7 -2 -18q0 -18 10.5 -25.5t33.5 -7.5q30 0 52 11l-9 -41q-23 -11 -60 -11q-35 0 -55.5 15z" />
    <glyph glyph-name="Idotaccent" unicode="&#x130;" horiz-adv-x="205" 
d="M197 771h57l-12 -56h-57zM171 644h55l-136 -644h-55z" />
    <glyph glyph-name="dotlessi" unicode="&#x131;" horiz-adv-x="270" 
d="M190 428h-75l14 46h126l-100 -474h-55z" />
    <glyph glyph-name="IJ" unicode="&#x132;" horiz-adv-x="602" 
d="M171 644h55l-136 -644h-55zM180 13l10 48q22 -11 53.5 -17.5t64.5 -6.5q70 0 110 31.5t54 99.5l101 476h55l-101 -479q-18 -87 -71.5 -131t-150.5 -44q-72 0 -125 23z" />
    <glyph glyph-name="ij" unicode="&#x133;" horiz-adv-x="469" 
d="M231 657h63l-13 -60h-63zM430 657h63l-13 -60h-63zM92 -222l10 45q29 -10 59 -10q55 0 80.5 20.5t34.5 67.5l112 527h-74l16 46h123l-122 -576q-28 -132 -162 -132q-46 0 -77 12zM189 428h-74l16 46h123l-100 -474h-55z" />
    <glyph glyph-name="Jcircumflex" unicode="&#x134;" horiz-adv-x="419" 
d="M429 822h48l76 -135h-48l-57 103l-101 -103h-51zM-3 13l10 48q22 -11 53.5 -17.5t64.5 -6.5q70 0 110 31.5t54 99.5l101 476h55l-101 -479q-18 -87 -71.5 -131t-150.5 -44q-72 0 -125 23z" />
    <glyph glyph-name="jcircumflex" unicode="&#x135;" horiz-adv-x="269" 
d="M220 656h48l76 -135h-48l-57 103l-101 -103h-51zM-107 -222l10 45q29 -10 59 -10q54 0 80 21t35 67l112 527h-74l16 46h123l-122 -576q-14 -62 -56.5 -97t-105.5 -35q-46 0 -77 12z" />
    <glyph glyph-name="Kcommaaccent" unicode="&#x136;" horiz-adv-x="585" 
d="M171 644h55l-72 -342l399 342h67l-299 -256l169 -388h-60l-151 352l-140 -121l-49 -231h-55zM219 -37h53l-73 -165h-41z" />
    <glyph glyph-name="kcommaaccent" unicode="&#x137;" horiz-adv-x="506" 
d="M178 674h55l-91 -428l292 228h66l-234 -185l145 -289h-58l-130 258l-94 -74l-39 -184h-55zM178 -37h53l-73 -165h-41z" />
    <glyph glyph-name="kgreenlandic" unicode="&#x138;" horiz-adv-x="506" 
d="M135 474h55l-53 -249l297 249h66l-237 -200l148 -274h-58l-132 243l-97 -82l-34 -161h-55z" />
    <glyph glyph-name="Lacute" unicode="&#x139;" horiz-adv-x="521" 
d="M284 846h52l-108 -158h-45zM171 644h55l-127 -600h356l-9 -44h-411z" />
    <glyph glyph-name="lacute" unicode="&#x13a;" horiz-adv-x="246" 
d="M291 881h52l-108 -158h-45zM67.5 4.5q-17.5 14.5 -17.5 48.5q0 19 4 38l124 583h55l-124 -581q-4 -22 -4 -28q0 -16 8 -22t26 -6q22 0 46 6l-10 -46q-22 -7 -55 -7q-35 0 -52.5 14.5z" />
    <glyph glyph-name="Lcommaaccent" unicode="&#x13b;" horiz-adv-x="521" 
d="M171 644h55l-127 -600h356l-9 -44h-411zM203 -37h53l-73 -165h-41z" />
    <glyph glyph-name="lcommaaccent" unicode="&#x13c;" horiz-adv-x="246" 
d="M67.5 4.5q-17.5 14.5 -17.5 48.5q0 19 4 38l124 583h55l-124 -581q-4 -22 -4 -28q0 -16 8 -22t26 -6q22 0 46 6l-10 -46q-22 -7 -55 -7q-35 0 -52.5 14.5zM87 -37h53l-73 -165h-41z" />
    <glyph glyph-name="Lcaron" unicode="&#x13d;" horiz-adv-x="521" 
d="M433 735h53l-73 -165h-41zM171 644h55l-127 -600h356l-9 -44h-411z" />
    <glyph glyph-name="lcaron" unicode="&#x13e;" horiz-adv-x="296" 
d="M346 794h53l-73 -165h-41zM67.5 4.5q-17.5 14.5 -17.5 48.5q0 19 4 38l124 583h55l-124 -581q-4 -22 -4 -28q0 -16 8 -22t26 -6q22 0 46 6l-10 -46q-22 -7 -55 -7q-35 0 -52.5 14.5z" />
    <glyph glyph-name="Ldot" unicode="&#x13f;" horiz-adv-x="521" 
d="M171 644h55l-127 -600h356l-9 -44h-411zM322 315h59l-12 -57h-59z" />
    <glyph glyph-name="ldot" unicode="&#x140;" horiz-adv-x="270" 
d="M67.5 4.5q-17.5 14.5 -17.5 48.5q0 19 4 38l124 583h55l-124 -581q-4 -22 -4 -28q0 -16 8 -22t26 -6q22 0 46 6l-10 -46q-22 -7 -55 -7q-35 0 -52.5 14.5zM226 326h59l-12 -57h-59z" />
    <glyph glyph-name="Lslash" unicode="&#x141;" horiz-adv-x="545" 
d="M119 292l-107 -43l11 48l106 43l65 304h55l-60 -280l168 67l-10 -48l-168 -67l-57 -272h357l-9 -44h-412z" />
    <glyph glyph-name="lslash" unicode="&#x142;" horiz-adv-x="246" 
d="M67.5 4.5q-17.5 14.5 -17.5 48.5q0 19 4 38l43 205l-118 -47l11 48l117 47l71 330h55l-66 -306l134 53l-10 -48l-134 -53l-48 -227q-3 -15 -3 -26q0 -16 8 -23t25 -7q22 0 46 6l-10 -46q-22 -7 -55 -7q-35 0 -52.5 14.5z" />
    <glyph glyph-name="Nacute" unicode="&#x143;" horiz-adv-x="656" 
d="M516 846h52l-108 -158h-45zM171 644h52l280 -562l119 562h55l-136 -644h-53l-279 561l-119 -561h-55z" />
    <glyph glyph-name="nacute" unicode="&#x144;" horiz-adv-x="559" 
d="M426 680h52l-108 -158h-45zM135 474h48l-7 -58q95 68 206 68q139 0 139 -116q0 -25 -6 -55l-66 -313h-55l66 312q7 31 7 56q0 38 -24 54t-83 16q-51 0 -102 -18.5t-90 -50.5l-78 -369h-55z" />
    <glyph glyph-name="Ncommaaccent" unicode="&#x145;" horiz-adv-x="656" 
d="M171 644h52l280 -562l119 562h55l-136 -644h-53l-279 561l-119 -561h-55zM258 -37h53l-73 -165h-41z" />
    <glyph glyph-name="ncommaaccent" unicode="&#x146;" horiz-adv-x="559" 
d="M135 474h48l-7 -58q95 68 206 68q139 0 139 -116q0 -25 -6 -55l-66 -313h-55l66 312q7 31 7 56q0 38 -24 54t-83 16q-51 0 -102 -18.5t-90 -50.5l-78 -369h-55zM217 -37h53l-73 -165h-41z" />
    <glyph glyph-name="Ncaron" unicode="&#x147;" horiz-adv-x="656" 
d="M354 822h47l57 -103l101 103h52l-134 -135h-48zM171 644h52l280 -562l119 562h55l-136 -644h-53l-279 561l-119 -561h-55z" />
    <glyph glyph-name="ncaron" unicode="&#x148;" horiz-adv-x="559" 
d="M248 656h47l57 -103l101 103h52l-134 -135h-48zM135 474h48l-7 -58q95 68 206 68q139 0 139 -116q0 -25 -6 -55l-66 -313h-55l66 312q7 31 7 56q0 38 -24 54t-83 16q-51 0 -102 -18.5t-90 -50.5l-78 -369h-55z" />
    <glyph glyph-name="napostrophe" unicode="&#x149;" horiz-adv-x="625" 
d="M156 650h53l-73 -165h-41zM201 474h48l-7 -58q95 68 206 68q139 0 139 -116q0 -25 -6 -55l-66 -313h-55l66 312q7 31 7 56q0 38 -24 54t-83 16q-51 0 -102 -18.5t-90 -50.5l-78 -369h-55z" />
    <glyph glyph-name="Eng" unicode="&#x14a;" horiz-adv-x="656" 
d="M278 -222l10 45q30 -10 59 -10q54 0 81 21t36 67l22 102l-277 558l-119 -561h-55l136 644h52l280 -562l119 562h55l-158 -746q-14 -62 -57 -97t-106 -35q-46 0 -78 12z" />
    <glyph glyph-name="eng" unicode="&#x14b;" horiz-adv-x="559" 
d="M186 -222l10 45q30 -10 59 -10q54 0 81 21t36 67l88 411q6 29 6 51q0 41 -26.5 58t-89.5 17q-48 0 -95 -18.5t-87 -50.5l-78 -369h-55l100 474h48l-7 -58q95 68 206 68q72 0 106 -27t34 -84q0 -29 -7 -60l-88 -415q-14 -62 -57 -97t-106 -35q-47 0 -78 12z" />
    <glyph glyph-name="Omacron" unicode="&#x14c;" horiz-adv-x="688" 
d="M327 761h276l-9 -42h-276zM69 207q0 53 13 112q37 173 123.5 254t237.5 81q117 0 174.5 -51.5t57.5 -158.5q0 -54 -15 -125q-35 -165 -121.5 -247t-237.5 -82q-232 0 -232 217zM502 105.5q72 68.5 103 213.5q16 71 16 127q0 86 -45 123t-144 37q-81 0 -138.5 -28
t-96.5 -91t-61 -168q-14 -68 -14 -115q0 -87 45 -127t144 -40q119 0 191 68.5z" />
    <glyph glyph-name="omacron" unicode="&#x14d;" horiz-adv-x="563" 
d="M230 595h276l-9 -42h-276zM99.5 30q-44.5 40 -44.5 119q0 42 10 88q26 124 91.5 185.5t186.5 61.5q185 0 185 -162q0 -41 -10 -85q-26 -125 -91.5 -186t-188.5 -61q-94 0 -138.5 40zM391 85q50 48 72 152q11 50 11 83q0 60 -33 88t-108 28q-92 0 -142 -48t-72 -151
q-11 -52 -11 -86q0 -59 32.5 -86.5t107.5 -27.5q93 0 143 48z" />
    <glyph glyph-name="Obreve" unicode="&#x14e;" horiz-adv-x="688" 
d="M382.5 709.5q-23.5 22.5 -23.5 60.5q0 13 3 28h40q-3 -13 -3 -24q0 -48 56 -48q32 0 55.5 19t30.5 53h44q-11 -50 -47 -80.5t-89 -30.5q-43 0 -66.5 22.5zM69 207q0 53 13 112q37 173 123.5 254t237.5 81q117 0 174.5 -51.5t57.5 -158.5q0 -54 -15 -125
q-35 -165 -121.5 -247t-237.5 -82q-232 0 -232 217zM502 105.5q72 68.5 103 213.5q16 71 16 127q0 86 -45 123t-144 37q-81 0 -138.5 -28t-96.5 -91t-61 -168q-14 -68 -14 -115q0 -87 45 -127t144 -40q119 0 191 68.5z" />
    <glyph glyph-name="obreve" unicode="&#x14f;" horiz-adv-x="563" 
d="M284.5 543.5q-23.5 22.5 -23.5 60.5q0 13 3 28h40q-3 -13 -3 -24q0 -48 56 -48q32 0 55.5 19t30.5 53h44q-11 -50 -47 -80.5t-89 -30.5q-43 0 -66.5 22.5zM99.5 30q-44.5 40 -44.5 119q0 42 10 88q26 124 91.5 185.5t186.5 61.5q185 0 185 -162q0 -41 -10 -85
q-26 -125 -91.5 -186t-188.5 -61q-94 0 -138.5 40zM391 85q50 48 72 152q11 50 11 83q0 60 -33 88t-108 28q-92 0 -142 -48t-72 -151q-11 -52 -11 -86q0 -59 32.5 -86.5t107.5 -27.5q93 0 143 48z" />
    <glyph glyph-name="Ohungarumlaut" unicode="&#x150;" horiz-adv-x="688" 
d="M404 828h54l-105 -141h-45zM603 828h54l-106 -141h-45zM69 207q0 53 13 112q37 173 123.5 254t237.5 81q117 0 174.5 -51.5t57.5 -158.5q0 -54 -15 -125q-35 -165 -121.5 -247t-237.5 -82q-232 0 -232 217zM502 105.5q72 68.5 103 213.5q16 71 16 127q0 86 -45 123
t-144 37q-81 0 -138.5 -28t-96.5 -91t-61 -168q-14 -68 -14 -115q0 -87 45 -127t144 -40q119 0 191 68.5z" />
    <glyph glyph-name="ohungarumlaut" unicode="&#x151;" horiz-adv-x="563" 
d="M333 662h54l-105 -141h-45zM532 662h54l-106 -141h-45zM99.5 30q-44.5 40 -44.5 119q0 42 10 88q26 124 91.5 185.5t186.5 61.5q185 0 185 -162q0 -41 -10 -85q-26 -125 -91.5 -186t-188.5 -61q-94 0 -138.5 40zM391 85q50 48 72 152q11 50 11 83q0 60 -33 88t-108 28
q-92 0 -142 -48t-72 -151q-11 -52 -11 -86q0 -59 32.5 -86.5t107.5 -27.5q93 0 143 48z" />
    <glyph glyph-name="OE" unicode="&#x152;" horiz-adv-x="1056" 
d="M70 207q0 53 13 112q37 173 123.5 254t237.5 81q164 0 211 -102l20 92h421l-9 -45h-366l-54 -255h331l-10 -44h-331l-54 -256h366l-9 -44h-421l19 90q-91 -100 -256 -100q-232 0 -232 217zM503 105.5q72 68.5 103 213.5q16 71 16 127q0 86 -45 123t-144 37
q-81 0 -138.5 -28t-96.5 -91t-61 -168q-14 -68 -14 -115q0 -87 45 -127t144 -40q119 0 191 68.5z" />
    <glyph glyph-name="oe" unicode="&#x153;" horiz-adv-x="924" 
d="M100.5 31.5q-45.5 41.5 -45.5 122.5q0 33 10 83q26 124 92 185.5t186 61.5q76 0 118 -27.5t55 -82.5q34 53 89 81.5t130 28.5q81 0 121.5 -37.5t40.5 -101.5q0 -24 -6 -51l-18 -86h-361q-5 -32 -5 -53q0 -64 39.5 -92t129.5 -28q65 0 134 25l-9 -45q-69 -25 -145 -25
q-84 0 -131.5 27t-60.5 83q-71 -110 -226 -110q-92 0 -137.5 41.5zM831 251l9 45q6 27 6 50q0 45 -28 68.5t-91 23.5q-90 0 -138 -46.5t-68 -140.5h310zM391 85.5q50 48.5 72 153.5q10 44 10 81q0 59 -33 87.5t-107 28.5q-92 0 -142 -48t-72 -151q-11 -53 -11 -88
q0 -58 32.5 -85t107.5 -27q93 0 143 48.5z" />
    <glyph glyph-name="Racute" unicode="&#x154;" horiz-adv-x="592" 
d="M468 846h52l-108 -158h-45zM171 644h269q80 0 119 -35.5t39 -100.5q0 -26 -6 -56q-16 -75 -62 -122t-119 -60q19 -10 26.5 -24.5t14.5 -44.5l44 -201h-56l-44 194q-5 25 -14.5 38t-29.5 19.5t-57 6.5h-151l-54 -258h-55zM352 302q152 0 185 150q6 29 6 52
q0 48 -27.5 71.5t-88.5 23.5h-210l-63 -297h198z" />
    <glyph glyph-name="racute" unicode="&#x155;" horiz-adv-x="342" 
d="M291 680h52l-108 -158h-45zM135 474h48l-8 -66q42 25 93.5 45t100.5 31l-9 -45q-47 -11 -103 -32.5t-90 -42.5l-77 -364h-55z" />
    <glyph glyph-name="Rcommaaccent" unicode="&#x156;" horiz-adv-x="592" 
d="M171 644h269q80 0 119 -35.5t39 -100.5q0 -26 -6 -56q-16 -75 -62 -122t-119 -60q19 -10 26.5 -24.5t14.5 -44.5l44 -201h-56l-44 194q-5 25 -14.5 38t-29.5 19.5t-57 6.5h-151l-54 -258h-55zM352 302q152 0 185 150q6 29 6 52q0 48 -27.5 71.5t-88.5 23.5h-210l-63 -297
h198zM203 -37h53l-73 -165h-41z" />
    <glyph glyph-name="rcommaaccent" unicode="&#x157;" horiz-adv-x="342" 
d="M135 474h48l-8 -66q42 25 93.5 45t100.5 31l-9 -45q-47 -11 -103 -32.5t-90 -42.5l-77 -364h-55zM26 -37h53l-73 -165h-41z" />
    <glyph glyph-name="Rcaron" unicode="&#x158;" horiz-adv-x="592" 
d="M299 822h47l57 -103l101 103h52l-134 -135h-48zM171 644h269q80 0 119 -35.5t39 -100.5q0 -26 -6 -56q-16 -75 -62 -122t-119 -60q19 -10 26.5 -24.5t14.5 -44.5l44 -201h-56l-44 194q-5 25 -14.5 38t-29.5 19.5t-57 6.5h-151l-54 -258h-55zM352 302q152 0 185 150
q6 29 6 52q0 48 -27.5 71.5t-88.5 23.5h-210l-63 -297h198z" />
    <glyph glyph-name="rcaron" unicode="&#x159;" horiz-adv-x="342" 
d="M100 656h47l57 -103l101 103h52l-134 -135h-48zM135 474h48l-8 -66q42 25 93.5 45t100.5 31l-9 -45q-47 -11 -103 -32.5t-90 -42.5l-77 -364h-55z" />
    <glyph glyph-name="Sacute" unicode="&#x15a;" horiz-adv-x="553" 
d="M447 852h52l-108 -158h-45zM34 18l11 49q75 -30 176 -30q96 0 149.5 30t67.5 97q4 22 4 31q0 43 -37 67t-127 46q-86 20 -125.5 52.5t-39.5 83.5q0 20 4 37q37 173 268 173q50 0 95.5 -7.5t71.5 -16.5l-10 -49q-67 25 -157 25q-96 0 -148.5 -30t-65.5 -95q-4 -22 -4 -29
q0 -26 15.5 -44t49 -31.5t93.5 -28.5q93 -23 132.5 -57t39.5 -85q0 -17 -5 -42q-18 -86 -88.5 -130t-188.5 -44q-116 0 -181 28z" />
    <glyph glyph-name="sacute" unicode="&#x15b;" horiz-adv-x="447" 
d="M369 680h52l-108 -158h-45zM92.5 -4.5q-37.5 5.5 -62.5 14.5l10 49q60 -22 134 -22q70 0 104 19t44 64q3 12 3 22q0 27 -20 40.5t-76 33.5l-24 9q-46 17 -67 27t-36 28.5t-15 47.5q0 9 4 31q13 63 61 94t139 31q69 0 123 -17l-11 -49q-54 18 -114 18q-71 0 -103.5 -17.5
t-40.5 -58.5q-2 -7 -2 -20q0 -27 22 -40.5t84 -34.5q71 -24 101.5 -47t30.5 -65q0 -17 -4 -33q-28 -130 -206 -130q-41 0 -78.5 5.5z" />
    <glyph glyph-name="Scircumflex" unicode="&#x15c;" horiz-adv-x="553" 
d="M389 838h48l76 -135h-48l-57 103l-101 -103h-51zM34 18l11 49q75 -30 176 -30q96 0 149.5 30t67.5 97q4 22 4 31q0 43 -37 67t-127 46q-86 20 -125.5 52.5t-39.5 83.5q0 20 4 37q37 173 268 173q50 0 95.5 -7.5t71.5 -16.5l-10 -49q-67 25 -157 25q-96 0 -148.5 -30
t-65.5 -95q-4 -22 -4 -29q0 -26 15.5 -44t49 -31.5t93.5 -28.5q93 -23 132.5 -57t39.5 -85q0 -17 -5 -42q-18 -86 -88.5 -130t-188.5 -44q-116 0 -181 28z" />
    <glyph glyph-name="scircumflex" unicode="&#x15d;" horiz-adv-x="447" 
d="M309 666h48l76 -135h-48l-57 103l-101 -103h-51zM92.5 -4.5q-37.5 5.5 -62.5 14.5l10 49q60 -22 134 -22q70 0 104 19t44 64q3 12 3 22q0 27 -20 40.5t-76 33.5l-24 9q-46 17 -67 27t-36 28.5t-15 47.5q0 9 4 31q13 63 61 94t139 31q69 0 123 -17l-11 -49q-54 18 -114 18
q-71 0 -103.5 -17.5t-40.5 -58.5q-2 -7 -2 -20q0 -27 22 -40.5t84 -34.5q71 -24 101.5 -47t30.5 -65q0 -17 -4 -33q-28 -130 -206 -130q-41 0 -78.5 5.5z" />
    <glyph glyph-name="Scedilla" unicode="&#x15e;" horiz-adv-x="553" 
d="M236.5 576q-52.5 -30 -65.5 -95q-4 -22 -4 -29q0 -26 15.5 -44t49 -31.5t93.5 -28.5q93 -23 132.5 -57t39.5 -85q0 -17 -5 -42q-16 -80 -79 -124t-168 -49l-22 -42q96 0 96 -66q0 -14 -2 -22q-22 -101 -160 -101q-15 0 -34 2.5t-30 5.5l8 37q27 -8 61 -8q52 0 78.5 14.5
t33.5 49.5q2 10 2 15q0 22 -19.5 31t-61.5 9h-33l40 74q-108 1 -168 28l11 49q75 -30 176 -30q96 0 149.5 30t67.5 97q4 22 4 31q0 43 -37 67t-127 46q-86 20 -125.5 52.5t-39.5 83.5q0 20 4 37q37 173 268 173q50 0 95.5 -7.5t71.5 -16.5l-10 -49q-67 25 -157 25
q-96 0 -148.5 -30z" />
    <glyph glyph-name="scedilla" unicode="&#x15f;" horiz-adv-x="447" 
d="M185.5 418.5q-32.5 -17.5 -40.5 -58.5q-2 -7 -2 -20q0 -27 22 -40.5t84 -34.5q71 -24 101.5 -47t30.5 -65q0 -17 -4 -33q-25 -116 -172 -129l-22 -42q96 0 96 -66q0 -14 -2 -22q-22 -101 -160 -101q-15 0 -34 2.5t-30 5.5l8 37q27 -8 61 -8q52 0 78.5 14.5t33.5 49.5
q2 10 2 15q0 22 -19.5 31t-61.5 9h-33l40 74q-80 2 -132 20l10 49q60 -22 134 -22q70 0 104 19t44 64q3 12 3 22q0 27 -20 40.5t-76 33.5l-24 9q-46 17 -67 27t-36 28.5t-15 47.5q0 9 4 31q13 63 61 94t139 31q69 0 123 -17l-11 -49q-54 18 -114 18q-71 0 -103.5 -17.5z" />
    <glyph glyph-name="Scaron" unicode="&#x160;" horiz-adv-x="553" 
d="M297 822h47l57 -103l101 103h52l-134 -135h-48zM34 18l11 49q75 -30 176 -30q96 0 149.5 30t67.5 97q4 22 4 31q0 43 -37 67t-127 46q-86 20 -125.5 52.5t-39.5 83.5q0 20 4 37q37 173 268 173q50 0 95.5 -7.5t71.5 -16.5l-10 -49q-67 25 -157 25q-96 0 -148.5 -30
t-65.5 -95q-4 -22 -4 -29q0 -26 15.5 -44t49 -31.5t93.5 -28.5q93 -23 132.5 -57t39.5 -85q0 -17 -5 -42q-18 -86 -88.5 -130t-188.5 -44q-116 0 -181 28z" />
    <glyph glyph-name="scaron" unicode="&#x161;" horiz-adv-x="447" 
d="M200 656h47l57 -103l101 103h52l-134 -135h-48zM92.5 -4.5q-37.5 5.5 -62.5 14.5l10 49q60 -22 134 -22q70 0 104 19t44 64q3 12 3 22q0 27 -20 40.5t-76 33.5l-24 9q-46 17 -67 27t-36 28.5t-15 47.5q0 9 4 31q13 63 61 94t139 31q69 0 123 -17l-11 -49q-54 18 -114 18
q-71 0 -103.5 -17.5t-40.5 -58.5q-2 -7 -2 -20q0 -27 22 -40.5t84 -34.5q71 -24 101.5 -47t30.5 -65q0 -17 -4 -33q-28 -130 -206 -130q-41 0 -78.5 5.5z" />
    <glyph glyph-name="uni0162" unicode="&#x162;" horiz-adv-x="569" 
d="M138 -237.5q-19 2.5 -30 5.5l8 37q27 -8 61 -8q52 0 78.5 14.5t33.5 49.5q2 10 2 15q0 22 -19.5 31t-61.5 9h-33l45 84h-5l127 599h-222l9 45h499l-9 -45h-222l-127 -599h-7l-27 -51q96 0 96 -66q0 -14 -2 -22q-22 -101 -160 -101q-15 0 -34 2.5z" />
    <glyph glyph-name="uni0163" unicode="&#x163;" horiz-adv-x="372" 
d="M78 -237.5q-19 2.5 -30 5.5l8 37q27 -8 61 -8q52 0 78.5 14.5t33.5 49.5q2 10 2 15q0 22 -19.5 31t-61.5 9h-33l42 78q-33 9 -50.5 32t-17.5 59q0 21 4 38l64 305h-74l10 46h74l27 124l58 18l-30 -142h137l-13 -46h-134l-64 -303q-5 -23 -5 -37q0 -30 18.5 -41.5
t59.5 -11.5q28 0 61 11l-9 -44q-36 -12 -76 -12l-21 -41q96 0 96 -66q0 -14 -2 -22q-22 -101 -160 -101q-15 0 -34 2.5z" />
    <glyph glyph-name="Tcaron" unicode="&#x164;" horiz-adv-x="569" 
d="M293 838h47l57 -103l101 103h52l-134 -135h-48zM344 599h-222l9 45h499l-9 -45h-222l-127 -599h-55z" />
    <glyph glyph-name="tcaron" unicode="&#x165;" horiz-adv-x="386" 
d="M431 725h53l-73 -165h-41zM117.5 14.5q-27.5 24.5 -27.5 69.5q0 16 5 39l64 305h-74l10 46h74l27 124l58 18l-30 -142h137l-13 -46h-134l-64 -303q-5 -23 -5 -37q0 -30 18.5 -41.5t59.5 -11.5q28 0 61 11l-9 -44q-36 -12 -78 -12q-52 0 -79.5 24.5z" />
    <glyph glyph-name="Tbar" unicode="&#x166;" horiz-adv-x="569" 
d="M287 333h-160l10 44h160l47 222h-222l9 45h499l-9 -45h-222l-47 -222h143l-10 -44h-143l-70 -333h-55z" />
    <glyph glyph-name="tbar" unicode="&#x167;" horiz-adv-x="354" 
d="M117.5 14.5q-27.5 24.5 -27.5 69.5q0 16 5 39l23 109h-69l9 42h69l32 154h-74l10 46h74l27 124l58 18l-30 -142h137l-13 -46h-134l-33 -154h143l-9 -42h-143l-22 -107q-4 -22 -4 -31q0 -30 19 -44.5t60 -14.5q26 0 59 11l-9 -44q-36 -12 -78 -12q-52 0 -79.5 24.5z" />
    <glyph glyph-name="Utilde" unicode="&#x168;" horiz-adv-x="663" 
d="M480 718q-16 5 -36 15q-18 8 -30.5 12.5t-25.5 4.5q-51 0 -86 -35l10 47q14 13 37.5 21t46.5 8q18 0 32 -4.5t34 -14.5q18 -9 30.5 -13.5t27.5 -4.5q48 0 80 35l-10 -47q-12 -14 -32.5 -21.5t-44.5 -7.5q-17 0 -33 5zM126.5 36q-55.5 46 -55.5 130q0 29 8 67l87 411h55
l-88 -417q-7 -32 -7 -62q0 -65 42.5 -96t131.5 -31q97 0 161.5 46t84.5 143l88 417h55l-87 -411q-52 -243 -313 -243q-107 0 -162.5 46z" />
    <glyph glyph-name="utilde" unicode="&#x169;" horiz-adv-x="559" 
d="M394 552q-16 5 -36 15q-18 8 -30.5 12.5t-25.5 4.5q-51 0 -86 -35l10 47q14 13 37.5 21t46.5 8q18 0 32 -4.5t34 -14.5q18 -9 30.5 -13.5t27.5 -4.5q48 0 80 35l-10 -47q-12 -14 -32.5 -21.5t-44.5 -7.5q-17 0 -33 5zM96 23q-36 33 -36 95q0 26 6 56l64 300h55l-64 -302
q-6 -28 -6 -51q0 -46 28 -66t90 -20q48 0 93.5 18.5t84.5 50.5l78 370h55l-100 -474h-49l7 58q-45 -33 -94 -50.5t-108 -17.5q-68 0 -104 33z" />
    <glyph glyph-name="Umacron" unicode="&#x16a;" horiz-adv-x="663" 
d="M315 761h276l-9 -42h-276zM126.5 36q-55.5 46 -55.5 130q0 29 8 67l87 411h55l-88 -417q-7 -32 -7 -62q0 -65 42.5 -96t131.5 -31q97 0 161.5 46t84.5 143l88 417h55l-87 -411q-52 -243 -313 -243q-107 0 -162.5 46z" />
    <glyph glyph-name="umacron" unicode="&#x16b;" horiz-adv-x="559" 
d="M226 595h276l-9 -42h-276zM96 23q-36 33 -36 95q0 26 6 56l64 300h55l-64 -302q-6 -28 -6 -51q0 -46 28 -66t90 -20q48 0 93.5 18.5t84.5 50.5l78 370h55l-100 -474h-49l7 58q-45 -33 -94 -50.5t-108 -17.5q-68 0 -104 33z" />
    <glyph glyph-name="Ubreve" unicode="&#x16c;" horiz-adv-x="663" 
d="M369.5 709.5q-23.5 22.5 -23.5 60.5q0 13 3 28h40q-3 -13 -3 -24q0 -48 56 -48q32 0 55.5 19t30.5 53h44q-11 -50 -47 -80.5t-89 -30.5q-43 0 -66.5 22.5zM126.5 36q-55.5 46 -55.5 130q0 29 8 67l87 411h55l-88 -417q-7 -32 -7 -62q0 -65 42.5 -96t131.5 -31
q97 0 161.5 46t84.5 143l88 417h55l-87 -411q-52 -243 -313 -243q-107 0 -162.5 46z" />
    <glyph glyph-name="ubreve" unicode="&#x16d;" horiz-adv-x="559" 
d="M283.5 543.5q-23.5 22.5 -23.5 60.5q0 13 3 28h40q-3 -13 -3 -24q0 -48 56 -48q32 0 55.5 19t30.5 53h44q-11 -50 -47 -80.5t-89 -30.5q-43 0 -66.5 22.5zM96 23q-36 33 -36 95q0 26 6 56l64 300h55l-64 -302q-6 -28 -6 -51q0 -46 28 -66t90 -20q48 0 93.5 18.5
t84.5 50.5l78 370h55l-100 -474h-49l7 58q-45 -33 -94 -50.5t-108 -17.5q-68 0 -104 33z" />
    <glyph glyph-name="Uring" unicode="&#x16e;" horiz-adv-x="663" 
d="M375.5 709.5q-22.5 22.5 -22.5 56.5q0 14 2 22q9 44 43 73t81 29q38 0 60.5 -22t22.5 -57q0 -15 -2 -23q-9 -43 -43 -72t-81 -29q-38 0 -60.5 22.5zM501 747.5q24 24.5 24 58.5q0 22 -13.5 35t-40.5 13q-33 0 -57.5 -24.5t-24.5 -58.5q0 -22 13.5 -35t40.5 -13
q34 0 58 24.5zM126.5 36q-55.5 46 -55.5 130q0 29 8 67l87 411h55l-88 -417q-7 -32 -7 -62q0 -65 42.5 -96t131.5 -31q97 0 161.5 46t84.5 143l88 417h55l-87 -411q-52 -243 -313 -243q-107 0 -162.5 46z" />
    <glyph glyph-name="uring" unicode="&#x16f;" horiz-adv-x="559" 
d="M291.5 543.5q-22.5 22.5 -22.5 56.5q0 14 2 22q9 44 43 73t81 29q38 0 60.5 -22t22.5 -57q0 -15 -2 -23q-9 -43 -43 -72t-81 -29q-38 0 -60.5 22.5zM417 581.5q24 24.5 24 58.5q0 22 -13.5 35t-40.5 13q-33 0 -57.5 -24.5t-24.5 -58.5q0 -22 13.5 -35t40.5 -13
q34 0 58 24.5zM96 23q-36 33 -36 95q0 26 6 56l64 300h55l-64 -302q-6 -28 -6 -51q0 -46 28 -66t90 -20q48 0 93.5 18.5t84.5 50.5l78 370h55l-100 -474h-49l7 58q-45 -33 -94 -50.5t-108 -17.5q-68 0 -104 33z" />
    <glyph glyph-name="Uhungarumlaut" unicode="&#x170;" horiz-adv-x="663" 
d="M377 828h54l-105 -141h-45zM576 828h54l-106 -141h-45zM126.5 36q-55.5 46 -55.5 130q0 29 8 67l87 411h55l-88 -417q-7 -32 -7 -62q0 -65 42.5 -96t131.5 -31q97 0 161.5 46t84.5 143l88 417h55l-87 -411q-52 -243 -313 -243q-107 0 -162.5 46z" />
    <glyph glyph-name="uhungarumlaut" unicode="&#x171;" horiz-adv-x="559" 
d="M297 662h54l-105 -141h-45zM496 662h54l-106 -141h-45zM96 23q-36 33 -36 95q0 26 6 56l64 300h55l-64 -302q-6 -28 -6 -51q0 -46 28 -66t90 -20q48 0 93.5 18.5t84.5 50.5l78 370h55l-100 -474h-49l7 58q-45 -33 -94 -50.5t-108 -17.5q-68 0 -104 33z" />
    <glyph glyph-name="Uogonek" unicode="&#x172;" horiz-adv-x="663" 
d="M210.5 -205q-20.5 15 -20.5 47q0 41 25.5 80.5t65.5 67.5q-103 2 -156.5 47.5t-53.5 128.5q0 29 8 67l87 411h55l-88 -417q-7 -32 -7 -62q0 -65 42.5 -96t131.5 -31q97 0 161.5 46t84.5 143l88 417h55l-87 -411q-49 -225 -273 -241q-74 -54 -88 -120q-2 -7 -2 -18
q0 -18 10.5 -25.5t33.5 -7.5q30 0 52 11l-9 -41q-23 -11 -60 -11q-35 0 -55.5 15z" />
    <glyph glyph-name="uogonek" unicode="&#x173;" horiz-adv-x="559" 
d="M312.5 -205q-20.5 15 -20.5 47q0 44 30.5 87.5t72.5 70.5l7 58q-45 -33 -94 -50.5t-108 -17.5q-68 0 -104 33t-36 95q0 26 6 56l64 300h55l-64 -302q-6 -28 -6 -51q0 -46 28 -66t90 -20q48 0 93.5 18.5t84.5 50.5l78 370h55l-100 -474q-42 -27 -67.5 -60t-33.5 -68
q-2 -7 -2 -18q0 -18 10.5 -25.5t33.5 -7.5q30 0 52 11l-9 -41q-23 -11 -60 -11q-35 0 -55.5 15z" />
    <glyph glyph-name="Wcircumflex" unicode="&#x174;" horiz-adv-x="850" 
d="M540 822h48l76 -135h-48l-57 103l-101 -103h-51zM151 644h55l11 -577l265 512l13 65h45l41 -577l256 577h54l-285 -644h-63l-37 530l-271 -530h-70z" />
    <glyph glyph-name="wcircumflex" unicode="&#x175;" horiz-adv-x="719" 
d="M436 656h48l76 -135h-48l-57 103l-101 -103h-51zM115 474h55l15 -418l197 366l11 52h43l41 -418l192 418h55l-223 -474h-56l-41 377l-203 -377h-63z" />
    <glyph glyph-name="Ycircumflex" unicode="&#x176;" horiz-adv-x="624" 
d="M421 822h48l76 -135h-48l-57 103l-101 -103h-51zM295 241l-144 403h54l125 -355l275 355h60l-315 -403l-51 -241h-55z" />
    <glyph glyph-name="ycircumflex" unicode="&#x177;" horiz-adv-x="566" 
d="M368 656h48l76 -135h-48l-57 103l-101 -103h-51zM116 -173q-34 3 -51 7l10 48q19 -6 48.5 -9t53.5 -3q82 0 139.5 31.5t71.5 90.5l14 66q-45 -33 -94 -50.5t-108 -17.5q-68 0 -104 33t-36 95q0 26 6 56l64 300h55l-64 -302q-6 -28 -6 -51q0 -46 28 -66t90 -20
q48 0 93.5 18.5t84.5 50.5l78 370h55l-101 -477q-11 -52 -50 -91t-96 -60.5t-120 -21.5q-27 0 -61 3z" />
    <glyph glyph-name="Ydieresis" unicode="&#x178;" horiz-adv-x="624" 
d="M324 769h57l-12 -55h-56zM491 769h56l-12 -55h-56zM295 241l-144 403h54l125 -355l275 355h60l-315 -403l-51 -241h-55z" />
    <glyph glyph-name="Zacute" unicode="&#x179;" horiz-adv-x="568" 
d="M486 846h52l-108 -158h-45zM22 34l510 565h-373l9 45h441l-8 -39l-506 -561h392l-9 -44h-463z" />
    <glyph glyph-name="zacute" unicode="&#x17a;" horiz-adv-x="479" 
d="M395 680h52l-108 -158h-45zM22 34l381 394h-284l10 46h349l-8 -38l-379 -391h302l-9 -45h-369z" />
    <glyph glyph-name="Zdotaccent" unicode="&#x17b;" horiz-adv-x="568" 
d="M394 770h57l-12 -56h-57zM22 34l510 565h-373l9 45h441l-8 -39l-506 -561h392l-9 -44h-463z" />
    <glyph glyph-name="zdotaccent" unicode="&#x17c;" horiz-adv-x="479" 
d="M306 604h57l-12 -56h-57zM22 34l381 394h-284l10 46h349l-8 -38l-379 -391h302l-9 -45h-369z" />
    <glyph glyph-name="Zcaron" unicode="&#x17d;" horiz-adv-x="568" 
d="M313 822h47l57 -103l101 103h52l-134 -135h-48zM22 34l510 565h-373l9 45h441l-8 -39l-506 -561h392l-9 -44h-463z" />
    <glyph glyph-name="zcaron" unicode="&#x17e;" horiz-adv-x="479" 
d="M206 656h47l57 -103l101 103h52l-134 -135h-48zM22 34l381 394h-284l10 46h349l-8 -38l-379 -391h302l-9 -45h-369z" />
    <glyph glyph-name="uni018F" unicode="&#x18f;" horiz-adv-x="662" 
d="M113 41q-54 51 -54 138q0 30 8 68l22 104h501q9 48 9 88q0 87 -54 128t-179 41q-43 0 -93.5 -9t-95.5 -26l10 46q45 16 96 25.5t98 9.5q136 0 201.5 -54.5t65.5 -165.5q0 -51 -14 -118q-34 -158 -122 -242t-240 -84q-105 0 -159 51zM479.5 103.5q72.5 68.5 101.5 204.5
h-451l-14 -67q-8 -40 -8 -68q0 -69 42.5 -103.5t131.5 -34.5q125 0 197.5 68.5z" />
    <glyph glyph-name="florin" unicode="&#x192;" horiz-adv-x="518" 
d="M-143 -111l15 44q25 -11 61 -11q53 0 83 20.5t52 70.5l176 415h-73l19 46h73l35 80q31 71 76 103.5t120 32.5q43 0 72 -13l-15 -43q-27 11 -61 11q-54 0 -85.5 -22.5t-52.5 -69.5l-34 -79h133l-23 -46h-129l-176 -415q-29 -69 -74 -102.5t-122 -33.5q-39 0 -70 12z" />
    <glyph glyph-name="Ohorn" unicode="&#x1a0;" horiz-adv-x="749" 
d="M69 207q0 53 13 112q37 173 123.5 254t237.5 81q152 0 204 -88q61 1 90.5 27t44.5 95h48q-18 -84 -58 -122t-107 -44q10 -33 10 -79q0 -55 -15 -124q-35 -165 -121.5 -247t-237.5 -82q-232 0 -232 217zM502 105.5q72 68.5 103 213.5q16 71 16 127q0 86 -45 123t-144 37
q-81 0 -138.5 -28t-96.5 -91t-61 -168q-14 -68 -14 -115q0 -87 45 -127t144 -40q119 0 191 68.5z" />
    <glyph glyph-name="ohorn" unicode="&#x1a1;" horiz-adv-x="639" 
d="M99.5 30q-44.5 40 -44.5 119q0 42 10 88q26 124 91.5 185.5t186.5 61.5q125 0 165 -73q60 1 88 28t43 97h48q-18 -85 -57.5 -123t-106.5 -44q5 -25 5 -48q0 -40 -10 -84q-26 -125 -91.5 -186t-188.5 -61q-94 0 -138.5 40zM391 85q50 48 72 152q11 50 11 83q0 60 -33 88
t-108 28q-92 0 -142 -48t-72 -151q-11 -52 -11 -86q0 -59 32.5 -86.5t107.5 -27.5q93 0 143 48z" />
    <glyph glyph-name="Uhorn" unicode="&#x1af;" horiz-adv-x="785" 
d="M126.5 36q-55.5 46 -55.5 130q0 29 8 67l87 411h55l-88 -417q-7 -32 -7 -62q0 -65 42.5 -96t131.5 -31q97 0 161.5 46t84.5 143l88 417h55l-17 -80q62 0 91.5 26.5t44.5 97.5h48q-20 -93 -66.5 -130.5t-126.5 -38.5l-61 -286q-52 -243 -313 -243q-107 0 -162.5 46z" />
    <glyph glyph-name="uhorn" unicode="&#x1b0;" horiz-adv-x="659" 
d="M96 23q-36 33 -36 95q0 26 6 56l64 300h55l-64 -302q-6 -28 -6 -51q0 -46 28 -66t90 -20q48 0 93.5 18.5t84.5 50.5l78 370h55l-14 -63q52 3 78.5 31t40.5 94h48q-18 -86 -62 -125.5t-114 -42.5l-77 -368h-49l7 58q-45 -33 -94 -50.5t-108 -17.5q-68 0 -104 33z" />
    <glyph glyph-name="uni01CD" unicode="&#x1cd;" horiz-adv-x="667" 
d="M339 823h47l57 -103l101 103h52l-134 -135h-48zM395 644h70l107 -644h-53l-32 188h-302l-110 -188h-60zM484 233l-61 367l-216 -367h277z" />
    <glyph glyph-name="uni01CE" unicode="&#x1ce;" horiz-adv-x="531" 
d="M247 656h47l57 -103l101 103h52l-134 -135h-48zM52 143q0 35 9 78q27 126 102.5 194.5t175.5 68.5q49 0 82.5 -11.5t64.5 -38.5l8 40h55l-100 -474h-46l6 53q-42 -32 -86.5 -47.5t-98.5 -15.5q-172 0 -172 153zM415 99l61 287q-25 26 -55 39t-75 13q-89 0 -149 -56
t-82 -161q-9 -42 -9 -74q0 -60 33.5 -86t107.5 -26q94 0 168 64z" />
    <glyph glyph-name="uni01CF" unicode="&#x1cf;" horiz-adv-x="205" 
d="M108 822h47l57 -103l101 103h52l-134 -135h-48zM171 644h55l-136 -644h-55z" />
    <glyph glyph-name="uni01D0" unicode="&#x1d0;" horiz-adv-x="270" 
d="M119 656h47l57 -103l101 103h52l-134 -135h-48zM190 428h-75l14 46h126l-100 -474h-55z" />
    <glyph glyph-name="uni01D1" unicode="&#x1d1;" horiz-adv-x="688" 
d="M350 822h47l57 -103l101 103h52l-134 -135h-48zM69 207q0 53 13 112q37 173 123.5 254t237.5 81q117 0 174.5 -51.5t57.5 -158.5q0 -54 -15 -125q-35 -165 -121.5 -247t-237.5 -82q-232 0 -232 217zM502 105.5q72 68.5 103 213.5q16 71 16 127q0 86 -45 123t-144 37
q-81 0 -138.5 -28t-96.5 -91t-61 -168q-14 -68 -14 -115q0 -87 45 -127t144 -40q119 0 191 68.5z" />
    <glyph glyph-name="uni01D2" unicode="&#x1d2;" horiz-adv-x="563" 
d="M252 656h47l57 -103l101 103h52l-134 -135h-48zM99.5 30q-44.5 40 -44.5 119q0 42 10 88q26 124 91.5 185.5t186.5 61.5q185 0 185 -162q0 -41 -10 -85q-26 -125 -91.5 -186t-188.5 -61q-94 0 -138.5 40zM391 85q50 48 72 152q11 50 11 83q0 60 -33 88t-108 28
q-92 0 -142 -48t-72 -151q-11 -52 -11 -86q0 -59 32.5 -86.5t107.5 -27.5q93 0 143 48z" />
    <glyph glyph-name="uni01D3" unicode="&#x1d3;" horiz-adv-x="663" 
d="M337 822h47l57 -103l101 103h52l-134 -135h-48zM126.5 36q-55.5 46 -55.5 130q0 29 8 67l87 411h55l-88 -417q-7 -32 -7 -62q0 -65 42.5 -96t131.5 -31q97 0 161.5 46t84.5 143l88 417h55l-87 -411q-52 -243 -313 -243q-107 0 -162.5 46z" />
    <glyph glyph-name="uni01D4" unicode="&#x1d4;" horiz-adv-x="559" 
d="M249 656h47l57 -103l101 103h52l-134 -135h-48zM96 23q-36 33 -36 95q0 26 6 56l64 300h55l-64 -302q-6 -28 -6 -51q0 -46 28 -66t90 -20q48 0 93.5 18.5t84.5 50.5l78 370h55l-100 -474h-49l7 58q-45 -33 -94 -50.5t-108 -17.5q-68 0 -104 33z" />
    <glyph glyph-name="uni01D5" unicode="&#x1d5;" horiz-adv-x="663" 
d="M340 861h276l-9 -42h-276zM342 766h57l-12 -55h-56zM509 766h56l-12 -55h-56zM126.5 36q-55.5 46 -55.5 130q0 29 8 67l87 411h55l-88 -417q-7 -32 -7 -62q0 -65 42.5 -96t131.5 -31q97 0 161.5 46t84.5 143l88 417h55l-87 -411q-52 -243 -313 -243q-107 0 -162.5 46z
" />
    <glyph glyph-name="uni01D6" unicode="&#x1d6;" horiz-adv-x="559" 
d="M261 708h276l-9 -42h-276zM257 600h57l-12 -55h-56zM424 600h56l-12 -55h-56zM96 23q-36 33 -36 95q0 26 6 56l64 300h55l-64 -302q-6 -28 -6 -51q0 -46 28 -66t90 -20q48 0 93.5 18.5t84.5 50.5l78 370h55l-100 -474h-49l7 58q-45 -33 -94 -50.5t-108 -17.5
q-68 0 -104 33z" />
    <glyph glyph-name="uni01D7" unicode="&#x1d7;" horiz-adv-x="663" 
d="M512 881h50l-90 -117h-45zM330 742h57l-12 -55h-57zM507 742h55l-12 -55h-55zM126.5 36q-55.5 46 -55.5 130q0 29 8 67l87 411h55l-88 -417q-7 -32 -7 -62q0 -65 42.5 -96t131.5 -31q97 0 161.5 46t84.5 143l88 417h55l-87 -411q-52 -243 -313 -243q-107 0 -162.5 46z
" />
    <glyph glyph-name="uni01D8" unicode="&#x1d8;" horiz-adv-x="559" 
d="M424 715h50l-90 -117h-45zM242 576h57l-12 -55h-57zM419 576h55l-12 -55h-55zM96 23q-36 33 -36 95q0 26 6 56l64 300h55l-64 -302q-6 -28 -6 -51q0 -46 28 -66t90 -20q48 0 93.5 18.5t84.5 50.5l78 370h55l-100 -474h-49l7 58q-45 -33 -94 -50.5t-108 -17.5
q-68 0 -104 33z" />
    <glyph glyph-name="uni01D9" unicode="&#x1d9;" horiz-adv-x="663" 
d="M350 874h49l60 -85l95 85h49l-126 -110h-48zM330 742h57l-12 -55h-57zM507 742h55l-12 -55h-55zM126.5 36q-55.5 46 -55.5 130q0 29 8 67l87 411h55l-88 -417q-7 -32 -7 -62q0 -65 42.5 -96t131.5 -31q97 0 161.5 46t84.5 143l88 417h55l-87 -411q-52 -243 -313 -243
q-107 0 -162.5 46z" />
    <glyph glyph-name="uni01DA" unicode="&#x1da;" horiz-adv-x="559" 
d="M261 708h49l60 -85l95 85h49l-126 -110h-48zM241 576h57l-12 -55h-57zM418 576h55l-12 -55h-55zM96 23q-36 33 -36 95q0 26 6 56l64 300h55l-64 -302q-6 -28 -6 -51q0 -46 28 -66t90 -20q48 0 93.5 18.5t84.5 50.5l78 370h55l-100 -474h-49l7 58q-45 -33 -94 -50.5
t-108 -17.5q-68 0 -104 33z" />
    <glyph glyph-name="uni01DB" unicode="&#x1db;" horiz-adv-x="663" 
d="M391 881h51l35 -117h-45zM333 742h56l-12 -55h-56zM509 742h56l-12 -55h-56zM126.5 36q-55.5 46 -55.5 130q0 29 8 67l87 411h55l-88 -417q-7 -32 -7 -62q0 -65 42.5 -96t131.5 -31q97 0 161.5 46t84.5 143l88 417h55l-87 -411q-52 -243 -313 -243q-107 0 -162.5 46z" />
    <glyph glyph-name="uni01DC" unicode="&#x1dc;" horiz-adv-x="559" 
d="M303 715h51l35 -117h-45zM245 576h56l-12 -55h-56zM421 576h56l-12 -55h-56zM96 23q-36 33 -36 95q0 26 6 56l64 300h55l-64 -302q-6 -28 -6 -51q0 -46 28 -66t90 -20q48 0 93.5 18.5t84.5 50.5l78 370h55l-100 -474h-49l7 58q-45 -33 -94 -50.5t-108 -17.5
q-68 0 -104 33z" />
    <glyph glyph-name="Gcaron" unicode="&#x1e6;" horiz-adv-x="633" 
d="M357 822h47l57 -103l101 103h52l-134 -135h-48zM128.5 48q-60.5 58 -60.5 162q0 42 11 94q36 166 126 258t244 92q102 0 178 -27l-11 -49q-77 28 -172 28q-132 0 -206 -78t-105 -224q-12 -55 -12 -100q0 -83 47.5 -125t155.5 -42q46 0 94 8t84 22l48 229h-183l10 44h233
l-64 -301q-36 -21 -95.5 -35t-142.5 -14q-119 0 -179.5 58z" />
    <glyph glyph-name="gcaron" unicode="&#x1e7;" horiz-adv-x="542" 
d="M256 656h47l57 -103l101 103h52l-134 -135h-48zM139 -173q-34 3 -51 7l10 48q19 -6 48.5 -9t53.5 -3q78 0 128.5 31t63.5 91l12 57q-40 -26 -81 -37.5t-92 -11.5q-83 0 -129 38t-46 119q0 34 9 79q26 127 93.5 187.5t170.5 60.5q54 0 92 -15.5t66 -48.5l16 54h46
l-101 -477q-17 -80 -82.5 -126.5t-165.5 -46.5q-27 0 -61 3zM414 98l59 276q-47 64 -140 64q-90 0 -141.5 -49.5t-72.5 -152.5q-10 -50 -10 -77q0 -61 34.5 -87.5t110.5 -26.5q89 0 160 53z" />
    <glyph glyph-name="Aringacute" unicode="&#x1fa;" horiz-adv-x="667" 
d="M538 994h52l-106 -143h-44zM384 626q-21 9 -32 27.5t-11 42.5q0 33 17.5 62t46.5 46t62 17q38 0 60.5 -22t22.5 -57q0 -38 -23 -69.5t-59 -46.5l104 -626h-56l-32 188h-302l-110 -188h-57zM489 677.5q24 23.5 24 57.5q0 22 -15 36t-39 14q-33 0 -57.5 -23.5t-24.5 -56.5
q0 -23 15 -37t40 -14q33 0 57 23.5zM481 233l-61 367l-216 -367h277z" />
    <glyph glyph-name="aringacute" unicode="&#x1fb;" horiz-adv-x="531" 
d="M501 907h52l-108 -126h-45zM286.5 542.5q-22.5 22.5 -22.5 56.5q0 14 2 22q9 44 43 73t81 29q38 0 60.5 -22t22.5 -57q0 -15 -2 -23q-9 -43 -43 -72t-81 -29q-38 0 -60.5 22.5zM412 580.5q24 24.5 24 58.5q0 22 -13.5 35t-40.5 13q-33 0 -57.5 -24.5t-24.5 -58.5
q0 -22 13.5 -35t40.5 -13q34 0 58 24.5zM52 143q0 35 9 78q27 126 102.5 194.5t175.5 68.5q49 0 82.5 -11.5t64.5 -38.5l8 40h55l-100 -474h-46l6 53q-42 -32 -86.5 -47.5t-98.5 -15.5q-172 0 -172 153zM415 99l61 287q-25 26 -55 39t-75 13q-89 0 -149 -56t-82 -161
q-9 -42 -9 -74q0 -60 33.5 -86t107.5 -26q94 0 168 64z" />
    <glyph glyph-name="AEacute" unicode="&#x1fc;" horiz-adv-x="832" 
d="M644 846h52l-108 -158h-45zM395 644h478l-9 -46h-312l-54 -254h277l-10 -45h-277l-54 -255h312l-9 -44h-367l40 189h-225l-112 -189h-58zM419 233l78 365h-70l-216 -365h208z" />
    <glyph glyph-name="aeacute" unicode="&#x1fd;" horiz-adv-x="879" 
d="M584 680h52l-108 -158h-45zM75.5 16q-38.5 26 -38.5 78q0 8 4 32q30 142 206 142h177l7 33q6 26 6 46q0 45 -29 67.5t-94 22.5q-80 0 -158 -26l10 47q72 26 166 26q135 0 150 -91q69 91 205 91q82 0 123.5 -38t41.5 -102q0 -24 -6 -50l-18 -86h-361q-6 -34 -6 -61
q0 -61 38.5 -86.5t131.5 -25.5q65 0 134 25l-9 -45q-69 -25 -145 -25q-84 0 -131 25t-62 79q-38 -48 -99 -76t-142 -28q-63 0 -101.5 26zM786 251l9 45q6 27 6 50q0 45 -28.5 68.5t-93.5 23.5q-91 0 -136.5 -44.5t-66.5 -142.5h310zM396 136l19 88h-175q-68 0 -101 -24
t-44 -74q-3 -12 -3 -23q0 -67 109 -67q139 0 195 100z" />
    <glyph glyph-name="Oslashacute" unicode="&#x1fe;" horiz-adv-x="688" 
d="M522 846h52l-108 -158h-45zM163 19q-94 51 -94 187q0 54 13 113q37 173 123.5 254t237.5 81q42 0 80 -8l27 47h50l-34 -59q109 -45 109 -191q0 -53 -15 -124q-35 -165 -121.5 -247t-237.5 -82q-49 0 -97 12l-32 -55h-50zM497 601q-32 5 -65 5q-81 0 -138.5 -28t-96.5 -91
t-61 -168q-14 -68 -14 -115q0 -104 66 -142zM502 105.5q72 68.5 103 213.5q16 78 16 125q0 58 -20 93t-61 52l-311 -543q35 -9 82 -9q119 0 191 68.5z" />
    <glyph glyph-name="oslashacute" unicode="&#x1ff;" horiz-adv-x="563" 
d="M422 680h52l-108 -158h-45zM140 5q-86 34 -86 143q0 37 11 89q26 124 91.5 185.5t186.5 61.5q39 0 67 -7l29 51h49l-37 -65q77 -36 77 -141q0 -33 -10 -85q-26 -125 -91.5 -186t-188.5 -61q-22 0 -56 4l-27 -48h-49zM384 432q-30 4 -51 4q-92 0 -142 -48t-72 -151
q-11 -52 -11 -86q0 -39 13.5 -63.5t43.5 -37.5zM391 85q50 48 72 152q10 44 10 83q0 73 -48 98l-217 -379q24 -2 40 -2q93 0 143 48z" />
    <glyph glyph-name="Scommaaccent" unicode="&#x218;" horiz-adv-x="553" 
d="M34 18l11 49q75 -30 176 -30q96 0 149.5 30t67.5 97q4 22 4 31q0 43 -37 67t-127 46q-86 20 -125.5 52.5t-39.5 83.5q0 20 4 37q37 173 268 173q50 0 95.5 -7.5t71.5 -16.5l-10 -49q-67 25 -157 25q-96 0 -148.5 -30t-65.5 -95q-4 -22 -4 -29q0 -26 15.5 -44t49 -31.5
t93.5 -28.5q93 -23 132.5 -57t39.5 -85q0 -17 -5 -42q-18 -86 -88.5 -130t-188.5 -44q-116 0 -181 28zM195 -55h53l-70 -160h-43z" />
    <glyph glyph-name="scommaaccent" unicode="&#x219;" horiz-adv-x="447" 
d="M92.5 -4.5q-37.5 5.5 -62.5 14.5l10 49q60 -22 134 -22q70 0 104 19t44 64q3 12 3 22q0 27 -20 40.5t-76 33.5l-24 9q-46 17 -67 27t-36 28.5t-15 47.5q0 9 4 31q13 63 61 94t139 31q69 0 123 -17l-11 -49q-54 18 -114 18q-71 0 -103.5 -17.5t-40.5 -58.5q-2 -7 -2 -20
q0 -27 22 -40.5t84 -34.5q71 -24 101.5 -47t30.5 -65q0 -17 -4 -33q-28 -130 -206 -130q-41 0 -78.5 5.5zM149 -55h53l-70 -160h-43z" />
    <glyph glyph-name="uni021A" unicode="&#x21a;" horiz-adv-x="569" 
d="M344 599h-222l9 45h499l-9 -45h-222l-127 -599h-55zM209 -40h53l-73 -165h-41z" />
    <glyph glyph-name="uni021B" unicode="&#x21b;" horiz-adv-x="350" 
d="M117.5 14.5q-27.5 24.5 -27.5 69.5q0 16 5 39l64 305h-74l10 46h74l27 124l58 18l-30 -142h137l-13 -46h-134l-64 -303q-5 -23 -5 -37q0 -30 18.5 -41.5t59.5 -11.5q28 0 61 11l-9 -44q-36 -12 -78 -12q-52 0 -79.5 24.5zM160 -40h53l-73 -165h-41z" />
    <glyph glyph-name="uni0237" unicode="&#x237;" horiz-adv-x="269" 
d="M-107 -222l10 45q29 -10 59 -10q54 0 80 21t35 67l112 527h-74l16 46h123l-122 -576q-14 -62 -56.5 -97t-105.5 -35q-46 0 -77 12z" />
    <glyph glyph-name="uni0251" unicode="&#x251;" horiz-adv-x="531" 
d="M52 143q0 35 9 78q27 126 102.5 194.5t175.5 68.5q49 0 82.5 -11.5t64.5 -38.5l8 40h55l-100 -474h-46l6 53q-42 -32 -86.5 -47.5t-98.5 -15.5q-172 0 -172 153zM415 99l61 287q-25 26 -55 39t-75 13q-89 0 -149 -56t-82 -161q-9 -45 -9 -77q0 -58 33 -83.5t108 -25.5
q94 0 168 64z" />
    <glyph glyph-name="uni0259" unicode="&#x259;" horiz-adv-x="525" 
d="M87 27q-40 37 -40 100q0 26 6 53l18 85h360q6 35 6 62q0 60 -37.5 85.5t-132.5 25.5q-69 0 -134 -25l10 45q64 26 144 26q103 0 153 -39.5t50 -122.5q0 -36 -11 -88q-25 -120 -89.5 -182t-181.5 -62q-81 0 -121 37zM354 81.5q47 46.5 68 141.5h-310l-10 -46
q-6 -27 -6 -50q0 -45 28.5 -68.5t92.5 -23.5q90 0 137 46.5z" />
    <glyph glyph-name="uni02BB" unicode="&#x2bb;" horiz-adv-x="210" 
d="M212 654h42l-83 -171h-54z" />
    <glyph glyph-name="uni02BC" unicode="&#x2bc;" horiz-adv-x="210" 
d="M200 654h54l-95 -171h-42z" />
    <glyph glyph-name="uni02BE" unicode="&#x2be;" 
d="M-298 516q44 0 73.5 25t38.5 69q3 15 3 27q0 31 -19 48.5t-56 17.5l8 37q54 0 81 -25.5t27 -68.5q0 -20 -4 -36q-12 -58 -53.5 -94.5t-106.5 -36.5z" />
    <glyph glyph-name="uni02BF" unicode="&#x2bf;" 
d="M-255 505q-27 26 -27 70q0 11 4 35q13 58 54 94t106 36l-8 -37q-44 0 -73.5 -25t-38.5 -68q-3 -15 -3 -27q0 -31 19 -49t56 -18l-8 -37q-54 0 -81 26z" />
    <glyph glyph-name="circumflex" unicode="&#x2c6;" horiz-adv-x="368" 
d="M263 674h48l76 -135h-48l-57 103l-101 -103h-52z" />
    <glyph glyph-name="caron" unicode="&#x2c7;" horiz-adv-x="368" 
d="M158 674h48l57 -103l101 103h52l-134 -135h-48z" />
    <glyph glyph-name="uni02C8" unicode="&#x2c8;" 
d="M69 649h43l-34 -161h-43z" />
    <glyph glyph-name="uni02C9" unicode="&#x2c9;" 
d="M209 609h277l-9 -42h-277z" />
    <glyph glyph-name="uni02CA" unicode="&#x2ca;" 
d="M109 680h52l-109 -158h-44z" />
    <glyph glyph-name="uni02CB" unicode="&#x2cb;" 
d="M36 680h52l33 -158h-45z" />
    <glyph glyph-name="uni02CC" unicode="&#x2cc;" 
d="M-76 -41h42l-34 -162h-43z" />
    <glyph glyph-name="breve" unicode="&#x2d8;" horiz-adv-x="332" 
d="M173.5 565.5q-23.5 22.5 -23.5 60.5q0 14 3 27h39q-2 -8 -2 -22q0 -24 14 -37t42 -13q33 0 56 19.5t30 52.5h43q-10 -49 -47 -79.5t-88 -30.5q-43 0 -66.5 22.5z" />
    <glyph glyph-name="dotaccent" unicode="&#x2d9;" horiz-adv-x="167" 
d="M149 609h35l-7 -35h-35z" />
    <glyph glyph-name="ring" unicode="&#x2da;" horiz-adv-x="315" 
d="M168.5 550.5q-22.5 22.5 -22.5 56.5q0 14 2 22q9 44 43 73t81 29q38 0 60.5 -22t22.5 -57q0 -15 -2 -23q-9 -44 -42.5 -72.5t-81.5 -28.5q-38 0 -60.5 22.5zM294 588.5q24 24.5 24 59.5q0 47 -54 47q-33 0 -57.5 -24.5t-24.5 -59.5q0 -22 13.5 -34.5t40.5 -12.5
q34 0 58 24.5z" />
    <glyph glyph-name="ogonek" unicode="&#x2db;" horiz-adv-x="260" 
d="M3.5 -205q-20.5 15 -20.5 47q0 44 31 88t76 70h46q-43 -27 -68.5 -60t-33.5 -68q-2 -7 -2 -18q0 -18 10.5 -25.5t33.5 -7.5q31 0 53 11l-9 -41q-23 -11 -61 -11q-35 0 -55.5 15z" />
    <glyph glyph-name="tilde" unicode="&#x2dc;" horiz-adv-x="392" 
d="M316 587q-16 5 -35 15q-18 8 -30.5 12.5t-25.5 4.5q-51 0 -86 -35l10 47q13 13 36.5 21t46.5 8q18 0 32 -4.5t34 -14.5q20 -9 32 -13.5t27 -4.5q47 0 79 35l-10 -47q-12 -14 -32 -21.5t-45 -7.5q-17 0 -33 5z" />
    <glyph glyph-name="hungarumlaut" unicode="&#x2dd;" horiz-adv-x="429" 
d="M226 680h53l-105 -141h-45zM425 680h53l-105 -141h-45z" />
    <glyph glyph-name="gravecomb" unicode="&#x300;" 
d="M-319 680h52l33 -158h-45z" />
    <glyph glyph-name="acutecomb" unicode="&#x301;" 
d="M-174 680h52l-108 -158h-45z" />
    <glyph glyph-name="uni0302" unicode="&#x302;" 
d="M61 674h48l76 -135h-48l-57 103l-101 -103h-51z" />
    <glyph glyph-name="tildecomb" unicode="&#x303;" 
d="M-187 587q-16 5 -36 15q-18 8 -30.5 12.5t-25.5 4.5q-51 0 -86 -35l10 47q14 13 37.5 21t46.5 8q18 0 32 -4.5t34 -14.5q18 -9 30.5 -13.5t27.5 -4.5q48 0 80 35l-10 -47q-12 -14 -32.5 -21.5t-44.5 -7.5q-17 0 -33 5z" />
    <glyph glyph-name="uni0304" unicode="&#x304;" 
d="M-63 609h276l-9 -42h-276z" />
    <glyph glyph-name="uni0306" unicode="&#x306;" 
d="M2.5 565.5q-23.5 22.5 -23.5 60.5q0 13 3 28h40q-3 -13 -3 -24q0 -48 56 -48q32 0 55.5 19t30.5 53h44q-11 -50 -47 -80.5t-89 -30.5q-43 0 -66.5 22.5z" />
    <glyph glyph-name="uni0307" unicode="&#x307;" 
d="M58 623h57l-12 -56h-57z" />
    <glyph glyph-name="uni0308" unicode="&#x308;" 
d="M-30 622h57l-12 -55h-56zM137 622h56l-12 -55h-56z" />
    <glyph glyph-name="hookabovecomb" unicode="&#x309;" 
d="M-251 590q40 2 61.5 8.5t31 18t13.5 32.5q2 10 2 14q0 39 -73 39q-16 0 -36 -3.5t-34 -8.5l8 38q15 5 38.5 8.5t41.5 3.5q49 0 74 -17t25 -50q0 -14 -2 -21q-9 -41 -33.5 -62.5t-75.5 -26.5l-11 -52h-47z" />
    <glyph glyph-name="uni030A" unicode="&#x30a;" 
d="M5.5 550.5q-22.5 22.5 -22.5 56.5q0 14 2 22q9 44 43 73t81 29q38 0 60.5 -22t22.5 -57q0 -15 -2 -23q-9 -43 -43 -72t-81 -29q-38 0 -60.5 22.5zM131 588.5q24 24.5 24 58.5q0 22 -13.5 35t-40.5 13q-33 0 -57.5 -24.5t-24.5 -58.5q0 -22 13.5 -35t40.5 -13
q34 0 58 24.5z" />
    <glyph glyph-name="uni030B" unicode="&#x30b;" 
d="M-12 680h54l-105 -141h-45zM187 680h54l-106 -141h-45z" />
    <glyph glyph-name="uni030C" unicode="&#x30c;" 
d="M-43 674h47l57 -103l101 103h52l-134 -135h-48z" />
    <glyph glyph-name="uni031B" unicode="&#x31b;" 
d="M-10 576q44 0 69.5 10t41 35.5t25.5 73.5h48q-19 -93 -65 -128.5t-129 -36.5z" />
    <glyph glyph-name="dotbelowcomb" unicode="&#x323;" 
d="M-395 -95h59l-12 -57h-59z" />
    <glyph glyph-name="uni0324" unicode="&#x324;" 
d="M-179 -95h57l-12 -56h-57zM-1 -95h58l-12 -56h-58z" />
    <glyph glyph-name="uni0326" unicode="&#x326;" 
d="M-156 -37h53l-73 -165h-41z" />
    <glyph glyph-name="uni0327" unicode="&#x327;" 
d="M-152 -237.5q-19 2.5 -30 5.5l8 37q27 -8 61 -8q52 0 78.5 14.5t33.5 49.5q2 10 2 15q0 22 -19.5 31t-61.5 9h-33l45 84h43l-27 -51q96 0 96 -66q0 -14 -2 -22q-22 -101 -160 -101q-15 0 -34 2.5z" />
    <glyph glyph-name="uni0328" unicode="&#x328;" 
d="M-131.5 -205q-20.5 15 -20.5 47q0 44 31 88t75 70h46q-42 -27 -67.5 -60t-33.5 -68q-2 -7 -2 -18q0 -18 10.5 -25.5t33.5 -7.5q30 0 52 11l-9 -41q-23 -11 -60 -11q-35 0 -55.5 15z" />
    <glyph glyph-name="uni032E" unicode="&#x32e;" 
d="M-167 -161q-30 24 -30 71q0 18 4 35h40q-4 -22 -4 -31q0 -32 19.5 -46.5t58.5 -14.5q43 0 73.5 22.5t40.5 69.5h43q-14 -65 -57 -97.5t-106 -32.5q-52 0 -82 24z" />
    <glyph glyph-name="uni0331" unicode="&#x331;" 
d="M-208 -74h276l-9 -42h-276z" />
    <glyph glyph-name="uni0394" unicode="&#x394;" horiz-adv-x="655" 
d="M22 34l369 610h64l112 -611l-7 -33h-545zM514 44l-99 550l-333 -550h432z" />
    <glyph glyph-name="uni03A9" unicode="&#x3a9;" horiz-adv-x="771" 
d="M31 44h176q-58 40 -91.5 100t-33.5 137q0 39 9 81q20 95 74 170.5t137.5 119t190.5 43.5q85 0 145.5 -32t91.5 -88.5t31 -130.5q0 -40 -9 -82q-22 -107 -88.5 -187.5t-160.5 -130.5h175l-9 -44h-252l9 44q114 55 182.5 135.5t89.5 182.5q9 42 9 79q0 96 -57 151t-167 55
q-81 0 -151.5 -36.5t-119.5 -101.5t-67 -147q-8 -42 -8 -76q0 -154 146 -242l-9 -44h-252z" />
    <glyph glyph-name="uni03BC" unicode="&#x3bc;" horiz-adv-x="564" 
d="M135 474h55l-64 -302q-6 -27 -6 -48q0 -45 28 -67t90 -22q48 0 93.5 18.5t84.5 50.5l78 370h55l-100 -474h-49l7 58q-45 -33 -94 -50.5t-108 -17.5q-37 0 -64.5 13t-42.5 35l-39 -181h-55z" />
    <glyph glyph-name="pi" unicode="&#x3c0;" horiz-adv-x="658" 
d="M420 14.5q-25 24.5 -25 68.5q0 17 5 42l65 304h-245l-91 -429h-55l91 429h-69l9 45h494l-9 -45h-70l-65 -304q-5 -27 -5 -40q0 -26 14.5 -37t48.5 -11q35 0 69 10l-9 -45q-36 -12 -79 -12q-49 0 -74 24.5z" />
    <glyph glyph-name="uni0E01" unicode="&#xe01;" horiz-adv-x="600" 
d="M101 243q8 40 35.5 68.5t70.5 40.5l-112 26l17 80q48 40 116 66t147 26q191 0 191 -142q0 -25 -6 -55l-75 -353h-55l75 356q7 35 7 54q0 50 -34 71t-113 21q-61 0 -117 -18.5t-91 -48.5l-6 -28l114 -26l-10 -48q-42 -9 -66.5 -31t-32.5 -62l-51 -240h-55z" />
    <glyph glyph-name="uni0E02" unicode="&#xe02;" horiz-adv-x="556" 
d="M100.5 25.5q-44.5 35.5 -44.5 101.5q0 24 6 51l20 92q6 27 26 53.5t56 64.5q28 30 41 46.5t16 30.5l2 13q0 10 -6.5 13.5t-21.5 3.5h-75l14 45h96q51 0 51 -44q0 -31 -18 -57.5t-56 -67.5q-32 -35 -49 -58t-22 -48l-21 -96q-5 -20 -5 -44q0 -47 32 -67.5t97 -20.5
q154 0 183 133l78 370h55l-77 -362q-39 -188 -249 -188q-84 0 -128.5 35.5z" />
    <glyph glyph-name="uni0E03" unicode="&#xe03;" horiz-adv-x="543" 
d="M58 121q0 25 6 55l17 80q6 26 27 52.5t61 67.5q31 30 49 51.5t22 39.5q1 3 1 9q0 20 -23 20q-27 0 -58 -24l-8 -38h-45l22 106h45l-6 -28q38 28 76 28q25 0 38.5 -12.5t13.5 -34.5q0 -4 -2 -18q-5 -27 -25.5 -53.5t-57.5 -64.5q-35 -36 -53 -59t-23 -46l-18 -83
q-6 -28 -6 -49q0 -46 29.5 -64.5t93.5 -18.5q146 0 175 133l78 370h55l-77 -362q-39 -188 -241 -188q-166 0 -166 131z" />
    <glyph glyph-name="uni0E04" unicode="&#xe04;" horiz-adv-x="594" 
d="M111 358q21 99 84.5 145.5t178.5 46.5q187 0 187 -137q0 -25 -6 -55l-76 -358h-55l77 366q5 27 5 44q0 49 -34 70.5t-108 21.5q-167 0 -197 -136l-29 -139q65 45 136 45h67l-6 -46h-71q-70 0 -136 -45l-38 -181h-55z" />
    <glyph glyph-name="uni0E05" unicode="&#xe05;" horiz-adv-x="594" 
d="M123 416q14 65 54.5 99.5t93.5 34.5q32 0 53.5 -12t35.5 -40q22 27 56 39.5t68 12.5q46 0 67.5 -20t21.5 -62q0 -23 -6 -53l-88 -415h-55l89 421q4 17 4 35q0 23 -12 34.5t-40 11.5q-54 0 -96 -50h-33q-17 50 -62 50q-43 0 -64.5 -20t-30.5 -62l-41 -193q65 45 136 45h67
l-6 -46h-71q-70 0 -136 -45l-38 -181h-55z" />
    <glyph glyph-name="uni0E06" unicode="&#xe06;" horiz-adv-x="577" 
d="M171 11q-43 21 -76 60l-20 -71h-48l51 244q6 27 28.5 56.5t62.5 71.5q33 35 50 56.5t21 38.5q1 3 1 9q0 20 -23 20q-27 0 -58 -24l-8 -38h-45l22 106h45l-6 -28q38 28 76 28q25 0 38.5 -12.5t13.5 -35.5q0 -33 -21.5 -64t-63.5 -76q-34 -36 -53.5 -61.5t-24.5 -50.5
l-26 -119q30 -40 70 -62t95 -22q77 0 117 33.5t56 108.5l76 361h55l-76 -358q-20 -95 -75.5 -143.5t-144.5 -48.5q-66 0 -109 21z" />
    <glyph glyph-name="uni0E07" unicode="&#xe07;" horiz-adv-x="559" 
d="M166 -1l-73 370h54l66 -332q8 -1 25 -1q179 0 233 253q14 64 14 102q0 55 -28.5 78.5t-95.5 23.5h-32l10 47h36q84 0 123 -36.5t39 -113.5q0 -43 -12 -100q-32 -154 -106 -227t-179 -73q-53 0 -74 9z" />
    <glyph glyph-name="uni0E08" unicode="&#xe08;" horiz-adv-x="555" 
d="M164 -1l-39 240h-60l13 47h93l40 -249q7 -1 22 -1q49 0 95 25t82.5 79.5t53.5 136.5q12 56 12 95q0 69 -39.5 99.5t-131.5 30.5q-102 0 -181 -25l10 47q84 26 189 26q206 0 206 -178q0 -47 -11 -95q-29 -139 -107.5 -213t-186.5 -74q-39 0 -60 9z" />
    <glyph glyph-name="uni0E09" unicode="&#xe09;" horiz-adv-x="564" 
d="M87.5 22q-34.5 32 -34.5 95q0 30 7 62l25 121h55l-26 -124q-8 -37 -8 -60q0 -43 26 -61t86 -18q105 0 201 84l50 232q7 29 7 56q0 52 -37.5 72.5t-127.5 20.5q-43 0 -98.5 -8t-97.5 -21l10 47q43 13 100.5 21.5t110.5 8.5q98 0 146.5 -34t48.5 -105q0 -21 -7 -58
l-75 -353h-48l10 71q-50 -39 -103 -60t-119 -21q-67 0 -101.5 32z" />
    <glyph glyph-name="uni0E0A" unicode="&#xe0a;" horiz-adv-x="561" 
d="M101.5 24.5q-45.5 34.5 -45.5 102.5q0 24 6 51l20 92q6 28 26 54.5t56 64.5q27 28 40.5 45t16.5 31l2 13q0 10 -6.5 13.5t-21.5 3.5h-75l14 45h96q51 0 51 -44q0 -31 -18 -57.5t-56 -67.5q-32 -35 -49 -58t-22 -48l-21 -96q-5 -27 -5 -43q0 -48 32 -68.5t100 -20.5
q74 0 122 32t63 101l15 71q6 30 6 52q0 34 -18.5 48t-61.5 14h-28l14 45h24q57 0 83 26.5t38 85.5l8 38h55l-8 -40q-13 -57 -35.5 -90t-70.5 -45q30 -12 42.5 -31.5t12.5 -48.5q0 -20 -7 -57l-13 -60q-19 -93 -83 -140.5t-168 -47.5q-85 0 -130.5 34.5z" />
    <glyph glyph-name="uni0E0B" unicode="&#xe0b;" horiz-adv-x="561" 
d="M101.5 24.5q-45.5 34.5 -45.5 102.5q0 24 6 51l17 78q6 26 27.5 52.5t62.5 67.5q31 30 49 51.5t22 39.5q1 3 1 9q0 20 -23 20q-27 0 -58 -24l-8 -38h-45l22 106h45l-6 -28q38 28 76 28q25 0 38.5 -12.5t13.5 -34.5q0 -4 -2 -18q-5 -27 -24.5 -51.5t-56.5 -62.5
q-35 -34 -55 -59t-25 -50l-18 -83q-5 -27 -5 -43q0 -48 32 -68.5t100 -20.5q74 0 122 32t63 101l15 71q6 30 6 52q0 34 -18.5 48t-61.5 14h-28l14 45h24q57 0 83 26.5t38 85.5l8 38h55l-8 -40q-13 -57 -35.5 -90t-70.5 -45q30 -12 42.5 -31.5t12.5 -48.5q0 -20 -7 -57
l-13 -60q-19 -93 -83 -140.5t-168 -47.5q-85 0 -130.5 34.5z" />
    <glyph glyph-name="uni0E0C" unicode="&#xe0c;" horiz-adv-x="951" 
d="M558 10.5q-40 20.5 -73 60.5l-20 -71h-48l75 356q6 32 6 54q0 51 -32.5 71.5t-106.5 20.5q-59 0 -113 -18.5t-89 -48.5l-6 -28l114 -26l-10 -48q-84 -19 -99 -93l-30 -139q-3 -15 -3 -25q0 -17 9 -23.5t31 -6.5h62l-9 -46h-80q-34 0 -52 17.5t-18 48.5q0 12 3 25l32 152
q8 40 35.5 68.5t70.5 40.5l-112 26l17 80q48 40 114 66t144 26q183 0 183 -139q0 -21 -7 -58l-50 -232q30 -40 67.5 -62t89.5 -22q70 0 110 34t56 108l76 361h55l-76 -358q-21 -96 -75 -144t-138 -48q-63 0 -103 20.5z" />
    <glyph glyph-name="uni0E0D" unicode="&#xe0d;" horiz-adv-x="962" 
d="M520.5 -39q-46.5 11 -81.5 30l10 49q32 -21 82 -32t99 -11q182 0 182 96q0 21 -13 31q-61 -39 -150 -39t-134.5 36.5t-45.5 107.5q0 31 7 63l13 64q7 31 7 56q0 49 -31.5 69.5t-105.5 20.5q-59 0 -113 -18.5t-89 -48.5l-6 -28l114 -26l-10 -48q-84 -19 -99 -93l-30 -139
q-3 -15 -3 -25q0 -16 9.5 -23t31.5 -7h61l-9 -46h-80q-33 0 -51.5 17.5t-18.5 48.5q0 12 3 25l32 152q8 40 35.5 68.5t70.5 40.5l-112 26l17 80q48 40 114 66t144 26q93 0 137 -34.5t44 -102.5q0 -29 -7 -60l-15 -68q-7 -35 -7 -54q0 -52 33 -75.5t104 -23.5q79 0 128 38.5
t65 114.5l54 255h55l-52 -248q-9 -44 -25.5 -76t-41.5 -58q23 -20 23 -55q0 -14 -3 -29q-12 -61 -70.5 -92.5t-171.5 -31.5q-53 0 -99.5 11z" />
    <glyph glyph-name="uni0E0E" unicode="&#xe0e;" horiz-adv-x="641" 
d="M111 -147q90 39 181 39q95 0 148 -37l106 501q6 29 6 51q0 51 -34.5 73t-111.5 22q-61 0 -118.5 -18.5t-92.5 -48.5l-6 -28l117 -26l-10 -48q-39 -10 -57.5 -30.5t-27.5 -62.5l-31 -142q-10 -48 -37.5 -73t-71.5 -25h-56l9 46h43q47 0 59 54l30 143q9 42 30.5 69.5
t61.5 39.5l-115 26l17 80q48 39 117.5 65.5t148.5 26.5q191 0 191 -142q0 -25 -6 -55l-117 -547h-53q-34 20 -68.5 29.5t-83.5 9.5q-46 0 -88 -9.5t-90 -30.5z" />
    <glyph glyph-name="uni0E0F" unicode="&#xe0f;" horiz-adv-x="641" 
d="M305.5 -183q-23.5 12 -32.5 32q-15 -20 -41.5 -31.5t-60.5 -11.5h-83l15 49h71q30 0 50 9.5t40 33.5h33q17 -45 70 -45q39 0 59.5 18.5t29.5 61.5l90 423q6 29 6 51q0 51 -34.5 73t-111.5 22q-61 0 -118.5 -18.5t-92.5 -48.5l-6 -28l117 -26l-10 -48q-40 -10 -58.5 -30.5
t-26.5 -62.5l-31 -142q-10 -48 -37.5 -73t-71.5 -25h-56l9 46h43q47 0 59 54l30 143q9 42 30.5 69.5t61.5 39.5l-115 26l17 80q48 39 117.5 65.5t148.5 26.5q191 0 191 -140q0 -27 -6 -57l-91 -425q-13 -60 -51.5 -91.5t-96.5 -31.5q-33 0 -56.5 12z" />
    <glyph glyph-name="uni0E10" unicode="&#xe10;" horiz-adv-x="592" 
d="M164 -1l-39 240h-60l13 47h93l40 -249q7 -1 22 -1q49 0 95 25t82.5 79.5t53.5 136.5q12 56 12 95q0 69 -39.5 99.5t-131.5 30.5q-102 0 -181 -25l10 47q84 26 189 26q44 0 86 -10h202l-13 -47h-113q44 -43 44 -126q0 -40 -11 -90q-29 -139 -107.5 -213t-186.5 -74
q-39 0 -60 9zM228 -183q-23 12 -35 32q-15 -20 -41.5 -31.5t-60.5 -11.5h-83l15 49h71q30 0 50 9.5t40 33.5h33q17 -45 70 -45q39 0 59.5 18.5t29.5 61.5l6 27h55l-7 -32q-13 -60 -51.5 -91.5t-96.5 -31.5q-31 0 -54 12z" />
    <glyph glyph-name="uni0E11" unicode="&#xe11;" horiz-adv-x="580" 
d="M102 246q6 30 24 56.5t55 72.5q32 38 46.5 60t14.5 41q0 20 -23 20q-28 0 -59 -24l-8 -38h-45l22 106h45l-6 -28q38 28 76 28q40 0 48 -31q67 41 134 41q64 0 94.5 -28t30.5 -85q0 -32 -9 -73l-77 -364h-55l78 367q9 41 9 68q0 37 -20.5 52t-72.5 15q-28 0 -59.5 -10.5
t-54.5 -28.5q-5 -23 -19 -44.5t-45 -61.5q-29 -34 -46.5 -61.5t-23.5 -54.5l-51 -241h-55z" />
    <glyph glyph-name="uni0E12" unicode="&#xe12;" horiz-adv-x="977" 
d="M101 33q-42 43 -42 131q0 46 12 104q30 139 82 210.5t132 71.5q33 0 54.5 -12.5t38.5 -39.5q59 52 128 52q41 0 63.5 -21.5t22.5 -61.5q0 -15 -5 -40l-65 -306q30 -40 67.5 -62t89.5 -22q73 0 111.5 34t54.5 108l76 361h55l-76 -358q-41 -192 -213 -192q-63 0 -103 20.5
t-73 60.5l-20 -71h-48l89 421q5 25 5 39q0 23 -13 32.5t-43 9.5q-54 0 -93 -50h-35q-13 28 -28 39t-44 11q-105 0 -156 -234q-13 -65 -13 -103q0 -68 32 -98t98 -30q45 0 70 8l-10 -47q-31 -8 -81 -8q-78 0 -120 43z" />
    <glyph glyph-name="uni0E13" unicode="&#xe13;" horiz-adv-x="951" 
d="M482.5 23.5q-34.5 33.5 -34.5 96.5q0 31 7 62l37 174q7 37 7 55q0 49 -32.5 70t-107.5 21q-59 0 -113 -18.5t-89 -48.5l-6 -28l114 -26l-10 -48q-84 -19 -99 -93l-30 -139q-4 -22 -4 -27q0 -16 9.5 -22t32.5 -6h61l-9 -46h-80q-34 0 -52 17t-18 48q0 13 3 26l32 152
q8 40 35.5 68.5t70.5 40.5l-112 26l17 80q48 40 114 66t144 26q93 0 138 -34.5t45 -103.5q0 -22 -7 -59l-37 -174q-7 -31 -7 -58q0 -43 25 -63.5t83 -20.5q98 0 196 84l89 419h55l-114 -540h-49l10 71q-51 -40 -101.5 -60.5t-113.5 -20.5q-65 0 -99.5 33.5z" />
    <glyph glyph-name="uni0E14" unicode="&#xe14;" horiz-adv-x="628" 
d="M101 33q-42 43 -42 131q0 46 12 104q61 282 323 282q101 0 149 -43.5t48 -115.5q0 -25 -6 -51l-72 -340h-55l72 343q6 26 6 48q0 111 -153 111q-207 0 -258 -234q-12 -60 -12 -102q0 -68 31.5 -98.5t97.5 -30.5q45 0 70 8l-10 -47q-31 -8 -81 -8q-78 0 -120 43z" />
    <glyph glyph-name="uni0E15" unicode="&#xe15;" horiz-adv-x="628" 
d="M101 33q-42 43 -42 131q0 46 12 104q30 139 83 210.5t135 71.5q37 0 58.5 -12t38.5 -40q27 26 62 39t69 13q43 0 66.5 -21.5t23.5 -63.5q0 -19 -4 -38l-90 -427h-55l89 421q5 25 5 38q0 24 -12.5 33.5t-42.5 9.5q-27 0 -54.5 -12.5t-46.5 -37.5h-35q-13 27 -29.5 38.5
t-45.5 11.5q-59 0 -98 -61t-63 -173q-13 -59 -13 -105q0 -67 31.5 -96.5t98.5 -29.5q45 0 70 8l-10 -47q-31 -8 -81 -8q-78 0 -120 43z" />
    <glyph glyph-name="uni0E16" unicode="&#xe16;" horiz-adv-x="600" 
d="M84 17q-18 17 -18 48q0 13 3 26l32 152q8 40 35.5 68.5t70.5 40.5l-112 26l17 80q48 39 117 65.5t149 26.5q188 0 188 -141q0 -26 -6 -56l-75 -353h-55l75 356q6 30 6 54q0 51 -33.5 71.5t-110.5 20.5q-61 0 -118.5 -18.5t-91.5 -48.5l-6 -28l114 -26l-10 -48
q-84 -19 -99 -93l-30 -139q-3 -15 -3 -25q0 -16 9.5 -23t31.5 -7h61l-9 -46h-80q-34 0 -52 17z" />
    <glyph glyph-name="uni0E17" unicode="&#xe17;" horiz-adv-x="585" 
d="M149 540h48l-10 -71q50 39 102.5 60t118.5 21q68 0 106 -34.5t38 -101.5q0 -26 -6 -56l-76 -358h-55l76 361q6 29 6 52q0 46 -28 67.5t-90 21.5q-102 0 -201 -84l-88 -418h-55z" />
    <glyph glyph-name="uni0E18" unicode="&#xe18;" horiz-adv-x="520" 
d="M115.5 0.5q-49.5 10.5 -85.5 25.5l44 207h52l-37 -172q63 -24 138 -24q76 0 119.5 26t55.5 86q5 25 5 39q0 32 -16.5 50t-43 27t-83.5 23q-54 13 -85.5 23.5t-54 31.5t-22.5 56q0 12 3 25q14 67 75 96.5t164 29.5q45 0 93 -7.5t76 -18.5l-11 -49q-30 12 -74.5 19.5
t-85.5 7.5q-83 0 -129 -15.5t-56 -61.5q-2 -14 -2 -18q0 -21 13.5 -33.5t36 -20t71.5 -19.5q11 -2 20.5 -4.5t18.5 -4.5q71 -18 108.5 -46t37.5 -87q0 -16 -5 -43q-16 -82 -75.5 -120.5t-159.5 -38.5q-56 0 -105.5 10.5z" />
    <glyph glyph-name="uni0E19" unicode="&#xe19;" horiz-adv-x="585" 
d="M101 22q-36 32 -36 96q0 26 8 64l76 358h55l-76 -361q-7 -31 -7 -57q0 -46 27 -65.5t88 -19.5q106 0 204 84l89 419h55l-114 -540h-48l10 71q-50 -39 -104.5 -60t-119.5 -21q-71 0 -107 32z" />
    <glyph glyph-name="uni0E1A" unicode="&#xe1a;" horiz-adv-x="603" 
d="M117 27q-48 37 -48 110q0 29 7 60l73 343h55l-74 -350q-6 -30 -6 -53q0 -53 34.5 -76.5t110.5 -23.5q81 0 134 37t70 116l74 350h55l-73 -343q-22 -105 -86.5 -156t-183.5 -51q-94 0 -142 37z" />
    <glyph glyph-name="uni0E1B" unicode="&#xe1b;" horiz-adv-x="603" 
d="M117 27q-48 37 -48 110q0 29 7 60l73 343h55l-74 -350q-6 -30 -6 -53q0 -53 34.5 -76.5t110.5 -23.5q81 0 134 37t70 116l108 510h55l-107 -503q-22 -105 -86.5 -156t-183.5 -51q-94 0 -142 37z" />
    <glyph glyph-name="uni0E1C" unicode="&#xe1c;" horiz-adv-x="637" 
d="M130 447q8 41 37 67t69 26h76l-8 -47h-57q-28 0 -43.5 -13.5t-22.5 -43.5l-77 -363l237 302h33l109 -302l99 467h54l-114 -540h-58l-115 319l-250 -319h-64z" />
    <glyph glyph-name="uni0E1D" unicode="&#xe1d;" horiz-adv-x="637" 
d="M130 447q8 41 37 67t69 26h76l-8 -47h-57q-28 0 -43.5 -13.5t-22.5 -43.5l-77 -363l237 302h33l109 -302l133 627h54l-148 -700h-58l-115 319l-250 -319h-64z" />
    <glyph glyph-name="uni0E1E" unicode="&#xe1e;" horiz-adv-x="707" 
d="M119 540h56l2 -469l216 410l12 59h41l36 -469l199 469h55l-235 -540h-57l-33 420l-221 -420h-63z" />
    <glyph glyph-name="uni0E1F" unicode="&#xe1f;" horiz-adv-x="707" 
d="M119 540h56l2 -469l216 410l12 59h41l36 -469l267 629h55l-303 -700h-57l-33 420l-221 -420h-63z" />
    <glyph glyph-name="uni0E20" unicode="&#xe20;" horiz-adv-x="639" 
d="M24 46h43q47 0 59 54l30 143q9 42 30.5 69.5t61.5 39.5l-115 26l17 80q48 39 117.5 65.5t148.5 26.5q94 0 141.5 -36t47.5 -106q0 -25 -6 -55l-75 -353h-55l75 356q6 30 6 53q0 51 -34 72t-110 21q-61 0 -118.5 -18.5t-92.5 -48.5l-6 -28l117 -26l-10 -48
q-40 -10 -58.5 -30.5t-26.5 -62.5l-31 -142q-10 -48 -37.5 -73t-71.5 -25h-56z" />
    <glyph glyph-name="uni0E21" unicode="&#xe21;" horiz-adv-x="585" 
d="M179 11q-43 21 -76 60l-20 -71h-48l114 540h55l-89 -419q30 -40 70 -62t95 -22q75 0 116 34t57 108l76 361h55l-76 -358q-41 -192 -220 -192q-66 0 -109 21z" />
    <glyph glyph-name="uni0E22" unicode="&#xe22;" horiz-adv-x="578" 
d="M93 22q-51 32 -51 93q0 18 4 34q11 51 41.5 84.5t75.5 48.5q-28 9 -46 32t-18 58q0 10 4 32q15 72 64.5 109t116.5 37q44 0 77 -10l-10 -47q-26 9 -66 9q-106 0 -127 -98q-3 -16 -3 -31q0 -35 23.5 -51.5t77.5 -16.5h58l-4 -44h-66q-58 0 -95.5 -29t-48.5 -83
q-3 -15 -3 -29q0 -42 36 -62.5t115 -20.5q87 0 134.5 33.5t62.5 105.5l77 364h55l-70 -332q-16 -74 -46 -121.5t-83.5 -72t-138.5 -24.5q-95 0 -146 32z" />
    <glyph glyph-name="uni0E23" unicode="&#xe23;" horiz-adv-x="502" 
d="M104.5 -3.5q-43.5 6.5 -71.5 18.5l10 49q68 -27 156 -27q82 0 126 20.5t56 76.5q3 12 3 23q0 24 -13.5 39.5t-34.5 25.5t-61 24q-20 6 -30 10q-46 16 -75.5 31t-50 39t-20.5 59q0 12 3 27q29 138 230 138q41 0 80 -7t68 -17l-10 -49q-60 25 -140 25q-82 0 -122.5 -19.5
t-51.5 -69.5q-2 -14 -2 -20q0 -25 16 -41.5t43 -28.5t82 -30q47 -16 76.5 -30.5t48.5 -38t19 -58.5q0 -9 -4 -31q-17 -79 -75.5 -112t-162.5 -33q-49 0 -92.5 6.5z" />
    <glyph glyph-name="uni0E24" unicode="&#xe24;" horiz-adv-x="603" 
d="M508 356q6 30 6 52q0 52 -35 73t-112 21q-61 0 -118.5 -18.5t-91.5 -48.5l-6 -28l114 -26l-10 -48q-84 -19 -99 -93l-30 -139q-3 -15 -3 -26q0 -16 9 -22.5t32 -6.5h61l-9 -46h-80q-34 0 -52 17t-18 48q0 13 3 26l32 152q8 40 35.5 68.5t70.5 40.5l-112 26l17 80
q48 39 117 65.5t149 26.5q191 0 191 -141q0 -26 -6 -56l-110 -513h-55z" />
    <glyph glyph-name="uni0E25" unicode="&#xe25;" horiz-adv-x="578" 
d="M80 18q-39 28 -39 85q0 16 5 43q16 76 75 118.5t162 42.5h190l11 53q8 38 8 60q0 46 -32 64t-111 18q-94 0 -175 -25l10 47q83 26 187 26q91 0 133.5 -31t42.5 -97q0 -26 -8 -64l-76 -358h-55l55 260h-186q-78 0 -122 -28t-56 -86q-5 -23 -5 -38q0 -38 27.5 -54.5
t90.5 -16.5q40 0 70 8l-10 -47q-37 -8 -85 -8q-68 0 -107 28z" />
    <glyph glyph-name="uni0E26" unicode="&#xe26;" horiz-adv-x="641" 
d="M546 356q7 35 7 54q0 50 -34 71t-113 21q-61 0 -118.5 -18.5t-92.5 -48.5l-6 -28l117 -26l-10 -48q-39 -10 -57.5 -30.5t-27.5 -62.5l-31 -142q-10 -48 -37.5 -73t-71.5 -25h-56l9 46h43q26 0 39.5 12t19.5 42l30 143q9 42 30.5 69.5t61.5 39.5l-115 26l17 80
q48 39 117.5 65.5t148.5 26.5q191 0 191 -142q0 -25 -6 -55l-110 -513h-55z" />
    <glyph glyph-name="uni0E27" unicode="&#xe27;" horiz-adv-x="490" 
d="M18 16l10 47q59 -26 121 -26q110 0 166 55t82 178q13 62 13 99q0 69 -38.5 101t-127.5 32q-64 0 -128 -26l10 48q32 13 63.5 19.5t74.5 6.5q101 0 150.5 -45t49.5 -135q0 -44 -12 -100q-30 -140 -99.5 -210t-200.5 -70q-82 0 -134 26z" />
    <glyph glyph-name="uni0E28" unicode="&#xe28;" horiz-adv-x="614" 
d="M111 358q21 99 84.5 145.5t178.5 46.5q46 0 88 -10h181l-13 -47h-96q27 -30 27 -83q0 -25 -6 -52l-76 -358h-55l77 366q6 27 6 48q0 48 -33.5 68t-109.5 20q-167 0 -197 -136l-29 -139q65 45 136 45h67l-6 -46h-71q-70 0 -136 -45l-38 -181h-55z" />
    <glyph glyph-name="uni0E29" unicode="&#xe29;" horiz-adv-x="623" 
d="M117 27q-48 37 -48 110q0 29 7 60l73 343h55l-74 -350q-6 -30 -6 -53q0 -53 34.5 -76.5t110.5 -23.5q81 0 134 37t70 116l20 94h-157l10 46h156l45 210h55l-45 -210h66l-15 -46h-61l-18 -87q-22 -105 -86.5 -156t-183.5 -51q-94 0 -142 37z" />
    <glyph glyph-name="uni0E2A" unicode="&#xe2a;" horiz-adv-x="603" 
d="M80 18q-39 28 -39 85q0 16 5 43q16 76 75 118.5t162 42.5h190l11 53q8 38 8 61q0 46 -31.5 63.5t-111.5 17.5q-94 0 -175 -25l10 47q83 26 187 26q54 0 88 -10h163l-13 -47h-84q21 -28 21 -74q0 -30 -7 -61l-76 -358h-55l55 260h-186q-78 0 -122 -28t-56 -86
q-5 -23 -5 -38q0 -38 27.5 -54.5t90.5 -16.5q40 0 70 8l-10 -47q-37 -8 -85 -8q-68 0 -107 28z" />
    <glyph glyph-name="uni0E2B" unicode="&#xe2b;" horiz-adv-x="582" 
d="M149 540h55l-38 -182h201q71 0 106 29t48 89l13 64h55l-13 -64q-13 -57 -41 -94t-80 -50q32 -12 45.5 -34t13.5 -54q0 -23 -6 -52l-40 -192h-55l40 191q7 35 7 51q0 38 -25 53.5t-83 15.5h-196l-66 -311h-55z" />
    <glyph glyph-name="uni0E2C" unicode="&#xe2c;" horiz-adv-x="707" 
d="M119 540h56l3 -469l206 370l13 59h41l42 -429l164 381q16 36 16 58q0 17 -12 24.5t-37 7.5h-40l16 45h39q43 0 66 15t40 54l18 44h54l-21 -49q-18 -42 -41 -63t-53 -26q26 -12 26 -43q0 -25 -17 -64l-197 -455h-57l-41 383l-214 -383h-62z" />
    <glyph glyph-name="uni0E2D" unicode="&#xe2d;" horiz-adv-x="551" 
d="M105.5 0.5q-49.5 10.5 -85.5 25.5l57 266h182l-7 -47h-130l-40 -184q25 -11 61.5 -17.5t73.5 -6.5q70 0 117 23t77 73.5t48 135.5q14 67 14 109q0 68 -39 96t-134 28t-176 -25l10 47q81 26 191 26q102 0 151 -43.5t49 -133.5q0 -45 -12 -104q-31 -143 -101 -211t-202 -68
q-55 0 -104.5 10.5z" />
    <glyph glyph-name="uni0E2E" unicode="&#xe2e;" horiz-adv-x="583" 
d="M105.5 0.5q-49.5 10.5 -85.5 25.5l57 266h182l-7 -47h-130l-40 -184q25 -11 61.5 -17.5t73.5 -6.5q70 0 117 23t77 73.5t48 135.5q14 67 14 109q0 68 -39 96t-134 28t-176 -25l10 47q81 26 191 26q44 0 86 -10h191l-13 -47h-104q40 -44 40 -125q0 -45 -12 -99
q-31 -143 -101 -211t-202 -68q-55 0 -104.5 10.5z" />
    <glyph glyph-name="uni0E2F" unicode="&#xe2f;" horiz-adv-x="495" 
d="M397 342q-68 -42 -152 -42q-65 0 -102 31t-37 82q0 14 3 29q14 58 38 98h55q-27 -39 -39 -95q-4 -22 -4 -31q0 -34 23 -50t77 -16q87 0 148 42l32 150h55l-114 -540h-55z" />
    <glyph glyph-name="uni0E30" unicode="&#xe30;" horiz-adv-x="322" 
d="M109 443h49l-11 -49h163l-11 -45h-210zM49 163h49l-10 -50h163l-12 -44h-210z" />
    <glyph glyph-name="uni0E31" unicode="&#xe31;" 
d="M-152 758h49l-17 -76h278l-12 -43h-324z" />
    <glyph glyph-name="uni0E32" unicode="&#xe32;" horiz-adv-x="435" 
d="M340 357q9 41 9 69q0 41 -26.5 58.5t-93.5 17.5q-33 0 -72 -6.5t-71 -18.5l10 47q33 12 73.5 19t79.5 7q80 0 117.5 -28.5t37.5 -91.5q0 -33 -8 -68l-76 -362h-55z" />
    <glyph glyph-name="uni0E33" unicode="&#xe33;" horiz-adv-x="435" 
d="M-78 602q-22 21 -22 54q0 47 34.5 81t83.5 34q34 0 56 -21.5t22 -53.5q0 -48 -35 -81.5t-83 -33.5q-34 0 -56 21zM29 636.5q20 16.5 25 39.5q2 10 2 15q0 18 -12 29.5t-34 11.5q-27 0 -48.5 -22t-21.5 -49q0 -18 11 -29.5t35 -11.5q23 0 43 16.5zM340 357q9 41 9 69
q0 41 -26.5 58.5t-93.5 17.5q-33 0 -72 -6.5t-71 -18.5l10 47q33 12 73.5 19t79.5 7q79 0 117 -29t38 -91q0 -28 -8 -68l-76 -362h-55z" />
    <glyph glyph-name="uni0E34" unicode="&#xe34;" 
d="M-346 682h373l-9 -43h-376z" />
    <glyph glyph-name="uni0E35" unicode="&#xe35;" 
d="M-346 682h324l19 87h49l-28 -130h-376z" />
    <glyph glyph-name="uni0E36" unicode="&#xe36;" 
d="M-346 682h242q-5 8 -5 22q0 8 1 12q7 35 32 54.5t60 19.5q31 0 47.5 -16.5t16.5 -41.5q0 -4 -2 -16q-7 -34 -32.5 -55.5t-63.5 -21.5h-308zM-6 685.5q13 11.5 16 29.5q2 8 2 13q0 14 -9 22t-25 8q-18 0 -32.5 -12t-18.5 -31q-1 -3 -1 -9q0 -14 8.5 -23t25.5 -9
q21 0 34 11.5z" />
    <glyph glyph-name="uni0E37" unicode="&#xe37;" 
d="M-346 682h216l19 87h45l-19 -87h67l19 87h45l-28 -130h-376z" />
    <glyph glyph-name="uni0E38" unicode="&#xe38;" 
d="M-192 -110h-68l12 41h115l-38 -179h-50z" />
    <glyph glyph-name="uni0E39" unicode="&#xe39;" 
d="M-321 -238.5q-21 16.5 -21 43.5q0 9 1 14l15 72h-52l11 40h94l-24 -110q-1 -4 -1 -11q0 -13 9.5 -19t30.5 -6q24 0 38.5 9.5t17.5 26.5l24 110h45l-24 -112q-7 -33 -36 -53.5t-74 -20.5q-33 0 -54 16.5z" />
    <glyph glyph-name="uni0E3A" unicode="&#xe3a;" 
d="M-190.5 -121.5q-7.5 9.5 -5.5 22.5q3 14 14.5 23.5t25.5 9.5t21.5 -9.5t4.5 -23.5q-2 -14 -13.5 -23t-25.5 -9t-21.5 9.5z" />
    <glyph glyph-name="uni0E3F" unicode="&#xe3f;" horiz-adv-x="619" 
d="M227 0h-192l136 644h193l19 86h45l-19 -86h45q75 0 112.5 -31t37.5 -90q0 -19 -5 -47q-12 -53 -42 -90t-73 -55q83 -19 83 -103q0 -25 -5 -46q-20 -94 -75.5 -138t-149.5 -44h-65l-18 -86h-45zM302 354l53 246h-138l-52 -246h137zM398 354q122 0 148 119q6 27 6 50
q0 39 -26.5 58t-92.5 19h-33l-52 -246h50zM236 43l57 268h-137l-57 -268h137zM341 43q72 0 112 32.5t56 108.5q5 25 5 41q0 43 -30.5 64.5t-100.5 21.5h-44l-58 -268h60z" />
    <glyph glyph-name="uni0E40" unicode="&#xe40;" horiz-adv-x="286" 
d="M69 17q-18 17 -18 47q0 14 3 27l95 449h55l-93 -439q-3 -15 -3 -26q0 -17 9.5 -23t33.5 -6h49l-9 -46h-70q-34 0 -52 17z" />
    <glyph glyph-name="uni0E41" unicode="&#xe41;" horiz-adv-x="496" 
d="M69.5 17.5q-18.5 17.5 -18.5 47.5q0 13 3 26l95 449h55l-93 -439q-3 -16 -3 -27q0 -16 9.5 -22t33.5 -6h44l-9 -46h-65q-33 0 -51.5 17.5zM284.5 17.5q-18.5 17.5 -18.5 47.5q0 13 3 26l95 449h55l-93 -439q-3 -16 -3 -27q0 -16 9.5 -22t33.5 -6h44l-9 -46h-65
q-33 0 -51.5 17.5z" />
    <glyph glyph-name="uni0E42" unicode="&#xe42;" horiz-adv-x="300" 
d="M113 17q-18 17 -18 47q0 14 3 27l79 372q10 50 10 75q0 39 -18.5 62t-61.5 45l10 49h256l-10 -46h-185q34 -20 49 -43.5t15 -62.5q0 -31 -13 -93l-74 -348q-3 -15 -3 -26q0 -17 9.5 -23t33.5 -6h49l-9 -46h-70q-34 0 -52 17z" />
    <glyph glyph-name="uni0E43" unicode="&#xe43;" horiz-adv-x="278" 
d="M56 17q-18 17 -18 47q0 14 3 27l55 260q8 39 26.5 68t39 48t52.5 44q32 24 48 40t21 38q2 7 2 20q0 23 -16.5 32t-52.5 9q-58 0 -120 -31l10 45q30 16 65 24.5t68 8.5q102 0 102 -76q0 -31 -11.5 -54t-28 -39t-46.5 -38q-43 -32 -68.5 -61.5t-35.5 -76.5l-53 -251
q-3 -15 -3 -26q0 -17 9.5 -23t33.5 -6h49l-9 -46h-70q-34 0 -52 17z" />
    <glyph glyph-name="uni0E44" unicode="&#xe44;" horiz-adv-x="285" 
d="M87 17q-18 17 -18 47q0 14 3 27l79 374q14 64 50 110t87 73h-181l10 46h250l-10 -48q-65 -27 -101 -73t-53 -122l-74 -350q-3 -15 -3 -26q0 -17 9.5 -23t33.5 -6h49l-9 -46h-70q-34 0 -52 17z" />
    <glyph glyph-name="uni0E45" unicode="&#xe45;" horiz-adv-x="435" 
d="M340 357q9 41 9 69q0 41 -26.5 58.5t-93.5 17.5q-33 0 -72 -6.5t-71 -18.5l10 47q33 12 73.5 19t79.5 7q80 0 117.5 -28.5t37.5 -91.5q0 -33 -8 -68l-111 -522h-55z" />
    <glyph glyph-name="uni0E46" unicode="&#xe46;" horiz-adv-x="554" 
d="M473 423q5 25 5 38q0 15 -6 24t-21 13q-10 2 -16 2q-7 0 -27 -4q-38 -8 -66 -45h-34q-8 28 -19.5 39.5t-37.5 11.5q-33 0 -60 -28.5t-40 -88.5q-5 -25 -5 -41q0 -35 21 -50.5t66 -15.5q43 0 70 8l-10 -47q-34 -9 -81 -9q-56 0 -88 28t-32 82q0 18 5 45q18 81 59 123
t98 42q33 0 50.5 -11t28.5 -39q47 50 117 50q43 0 62.5 -19t19.5 -61q0 -27 -10 -75l-83 -395h-55z" />
    <glyph glyph-name="uni0E47" unicode="&#xe47;" 
d="M-321 657.5q-26 20.5 -26 57.5q0 12 3 25q11 53 47.5 82.5t98.5 29.5h233l-12 -39h-226q-82 0 -97 -73q-3 -13 -2 -21q0 -24 15 -34t47 -10q34 0 51.5 10.5t21.5 33.5l6 28h41l-6 -28q-2 -12 -2 -15q0 -15 10.5 -20.5t34.5 -5.5h64l-8 -39h-67q-50 0 -60 31
q-32 -33 -96 -33q-45 0 -71 20.5z" />
    <glyph glyph-name="uni0E48" unicode="&#xe48;" 
d="M-3 799h55l-34 -160h-54z" />
    <glyph glyph-name="uni0E49" unicode="&#xe49;" 
d="M-149 736h-79l9 42h123l-20 -96h220l-13 -43h-261z" />
    <glyph glyph-name="uni0E4A" unicode="&#xe4a;" 
d="M-315 648q-23 18 -23 54q0 13 3 28q10 48 39.5 73.5t67.5 25.5q49 0 54 -43h1q11 20 32.5 31.5t46.5 11.5q64 0 64 -53q0 -10 -3 -24l-15 -77h18q17 0 24.5 7.5t12.5 27.5l25 116h40l-26 -119q-6 -32 -27 -50t-56 -18h-60l22 103q3 14 3 23q0 14 -8 20t-26 6
q-26 0 -39 -14t-18 -39l-3 -14h-37l3 14q3 12 3 22q0 31 -35 31q-25 0 -39.5 -15t-21.5 -47q-4 -22 -4 -28q0 -19 13 -26.5t46 -7.5h26l-8 -37h-31q-41 0 -64 18z" />
    <glyph glyph-name="uni0E4B" unicode="&#xe4b;" 
d="M-19 704h-76l9 44h76l15 67h52l-15 -67h78l-9 -44h-78l-14 -65h-52z" />
    <glyph glyph-name="uni0E4C" unicode="&#xe4c;" 
d="M-144 760h268l-11 -42h-217l-17 -80h-49z" />
    <glyph glyph-name="uni0E4D" unicode="&#xe4d;" 
d="M-76 642q-22 21 -22 54q0 47 34.5 81t83.5 34q34 0 56 -21.5t22 -53.5q0 -48 -35 -81.5t-83 -33.5q-34 0 -56 21zM31 676.5q20 16.5 25 39.5q2 10 2 15q0 18 -12 29.5t-34 11.5q-27 0 -48.5 -22t-21.5 -49q0 -18 11 -29.5t35 -11.5q23 0 43 16.5z" />
    <glyph glyph-name="uni0E4E" unicode="&#xe4e;" 
d="M-183 693q0 11 2 18q8 37 36 59t63 25q-9 10 -9 28q0 33 27 53t71 20q32 0 49 -11l-8 -35q-8 6 -20.5 9t-24.5 3q-24 0 -37 -6.5t-17 -23.5q-6 -26 35 -37l-6 -36q-15 8 -38 8q-67 0 -78 -52q-1 -3 -1 -10q0 -15 12 -22.5t39 -7.5q38 0 63 16l-7 -36q-28 -16 -69 -16
q-82 0 -82 54z" />
    <glyph glyph-name="uni0E4F" unicode="&#xe4f;" horiz-adv-x="611" 
d="M157.5 15.5q-46.5 25.5 -72 70.5t-25.5 101q0 26 6 53q14 68 60 125.5t111 91.5t133 34q59 0 105 -26t72 -71.5t26 -101.5q0 -25 -6 -52q-15 -68 -61 -125.5t-110.5 -91t-132.5 -33.5q-59 0 -105.5 25.5zM380.5 64.5q52.5 27.5 90 74t49.5 101.5q5 27 5 47
q0 69 -43 112.5t-122 43.5q-55 0 -107.5 -27.5t-90 -74t-48.5 -101.5q-6 -25 -6 -51q0 -68 42.5 -110t122.5 -42q55 0 107.5 27.5zM213 138.5q-29 28.5 -29 72.5q0 42 22.5 78.5t59.5 58t78 21.5q46 0 75.5 -29t29.5 -73q0 -41 -23 -77t-60 -58t-77 -22q-47 0 -76 28.5z
M364 180q31 25 38 60q2 8 2 22q0 28 -17.5 46t-51.5 18q-36 0 -66 -25.5t-38 -60.5q-3 -12 -3 -23q0 -28 17.5 -45t52.5 -17t66 25z" />
    <glyph glyph-name="uni0E50" unicode="&#xe50;" horiz-adv-x="613" 
d="M110.5 34.5q-53.5 44.5 -53.5 130.5q0 37 8 72q25 121 103.5 184t199.5 63q99 0 153.5 -45.5t54.5 -132.5q0 -29 -8 -69q-26 -122 -103.5 -184.5t-201.5 -62.5q-99 0 -152.5 44.5zM513 237q9 41 9 72q0 65 -39.5 96t-124.5 31q-195 0 -239 -199q-9 -40 -9 -72
q0 -66 40 -97t123 -31q198 0 240 200z" />
    <glyph glyph-name="uni0E51" unicode="&#xe51;" horiz-adv-x="641" 
d="M242 -53q250 54 296 271q9 42 9 78q0 69 -41 104.5t-133 35.5q-105 0 -168.5 -47.5t-82.5 -138.5q-7 -31 -7 -58q0 -49 29 -72t93 -23q29 0 57.5 6.5t47.5 18.5l-9 -46q-50 -26 -114 -26q-74 0 -116 37.5t-42 105.5q0 20 7 57q24 113 103 173.5t212 60.5q110 0 164 -48
t54 -138q0 -37 -9 -81q-26 -122 -117.5 -205t-242.5 -115z" />
    <glyph glyph-name="uni0E52" unicode="&#xe52;" horiz-adv-x="686" 
d="M136 33.5q-61 43.5 -61 129.5q0 27 6 58l68 319h52l-69 -324q-6 -28 -6 -53q0 -65 46 -96t141 -31q97 0 163.5 39t83.5 118l34 164q5 27 5 39q0 24 -12 33.5t-39 9.5q-52 0 -85 -53h-35q-8 29 -20.5 41t-39.5 12q-37 0 -61 -29.5t-37 -92.5q-5 -20 -5 -41q0 -32 19.5 -44
t63.5 -12q43 0 68 8l-9 -41q-33 -9 -79 -9q-52 0 -81 23.5t-29 72.5q0 16 5 43q18 85 57 126t92 41q33 0 50.5 -11.5t30.5 -38.5q50 50 116 50q41 0 62.5 -20.5t21.5 -59.5q0 -15 -5 -40l-35 -162q-22 -104 -103 -158t-207 -54q-106 0 -167 43.5z" />
    <glyph glyph-name="uni0E53" unicode="&#xe53;" horiz-adv-x="629" 
d="M93.5 23q-42.5 33 -42.5 112q0 37 11 90q29 133 80.5 196t131.5 63q71 0 94 -54q24 27 58.5 40.5t67.5 13.5q45 0 73 -22t28 -65q0 -9 -4 -31l-77 -366h-55l76 358q4 24 4 31q0 25 -15 36t-49 11q-30 0 -58.5 -17t-35.5 -48l-20 -95h-48l20 95q2 10 2 15q0 24 -18.5 37
t-45.5 13q-60 0 -96 -51.5t-59 -159.5q-11 -53 -11 -85q0 -60 32 -81.5t104 -21.5q45 0 70 8l-10 -47q-29 -8 -82 -8q-83 0 -125.5 33z" />
    <glyph glyph-name="uni0E54" unicode="&#xe54;" horiz-adv-x="631" 
d="M102.5 33.5q-48.5 43.5 -48.5 124.5q0 29 8 67q27 125 119.5 192t249.5 67q83 0 129 8.5t90 33.5l-10 -49q-41 -24 -90.5 -32.5t-127.5 -8.5q-133 0 -208 -52t-98 -159q-8 -33 -8 -68q0 -61 35.5 -90.5t109.5 -29.5q44 0 83 21q-15 23 -15 57q0 20 4 37q12 59 56 92
t110 33q57 0 85 -17l-10 -44q-22 17 -66 17q-54 0 -84.5 -19t-39.5 -63q-4 -16 -4 -32q0 -41 31.5 -56t98.5 -15h64l-10 -48h-55q-84 0 -131 27q-57 -37 -131 -37q-88 0 -136.5 43.5z" />
    <glyph glyph-name="uni0E55" unicode="&#xe55;" horiz-adv-x="631" 
d="M102.5 33.5q-48.5 43.5 -48.5 124.5q0 29 8 67q21 98 80.5 159.5t165.5 82.5q-21 5 -42.5 16t-31.5 21l10 49q31 -28 88.5 -48.5t108.5 -20.5q77 0 121.5 8.5t87.5 33.5l-10 -49q-41 -24 -90.5 -32.5t-127.5 -8.5q-260 0 -306 -211q-8 -33 -8 -68q0 -61 35.5 -90.5
t109.5 -29.5q44 0 83 21q-15 23 -15 57q0 20 4 37q12 59 56 92t110 33q57 0 85 -17l-10 -44q-22 17 -66 17q-54 0 -84.5 -19t-39.5 -63q-4 -16 -4 -32q0 -41 31.5 -56t98.5 -15h64l-10 -48h-55q-84 0 -131 27q-57 -37 -131 -37q-88 0 -136.5 43.5z" />
    <glyph glyph-name="uni0E56" unicode="&#xe56;" horiz-adv-x="648" 
d="M197 5q-48 15 -76 43l10 50q37 -33 80 -47t98 -14q95 0 157 50.5t82 147.5q10 44 10 83q0 59 -33 88.5t-110 29.5q-74 0 -130.5 -36t-95.5 -115h-46l-34 255h51l25 -193q39 64 100.5 100.5t141.5 36.5q92 0 138 -46t46 -127q0 -35 -9 -76q-24 -115 -101 -180t-200 -65
q-56 0 -104 15z" />
    <glyph glyph-name="uni0E57" unicode="&#xe57;" horiz-adv-x="852" 
d="M95.5 24.5q-43.5 34.5 -43.5 115.5q0 39 10 85q29 134 79 196.5t131 62.5q37 0 59.5 -13.5t34.5 -40.5q24 27 58 40.5t68 13.5q47 0 73.5 -21t26.5 -63q0 -18 -4 -35l-68 -320h15q85 0 129.5 34t62.5 121l72 340h52l-70 -329q-16 -77 -47 -122.5t-83.5 -67t-134.5 -21.5
h-57l76 358q3 17 3 28q0 28 -16 39.5t-50 11.5q-29 0 -57.5 -17.5t-34.5 -47.5l-21 -96h-50l20 95q2 10 2 15q0 25 -18 38t-45 13q-61 0 -95.5 -52t-57.5 -160q-11 -53 -11 -86q0 -61 32.5 -82t104.5 -21q44 0 71 8l-10 -46q-31 -8 -83 -8q-80 0 -123.5 34.5z" />
    <glyph glyph-name="uni0E58" unicode="&#xe58;" horiz-adv-x="623" 
d="M82.5 24.5q-31.5 34.5 -31.5 105.5q0 43 12 100q29 135 109.5 194.5t223.5 59.5q88 0 143 8.5t100 33.5l-10 -49q-41 -24 -99 -32.5t-143 -8.5q-77 0 -130 -18.5t-88 -63.5t-52 -124q-14 -65 -14 -104q0 -47 20.5 -68t64.5 -21q34 0 62.5 17t34.5 49l20 91h45l-20 -92
q-1 -4 -1 -11q0 -26 23 -40t50 -14t47 5t41 17l38 180h-82l13 41h128l-53 -251q-34 -21 -64 -30t-72 -9q-72 0 -99 53q-22 -27 -55.5 -40t-72.5 -13q-57 0 -88.5 34.5z" />
    <glyph glyph-name="uni0E59" unicode="&#xe59;" horiz-adv-x="740" 
d="M92 28.5q-39 38.5 -39 115.5q0 39 10 82q28 132 80.5 195t134.5 63q42 0 64 -13.5t31 -40.5q44 54 122 54q41 0 68 -21t27 -62q0 -12 -3 -27l-4 -21h8q54 0 81.5 24t40.5 86l12 57h50l-10 -45q-13 -62 -35.5 -98.5t-60.5 -53t-100 -16.5h-40l10 48q5 27 5 40
q0 23 -13 32.5t-45 9.5q-40 0 -68 -20t-25 -51l30 -366h-50l-31 373q-3 32 -18.5 48t-51.5 16q-60 0 -97 -52t-60 -160q-10 -46 -10 -83q0 -57 27.5 -81.5t84.5 -24.5q41 0 66 8l-10 -47q-31 -7 -77 -7q-65 0 -104 38.5z" />
    <glyph glyph-name="uni0E5A" unicode="&#xe5a;" horiz-adv-x="761" 
d="M397 342q-68 -42 -152 -42q-65 0 -102 31t-37 82q0 14 3 29q14 58 38 98h55q-27 -39 -39 -95q-3 -15 -3 -27q0 -70 99 -70q87 0 148 42l32 150h55l-37 -177q20 -15 69 -15q86 0 147 42l32 150h55l-114 -540h-55l72 342q-68 -42 -151 -42q-43 0 -66 13l-66 -313h-55z" />
    <glyph glyph-name="uni0E5B" unicode="&#xe5b;" horiz-adv-x="1165" 
d="M122.5 72q-54.5 50 -54.5 141q0 37 9 79q24 116 95.5 187t179.5 71q80 0 120.5 -35.5t40.5 -97.5q0 -24 -6 -51q-28 -131 -167 -183l11 49q47 23 70.5 55.5t33.5 78.5q7 35 7 55q0 42 -27 63t-91 21q-85 0 -140 -56.5t-76 -154.5q-10 -50 -10 -82q0 -73 42 -109t132 -36
q118 0 193 72t101 193q9 39 12 68.5t4 67.5h65q17 -47 27 -108.5t8 -112.5h2q24 43 47.5 104t28.5 96h52q8 -28 16.5 -84t10.5 -104h2q17 31 38.5 84.5t31.5 91.5h46q9 -27 16 -78t8 -84h2q37 57 50 138h37q-11 -51 -16 -65h69l-11 -38h-73q-9 -22 -20.5 -41t-30.5 -46h-42
q2 27 -3.5 78t-13.5 77h-2q-8 -27 -33.5 -87t-41.5 -89h-52q1 10 1 32q0 41 -5 83t-14 71h-2q-9 -33 -37.5 -98.5t-52.5 -108.5h-51q4 24 4 60q0 40 -5.5 84t-13.5 77h-2q-10 -112 -55.5 -197.5t-123 -133t-181.5 -47.5q-105 0 -159.5 50z" />
    <glyph glyph-name="uni1E0C" unicode="&#x1e0c;" horiz-adv-x="632" 
d="M171 644h240q108 0 159 -45.5t51 -144.5q0 -57 -17 -137q-25 -114 -62 -182.5t-100.5 -101.5t-164.5 -33h-242zM274 44q79 0 130 22.5t86.5 82t58.5 168.5q19 90 19 142q0 78 -41 109t-135 31h-175l-118 -555h175zM236 -95h59l-12 -57h-59z" />
    <glyph glyph-name="uni1E0D" unicode="&#x1e0d;" horiz-adv-x="564" 
d="M99.5 30q-45.5 40 -45.5 122q0 31 10 81q27 126 97 188.5t173 62.5q49 0 85.5 -11.5t66.5 -38.5l51 240h55l-143 -674h-46l6 53q-42 -32 -86.5 -47.5t-98.5 -15.5q-79 0 -124.5 40zM415 99l61 287q-25 26 -57 39t-79 13q-86 0 -143 -50.5t-79 -154.5q-10 -50 -10 -79
q0 -61 33.5 -90t105.5 -29q94 0 168 64zM213 -95h59l-12 -57h-59z" />
    <glyph glyph-name="uni1E0E" unicode="&#x1e0e;" horiz-adv-x="632" 
d="M171 644h240q108 0 159 -45.5t51 -144.5q0 -57 -17 -137q-25 -114 -62 -182.5t-100.5 -101.5t-164.5 -33h-242zM274 44q79 0 130 22.5t86.5 82t58.5 168.5q19 90 19 142q0 78 -41 109t-135 31h-175l-118 -555h175zM92 -81h276l-9 -42h-276z" />
    <glyph glyph-name="uni1E0F" unicode="&#x1e0f;" horiz-adv-x="564" 
d="M99.5 30q-45.5 40 -45.5 122q0 31 10 81q27 126 97 188.5t173 62.5q49 0 85.5 -11.5t66.5 -38.5l51 240h55l-143 -674h-46l6 53q-42 -32 -86.5 -47.5t-98.5 -15.5q-79 0 -124.5 40zM415 99l61 287q-25 26 -57 39t-79 13q-86 0 -143 -50.5t-79 -154.5q-10 -50 -10 -79
q0 -61 33.5 -90t105.5 -29q94 0 168 64zM96 -81h276l-9 -42h-276z" />
    <glyph glyph-name="uni1E20" unicode="&#x1e20;" horiz-adv-x="633" 
d="M334 759h276l-9 -42h-276zM128.5 48q-60.5 58 -60.5 162q0 42 11 94q36 166 126 258t244 92q102 0 178 -27l-11 -49q-77 28 -172 28q-132 0 -206 -78t-105 -224q-12 -55 -12 -100q0 -83 47.5 -125t155.5 -42q46 0 94 8t84 22l48 229h-183l10 44h233l-64 -301
q-36 -21 -95.5 -35t-142.5 -14q-119 0 -179.5 58z" />
    <glyph glyph-name="uni1E21" unicode="&#x1e21;" horiz-adv-x="542" 
d="M229 593h276l-9 -42h-276zM139 -173q-34 3 -51 7l10 48q19 -6 48.5 -9t53.5 -3q78 0 128.5 31t63.5 91l12 57q-40 -26 -81 -37.5t-92 -11.5q-83 0 -129 38t-46 119q0 34 9 79q26 127 93.5 187.5t170.5 60.5q54 0 92 -15.5t66 -48.5l16 54h46l-101 -477
q-17 -80 -82.5 -126.5t-165.5 -46.5q-27 0 -61 3zM414 98l59 276q-47 64 -140 64q-90 0 -141.5 -49.5t-72.5 -152.5q-10 -50 -10 -77q0 -61 34.5 -87.5t110.5 -26.5q89 0 160 53z" />
    <glyph glyph-name="uni1E24" unicode="&#x1e24;" horiz-adv-x="630" 
d="M171 644h55l-63 -300h370l63 300h55l-136 -644h-55l63 300h-370l-63 -300h-55zM226 -95h59l-12 -57h-59z" />
    <glyph glyph-name="uni1E25" unicode="&#x1e25;" horiz-adv-x="559" 
d="M178 674h55l-55 -257q45 32 94.5 49.5t109.5 17.5q139 0 139 -116q0 -25 -6 -55l-66 -313h-55l66 312q6 29 6 51q0 40 -26 57.5t-88 17.5q-47 0 -96 -19t-88 -51l-78 -368h-55zM190 -95h59l-12 -57h-59z" />
    <glyph glyph-name="uni1E2A" unicode="&#x1e2a;" horiz-adv-x="630" 
d="M171 644h55l-63 -300h370l63 300h55l-136 -644h-55l63 300h-370l-63 -300h-55zM154 -161q-30 24 -30 71q0 18 4 35h40q-4 -22 -4 -31q0 -32 19.5 -46.5t58.5 -14.5q43 0 73.5 22.5t40.5 69.5h43q-14 -65 -57 -97.5t-106 -32.5q-52 0 -82 24z" />
    <glyph glyph-name="uni1E2B" unicode="&#x1e2b;" horiz-adv-x="559" 
d="M178 674h55l-55 -257q45 32 94.5 49.5t109.5 17.5q139 0 139 -116q0 -25 -6 -55l-66 -313h-55l66 312q6 29 6 51q0 40 -26 57.5t-88 17.5q-47 0 -96 -19t-88 -51l-78 -368h-55zM124 -161q-30 24 -30 71q0 18 4 35h40q-4 -22 -4 -31q0 -32 19.5 -46.5t58.5 -14.5
q43 0 73.5 22.5t40.5 69.5h43q-14 -65 -57 -97.5t-106 -32.5q-52 0 -82 24z" />
    <glyph glyph-name="uni1E36" unicode="&#x1e36;" horiz-adv-x="521" 
d="M171 644h55l-127 -600h356l-9 -44h-411zM180 -95h59l-12 -57h-59z" />
    <glyph glyph-name="uni1E37" unicode="&#x1e37;" horiz-adv-x="246" 
d="M67.5 4.5q-17.5 14.5 -17.5 48.5q0 19 4 38l124 583h55l-124 -581q-4 -22 -4 -28q0 -16 8 -22t26 -6q22 0 46 6l-10 -46q-22 -7 -55 -7q-35 0 -52.5 14.5zM38 -95h59l-12 -57h-59z" />
    <glyph glyph-name="uni1E38" unicode="&#x1e38;" horiz-adv-x="535" 
d="M121 759h276l-9 -42h-276zM185 644h55l-127 -600h356l-9 -44h-411zM200 -95h59l-12 -57h-59z" />
    <glyph glyph-name="uni1E39" unicode="&#x1e39;" horiz-adv-x="246" 
d="M87 762h276l-9 -42h-276zM67.5 4.5q-17.5 14.5 -17.5 48.5q0 19 4 38l124 583h55l-124 -581q-4 -22 -4 -28q0 -16 8 -22t26 -6q22 0 46 6l-10 -46q-22 -7 -55 -7q-35 0 -52.5 14.5zM48 -95h59l-12 -57h-59z" />
    <glyph glyph-name="uni1E3A" unicode="&#x1e3a;" horiz-adv-x="521" 
d="M171 644h55l-127 -600h356l-9 -44h-411zM78 -75h276l-9 -42h-276z" />
    <glyph glyph-name="uni1E3B" unicode="&#x1e3b;" horiz-adv-x="246" 
d="M67.5 4.5q-17.5 14.5 -17.5 48.5q0 19 4 38l124 583h55l-124 -581q-4 -22 -4 -28q0 -16 8 -22t26 -6q22 0 46 6l-10 -46q-22 -7 -55 -7q-35 0 -52.5 14.5zM-70 -75h276l-9 -42h-276z" />
    <glyph glyph-name="uni1E42" unicode="&#x1e42;" horiz-adv-x="744" 
d="M171 644h61l132 -477l334 477h67l-136 -644h-54l119 564l-317 -452h-43l-126 452l-119 -564h-54zM283 -95h59l-12 -57h-59z" />
    <glyph glyph-name="uni1E43" unicode="&#x1e43;" horiz-adv-x="850" 
d="M135 474h48l-7 -58q96 68 191 68q49 0 77.5 -18.5t35.5 -49.5q95 68 203 68q130 0 130 -112q0 -25 -6 -55l-67 -317h-54l66 312q7 35 7 52q0 41 -24.5 57.5t-81.5 16.5q-46 0 -89.5 -15.5t-76.5 -45.5q0 -33 -8 -67l-65 -310h-53l65 309q8 35 8 58q0 37 -21.5 54
t-70.5 17q-42 0 -89 -19t-86 -50l-78 -369h-54zM337 -95h59l-12 -57h-59z" />
    <glyph glyph-name="uni1E44" unicode="&#x1e44;" horiz-adv-x="656" 
d="M438 770h57l-12 -56h-57zM171 644h52l280 -562l119 562h55l-136 -644h-53l-279 561l-119 -561h-55z" />
    <glyph glyph-name="uni1E45" unicode="&#x1e45;" horiz-adv-x="559" 
d="M343 604h57l-12 -56h-57zM135 474h48l-7 -58q95 68 206 68q139 0 139 -116q0 -25 -6 -55l-66 -313h-55l66 312q7 31 7 56q0 38 -24 54t-83 16q-51 0 -102 -18.5t-90 -50.5l-78 -369h-55z" />
    <glyph glyph-name="uni1E46" unicode="&#x1e46;" horiz-adv-x="656" 
d="M171 644h52l280 -562l119 562h55l-136 -644h-53l-279 561l-119 -561h-55zM236 -95h59l-12 -57h-59z" />
    <glyph glyph-name="uni1E47" unicode="&#x1e47;" horiz-adv-x="559" 
d="M135 474h48l-7 -58q95 68 206 68q139 0 139 -116q0 -25 -6 -55l-66 -313h-55l66 312q7 31 7 56q0 38 -24 54t-83 16q-51 0 -102 -18.5t-90 -50.5l-78 -369h-55zM199 -95h59l-12 -57h-59z" />
    <glyph glyph-name="uni1E48" unicode="&#x1e48;" horiz-adv-x="656" 
d="M171 644h52l280 -562l119 562h55l-136 -644h-53l-279 561l-119 -561h-55zM135 -74h276l-9 -42h-276z" />
    <glyph glyph-name="uni1E49" unicode="&#x1e49;" horiz-adv-x="559" 
d="M135 474h48l-7 -58q95 68 206 68q139 0 139 -116q0 -25 -6 -55l-66 -313h-55l66 312q7 31 7 56q0 38 -24 54t-83 16q-51 0 -102 -18.5t-90 -50.5l-78 -369h-55zM91 -74h276l-9 -42h-276z" />
    <glyph glyph-name="uni1E5A" unicode="&#x1e5a;" horiz-adv-x="592" 
d="M171 644h269q80 0 119 -35.5t39 -100.5q0 -26 -6 -56q-16 -75 -62 -122t-119 -60q19 -10 26.5 -24.5t14.5 -44.5l44 -201h-56l-44 194q-5 25 -14.5 38t-29.5 19.5t-57 6.5h-151l-54 -258h-55zM352 302q152 0 185 150q6 29 6 52q0 48 -27.5 71.5t-88.5 23.5h-210l-63 -297
h198zM216 -95h59l-12 -57h-59z" />
    <glyph glyph-name="uni1E5B" unicode="&#x1e5b;" horiz-adv-x="342" 
d="M135 474h48l-8 -66q42 25 93.5 45t100.5 31l-9 -45q-47 -11 -103 -32.5t-90 -42.5l-77 -364h-55zM12 -95h59l-12 -57h-59z" />
    <glyph glyph-name="uni1E5C" unicode="&#x1e5c;" horiz-adv-x="592" 
d="M274 759h276l-9 -42h-276zM171 644h269q80 0 119 -35.5t39 -100.5q0 -26 -6 -56q-16 -75 -62 -122t-119 -60q19 -10 26.5 -24.5t14.5 -44.5l44 -201h-56l-44 194q-5 25 -14.5 38t-29.5 19.5t-57 6.5h-151l-54 -258h-55zM352 302q152 0 185 150q6 29 6 52q0 48 -27.5 71.5
t-88.5 23.5h-210l-63 -297h198zM216 -95h59l-12 -57h-59z" />
    <glyph glyph-name="uni1E5D" unicode="&#x1e5d;" horiz-adv-x="344" 
d="M92 593h276l-9 -42h-276zM137 474h48l-8 -66q42 25 93.5 45t100.5 31l-9 -45q-47 -11 -103 -32.5t-90 -42.5l-77 -364h-55zM14 -95h59l-12 -57h-59z" />
    <glyph glyph-name="uni1E5E" unicode="&#x1e5e;" horiz-adv-x="592" 
d="M171 644h269q80 0 119 -35.5t39 -100.5q0 -26 -6 -56q-16 -75 -62 -122t-119 -60q19 -10 26.5 -24.5t14.5 -44.5l44 -201h-56l-44 194q-5 25 -14.5 38t-29.5 19.5t-57 6.5h-151l-54 -258h-55zM352 302q152 0 185 150q6 29 6 52q0 48 -27.5 71.5t-88.5 23.5h-210l-63 -297
h198zM94 -74h276l-9 -42h-276z" />
    <glyph glyph-name="uni1E5F" unicode="&#x1e5f;" horiz-adv-x="342" 
d="M135 474h48l-8 -66q42 25 93.5 45t100.5 31l-9 -45q-47 -11 -103 -32.5t-90 -42.5l-77 -364h-55zM-80 -74h276l-9 -42h-276z" />
    <glyph glyph-name="uni1E60" unicode="&#x1e60;" horiz-adv-x="553" 
d="M369 770h57l-12 -56h-57zM34 18l11 49q75 -30 176 -30q96 0 149.5 30t67.5 97q4 22 4 31q0 43 -37 67t-127 46q-86 20 -125.5 52.5t-39.5 83.5q0 20 4 37q37 173 268 173q50 0 95.5 -7.5t71.5 -16.5l-10 -49q-67 25 -157 25q-96 0 -148.5 -30t-65.5 -95q-4 -22 -4 -29
q0 -26 15.5 -44t49 -31.5t93.5 -28.5q93 -23 132.5 -57t39.5 -85q0 -17 -5 -42q-18 -86 -88.5 -130t-188.5 -44q-116 0 -181 28z" />
    <glyph glyph-name="uni1E61" unicode="&#x1e61;" horiz-adv-x="447" 
d="M293 604h57l-12 -56h-57zM92.5 -4.5q-37.5 5.5 -62.5 14.5l10 49q60 -22 134 -22q70 0 104 19t44 64q3 12 3 22q0 27 -20 40.5t-76 33.5l-24 9q-46 17 -67 27t-36 28.5t-15 47.5q0 9 4 31q13 63 61 94t139 31q69 0 123 -17l-11 -49q-54 18 -114 18q-71 0 -103.5 -17.5
t-40.5 -58.5q-2 -7 -2 -20q0 -27 22 -40.5t84 -34.5q71 -24 101.5 -47t30.5 -65q0 -17 -4 -33q-28 -130 -206 -130q-41 0 -78.5 5.5z" />
    <glyph glyph-name="uni1E62" unicode="&#x1e62;" horiz-adv-x="553" 
d="M34 18l11 49q75 -30 176 -30q96 0 149.5 30t67.5 97q4 22 4 31q0 43 -37 67t-127 46q-86 20 -125.5 52.5t-39.5 83.5q0 20 4 37q37 173 268 173q50 0 95.5 -7.5t71.5 -16.5l-10 -49q-67 25 -157 25q-96 0 -148.5 -30t-65.5 -95q-4 -22 -4 -29q0 -26 15.5 -44t49 -31.5
t93.5 -28.5q93 -23 132.5 -57t39.5 -85q0 -17 -5 -42q-18 -86 -88.5 -130t-188.5 -44q-116 0 -181 28zM179 -95h59l-12 -57h-59z" />
    <glyph glyph-name="uni1E63" unicode="&#x1e63;" horiz-adv-x="447" 
d="M92.5 -4.5q-37.5 5.5 -62.5 14.5l10 49q60 -22 134 -22q70 0 104 19t44 64q3 12 3 22q0 27 -20 40.5t-76 33.5l-24 9q-46 17 -67 27t-36 28.5t-15 47.5q0 9 4 31q13 63 61 94t139 31q69 0 123 -17l-11 -49q-54 18 -114 18q-71 0 -103.5 -17.5t-40.5 -58.5q-2 -7 -2 -20
q0 -27 22 -40.5t84 -34.5q71 -24 101.5 -47t30.5 -65q0 -17 -4 -33q-28 -130 -206 -130q-41 0 -78.5 5.5zM146 -95h59l-12 -57h-59z" />
    <glyph glyph-name="uni1E6C" unicode="&#x1e6c;" horiz-adv-x="569" 
d="M344 599h-222l9 45h499l-9 -45h-222l-127 -599h-55zM195 -93h59l-12 -57h-59z" />
    <glyph glyph-name="uni1E6D" unicode="&#x1e6d;" horiz-adv-x="350" 
d="M117.5 14.5q-27.5 24.5 -27.5 69.5q0 16 5 39l64 305h-74l10 46h74l27 124l58 18l-30 -142h137l-13 -46h-134l-64 -303q-5 -23 -5 -37q0 -30 18.5 -41.5t59.5 -11.5q28 0 61 11l-9 -44q-36 -12 -78 -12q-52 0 -79.5 24.5zM140 -93h59l-12 -57h-59z" />
    <glyph glyph-name="uni1E6E" unicode="&#x1e6e;" horiz-adv-x="569" 
d="M344 599h-222l9 45h499l-9 -45h-222l-127 -599h-55zM91 -72h276l-9 -42h-276z" />
    <glyph glyph-name="uni1E6F" unicode="&#x1e6f;" horiz-adv-x="361" 
d="M117.5 14.5q-27.5 24.5 -27.5 69.5q0 16 5 39l64 305h-74l10 46h74l27 124l58 18l-30 -142h137l-13 -46h-134l-64 -303q-5 -23 -5 -37q0 -30 18.5 -41.5t59.5 -11.5q28 0 61 11l-9 -44q-36 -12 -78 -12q-52 0 -79.5 24.5zM10 -72h276l-9 -42h-276z" />
    <glyph glyph-name="Wgrave" unicode="&#x1e80;" horiz-adv-x="850" 
d="M467 846h52l33 -158h-45zM151 644h55l11 -577l265 512l13 65h45l41 -577l256 577h54l-285 -644h-63l-37 530l-271 -530h-70z" />
    <glyph glyph-name="wgrave" unicode="&#x1e81;" horiz-adv-x="719" 
d="M361 680h52l33 -158h-45zM115 474h55l15 -418l197 366l11 52h43l41 -418l192 418h55l-223 -474h-56l-41 377l-203 -377h-63z" />
    <glyph glyph-name="Wacute" unicode="&#x1e82;" horiz-adv-x="850" 
d="M616 846h52l-108 -158h-45zM151 644h55l11 -577l265 512l13 65h45l41 -577l256 577h54l-285 -644h-63l-37 530l-271 -530h-70z" />
    <glyph glyph-name="wacute" unicode="&#x1e83;" horiz-adv-x="719" 
d="M505 680h52l-108 -158h-45zM115 474h55l15 -418l197 366l11 52h43l41 -418l192 418h55l-223 -474h-56l-41 377l-203 -377h-63z" />
    <glyph glyph-name="Wdieresis" unicode="&#x1e84;" horiz-adv-x="850" 
d="M441 767h57l-12 -55h-56zM608 767h56l-12 -55h-56zM151 644h55l11 -577l265 512l13 65h45l41 -577l256 577h54l-285 -644h-63l-37 530l-271 -530h-70z" />
    <glyph glyph-name="wdieresis" unicode="&#x1e85;" horiz-adv-x="719" 
d="M336 601h57l-12 -55h-56zM503 601h56l-12 -55h-56zM115 474h55l15 -418l197 366l11 52h43l41 -418l192 418h55l-223 -474h-56l-41 377l-203 -377h-63z" />
    <glyph glyph-name="uni1E8E" unicode="&#x1e8e;" horiz-adv-x="624" 
d="M406 770h57l-12 -56h-57zM295 241l-144 403h54l125 -355l275 355h60l-315 -403l-51 -241h-55z" />
    <glyph glyph-name="uni1E8F" unicode="&#x1e8f;" horiz-adv-x="566" 
d="M350 604h57l-12 -56h-57zM116 -173q-34 3 -51 7l10 48q19 -6 48.5 -9t53.5 -3q82 0 139.5 31.5t71.5 90.5l14 66q-45 -33 -94 -50.5t-108 -17.5q-68 0 -104 33t-36 95q0 26 6 56l64 300h55l-64 -302q-6 -28 -6 -51q0 -46 28 -66t90 -20q48 0 93.5 18.5t84.5 50.5l78 370
h55l-101 -477q-11 -52 -50 -91t-96 -60.5t-120 -21.5q-27 0 -61 3z" />
    <glyph glyph-name="uni1E92" unicode="&#x1e92;" horiz-adv-x="568" 
d="M22 34l510 565h-373l9 45h441l-8 -39l-506 -561h392l-9 -44h-463zM211 -95h59l-12 -57h-59z" />
    <glyph glyph-name="uni1E93" unicode="&#x1e93;" horiz-adv-x="479" 
d="M22 34l381 394h-284l10 46h349l-8 -38l-379 -391h302l-9 -45h-369zM157 -95h59l-12 -57h-59z" />
    <glyph glyph-name="uni1E97" unicode="&#x1e97;" horiz-adv-x="350" 
d="M139 701h57l-12 -55h-56zM306 701h56l-12 -55h-56zM117.5 14.5q-27.5 24.5 -27.5 69.5q0 16 5 39l64 305h-74l10 46h74l27 124l58 18l-30 -142h137l-13 -46h-134l-64 -303q-5 -23 -5 -37q0 -30 18.5 -41.5t59.5 -11.5q28 0 61 11l-9 -44q-36 -12 -78 -12
q-52 0 -79.5 24.5z" />
    <glyph glyph-name="uni1E9E" unicode="&#x1e9e;" horiz-adv-x="618" 
d="M187 12l10 48q50 -23 133 -23q73 0 116.5 35.5t59.5 107.5q6 26 6 46q0 40 -27 58t-91 18h-100l11 53l234 129q4 22 4 31q0 91 -150 91q-92 0 -144 -39.5t-71 -124.5l-93 -442h-55l94 444q22 103 94.5 156.5t185.5 53.5q95 0 142.5 -39t47.5 -105q0 -19 -5 -44l-223 -121
h53q72 0 109.5 -31.5t37.5 -89.5q0 -18 -5 -45q-19 -91 -80 -140t-155 -49q-88 0 -139 22z" />
    <glyph glyph-name="uni1EA0" unicode="&#x1ea0;" horiz-adv-x="667" 
d="M395 644h70l107 -644h-53l-32 188h-302l-110 -188h-60zM484 233l-61 367l-216 -367h277zM244 -95h59l-12 -57h-59z" />
    <glyph glyph-name="uni1EA1" unicode="&#x1ea1;" horiz-adv-x="531" 
d="M52 143q0 35 9 78q27 126 102.5 194.5t175.5 68.5q49 0 82.5 -11.5t64.5 -38.5l8 40h55l-100 -474h-46l6 53q-42 -32 -86.5 -47.5t-98.5 -15.5q-172 0 -172 153zM415 99l61 287q-25 26 -55 39t-75 13q-89 0 -149 -56t-82 -161q-9 -42 -9 -74q0 -60 33.5 -86t107.5 -26
q94 0 168 64zM189 -95h59l-12 -57h-59z" />
    <glyph glyph-name="uni1EA2" unicode="&#x1ea2;" horiz-adv-x="667" 
d="M432 767q40 2 61.5 8.5t31 18t13.5 32.5q2 10 2 14q0 39 -73 39q-16 0 -36 -3.5t-34 -8.5l8 38q15 5 38.5 8.5t41.5 3.5q49 0 74 -17t25 -50q0 -14 -2 -21q-9 -41 -33.5 -62.5t-75.5 -26.5l-11 -52h-47zM395 644h70l107 -644h-53l-32 188h-302l-110 -188h-60zM484 233
l-61 367l-216 -367h277z" />
    <glyph glyph-name="uni1EA3" unicode="&#x1ea3;" horiz-adv-x="531" 
d="M333 596q40 2 61.5 8.5t31 18t13.5 32.5q2 10 2 14q0 39 -73 39q-16 0 -36 -3.5t-34 -8.5l8 38q15 5 38.5 8.5t41.5 3.5q49 0 74 -17t25 -50q0 -14 -2 -21q-9 -41 -33.5 -62.5t-75.5 -26.5l-11 -52h-47zM52 143q0 35 9 78q27 126 102.5 194.5t175.5 68.5q49 0 82.5 -11.5
t64.5 -38.5l8 40h55l-100 -474h-46l6 53q-42 -32 -86.5 -47.5t-98.5 -15.5q-172 0 -172 153zM415 99l61 287q-25 26 -55 39t-75 13q-89 0 -149 -56t-82 -161q-9 -42 -9 -74q0 -60 33.5 -86t107.5 -26q94 0 168 64z" />
    <glyph glyph-name="uni1EA4" unicode="&#x1ea4;" horiz-adv-x="667" 
d="M612 910h46l-90 -117h-41zM435 797h48l80 -110h-46l-60 85l-96 -85h-52zM395 644h70l107 -644h-53l-32 188h-302l-110 -188h-60zM484 233l-61 367l-216 -367h277z" />
    <glyph glyph-name="uni1EA5" unicode="&#x1ea5;" horiz-adv-x="531" 
d="M528 744h46l-90 -117h-41zM351 631h48l80 -110h-46l-60 85l-96 -85h-52zM52 143q0 35 9 78q27 126 102.5 194.5t175.5 68.5q49 0 82.5 -11.5t64.5 -38.5l8 40h55l-100 -474h-46l6 53q-42 -32 -86.5 -47.5t-98.5 -15.5q-172 0 -172 153zM415 99l61 287q-25 26 -55 39
t-75 13q-89 0 -149 -56t-82 -161q-9 -42 -9 -74q0 -60 33.5 -86t107.5 -26q94 0 168 64z" />
    <glyph glyph-name="uni1EA6" unicode="&#x1ea6;" horiz-adv-x="667" 
d="M312 910h47l34 -117h-40zM440 797h48l80 -110h-46l-60 85l-96 -85h-52zM395 644h70l107 -644h-53l-32 188h-302l-110 -188h-60zM484 233l-61 367l-216 -367h277z" />
    <glyph glyph-name="uni1EA7" unicode="&#x1ea7;" horiz-adv-x="531" 
d="M215 744h47l34 -117h-40zM343 631h48l80 -110h-46l-60 85l-96 -85h-52zM52 143q0 35 9 78q27 126 102.5 194.5t175.5 68.5q49 0 82.5 -11.5t64.5 -38.5l8 40h55l-100 -474h-46l6 53q-42 -32 -86.5 -47.5t-98.5 -15.5q-172 0 -172 153zM415 99l61 287q-25 26 -55 39
t-75 13q-89 0 -149 -56t-82 -161q-9 -42 -9 -74q0 -60 33.5 -86t107.5 -26q94 0 168 64z" />
    <glyph glyph-name="uni1EA8" unicode="&#x1ea8;" horiz-adv-x="667" 
d="M546 831q50 3 68.5 13.5t23.5 32.5q1 4 1 11q0 30 -45 30q-30 0 -61 -13l7 34q33 12 68 12q36 0 55.5 -14.5t19.5 -40.5q0 -5 -2 -17q-7 -32 -29.5 -49.5t-64.5 -21.5l-8 -36h-45zM438 797h48l80 -110h-46l-60 85l-95 -85h-53zM395 644h70l107 -644h-53l-32 188h-302
l-110 -188h-60zM484 233l-61 367l-216 -367h277z" />
    <glyph glyph-name="uni1EA9" unicode="&#x1ea9;" horiz-adv-x="531" 
d="M452 665q50 3 68.5 13.5t23.5 32.5q1 4 1 11q0 30 -45 30q-30 0 -61 -13l7 34q33 12 68 12q36 0 55.5 -14.5t19.5 -40.5q0 -5 -2 -17q-7 -32 -29.5 -49.5t-64.5 -21.5l-8 -36h-45zM344 631h48l80 -110h-46l-60 85l-95 -85h-53zM52 143q0 35 9 78q27 126 102.5 194.5
t175.5 68.5q49 0 82.5 -11.5t64.5 -38.5l8 40h55l-100 -474h-46l6 53q-42 -32 -86.5 -47.5t-98.5 -15.5q-172 0 -172 153zM415 99l61 287q-25 26 -55 39t-75 13q-89 0 -149 -56t-82 -161q-9 -42 -9 -74q0 -60 33.5 -86t107.5 -26q94 0 168 64z" />
    <glyph glyph-name="uni1EAA" unicode="&#x1eaa;" horiz-adv-x="667" 
d="M464 823q-32 15 -51 15q-23 0 -43 -7t-39 -25l10 44q14 12 35.5 19t42.5 7q17 0 30 -4t31 -13q18 -8 29 -12t25 -4q23 0 41.5 7.5t36.5 24.5l-10 -44q-13 -12 -33 -19t-42 -7q-27 0 -63 18zM436 797h48l80 -110h-46l-60 85l-95 -85h-53zM395 644h70l107 -644h-53l-32 188
h-302l-110 -188h-60zM484 233l-61 367l-216 -367h277z" />
    <glyph glyph-name="uni1EAB" unicode="&#x1eab;" horiz-adv-x="531" 
d="M378 657q-32 15 -51 15q-23 0 -43 -7t-39 -25l10 44q14 12 35.5 19t42.5 7q17 0 30 -4t31 -13q18 -8 29 -12t25 -4q23 0 41.5 7.5t36.5 24.5l-10 -44q-13 -12 -33 -19t-42 -7q-27 0 -63 18zM350 631h48l80 -110h-46l-60 85l-95 -85h-53zM52 143q0 35 9 78
q27 126 102.5 194.5t175.5 68.5q49 0 82.5 -11.5t64.5 -38.5l8 40h55l-100 -474h-46l6 53q-42 -32 -86.5 -47.5t-98.5 -15.5q-172 0 -172 153zM415 99l61 287q-25 26 -55 39t-75 13q-89 0 -149 -56t-82 -161q-9 -42 -9 -74q0 -60 33.5 -86t107.5 -26q94 0 168 64z" />
    <glyph glyph-name="uni1EAC" unicode="&#x1eac;" horiz-adv-x="667" 
d="M443 822h48l76 -135h-48l-57 103l-101 -103h-51zM395 644h70l107 -644h-53l-32 188h-302l-110 -188h-60zM484 233l-61 367l-216 -367h277zM244 -95h59l-12 -57h-59z" />
    <glyph glyph-name="uni1EAD" unicode="&#x1ead;" horiz-adv-x="531" 
d="M351 656h48l76 -135h-48l-57 103l-101 -103h-51zM52 143q0 35 9 78q27 126 102.5 194.5t175.5 68.5q49 0 82.5 -11.5t64.5 -38.5l8 40h55l-100 -474h-46l6 53q-42 -32 -86.5 -47.5t-98.5 -15.5q-172 0 -172 153zM415 99l61 287q-25 26 -55 39t-75 13q-89 0 -149 -56
t-82 -161q-9 -42 -9 -74q0 -60 33.5 -86t107.5 -26q94 0 168 64zM187 -95h59l-12 -57h-59z" />
    <glyph glyph-name="uni1EAE" unicode="&#x1eae;" horiz-adv-x="667" 
d="M514 903h47l-91 -117h-41zM358 711q-32 23 -32 72q0 18 4 37h36q-4 -16 -4 -32q0 -33 20.5 -48.5t62.5 -15.5q46 0 78.5 24t42.5 72h41q-15 -68 -60.5 -100t-105.5 -32q-51 0 -83 23zM395 644h70l107 -644h-53l-32 188h-302l-110 -188h-60zM484 233l-61 367l-216 -367
h277z" />
    <glyph glyph-name="uni1EAF" unicode="&#x1eaf;" horiz-adv-x="531" 
d="M432 737h47l-91 -117h-41zM276 545q-32 23 -32 72q0 18 4 37h36q-4 -16 -4 -32q0 -33 20.5 -48.5t62.5 -15.5q46 0 78.5 24t42.5 72h41q-15 -68 -60.5 -100t-105.5 -32q-51 0 -83 23zM52 143q0 35 9 78q27 126 102.5 194.5t175.5 68.5q49 0 82.5 -11.5t64.5 -38.5l8 40
h55l-100 -474h-46l6 53q-42 -32 -86.5 -47.5t-98.5 -15.5q-172 0 -172 153zM415 99l61 287q-25 26 -55 39t-75 13q-89 0 -149 -56t-82 -161q-9 -42 -9 -74q0 -60 33.5 -86t107.5 -26q94 0 168 64z" />
    <glyph glyph-name="uni1EB0" unicode="&#x1eb0;" horiz-adv-x="667" 
d="M411 903h47l34 -117h-40zM358 711q-32 23 -32 72q0 18 4 37h36q-4 -16 -4 -32q0 -33 20.5 -48.5t62.5 -15.5q46 0 78.5 24t42.5 72h41q-15 -68 -60.5 -100t-105.5 -32q-51 0 -83 23zM395 644h70l107 -644h-53l-32 188h-302l-110 -188h-60zM484 233l-61 367l-216 -367h277
z" />
    <glyph glyph-name="uni1EB1" unicode="&#x1eb1;" horiz-adv-x="531" 
d="M325 737h47l34 -117h-40zM272 545q-32 23 -32 72q0 18 4 37h36q-4 -16 -4 -32q0 -33 20.5 -48.5t62.5 -15.5q46 0 78.5 24t42.5 72h41q-15 -68 -60.5 -100t-105.5 -32q-51 0 -83 23zM52 143q0 35 9 78q27 126 102.5 194.5t175.5 68.5q49 0 82.5 -11.5t64.5 -38.5l8 40h55
l-100 -474h-46l6 53q-42 -32 -86.5 -47.5t-98.5 -15.5q-172 0 -172 153zM415 99l61 287q-25 26 -55 39t-75 13q-89 0 -149 -56t-82 -161q-9 -42 -9 -74q0 -60 33.5 -86t107.5 -26q94 0 168 64z" />
    <glyph glyph-name="uni1EB2" unicode="&#x1eb2;" horiz-adv-x="667" 
d="M436 833q50 2 69 13t24 34q1 4 1 12q0 30 -46 30q-30 0 -61 -13l7 33q33 12 69 12q35 0 54.5 -14t19.5 -40q0 -5 -2 -17q-7 -32 -29 -49t-66 -23l-8 -35h-44zM358 711q-32 23 -32 72q0 18 4 37h36q-4 -16 -4 -32q0 -33 20.5 -48.5t62.5 -15.5q46 0 78.5 24t42.5 72h41
q-15 -68 -60.5 -100t-105.5 -32q-51 0 -83 23zM395 644h70l107 -644h-53l-32 188h-302l-110 -188h-60zM484 233l-61 367l-216 -367h277z" />
    <glyph glyph-name="uni1EB3" unicode="&#x1eb3;" horiz-adv-x="531" 
d="M352 667q50 2 69 13t24 34q1 4 1 12q0 30 -46 30q-30 0 -61 -13l7 33q33 12 69 12q35 0 54.5 -14t19.5 -40q0 -5 -2 -17q-7 -32 -29 -49t-66 -23l-8 -35h-44zM274 545q-32 23 -32 72q0 18 4 37h36q-4 -16 -4 -32q0 -33 20.5 -48.5t62.5 -15.5q46 0 78.5 24t42.5 72h41
q-15 -68 -60.5 -100t-105.5 -32q-51 0 -83 23zM52 143q0 35 9 78q27 126 102.5 194.5t175.5 68.5q49 0 82.5 -11.5t64.5 -38.5l8 40h55l-100 -474h-46l6 53q-42 -32 -86.5 -47.5t-98.5 -15.5q-172 0 -172 153zM415 99l61 287q-25 26 -55 39t-75 13q-89 0 -149 -56t-82 -161
q-9 -42 -9 -74q0 -60 33.5 -86t107.5 -26q94 0 168 64z" />
    <glyph glyph-name="uni1EB4" unicode="&#x1eb4;" horiz-adv-x="667" 
d="M473 866q-18 8 -28.5 12t-22.5 4q-23 0 -43 -7t-39 -25l9 43q15 13 36.5 20t42.5 7q17 0 30.5 -4.5t30.5 -13.5q18 -8 29 -12t25 -4q23 0 41.5 7.5t37.5 25.5l-10 -44q-13 -13 -33 -20t-43 -7q-27 0 -63 18zM357 711q-32 23 -32 72q0 18 4 37h36q-4 -16 -4 -32
q0 -33 20.5 -48.5t62.5 -15.5q46 0 78.5 24t42.5 72h41q-15 -68 -60.5 -100t-105.5 -32q-51 0 -83 23zM395 644h70l107 -644h-53l-32 188h-302l-110 -188h-60zM484 233l-61 367l-216 -367h277z" />
    <glyph glyph-name="uni1EB5" unicode="&#x1eb5;" horiz-adv-x="531" 
d="M393 700q-18 8 -28.5 12t-22.5 4q-23 0 -43 -7t-39 -25l9 43q15 13 36.5 20t42.5 7q17 0 30.5 -4.5t30.5 -13.5q18 -8 29 -12t25 -4q23 0 41.5 7.5t37.5 25.5l-10 -44q-13 -13 -33 -20t-43 -7q-27 0 -63 18zM277 545q-32 23 -32 72q0 18 4 37h36q-4 -16 -4 -32
q0 -33 20.5 -48.5t62.5 -15.5q46 0 78.5 24t42.5 72h41q-15 -68 -60.5 -100t-105.5 -32q-51 0 -83 23zM52 143q0 35 9 78q27 126 102.5 194.5t175.5 68.5q49 0 82.5 -11.5t64.5 -38.5l8 40h55l-100 -474h-46l6 53q-42 -32 -86.5 -47.5t-98.5 -15.5q-172 0 -172 153zM415 99
l61 287q-25 26 -55 39t-75 13q-89 0 -149 -56t-82 -161q-9 -42 -9 -74q0 -60 33.5 -86t107.5 -26q94 0 168 64z" />
    <glyph glyph-name="uni1EB6" unicode="&#x1eb6;" horiz-adv-x="667" 
d="M371.5 709.5q-23.5 22.5 -23.5 60.5q0 13 3 28h40q-3 -13 -3 -24q0 -48 56 -48q32 0 55.5 19t30.5 53h44q-11 -50 -47 -80.5t-89 -30.5q-43 0 -66.5 22.5zM395 644h70l107 -644h-53l-32 188h-302l-110 -188h-60zM484 233l-61 367l-216 -367h277zM244 -95h59l-12 -57h-59z
" />
    <glyph glyph-name="uni1EB7" unicode="&#x1eb7;" horiz-adv-x="531" 
d="M282.5 543.5q-23.5 22.5 -23.5 60.5q0 13 3 28h40q-3 -13 -3 -24q0 -48 56 -48q32 0 55.5 19t30.5 53h44q-11 -50 -47 -80.5t-89 -30.5q-43 0 -66.5 22.5zM52 143q0 35 9 78q27 126 102.5 194.5t175.5 68.5q49 0 82.5 -11.5t64.5 -38.5l8 40h55l-100 -474h-46l6 53
q-42 -32 -86.5 -47.5t-98.5 -15.5q-172 0 -172 153zM415 99l61 287q-25 26 -55 39t-75 13q-89 0 -149 -56t-82 -161q-9 -42 -9 -74q0 -60 33.5 -86t107.5 -26q94 0 168 64zM191 -95h59l-12 -57h-59z" />
    <glyph glyph-name="uni1EB8" unicode="&#x1eb8;" horiz-adv-x="541" 
d="M171 644h421l-9 -45h-366l-54 -255h331l-10 -44h-331l-54 -256h366l-9 -44h-421zM192 -95h59l-12 -57h-59z" />
    <glyph glyph-name="uni1EB9" unicode="&#x1eb9;" horiz-adv-x="525" 
d="M104 29.5q-49 39.5 -49 121.5q0 37 11 89q51 244 270 244q82 0 122 -37.5t40 -100.5q0 -25 -6 -52l-18 -86h-360q-6 -33 -6 -60q0 -61 39 -87t131 -26q66 0 133 25l-9 -45q-67 -25 -145 -25q-104 0 -153 39.5zM433 251l9 45q6 27 6 51q0 45 -28 68t-92 23
q-90 0 -137.5 -46.5t-67.5 -140.5h310zM179 -95h59l-12 -57h-59z" />
    <glyph glyph-name="uni1EBA" unicode="&#x1eba;" horiz-adv-x="541" 
d="M376 767q40 2 61.5 8.5t31 18t13.5 32.5q2 10 2 14q0 39 -73 39q-16 0 -36 -3.5t-34 -8.5l8 38q15 5 38.5 8.5t41.5 3.5q49 0 74 -17t25 -50q0 -14 -2 -21q-9 -41 -33.5 -62.5t-75.5 -26.5l-11 -52h-47zM171 644h421l-9 -45h-366l-54 -255h331l-10 -44h-331l-54 -256h366
l-9 -44h-421z" />
    <glyph glyph-name="uni1EBB" unicode="&#x1ebb;" horiz-adv-x="525" 
d="M337 601q40 2 61.5 8.5t31 18t13.5 32.5q2 10 2 14q0 39 -73 39q-16 0 -36 -3.5t-34 -8.5l8 38q15 5 38.5 8.5t41.5 3.5q49 0 74 -17t25 -50q0 -14 -2 -21q-9 -41 -33.5 -62.5t-75.5 -26.5l-11 -52h-47zM104 29.5q-49 39.5 -49 121.5q0 37 11 89q51 244 270 244
q82 0 122 -37.5t40 -100.5q0 -25 -6 -52l-18 -86h-360q-6 -33 -6 -60q0 -61 39 -87t131 -26q66 0 133 25l-9 -45q-67 -25 -145 -25q-104 0 -153 39.5zM433 251l9 45q6 27 6 51q0 45 -28 68t-92 23q-90 0 -137.5 -46.5t-67.5 -140.5h310z" />
    <glyph glyph-name="uni1EBC" unicode="&#x1ebc;" horiz-adv-x="541" 
d="M430 718q-16 5 -36 15q-18 8 -30.5 12.5t-25.5 4.5q-51 0 -86 -35l10 47q14 13 37.5 21t46.5 8q18 0 32 -4.5t34 -14.5q18 -9 30.5 -13.5t27.5 -4.5q48 0 80 35l-10 -47q-12 -14 -32.5 -21.5t-44.5 -7.5q-17 0 -33 5zM171 644h421l-9 -45h-366l-54 -255h331l-10 -44h-331
l-54 -256h366l-9 -44h-421z" />
    <glyph glyph-name="uni1EBD" unicode="&#x1ebd;" horiz-adv-x="525" 
d="M383 552q-16 5 -36 15q-18 8 -30.5 12.5t-25.5 4.5q-51 0 -86 -35l10 47q14 13 37.5 21t46.5 8q18 0 32 -4.5t34 -14.5q18 -9 30.5 -13.5t27.5 -4.5q48 0 80 35l-10 -47q-12 -14 -32.5 -21.5t-44.5 -7.5q-17 0 -33 5zM104 29.5q-49 39.5 -49 121.5q0 37 11 89
q51 244 270 244q82 0 122 -37.5t40 -100.5q0 -25 -6 -52l-18 -86h-360q-6 -33 -6 -60q0 -61 39 -87t131 -26q66 0 133 25l-9 -45q-67 -25 -145 -25q-104 0 -153 39.5zM433 251l9 45q6 27 6 51q0 45 -28 68t-92 23q-90 0 -137.5 -46.5t-67.5 -140.5h310z" />
    <glyph glyph-name="uni1EBE" unicode="&#x1ebe;" horiz-adv-x="541" 
d="M560 910h46l-90 -117h-41zM383 797h48l80 -110h-46l-60 85l-96 -85h-52zM171 644h421l-9 -45h-366l-54 -255h331l-10 -44h-331l-54 -256h366l-9 -44h-421z" />
    <glyph glyph-name="uni1EBF" unicode="&#x1ebf;" horiz-adv-x="525" 
d="M518 744h46l-90 -117h-41zM341 631h48l80 -110h-46l-60 85l-96 -85h-52zM104 29.5q-49 39.5 -49 121.5q0 37 11 89q51 244 270 244q82 0 122 -37.5t40 -100.5q0 -25 -6 -52l-18 -86h-360q-6 -33 -6 -60q0 -61 39 -87t131 -26q66 0 133 25l-9 -45q-67 -25 -145 -25
q-104 0 -153 39.5zM433 251l9 45q6 27 6 51q0 45 -28 68t-92 23q-90 0 -137.5 -46.5t-67.5 -140.5h310z" />
    <glyph glyph-name="uni1EC0" unicode="&#x1ec0;" horiz-adv-x="541" 
d="M271 910h47l34 -117h-40zM399 797h48l80 -110h-46l-60 85l-96 -85h-52zM171 644h421l-9 -45h-366l-54 -255h331l-10 -44h-331l-54 -256h366l-9 -44h-421z" />
    <glyph glyph-name="uni1EC1" unicode="&#x1ec1;" horiz-adv-x="525" 
d="M228 761h47l34 -117h-40zM356 648h48l80 -110h-46l-60 85l-96 -85h-52zM104 29.5q-49 39.5 -49 121.5q0 37 11 89q51 244 270 244q82 0 122 -37.5t40 -100.5q0 -25 -6 -52l-18 -86h-360q-6 -33 -6 -60q0 -61 39 -87t131 -26q66 0 133 25l-9 -45q-67 -25 -145 -25
q-104 0 -153 39.5zM433 251l9 45q6 27 6 51q0 45 -28 68t-92 23q-90 0 -137.5 -46.5t-67.5 -140.5h310z" />
    <glyph glyph-name="uni1EC2" unicode="&#x1ec2;" horiz-adv-x="541" 
d="M498 831q50 3 68.5 13.5t23.5 32.5q1 4 1 11q0 30 -45 30q-30 0 -61 -13l7 34q33 12 68 12q36 0 55.5 -14.5t19.5 -40.5q0 -5 -2 -17q-7 -32 -29.5 -49.5t-64.5 -21.5l-8 -36h-45zM390 797h48l80 -110h-46l-60 85l-95 -85h-53zM171 644h421l-9 -45h-366l-54 -255h331
l-10 -44h-331l-54 -256h366l-9 -44h-421z" />
    <glyph glyph-name="uni1EC3" unicode="&#x1ec3;" horiz-adv-x="531" 
d="M447 665q50 3 68.5 13.5t23.5 32.5q1 4 1 11q0 30 -45 30q-30 0 -61 -13l7 34q33 12 68 12q36 0 55.5 -14.5t19.5 -40.5q0 -5 -2 -17q-7 -32 -29.5 -49.5t-64.5 -21.5l-8 -36h-45zM339 631h48l80 -110h-46l-60 85l-95 -85h-53zM104 29.5q-49 39.5 -49 121.5q0 37 11 89
q51 244 270 244q82 0 122 -37.5t40 -100.5q0 -25 -6 -52l-18 -86h-360q-6 -33 -6 -60q0 -61 39 -87t131 -26q66 0 133 25l-9 -45q-67 -25 -145 -25q-104 0 -153 39.5zM433 251l9 45q6 27 6 51q0 45 -28 68t-92 23q-90 0 -137.5 -46.5t-67.5 -140.5h310z" />
    <glyph glyph-name="uni1EC4" unicode="&#x1ec4;" horiz-adv-x="541" 
d="M419 823q-32 15 -51 15q-23 0 -43 -7t-39 -25l10 44q14 12 35.5 19t42.5 7q17 0 30 -4t31 -13q18 -8 29 -12t25 -4q23 0 41.5 7.5t36.5 24.5l-10 -44q-13 -12 -33 -19t-42 -7q-27 0 -63 18zM391 797h48l80 -110h-46l-60 85l-95 -85h-53zM171 644h421l-9 -45h-366
l-54 -255h331l-10 -44h-331l-54 -256h366l-9 -44h-421z" />
    <glyph glyph-name="uni1EC5" unicode="&#x1ec5;" horiz-adv-x="525" 
d="M372 657q-32 15 -51 15q-23 0 -43 -7t-39 -25l10 44q14 12 35.5 19t42.5 7q17 0 30 -4t31 -13q18 -8 29 -12t25 -4q23 0 41.5 7.5t36.5 24.5l-10 -44q-13 -12 -33 -19t-42 -7q-27 0 -63 18zM344 631h48l80 -110h-46l-60 85l-95 -85h-53zM104 29.5q-49 39.5 -49 121.5
q0 37 11 89q51 244 270 244q82 0 122 -37.5t40 -100.5q0 -25 -6 -52l-18 -86h-360q-6 -33 -6 -60q0 -61 39 -87t131 -26q66 0 133 25l-9 -45q-67 -25 -145 -25q-104 0 -153 39.5zM433 251l9 45q6 27 6 51q0 45 -28 68t-92 23q-90 0 -137.5 -46.5t-67.5 -140.5h310z" />
    <glyph glyph-name="uni1EC6" unicode="&#x1ec6;" horiz-adv-x="541" 
d="M383 822h48l76 -135h-48l-57 103l-101 -103h-51zM171 644h421l-9 -45h-366l-54 -255h331l-10 -44h-331l-54 -256h366l-9 -44h-421zM184 -95h59l-12 -57h-59z" />
    <glyph glyph-name="uni1EC7" unicode="&#x1ec7;" horiz-adv-x="525" 
d="M349 656h48l76 -135h-48l-57 103l-101 -103h-51zM104 29.5q-49 39.5 -49 121.5q0 37 11 89q51 244 270 244q82 0 122 -37.5t40 -100.5q0 -25 -6 -52l-18 -86h-360q-6 -33 -6 -60q0 -61 39 -87t131 -26q66 0 133 25l-9 -45q-67 -25 -145 -25q-104 0 -153 39.5zM433 251
l9 45q6 27 6 51q0 45 -28 68t-92 23q-90 0 -137.5 -46.5t-67.5 -140.5h310zM185 -95h59l-12 -57h-59z" />
    <glyph glyph-name="uni1EC8" unicode="&#x1ec8;" horiz-adv-x="205" 
d="M201 767q40 2 61.5 8.5t31 18t13.5 32.5q2 10 2 14q0 39 -73 39q-16 0 -36 -3.5t-34 -8.5l8 38q15 5 38.5 8.5t41.5 3.5q49 0 74 -17t25 -50q0 -14 -2 -21q-9 -41 -33.5 -62.5t-75.5 -26.5l-11 -52h-47zM171 644h55l-136 -644h-55z" />
    <glyph glyph-name="uni1EC9" unicode="&#x1ec9;" horiz-adv-x="270" 
d="M208 601q40 2 61.5 8.5t31 18t13.5 32.5q2 10 2 14q0 39 -73 39q-16 0 -36 -3.5t-34 -8.5l8 38q15 5 38.5 8.5t41.5 3.5q49 0 74 -17t25 -50q0 -14 -2 -21q-9 -41 -33.5 -62.5t-75.5 -26.5l-11 -52h-47zM190 428h-75l14 46h126l-100 -474h-55z" />
    <glyph glyph-name="uni1ECA" unicode="&#x1eca;" horiz-adv-x="205" 
d="M171 644h55l-136 -644h-55zM13 -95h59l-12 -57h-59z" />
    <glyph glyph-name="uni1ECB" unicode="&#x1ecb;" horiz-adv-x="270" 
d="M231 657h63l-13 -60h-63zM189 428h-74l16 46h123l-100 -474h-55zM78 -95h59l-12 -57h-59z" />
    <glyph glyph-name="uni1ECC" unicode="&#x1ecc;" horiz-adv-x="688" 
d="M69 207q0 53 13 112q37 173 123.5 254t237.5 81q117 0 174.5 -51.5t57.5 -158.5q0 -54 -15 -125q-35 -165 -121.5 -247t-237.5 -82q-232 0 -232 217zM502 105.5q72 68.5 103 213.5q16 71 16 127q0 86 -45 123t-144 37q-81 0 -138.5 -28t-96.5 -91t-61 -168
q-14 -68 -14 -115q0 -87 45 -127t144 -40q119 0 191 68.5zM254 -95h59l-12 -57h-59z" />
    <glyph glyph-name="uni1ECD" unicode="&#x1ecd;" horiz-adv-x="563" 
d="M99.5 30q-44.5 40 -44.5 119q0 42 10 88q26 124 91.5 185.5t186.5 61.5q185 0 185 -162q0 -41 -10 -85q-26 -125 -91.5 -186t-188.5 -61q-94 0 -138.5 40zM391 85q50 48 72 152q11 50 11 83q0 60 -33 88t-108 28q-92 0 -142 -48t-72 -151q-11 -52 -11 -86
q0 -59 32.5 -86.5t107.5 -27.5q93 0 143 48zM192 -95h59l-12 -57h-59z" />
    <glyph glyph-name="uni1ECE" unicode="&#x1ece;" horiz-adv-x="688" 
d="M446 767q40 2 61.5 8.5t31 18t13.5 32.5q2 10 2 14q0 39 -73 39q-16 0 -36 -3.5t-34 -8.5l8 38q15 5 38.5 8.5t41.5 3.5q49 0 74 -17t25 -50q0 -14 -2 -21q-9 -41 -33.5 -62.5t-75.5 -26.5l-11 -52h-47zM69 207q0 53 13 112q37 173 123.5 254t237.5 81q117 0 174.5 -51.5
t57.5 -158.5q0 -54 -15 -125q-35 -165 -121.5 -247t-237.5 -82q-232 0 -232 217zM502 105.5q72 68.5 103 213.5q16 71 16 127q0 86 -45 123t-144 37q-81 0 -138.5 -28t-96.5 -91t-61 -168q-14 -68 -14 -115q0 -87 45 -127t144 -40q119 0 191 68.5z" />
    <glyph glyph-name="uni1ECF" unicode="&#x1ecf;" horiz-adv-x="563" 
d="M347 601q40 2 61.5 8.5t31 18t13.5 32.5q2 10 2 14q0 39 -73 39q-16 0 -36 -3.5t-34 -8.5l8 38q15 5 38.5 8.5t41.5 3.5q49 0 74 -17t25 -50q0 -14 -2 -21q-9 -41 -33.5 -62.5t-75.5 -26.5l-11 -52h-47zM99.5 30q-44.5 40 -44.5 119q0 42 10 88q26 124 91.5 185.5
t186.5 61.5q185 0 185 -162q0 -41 -10 -85q-26 -125 -91.5 -186t-188.5 -61q-94 0 -138.5 40zM391 85q50 48 72 152q11 50 11 83q0 60 -33 88t-108 28q-92 0 -142 -48t-72 -151q-11 -52 -11 -86q0 -59 32.5 -86.5t107.5 -27.5q93 0 143 48z" />
    <glyph glyph-name="uni1ED0" unicode="&#x1ed0;" horiz-adv-x="688" 
d="M631 910h46l-90 -117h-41zM454 797h48l80 -110h-46l-60 85l-96 -85h-52zM69 207q0 53 13 112q37 173 123.5 254t237.5 81q117 0 174.5 -51.5t57.5 -158.5q0 -54 -15 -125q-35 -165 -121.5 -247t-237.5 -82q-232 0 -232 217zM502 105.5q72 68.5 103 213.5q16 71 16 127
q0 86 -45 123t-144 37q-81 0 -138.5 -28t-96.5 -91t-61 -168q-14 -68 -14 -115q0 -87 45 -127t144 -40q119 0 191 68.5z" />
    <glyph glyph-name="uni1ED1" unicode="&#x1ed1;" horiz-adv-x="563" 
d="M535 744h46l-90 -117h-41zM358 631h48l80 -110h-46l-60 85l-96 -85h-52zM99.5 30q-44.5 40 -44.5 119q0 42 10 88q26 124 91.5 185.5t186.5 61.5q185 0 185 -162q0 -41 -10 -85q-26 -125 -91.5 -186t-188.5 -61q-94 0 -138.5 40zM391 85q50 48 72 152q11 50 11 83
q0 60 -33 88t-108 28q-92 0 -142 -48t-72 -151q-11 -52 -11 -86q0 -59 32.5 -86.5t107.5 -27.5q93 0 143 48z" />
    <glyph glyph-name="uni1ED2" unicode="&#x1ed2;" horiz-adv-x="688" 
d="M316 910h47l34 -117h-40zM444 797h48l80 -110h-46l-60 85l-96 -85h-52zM69 207q0 53 13 112q37 173 123.5 254t237.5 81q117 0 174.5 -51.5t57.5 -158.5q0 -54 -15 -125q-35 -165 -121.5 -247t-237.5 -82q-232 0 -232 217zM502 105.5q72 68.5 103 213.5q16 71 16 127
q0 86 -45 123t-144 37q-81 0 -138.5 -28t-96.5 -91t-61 -168q-14 -68 -14 -115q0 -87 45 -127t144 -40q119 0 191 68.5z" />
    <glyph glyph-name="uni1ED3" unicode="&#x1ed3;" horiz-adv-x="563" 
d="M222 744h47l34 -117h-40zM350 631h48l80 -110h-46l-60 85l-96 -85h-52zM99.5 30q-44.5 40 -44.5 119q0 42 10 88q26 124 91.5 185.5t186.5 61.5q185 0 185 -162q0 -41 -10 -85q-26 -125 -91.5 -186t-188.5 -61q-94 0 -138.5 40zM391 85q50 48 72 152q11 50 11 83
q0 60 -33 88t-108 28q-92 0 -142 -48t-72 -151q-11 -52 -11 -86q0 -59 32.5 -86.5t107.5 -27.5q93 0 143 48z" />
    <glyph glyph-name="uni1ED4" unicode="&#x1ed4;" horiz-adv-x="688" 
d="M557 831q50 3 68.5 13.5t23.5 32.5q1 4 1 11q0 30 -45 30q-30 0 -61 -13l7 34q33 12 68 12q36 0 55.5 -14.5t19.5 -40.5q0 -5 -2 -17q-7 -32 -29.5 -49.5t-64.5 -21.5l-8 -36h-45zM449 797h48l80 -110h-46l-60 85l-95 -85h-53zM69 207q0 53 13 112q37 173 123.5 254
t237.5 81q117 0 174.5 -51.5t57.5 -158.5q0 -54 -15 -125q-35 -165 -121.5 -247t-237.5 -82q-232 0 -232 217zM502 105.5q72 68.5 103 213.5q16 71 16 127q0 86 -45 123t-144 37q-81 0 -138.5 -28t-96.5 -91t-61 -168q-14 -68 -14 -115q0 -87 45 -127t144 -40
q119 0 191 68.5z" />
    <glyph glyph-name="uni1ED5" unicode="&#x1ed5;" horiz-adv-x="563" 
d="M472 665q50 3 68.5 13.5t23.5 32.5q1 4 1 11q0 30 -45 30q-30 0 -61 -13l7 34q33 12 68 12q36 0 55.5 -14.5t19.5 -40.5q0 -5 -2 -17q-7 -32 -29.5 -49.5t-64.5 -21.5l-8 -36h-45zM364 631h48l80 -110h-46l-60 85l-95 -85h-53zM99.5 30q-44.5 40 -44.5 119q0 42 10 88
q26 124 91.5 185.5t186.5 61.5q185 0 185 -162q0 -41 -10 -85q-26 -125 -91.5 -186t-188.5 -61q-94 0 -138.5 40zM391 85q50 48 72 152q11 50 11 83q0 60 -33 88t-108 28q-92 0 -142 -48t-72 -151q-11 -52 -11 -86q0 -59 32.5 -86.5t107.5 -27.5q93 0 143 48z" />
    <glyph glyph-name="uni1ED6" unicode="&#x1ed6;" horiz-adv-x="688" 
d="M484 866q-18 8 -28.5 12t-22.5 4q-23 0 -43 -7t-39 -25l9 43q15 13 36.5 20t42.5 7q17 0 30.5 -4.5t30.5 -13.5q18 -8 29 -12t25 -4q23 0 41.5 7.5t37.5 25.5l-10 -44q-13 -13 -33 -20t-43 -7q-27 0 -63 18zM368 711q-32 23 -32 72q0 18 4 37h36q-4 -16 -4 -32
q0 -33 20.5 -48.5t62.5 -15.5q46 0 78.5 24t42.5 72h41q-15 -68 -60.5 -100t-105.5 -32q-51 0 -83 23zM69 207q0 53 13 112q37 173 123.5 254t237.5 81q117 0 174.5 -51.5t57.5 -158.5q0 -54 -15 -125q-35 -165 -121.5 -247t-237.5 -82q-232 0 -232 217zM502 105.5
q72 68.5 103 213.5q16 71 16 127q0 86 -45 123t-144 37q-81 0 -138.5 -28t-96.5 -91t-61 -168q-14 -68 -14 -115q0 -87 45 -127t144 -40q119 0 191 68.5z" />
    <glyph glyph-name="uni1ED7" unicode="&#x1ed7;" horiz-adv-x="563" 
d="M385 700q-18 8 -28.5 12t-22.5 4q-23 0 -43 -7t-39 -25l9 43q15 13 36.5 20t42.5 7q17 0 30.5 -4.5t30.5 -13.5q18 -8 29 -12t25 -4q23 0 41.5 7.5t37.5 25.5l-10 -44q-13 -13 -33 -20t-43 -7q-27 0 -63 18zM269 545q-32 23 -32 72q0 18 4 37h36q-4 -16 -4 -32
q0 -33 20.5 -48.5t62.5 -15.5q46 0 78.5 24t42.5 72h41q-15 -68 -60.5 -100t-105.5 -32q-51 0 -83 23zM99.5 30q-44.5 40 -44.5 119q0 42 10 88q26 124 91.5 185.5t186.5 61.5q185 0 185 -162q0 -41 -10 -85q-26 -125 -91.5 -186t-188.5 -61q-94 0 -138.5 40zM391 85
q50 48 72 152q11 50 11 83q0 60 -33 88t-108 28q-92 0 -142 -48t-72 -151q-11 -52 -11 -86q0 -59 32.5 -86.5t107.5 -27.5q93 0 143 48z" />
    <glyph glyph-name="uni1ED8" unicode="&#x1ed8;" horiz-adv-x="688" 
d="M456 832h48l76 -135h-48l-57 103l-101 -103h-51zM69 207q0 53 13 112q37 173 123.5 254t237.5 81q117 0 174.5 -51.5t57.5 -158.5q0 -54 -15 -125q-35 -165 -121.5 -247t-237.5 -82q-232 0 -232 217zM502 105.5q72 68.5 103 213.5q16 71 16 127q0 86 -45 123t-144 37
q-81 0 -138.5 -28t-96.5 -91t-61 -168q-14 -68 -14 -115q0 -87 45 -127t144 -40q119 0 191 68.5zM255 -95h59l-12 -57h-59z" />
    <glyph glyph-name="uni1ED9" unicode="&#x1ed9;" horiz-adv-x="563" 
d="M356 656h48l76 -135h-48l-57 103l-101 -103h-51zM99.5 30q-44.5 40 -44.5 119q0 42 10 88q26 124 91.5 185.5t186.5 61.5q185 0 185 -162q0 -41 -10 -85q-26 -125 -91.5 -186t-188.5 -61q-94 0 -138.5 40zM391 85q50 48 72 152q11 50 11 83q0 60 -33 88t-108 28
q-92 0 -142 -48t-72 -151q-11 -52 -11 -86q0 -59 32.5 -86.5t107.5 -27.5q93 0 143 48zM192 -95h59l-12 -57h-59z" />
    <glyph glyph-name="uni1EDA" unicode="&#x1eda;" horiz-adv-x="749" 
d="M540 846h52l-108 -158h-45zM69 207q0 53 13 112q37 173 123.5 254t237.5 81q152 0 204 -88q61 1 90.5 27t44.5 95h48q-18 -84 -58 -122t-107 -44q10 -33 10 -79q0 -55 -15 -124q-35 -165 -121.5 -247t-237.5 -82q-232 0 -232 217zM502 105.5q72 68.5 103 213.5
q16 71 16 127q0 86 -45 123t-144 37q-81 0 -138.5 -28t-96.5 -91t-61 -168q-14 -68 -14 -115q0 -87 45 -127t144 -40q119 0 191 68.5z" />
    <glyph glyph-name="uni1EDB" unicode="&#x1edb;" horiz-adv-x="639" 
d="M441 680h52l-108 -158h-45zM99.5 30q-44.5 40 -44.5 119q0 42 10 88q26 124 91.5 185.5t186.5 61.5q125 0 165 -73q60 1 88 28t43 97h48q-18 -85 -57.5 -123t-106.5 -44q5 -25 5 -48q0 -40 -10 -84q-26 -125 -91.5 -186t-188.5 -61q-94 0 -138.5 40zM391 85q50 48 72 152
q11 50 11 83q0 60 -33 88t-108 28q-92 0 -142 -48t-72 -151q-11 -52 -11 -86q0 -59 32.5 -86.5t107.5 -27.5q93 0 143 48z" />
    <glyph glyph-name="uni1EDC" unicode="&#x1edc;" horiz-adv-x="749" 
d="M411 846h52l33 -158h-45zM69 207q0 53 13 112q37 173 123.5 254t237.5 81q152 0 204 -88q61 1 90.5 27t44.5 95h48q-18 -84 -58 -122t-107 -44q10 -33 10 -79q0 -55 -15 -124q-35 -165 -121.5 -247t-237.5 -82q-232 0 -232 217zM502 105.5q72 68.5 103 213.5
q16 71 16 127q0 86 -45 123t-144 37q-81 0 -138.5 -28t-96.5 -91t-61 -168q-14 -68 -14 -115q0 -87 45 -127t144 -40q119 0 191 68.5z" />
    <glyph glyph-name="uni1EDD" unicode="&#x1edd;" horiz-adv-x="639" 
d="M309 680h52l33 -158h-45zM99.5 30q-44.5 40 -44.5 119q0 42 10 88q26 124 91.5 185.5t186.5 61.5q125 0 165 -73q60 1 88 28t43 97h48q-18 -85 -57.5 -123t-106.5 -44q5 -25 5 -48q0 -40 -10 -84q-26 -125 -91.5 -186t-188.5 -61q-94 0 -138.5 40zM391 85q50 48 72 152
q11 50 11 83q0 60 -33 88t-108 28q-92 0 -142 -48t-72 -151q-11 -52 -11 -86q0 -59 32.5 -86.5t107.5 -27.5q93 0 143 48z" />
    <glyph glyph-name="uni1EDE" unicode="&#x1ede;" horiz-adv-x="749" 
d="M453 767q40 2 61.5 8.5t31 18t13.5 32.5q2 10 2 14q0 39 -73 39q-16 0 -36 -3.5t-34 -8.5l8 38q15 5 38.5 8.5t41.5 3.5q49 0 74 -17t25 -50q0 -14 -2 -21q-9 -41 -33.5 -62.5t-75.5 -26.5l-11 -52h-47zM69 207q0 53 13 112q37 173 123.5 254t237.5 81q152 0 204 -88
q61 1 90.5 27t44.5 95h48q-18 -84 -58 -122t-107 -44q10 -33 10 -79q0 -55 -15 -124q-35 -165 -121.5 -247t-237.5 -82q-232 0 -232 217zM502 105.5q72 68.5 103 213.5q16 71 16 127q0 86 -45 123t-144 37q-81 0 -138.5 -28t-96.5 -91t-61 -168q-14 -68 -14 -115
q0 -87 45 -127t144 -40q119 0 191 68.5z" />
    <glyph glyph-name="uni1EDF" unicode="&#x1edf;" horiz-adv-x="639" 
d="M344 601q40 2 61.5 8.5t31 18t13.5 32.5q2 10 2 14q0 39 -73 39q-16 0 -36 -3.5t-34 -8.5l8 38q15 5 38.5 8.5t41.5 3.5q49 0 74 -17t25 -50q0 -14 -2 -21q-9 -41 -33.5 -62.5t-75.5 -26.5l-11 -52h-47zM99.5 30q-44.5 40 -44.5 119q0 42 10 88q26 124 91.5 185.5
t186.5 61.5q125 0 165 -73q60 1 88 28t43 97h48q-18 -85 -57.5 -123t-106.5 -44q5 -25 5 -48q0 -40 -10 -84q-26 -125 -91.5 -186t-188.5 -61q-94 0 -138.5 40zM391 85q50 48 72 152q11 50 11 83q0 60 -33 88t-108 28q-92 0 -142 -48t-72 -151q-11 -52 -11 -86
q0 -59 32.5 -86.5t107.5 -27.5q93 0 143 48z" />
    <glyph glyph-name="uni1EE0" unicode="&#x1ee0;" horiz-adv-x="749" 
d="M510 717q-16 5 -36 15q-18 8 -30.5 12.5t-25.5 4.5q-51 0 -86 -35l10 47q14 13 37.5 21t46.5 8q18 0 32 -4.5t34 -14.5q18 -9 30.5 -13.5t27.5 -4.5q48 0 80 35l-10 -47q-12 -14 -32.5 -21.5t-44.5 -7.5q-17 0 -33 5zM69 207q0 53 13 112q37 173 123.5 254t237.5 81
q152 0 204 -88q61 1 90.5 27t44.5 95h48q-18 -84 -58 -122t-107 -44q10 -33 10 -79q0 -55 -15 -124q-35 -165 -121.5 -247t-237.5 -82q-232 0 -232 217zM502 105.5q72 68.5 103 213.5q16 71 16 127q0 86 -45 123t-144 37q-81 0 -138.5 -28t-96.5 -91t-61 -168
q-14 -68 -14 -115q0 -87 45 -127t144 -40q119 0 191 68.5z" />
    <glyph glyph-name="uni1EE1" unicode="&#x1ee1;" horiz-adv-x="639" 
d="M401 551q-16 5 -36 15q-18 8 -30.5 12.5t-25.5 4.5q-51 0 -86 -35l10 47q14 13 37.5 21t46.5 8q18 0 32 -4.5t34 -14.5q18 -9 30.5 -13.5t27.5 -4.5q48 0 80 35l-10 -47q-12 -14 -32.5 -21.5t-44.5 -7.5q-17 0 -33 5zM99.5 30q-44.5 40 -44.5 119q0 42 10 88
q26 124 91.5 185.5t186.5 61.5q125 0 165 -73q60 1 88 28t43 97h48q-18 -85 -57.5 -123t-106.5 -44q5 -25 5 -48q0 -40 -10 -84q-26 -125 -91.5 -186t-188.5 -61q-94 0 -138.5 40zM391 85q50 48 72 152q11 50 11 83q0 60 -33 88t-108 28q-92 0 -142 -48t-72 -151
q-11 -52 -11 -86q0 -59 32.5 -86.5t107.5 -27.5q93 0 143 48z" />
    <glyph glyph-name="uni1EE2" unicode="&#x1ee2;" horiz-adv-x="749" 
d="M69 207q0 53 13 112q37 173 123.5 254t237.5 81q152 0 204 -88q61 1 90.5 27t44.5 95h48q-18 -84 -58 -122t-107 -44q10 -33 10 -79q0 -55 -15 -124q-35 -165 -121.5 -247t-237.5 -82q-232 0 -232 217zM502 105.5q72 68.5 103 213.5q16 71 16 127q0 86 -45 123t-144 37
q-81 0 -138.5 -28t-96.5 -91t-61 -168q-14 -68 -14 -115q0 -87 45 -127t144 -40q119 0 191 68.5zM258 -95h59l-12 -57h-59z" />
    <glyph glyph-name="uni1EE3" unicode="&#x1ee3;" horiz-adv-x="639" 
d="M99.5 30q-44.5 40 -44.5 119q0 42 10 88q26 124 91.5 185.5t186.5 61.5q125 0 165 -73q60 1 88 28t43 97h48q-18 -85 -57.5 -123t-106.5 -44q5 -25 5 -48q0 -40 -10 -84q-26 -125 -91.5 -186t-188.5 -61q-94 0 -138.5 40zM391 85q50 48 72 152q11 50 11 83q0 60 -33 88
t-108 28q-92 0 -142 -48t-72 -151q-11 -52 -11 -86q0 -59 32.5 -86.5t107.5 -27.5q93 0 143 48zM201 -95h59l-12 -57h-59z" />
    <glyph glyph-name="uni1EE4" unicode="&#x1ee4;" horiz-adv-x="663" 
d="M126.5 36q-55.5 46 -55.5 130q0 29 8 67l87 411h55l-88 -417q-7 -32 -7 -62q0 -65 42.5 -96t131.5 -31q97 0 161.5 46t84.5 143l88 417h55l-87 -411q-52 -243 -313 -243q-107 0 -162.5 46zM242 -95h59l-12 -57h-59z" />
    <glyph glyph-name="uni1EE5" unicode="&#x1ee5;" horiz-adv-x="559" 
d="M96 23q-36 33 -36 95q0 26 6 56l64 300h55l-64 -302q-6 -28 -6 -51q0 -46 28 -66t90 -20q48 0 93.5 18.5t84.5 50.5l78 370h55l-100 -474h-49l7 58q-45 -33 -94 -50.5t-108 -17.5q-68 0 -104 33zM180 -95h59l-12 -57h-59z" />
    <glyph glyph-name="uni1EE6" unicode="&#x1ee6;" horiz-adv-x="663" 
d="M428 767q40 2 61.5 8.5t31 18t13.5 32.5q2 10 2 14q0 39 -73 39q-16 0 -36 -3.5t-34 -8.5l8 38q15 5 38.5 8.5t41.5 3.5q49 0 74 -17t25 -50q0 -14 -2 -21q-9 -41 -33.5 -62.5t-75.5 -26.5l-11 -52h-47zM126.5 36q-55.5 46 -55.5 130q0 29 8 67l87 411h55l-88 -417
q-7 -32 -7 -62q0 -65 42.5 -96t131.5 -31q97 0 161.5 46t84.5 143l88 417h55l-87 -411q-52 -243 -313 -243q-107 0 -162.5 46z" />
    <glyph glyph-name="uni1EE7" unicode="&#x1ee7;" horiz-adv-x="559" 
d="M338 601q40 2 61.5 8.5t31 18t13.5 32.5q2 10 2 14q0 39 -73 39q-16 0 -36 -3.5t-34 -8.5l8 38q15 5 38.5 8.5t41.5 3.5q49 0 74 -17t25 -50q0 -14 -2 -21q-9 -41 -33.5 -62.5t-75.5 -26.5l-11 -52h-47zM96 23q-36 33 -36 95q0 26 6 56l64 300h55l-64 -302q-6 -28 -6 -51
q0 -46 28 -66t90 -20q48 0 93.5 18.5t84.5 50.5l78 370h55l-100 -474h-49l7 58q-45 -33 -94 -50.5t-108 -17.5q-68 0 -104 33z" />
    <glyph glyph-name="uni1EE8" unicode="&#x1ee8;" horiz-adv-x="785" 
d="M525 846h52l-108 -158h-45zM126.5 36q-55.5 46 -55.5 130q0 29 8 67l87 411h55l-88 -417q-7 -32 -7 -62q0 -65 42.5 -96t131.5 -31q97 0 161.5 46t84.5 143l88 417h55l-17 -80q62 0 91.5 26.5t44.5 97.5h48q-20 -93 -66.5 -130.5t-126.5 -38.5l-61 -286
q-52 -243 -313 -243q-107 0 -162.5 46z" />
    <glyph glyph-name="uni1EE9" unicode="&#x1ee9;" horiz-adv-x="659" 
d="M435 680h52l-108 -158h-45zM96 23q-36 33 -36 95q0 26 6 56l64 300h55l-64 -302q-6 -28 -6 -51q0 -46 28 -66t90 -20q48 0 93.5 18.5t84.5 50.5l78 370h55l-14 -63q52 3 78.5 31t40.5 94h48q-18 -86 -62 -125.5t-114 -42.5l-77 -368h-49l7 58q-45 -33 -94 -50.5
t-108 -17.5q-68 0 -104 33z" />
    <glyph glyph-name="uni1EEA" unicode="&#x1eea;" horiz-adv-x="785" 
d="M385 846h52l33 -158h-45zM126.5 36q-55.5 46 -55.5 130q0 29 8 67l87 411h55l-88 -417q-7 -32 -7 -62q0 -65 42.5 -96t131.5 -31q97 0 161.5 46t84.5 143l88 417h55l-17 -80q62 0 91.5 26.5t44.5 97.5h48q-20 -93 -66.5 -130.5t-126.5 -38.5l-61 -286q-52 -243 -313 -243
q-107 0 -162.5 46z" />
    <glyph glyph-name="uni1EEB" unicode="&#x1eeb;" horiz-adv-x="659" 
d="M301 680h52l33 -158h-45zM96 23q-36 33 -36 95q0 26 6 56l64 300h55l-64 -302q-6 -28 -6 -51q0 -46 28 -66t90 -20q48 0 93.5 18.5t84.5 50.5l78 370h55l-14 -63q52 3 78.5 31t40.5 94h48q-18 -86 -62 -125.5t-114 -42.5l-77 -368h-49l7 58q-45 -33 -94 -50.5t-108 -17.5
q-68 0 -104 33z" />
    <glyph glyph-name="uni1EEC" unicode="&#x1eec;" horiz-adv-x="785" 
d="M438 767q40 2 61.5 8.5t31 18t13.5 32.5q2 10 2 14q0 39 -73 39q-16 0 -36 -3.5t-34 -8.5l8 38q15 5 38.5 8.5t41.5 3.5q49 0 74 -17t25 -50q0 -14 -2 -21q-9 -41 -33.5 -62.5t-75.5 -26.5l-11 -52h-47zM126.5 36q-55.5 46 -55.5 130q0 29 8 67l87 411h55l-88 -417
q-7 -32 -7 -62q0 -65 42.5 -96t131.5 -31q97 0 161.5 46t84.5 143l88 417h55l-17 -80q62 0 91.5 26.5t44.5 97.5h48q-20 -93 -66.5 -130.5t-126.5 -38.5l-61 -286q-52 -243 -313 -243q-107 0 -162.5 46z" />
    <glyph glyph-name="uni1EED" unicode="&#x1eed;" horiz-adv-x="659" 
d="M347 601q40 2 61.5 8.5t31 18t13.5 32.5q2 10 2 14q0 39 -73 39q-16 0 -36 -3.5t-34 -8.5l8 38q15 5 38.5 8.5t41.5 3.5q49 0 74 -17t25 -50q0 -14 -2 -21q-9 -41 -33.5 -62.5t-75.5 -26.5l-11 -52h-47zM96 23q-36 33 -36 95q0 26 6 56l64 300h55l-64 -302q-6 -28 -6 -51
q0 -46 28 -66t90 -20q48 0 93.5 18.5t84.5 50.5l78 370h55l-14 -63q52 3 78.5 31t40.5 94h48q-18 -86 -62 -125.5t-114 -42.5l-77 -368h-49l7 58q-45 -33 -94 -50.5t-108 -17.5q-68 0 -104 33z" />
    <glyph glyph-name="uni1EEE" unicode="&#x1eee;" horiz-adv-x="785" 
d="M478 717q-16 5 -36 15q-18 8 -30.5 12.5t-25.5 4.5q-51 0 -86 -35l10 47q14 13 37.5 21t46.5 8q18 0 32 -4.5t34 -14.5q18 -9 30.5 -13.5t27.5 -4.5q48 0 80 35l-10 -47q-12 -14 -32.5 -21.5t-44.5 -7.5q-17 0 -33 5zM126.5 36q-55.5 46 -55.5 130q0 29 8 67l87 411h55
l-88 -417q-7 -32 -7 -62q0 -65 42.5 -96t131.5 -31q97 0 161.5 46t84.5 143l88 417h55l-17 -80q62 0 91.5 26.5t44.5 97.5h48q-20 -93 -66.5 -130.5t-126.5 -38.5l-61 -286q-52 -243 -313 -243q-107 0 -162.5 46z" />
    <glyph glyph-name="uni1EEF" unicode="&#x1eef;" horiz-adv-x="659" 
d="M402 551q-16 5 -36 15q-18 8 -30.5 12.5t-25.5 4.5q-51 0 -86 -35l10 47q14 13 37.5 21t46.5 8q18 0 32 -4.5t34 -14.5q18 -9 30.5 -13.5t27.5 -4.5q48 0 80 35l-10 -47q-12 -14 -32.5 -21.5t-44.5 -7.5q-17 0 -33 5zM96 23q-36 33 -36 95q0 26 6 56l64 300h55l-64 -302
q-6 -28 -6 -51q0 -46 28 -66t90 -20q48 0 93.5 18.5t84.5 50.5l78 370h55l-14 -63q52 3 78.5 31t40.5 94h48q-18 -86 -62 -125.5t-114 -42.5l-77 -368h-49l7 58q-45 -33 -94 -50.5t-108 -17.5q-68 0 -104 33z" />
    <glyph glyph-name="uni1EF0" unicode="&#x1ef0;" horiz-adv-x="785" 
d="M126.5 36q-55.5 46 -55.5 130q0 29 8 67l87 411h55l-88 -417q-7 -32 -7 -62q0 -65 42.5 -96t131.5 -31q97 0 161.5 46t84.5 143l88 417h55l-17 -80q62 0 91.5 26.5t44.5 97.5h48q-20 -93 -66.5 -130.5t-126.5 -38.5l-61 -286q-52 -243 -313 -243q-107 0 -162.5 46z
M239 -95h59l-12 -57h-59z" />
    <glyph glyph-name="uni1EF1" unicode="&#x1ef1;" horiz-adv-x="659" 
d="M96 23q-36 33 -36 95q0 26 6 56l64 300h55l-64 -302q-6 -28 -6 -51q0 -46 28 -66t90 -20q48 0 93.5 18.5t84.5 50.5l78 370h55l-14 -63q52 3 78.5 31t40.5 94h48q-18 -86 -62 -125.5t-114 -42.5l-77 -368h-49l7 58q-45 -33 -94 -50.5t-108 -17.5q-68 0 -104 33zM186 -95
h59l-12 -57h-59z" />
    <glyph glyph-name="Ygrave" unicode="&#x1ef2;" horiz-adv-x="624" 
d="M369 846h52l33 -158h-45zM295 241l-144 403h54l125 -355l275 355h60l-315 -403l-51 -241h-55z" />
    <glyph glyph-name="ygrave" unicode="&#x1ef3;" horiz-adv-x="566" 
d="M307 680h52l33 -158h-45zM116 -173q-34 3 -51 7l10 48q19 -6 48.5 -9t53.5 -3q82 0 139.5 31.5t71.5 90.5l14 66q-45 -33 -94 -50.5t-108 -17.5q-68 0 -104 33t-36 95q0 26 6 56l64 300h55l-64 -302q-6 -28 -6 -51q0 -46 28 -66t90 -20q48 0 93.5 18.5t84.5 50.5l78 370
h55l-101 -477q-11 -52 -50 -91t-96 -60.5t-120 -21.5q-27 0 -61 3z" />
    <glyph glyph-name="uni1EF4" unicode="&#x1ef4;" horiz-adv-x="624" 
d="M295 241l-144 403h54l125 -355l275 355h60l-315 -403l-51 -241h-55zM226 -78h59l-12 -57h-59z" />
    <glyph glyph-name="uni1EF5" unicode="&#x1ef5;" horiz-adv-x="566" 
d="M116 -173q-34 3 -51 7l10 48q19 -6 48.5 -9t53.5 -3q82 0 139.5 31.5t71.5 90.5l14 66q-45 -33 -94 -50.5t-108 -17.5q-68 0 -104 33t-36 95q0 26 6 56l64 300h55l-64 -302q-6 -28 -6 -51q0 -46 28 -66t90 -20q48 0 93.5 18.5t84.5 50.5l78 370h55l-101 -477
q-11 -52 -50 -91t-96 -60.5t-120 -21.5q-27 0 -61 3zM450 -78h59l-12 -57h-59z" />
    <glyph glyph-name="uni1EF6" unicode="&#x1ef6;" horiz-adv-x="624" 
d="M400 767q40 2 61.5 8.5t31 18t13.5 32.5q2 10 2 14q0 39 -73 39q-16 0 -36 -3.5t-34 -8.5l8 38q15 5 38.5 8.5t41.5 3.5q49 0 74 -17t25 -50q0 -14 -2 -21q-9 -41 -33.5 -62.5t-75.5 -26.5l-11 -52h-47zM295 241l-144 403h54l125 -355l275 355h60l-315 -403l-51 -241h-55
z" />
    <glyph glyph-name="uni1EF7" unicode="&#x1ef7;" horiz-adv-x="566" 
d="M356 601q40 2 61.5 8.5t31 18t13.5 32.5q2 10 2 14q0 39 -73 39q-16 0 -36 -3.5t-34 -8.5l8 38q15 5 38.5 8.5t41.5 3.5q49 0 74 -17t25 -50q0 -14 -2 -21q-9 -41 -33.5 -62.5t-75.5 -26.5l-11 -52h-47zM116 -173q-34 3 -51 7l10 48q19 -6 48.5 -9t53.5 -3
q82 0 139.5 31.5t71.5 90.5l14 66q-45 -33 -94 -50.5t-108 -17.5q-68 0 -104 33t-36 95q0 26 6 56l64 300h55l-64 -302q-6 -28 -6 -51q0 -46 28 -66t90 -20q48 0 93.5 18.5t84.5 50.5l78 370h55l-101 -477q-11 -52 -50 -91t-96 -60.5t-120 -21.5q-27 0 -61 3z" />
    <glyph glyph-name="uni1EF8" unicode="&#x1ef8;" horiz-adv-x="624" 
d="M461 718q-16 5 -36 15q-18 8 -30.5 12.5t-25.5 4.5q-51 0 -86 -35l10 47q14 13 37.5 21t46.5 8q18 0 32 -4.5t34 -14.5q18 -9 30.5 -13.5t27.5 -4.5q48 0 80 35l-10 -47q-12 -14 -32.5 -21.5t-44.5 -7.5q-17 0 -33 5zM295 241l-144 403h54l125 -355l275 355h60l-315 -403
l-51 -241h-55z" />
    <glyph glyph-name="uni1EF9" unicode="&#x1ef9;" horiz-adv-x="566" 
d="M404 552q-16 5 -36 15q-18 8 -30.5 12.5t-25.5 4.5q-51 0 -86 -35l10 47q14 13 37.5 21t46.5 8q18 0 32 -4.5t34 -14.5q18 -9 30.5 -13.5t27.5 -4.5q48 0 80 35l-10 -47q-12 -14 -32.5 -21.5t-44.5 -7.5q-17 0 -33 5zM116 -173q-34 3 -51 7l10 48q19 -6 48.5 -9t53.5 -3
q82 0 139.5 31.5t71.5 90.5l14 66q-45 -33 -94 -50.5t-108 -17.5q-68 0 -104 33t-36 95q0 26 6 56l64 300h55l-64 -302q-6 -28 -6 -51q0 -46 28 -66t90 -20q48 0 93.5 18.5t84.5 50.5l78 370h55l-101 -477q-11 -52 -50 -91t-96 -60.5t-120 -21.5q-27 0 -61 3z" />
    <glyph glyph-name="uni2007" unicode="&#x2007;" 
 />
    <glyph glyph-name="uni2010" unicode="&#x2010;" horiz-adv-x="513" 
d="M74 280h403l-10 -45h-403z" />
    <glyph glyph-name="figuredash" unicode="&#x2012;" horiz-adv-x="620" 
d="M74 280h510l-10 -45h-510z" />
    <glyph glyph-name="endash" unicode="&#x2013;" horiz-adv-x="591" 
d="M74 280h481l-10 -45h-481z" />
    <glyph glyph-name="emdash" unicode="&#x2014;" horiz-adv-x="893" 
d="M74 280h783l-10 -45h-783z" />
    <glyph glyph-name="uni2015" unicode="&#x2015;" horiz-adv-x="941" 
d="M74 280h831l-10 -45h-831z" />
    <glyph glyph-name="quoteleft" unicode="&#x2018;" horiz-adv-x="210" 
d="M212 654h42l-83 -171h-54z" />
    <glyph glyph-name="quoteright" unicode="&#x2019;" horiz-adv-x="210" 
d="M200 654h54l-95 -171h-42z" />
    <glyph glyph-name="quotesinglbase" unicode="&#x201a;" horiz-adv-x="210" 
d="M68 33h54l-95 -171h-42z" />
    <glyph glyph-name="quotedblleft" unicode="&#x201c;" horiz-adv-x="333" 
d="M212 654h39l-83 -171h-51zM338 654h39l-83 -171h-51z" />
    <glyph glyph-name="quotedblright" unicode="&#x201d;" horiz-adv-x="333" 
d="M200 654h51l-95 -171h-39zM326 654h51l-95 -171h-39z" />
    <glyph glyph-name="quotedblbase" unicode="&#x201e;" horiz-adv-x="333" 
d="M71 48h51l-95 -171h-39zM197 48h51l-95 -171h-39z" />
    <glyph glyph-name="dagger" unicode="&#x2020;" horiz-adv-x="552" 
d="M306 446l-197 -2l9 45l197 -2l42 213h55l-48 -213l196 2l-9 -45l-196 2l-91 -446h-55z" />
    <glyph glyph-name="daggerdbl" unicode="&#x2021;" horiz-adv-x="552" 
d="M255 207l-197 -2l10 45l196 -2l19 102l24 101l-197 -1l10 44l196 -2l41 208h55l-47 -208l197 2l-10 -44l-196 1l-18 -101l-25 -102l197 2l-10 -45l-196 2l-40 -207h-55z" />
    <glyph glyph-name="bullet" unicode="&#x2022;" horiz-adv-x="341" 
d="M99 197q-26 25 -26 65q0 37 20.5 69.5t53.5 52t68 19.5q42 0 68 -26.5t26 -66.5q0 -37 -20.5 -68.5t-53.5 -50.5t-69 -19q-41 0 -67 25z" />
    <glyph glyph-name="ellipsis" unicode="&#x2026;" horiz-adv-x="539" 
d="M25 50h52l-10 -50h-52zM213 50h52l-10 -50h-52zM402 50h52l-10 -50h-52z" />
    <glyph glyph-name="perthousand" unicode="&#x2030;" horiz-adv-x="1000" 
d="M145.5 396.5q-27.5 26.5 -27.5 72.5q0 20 4 37q31 148 166 148q51 0 78.5 -27.5t27.5 -76.5q0 -17 -5 -44q-14 -64 -53.5 -100t-108.5 -36q-54 0 -81.5 26.5zM588 644h52l-480 -644h-52zM309 435q28 25 38 71q5 21 5 44q0 33 -17.5 48t-55.5 15q-46 0 -74.5 -26
t-40.5 -81q-4 -17 -4 -35q0 -30 17.5 -45.5t58.5 -15.5q45 0 73 25zM381.5 16.5q-27.5 26.5 -27.5 72.5q0 20 4 37q31 148 166 148q51 0 78.5 -27.5t27.5 -76.5q0 -17 -5 -44q-14 -64 -53.5 -100t-108.5 -36q-54 0 -81.5 26.5zM686.5 16.5q-27.5 26.5 -27.5 72.5q0 20 4 37
q31 148 166 148q51 0 78.5 -27.5t27.5 -76.5q0 -17 -5 -44q-14 -64 -53.5 -100t-108.5 -36q-54 0 -81.5 26.5zM545 55q28 25 38 71q5 21 5 44q0 33 -17.5 48t-55.5 15q-46 0 -74.5 -26t-40.5 -81q-4 -17 -4 -35q0 -30 17.5 -45.5t58.5 -15.5q45 0 73 25zM850 55q28 25 38 71
q5 21 5 44q0 33 -17.5 48t-55.5 15q-46 0 -74.5 -26t-40.5 -81q-4 -17 -4 -35q0 -30 17.5 -45.5t58.5 -15.5q45 0 73 25z" />
    </font>
</defs>
</svg>
