<?xml version="1.0" standalone="no"?>
<!DOCTYPE svg PUBLIC "-//W3C//DTD SVG 1.1//EN" "http://www.w3.org/Graphics/SVG/1.1/DTD/svg11.dtd" >
<svg xmlns="http://www.w3.org/2000/svg" width="100%" height="100%">
<metadata>
Created by FontXChange 20110211 at Wed Feb  8 07:20:12 2017
 By ,S-1-5-21-2990463615-3375158210-3149194106-1000
This font is compatible with Microsoft Windows XP and upper/Macintosh OSX and upper, and work very well with Microsoft Office 2000 and upper/Adobe CS and upper. "PSL" is abbreviation of PSL SmartLetter. "PSL SmartLetter" is a pseudonym of Phanlop Thongsuk. And "PSL SmartLetter" is a trademark of the Phanlop Thongsuk.
</metadata>
<defs>
<font id="KittithadaThin35Italic" horiz-adv-x="0" >
  <font-face 
    font-family="Kittithada Thin 35"
    font-weight="400"
    font-style="italic"
    font-stretch="normal"
    units-per-em="1000"
    panose-1="2 0 5 6 0 0 0 2 0 4"
    ascent="800"
    descent="-200"
    x-height="473"
    cap-height="657"
    bbox="-515 -409 1021 1089"
    underline-thickness="30"
    underline-position="-60"
    slope="-10"
    stemh="39"
    stemv="38"
    unicode-range="U+0020-F880"
  />
<missing-glyph horiz-adv-x="1089" 
d="M68 0v1089h953v-1089h-953zM954 68v953h-817v-953h817z" />
    <glyph glyph-name=".notdef" horiz-adv-x="1089" 
d="M68 0v1089h953v-1089h-953zM954 68v953h-817v-953h817z" />
    <glyph glyph-name=".null" 
 />
    <glyph glyph-name="CR" horiz-adv-x="307" 
 />
    <glyph glyph-name="space" unicode=" " horiz-adv-x="400" 
 />
    <glyph glyph-name="space" unicode="&#xa0;" horiz-adv-x="400" 
 />
    <glyph glyph-name="percent" unicode="%" horiz-adv-x="716" 
d="M650 152c-15 -88 -89 -165 -181 -165c-94 0 -140 76 -124 165c16 91 87 166 182 166c97 0 140 -72 123 -166zM651 657l-548 -679h-36l548 679h36zM372 481c-15 -88 -89 -164 -182 -164c-94 0 -139 75 -124 164c16 92 87 166 184 166c96 0 139 -72 122 -166zM615 152
c12 71 -17 135 -93 135c-77 0 -131 -64 -143 -135c-12 -67 21 -134 94 -134c74 0 131 67 142 134zM336 481c13 73 -17 137 -93 137c-77 0 -130 -66 -143 -137c-12 -67 23 -134 94 -134c74 0 130 67 142 134z" />
    <glyph glyph-name="ampersand" unicode="&#x26;" horiz-adv-x="545" 
d="M492 0h-46l-62 98c-51 -67 -127 -109 -207 -109c-109 0 -185 56 -166 167c18 108 124 159 208 207c-31 54 -72 103 -60 170c12 68 85 114 158 114c72 0 131 -40 118 -114c-16 -94 -93 -133 -167 -180l123 -193c16 27 33 73 40 111h36c-9 -42 -26 -97 -57 -140zM400 533
c9 50 -37 84 -88 84c-50 0 -109 -34 -118 -84s21 -96 58 -154c59 35 135 79 148 154zM365 126l-132 212c-77 -45 -170 -88 -187 -182c-15 -86 56 -136 135 -136c111 0 183 100 184 106z" />
    <glyph glyph-name="quotesingle" unicode="'" horiz-adv-x="188" 
d="M135 446h-37l37 211h38z" />
    <glyph glyph-name="parenleft" unicode="(" horiz-adv-x="222" 
d="M128 -141h-30c-53 116 -76 244 -45 420c32 177 99 306 194 421h31c-98 -124 -159 -245 -190 -421s-13 -296 40 -420z" />
    <glyph glyph-name="parenright" unicode=")" horiz-adv-x="222" 
d="M155 279c-31 -176 -98 -304 -193 -420h-30c97 124 157 244 188 420s14 297 -39 421h31c53 -115 75 -244 43 -421z" />
    <glyph glyph-name="asterisk" unicode="*" horiz-adv-x="324" 
d="M338 547l-120 -35l58 -92l-30 -21l-52 98l-91 -98l-21 22l94 91l-110 35l16 31l105 -41l15 120h38l-27 -120l120 41z" />
    <glyph glyph-name="plus" unicode="+" horiz-adv-x="505" 
d="M445 215h-194l-33 -194h-35l33 194h-192l7 35h192l34 192h35l-34 -192h194z" />
    <glyph glyph-name="comma" unicode="," horiz-adv-x="255" 
d="M110 88l-15 -88c-8 -49 -32 -99 -80 -116l6 31c29 11 42 60 46 85h-24l16 88h51z" />
    <glyph glyph-name="hyphen" unicode="-" horiz-adv-x="318" 
d="M240 233h-191l7 35h191z" />
    <glyph glyph-name="period" unicode="." horiz-adv-x="255" 
d="M95 0h-46l15 88h46z" />
    <glyph glyph-name="slash" unicode="/" horiz-adv-x="307" 
d="M382 672l-417 -687h-38l418 687h37z" />
    <glyph glyph-name="zero" unicode="0" horiz-adv-x="505" 
d="M480 314c-27 -152 -103 -325 -285 -325c-180 0 -198 173 -170 325c27 149 103 322 283 322c182 0 198 -173 172 -322zM445 314c21 124 18 293 -141 293c-156 0 -223 -169 -244 -293c-22 -127 -17 -294 139 -294c160 0 224 167 246 294z" />
    <glyph glyph-name="one" unicode="1" horiz-adv-x="505" 
d="M246 0h-35l85 480h-168l5 28c118 0 166 15 192 117h31z" />
    <glyph glyph-name="two" unicode="2" horiz-adv-x="505" 
d="M403 0h-417c26 123 132 180 234 241s203 120 221 225c15 85 -32 139 -126 139c-114 0 -187 -83 -206 -191h-35c29 145 124 222 245 222c108 0 177 -56 157 -170c-19 -110 -119 -179 -218 -239c-102 -61 -201 -122 -222 -192h373z" />
    <glyph glyph-name="three" unicode="3" horiz-adv-x="505" 
d="M438 173c-22 -124 -130 -184 -247 -184c-137 0 -211 78 -178 217h33c-25 -115 36 -185 151 -185c96 0 188 52 206 152c21 120 -81 151 -185 145l5 29c91 -4 199 23 218 131c16 88 -53 127 -135 127c-115 0 -183 -78 -206 -177h-34c23 123 115 208 244 208
c100 0 187 -46 166 -158c-13 -73 -74 -135 -145 -143v-2c86 -11 121 -76 107 -160z" />
    <glyph glyph-name="four" unicode="4" horiz-adv-x="505" 
d="M444 156h-106l-28 -156h-35l28 156h-304l5 35l381 434h35l-77 -438h106zM308 187l67 386h-1l-336 -386h270z" />
    <glyph glyph-name="five" unicode="5" horiz-adv-x="505" 
d="M441 206c-22 -124 -119 -217 -251 -217c-119 0 -208 77 -179 202h34c-20 -105 50 -170 150 -170c106 0 193 84 211 185c18 104 -36 185 -144 185c-69 0 -128 -31 -178 -88h-35l120 322h316l-5 -31h-290l-91 -244c49 49 109 70 170 70c127 0 195 -87 172 -214z" />
    <glyph glyph-name="six" unicode="6" horiz-adv-x="505" 
d="M451 199c-21 -121 -126 -210 -247 -210c-171 0 -198 137 -171 293c27 155 98 354 291 354c106 0 170 -57 164 -164h-35c5 82 -46 133 -134 133c-171 0 -231 -205 -251 -323c42 79 126 131 210 131c124 0 195 -92 173 -214zM414 199c17 98 -40 185 -142 185
c-103 0 -191 -83 -209 -185c-18 -103 47 -179 145 -179c100 0 189 80 206 179z" />
    <glyph glyph-name="seven" unicode="7" horiz-adv-x="505" 
d="M509 625l-5 -34c-152 -136 -303 -304 -374 -591h-38c45 179 124 374 377 594h-370l6 31h404z" />
    <glyph glyph-name="eight" unicode="8" horiz-adv-x="505" 
d="M445 180c-23 -131 -128 -191 -250 -191c-118 0 -205 60 -182 191c16 88 79 151 166 160v2c-74 15 -103 68 -91 138c20 117 124 156 220 156c98 0 186 -39 166 -156c-12 -70 -60 -123 -141 -138v-2c84 -9 127 -72 112 -160zM441 480c17 95 -53 125 -137 125
c-82 0 -164 -30 -181 -125c-16 -89 57 -124 136 -124c81 0 165 35 182 124zM410 180c18 105 -57 145 -156 145c-98 0 -190 -40 -208 -145c-19 -112 60 -159 155 -159c96 0 190 47 209 159z" />
    <glyph glyph-name="nine" unicode="9" horiz-adv-x="505" 
d="M473 343c-27 -155 -98 -354 -290 -354c-106 0 -170 57 -165 164h35c-4 -82 46 -133 134 -133c172 0 231 205 251 323c-42 -79 -126 -131 -209 -131c-124 0 -195 92 -173 213c22 122 125 211 247 211c170 0 198 -137 170 -293zM444 425c19 104 -48 180 -145 180
c-101 0 -189 -80 -207 -180c-17 -97 41 -184 142 -184c104 0 192 83 210 184z" />
    <glyph glyph-name="colon" unicode=":" horiz-adv-x="255" 
d="M163 385h-46l16 88h46zM95 0h-46l15 88h46z" />
    <glyph glyph-name="semicolon" unicode=";" horiz-adv-x="255" 
d="M163 385h-46l16 88h46zM110 88l-15 -88c-8 -49 -32 -99 -80 -116l6 31c29 11 42 60 46 85h-24l16 88h51z" />
    <glyph glyph-name="less" unicode="&#x3c;" horiz-adv-x="505" 
d="M412 -7l-390 216l10 49l465 215l-7 -38l-431 -201l359 -203z" />
    <glyph glyph-name="equal" unicode="=" horiz-adv-x="505" 
d="M460 304h-421l7 36h421zM430 126h-422l6 34h421z" />
    <glyph glyph-name="greater" unicode="&#x3e;" horiz-adv-x="505" 
d="M449 208l-464 -215l7 38l431 201l-360 203l7 38l388 -218z" />
    <glyph glyph-name="question" unicode="?" horiz-adv-x="478" 
d="M456 499c-28 -160 -198 -152 -224 -302l-7 -38h-35l7 35c36 181 196 163 221 305c17 92 -41 137 -121 137c-110 0 -183 -75 -199 -183h-35c19 129 107 219 241 219c99 0 173 -55 152 -173zM204 0h-48l16 88h47z" />
    <glyph glyph-name="at" unicode="@" horiz-adv-x="737" 
d="M707 386c-25 -142 -155 -262 -245 -262c-49 0 -67 31 -53 73c-34 -40 -86 -76 -139 -76c-74 0 -114 65 -100 138c24 129 138 275 265 275c60 0 88 -40 88 -83h3l32 65h38l-136 -273c-26 -52 -29 -87 6 -87c78 0 187 116 208 233c28 155 -96 253 -233 253
c-169 0 -332 -145 -363 -317c-36 -206 101 -310 255 -310c101 0 207 55 278 140h40c-76 -105 -205 -170 -323 -170c-197 0 -322 129 -285 340c34 193 218 347 402 347c174 0 292 -118 262 -286zM490 395c8 35 12 109 -66 109c-103 0 -202 -143 -219 -240
c-12 -67 21 -112 75 -112c35 0 82 30 119 73c43 50 81 125 91 170z" />
    <glyph glyph-name="A" unicode="A" horiz-adv-x="537" 
d="M492 0h-43l-43 211h-310l-120 -211h-43l375 657h45zM399 246l-74 372h-3l-208 -372h285z" />
    <glyph glyph-name="B" unicode="B" horiz-adv-x="572" 
d="M519 184c-21 -120 -123 -184 -258 -184h-260l116 657h260c154 0 189 -85 174 -170c-12 -71 -70 -131 -144 -141l-1 -3c18 3 137 -26 113 -159zM512 494c17 95 -54 128 -141 128h-219l-47 -263h219c107 0 174 55 188 135zM480 184c20 113 -77 140 -162 140h-219l-52 -289
h219c113 0 197 51 214 149z" />
    <glyph glyph-name="C" unicode="C" horiz-adv-x="639" 
d="M561 255h39c-39 -157 -175 -270 -318 -270c-194 0 -280 152 -246 344c35 193 175 343 367 343c230 0 223 -202 223 -210h-39c2 110 -81 176 -189 176c-169 0 -293 -141 -323 -309c-30 -169 44 -309 212 -309c127 0 247 114 274 235z" />
    <glyph glyph-name="D" unicode="D" horiz-adv-x="604" 
d="M572 329c-33 -185 -152 -329 -360 -329h-211l116 657h212c232 0 273 -160 243 -328zM531 329c48 269 -119 293 -217 293h-162l-105 -587h165c133 0 279 67 319 294z" />
    <glyph glyph-name="E" unicode="E" horiz-adv-x="508" 
d="M442 0h-441l116 657h435l-5 -35h-395l-47 -263h373l-5 -35h-374l-52 -289h401z" />
    <glyph glyph-name="F" unicode="F" horiz-adv-x="466" 
d="M518 622h-366l-47 -263h333l-6 -35h-333l-57 -324h-41l116 657h406z" />
    <glyph glyph-name="G" unicode="G" horiz-adv-x="672" 
d="M564 0h-34l22 130h-2c-46 -84 -150 -145 -271 -145c-195 0 -278 152 -244 340c33 186 171 347 367 347c135 0 236 -81 230 -219h-38c-1 111 -79 185 -198 185c-174 0 -293 -150 -322 -313c-29 -167 35 -305 212 -305c156 0 272 106 294 267h-240l7 35h274z" />
    <glyph glyph-name="H" unicode="H" horiz-adv-x="610" 
d="M498 0h-40l57 324h-416l-57 -324h-41l116 657h41l-53 -298h415l53 298h41z" />
    <glyph glyph-name="I" unicode="I" horiz-adv-x="153" 
d="M42 0h-41l116 657h41z" />
    <glyph glyph-name="J" unicode="J" horiz-adv-x="435" 
d="M439 657l-79 -452c-14 -78 -36 -220 -216 -220c-176 0 -162 125 -145 224h39c-17 -102 -24 -189 106 -189c149 0 163 113 177 192l78 445h40z" />
    <glyph glyph-name="K" unicode="K" horiz-adv-x="552" 
d="M515 0h-52l-227 357l-154 -128l-40 -229h-41l116 657h41l-67 -378l468 378h53l-344 -275z" />
    <glyph glyph-name="L" unicode="L" horiz-adv-x="456" 
d="M412 0h-411l116 657h41l-111 -622h370z" />
    <glyph glyph-name="M" unicode="M" horiz-adv-x="734" 
d="M621 0h-41l108 608h-2l-354 -608h-40l-141 608h-2l-107 -608h-41l116 657h57l144 -615h3l358 615h58z" />
    <glyph glyph-name="N" unicode="N" horiz-adv-x="614" 
d="M502 0h-47l-304 605h-2l-107 -605h-41l116 657h50l303 -600h2l106 600h40z" />
    <glyph glyph-name="O" unicode="O" horiz-adv-x="675" 
d="M650 329c-34 -192 -178 -344 -371 -344c-194 0 -282 152 -248 344c34 193 175 343 369 343c193 0 284 -150 250 -343zM610 329c30 168 -46 309 -215 309c-170 0 -295 -141 -325 -309c-30 -169 44 -309 215 -309c168 0 295 140 325 309z" />
    <glyph glyph-name="P" unicode="P" horiz-adv-x="536" 
d="M547 470c-20 -113 -103 -183 -230 -183h-225l-50 -287h-41l116 657h267c90 0 191 -33 163 -187zM509 472c11 61 3 150 -134 150h-223l-53 -300h220c122 0 177 77 190 150z" />
    <glyph glyph-name="Q" unicode="Q" horiz-adv-x="675" 
d="M593 -6l-25 -27l-94 78c-54 -39 -121 -60 -195 -60c-194 0 -282 152 -248 344c34 193 175 343 369 343c193 0 284 -150 250 -343c-19 -107 -71 -201 -144 -261zM610 329c29 168 -46 309 -215 309c-170 0 -295 -141 -325 -309c-30 -169 44 -309 215 -309
c60 0 115 16 163 48l-85 71l25 28l89 -76c70 57 116 143 133 238z" />
    <glyph glyph-name="R" unicode="R" horiz-adv-x="572" 
d="M485 0h-43c-17 45 10 120 14 184c3 64 -18 115 -132 115h-229l-53 -299h-41l116 657h269c151 0 195 -67 176 -169c-16 -89 -71 -155 -160 -170v-1c81 -11 98 -71 92 -140c-5 -68 -29 -142 -9 -177zM522 485c18 100 -38 137 -155 137h-215l-52 -287h229
c95 0 175 44 193 150z" />
    <glyph glyph-name="S" unicode="S" horiz-adv-x="572" 
d="M509 169c-24 -136 -154 -184 -259 -184c-152 0 -264 62 -230 233h39c-34 -144 68 -198 196 -198c78 0 195 36 215 149c19 111 -88 132 -194 155c-104 22 -212 48 -190 174c23 126 146 174 249 174c137 0 231 -55 212 -199h-39c15 110 -57 165 -179 165
c-72 0 -183 -31 -202 -140c-18 -106 86 -122 194 -146c107 -23 212 -52 188 -183z" />
    <glyph glyph-name="T" unicode="T" horiz-adv-x="469" 
d="M536 622h-229l-110 -622h-39l110 622h-226l5 35h494z" />
    <glyph glyph-name="U" unicode="U" horiz-adv-x="610" 
d="M612 657l-69 -393c-28 -157 -102 -279 -297 -279c-236 0 -214 191 -199 279l70 393h41l-70 -393c-14 -80 -28 -244 163 -244c149 0 225 94 251 244l70 393h40z" />
    <glyph glyph-name="V" unicode="V" horiz-adv-x="504" 
d="M576 657l-357 -657h-46l-126 657h39l116 -619h2l333 619h39z" />
    <glyph glyph-name="W" unicode="W" horiz-adv-x="806" 
d="M877 657l-308 -657h-44l-69 621h-1l-285 -621h-44l-77 657h42l65 -612h2l280 612h49l67 -612h1l281 612h41z" />
    <glyph glyph-name="X" unicode="X" horiz-adv-x="504" 
d="M463 0h-45l-167 310l-278 -310h-44l304 338l-173 319h45l157 -289l257 289h45l-284 -319z" />
    <glyph glyph-name="Y" unicode="Y" horiz-adv-x="520" 
d="M600 657l-329 -385l-48 -272h-40l47 272l-190 385h46l171 -353l298 353h45z" />
    <glyph glyph-name="Z" unicode="Z" horiz-adv-x="488" 
d="M434 0h-491l5 35l543 587h-414l5 35h459l-5 -35l-543 -587h446z" />
    <glyph glyph-name="bracketleft" unicode="[" horiz-adv-x="219" 
d="M128 -141h-127l150 841h127l-6 -29h-92l-138 -783h92z" />
    <glyph glyph-name="backslash" unicode="\" horiz-adv-x="303" 
d="M257 -15h-37l-171 687h36z" />
    <glyph glyph-name="bracketright" unicode="]" horiz-adv-x="219" 
d="M56 -141h-127l5 29h93l138 783h-92l5 29h127z" />
    <glyph glyph-name="asciicircum" unicode="^" horiz-adv-x="544" 
d="M491 218h-39l-128 387l-265 -387h-39l284 417h49z" />
    <glyph glyph-name="underscore" unicode="_" horiz-adv-x="460" 
d="M385 -103h-461l8 35h460z" />
    <glyph glyph-name="grave" unicode="`" horiz-adv-x="151" 
d="M172 544h-37l-100 128h50z" />
    <glyph glyph-name="a" unicode="a" horiz-adv-x="453" 
d="M400 33l-4 -29c-8 -3 -18 -4 -29 -4c-52 0 -57 33 -51 68l3 17h-1c-31 -52 -99 -96 -190 -96c-88 0 -149 38 -132 134c19 110 117 133 195 139c156 12 163 25 177 99c6 34 -5 92 -114 92c-82 0 -148 -41 -165 -125h-35c20 103 97 156 205 156c84 0 160 -32 143 -127
l-48 -269c-5 -28 -9 -57 21 -57c9 0 19 1 25 2zM336 180l16 89c-34 -32 -106 -29 -176 -37c-83 -10 -134 -38 -147 -109c-11 -57 23 -103 104 -103c156 0 199 136 203 160z" />
    <glyph glyph-name="b" unicode="b" horiz-adv-x="504" 
d="M462 248c-39 -226 -183 -259 -247 -259c-123 0 -154 88 -158 113h-1l-18 -102h-35l116 657h34l-48 -280h1c40 74 120 107 195 107c138 0 184 -105 161 -236zM427 248c18 105 -20 205 -131 205c-122 0 -194 -86 -214 -205c-20 -117 10 -228 137 -228
c123 0 189 119 208 228z" />
    <glyph glyph-name="c" unicode="c" horiz-adv-x="472" 
d="M381 166h33c-30 -114 -124 -177 -224 -177c-152 0 -195 121 -172 252s117 243 255 243c102 0 176 -49 165 -158h-33c8 84 -52 127 -137 127c-117 0 -197 -104 -216 -212c-23 -128 22 -221 142 -221c86 0 162 60 187 146z" />
    <glyph glyph-name="d" unicode="d" horiz-adv-x="504" 
d="M389 0h-33l16 98h-1c-50 -76 -112 -109 -197 -109c-143 0 -182 117 -159 247c24 139 111 248 250 248c78 0 144 -39 155 -113h1l51 286h33zM396 236c20 110 -17 217 -137 217c-122 0 -190 -103 -210 -217c-19 -112 17 -216 135 -216c119 0 193 107 212 216z" />
    <glyph glyph-name="e" unicode="e" horiz-adv-x="474" 
d="M428 232h-379c-21 -112 21 -212 135 -212c88 0 162 51 193 140h35c-38 -110 -122 -171 -232 -171c-135 0 -188 108 -165 240c23 130 111 255 251 255c147 0 192 -117 162 -252zM56 262h343c13 105 -31 191 -138 191c-105 0 -181 -96 -205 -191z" />
    <glyph glyph-name="f" unicode="f" horiz-adv-x="226" 
d="M301 660l-4 -31c-14 3 -33 6 -56 6c-37 0 -69 -14 -78 -67l-17 -95h97l-6 -31h-96l-78 -442h-35l78 442h-84l6 31h84l17 98c13 73 62 94 118 94c24 0 42 -3 54 -5z" />
    <glyph glyph-name="g" unicode="g" horiz-adv-x="487" 
d="M463 473l-81 -453c-12 -66 -51 -200 -236 -200c-99 0 -171 40 -156 147h35c-10 -86 48 -118 128 -118c164 0 190 136 196 168l18 103h-2c-43 -66 -107 -102 -188 -102c-135 0 -181 102 -157 233c22 126 110 233 239 233c74 0 140 -36 153 -105h1l17 94h33zM391 251
c19 106 -23 202 -137 202c-112 0 -184 -101 -201 -202c-20 -112 21 -204 130 -204c114 0 189 98 208 204z" />
    <glyph glyph-name="h" unicode="h" horiz-adv-x="474" 
d="M367 0h-35l53 299c8 48 21 154 -107 154c-105 0 -183 -81 -204 -198l-45 -255h-35l116 657h35l-49 -280h2c36 69 114 107 187 107c163 0 143 -134 133 -191z" />
    <glyph glyph-name="i" unicode="i" horiz-adv-x="152" 
d="M137 558h-35l17 95h34zM38 0h-35l83 473h35z" />
    <glyph glyph-name="j" unicode="j" horiz-adv-x="152" 
d="M137 558h-35l17 95h34zM121 473l-92 -523c-11 -64 -31 -119 -111 -119h-34l6 31h17c50 0 74 18 87 91l92 520h35z" />
    <glyph glyph-name="k" unicode="k" horiz-adv-x="420" 
d="M382 0h-43l-153 269l-125 -96l-30 -173h-35l116 657h34l-76 -438l333 254h49l-236 -181z" />
    <glyph glyph-name="l" unicode="l" horiz-adv-x="153" 
d="M39 0h-36l116 657h36z" />
    <glyph glyph-name="m" unicode="m" horiz-adv-x="721" 
d="M615 0h-35l58 324c22 121 -63 129 -91 129c-84 0 -156 -62 -176 -173l-49 -280h-35l58 324c21 118 -58 129 -88 129c-66 0 -155 -51 -177 -173l-49 -280h-35l84 473h34l-16 -95v0c25 60 95 106 164 106c90 0 120 -52 122 -100h1c35 62 92 100 166 100
c85 0 141 -49 121 -160z" />
    <glyph glyph-name="n" unicode="n" horiz-adv-x="472" 
d="M364 0h-35l53 299c9 48 23 154 -106 154c-104 0 -181 -81 -202 -198l-45 -255h-35l84 473h35l-18 -98v0c35 71 109 109 184 109c142 0 155 -86 139 -178z" />
    <glyph glyph-name="o" unicode="o" horiz-adv-x="490" 
d="M446 237c-24 -135 -121 -248 -259 -248c-137 0 -196 113 -172 248c23 134 122 247 258 247c139 0 197 -113 173 -247zM412 237c19 113 -27 216 -144 216c-116 0 -200 -103 -219 -216c-20 -114 26 -217 142 -217c117 0 201 103 221 217z" />
    <glyph glyph-name="p" unicode="p" horiz-adv-x="504" 
d="M460 236c-25 -144 -110 -247 -252 -247c-77 0 -138 31 -152 107h-2l-46 -265h-35l113 642h35l-19 -106h1c23 51 88 117 191 117c144 0 190 -114 166 -248zM425 236c19 107 -11 217 -136 217c-126 0 -189 -106 -208 -217c-20 -113 0 -216 131 -216c121 0 193 99 213 216z
" />
    <glyph glyph-name="q" unicode="q" horiz-adv-x="504" 
d="M360 -169h-34l48 272h-2c-39 -72 -113 -114 -193 -114c-140 0 -189 109 -164 248c24 131 104 247 244 247c84 0 137 -35 161 -109h1l18 98h34zM396 237c19 109 -17 216 -135 216c-119 0 -193 -104 -212 -216c-20 -114 11 -217 134 -217c120 0 194 107 213 217z" />
    <glyph glyph-name="r" unicode="r" horiz-adv-x="252" 
d="M297 476l-5 -35c-118 8 -200 -87 -217 -183l-46 -258h-35l84 473h35l-18 -105h1c34 66 120 115 201 108z" />
    <glyph glyph-name="s" unicode="s" horiz-adv-x="435" 
d="M370 120c-18 -102 -123 -131 -205 -131c-106 0 -176 56 -159 166h33c-12 -88 45 -135 130 -135c60 0 152 20 166 100c14 79 -63 92 -141 109c-77 17 -154 37 -137 132c16 91 109 123 189 123c96 0 164 -41 147 -148h-34c12 85 -35 117 -118 117c-64 0 -137 -23 -149 -90
c-13 -76 63 -90 137 -105c88 -18 159 -39 141 -138z" />
    <glyph glyph-name="t" unicode="t" horiz-adv-x="240" 
d="M177 31l-5 -31c-73 -8 -142 4 -122 113l59 329h-87l6 31h86l25 148h35l-25 -148h105l-6 -31h-104l-59 -329c-14 -78 25 -88 92 -82z" />
    <glyph glyph-name="u" unicode="u" horiz-adv-x="472" 
d="M364 0h-35l16 89h-2c-37 -60 -93 -100 -183 -100c-167 0 -143 134 -133 191l51 293h35l-53 -299c-8 -48 -24 -154 105 -154c103 0 182 82 203 198l45 255h35z" />
    <glyph glyph-name="v" unicode="v" horiz-adv-x="403" 
d="M432 473l-259 -473h-43l-103 473h39l90 -434h3l234 434h39z" />
    <glyph glyph-name="w" unicode="w" horiz-adv-x="639" 
d="M668 473l-231 -473h-45l-52 432h-1l-205 -432h-45l-62 473h37l53 -433h3l204 433h46l51 -433h2l206 433h39z" />
    <glyph glyph-name="x" unicode="x" horiz-adv-x="403" 
d="M353 0h-43l-124 222l-204 -222h-43l227 248l-131 225h45l115 -200l182 200h44l-209 -225z" />
    <glyph glyph-name="y" unicode="y" horiz-adv-x="403" 
d="M437 473l-293 -523c-49 -88 -69 -129 -184 -119l4 29c90 -4 104 13 150 97l23 42l-115 474h39l99 -431l238 431h39z" />
    <glyph glyph-name="z" unicode="z" horiz-adv-x="386" 
d="M324 0h-371l5 33l389 409h-293l6 31h332l-6 -34l-389 -408h332z" />
    <glyph glyph-name="braceleft" unicode="{" horiz-adv-x="303" 
d="M187 -141h-48c-53 0 -76 24 -61 108l25 146c13 74 16 146 -37 149l7 35c53 2 76 74 89 149l26 147c15 84 51 107 101 107h47l-5 -29h-45c-38 0 -53 -25 -66 -95l-26 -145c-21 -123 -75 -142 -88 -149c10 -11 57 -31 35 -154l-25 -146c-12 -70 -9 -94 32 -94h45z" />
    <glyph glyph-name="bar" unicode="|" horiz-adv-x="202" 
d="M119 -15h-35v687h35v-687z" />
    <glyph glyph-name="braceright" unicode="}" horiz-adv-x="303" 
d="M225 297l-7 -35c-53 -3 -78 -75 -91 -149l-25 -146c-14 -84 -48 -108 -101 -108h-47l6 29h44c41 0 54 24 66 94l25 146c22 123 75 143 91 154c-13 7 -59 26 -38 149l26 145c13 70 6 95 -32 95h-44l5 29h48c50 0 76 -23 61 -107l-26 -147c-13 -75 -14 -147 39 -149z" />
    <glyph glyph-name="asciitilde" unicode="~" horiz-adv-x="544" 
d="M448 287l21 -26c-31 -38 -71 -78 -123 -78c-75 0 -106 63 -176 63c-53 0 -84 -40 -103 -69l-24 22c28 42 71 81 127 81c89 0 115 -62 183 -62c36 0 75 40 95 69z" />
    <glyph glyph-name="quotedbl" unicode="&#x22;" horiz-adv-x="290" 
d="M241 446h-37l37 211h38zM131 446h-38l38 211h38z" />
    <glyph glyph-name="exclam" unicode="!" horiz-adv-x="239" 
d="M162 427l-57 -258h-23l35 258l41 230h44zM86 0h-46l17 95h46z" />
    <glyph glyph-name="guillemotleft" unicode="&#xab;" horiz-adv-x="353" 
d="M247 112l-85 120l7 37l127 120l-9 -49l-94 -90l62 -91zM130 112l-85 120l7 37l127 120l-9 -49l-95 -90l63 -91z" />
    <glyph glyph-name="logicalnot" unicode="&#xac;" horiz-adv-x="505" 
d="M420 81v121h-391v62h447v-183h-56z" />
    <glyph glyph-name="registered" unicode="&#xae;" horiz-adv-x="737" 
d="M716 329c-34 -191 -215 -344 -406 -344s-317 153 -283 344c34 190 213 343 404 343s319 -153 285 -343zM681 329c31 176 -78 314 -254 314c-179 0 -335 -137 -366 -314c-30 -174 80 -314 256 -314c175 0 334 141 364 314zM512 126h-39l-91 186h-106l-32 -186h-35l71 405
h154c92 0 125 -37 113 -111c-11 -67 -64 -99 -124 -108zM512 421c11 62 -40 81 -89 81h-113l-28 -159h86c63 0 131 7 144 78z" />
    <glyph glyph-name="degree" unicode="&#xb0;" horiz-adv-x="368" 
d="M181 624c78 0 140 -62 140 -139c0 -76 -62 -138 -140 -138c-74 0 -136 60 -136 138c0 74 60 139 136 139zM82 485c0 -55 44 -99 99 -99s100 44 100 99s-45 100 -100 100s-99 -45 -99 -100z" />
    <glyph glyph-name="paragraph" unicode="&#xb6;" horiz-adv-x="495" 
d="M428 -166h-42v923h-99v-923h-37v548c-133 0 -250 45 -250 203c0 142 94 200 233 200h265v-28h-70v-923z" />
    <glyph glyph-name="middot" unicode="&#xb7;" horiz-adv-x="321" 
d="M162 494c39 0 68 -32 68 -67c0 -39 -32 -71 -68 -71c-42 0 -70 29 -70 71c0 38 28 67 70 67z" />
    <glyph glyph-name="middot" unicode="&#x2219;" horiz-adv-x="321" 
d="M162 494c39 0 68 -32 68 -67c0 -39 -32 -71 -68 -71c-42 0 -70 29 -70 71c0 38 28 67 70 67z" />
    <glyph glyph-name="guillemotright" unicode="&#xbb;" horiz-adv-x="353" 
d="M278 232l-129 -120l9 47l96 91l-64 90l8 49l87 -120zM160 232l-127 -120l9 47l96 91l-64 90l8 49l85 -120z" />
    <glyph glyph-name="multiply" unicode="&#xd7;" horiz-adv-x="505" 
d="M406 56l-28 -25l-146 177l-207 -176l-21 25l207 176l-144 176l29 23l144 -175l209 177l20 -25l-208 -176z" />
    <glyph glyph-name="divide" unicode="&#xf7;" horiz-adv-x="505" 
d="M318 417c-5 -26 -29 -47 -56 -47c-26 0 -43 21 -39 47c5 27 29 48 56 48s44 -21 39 -48zM445 215h-421l7 35h421zM252 47c-4 -26 -29 -47 -55 -47c-27 0 -43 21 -39 47c5 27 29 48 55 48c27 0 44 -21 39 -48z" />
    <glyph glyph-name="uni0E00" unicode="&#xe00;" horiz-adv-x="139" 
 />
    <glyph glyph-name="uni0E01" unicode="&#xe01;" horiz-adv-x="541" 
d="M430 0h-39l65 374c18 103 -50 155 -148 155c-75 0 -143 -30 -191 -84l-78 -445h-39l80 455c64 74 143 113 235 113c113 0 204 -62 183 -182z" />
    <glyph glyph-name="uni0E02" unicode="&#xe02;" horiz-adv-x="492" 
d="M480 559l-67 -375c-22 -122 -114 -194 -226 -194c-120 0 -193 99 -169 229c18 103 85 174 165 234l-46 92l36 21l60 -115c-95 -67 -159 -136 -176 -232c-19 -107 35 -190 137 -190c91 0 165 67 180 155l67 375h39z" />
    <glyph glyph-name="uni0E03" unicode="&#xe03;" horiz-adv-x="499" 
d="M487 558l-67 -374c-21 -119 -114 -194 -226 -194c-120 0 -193 92 -170 223c17 98 85 171 174 221l14 82l-71 -56c-4 9 -31 49 -80 77l25 28c47 -25 67 -57 67 -57l66 50h40l-26 -144c-78 -36 -153 -106 -170 -201c-20 -108 36 -184 138 -184c91 0 164 66 180 155l67 374
h39z" />
    <glyph glyph-name="uni0E04" unicode="&#xe04;" horiz-adv-x="541" 
d="M430 0h-39l67 384c16 90 -58 145 -150 145s-186 -55 -202 -145l-14 -81h176l-7 -39h-176l-46 -264h-39l67 384c19 110 137 184 248 184c112 0 201 -74 182 -184z" />
    <glyph glyph-name="uni0E05" unicode="&#xe05;" horiz-adv-x="569" 
d="M458 0h-40l70 393c12 69 -19 132 -76 138l-109 -110l-71 110c-60 -6 -110 -69 -123 -138l-17 -90h190l-7 -39h-190l-46 -264h-39l70 393c16 91 89 173 181 175l61 -91l95 91c92 -2 136 -84 120 -175z" />
    <glyph glyph-name="uni0E06" unicode="&#xe06;" horiz-adv-x="548" 
d="M536 559l-69 -385c-23 -126 -121 -184 -233 -184c-71 0 -148 37 -174 90l-14 -80h-39l61 345c13 71 101 73 111 127l8 47l-77 -52c-4 9 -24 45 -61 73l26 25c31 -25 48 -50 48 -50l70 44h40l-18 -99c-10 -55 -99 -60 -110 -124l-25 -149c-15 -89 69 -158 161 -158
s171 55 187 145l69 385h39z" />
    <glyph glyph-name="uni0E07" unicode="&#xe07;" horiz-adv-x="513" 
d="M472 280c-34 -195 -187 -304 -387 -281l-38 551l42 9l34 -524c156 -8 280 81 309 245c28 159 -43 256 -219 240l7 39c203 17 285 -94 252 -279z" />
    <glyph glyph-name="uni0E08" unicode="&#xe08;" horiz-adv-x="523" 
d="M484 290c-31 -174 -172 -308 -364 -294l-14 301h-56l6 39h88l14 -301c141 -2 261 110 287 255c25 140 -45 239 -174 239c-84 0 -152 -34 -212 -83l-26 26c70 62 150 96 247 96c155 0 232 -116 204 -278z" />
    <glyph glyph-name="uni0E09" unicode="&#xe09;" horiz-adv-x="527" 
d="M430 0h-53l14 80c-42 -47 -119 -90 -205 -90c-111 0 -175 74 -155 184l18 101h-42l7 39h81l-25 -140c-16 -90 42 -145 129 -145c88 0 195 67 211 158l34 197c16 90 -59 145 -150 145c-76 0 -171 -41 -205 -109h-39c35 89 151 148 251 148c112 0 201 -74 182 -184
l-63 -357z" />
    <glyph glyph-name="uni0E0A" unicode="&#xe0a;" horiz-adv-x="498" 
d="M446 219c-23 -128 -121 -227 -286 -227c-90 0 -147 23 -157 28l96 539h39l-91 -509s46 -22 122 -21c130 3 217 76 238 190c20 114 -43 190 -152 215l157 131l26 -22l-116 -97c92 -40 144 -110 124 -227z" />
    <glyph glyph-name="uni0E0B" unicode="&#xe0b;" horiz-adv-x="512" 
d="M460 219c-23 -128 -123 -227 -286 -227c-90 0 -147 23 -157 28l57 320c13 72 89 81 98 132l8 47l-77 -52c-4 9 -23 45 -61 73l26 25c31 -25 48 -50 48 -50l70 44h40l-17 -94c-10 -53 -86 -70 -97 -134l-51 -281s46 -22 122 -21c129 3 217 76 238 190
c20 114 -43 190 -152 215l157 131l26 -22l-116 -97c92 -40 144 -110 124 -227z" />
    <glyph glyph-name="uni0E0C" unicode="&#xe0c;" horiz-adv-x="904" 
d="M891 558l-68 -384c-22 -124 -110 -184 -219 -184c-71 0 -134 38 -160 90l-14 -80h-39l65 374c18 103 -50 155 -148 155c-75 0 -143 -30 -191 -84l-71 -406h98l-7 -39h-137l80 455c64 74 143 113 235 113c113 0 204 -62 183 -182l-35 -199c-16 -91 62 -158 148 -158
c89 0 157 55 173 145l68 384h39z" />
    <glyph glyph-name="uni0E0D" unicode="&#xe0d;" horiz-adv-x="904" 
d="M891 558l-93 -526c-19 -112 -129 -184 -242 -184c-76 0 -142 26 -176 78l32 25c35 -43 85 -68 148 -68c92 0 183 58 199 149l6 32c-40 -40 -113 -74 -178 -74c-114 0 -187 60 -168 169l38 215c18 103 -51 157 -148 157c-76 0 -143 -32 -191 -86l-71 -406h98l-7 -39h-137
l80 455c63 74 143 113 235 113c113 0 203 -64 182 -184l-40 -225c-16 -89 50 -132 136 -132c90 0 175 59 191 149l67 382h39z" />
    <glyph glyph-name="uni0E0E" unicode="&#xe0e;" horiz-adv-x="548" 
d="M400 -209h-39l-110 97l-144 -97h-192l5 39h187l151 99l110 -95l95 541c18 102 -50 154 -148 154c-75 0 -143 -30 -191 -84l-78 -445h-102l7 39h63l72 416c65 74 144 113 236 113c113 0 204 -62 183 -180z" />
    <glyph glyph-name="uni0E0F" unicode="&#xe0f;" horiz-adv-x="548" 
d="M399 -211h-39l-70 84l-92 -89l-61 89l-101 -84h-136l7 39h128l110 92l61 -89l93 89l71 -80l93 534c18 103 -50 155 -148 155c-75 0 -143 -30 -191 -84l-78 -445h-102l7 39h63l72 416c65 74 144 113 236 113c113 0 204 -62 183 -182z" />
    <glyph glyph-name="uni0E10" unicode="&#xe10;" horiz-adv-x="523" 
d="M484 290c-29 -173 -172 -310 -364 -294l-14 310h-54l5 32h88l13 -303c141 -2 261 110 287 255c25 140 -45 240 -174 240c-84 0 -152 -35 -212 -84l-26 26c70 64 150 97 247 97c51 0 94 -11 125 -33l63 64l29 -22l-63 -65c47 -51 66 -129 50 -223zM396 -211h-39l-70 84
l-92 -89l-61 89l-101 -84h-122l7 39h114l110 92l62 -89l92 89l71 -80l15 87l-14 33h59z" />
    <glyph glyph-name="uni0E11" unicode="&#xe11;" horiz-adv-x="548" 
d="M437 0h-39l72 409c10 60 -22 111 -64 111l-359 -520h-40l61 345c13 71 98 73 109 125l10 49l-77 -52c-4 9 -24 45 -61 73l26 25c31 -25 48 -50 48 -50l70 44h40l-18 -99c-10 -55 -98 -60 -110 -124l-45 -254l333 477c88 0 130 -64 115 -152z" />
    <glyph glyph-name="uni0E12" unicode="&#xe12;" horiz-adv-x="935" 
d="M922 558l-68 -384c-22 -123 -110 -184 -219 -184c-71 0 -134 38 -161 90l-14 -80h-39l69 391c12 68 -14 129 -67 138l-106 -108l-73 108c-51 -18 -155 -123 -178 -260c-21 -121 4 -237 111 -237c36 0 66 20 85 42l28 -22c-28 -31 -72 -59 -120 -59
c-128 0 -172 113 -143 276c27 152 140 283 235 299l64 -91l91 88c88 -1 128 -80 112 -174l-35 -204c-16 -91 61 -158 148 -158c89 0 157 55 173 145l68 384h39z" />
    <glyph glyph-name="uni0E13" unicode="&#xe13;" horiz-adv-x="904" 
d="M792 0h-39l14 80c-43 -52 -120 -90 -191 -90c-109 0 -174 74 -155 184l35 200c18 103 -50 155 -148 155c-75 0 -143 -30 -191 -84l-71 -406h98l-7 -39h-137l80 455c64 74 143 113 235 113c113 0 204 -62 183 -182l-38 -212c-16 -90 34 -145 123 -145c87 0 188 67 204 158
l65 371h39z" />
    <glyph glyph-name="uni0E14" unicode="&#xe14;" horiz-adv-x="551" 
d="M439 0h-39l66 371c16 91 -43 158 -140 158c-128 0 -236 -129 -262 -265c-23 -125 6 -232 113 -232c36 0 66 20 85 42l28 -22c-28 -31 -72 -59 -120 -59c-131 0 -175 113 -145 271c30 160 161 304 308 304c122 0 192 -83 172 -194z" />
    <glyph glyph-name="uni0E15" unicode="&#xe15;" horiz-adv-x="572" 
d="M460 0h-39l69 391c12 68 -14 129 -67 138l-106 -108l-73 108c-51 -18 -152 -123 -178 -260c-23 -125 2 -237 111 -237c36 0 66 20 85 42l28 -22c-28 -31 -72 -59 -120 -59c-128 0 -173 112 -143 276c28 152 140 283 235 299l64 -91l91 88c88 -1 128 -80 112 -174z" />
    <glyph glyph-name="uni0E16" unicode="&#xe16;" horiz-adv-x="541" 
d="M430 0h-39l65 374c18 103 -50 155 -148 155c-75 0 -143 -30 -191 -84l-71 -406h98l-7 -39h-137l80 455c64 74 143 113 235 113c113 0 204 -62 183 -182z" />
    <glyph glyph-name="uni0E17" unicode="&#xe17;" horiz-adv-x="541" 
d="M430 0h-39l65 370c17 96 -36 159 -131 159c-91 0 -204 -67 -220 -158l-66 -371h-39l99 558h39l-14 -78c45 53 135 88 208 88c110 0 186 -71 165 -187z" />
    <glyph glyph-name="uni0E18" unicode="&#xe18;" horiz-adv-x="497" 
d="M437 169c-21 -122 -138 -177 -271 -177c-89 0 -159 23 -170 28l47 265l42 14l-43 -246s51 -24 131 -24c98 0 206 42 223 140c17 93 -67 134 -148 148c-99 18 -203 29 -188 117c14 82 128 132 225 132c100 0 185 -47 195 -146h-43c-13 72 -85 107 -165 107
c-86 0 -159 -44 -167 -88c-12 -64 82 -72 159 -85c97 -16 195 -61 173 -185z" />
    <glyph glyph-name="uni0E19" unicode="&#xe19;" horiz-adv-x="541" 
d="M430 0h-39l14 80c-46 -53 -134 -90 -206 -90c-111 0 -188 74 -168 184l68 384h39l-68 -384c-16 -90 44 -145 136 -145c93 0 202 67 218 158l66 371h39z" />
    <glyph glyph-name="uni0E1A" unicode="&#xe1a;" horiz-adv-x="541" 
d="M529 558l-69 -384c-22 -121 -134 -184 -247 -184c-111 0 -202 74 -182 184l68 384h39l-68 -384c-16 -90 58 -145 150 -145s185 55 201 145l69 384h39z" />
    <glyph glyph-name="uni0E1B" unicode="&#xe1b;" horiz-adv-x="541" 
d="M552 697l-92 -523c-21 -121 -135 -184 -247 -184c-111 0 -202 74 -182 184l68 384h39l-68 -384c-16 -90 58 -145 150 -145s185 55 201 145l92 523h39z" />
    <glyph glyph-name="uni0E1C" unicode="&#xe1c;" horiz-adv-x="681" 
d="M716 558l-243 -558h-34l-69 490l-240 -490h-32l-48 558h134l-7 -39h-84l35 -451l237 490h35l67 -490l211 490h38z" />
    <glyph glyph-name="uni0E1D" unicode="&#xe1d;" horiz-adv-x="681" 
d="M776 697l-303 -697h-34l-69 488l-240 -488h-32l-48 558h134l-8 -40h-84l36 -450l237 490h35l67 -490l271 629h38z" />
    <glyph glyph-name="uni0E1E" unicode="&#xe1e;" horiz-adv-x="681" 
d="M716 558l-243 -558h-34l-69 490l-240 -490h-32l-48 558h38l40 -490l237 490h35l67 -490l211 490h38z" />
    <glyph glyph-name="uni0E1F" unicode="&#xe1f;" horiz-adv-x="681" 
d="M776 697l-303 -697h-34l-69 488l-240 -488h-32l-48 558h38l40 -490l237 490h35l67 -490l271 629h38z" />
    <glyph glyph-name="uni0E20" unicode="&#xe20;" horiz-adv-x="548" 
d="M437 0h-39l65 374c18 103 -50 155 -148 155c-75 0 -143 -30 -191 -84l-78 -445h-102l7 39h63l72 416c65 74 144 113 236 113c113 0 204 -62 183 -182z" />
    <glyph glyph-name="uni0E21" unicode="&#xe21;" horiz-adv-x="541" 
d="M529 558l-69 -384c-22 -121 -121 -184 -233 -184c-71 0 -147 37 -174 90l-14 -80h-39l99 558h39l-65 -371c-16 -91 69 -158 161 -158s171 55 187 145l69 384h39z" />
    <glyph glyph-name="uni0E22" unicode="&#xe22;" horiz-adv-x="540" 
d="M527 558l-85 -481s-78 -85 -227 -85c-155 0 -223 78 -205 181c15 85 99 145 148 159c-55 4 -99 46 -88 110c12 70 90 123 176 123c33 0 55 -6 66 -10l-6 -39c-12 4 -34 10 -66 10c-61 0 -118 -29 -128 -84c-11 -63 54 -89 115 -89h51l-7 -39h-38
c-73 0 -166 -55 -181 -140c-16 -85 51 -143 170 -143c111 0 184 64 184 64l82 463h39z" />
    <glyph glyph-name="uni0E23" unicode="&#xe23;" horiz-adv-x="505" 
d="M445 170c-20 -118 -138 -181 -250 -181c-111 0 -205 63 -187 180h39c-15 -95 63 -141 155 -141c90 0 187 46 204 142c15 81 -68 108 -151 123c-96 18 -204 36 -189 125c16 90 122 147 223 147c102 0 189 -47 192 -145h-42c-11 74 -83 106 -157 106
c-73 0 -162 -39 -173 -101c-11 -64 82 -77 162 -93c97 -19 192 -54 174 -162z" />
    <glyph glyph-name="uni0E24" unicode="&#xe24;" horiz-adv-x="541" 
d="M393 -209h-39l102 584c18 102 -50 154 -148 154c-75 0 -143 -30 -191 -84l-71 -406h98l-7 -39h-137l80 455c64 74 143 113 235 113c113 0 204 -62 183 -180z" />
    <glyph glyph-name="uni0E25" unicode="&#xe25;" horiz-adv-x="554" 
d="M442 0h-39l41 226c-19 64 -87 113 -176 113c-122 0 -204 -80 -221 -174c-12 -70 23 -133 90 -133c28 0 49 4 74 18l16 -30c-32 -20 -57 -27 -97 -27c-91 0 -138 82 -122 172c19 110 120 213 267 213c95 0 148 -38 181 -81l14 87c15 90 -63 145 -153 145
c-77 0 -161 -45 -196 -109h-41c40 88 147 148 248 148c111 0 200 -74 181 -184z" />
    <glyph glyph-name="uni0E26" unicode="&#xe26;" horiz-adv-x="548" 
d="M400 -209h-39l102 584c18 102 -50 154 -148 154c-75 0 -143 -30 -191 -84l-78 -445h-102l7 39h63l72 416c65 74 144 113 236 113c113 0 204 -62 183 -180z" />
    <glyph glyph-name="uni0E27" unicode="&#xe27;" horiz-adv-x="502" 
d="M460 279c-27 -153 -129 -289 -279 -289c-93 0 -170 63 -180 154h41c14 -70 74 -115 146 -115c127 0 211 123 233 250c23 127 -18 250 -145 250c-70 0 -148 -45 -185 -115h-42c42 91 141 154 234 154c149 0 204 -136 177 -289z" />
    <glyph glyph-name="uni0E28" unicode="&#xe28;" horiz-adv-x="541" 
d="M430 0h-39l68 385c15 89 -59 145 -151 145s-185 -56 -201 -145l-15 -81h176l-7 -40h-176l-46 -264h-39l68 385c19 109 136 184 247 184c38 0 73 -8 102 -24l55 55l29 -22l-52 -52c38 -34 59 -82 49 -141z" />
    <glyph glyph-name="uni0E29" unicode="&#xe29;" horiz-adv-x="548" 
d="M534 276h-56l-18 -102c-21 -121 -135 -184 -247 -184c-111 0 -202 74 -182 184l68 384h39l-68 -384c-16 -90 58 -145 150 -145s186 55 201 145l18 102h-161l9 59l30 -20h129l44 243h39l-44 -243h56z" />
    <glyph glyph-name="uni0E2A" unicode="&#xe2a;" horiz-adv-x="554" 
d="M442 0h-39l41 226c-19 64 -87 114 -176 114c-122 0 -204 -81 -221 -175c-12 -69 23 -133 90 -133c28 0 49 4 74 18l16 -30c-32 -20 -57 -27 -97 -27c-91 0 -138 82 -122 172c19 110 120 214 267 214c95 0 148 -37 181 -80l16 86c17 89 -65 145 -155 145
c-77 0 -161 -46 -196 -109h-41c40 88 147 148 248 148c37 0 72 -8 103 -24l54 55l28 -22l-51 -52c37 -34 60 -82 49 -141z" />
    <glyph glyph-name="uni0E2B" unicode="&#xe2b;" horiz-adv-x="548" 
d="M444 0h-39l48 275c16 92 -74 149 -168 134l-193 -108l-53 -301h-39l99 558h39l-38 -211l389 215l29 -21l-169 -96c96 -11 160 -74 143 -169z" />
    <glyph glyph-name="uni0E2C" unicode="&#xe2c;" horiz-adv-x="681" 
d="M781 697l-36 -76c-28 -60 -68 -77 -113 -88c36 -28 43 -63 19 -119l-178 -414h-34l-69 488l-240 -488h-32l-48 558h38l40 -490l237 490h35l67 -490l148 344c33 76 -7 114 -67 114h-47l7 32h54c82 0 124 17 149 73l31 66h39z" />
    <glyph glyph-name="uni0E2D" unicode="&#xe2d;" horiz-adv-x="591" 
d="M550 279c-30 -167 -155 -289 -311 -289c-157 0 -240 122 -211 289c4 20 8 35 12 47h176l-7 -39h-140c-30 -147 42 -258 177 -258c131 0 239 105 265 250c25 142 -42 250 -178 250c-93 0 -175 -53 -224 -137h-42c54 106 153 176 273 176c157 0 239 -122 210 -289z" />
    <glyph glyph-name="uni0E2E" unicode="&#xe2e;" horiz-adv-x="591" 
d="M550 279c-30 -166 -155 -289 -311 -289c-157 0 -240 123 -211 289c3 14 9 37 13 49h175l-7 -41h-140c-28 -146 42 -258 177 -258c131 0 239 106 265 250c25 144 -42 251 -178 251c-93 0 -175 -54 -224 -137h-42c54 106 153 176 273 176c44 0 81 -10 113 -26l55 57l26 -20
l-53 -55c62 -51 88 -139 69 -246z" />
    <glyph glyph-name="uni0E2F" unicode="&#xe2f;" horiz-adv-x="536" 
d="M424 0h-39l73 410c-17 -17 -104 -91 -247 -91c-112 0 -166 56 -154 126c13 70 88 120 173 120c34 0 56 -6 67 -10l-7 -39c-11 4 -32 11 -64 11c-61 0 -120 -28 -130 -82c-10 -56 50 -91 123 -91c146 0 227 84 248 113l17 91h39z" />
    <glyph glyph-name="uni0E30" unicode="&#xe30;" horiz-adv-x="172" 
d="M181 413h-129l14 75h39l-7 -37h90zM121 70h-129l12 75h39l-5 -38h90z" />
    <glyph glyph-name="uni0E31" unicode="&#xe31;" 
d="M180 628h-360l15 83h39l-8 -44h321z" />
    <glyph glyph-name="uni0E32" unicode="&#xe32;" horiz-adv-x="378" 
d="M266 0h-39l63 360c19 108 -21 171 -124 171c-45 0 -93 -19 -113 -32l7 41c18 8 66 28 114 28c133 0 177 -90 158 -196z" />
    <glyph glyph-name="uni0E33" unicode="&#xe33;" horiz-adv-x="378" 
d="M56 686c-6 -32 -39 -58 -71 -58s-55 26 -49 58c5 32 37 60 70 60c32 0 55 -28 50 -60zM266 0h-39l63 360c19 109 -21 171 -124 171c-45 0 -93 -19 -113 -32l7 41c18 8 66 28 114 28c133 0 177 -90 158 -196zM27 686c3 18 -9 32 -27 32s-35 -14 -38 -32
c-4 -18 9 -32 27 -32s35 14 38 32z" />
    <glyph glyph-name="uni0E34" unicode="&#xe34;" 
d="M-1 628h-402l7 39h402z" />
    <glyph glyph-name="uni0E35" unicode="&#xe35;" 
d="M-1 628h-402l7 39h363l12 72h39z" />
    <glyph glyph-name="uni0E36" unicode="&#xe36;" 
d="M49 686c-6 -32 -34 -58 -70 -58h-382l7 39h324c0 4 0 11 2 19c6 32 34 60 70 60c31 0 54 -28 49 -60zM20 686c3 17 -9 32 -26 32c-18 0 -33 -15 -36 -32c-3 -16 5 -32 25 -32c19 0 34 16 37 32z" />
    <glyph glyph-name="uni0E37" unicode="&#xe37;" 
d="M-1 628h-402l7 39h279l12 72h39l-12 -72h45l12 72h39z" />
    <glyph glyph-name="uni0E38" unicode="&#xe38;" 
d="M-148 -209h-39l20 114h-56l7 39h95z" />
    <glyph glyph-name="uni0E39" unicode="&#xe39;" 
d="M-121 -56l-13 -74c-9 -53 -64 -83 -114 -83c-35 0 -70 15 -85 46l12 71h-42l7 40h81l-18 -99c11 -18 38 -25 53 -25c29 0 61 21 67 52l13 72h39z" />
    <glyph glyph-name="uni0E3A" unicode="&#xe3a;" 
d="M-112 -93c-4 -21 -23 -38 -44 -38s-35 17 -31 38c3 20 24 37 45 37s34 -17 30 -37z" />
    <glyph glyph-name="uni0E3F" unicode="&#xe3f;" horiz-adv-x="580" 
d="M527 184c-20 -120 -124 -184 -262 -184h-26l-17 -96h-29l16 96h-206l116 657h206l14 75h29l-14 -75h27c157 0 192 -85 178 -170c-12 -71 -75 -134 -153 -143l1 -2c18 2 142 -28 120 -158zM519 494c17 95 -56 128 -144 128h-26l-48 -263h27c110 0 177 55 191 135zM272 359
l47 263h-166l-47 -263h166zM487 184c20 113 -78 140 -165 140h-26l-52 -289h27c115 0 199 51 216 149zM215 35l51 289h-166l-51 -289h166z" />
    <glyph glyph-name="uni0E40" unicode="&#xe40;" horiz-adv-x="179" 
d="M53 0h-39l99 558h39z" />
    <glyph glyph-name="uni0E41" unicode="&#xe41;" horiz-adv-x="304" 
d="M179 0h-40l100 558h39zM53 0h-39l99 558h39z" />
    <glyph glyph-name="uni0E42" unicode="&#xe42;" horiz-adv-x="193" 
d="M339 826h-179c-29 0 -54 -13 -58 -34c-9 -48 97 -41 78 -149l-113 -643h-39l113 644c15 84 -91 77 -78 148c8 48 61 73 113 73h170z" />
    <glyph glyph-name="uni0E43" unicode="&#xe43;" horiz-adv-x="193" 
d="M273 767c-12 -74 -83 -68 -96 -142l-110 -625h-39l111 632c14 79 86 81 95 132c7 42 -22 73 -76 73c-55 0 -101 -35 -109 -77h-39c12 62 79 112 153 112s120 -46 110 -105z" />
    <glyph glyph-name="uni0E44" unicode="&#xe44;" horiz-adv-x="193" 
d="M213 857l53 -83c-34 -26 -76 -75 -85 -127l-114 -647h-39l113 638c11 62 57 110 84 128l-28 40l-80 -58l-102 93l28 27l81 -74z" />
    <glyph glyph-name="uni0E45" unicode="&#xe45;" horiz-adv-x="378" 
d="M230 -209h-39l99 569c19 108 -21 171 -124 171c-45 0 -93 -19 -113 -32l7 41c18 8 66 28 114 28c133 0 176 -90 158 -196z" />
    <glyph glyph-name="uni0E46" unicode="&#xe46;" horiz-adv-x="540" 
d="M392 -209h-39l107 615c13 72 -21 116 -74 125l-106 -94l-74 94c-55 -9 -104 -53 -117 -125l-7 -42h115l-7 -39h-154l14 81c17 96 89 159 177 159l63 -77l88 77c88 0 138 -63 121 -159z" />
    <glyph glyph-name="uni0E47" unicode="&#xe47;" 
d="M20 738h-245c-52 0 -91 -23 -103 -73h62l85 45l62 -45h81l-7 -37h-83l-60 46l-78 -46h-108l7 39c11 58 60 106 148 106h246z" />
    <glyph glyph-name="uni0E48" unicode="&#xe48;" 
d="M27 781h-40l17 98h39z" />
    <glyph glyph-name="uni0E49" unicode="&#xe49;" 
d="M123 781h-205l4 25c3 18 1 30 -21 30h-13l6 37h22c34 0 52 -14 47 -42l-2 -12h167z" />
    <glyph glyph-name="uni0E4A" unicode="&#xe4a;" 
d="M233 781h-126l7 39c5 28 -8 45 -39 45h-5l-60 -46l-45 46h-3c-30 0 -48 -17 -53 -45l-1 -3h53l-6 -36h-89l8 46c9 48 51 76 98 76h4l41 -45l57 45h4c49 0 87 -28 75 -76l-2 -8h88z" />
    <glyph glyph-name="uni0E4B" unicode="&#xe4b;" 
d="M84 827h-49l-8 -46h-40l9 46h-49l4 31h49l8 46h39l-8 -46h49z" />
    <glyph glyph-name="uni0E4C" unicode="&#xe4c;" 
d="M59 777h-39c-30 0 -44 -7 -49 -33l-4 -19h-40l5 24c10 46 41 63 75 63h59z" />
    <glyph glyph-name="uni0E4D" unicode="&#xe4d;" 
d="M50 686c-5 -32 -39 -58 -71 -58s-54 26 -49 58c6 32 38 60 70 60s56 -28 50 -60zM21 686c3 18 -8 32 -27 32c-18 0 -34 -14 -37 -32c-4 -18 8 -32 26 -32s34 14 38 32z" />
    <glyph glyph-name="uni0E4E" unicode="&#xe4e;" 
d="M99 926c-93 11 -207 -18 -218 -76c-8 -40 42 -49 74 -48l-4 -31c-70 2 -177 -25 -187 -79c-7 -41 67 -43 124 -15l10 -27c-86 -40 -183 -26 -171 39c9 53 74 92 142 101v1c-17 7 -30 31 -25 60c14 74 139 120 261 107z" />
    <glyph glyph-name="uni0E4F" unicode="&#xe4f;" horiz-adv-x="670" 
d="M614 279c-28 -158 -179 -286 -336 -286c-158 0 -264 128 -236 286s178 286 336 286s264 -128 236 -286zM572 279c24 134 -67 244 -201 244s-264 -110 -287 -244c-24 -134 67 -244 201 -244c133 0 263 110 287 244zM502 279c-17 -96 -109 -174 -205 -174s-160 78 -144 174
c17 96 109 174 206 174c96 0 160 -78 143 -174z" />
    <glyph glyph-name="uni0E50" unicode="&#xe50;" horiz-adv-x="502" 
d="M448 209c-21 -120 -130 -217 -254 -217c-119 0 -201 97 -179 217s132 218 256 218c118 0 199 -98 177 -218zM410 209c18 101 -47 182 -148 182c-100 0 -194 -81 -212 -182c-17 -100 49 -181 149 -181c101 0 194 81 211 181z" />
    <glyph glyph-name="uni0E51" unicode="&#xe51;" horiz-adv-x="536" 
d="M483 213c-26 -147 -189 -253 -311 -270l-13 35c119 14 262 108 285 235c19 108 -59 178 -168 178c-100 0 -202 -67 -219 -166c-12 -69 28 -133 99 -133c18 0 37 3 45 8c-34 10 -62 38 -52 87c9 49 56 89 105 89s83 -40 74 -89c-13 -73 -95 -131 -182 -131
c-93 0 -144 77 -128 169c21 124 149 202 264 202c130 0 225 -81 201 -214zM293 187c6 31 -14 54 -45 54c-30 0 -58 -23 -64 -54c-5 -31 14 -54 45 -54c30 0 58 23 64 54z" />
    <glyph glyph-name="uni0E52" unicode="&#xe52;" horiz-adv-x="752" 
d="M640 0h-584c12 130 17 230 0 343c-14 94 -52 177 -96 229l34 25c48 -54 90 -148 102 -240c14 -105 11 -198 2 -317h510l46 257c11 61 -26 89 -71 89c-32 0 -70 -15 -100 -54l-41 -226h-39l41 227c-19 38 -55 53 -90 53c-57 0 -114 -41 -125 -101l-4 -23c14 9 34 14 53 14
c48 0 83 -40 74 -89s-58 -89 -106 -89c-49 0 -82 40 -73 89l17 98c14 82 95 140 171 140c52 0 88 -22 109 -53c29 30 73 53 120 53c64 0 118 -46 105 -119zM317 187c5 31 -14 54 -45 54s-59 -23 -64 -54c-6 -31 14 -54 44 -54c31 0 59 23 65 54z" />
    <glyph glyph-name="uni0E53" unicode="&#xe53;" horiz-adv-x="640" 
d="M529 0h-39l53 297c10 59 -34 89 -78 89c-34 0 -79 -16 -108 -54l-58 -332h-40l59 333c-18 38 -57 53 -96 53c-56 0 -122 -41 -133 -101l-22 -127c14 8 35 14 53 14c49 0 82 -41 73 -91c-9 -49 -56 -88 -105 -88s-82 39 -74 88l36 204c14 82 103 140 179 140
c60 0 95 -22 116 -53c29 30 79 53 127 53c64 0 123 -46 110 -121zM158 81c6 32 -14 56 -45 56s-58 -24 -64 -56c-5 -31 14 -54 44 -54c31 0 59 23 65 54z" />
    <glyph glyph-name="uni0E54" unicode="&#xe54;" horiz-adv-x="578" 
d="M579 586h39c-15 -92 -61 -208 -155 -208h-189c-105 0 -205 -74 -221 -183c-16 -111 60 -166 145 -166c67 0 105 24 144 23c-36 18 -69 65 -60 120c9 51 57 93 106 93s83 -40 74 -89c-8 -48 -55 -88 -101 -91c11 -17 46 -25 69 -29c28 -6 64 -11 81 -31l-30 -31
c-36 23 -85 26 -107 26c-56 0 -99 -27 -188 -27c-104 0 -193 64 -172 202c20 129 133 222 261 222h195c64 0 96 103 109 169zM427 176c5 30 -14 54 -45 54c-30 0 -58 -24 -64 -54c-6 -31 14 -56 45 -56c30 0 58 25 64 56z" />
    <glyph glyph-name="uni0E55" unicode="&#xe55;" horiz-adv-x="578" 
d="M579 586h39c-16 -90 -58 -208 -152 -208h-195c-101 0 -202 -74 -218 -183c-16 -111 60 -166 145 -166c67 0 105 24 144 23c-36 18 -69 65 -60 120c9 51 57 93 106 93s83 -40 74 -89c-8 -48 -55 -88 -101 -91c11 -17 46 -25 69 -29c28 -6 64 -11 81 -31l-30 -31
c-36 23 -85 26 -107 26c-56 0 -99 -27 -188 -27c-104 0 -192 64 -172 202c17 120 116 200 219 219c-11 14 -14 37 -10 59c9 52 60 92 110 92c51 0 89 -39 80 -92c-4 -20 -14 -41 -27 -55c26 0 50 -1 82 -1c64 0 98 103 111 169zM375 473c6 32 -15 57 -47 57s-62 -25 -67 -57
c-6 -32 14 -59 46 -59s63 27 68 59zM427 176c5 30 -14 54 -45 54c-30 0 -58 -24 -64 -54c-6 -31 14 -56 45 -56c30 0 58 25 64 56z" />
    <glyph glyph-name="uni0E56" unicode="&#xe56;" horiz-adv-x="541" 
d="M488 212c-23 -130 -142 -222 -279 -222c-125 0 -197 80 -182 165c9 51 57 91 106 91c48 0 82 -41 73 -90c-8 -46 -53 -86 -100 -90c25 -23 66 -37 110 -37c110 0 214 74 233 183c18 103 -57 174 -159 174c-54 0 -123 -19 -185 -71l-38 11c0 94 -27 166 -75 224l33 23
c61 -64 85 -136 87 -205c47 34 115 57 185 57c126 0 214 -86 191 -213zM172 156c6 31 -14 55 -45 55s-58 -24 -64 -55c-5 -30 14 -54 44 -54c31 0 59 24 65 54z" />
    <glyph glyph-name="uni0E57" unicode="&#xe57;" horiz-adv-x="771" 
d="M790 575l26 -23c-33 -22 -71 -67 -81 -121l-53 -305c-16 -95 -96 -134 -194 -132l55 305c10 57 -34 87 -78 87c-34 0 -79 -16 -108 -54l-58 -332h-40l59 333c-18 38 -57 53 -96 53c-56 0 -123 -41 -133 -100l-22 -128c14 8 35 14 53 14c49 0 82 -41 73 -91
c-9 -49 -56 -88 -105 -88s-82 39 -74 88l36 205c14 81 103 139 179 139c60 0 95 -22 116 -53c29 30 79 53 127 53c64 0 124 -46 111 -119l-49 -273c44 0 98 31 108 87l55 317c13 72 67 117 93 138zM158 81c6 32 -14 56 -45 56s-58 -24 -64 -56c-5 -31 14 -54 44 -54
c31 0 59 23 65 54z" />
    <glyph glyph-name="uni0E58" unicode="&#xe58;" horiz-adv-x="596" 
d="M572 573l39 -2c-22 -90 -75 -165 -120 -214c-40 15 -92 28 -167 28c-131 0 -252 -77 -270 -179c-16 -89 38 -150 87 -167l118 116l100 -115c22 10 61 34 71 42c-37 6 -62 41 -55 83c7 43 50 79 94 79c43 0 72 -39 64 -82c-13 -71 -101 -129 -191 -170l-91 101l-105 -101
c-89 25 -151 101 -131 214c22 126 158 218 317 218c50 0 110 -6 152 -21c31 39 71 101 88 170zM499 165c4 25 -12 44 -37 44s-48 -19 -52 -44c-4 -26 11 -46 36 -46c26 0 49 20 53 46z" />
    <glyph glyph-name="uni0E59" unicode="&#xe59;" horiz-adv-x="639" 
d="M658 578h39c-6 -112 -59 -206 -117 -254c-5 48 -30 64 -54 64c-42 0 -77 -45 -85 -82c39 -84 49 -201 42 -303l-39 -6c9 170 -14 391 -187 391c-97 0 -184 -76 -201 -177c-20 -112 36 -184 116 -184c-27 13 -39 43 -34 75c8 50 56 91 105 91s83 -41 74 -91
c-12 -67 -87 -110 -150 -110c-128 0 -170 108 -150 221c21 122 131 214 247 214c69 0 118 -29 153 -78c21 42 67 78 116 78c28 0 52 -10 65 -34c27 41 55 111 60 185zM282 102c5 31 -14 56 -45 56s-58 -25 -64 -56s14 -55 45 -55c30 0 58 24 64 55z" />
    <glyph glyph-name="uni0E5A" unicode="&#xe5a;" horiz-adv-x="644" 
d="M533 0h-39l72 410c-8 -8 -35 -32 -79 -53l-63 -357h-39l73 410c-17 -17 -104 -91 -247 -91c-112 0 -166 56 -154 126c13 70 88 120 173 120c34 0 56 -6 67 -10l-7 -39c-11 4 -32 11 -64 11c-61 0 -120 -28 -130 -82c-10 -56 50 -91 123 -91c146 0 227 84 248 113l17 91
h39l-29 -160c43 25 72 54 82 69l17 91h39z" />
    <glyph glyph-name="uni0E5B" unicode="&#xe5b;" horiz-adv-x="954" 
d="M928 296c-2 -7 -11 -11 -25 -11l-81 -3c-10 -17 -20 -45 -35 -45c-17 0 -23 57 -32 77c-9 -18 -31 -94 -53 -94c-20 0 -25 73 -42 102c-13 -32 -34 -117 -57 -117c-25 0 -20 95 -41 131c-11 -50 -39 -149 -75 -149c-25 0 -17 120 -28 159c-21 -88 -121 -294 -287 -294
c-104 0 -161 93 -136 230c23 130 108 233 201 233c75 0 122 -73 105 -166c-13 -71 -52 -123 -102 -123c-39 0 -64 36 -56 81c7 43 45 82 82 82c17 0 28 -4 37 -12c3 62 -31 100 -71 100c-65 0 -136 -78 -157 -201c-21 -120 30 -188 111 -188c93 0 192 102 242 265
c10 35 16 47 34 47c26 0 40 -86 39 -164c29 64 37 150 65 150c21 0 42 -71 44 -140c14 37 29 114 47 114c24 0 36 -46 50 -109c18 31 28 88 52 88c19 0 25 -45 33 -68c12 25 20 45 41 43l74 -8c11 -2 22 -3 21 -10zM289 308c4 25 -9 45 -28 45c-17 0 -39 -20 -43 -45
c-5 -25 9 -44 26 -44c20 0 41 19 45 44z" />
    <glyph glyph-name="endash" unicode="&#x2013;" horiz-adv-x="505" 
d="M445 215h-421l7 35h421z" />
    <glyph glyph-name="emdash" unicode="&#x2014;" horiz-adv-x="1010" 
d="M950 215h-926l7 35h926z" />
    <glyph glyph-name="quoteleft" unicode="&#x2018;" horiz-adv-x="188" 
d="M187 657l-6 -31c-28 -11 -40 -60 -46 -85h27l-17 -95h-54l16 95c8 49 32 99 80 116z" />
    <glyph glyph-name="quoteright" unicode="&#x2019;" horiz-adv-x="188" 
d="M179 657l-17 -95c-9 -49 -29 -99 -80 -116l6 31c29 11 43 60 47 85h-26l17 95h53z" />
    <glyph glyph-name="quotedblleft" unicode="&#x201c;" horiz-adv-x="290" 
d="M294 657l-5 -31c-30 -11 -42 -60 -48 -85h27l-17 -95h-54l16 95c8 49 33 99 81 116zM177 657l-5 -31c-28 -11 -41 -60 -46 -85h26l-17 -95h-54l17 95c9 49 32 99 79 116z" />
    <glyph glyph-name="quotedblright" unicode="&#x201d;" horiz-adv-x="290" 
d="M292 657l-17 -95c-9 -49 -31 -99 -81 -116l5 31c31 11 44 60 48 85h-27l17 95h55zM174 657l-16 -95c-8 -49 -30 -99 -80 -116l6 31c29 11 43 60 47 85h-26l16 95h53z" />
    <glyph glyph-name="bullet" unicode="&#x2022;" horiz-adv-x="516" 
d="M460 279c-20 -116 -129 -209 -245 -209s-193 93 -173 209c21 116 131 209 247 209s191 -93 171 -209z" />
    <glyph glyph-name="ellipsis" unicode="&#x2026;" horiz-adv-x="766" 
d="M605 0h-46l16 88h46zM350 0h-46l15 88h46zM95 0h-46l15 88h46z" />
    <glyph glyph-name="thothannobasethai" unicode="&#xf700;" horiz-adv-x="523" 
d="M484 290c-29 -173 -174 -309 -364 -294l-14 310h-54l5 32h88l13 -303c141 -2 261 110 287 255c25 140 -45 240 -174 240c-84 0 -152 -35 -212 -84l-26 26c70 64 150 97 247 97c51 0 94 -11 125 -33l63 64l29 -22l-63 -65c47 -51 66 -129 50 -223z" />
    <glyph glyph-name="saraileftthai" unicode="&#xf701;" 
d="M-113 628h-402l7 39h402z" />
    <glyph glyph-name="saraiileftthai" unicode="&#xf702;" 
d="M-113 628h-402l7 39h363l12 72h40z" />
    <glyph glyph-name="saraueleftthai" unicode="&#xf703;" 
d="M-61 686c-6 -32 -34 -58 -70 -58h-382l7 39h324c0 4 0 11 2 19c6 32 34 60 70 60c31 0 54 -28 49 -60zM-90 686c3 17 -9 32 -26 32c-18 0 -33 -15 -36 -32c-3 -16 5 -32 25 -32c19 0 34 16 37 32z" />
    <glyph glyph-name="saraueeleftthai" unicode="&#xf704;" 
d="M-113 628h-402l7 39h279l13 72h39l-13 -72h45l12 72h40z" />
    <glyph glyph-name="maieklowleftthai" unicode="&#xf705;" 
d="M-141 628h-39l22 125h39z" />
    <glyph glyph-name="maitholowleftthai" unicode="&#xf706;" 
d="M54 628h-214l5 26c3 20 0 31 -22 31h-14l7 40h24c34 0 53 -15 48 -44l-2 -13h175z" />
    <glyph glyph-name="maitrilowleftthai" unicode="&#xf707;" 
d="M54 628h-181l7 40c6 31 -7 48 -39 48h-6l-76 -49l-62 49h-4c-32 0 -50 -16 -55 -48l-1 -7h56l-7 -33h-95l10 49c11 53 54 79 105 79h4l57 -47l73 47h5c50 0 88 -30 77 -79l-2 -9h141z" />
    <glyph glyph-name="maichattawalowleftthai" unicode="&#xf708;" 
d="M-86 688h-56l-11 -60h-40l12 60h-56l5 33h56l11 60h39l-11 -60h56z" />
    <glyph glyph-name="thanthakhatlowleftthai" unicode="&#xf709;" 
d="M-73 679h-39c-29 0 -46 -7 -50 -33l-3 -18h-40l4 23c8 46 41 63 77 63h57z" />
    <glyph glyph-name="maieklowrightthai" unicode="&#xf70a;" 
d="M-1 628h-39l22 125h39z" />
    <glyph glyph-name="maitholowrightthai" unicode="&#xf70b;" 
d="M79 628h-214l5 26c3 20 0 31 -22 31h-14l7 40h24c34 0 53 -15 48 -44l-2 -13h175z" />
    <glyph glyph-name="maitrilowrightthai" unicode="&#xf70c;" 
d="M42 628h-131l7 40c6 31 -7 48 -39 48h-6l-76 -49l-62 49h-4c-32 0 -50 -16 -55 -48l-1 -7h56l-7 -33h-95l10 49c11 53 54 79 105 79h4l57 -47l73 47h5c50 0 88 -30 77 -79l-2 -9h91z" />
    <glyph glyph-name="maichattawalowrightthai" unicode="&#xf70d;" 
d="M10 688h-56l-11 -60h-39l11 60h-56l6 33h55l12 60h39l-11 -60h55z" />
    <glyph glyph-name="thanthakhatlowrightthai" unicode="&#xf70e;" 
d="M43 679h-39c-29 0 -46 -7 -50 -33l-3 -18h-40l4 23c8 46 41 63 77 63h57z" />
    <glyph glyph-name="yoyingnobasethai" unicode="&#xf70f;" horiz-adv-x="904" 
d="M891 558l-69 -391c-22 -122 -123 -177 -232 -177s-190 67 -170 177l36 207c18 103 -50 155 -148 155c-75 0 -143 -30 -191 -84l-71 -406h98l-7 -39h-137l80 455c64 74 143 113 235 113c113 0 204 -62 183 -182l-39 -219c-16 -90 47 -138 138 -138s170 48 186 138l69 391
h39z" />
    <glyph glyph-name="maihanakatleftthai" unicode="&#xf710;" 
d="M98 628h-360l15 83h39l-8 -44h321z" />
    <glyph glyph-name="nikhahitleftthai" unicode="&#xf711;" 
d="M-63 686c-5 -32 -39 -58 -71 -58s-54 26 -49 58c6 32 38 60 70 60s56 -28 50 -60zM-92 686c3 18 -8 32 -27 32c-18 0 -34 -14 -37 -32c-4 -18 8 -32 26 -32s34 14 38 32z" />
    <glyph glyph-name="maitaikhuleftthai" unicode="&#xf712;" 
d="M-22 738h-245c-52 0 -91 -23 -103 -73h62l85 45l62 -45h81l-7 -37h-83l-60 46l-78 -46h-108l7 39c11 58 60 106 148 106h246z" />
    <glyph glyph-name="maiekupperleftthai" unicode="&#xf713;" 
d="M-85 781h-39l17 98h39z" />
    <glyph glyph-name="maithoupperleftthai" unicode="&#xf714;" 
d="M39 781h-205l4 25c3 18 2 30 -21 30h-12l5 37h23c33 0 52 -14 47 -42l-2 -12h167z" />
    <glyph glyph-name="maitriupperleftthai" unicode="&#xf715;" 
d="M152 781h-125l6 39c5 28 -8 45 -39 45h-5l-60 -46l-45 46h-3c-30 0 -48 -17 -54 -48h53l-6 -36h-89l9 46c9 48 50 76 97 76h4l41 -45l57 45h4c49 0 86 -29 74 -76l-2 -8h89z" />
    <glyph glyph-name="maichattawaupperleftthai" unicode="&#xf716;" 
d="M-29 827h-49l-8 -46h-40l9 46h-49l4 31h49l8 46h39l-8 -46h49z" />
    <glyph glyph-name="thanthakhatupperleftthai" unicode="&#xf717;" 
d="M-47 777h-39c-29 0 -45 -7 -50 -33l-4 -19h-39l5 24c9 46 40 63 78 63h56z" />
    <glyph glyph-name="saraulowthai" unicode="&#xf718;" 
d="M-183 -405h-39l20 115h-56l7 39h95z" />
    <glyph glyph-name="sarauulowthai" unicode="&#xf719;" 
d="M-156 -251l-13 -74c-9 -50 -57 -84 -114 -84c-35 0 -70 16 -85 46l12 71h-42l7 41h81l-16 -99c9 -18 37 -25 53 -25c29 0 60 21 65 51l13 73h39z" />
    <glyph glyph-name="phinthulowthai" unicode="&#xf71a;" 
d="M-162 -289c-4 -21 -24 -37 -44 -37c-21 0 -35 16 -31 37c3 21 22 38 43 38s35 -17 32 -38z" />
    <glyph glyph-name="minus" unicode="&#xad;" horiz-adv-x="505" 
d="M445 215h-421l7 35h421z" />
    <glyph glyph-name="uni0E33_1" horiz-adv-x="378" 
d="M-63 686c-5 -32 -39 -58 -71 -58s-54 26 -49 58c6 32 38 60 70 60s56 -28 50 -60zM266 0h-39l63 360c18 105 -21 171 -124 171c-45 0 -93 -19 -113 -32l7 41c18 8 66 28 114 28c133 0 177 -90 158 -196zM-92 686c3 18 -8 32 -27 32c-18 0 -34 -14 -37 -32
c-4 -18 8 -32 26 -32s34 14 38 32z" />
    <glyph glyph-name="uni0E4E_1" 
d="M82 958l-5 -32c-94 11 -207 -18 -218 -76c-7 -40 42 -49 74 -48l-4 -31c-70 2 -177 -25 -187 -79c-7 -41 67 -43 124 -15l10 -27c-87 -40 -183 -26 -172 39c10 53 74 92 143 101v1c-17 7 -31 31 -26 60c13 74 140 120 261 107z" />
    <glyph glyph-name="currency" unicode="&#xa4;" horiz-adv-x="572" 
d="M6 112l100 99c-28 37 -43 81 -43 131c0 51 15 95 43 128l-100 102l51 49l99 -99c37 26 80 40 131 40s99 -15 129 -40l102 99l48 -49l-99 -102c27 -36 41 -78 41 -128c0 -52 -14 -95 -41 -131l99 -99l-48 -52l-102 100c-34 -27 -83 -41 -129 -41c-50 0 -93 14 -131 41
l-99 -100zM129 340c0 -87 69 -156 156 -156s157 69 157 156s-70 157 -157 157s-156 -70 -156 -157z" />
    <glyph glyph-name="FL00A9h" unicode="&#xa9;" horiz-adv-x="737" 
d="M716 329c-34 -191 -215 -344 -406 -344s-317 153 -283 344c34 190 213 343 404 343s319 -153 285 -343zM681 329c31 176 -78 314 -254 314c-179 0 -335 -137 -366 -314c-30 -174 80 -314 256 -314c175 0 334 141 364 314zM506 258h35c-28 -89 -110 -148 -199 -148
c-126 0 -191 95 -169 219c22 127 116 216 243 216c89 0 156 -50 150 -142h-35c-1 70 -48 113 -119 113c-109 0 -186 -79 -204 -185c-18 -105 33 -190 139 -190c76 0 130 49 159 117z" />
    <glyph glyph-name="fongmanfunnuthai" unicode="&#xf880;" 
 />
    <glyph glyph-name="lochula.short" unicode="&#xf71d;" 
 />
    <glyph glyph-name="dollar" unicode="$" horiz-adv-x="550" 
d="M485 169c-24 -136 -153 -184 -249 -184l-14 -81h-29l13 82c-128 8 -217 73 -185 232h38c-31 -132 48 -189 154 -197l53 303c-100 22 -202 48 -180 174c21 115 130 173 242 174l11 60h29l-11 -61c112 -10 184 -67 168 -198h-38c12 99 -42 153 -137 163l-49 -283
c104 -23 207 -50 184 -184zM272 360l50 278c-83 0 -179 -42 -196 -140c-17 -93 58 -117 146 -138zM449 169c18 102 -63 128 -155 148l-53 -297c76 0 189 36 208 149z" />
    <glyph glyph-name="zerowidthnonjoiner" unicode="&#x200c;" 
 />
    <glyph glyph-name="zerowidthjoiner" unicode="&#x200d;" 
 />
    <glyph glyph-name="F881" 
 />
    <glyph glyph-name="maiekrochula" 
d="M-53 628h-39l22 125h39z" />
    <glyph glyph-name="maieksarauee_1" 
d="M-15 781h-39l16 98h39z" />
    <glyph glyph-name="maieksarauee_2" 
d="M-127 781h-39l17 98h39z" />
    <glyph glyph-name="saraisp" 
d="M-82 628h-402l7 39h402z" />
    <glyph glyph-name="saraiisp" 
d="M-82 628h-402l7 39h363l12 72h39z" />
    <glyph glyph-name="numbersign" unicode="#" horiz-adv-x="518" 
d="M505 402h-106l-50 -159h103l-6 -31h-107l-67 -212h-31l67 212h-160l-67 -212h-31l67 212h-107l5 31h112l50 159h-109l6 30h113l64 203h31l-64 -203h161l63 203h31l-63 -203h101zM368 402h-160l-50 -159h161z" />
    <glyph glyph-name="onequarter" unicode="&#xbc;" horiz-adv-x="703" 
d="M617 100h-69l-18 -100h-32l18 100h-195l4 28l244 270l31 1l-48 -269h69zM675 671l-608 -685h-34l607 685h35zM177 261h-32l54 311h-99l5 25c81 0 104 15 111 54l2 9h29zM520 130l39 217l-196 -217h157z" />
    <glyph glyph-name="onehalf" unicode="&#xbd;" horiz-adv-x="703" 
d="M605 0h-276c16 88 100 127 183 179c56 35 98 65 107 121c7 40 -18 77 -78 77c-92 0 -120 -77 -123 -118h-32c2 55 42 148 158 148c78 0 121 -44 109 -108c-12 -66 -58 -103 -117 -139c-65 -40 -144 -78 -162 -129h237zM633 671l-608 -685h-33l606 685h35zM163 261h-32
l55 311h-100l5 25c81 0 104 15 111 54l2 9h29z" />
    <glyph glyph-name="threequarters" unicode="&#xbe;" horiz-adv-x="703" 
d="M718 671l-608 -685h-33l607 685h34zM632 100h-68l-19 -100h-32l18 100h-195l4 28l245 270l30 1l-47 -269h68zM328 378c-13 -70 -80 -119 -161 -119c-78 0 -145 34 -124 147h32c-15 -88 31 -117 97 -117c55 0 113 35 122 90c10 55 -25 87 -120 87l5 26
c82 -1 131 27 139 79c7 39 -21 71 -79 71c-72 0 -118 -39 -130 -109h-34c16 82 73 139 168 139c75 0 121 -40 110 -103c-7 -39 -36 -72 -77 -89c42 -18 60 -55 52 -102zM536 130l39 217l-197 -217h158z" />
    <glyph glyph-name="trademark" unicode="&#x2122;" horiz-adv-x="773" 
d="M711 283h-33l57 322l-190 -322h-30l-74 322l-57 -322h-34l66 374h40l80 -339l199 339h42zM370 629h-127l-62 -346h-32l60 346h-125l4 28h286z" />
    <glyph glyph-name="yen" unicode="&#xa5;" horiz-adv-x="487" 
d="M558 657l-241 -301h135l-6 -30h-153l-39 -50l-8 -46h184l-6 -29h-184l-35 -201h-38l35 201h-181l6 29h181l8 46l-22 50h-151l6 30h132l-132 301h40l152 -345l277 345h40z" />
    <glyph glyph-name="cent" unicode="&#xa2;" horiz-adv-x="470" 
d="M393 252h35c-33 -94 -104 -170 -216 -177l-18 -102h-29l18 102c-123 9 -176 112 -152 253c22 125 107 233 238 241l20 108h29l-19 -108c108 -5 154 -68 152 -153h-33c-1 68 -32 118 -125 122l-77 -432c84 6 149 61 177 146zM187 106l77 432c-109 -8 -180 -97 -200 -210
c-22 -124 22 -214 123 -222z" />
    <glyph glyph-name="sterling" unicode="&#xa3;" horiz-adv-x="491" 
d="M406 67l11 -29c-31 -30 -68 -48 -117 -48c-81 0 -120 34 -188 34c-28 0 -70 -10 -109 -34l-17 34c66 47 116 124 127 184c6 35 4 73 -10 103h-76l5 29h64c-18 53 -36 99 -26 158c18 106 114 173 227 173c119 0 195 -66 176 -201h-36c16 112 -46 166 -150 166
c-89 0 -167 -56 -181 -138c-10 -54 13 -109 29 -158h155l-5 -29h-142c10 -26 12 -68 6 -98c-10 -51 -46 -128 -99 -170c24 9 48 13 71 13c74 0 119 -32 179 -32c39 0 75 18 106 43z" />
    </font>
</defs>
</svg>
