<?xml version="1.0" standalone="no"?>
<!DOCTYPE svg PUBLIC "-//W3C//DTD SVG 1.1//EN" "http://www.w3.org/Graphics/SVG/1.1/DTD/svg11.dtd" >
<svg xmlns="http://www.w3.org/2000/svg" width="100%" height="100%">
<metadata>
Created by FontXChange 20110211 at Wed Feb  8 07:22:50 2017
 By ,S-1-5-21-2990463615-3375158210-3149194106-1000
This font is compatible with Microsoft Windows XP and upper/Macintosh OSX and upper, and work very well with Microsoft Office 2000 and upper/Adobe CS and upper. "PSL" is abbreviation of PSL SmartLetter. "PSL SmartLetter" is a pseudonym of Phanlop Thongsuk. And "PSL SmartLetter" is a trademark of the Phanlop Thongsuk.
</metadata>
<defs>
<font id="KittithadaLight45" horiz-adv-x="0" >
  <font-face 
    font-family="Kittithada Light 45"
    font-weight="400"
    font-stretch="normal"
    units-per-em="1000"
    panose-1="2 0 5 6 0 0 0 2 0 4"
    ascent="800"
    descent="-200"
    x-height="476"
    cap-height="657"
    bbox="-576 -419 1021 1089"
    underline-thickness="50"
    underline-position="-50"
    stemh="49"
    stemv="60"
    unicode-range="U+0020-F880"
  />
<missing-glyph horiz-adv-x="1089" 
d="M68 0v1089h953v-1089h-953zM954 68v953h-817v-953h817z" />
    <glyph glyph-name=".notdef" horiz-adv-x="1089" 
d="M68 0v1089h953v-1089h-953zM954 68v953h-817v-953h817z" />
    <glyph glyph-name=".null" 
 />
    <glyph glyph-name="CR" horiz-adv-x="307" 
 />
    <glyph glyph-name="space" unicode=" " horiz-adv-x="400" 
 />
    <glyph glyph-name="space" unicode="&#xa0;" horiz-adv-x="400" 
 />
    <glyph glyph-name="percent" unicode="%" horiz-adv-x="816" 
d="M745 160c0 -99 -39 -174 -144 -174c-103 0 -143 75 -143 174c0 98 40 175 143 175c105 0 144 -77 144 -175zM635 667l-416 -698h-45l417 698h44zM353 476c0 -98 -39 -175 -144 -175c-103 0 -142 77 -142 175c0 99 39 174 142 174c105 0 144 -75 144 -174zM696 159
c0 59 -17 134 -95 134c-76 0 -95 -75 -95 -134c0 -57 19 -131 95 -131c78 0 95 74 95 131zM304 476c0 58 -17 132 -95 132c-76 0 -93 -74 -93 -132c0 -59 17 -133 93 -133c78 0 95 74 95 133z" />
    <glyph glyph-name="ampersand" unicode="&#x26;" horiz-adv-x="568" 
d="M572 0h-71l-67 85c-46 -61 -110 -99 -195 -99c-113 0 -201 66 -201 184c0 94 88 156 160 195c-36 47 -79 95 -79 161c0 78 65 131 145 131c79 0 146 -53 146 -131c0 -84 -65 -131 -131 -173l146 -173c16 32 21 61 21 110h58c0 -38 -7 -104 -39 -157zM353 526
c0 54 -39 85 -89 85c-49 0 -90 -31 -90 -85c0 -48 48 -99 77 -137c46 29 102 71 102 137zM398 127l-166 202c-66 -33 -139 -85 -139 -164c0 -80 69 -133 147 -133c64 0 121 43 158 95z" />
    <glyph glyph-name="quotesingle" unicode="'" horiz-adv-x="255" 
d="M155 434h-56v223h56v-223z" />
    <glyph glyph-name="parenleft" unicode="(" horiz-adv-x="240" 
d="M232 -145h-46c-81 121 -130 262 -130 423c0 160 49 302 130 424h46c-70 -115 -119 -261 -119 -424c0 -154 49 -309 119 -423z" />
    <glyph glyph-name="parenright" unicode=")" horiz-adv-x="240" 
d="M184 278c0 -161 -49 -302 -130 -423h-46c70 114 119 269 119 423c0 163 -49 309 -119 424h46c81 -122 130 -264 130 -424z" />
    <glyph glyph-name="asterisk" unicode="*" horiz-adv-x="324" 
d="M299 545l-108 -33l68 -89l-33 -24l-66 93l-65 -93l-34 24l70 89l-107 35l15 38l105 -41l-5 113h45l-4 -113l106 41z" />
    <glyph glyph-name="plus" unicode="+" horiz-adv-x="505" 
d="M463 206h-187v-186h-49v186h-185v49h185v186h49v-186h187v-49z" />
    <glyph glyph-name="comma" unicode="," horiz-adv-x="255" 
d="M166 93v-94c0 -53 -25 -109 -81 -125v40c31 11 45 55 43 86h-39v93h77z" />
    <glyph glyph-name="hyphen" unicode="-" horiz-adv-x="340" 
d="M286 226h-230v54h230v-54z" />
    <glyph glyph-name="period" unicode="." horiz-adv-x="255" 
d="M166 0h-77v93h77v-93z" />
    <glyph glyph-name="slash" unicode="/" horiz-adv-x="307" 
d="M319 671l-283 -685h-50l287 685h46z" />
    <glyph glyph-name="zero" unicode="0" horiz-adv-x="505" 
d="M476 318c0 -151 -38 -332 -224 -332c-184 0 -221 181 -221 332s37 332 221 332c186 0 224 -181 224 -332zM417 318c0 112 -18 283 -165 283c-143 0 -164 -171 -164 -283s21 -283 164 -283c147 0 165 171 165 283z" />
    <glyph glyph-name="one" unicode="1" horiz-adv-x="505" 
d="M311 0h-59v477h-167v41c101 5 162 8 179 126h47v-644z" />
    <glyph glyph-name="two" unicode="2" horiz-adv-x="505" 
d="M452 0h-419c-4 148 129 214 234 289c68 48 124 101 124 181c0 84 -55 131 -134 131c-108 0 -154 -86 -151 -181h-59c-1 134 69 230 208 230c113 0 193 -61 193 -181c0 -97 -57 -157 -125 -206c-91 -66 -203 -114 -225 -210h354v-53z" />
    <glyph glyph-name="three" unicode="3" horiz-adv-x="505" 
d="M466 183c0 -127 -102 -197 -219 -197c-131 0 -226 80 -216 216h55c-2 -100 56 -167 160 -167c83 0 163 50 163 142s-70 137 -154 137h-47v49h47c60 0 130 36 130 117c0 85 -61 121 -137 121c-95 0 -149 -65 -146 -160h-57c0 121 76 209 202 209c102 0 194 -50 194 -165
c0 -69 -38 -125 -106 -142v-1c82 -16 131 -76 131 -159z" />
    <glyph glyph-name="four" unicode="4" horiz-adv-x="505" 
d="M469 159h-97v-159h-51v159h-293v53l294 432h50v-436h97v-49zM321 208v350h-2l-238 -350h240z" />
    <glyph glyph-name="five" unicode="5" horiz-adv-x="505" 
d="M462 205c0 -127 -91 -219 -216 -219c-119 0 -210 75 -213 198h56c3 -89 69 -149 157 -149c97 0 159 82 159 176c0 95 -69 167 -164 167c-55 0 -108 -28 -141 -77h-48l58 335h318v-53h-277l-38 -213c32 35 86 57 135 57c131 0 214 -92 214 -222z" />
    <glyph glyph-name="six" unicode="6" horiz-adv-x="505" 
d="M474 205c0 -125 -90 -219 -216 -219c-146 0 -222 103 -222 328c0 86 18 336 226 336c113 0 182 -56 196 -169h-56c-10 73 -60 120 -134 120c-147 0 -175 -171 -175 -289c33 65 100 106 171 106c127 0 210 -89 210 -213zM416 201c0 93 -56 170 -154 170
c-99 0 -156 -75 -156 -170c0 -91 53 -166 158 -166c90 0 152 77 152 166z" />
    <glyph glyph-name="seven" unicode="7" horiz-adv-x="505" 
d="M455 636v-53c-78 -78 -244 -284 -257 -583h-61c11 218 83 403 249 583h-340v53h409z" />
    <glyph glyph-name="eight" unicode="8" horiz-adv-x="505" 
d="M472 180c0 -130 -101 -194 -221 -194c-117 0 -218 64 -218 194c0 84 47 149 125 165v2c-66 20 -99 70 -99 141c0 112 99 162 192 162c94 0 193 -50 193 -162c0 -71 -32 -121 -99 -142v1v-2c82 -17 127 -79 127 -165zM388 488c0 74 -60 113 -137 113
c-68 0 -135 -39 -135 -113c0 -86 70 -118 135 -118c70 0 137 36 137 118zM413 180c0 93 -75 141 -162 141c-86 0 -160 -46 -160 -141c0 -96 72 -145 160 -145c89 0 162 47 162 145z" />
    <glyph glyph-name="nine" unicode="9" horiz-adv-x="505" 
d="M469 329c0 -103 -18 -343 -226 -343c-113 0 -182 54 -196 169h56c10 -73 60 -122 134 -122c147 0 175 173 175 289c-33 -63 -100 -106 -171 -106c-127 0 -210 90 -210 215c0 126 90 219 216 219c146 0 222 -100 222 -321zM399 435c0 91 -53 165 -158 165
c-90 0 -152 -75 -152 -165c0 -93 56 -170 154 -170c99 0 156 75 156 170z" />
    <glyph glyph-name="colon" unicode=":" horiz-adv-x="255" 
d="M166 367h-77v93h77v-93zM166 0h-77v93h77v-93z" />
    <glyph glyph-name="semicolon" unicode=";" horiz-adv-x="255" 
d="M166 367h-77v93h77v-93zM166 93v-94c0 -53 -25 -109 -81 -125v40c31 11 45 55 43 86h-39v93h77z" />
    <glyph glyph-name="less" unicode="&#x3c;" horiz-adv-x="505" 
d="M463 -7l-421 215v50l421 215v-53l-364 -187l364 -187v-53z" />
    <glyph glyph-name="equal" unicode="=" horiz-adv-x="505" 
d="M463 299h-421v48h421v-48zM463 117h-421v49h421v-49z" />
    <glyph glyph-name="greater" unicode="&#x3e;" horiz-adv-x="505" 
d="M463 208l-421 -215v53l364 187l-364 187v53l421 -215v-50z" />
    <glyph glyph-name="question" unicode="?" horiz-adv-x="494" 
d="M445 501c0 -165 -165 -163 -165 -306v-30h-58v23c0 172 166 177 166 310c0 74 -60 124 -133 124c-99 0 -149 -72 -148 -167h-57c0 131 76 216 208 216c103 0 187 -63 187 -170zM290 0h-78v93h78v-93z" />
    <glyph glyph-name="at" unicode="@" horiz-adv-x="737" 
d="M693 385c0 -148 -110 -268 -213 -268c-42 0 -67 24 -62 63h-2c-27 -29 -70 -61 -117 -61c-76 0 -122 61 -122 133c0 127 88 267 219 267c41 0 81 -22 98 -78l22 60h49l-88 -265c-13 -39 -18 -77 11 -77c83 0 156 126 156 229c0 152 -119 241 -260 241
c-173 0 -292 -135 -292 -304c0 -184 126 -297 293 -297c91 0 184 46 237 123h48c-56 -102 -168 -165 -285 -165c-198 0 -342 123 -342 346c0 191 151 339 338 339c178 0 312 -117 312 -286zM465 384c0 43 -37 86 -73 86c-93 0 -156 -127 -156 -213c0 -55 32 -90 76 -90
c86 0 153 136 153 217z" />
    <glyph glyph-name="A" unicode="A" horiz-adv-x="572" 
d="M579 0h-67l-77 205h-298l-78 -205h-67l262 657h70zM414 258l-125 336h-3l-130 -336h258z" />
    <glyph glyph-name="B" unicode="B" horiz-adv-x="604" 
d="M573 187c0 -63 -22 -187 -233 -187h-274v657h274c109 0 208 -42 208 -166c0 -79 -44 -130 -113 -145v-1c84 -12 138 -73 138 -158zM487 481c0 83 -50 122 -147 122h-213v-233h213c99 0 147 47 147 111zM511 188c0 84 -63 127 -171 127h-213v-262h213c91 0 171 31 171 135
z" />
    <glyph glyph-name="C" unicode="C" horiz-adv-x="639" 
d="M548 248h62c-14 -162 -118 -262 -271 -262c-202 0 -304 163 -304 342c0 180 102 343 304 343c124 0 246 -74 261 -212h-62c-16 102 -104 159 -199 159c-170 0 -243 -145 -243 -290c0 -142 73 -289 243 -289c121 0 198 92 209 209z" />
    <glyph glyph-name="D" unicode="D" horiz-adv-x="621" 
d="M589 328c0 -215 -104 -328 -297 -328h-226v657h226c193 0 297 -113 297 -329zM526 328c0 197 -82 275 -269 275h-130v-550h130c187 0 269 80 269 275z" />
    <glyph glyph-name="E" unicode="E" horiz-adv-x="537" 
d="M515 0h-449v657h445v-54h-384v-236h358v-55h-358v-259h388v-53z" />
    <glyph glyph-name="F" unicode="F" horiz-adv-x="487" 
d="M474 603h-347v-236h312v-55h-312v-312h-61v657h408v-54z" />
    <glyph glyph-name="G" unicode="G" horiz-adv-x="675" 
d="M621 0h-43l-9 109h-1c-45 -88 -134 -123 -228 -123c-202 0 -305 163 -305 342c0 180 103 343 305 343c137 0 250 -71 272 -218h-61c-13 77 -85 165 -211 165c-170 0 -244 -145 -244 -290c0 -142 74 -289 244 -289c145 0 228 102 228 241h-225v55h278v-335z" />
    <glyph glyph-name="H" unicode="H" horiz-adv-x="642" 
d="M576 0h-63v318h-386v-318h-61v657h61v-285h386v285h63v-657z" />
    <glyph glyph-name="I" unicode="I" horiz-adv-x="205" 
d="M134 0h-63v657h63v-657z" />
    <glyph glyph-name="J" unicode="J" horiz-adv-x="453" 
d="M388 657v-474c0 -131 -50 -197 -190 -197c-149 0 -188 110 -181 225h61c0 -58 -3 -172 126 -172c96 0 122 52 122 170v448h62z" />
    <glyph glyph-name="K" unicode="K" horiz-adv-x="589" 
d="M600 0h-78l-268 345l-127 -125v-220h-61v657h61v-353l377 353h83l-290 -271z" />
    <glyph glyph-name="L" unicode="L" horiz-adv-x="484" 
d="M487 0h-421v657h61v-604h360v-53z" />
    <glyph glyph-name="M" unicode="M" horiz-adv-x="757" 
d="M693 0h-62v569h-3l-221 -569h-58l-222 569h-1v-569h-63v657h90l225 -577l223 577h92v-657z" />
    <glyph glyph-name="N" unicode="N" horiz-adv-x="639" 
d="M575 0h-70l-377 559h-1v-559h-63v657h70l377 -555h1v555h63v-657z" />
    <glyph glyph-name="O" unicode="O" horiz-adv-x="675" 
d="M644 328c0 -179 -103 -342 -306 -342c-204 0 -307 163 -307 342c0 180 103 343 307 343c203 0 306 -163 306 -343zM583 328c0 145 -75 290 -245 290c-172 0 -246 -145 -246 -290c0 -142 74 -289 246 -289c170 0 245 147 245 289z" />
    <glyph glyph-name="P" unicode="P" horiz-adv-x="572" 
d="M545 467c0 -120 -76 -191 -192 -191h-226v-276h-61v657h287c116 0 192 -71 192 -190zM484 467c0 90 -60 136 -145 136h-212v-275h212c85 0 145 49 145 139z" />
    <glyph glyph-name="Q" unicode="Q" horiz-adv-x="675" 
d="M644 328c0 -101 -33 -197 -99 -260l94 -72l-32 -38l-101 77c-43 -31 -100 -49 -168 -49c-204 0 -307 163 -307 342c0 180 103 343 307 343c203 0 306 -163 306 -343zM583 328c0 145 -75 290 -245 290c-172 0 -246 -145 -246 -290c0 -142 74 -289 246 -289
c47 0 87 11 121 32l-85 66l32 40l95 -72c56 54 82 139 82 223z" />
    <glyph glyph-name="R" unicode="R" horiz-adv-x="607" 
d="M579 0h-68c-16 25 -16 74 -17 102c-5 92 -13 190 -130 190h-237v-292h-61v657h298c109 0 198 -53 198 -172c0 -82 -39 -150 -123 -167v-1c79 -10 105 -70 109 -148c3 -46 3 -136 31 -169zM501 474c0 81 -48 129 -141 129h-233v-258h233c75 0 141 50 141 129z" />
    <glyph glyph-name="S" unicode="S" horiz-adv-x="572" 
d="M538 174c0 -46 -16 -188 -246 -188c-155 0 -267 68 -259 227h62c-3 -132 93 -174 211 -174c68 0 171 38 171 134s-110 112 -218 137c-104 25 -206 55 -206 175c0 66 42 186 223 186c130 0 240 -70 240 -204h-61c-4 101 -85 151 -177 151c-83 0 -162 -33 -162 -131
c0 -84 93 -103 192 -124c112 -23 230 -53 230 -189z" />
    <glyph glyph-name="T" unicode="T" horiz-adv-x="498" 
d="M502 603h-222v-603h-61v603h-223v54h506v-54z" />
    <glyph glyph-name="U" unicode="U" horiz-adv-x="624" 
d="M565 657v-420c0 -135 -73 -251 -253 -251c-179 0 -253 116 -253 251v420h62v-406c0 -153 72 -212 191 -212s190 59 190 212v406h63z" />
    <glyph glyph-name="V" unicode="V" horiz-adv-x="537" 
d="M547 657l-241 -657h-73l-241 657h65l211 -590h1l212 590h66z" />
    <glyph glyph-name="W" unicode="W" horiz-adv-x="823" 
d="M826 657l-183 -657h-67l-163 589h-1l-165 -589h-67l-183 657h63l153 -571h2l159 571h77l157 -571h2l153 571h63z" />
    <glyph glyph-name="X" unicode="X" horiz-adv-x="520" 
d="M529 0h-71l-199 290l-199 -290h-71l234 338l-220 319h70l186 -275l189 275h70l-222 -319z" />
    <glyph glyph-name="Y" unicode="Y" horiz-adv-x="554" 
d="M564 657l-256 -389v-268h-62v268l-256 389h73l215 -338l213 338h73z" />
    <glyph glyph-name="Z" unicode="Z" horiz-adv-x="526" 
d="M513 0h-509v56l431 547h-402v54h473v-54l-433 -550h440v-53z" />
    <glyph glyph-name="bracketleft" unicode="[" horiz-adv-x="219" 
d="M215 -145h-149v847h149v-49h-91v-749h91v-49z" />
    <glyph glyph-name="backslash" unicode="\" horiz-adv-x="303" 
d="M315 -14h-49l-280 685h47z" />
    <glyph glyph-name="bracketright" unicode="]" horiz-adv-x="219" 
d="M152 -145h-148v49h91v749h-91v49h148v-847z" />
    <glyph glyph-name="asciicircum" unicode="^" horiz-adv-x="544" 
d="M504 219h-55l-177 359l-177 -359h-55l208 417h48z" />
    <glyph glyph-name="underscore" unicode="_" horiz-adv-x="460" 
d="M460 -118h-460v50h460v-50z" />
    <glyph glyph-name="grave" unicode="`" horiz-adv-x="167" 
d="M139 541h-47l-120 130h74z" />
    <glyph glyph-name="a" unicode="a" horiz-adv-x="472" 
d="M463 53v-49c-14 -3 -22 -4 -38 -4c-55 0 -66 29 -66 77h-2c-35 -57 -81 -91 -171 -91c-86 0 -157 43 -157 140c0 132 127 138 251 152c46 5 73 12 73 65c0 77 -54 96 -123 96c-70 0 -121 -32 -124 -111h-57c5 113 81 160 187 160c83 0 176 -25 176 -152v-252
c0 -23 9 -35 32 -35c8 0 15 2 19 4zM353 184v75h-1c-6 -10 -33 -18 -48 -20c-99 -16 -218 -17 -218 -111c0 -57 51 -93 105 -93c87 0 162 57 162 149z" />
    <glyph glyph-name="b" unicode="b" horiz-adv-x="520" 
d="M490 237c0 -134 -72 -251 -212 -251c-76 0 -143 36 -169 102h-2v-88h-53v657h58v-269h1c24 67 95 100 165 100c140 0 212 -116 212 -251zM431 237c0 99 -45 202 -153 202c-123 0 -166 -103 -166 -202s43 -202 166 -202c108 0 153 103 153 202z" />
    <glyph glyph-name="c" unicode="c" horiz-adv-x="472" 
d="M391 170h57c-9 -114 -87 -184 -196 -184c-142 0 -221 116 -221 251c0 137 79 251 221 251c101 0 179 -53 192 -163h-56c-16 71 -59 114 -136 114c-108 0 -164 -100 -164 -202c0 -100 56 -202 164 -202c74 0 132 56 139 135z" />
    <glyph glyph-name="d" unicode="d" horiz-adv-x="520" 
d="M466 0h-53v88h-1c-24 -63 -97 -102 -169 -102c-141 0 -211 117 -211 251c0 135 70 251 211 251c71 0 141 -33 164 -97h3v266h56v-657zM410 237c0 99 -45 202 -167 202c-108 0 -154 -103 -154 -202s46 -202 154 -202c122 0 167 103 167 202z" />
    <glyph glyph-name="e" unicode="e" horiz-adv-x="474" 
d="M449 222h-363c0 -87 47 -187 155 -187c84 0 131 50 150 121h57c-25 -107 -88 -170 -207 -170c-148 0 -212 116 -212 251c0 126 64 251 212 251c152 0 212 -131 208 -266zM86 271h306c-4 88 -57 168 -151 168c-93 0 -145 -82 -155 -168z" />
    <glyph glyph-name="f" unicode="f" horiz-adv-x="241" 
d="M261 651v-51c-9 4 -32 8 -56 7c-59 -4 -63 -43 -63 -92v-39h92v-49h-92v-427h-57v427h-79v49h79v49c0 80 24 128 114 132c27 1 51 -3 62 -6z" />
    <glyph glyph-name="g" unicode="g" horiz-adv-x="506" 
d="M452 476v-437c0 -142 -54 -229 -209 -229c-94 0 -187 42 -196 144h59c13 -70 74 -94 137 -94c106 0 153 60 153 179v54h-3c-25 -54 -82 -93 -150 -93c-150 0 -212 114 -212 250c0 131 78 238 212 238c69 0 128 -37 150 -90h3v78h56zM396 243c0 93 -44 196 -153 196
c-108 0 -155 -97 -155 -196c0 -98 49 -194 155 -194c99 0 153 97 153 194z" />
    <glyph glyph-name="h" unicode="h" horiz-adv-x="487" 
d="M435 0h-56v297c0 81 -27 142 -121 142c-91 0 -146 -69 -146 -161v-278h-59v657h59v-261h1c22 59 85 92 151 92c131 0 171 -71 171 -182v-306z" />
    <glyph glyph-name="i" unicode="i" horiz-adv-x="167" 
d="M113 562h-59v95h59v-95zM113 0h-59v476h59v-476z" />
    <glyph glyph-name="j" unicode="j" horiz-adv-x="167" 
d="M113 562h-59v95h59v-95zM113 476v-530c0 -70 -20 -122 -100 -122c-14 0 -38 2 -48 3v53c10 -1 24 -3 39 -3c36 0 50 27 50 69v530h59z" />
    <glyph glyph-name="k" unicode="k" horiz-adv-x="453" 
d="M460 0h-68l-188 258l-92 -85v-173h-58v657h58v-411l259 230h75l-202 -183z" />
    <glyph glyph-name="l" unicode="l" horiz-adv-x="170" 
d="M114 0h-58v657h58v-657z" />
    <glyph glyph-name="m" unicode="m" horiz-adv-x="756" 
d="M700 0h-56v318c0 74 -23 121 -107 121c-98 0 -130 -82 -130 -170v-269h-58v322c0 66 -25 117 -98 117c-99 0 -139 -80 -139 -174v-265h-58v476h53v-77h2c25 54 77 89 150 89c70 0 122 -29 139 -92c27 63 83 92 145 92c104 0 157 -53 157 -166v-322z" />
    <glyph glyph-name="n" unicode="n" horiz-adv-x="487" 
d="M435 0h-56v297c0 89 -26 142 -121 142c-91 0 -146 -69 -146 -161v-278h-59v476h59v-80h1c20 57 85 92 151 92c129 0 171 -71 171 -182v-306z" />
    <glyph glyph-name="o" unicode="o" horiz-adv-x="506" 
d="M477 237c0 -135 -79 -251 -225 -251c-142 0 -221 116 -221 251c0 137 79 251 221 251c146 0 225 -114 225 -251zM418 237c0 102 -55 202 -166 202c-108 0 -164 -100 -164 -202c0 -100 56 -202 164 -202c111 0 166 102 166 202z" />
    <glyph glyph-name="p" unicode="p" horiz-adv-x="520" 
d="M490 237c0 -134 -72 -251 -212 -251c-70 0 -139 32 -165 99h-1v-261h-58v652h53v-88h2c25 64 93 100 169 100c140 0 212 -116 212 -251zM431 237c0 99 -45 202 -153 202c-127 0 -166 -94 -166 -202c0 -99 43 -202 166 -202c108 0 153 103 153 202z" />
    <glyph glyph-name="q" unicode="q" horiz-adv-x="520" 
d="M466 -176h-57v261h-2c-26 -67 -95 -99 -164 -99c-141 0 -212 117 -212 251c0 135 71 251 212 251c75 0 143 -36 169 -100h1v88h53v-652zM409 237c0 108 -39 202 -166 202c-109 0 -154 -103 -154 -202s45 -202 154 -202c122 0 166 103 166 202z" />
    <glyph glyph-name="r" unicode="r" horiz-adv-x="286" 
d="M286 481v-58c-103 7 -174 -71 -174 -171v-252h-58v476h53v-102h2c22 68 93 113 177 107z" />
    <glyph glyph-name="s" unicode="s" horiz-adv-x="435" 
d="M409 128c0 -103 -101 -142 -189 -142c-110 0 -187 53 -192 165h57c3 -76 61 -116 138 -116c53 0 127 24 127 91s-75 82 -151 97c-76 17 -154 41 -154 133c0 95 85 132 168 132c104 0 175 -46 179 -149h-57c-3 71 -57 100 -123 100c-52 0 -110 -23 -110 -80
c0 -58 60 -73 127 -87c83 -18 180 -39 180 -144z" />
    <glyph glyph-name="t" unicode="t" horiz-adv-x="271" 
d="M246 46v-50c-9 -2 -33 -3 -53 -2c-77 3 -105 30 -105 108v325h-81v49h81v142h57v-142h98v-49h-98v-321c0 -47 15 -60 49 -63c18 -1 42 0 52 3z" />
    <glyph glyph-name="u" unicode="u" horiz-adv-x="490" 
d="M435 0h-51v80h-2c-30 -63 -93 -94 -163 -94c-117 0 -166 74 -166 180v310h59v-310c0 -86 34 -131 125 -131c98 0 142 93 142 191v250h56v-476z" />
    <glyph glyph-name="v" unicode="v" horiz-adv-x="420" 
d="M423 476l-183 -476h-60l-183 476h62l150 -412h2l150 412h62z" />
    <glyph glyph-name="w" unicode="w" horiz-adv-x="654" 
d="M657 476l-152 -476h-61l-116 399h-2l-114 -399h-63l-150 476h60l121 -405h1l115 405h64l114 -405h2l121 405h60z" />
    <glyph glyph-name="x" unicode="x" horiz-adv-x="435" 
d="M435 0h-65l-152 205l-151 -205h-66l182 247l-168 229h67l136 -186l136 186h67l-169 -229z" />
    <glyph glyph-name="y" unicode="y" horiz-adv-x="418" 
d="M418 476l-202 -549c-29 -79 -54 -103 -125 -103c-24 2 -35 2 -45 4v49c14 -3 27 -4 39 -4c50 0 63 28 82 74l20 54l-187 475h59l156 -408l145 408h58z" />
    <glyph glyph-name="z" unicode="z" horiz-adv-x="420" 
d="M406 0h-392v46l307 381h-289v49h361v-42l-312 -385h325v-49z" />
    <glyph glyph-name="braceleft" unicode="{" horiz-adv-x="303" 
d="M268 -145h-45c-56 0 -86 35 -86 114v137c0 74 -11 148 -64 148v49c53 0 64 72 64 145v139c0 80 32 115 86 115h45v-48h-24c-36 0 -49 -26 -49 -81v-155c0 -100 -53 -132 -62 -139v-1c9 -7 62 -39 62 -140v-153c0 -56 13 -81 49 -81h24v-49z" />
    <glyph glyph-name="bar" unicode="|" horiz-adv-x="202" 
d="M126 -14h-49v685h49v-685z" />
    <glyph glyph-name="braceright" unicode="}" horiz-adv-x="303" 
d="M79 -145h-45v49h24c36 0 49 25 49 81v153c0 101 53 133 62 140v1c-9 7 -62 39 -62 139v155c0 55 -13 81 -49 81h-24v48h45c54 0 86 -35 86 -115v-139c0 -73 11 -145 64 -145v-49c-53 0 -64 -74 -64 -148v-137c0 -79 -30 -114 -86 -114z" />
    <glyph glyph-name="asciitilde" unicode="~" horiz-adv-x="544" 
d="M449 290l32 -33c-21 -38 -54 -80 -113 -80c-76 0 -124 60 -196 60c-39 0 -62 -31 -77 -63l-32 32c19 40 50 80 116 80c80 0 128 -60 191 -60c36 0 61 32 79 64z" />
    <glyph glyph-name="quotedbl" unicode="&#x22;" horiz-adv-x="340" 
d="M258 434h-56v223h56v-223zM138 434h-56v223h56v-223z" />
    <glyph glyph-name="exclam" unicode="!" horiz-adv-x="219" 
d="M139 451l-13 -288h-33l-13 288v206h59v-206zM148 0h-75v93h75v-93z" />
    <glyph glyph-name="guillemotleft" unicode="&#xab;" horiz-adv-x="386" 
d="M324 110l-123 115v57l123 114v-61l-88 -81l88 -82v-62zM177 110l-123 115v57l123 114v-61l-88 -81l88 -82v-62z" />
    <glyph glyph-name="logicalnot" unicode="&#xac;" horiz-adv-x="505" 
d="M420 81v121h-391v62h447v-183h-56z" />
    <glyph glyph-name="registered" unicode="&#xae;" horiz-adv-x="737" 
d="M711 329c0 -192 -149 -343 -343 -343s-343 151 -343 343c0 193 149 342 343 342s343 -149 343 -342zM657 329c0 163 -123 293 -289 293s-288 -130 -288 -293c0 -164 122 -294 288 -294s289 130 289 294zM543 131h-58l-110 176h-82v-176h-49v396h152
c89 0 129 -39 129 -110c0 -70 -47 -102 -100 -110zM476 417c0 56 -46 68 -94 68h-89v-138h64c60 0 119 3 119 70z" />
    <glyph glyph-name="degree" unicode="&#xb0;" horiz-adv-x="368" 
d="M181 624c78 0 140 -62 140 -139c0 -76 -62 -138 -140 -138c-74 0 -136 60 -136 138c0 74 60 139 136 139zM181 585c-57 0 -99 -42 -99 -100c0 -54 45 -100 99 -100c53 0 102 44 102 100c0 55 -46 100 -102 100z" />
    <glyph glyph-name="paragraph" unicode="&#xb6;" horiz-adv-x="495" 
d="M428 -166h-42v923h-99v-923h-37v548c-133 0 -250 45 -250 203c0 142 94 200 233 200h265v-28h-70v-923z" />
    <glyph glyph-name="middot" unicode="&#xb7;" horiz-adv-x="321" 
d="M162 494c39 0 68 -32 68 -67c0 -39 -32 -71 -68 -71c-42 0 -70 29 -70 71c0 38 28 67 70 67z" />
    <glyph glyph-name="middot" unicode="&#x2219;" horiz-adv-x="321" 
d="M162 494c39 0 68 -32 68 -67c0 -39 -32 -71 -68 -71c-42 0 -70 29 -70 71c0 38 28 67 70 67z" />
    <glyph glyph-name="guillemotright" unicode="&#xbb;" horiz-adv-x="386" 
d="M332 225l-123 -115v62l88 82l-88 81v61l123 -114v-57zM186 225l-123 -115v62l88 82l-88 81v61l123 -114v-57z" />
    <glyph glyph-name="multiply" unicode="&#xd7;" horiz-adv-x="505" 
d="M458 60l-35 -35l-172 172l-170 -170l-35 33l170 172l-170 170l35 35l170 -172l172 172l35 -34l-172 -171z" />
    <glyph glyph-name="divide" unicode="&#xf7;" horiz-adv-x="505" 
d="M304 417c0 -28 -24 -52 -52 -52c-27 0 -51 24 -51 52s24 52 51 52c28 0 52 -24 52 -52zM463 206h-421v49h421v-49zM304 46c0 -28 -24 -52 -52 -52c-27 0 -51 24 -51 52s24 52 51 52c28 0 52 -24 52 -52z" />
    <glyph glyph-name="uni0E00" unicode="&#xe00;" horiz-adv-x="139" 
 />
    <glyph glyph-name="uni0E01" unicode="&#xe01;" horiz-adv-x="552" 
d="M497 0h-60v374c0 92 -73 137 -161 137c-68 0 -127 -26 -160 -76v-435h-60v452c50 74 127 116 220 116c116 0 221 -63 221 -184v-384z" />
    <glyph glyph-name="uni0E02" unicode="&#xe02;" horiz-adv-x="502" 
d="M446 558v-372c0 -112 -82 -196 -198 -196c-122 0 -215 98 -215 229c0 98 55 172 120 226l-65 88l50 33l92 -125c-86 -70 -137 -133 -137 -222c0 -96 63 -172 155 -172c84 0 138 62 138 139v372h60z" />
    <glyph glyph-name="uni0E03" unicode="&#xe03;" horiz-adv-x="509" 
d="M453 558v-371c0 -113 -82 -197 -195 -197c-123 0 -212 92 -212 225c0 96 53 164 130 213v52l-49 -45s-41 53 -107 87l34 43c44 -21 67 -43 79 -54l47 47h54v-155c-71 -33 -131 -102 -131 -188c0 -98 63 -168 155 -168c81 0 135 62 135 140v371h60z" />
    <glyph glyph-name="uni0E04" unicode="&#xe04;" horiz-adv-x="552" 
d="M497 0h-60v381c0 79 -78 127 -161 127c-82 0 -160 -48 -160 -127v-69h171v-58h-171v-254h-60v381c0 111 104 187 220 187c115 0 221 -76 221 -187v-381z" />
    <glyph glyph-name="uni0E05" unicode="&#xe05;" horiz-adv-x="580" 
d="M525 0h-60v389c0 57 -34 113 -84 122l-91 -111l-91 111c-50 -9 -83 -65 -83 -122v-77h185v-58h-185v-254h-60v389c0 94 61 179 163 179l71 -83l71 83c102 0 164 -85 164 -179v-389z" />
    <glyph glyph-name="uni0E06" unicode="&#xe06;" horiz-adv-x="559" 
d="M504 558v-382c0 -119 -79 -186 -190 -186c-81 0 -154 39 -188 85v-75h-60v339c0 68 85 71 85 120v24l-56 -42s-32 46 -88 82l40 42c28 -22 46 -40 55 -50l56 43h53v-109c0 -53 -85 -57 -85 -118v-137c0 -75 83 -152 177 -152c81 0 141 43 141 139v377h60z" />
    <glyph glyph-name="uni0E07" unicode="&#xe07;" horiz-adv-x="523" 
d="M490 279c0 -195 -136 -300 -348 -279l-136 545l61 14l124 -505c142 -4 239 79 239 225c0 144 -83 234 -257 219v60c212 17 317 -95 317 -279z" />
    <glyph glyph-name="uni0E08" unicode="&#xe08;" horiz-adv-x="533" 
d="M499 290c0 -174 -127 -308 -322 -294l-67 290h-56v59h106l65 -291c127 2 214 105 214 236c0 127 -79 218 -199 218c-80 0 -137 -31 -190 -84l-47 41c65 69 141 103 240 103c157 0 256 -116 256 -278z" />
    <glyph glyph-name="uni0E09" unicode="&#xe09;" horiz-adv-x="537" 
d="M499 0h-78v75c-33 -37 -99 -85 -187 -85c-110 0 -178 59 -178 170v104h-41v60h99v-158c0 -85 55 -124 132 -124c89 0 175 71 175 151v188c0 79 -76 130 -159 130c-71 0 -153 -39 -171 -106h-62c24 101 131 163 233 163c115 0 219 -76 219 -187v-343z" />
    <glyph glyph-name="uni0E0A" unicode="&#xe0a;" horiz-adv-x="508" 
d="M474 219c0 -130 -88 -224 -251 -227c-97 -2 -167 30 -167 30v536h60v-492c14 -6 53 -19 109 -17c118 3 189 67 189 170c0 106 -74 173 -196 199l154 147l45 -36l-96 -90c95 -41 153 -110 153 -220z" />
    <glyph glyph-name="uni0E0B" unicode="&#xe0b;" horiz-adv-x="522" 
d="M488 219c0 -130 -86 -225 -249 -227c-98 -2 -168 30 -168 30v313c0 68 73 78 73 124v24l-56 -42s-32 46 -88 82l39 42c29 -22 47 -40 56 -50l54 43h55v-105c0 -50 -73 -67 -73 -128v-261c14 -4 55 -17 109 -15c119 3 188 67 188 170c0 106 -72 173 -196 199l156 147
l43 -36l-93 -90c92 -41 150 -110 150 -220z" />
    <glyph glyph-name="uni0E0C" unicode="&#xe0c;" horiz-adv-x="914" 
d="M858 558v-389c0 -113 -78 -179 -181 -179c-76 0 -146 39 -180 85v-75h-60v374c0 92 -73 137 -161 137c-68 0 -127 -26 -160 -76v-382h97v-53h-157v452c50 74 127 116 220 116c116 0 221 -63 221 -184v-190c0 -75 83 -152 168 -152c76 0 133 46 133 132v384h60z" />
    <glyph glyph-name="uni0E0D" unicode="&#xe0d;" horiz-adv-x="914" 
d="M858 558v-531c0 -123 -95 -201 -219 -201c-80 0 -155 29 -205 92l46 39c33 -49 95 -74 158 -74c78 0 161 46 161 138v33c-19 -22 -81 -64 -161 -64c-113 0 -201 60 -201 172v212c0 92 -73 137 -161 137c-68 0 -127 -26 -160 -76v-378h97v-57h-157v456
c50 74 127 112 220 112c116 0 221 -63 221 -184v-214c0 -85 65 -123 145 -123c81 0 156 55 156 134v377h60z" />
    <glyph glyph-name="uni0E0E" unicode="&#xe0e;" horiz-adv-x="559" 
d="M504 -209h-55l-118 90l-122 -90h-206v58h194l135 102l112 -88v511c0 92 -73 137 -161 137c-68 0 -127 -26 -160 -76v-435h-120v53h60v399c50 74 127 116 220 116c116 0 221 -63 221 -184v-593z" />
    <glyph glyph-name="uni0E0F" unicode="&#xe0f;" horiz-adv-x="559" 
d="M504 -209h-56l-77 76l-75 -89l-76 89l-78 -76h-139v58h121l98 94l74 -85l75 85l73 -69v500c0 92 -73 137 -161 137c-68 0 -127 -26 -160 -76v-435h-120v53h60v399c50 74 127 116 220 116c116 0 221 -63 221 -184v-593z" />
    <glyph glyph-name="uni0E10" unicode="&#xe10;" horiz-adv-x="533" 
d="M499 287c0 -173 -127 -307 -322 -293l-68 296h-55v53h106l65 -291c127 2 214 104 214 235c0 127 -79 218 -199 218c-80 0 -137 -31 -190 -82l-47 39c65 69 141 103 240 103c47 0 90 -10 125 -29l55 64l49 -33l-56 -65c54 -50 83 -125 83 -215zM501 -204h-55l-78 77
l-74 -89l-74 89l-78 -77h-135v59h119l96 93l72 -85l74 85l73 -68v54l-28 46h88v-184z" />
    <glyph glyph-name="uni0E11" unicode="&#xe11;" horiz-adv-x="559" 
d="M504 0h-60v407c0 49 -30 91 -65 95l-258 -502h-55v339c0 68 85 71 85 120v24l-56 -42s-32 46 -88 82l40 42c28 -22 46 -40 55 -50l56 43h53v-109c0 -53 -85 -57 -85 -118v-203l224 433c96 0 154 -66 154 -155v-406z" />
    <glyph glyph-name="uni0E12" unicode="&#xe12;" horiz-adv-x="944" 
d="M527 386v-192c0 -75 83 -152 168 -152c76 0 133 46 133 132v384h60v-389c0 -113 -78 -179 -181 -179c-76 0 -145 39 -180 85v-75h-60v386c0 56 -29 111 -75 120l-89 -107l-92 106c-45 -22 -116 -116 -118 -236c-1 -114 41 -217 140 -217c36 0 66 26 79 47l49 -36
c-28 -41 -76 -70 -128 -70c-133 0 -202 110 -200 276c1 154 98 283 196 299l74 -84l68 80c101 0 156 -81 156 -178z" />
    <glyph glyph-name="uni0E13" unicode="&#xe13;" horiz-adv-x="914" 
d="M858 0h-60v75c-35 -46 -105 -85 -180 -85c-103 0 -181 62 -181 179v205c0 92 -73 137 -161 137c-68 0 -127 -26 -160 -76v-382h97v-53h-157v452c50 74 127 116 220 116c116 0 221 -63 221 -184v-210c0 -89 57 -132 132 -132c88 0 169 72 169 152v364h60v-558z" />
    <glyph glyph-name="uni0E14" unicode="&#xe14;" horiz-adv-x="559" 
d="M504 0h-60v368c0 81 -66 141 -152 141c-120 0 -197 -120 -199 -245c-1 -112 41 -212 139 -212c33 0 60 18 79 44l46 -33c-25 -38 -65 -70 -125 -70c-133 0 -200 113 -199 271c2 161 109 304 259 304c124 0 212 -85 212 -198v-370z" />
    <glyph glyph-name="uni0E15" unicode="&#xe15;" horiz-adv-x="583" 
d="M527 0h-60v386c0 56 -29 111 -75 120l-89 -107l-92 106c-45 -22 -116 -116 -118 -236c-1 -114 41 -217 140 -217c36 0 66 26 79 47l49 -36c-28 -41 -76 -70 -128 -70c-133 0 -202 110 -200 276c1 154 98 283 196 299l74 -84l68 80c101 0 156 -81 156 -178v-386z" />
    <glyph glyph-name="uni0E16" unicode="&#xe16;" horiz-adv-x="552" 
d="M497 0h-60v374c0 92 -73 137 -161 137c-68 0 -127 -26 -160 -76v-382h95v-53h-155v452c50 74 127 116 220 116c116 0 221 -63 221 -184v-384z" />
    <glyph glyph-name="uni0E17" unicode="&#xe17;" horiz-adv-x="552" 
d="M497 0h-60v377c0 96 -65 139 -144 139c-94 0 -177 -77 -177 -152v-364h-60v558h60v-75c35 46 107 85 188 85c112 0 193 -67 193 -186v-382z" />
    <glyph glyph-name="uni0E18" unicode="&#xe18;" horiz-adv-x="506" 
d="M474 405h-64c-26 69 -100 101 -171 101c-73 0 -137 -34 -137 -74c0 -50 91 -57 160 -69c103 -17 211 -58 211 -190c0 -123 -116 -181 -246 -181c-93 0 -178 29 -178 29v267l58 19v-239c16 -5 60 -18 120 -18c88 0 185 36 185 123c0 84 -84 118 -161 131
c-106 18 -213 30 -213 123c0 84 104 139 206 139s200 -46 230 -161z" />
    <glyph glyph-name="uni0E19" unicode="&#xe19;" horiz-adv-x="552" 
d="M497 0h-60v75c-35 -46 -108 -85 -189 -85c-111 0 -192 67 -192 186v382h60v-377c0 -96 64 -139 143 -139c94 0 178 77 178 152v364h60v-558z" />
    <glyph glyph-name="uni0E1A" unicode="&#xe1a;" horiz-adv-x="552" 
d="M497 558v-381c0 -111 -104 -187 -221 -187s-220 76 -220 187v381h60v-381c0 -79 77 -130 160 -130c84 0 161 51 161 130v381h60z" />
    <glyph glyph-name="uni0E1B" unicode="&#xe1b;" horiz-adv-x="552" 
d="M497 725v-548c0 -111 -104 -187 -221 -187s-220 76 -220 187v381h60v-381c0 -79 77 -130 160 -130c84 0 161 51 161 130v548h60z" />
    <glyph glyph-name="uni0E1C" unicode="&#xe1c;" horiz-adv-x="695" 
d="M688 558l-145 -558h-52l-145 452l-142 -452h-51l-147 558h156v-59h-80l101 -386l138 445h50l141 -445l116 445h60z" />
    <glyph glyph-name="uni0E1D" unicode="&#xe1d;" horiz-adv-x="695" 
d="M731 725l-188 -725h-52l-145 452l-142 -452h-51l-147 558h156v-59h-80l101 -386l138 445h50l141 -445l159 612h60z" />
    <glyph glyph-name="uni0E1E" unicode="&#xe1e;" horiz-adv-x="695" 
d="M688 558l-145 -558h-52l-145 452l-142 -452h-51l-147 558h61l116 -445l138 445h50l141 -445l116 445h60z" />
    <glyph glyph-name="uni0E1F" unicode="&#xe1f;" horiz-adv-x="695" 
d="M731 725l-188 -725h-52l-145 452l-142 -452h-51l-147 558h61l116 -445l138 445h50l141 -445l159 612h60z" />
    <glyph glyph-name="uni0E20" unicode="&#xe20;" horiz-adv-x="559" 
d="M504 0h-60v374c0 92 -73 137 -161 137c-68 0 -127 -26 -160 -76v-435h-120v53h60v399c50 74 127 116 220 116c116 0 221 -63 221 -184v-384z" />
    <glyph glyph-name="uni0E21" unicode="&#xe21;" horiz-adv-x="552" 
d="M497 558v-382c0 -119 -81 -186 -193 -186c-81 0 -153 39 -188 85v-75h-60v558h60v-364c0 -75 83 -152 177 -152c79 0 144 43 144 139v377h60z" />
    <glyph glyph-name="uni0E22" unicode="&#xe22;" horiz-adv-x="551" 
d="M495 558v-477s-65 -89 -217 -89c-161 0 -245 82 -245 184c0 74 51 125 97 150c-46 14 -83 53 -83 109c0 74 72 130 162 130c35 0 59 -6 77 -13v-60c-24 9 -45 13 -75 13c-55 0 -102 -24 -102 -70c0 -53 63 -74 117 -74h60v-60h-47c-67 0 -143 -47 -143 -124
s73 -128 182 -128c90 0 145 43 157 54v455h60z" />
    <glyph glyph-name="uni0E23" unicode="&#xe23;" horiz-adv-x="515" 
d="M481 174c0 -121 -109 -185 -223 -185c-116 0 -225 64 -225 194h60c0 -94 81 -136 165 -136c80 0 163 42 163 127c0 74 -82 95 -157 105c-104 13 -217 29 -217 128c0 91 95 158 203 158c104 0 205 -49 226 -160h-62c-23 72 -93 103 -164 103c-67 0 -141 -41 -141 -95
c0 -57 92 -65 164 -75c108 -15 208 -46 208 -164z" />
    <glyph glyph-name="uni0E24" unicode="&#xe24;" horiz-adv-x="552" 
d="M497 -209h-60v581c0 93 -73 139 -161 139c-68 0 -127 -26 -160 -77v-381h95v-53h-155v451c50 75 127 117 220 117c116 0 221 -64 221 -187v-590z" />
    <glyph glyph-name="uni0E25" unicode="&#xe25;" horiz-adv-x="565" 
d="M509 0h-60v226c-28 57 -97 100 -180 100c-111 0 -176 -72 -176 -157c0 -60 42 -116 101 -116c26 0 43 3 72 22l37 -47c-41 -28 -67 -35 -109 -35c-96 0 -161 84 -161 176c0 110 86 216 236 216c85 0 141 -28 180 -64v60c0 79 -82 130 -164 130c-73 0 -141 -44 -165 -106
h-63c28 101 130 163 232 163c116 0 220 -76 220 -187v-381z" />
    <glyph glyph-name="uni0E26" unicode="&#xe26;" horiz-adv-x="559" 
d="M504 -209h-60v583c0 92 -73 137 -161 137c-68 0 -127 -26 -160 -76v-435h-120v53h60v399c50 74 127 116 220 116c116 0 221 -63 221 -184v-593z" />
    <glyph glyph-name="uni0E27" unicode="&#xe27;" horiz-adv-x="512" 
d="M478 279c0 -153 -82 -289 -234 -289c-93 0 -185 63 -213 169h61c27 -68 87 -110 152 -110c119 0 174 114 174 230s-57 230 -174 230c-63 0 -125 -42 -151 -110h-62c28 106 120 169 213 169c152 0 234 -136 234 -289z" />
    <glyph glyph-name="uni0E28" unicode="&#xe28;" horiz-adv-x="552" 
d="M497 0h-60v382c0 80 -78 129 -161 129c-82 0 -160 -49 -160 -129v-71h171v-59h-171v-252h-60v378c0 112 104 187 220 187c35 0 70 -7 101 -21l47 56l51 -33l-45 -52c40 -34 67 -81 67 -137v-378z" />
    <glyph glyph-name="uni0E29" unicode="&#xe29;" horiz-adv-x="559" 
d="M554 265h-55v-88c0 -111 -107 -187 -221 -187c-119 0 -222 76 -222 187v381h60v-384c0 -79 71 -127 162 -127c86 0 160 48 160 127v91h-158v88l45 -28h113v233h61v-233h55v-60z" />
    <glyph glyph-name="uni0E2A" unicode="&#xe2a;" horiz-adv-x="565" 
d="M509 0h-60v225c-28 57 -97 100 -180 100c-111 0 -176 -73 -176 -158c0 -58 42 -115 101 -115c26 0 45 5 72 23l37 -47c-38 -27 -66 -35 -109 -35c-96 0 -161 84 -161 174c0 111 86 217 236 217c85 0 141 -28 180 -65v62c0 79 -81 130 -164 130c-73 0 -141 -42 -165 -105
h-63c28 102 130 162 232 162c33 0 70 -7 100 -21l49 56l49 -33l-45 -52c41 -34 67 -81 67 -137v-381z" />
    <glyph glyph-name="uni0E2B" unicode="&#xe2b;" horiz-adv-x="559" 
d="M511 0h-60v273c0 81 -87 130 -172 120l-163 -100v-293h-60v558h60v-198l329 205l50 -35l-136 -89c87 -17 152 -76 152 -166v-275z" />
    <glyph glyph-name="uni0E2C" unicode="&#xe2c;" horiz-adv-x="695" 
d="M730 697l-26 -92c-16 -54 -47 -75 -83 -86c29 -28 40 -61 26 -113l-104 -406h-52l-145 452l-142 -452h-51l-147 558h60l115 -444l140 444h50l142 -444l77 295c17 63 -24 96 -74 96h-58v53h64c74 0 111 13 124 61l21 78h63z" />
    <glyph glyph-name="uni0E2D" unicode="&#xe2d;" horiz-adv-x="603" 
d="M569 279c0 -167 -107 -289 -268 -289c-160 0 -268 122 -268 289c0 21 2 42 6 57h194v-58h-140c2 -133 87 -228 208 -228c123 0 208 96 208 229c0 131 -81 230 -208 230c-88 0 -156 -49 -191 -131h-61c39 120 130 190 252 190c161 0 268 -122 268 -289z" />
    <glyph glyph-name="uni0E2E" unicode="&#xe2e;" horiz-adv-x="603" 
d="M569 279c0 -167 -107 -289 -268 -289c-160 0 -268 122 -268 289c0 21 2 42 6 57h194v-58h-140c2 -133 87 -228 208 -228c123 0 208 96 208 229c0 131 -81 230 -208 230c-88 0 -156 -49 -191 -131h-61c39 120 130 190 252 190c42 0 81 -9 115 -24l47 56l47 -30l-47 -55
c67 -50 106 -136 106 -236z" />
    <glyph glyph-name="uni0E2F" unicode="&#xe2f;" horiz-adv-x="547" 
d="M491 0h-60v381c-29 -28 -98 -74 -215 -74s-183 61 -183 131c0 74 70 127 161 127c35 0 57 -6 78 -13v-60c-22 9 -46 14 -77 14c-53 0 -102 -22 -102 -68c0 -49 60 -75 125 -75c132 0 195 71 213 99v96h60v-558z" />
    <glyph glyph-name="uni0E30" unicode="&#xe30;" horiz-adv-x="193" 
d="M186 392h-151v96h60v-37h91v-59zM186 70h-151v96h60v-38h91v-58z" />
    <glyph glyph-name="uni0E31" unicode="&#xe31;" 
d="M123 628h-384v111h59v-55h325v-56z" />
    <glyph glyph-name="uni0E32" unicode="&#xe32;" horiz-adv-x="385" 
d="M331 0h-59v360c0 93 -46 153 -138 153c-43 0 -85 -19 -114 -40v63c19 11 64 32 115 32c136 0 196 -91 196 -198v-370z" />
    <glyph glyph-name="uni0E33" unicode="&#xe33;" horiz-adv-x="385" 
d="M331 0h-59v360c0 93 -46 153 -138 153c-43 0 -85 -19 -114 -40v63c19 11 64 32 115 32c136 0 196 -91 196 -198v-370zM-57 692c0 17 -14 29 -29 29c-16 0 -30 -12 -30 -29s14 -29 30 -29c15 0 29 12 29 29zM-155 692c0 40 32 68 69 68s68 -28 68 -68s-31 -67 -68 -67
s-69 27 -69 67z" />
    <glyph glyph-name="uni0E34" unicode="&#xe34;" 
d="M-56 628h-432v56h432v-56z" />
    <glyph glyph-name="uni0E35" unicode="&#xe35;" 
d="M-56 628h-432v56h372v69h60v-125z" />
    <glyph glyph-name="uni0E36" unicode="&#xe36;" 
d="M-20 693c0 -36 -31 -65 -67 -65h-401v56h334s-1 5 -1 9c0 38 30 67 68 67s67 -30 67 -67zM-63 696c0 14 -11 25 -25 25s-25 -11 -25 -25s11 -25 25 -25s25 11 25 25z" />
    <glyph glyph-name="uni0E37" unicode="&#xe37;" 
d="M-56 628h-432v56h270v69h60v-69h42v69h60v-125z" />
    <glyph glyph-name="uni0E38" unicode="&#xe38;" 
d="M-56 -216h-60v104h-56v56h116v-160z" />
    <glyph glyph-name="uni0E39" unicode="&#xe39;" 
d="M-56 -56v-75c0 -55 -54 -92 -111 -92c-38 0 -81 17 -105 49v62h-43v56h103v-99c11 -14 35 -18 47 -18c25 0 49 15 49 40v77h60z" />
    <glyph glyph-name="uni0E3A" unicode="&#xe3a;" 
d="M-42 -100c0 -26 -19 -45 -44 -45c-26 0 -45 19 -45 45c0 25 19 44 45 44c25 0 44 -19 44 -44z" />
    <glyph glyph-name="uni0E3F" unicode="&#xe3f;" horiz-adv-x="614" 
d="M580 187c0 -63 -22 -187 -235 -187h-23v-92h-35v92h-220v657h220v87h35v-87h23c110 0 210 -38 210 -160c0 -70 -46 -133 -114 -148v-2c85 -11 139 -75 139 -160zM492 481c0 81 -50 123 -147 123h-23v-234h23c100 0 147 48 147 111zM287 370v234h-159v-234h159zM518 188
c0 84 -65 127 -173 127h-23v-262h23c92 0 173 31 173 135zM287 53v262h-159v-262h159z" />
    <glyph glyph-name="uni0E40" unicode="&#xe40;" horiz-adv-x="198" 
d="M128 0h-58v558h58v-558z" />
    <glyph glyph-name="uni0E41" unicode="&#xe41;" horiz-adv-x="345" 
d="M275 0h-59v558h59v-558zM128 0h-58v558h58v-558z" />
    <glyph glyph-name="uni0E42" unicode="&#xe42;" horiz-adv-x="226" 
d="M264 808h-182c-22 0 -40 -9 -40 -25c0 -48 100 -41 100 -144v-639h-58v640c0 80 -99 73 -99 143c0 53 48 82 106 82h173v-57z" />
    <glyph glyph-name="uni0E43" unicode="&#xe43;" horiz-adv-x="226" 
d="M209 759c0 -73 -67 -68 -67 -138v-621h-58v628c0 76 67 78 67 128c0 34 -30 63 -74 63c-49 0 -81 -32 -81 -78h-57c0 75 61 131 138 131c76 0 132 -52 132 -113z" />
    <glyph glyph-name="uni0E44" unicode="&#xe44;" horiz-adv-x="226" 
d="M128 857l87 -94c-35 -29 -73 -75 -73 -125v-638h-58v629c0 64 42 105 65 127l-29 29l-68 -64l-125 108l37 39l90 -78z" />
    <glyph glyph-name="uni0E45" unicode="&#xe45;" horiz-adv-x="385" 
d="M331 -209h-59v569c0 93 -46 153 -138 153c-43 0 -85 -19 -114 -40v63c19 11 64 32 115 32c136 0 196 -91 196 -198v-579z" />
    <glyph glyph-name="uni0E46" unicode="&#xe46;" horiz-adv-x="551" 
d="M495 -209h-60v608c0 61 -32 100 -79 110l-91 -96l-92 96c-46 -10 -80 -49 -80 -110v-29h113v-59h-173v88c0 100 65 166 164 166l68 -71l68 71c98 0 162 -66 162 -166v-608z" />
    <glyph glyph-name="uni0E47" unicode="&#xe47;" 
d="M-43 742h-264c-49 0 -78 -26 -78 -61h53l80 47l75 -47h88v-53h-98l-65 43l-69 -43h-121v46c0 64 42 120 139 120h260v-52z" />
    <glyph glyph-name="uni0E48" unicode="&#xe48;" 
d="M-56 795h-60v98h60v-98z" />
    <glyph glyph-name="uni0E49" unicode="&#xe49;" 
d="M36 795h-212v29c0 13 -4 21 -18 21h-19v51h27c38 0 60 -14 60 -48v-3h162v-50z" />
    <glyph glyph-name="uni0E4A" unicode="&#xe4a;" 
d="M137 795h-133v42c0 24 -11 36 -35 36l-65 -47l-64 47h-2c-25 0 -36 -12 -36 -35h50v-43h-99v50c0 49 41 78 89 78h6l56 -40l53 40h10c50 0 87 -29 87 -78h83v-50z" />
    <glyph glyph-name="uni0E4B" unicode="&#xe4b;" 
d="M3 855h-63v-60h-50v60h-63v42h63v60h50v-60h63v-42z" />
    <glyph glyph-name="uni0E4C" unicode="&#xe4c;" 
d="M-18 787h-46c-21 0 -34 -4 -34 -24v-24h-54v30c0 47 35 65 70 65h64v-47z" />
    <glyph glyph-name="uni0E4D" unicode="&#xe4d;" 
d="M-57 692c0 17 -14 29 -29 29c-16 0 -30 -12 -30 -29s14 -29 30 -29c15 0 29 12 29 29zM-155 692c0 40 32 68 69 68s68 -28 68 -68s-31 -67 -68 -67s-69 27 -69 67z" />
    <glyph glyph-name="uni0E4E" unicode="&#xe4e;" 
d="M-20 958v-46c-99 13 -203 -11 -203 -65c0 -34 46 -41 82 -39v-44c-74 2 -171 -19 -171 -69c0 -37 68 -34 121 -6l21 -36c-89 -45 -194 -28 -194 39c0 52 57 91 120 100c-18 10 -32 32 -32 56c0 74 121 123 256 110z" />
    <glyph glyph-name="uni0E4F" unicode="&#xe4f;" horiz-adv-x="670" 
d="M621 279c0 -158 -129 -286 -286 -286c-158 0 -286 128 -286 286s128 286 286 286c157 0 286 -128 286 -286zM579 279c0 134 -110 244 -244 244s-244 -110 -244 -244s110 -244 244 -244s244 110 244 244zM509 279c0 -96 -78 -174 -174 -174s-175 78 -175 174
s79 174 175 174s174 -78 174 -174z" />
    <glyph glyph-name="uni0E50" unicode="&#xe50;" horiz-adv-x="512" 
d="M478 209c0 -120 -100 -217 -221 -217c-123 0 -224 97 -224 217s101 218 224 218c121 0 221 -98 221 -218zM420 209c0 90 -74 162 -166 162c-91 0 -165 -72 -165 -162c0 -89 74 -162 165 -162c92 0 166 73 166 162z" />
    <glyph glyph-name="uni0E51" unicode="&#xe51;" horiz-adv-x="545" 
d="M512 213c0 -147 -147 -253 -273 -270l-26 47c122 17 242 106 242 223c0 98 -85 161 -186 161c-93 0 -178 -60 -178 -151c0 -60 44 -114 113 -114c4 0 9 1 9 1c-27 14 -44 45 -44 77c0 53 44 95 97 95s97 -42 97 -95c0 -75 -74 -134 -164 -134c-99 0 -166 77 -166 170
c0 124 116 204 235 204c134 0 244 -81 244 -214zM312 187c0 26 -19 46 -46 46c-26 0 -47 -20 -47 -46c0 -25 21 -43 47 -43c27 0 46 18 46 43z" />
    <glyph glyph-name="uni0E52" unicode="&#xe52;" horiz-adv-x="767" 
d="M711 0h-601c-10 131 -23 229 -58 336c-30 89 -84 169 -141 223l43 38c64 -60 124 -151 153 -241c32 -98 46 -189 56 -299h490v239c0 49 -36 75 -77 75c-29 0 -60 -12 -79 -45v-224h-59v226c-22 31 -57 43 -88 43c-53 0 -99 -35 -99 -88v-4c13 4 27 6 41 6
c55 0 99 -44 99 -95c0 -53 -44 -97 -99 -97s-98 44 -98 97v93c0 85 72 145 156 145c50 0 89 -21 116 -47c28 26 64 47 110 47c70 0 135 -49 135 -125v-303zM340 190c0 25 -22 44 -48 44c-27 0 -48 -19 -48 -44c0 -27 21 -45 48 -45c26 0 48 18 48 45z" />
    <glyph glyph-name="uni0E53" unicode="&#xe53;" horiz-adv-x="653" 
d="M597 0h-57v293c0 52 -41 77 -84 77c-31 0 -67 -16 -86 -46v-324h-59v325c-21 31 -60 45 -93 45c-52 0 -105 -37 -105 -88v-105c13 4 26 6 39 6c56 0 99 -44 99 -97c0 -51 -43 -93 -99 -93c-53 0 -96 42 -96 93v196c0 83 81 143 162 143c58 0 96 -19 124 -46
c25 27 70 46 114 46c70 0 141 -47 141 -125v-300zM201 86c0 27 -22 48 -49 48c-25 0 -46 -21 -46 -48c0 -25 21 -46 46 -46c27 0 49 21 49 46z" />
    <glyph glyph-name="uni0E54" unicode="&#xe54;" horiz-adv-x="589" 
d="M526 586h57c2 -105 -28 -219 -127 -219h-190c-96 0 -177 -67 -175 -168c2 -99 82 -150 163 -150c50 0 81 14 110 19c-35 25 -61 65 -61 109c0 55 46 99 100 99c53 0 98 -43 98 -95c0 -43 -31 -81 -71 -92c12 -9 37 -11 53 -14c29 -4 68 -12 95 -36l-34 -46
c-45 25 -92 28 -113 28c-56 0 -93 -25 -181 -25c-109 0 -214 64 -217 203c-2 130 101 225 226 225h192c60 0 74 92 75 162zM451 181c0 25 -23 45 -48 45c-28 0 -47 -20 -47 -45c0 -26 19 -44 47 -44c25 0 48 18 48 44z" />
    <glyph glyph-name="uni0E55" unicode="&#xe55;" horiz-adv-x="589" 
d="M526 586h57c2 -105 -28 -219 -127 -219h-190c-96 0 -177 -67 -175 -168c2 -99 82 -150 163 -150c50 0 81 14 110 19c-35 24 -61 60 -61 109c0 55 46 99 100 99c53 0 98 -43 98 -95c0 -43 -28 -79 -69 -93c9 -7 35 -10 51 -13c29 -4 68 -12 95 -36l-34 -46
c-45 25 -92 28 -113 28c-56 0 -93 -25 -181 -25c-109 0 -214 64 -217 203c-2 111 70 195 173 218c-8 13 -12 32 -12 49c0 57 47 100 102 100c56 0 104 -41 104 -100c0 -14 -5 -28 -11 -41c20 0 37 -1 62 -1c60 0 74 92 75 162zM346 466c0 29 -22 50 -50 50
c-27 0 -50 -21 -50 -50c0 -27 23 -48 50 -48c28 0 50 21 50 48zM451 181c0 25 -23 45 -48 45c-28 0 -47 -20 -47 -45c0 -26 19 -44 47 -44c25 0 48 18 48 44z" />
    <glyph glyph-name="uni0E56" unicode="&#xe56;" horiz-adv-x="552" 
d="M518 213c0 -131 -111 -223 -245 -223c-131 0 -217 83 -217 168c0 55 43 97 96 97c54 0 98 -43 98 -96c0 -42 -30 -79 -66 -92c18 -13 56 -21 89 -21c102 0 187 68 187 167c0 94 -83 159 -177 159c-51 0 -113 -18 -166 -69l-50 14c-17 92 -56 161 -120 221l45 35
c74 -64 110 -135 127 -201c34 27 99 56 164 56c129 0 235 -88 235 -215zM199 159c0 27 -20 46 -47 46c-25 0 -46 -19 -46 -46c0 -25 21 -46 46 -46c27 0 47 21 47 46z" />
    <glyph glyph-name="uni0E57" unicode="&#xe57;" horiz-adv-x="787" 
d="M745 575l47 -34c-36 -23 -64 -71 -64 -118v-289c0 -95 -78 -142 -188 -140v302c0 50 -41 75 -82 75c-31 0 -69 -15 -88 -46v-325h-59v326c-21 31 -60 45 -93 45c-52 0 -105 -36 -105 -88v-107c8 4 26 7 39 7c56 0 99 -42 99 -97c0 -51 -43 -93 -99 -93
c-53 0 -96 42 -96 93v197c0 84 81 144 162 144c58 0 96 -20 124 -46c25 26 70 46 116 46c68 0 139 -48 139 -124v-250c38 4 71 30 71 74v301c0 71 46 124 77 147zM201 86c0 28 -22 48 -49 48c-25 0 -46 -20 -46 -48c0 -25 21 -46 46 -46c27 0 49 21 49 46z" />
    <glyph glyph-name="uni0E58" unicode="&#xe58;" horiz-adv-x="607" 
d="M522 573l57 -4c-8 -96 -49 -171 -88 -224c-50 15 -103 27 -176 27c-121 0 -224 -68 -224 -161c0 -77 55 -134 104 -151l98 116l121 -115c11 6 25 16 38 27c-34 12 -57 43 -57 82c0 46 40 85 90 85c46 0 87 -42 87 -88c0 -71 -78 -129 -170 -175l-106 101l-83 -100
c-103 27 -180 105 -180 218c0 124 122 217 284 217c48 0 106 -5 150 -16c23 36 48 90 55 161zM520 170c0 20 -15 35 -35 35c-22 0 -36 -15 -36 -35c0 -21 14 -36 36 -36c20 0 35 15 35 36z" />
    <glyph glyph-name="uni0E59" unicode="&#xe59;" horiz-adv-x="651" 
d="M607 578h58c14 -120 -19 -208 -79 -266c-11 41 -38 63 -66 63c-36 0 -58 -36 -62 -68c55 -82 87 -195 99 -304l-59 -7c-21 170 -78 379 -246 379c-92 0 -160 -68 -160 -162c0 -82 46 -145 98 -160c-13 14 -17 35 -17 54c0 55 46 98 100 98c55 0 98 -43 98 -98
c0 -69 -70 -115 -138 -115c-134 0 -200 108 -200 224c0 123 98 215 219 215c66 0 120 -25 162 -67c18 39 53 68 104 68c32 0 55 -11 71 -27c19 39 26 101 18 173zM319 107c0 27 -19 48 -46 48c-26 0 -47 -21 -47 -48c0 -25 21 -46 47 -46c27 0 46 21 46 46z" />
    <glyph glyph-name="uni0E5A" unicode="&#xe5a;" horiz-adv-x="677" 
d="M621 0h-60v381c-14 -14 -38 -31 -70 -46c0 1 0 -335 0 -335h-60v381c-29 -28 -98 -74 -215 -74s-183 61 -183 131c0 74 70 127 161 127c35 0 57 -6 78 -13v-60c-26 9 -46 14 -77 14c-53 0 -102 -22 -102 -68c0 -49 60 -75 125 -75c132 0 195 71 213 99v96h60v-159
c38 21 60 47 70 63v96h60v-558z" />
    <glyph glyph-name="uni0E5B" unicode="&#xe5b;" horiz-adv-x="954" 
d="M932 296c0 -10 -18 -16 -31 -17l-75 -7c-7 -17 -14 -40 -29 -40c-16 0 -30 37 -44 62c-7 -29 -19 -79 -39 -79c-17 0 -35 54 -54 89c-7 -40 -20 -103 -41 -103c-22 0 -34 70 -57 113c-7 -55 -19 -131 -54 -131c-25 0 -39 97 -52 132c-5 -83 -77 -263 -234 -263
c-106 0 -180 93 -180 230c0 130 70 233 164 233c77 0 140 -73 140 -168c0 -74 -35 -127 -87 -127c-43 0 -76 39 -76 87c0 46 35 86 75 86c10 0 18 -1 27 -4c-13 48 -44 76 -77 76c-60 0 -113 -74 -113 -189c0 -110 58 -176 135 -176c89 0 165 98 186 253c5 39 11 50 30 50
c24 0 53 -64 70 -134c11 60 13 122 36 122c20 0 49 -51 67 -111c5 39 13 84 28 84c23 0 45 -38 67 -92c9 32 16 73 37 73c16 0 32 -31 44 -56c6 19 14 32 32 30l76 -9c12 -2 29 -7 29 -14zM292 307c0 25 -16 45 -34 45c-17 0 -33 -20 -33 -45c0 -24 16 -43 33 -43
c18 0 34 19 34 43z" />
    <glyph glyph-name="endash" unicode="&#x2013;" horiz-adv-x="505" 
d="M463 205h-421v50h421v-50z" />
    <glyph glyph-name="emdash" unicode="&#x2014;" horiz-adv-x="1010" 
d="M968 205h-926v50h926v-50z" />
    <glyph glyph-name="quoteleft" unicode="&#x2018;" horiz-adv-x="199" 
d="M142 657v-39c-30 -11 -44 -56 -43 -87h38v-93h-77v93c0 55 26 111 82 126z" />
    <glyph glyph-name="quoteright" unicode="&#x2019;" horiz-adv-x="199" 
d="M139 657v-93c0 -55 -26 -111 -82 -126v39c31 11 45 56 43 87h-37v93h76z" />
    <glyph glyph-name="quotedblleft" unicode="&#x201c;" horiz-adv-x="340" 
d="M283 657v-39c-31 -11 -44 -56 -43 -87h38v-93h-77v93c0 55 26 111 82 126zM141 657v-39c-31 -11 -45 -56 -43 -87h37v-93h-76v93c0 55 26 111 82 126z" />
    <glyph glyph-name="quotedblright" unicode="&#x201d;" horiz-adv-x="340" 
d="M282 657v-93c0 -55 -27 -111 -83 -126v39c31 11 45 56 44 87h-38v93h77zM139 657v-93c0 -55 -26 -111 -82 -126v39c31 11 45 56 43 87h-37v93h76z" />
    <glyph glyph-name="bullet" unicode="&#x2022;" horiz-adv-x="516" 
d="M467 279c0 -116 -93 -209 -209 -209s-209 93 -209 209s93 209 209 209s209 -93 209 -209z" />
    <glyph glyph-name="ellipsis" unicode="&#x2026;" horiz-adv-x="766" 
d="M677 0h-77v93h77v-93zM421 0h-76v93h76v-93zM166 0h-77v93h77v-93z" />
    <glyph glyph-name="thothannobasethai" unicode="&#xf700;" horiz-adv-x="533" 
d="M499 287c0 -173 -127 -307 -322 -293l-68 296h-55v53h106l65 -291c127 2 214 104 214 235c0 127 -79 218 -199 218c-80 0 -137 -31 -190 -82l-47 39c65 69 141 103 240 103c47 0 90 -10 125 -29l55 64l49 -34l-56 -64c54 -50 83 -125 83 -215z" />
    <glyph glyph-name="saraileftthai" unicode="&#xf701;" 
d="M-172 628h-404v56h404v-56z" />
    <glyph glyph-name="saraiileftthai" unicode="&#xf702;" 
d="M-172 628h-404v56h344v69h60v-125z" />
    <glyph glyph-name="saraueleftthai" unicode="&#xf703;" 
d="M-134 693c0 -36 -31 -65 -67 -65h-375v56h308s-1 5 -1 9c0 38 30 67 68 67s67 -30 67 -67zM-177 696c0 14 -11 25 -25 25s-25 -11 -25 -25s11 -25 25 -25s25 11 25 25z" />
    <glyph glyph-name="saraueeleftthai" unicode="&#xf704;" 
d="M-172 628h-404v56h243v69h60v-69h41v69h60v-125z" />
    <glyph glyph-name="maieklowleftthai" unicode="&#xf705;" 
d="M-195 628h-60v139h60v-139z" />
    <glyph glyph-name="maitholowleftthai" unicode="&#xf706;" 
d="M4 628h-237v33c0 14 -4 23 -19 23h-23v55h32c42 0 67 -15 67 -51v-4h180v-56z" />
    <glyph glyph-name="maitrilowleftthai" unicode="&#xf707;" 
d="M1 628h-224v47c0 25 -13 39 -39 39h-2l-67 -46l-67 46c-29 0 -41 -14 -41 -37h57v-49h-115v56c0 54 45 86 102 86h7l57 -40l56 40h9c57 0 100 -32 100 -86h167v-56z" />
    <glyph glyph-name="maichattawalowleftthai" unicode="&#xf708;" 
d="M-160 693h-70v-65h-56v65h-70v48h70v65h56v-65h70v-48z" />
    <glyph glyph-name="thanthakhatlowleftthai" unicode="&#xf709;" 
d="M-95 766h-49c-22 0 -36 -4 -36 -24v-26h-57v30c0 52 36 70 74 70h68v-50z" />
    <glyph glyph-name="maieklowrightthai" unicode="&#xf70a;" 
d="M-56 628h-60v139h60v-139z" />
    <glyph glyph-name="maitholowrightthai" unicode="&#xf70b;" 
d="M36 628h-237v33c0 14 -4 23 -19 23h-23v55h32c42 0 67 -15 67 -51v-4h180v-56z" />
    <glyph glyph-name="maitrilowrightthai" unicode="&#xf70c;" 
d="M0 628h-152v47c0 25 -13 39 -39 39h-2l-73 -51l-74 51h-2c-28 0 -40 -14 -40 -37h57v-49h-114v56c0 54 44 86 101 86h7l65 -45l62 45h9c57 0 100 -32 100 -86h95v-56z" />
    <glyph glyph-name="maichattawalowrightthai" unicode="&#xf70d;" 
d="M-56 693h-70v-65h-55v65h-70v48h70v65h55v-65h70v-48z" />
    <glyph glyph-name="thanthakhatlowrightthai" unicode="&#xf70e;" 
d="M-13 678h-48c-23 0 -37 -4 -37 -24v-26h-57v30c0 52 36 70 74 70h68v-50z" />
    <glyph glyph-name="yoyingnobasethai" unicode="&#xf70f;" horiz-adv-x="914" 
d="M858 558v-381c0 -118 -84 -187 -211 -187s-210 69 -210 187v197c0 92 -73 137 -161 137c-68 0 -127 -26 -160 -76v-382h97v-53h-157v452c50 74 127 116 220 116c116 0 221 -63 221 -184v-207c0 -81 61 -135 150 -135c88 0 151 54 151 135v381h60z" />
    <glyph glyph-name="maihanakatleftthai" unicode="&#xf710;" 
d="M15 628h-383v111h58v-55h325v-56z" />
    <glyph glyph-name="nikhahitleftthai" unicode="&#xf711;" 
d="M-187 692c0 17 -14 29 -29 29c-16 0 -30 -12 -30 -29s14 -29 30 -29c15 0 29 12 29 29zM-285 692c0 40 32 68 69 68s68 -28 68 -68s-31 -67 -68 -67s-69 27 -69 67z" />
    <glyph glyph-name="maitaikhuleftthai" unicode="&#xf712;" 
d="M-98 742h-263c-49 0 -78 -26 -78 -61h53l79 47l75 -47h88v-53h-97l-66 43l-68 -43h-122v46c0 64 42 120 140 120h259v-52z" />
    <glyph glyph-name="maiekupperleftthai" unicode="&#xf713;" 
d="M-172 795h-60v98h60v-98z" />
    <glyph glyph-name="maithoupperleftthai" unicode="&#xf714;" 
d="M-80 795h-212v29c0 13 -4 21 -18 21h-19v51h28c37 0 60 -14 60 -48v-3h161v-50z" />
    <glyph glyph-name="maitriupperleftthai" unicode="&#xf715;" 
d="M21 795h-133v42c0 24 -11 36 -34 36l-66 -47l-64 47h-2c-25 0 -36 -12 -36 -35h50v-43h-99v50c0 49 41 78 90 78h5l56 -40l53 40h10c50 0 88 -29 88 -78h82v-50z" />
    <glyph glyph-name="maichattawaupperleftthai" unicode="&#xf716;" 
d="M-113 855h-63v-60h-50v60h-63v42h63v60h50v-60h63v-42z" />
    <glyph glyph-name="thanthakhatupperleftthai" unicode="&#xf717;" 
d="M-134 787h-46c-21 0 -33 -4 -33 -24v-24h-55v30c0 47 35 65 70 65h64v-47z" />
    <glyph glyph-name="saraulowthai" unicode="&#xf718;" 
d="M-56 -412h-60v105h-56v56h116v-161z" />
    <glyph glyph-name="sarauulowthai" unicode="&#xf719;" 
d="M-56 -251v-75c0 -55 -54 -93 -111 -93c-38 0 -81 17 -105 49v63h-43v56h103v-99c11 -14 35 -18 47 -18c25 0 49 15 49 40v77h60z" />
    <glyph glyph-name="phinthulowthai" unicode="&#xf71a;" 
d="M-56 -296c0 -25 -19 -44 -44 -44c-26 0 -45 19 -45 44s19 45 45 45c25 0 44 -20 44 -45z" />
    <glyph glyph-name="minus" unicode="&#xad;" horiz-adv-x="505" 
d="M463 206h-421v49h421v-49z" />
    <glyph glyph-name="uni0E33_1" horiz-adv-x="385" 
d="M331 0h-59v360c0 93 -46 153 -138 153c-43 0 -85 -19 -114 -40v63c19 11 64 32 115 32c136 0 196 -91 196 -198v-370zM-187 692c0 17 -14 29 -29 29c-16 0 -30 -12 -30 -29s14 -29 30 -29c15 0 29 12 29 29zM-285 692c0 40 32 68 69 68s68 -28 68 -68s-31 -67 -68 -67
s-69 27 -69 67z" />
    <glyph glyph-name="uni0E4E_1" 
d="M-36 958v-46c-99 13 -204 -11 -204 -65c0 -34 46 -41 82 -39v-44c-74 2 -171 -19 -171 -69c0 -37 68 -34 121 -6l21 -36c-89 -45 -194 -28 -194 39c0 52 57 91 120 100c-18 10 -32 32 -32 56c0 74 121 123 257 110z" />
    <glyph glyph-name="currency" unicode="&#xa4;" horiz-adv-x="572" 
d="M6 112l100 99c-28 37 -42 81 -42 131c0 51 14 95 42 128l-100 102l51 49l99 -99c37 26 80 40 131 40s99 -15 129 -40l102 99l48 -49l-99 -102c27 -36 41 -78 41 -128c0 -52 -14 -95 -41 -131l99 -99l-48 -52l-102 100c-34 -27 -83 -41 -129 -41c-50 0 -93 14 -131 41
l-99 -100zM130 340c0 -87 70 -157 157 -157s157 70 157 157s-70 157 -157 157s-157 -70 -157 -157z" />
    <glyph glyph-name="FL00A9h" unicode="&#xa9;" horiz-adv-x="737" 
d="M711 329c0 -192 -149 -343 -343 -343s-343 151 -343 343c0 193 149 342 343 342s343 -149 343 -342zM657 329c0 163 -123 293 -289 293s-288 -130 -288 -293c0 -164 122 -294 288 -294s289 130 289 294zM499 257h48c-13 -90 -84 -140 -170 -140c-126 0 -200 89 -200 212
c0 122 74 211 200 211c86 0 157 -50 170 -140h-48c-11 55 -54 98 -121 98c-100 0 -152 -74 -152 -169c0 -96 52 -170 152 -170c67 0 110 43 121 98z" />
    <glyph glyph-name="fongmanfunnuthai" unicode="&#xf880;" 
 />
    <glyph glyph-name="lochula.short" unicode="&#xf71d;" 
 />
    <glyph glyph-name="dollar" unicode="$" horiz-adv-x="522" 
d="M488 177c0 -43 -14 -178 -208 -185v-84h-34v84c-129 7 -219 74 -213 224h56c-3 -117 67 -162 157 -170v262c-97 26 -194 47 -194 176c0 63 36 180 194 183v77h34v-79c104 -9 187 -78 187 -199h-54c-4 88 -61 137 -133 146v-249c101 -23 208 -52 208 -186zM246 371v243
c-73 -3 -139 -36 -139 -129c0 -71 63 -96 139 -114zM432 176c0 81 -71 103 -152 124v-255c63 1 152 37 152 131z" />
    <glyph glyph-name="zerowidthnonjoiner" unicode="&#x200c;" 
 />
    <glyph glyph-name="zerowidthjoiner" unicode="&#x200d;" 
 />
    <glyph glyph-name="F881" 
 />
    <glyph glyph-name="maiekrochula" 
d="M-121 628h-60v139h60v-139z" />
    <glyph glyph-name="maieksarauee_1" 
d="M-105 795h-60v98h60v-98z" />
    <glyph glyph-name="maieksarauee_2" 
d="M-220 795h-60v98h60v-98z" />
    <glyph glyph-name="saraisp" 
d="M-134 628h-432v56h432v-56z" />
    <glyph glyph-name="saraiisp" 
d="M-134 628h-432v56h372v69h60v-125z" />
    <glyph glyph-name="numbersign" unicode="#" horiz-adv-x="519" 
d="M490 391h-102l-20 -144h97v-42h-102l-30 -205h-46l30 205h-137l-29 -205h-46l29 205h-102v42h107l20 144h-100v41h106l29 204h46l-29 -204h136l30 204h46l-30 -204h97v-41zM342 391h-137l-19 -144h136z" />
    <glyph glyph-name="trademark" unicode="&#x2122;" horiz-adv-x="787" 
d="M731 283h-49v285l-111 -285h-44l-111 282v-282h-49v374h57l126 -312l124 312h57v-374zM325 614h-126v-331h-48v331h-123v43h297v-43z" />
    <glyph glyph-name="cent" unicode="&#xa2;" horiz-adv-x="477" 
d="M392 272h54c-9 -99 -71 -180 -175 -191v-108h-48v108c-121 10 -192 112 -192 250c0 120 64 231 192 241v105h48v-105c110 -10 163 -80 170 -169h-53c-9 62 -41 110 -117 119v-391c68 11 111 67 121 141zM223 131v391c-90 -11 -137 -92 -137 -191c0 -108 49 -189 137 -200
z" />
    <glyph glyph-name="sterling" unicode="&#xa3;" horiz-adv-x="520" 
d="M465 93l26 -46c-31 -36 -68 -57 -123 -57c-81 0 -125 41 -194 41c-29 0 -72 -11 -106 -37l-35 49c59 45 100 110 100 169c0 32 -10 60 -26 92h-79v43h54c-26 55 -44 95 -44 145c0 109 88 179 208 179c128 0 223 -71 223 -216h-53c0 107 -73 163 -173 163
c-83 0 -147 -52 -147 -126c0 -51 25 -93 50 -145h162v-43h-136c12 -33 19 -57 19 -86c0 -53 -28 -109 -63 -147c115 24 175 -25 235 -25c42 0 75 21 102 47z" />
    <glyph glyph-name="yen" unicode="&#xa5;" horiz-adv-x="515" 
d="M526 657l-183 -293h116v-43h-142l-30 -48v-50h172v-43h-172v-180h-61v180h-170v43h170v50l-29 48h-141v43h114l-181 293h68l200 -326l201 326h68z" />
    <glyph glyph-name="onequarter" unicode="&#xbc;" horiz-adv-x="723" 
d="M685 96h-64v-96h-50v96h-187v39l192 264h45v-260h64v-43zM631 671l-473 -685h-46l471 685h48zM206 272h-50v297h-95v42c78 0 98 8 98 45v15h47v-399zM571 139v175l-125 -175h125z" />
    <glyph glyph-name="onehalf" unicode="&#xbd;" horiz-adv-x="723" 
d="M685 0h-285c-4 95 73 135 148 186c49 33 81 60 81 110c0 36 -29 64 -81 64c-88 0 -95 -80 -83 -113h-52c-13 54 7 159 135 159c81 0 131 -45 131 -112c0 -68 -40 -103 -92 -139c-51 -35 -113 -69 -127 -108h225v-47zM589 671l-473 -685h-46l471 685h48zM193 272h-51v297
h-95v42c79 0 98 8 98 45v15h48v-399z" />
    <glyph glyph-name="threequarters" unicode="&#xbe;" horiz-adv-x="723" 
d="M695 96h-64v-96h-51v96h-187v39l193 264h45v-260h64v-43zM668 671l-473 -685h-46l472 685h47zM332 382c0 -72 -60 -123 -144 -123c-82 0 -157 35 -153 158h51c-1 -85 44 -113 102 -113c48 0 92 31 92 78c0 50 -25 76 -115 74v45c79 -4 107 19 107 65c0 35 -31 59 -81 59
c-65 0 -98 -38 -95 -105h-51c-3 90 47 151 146 151c78 0 133 -40 133 -106c0 -46 -27 -73 -63 -85c50 -14 71 -53 71 -98zM580 139v175l-124 -175h124z" />
    </font>
</defs>
</svg>
