<svg xmlns="http://www.w3.org/2000/svg">
<defs>
<font id="PSL-Kanda-BoldItalic" horiz-adv-x="0" >
  <font-face 
    font-family="PSL-Kanda"
    font-weight="700"
    font-style="italic"
    font-stretch="normal"
    units-per-em="2048"
    panose-1="2 0 8 6 0 0 0 9 0 4"
    ascent="1638"
    descent="-410"
    x-height="698"
    cap-height="965"
    bbox="-633 -612 2137.06 1538.84"
    underline-thickness="51"
    underline-position="-186"
    slope="-12"
    unicode-range="U+0020-F882"
  />
<missing-glyph horiz-adv-x="1536" 
d="M528 1280h1024l-272 -1280h-1024zM1244 33q9 0 12 10l253 1194q3 10 -7 10h-938q-10 0 -13 -10l-253 -1194q-3 -10 8 -10h938zM712 -2h2h-2h2h-2zM767 -4h-2v2h2v-2zM767 -4h-2v2h2v-2zM779 -4v2h-4v-2v2h2h2v-2zM779 -2h-2h2zM794 -2v-2h4v2h-2h2v-2h-4v2h4h-4zM802 -2
v-2v2h-4v-2v2h4zM716 -4h-6l1 4h6zM716 -4h-6l1 4h6zM730 -4h-2v2h2v-2zM730 -4h-2v2h2v-2zM734 -2v-2v2h-2h2zM769 -4h2h-2v2v-2zM843 -4h-4v2h4v-2zM843 -4h-4v2h4v-2zM833 -4h2v2v-2h-2v2v-2zM806 -2h-2v-2v2h-2h4zM759 -2v-2h-2v2h2h-2h2zM757 -4v2h2v-2h-2zM761 -2v-2
v2h4h-4zM765 -2h-4h4zM794 -4v2v-2zM720 -4h4h-4zM720 -2v-2v2h4h-4h4h-4zM673 -2v-2h4h-4v2h4h-4zM726 -4h-2v2h2v-2zM726 -4h-2v2h2v-2zM681 -2v-2v2h2h-2zM683 -2h-2h2zM681 -4h-4v2h4v-2zM681 -4h-4v2h4v-2zM689 -2h-2v-2v2h-2h4zM783 -4h2h-2v2v-2zM781 -4h2h-2v2v-2z
M753 -2h2v-2v2h-2v-2v2zM816 -2v-2v2h-4v-2v2h2h2zM814 -2h-2h2zM761 -4v2v-2zM695 -2v-2h2v2h-2h2v-2h-2v2h2h-2zM701 -2v-2v2h-2v-2v2h2zM708 -2h-2v-2v2h-2h4zM693 -4v2v-2zM693 -2v-2v2h-4v-2v2h2h2zM691 -2h-2h2zM833 -2v-2v2h-5v-2v2h2h3zM830 -2h-2h2zM839 -4h-4h4z
M839 -2h-4h4zM839 -2h-4h4zM751 -4h-2h2zM751 -4v2h-2v-2v2h2v-2zM751 -2h-2h2zM824 -4h4h-4zM828 -2h-4h4zM828 -2h-4h4zM810 -2v-2h-2h2v2h-2h2zM810 -2h-2h2zM824 -2v-2h-4h4v2h-4h4zM824 -2h-4h4zM820 -4h-4h4zM820 -2h-4h4zM820 -2h-4h4zM792 -4v2h-2v-2v2h2v-2z
M792 -2h-2h2zM747 -4h-3h3zM747 -2h-3h3zM747 -2h-3h3zM738 -4h4v2v-2h-4v2v-2zM740 -4v2v-2z" />
    <glyph glyph-name="trademark" unicode="&#x3b;&#x3b;Trademark&#x3b;&#x3b;" horiz-adv-x="1993" 
d="M1169 1165q30 0 24 -28q-6 -33 -37 -33h-371l-107 -506q-3 -14 -34 -14t-28 14l107 506h-368q-32 0 -26 33q6 28 39 28h801zM2061 1077l-445 -485q-11 -10 -31 -10q-17 0 -26 10l-237 485l-97 -459q-7 -34 -38 -34q-33 0 -26 34l111 521q6 28 37 28q18 0 36 -12l254 -510
l471 510q22 12 44 12q28 0 22 -28l-111 -521q-7 -34 -37 -34q-31 0 -24 34z" />
    <glyph glyph-name="multiply" unicode="&#x3b;&#x3b;Multiply&#x3b;&#x3b;" horiz-adv-x="1083" 
d="M653 530l-315 -260q-17 -12 -26 -12q-10 0 -19 12q-9 11 -6 23q1 8 15 20l318 262l-207 261q-8 11 -7 20q3 12 16 23q15 12 25 12q9 0 20 -12l205 -261l317 261q13 12 23 12q12 0 20 -12q8 -10 5 -23q-1 -10 -14 -20l-315 -261l204 -262q8 -9 6 -20q-3 -13 -15 -23
q-14 -12 -26 -12q-10 0 -17 12z" />
    <glyph glyph-name="divide" unicode="&#x3b;&#x3b;Divide&#x3b;&#x3b;" horiz-adv-x="1292" 
d="M1175 606q30 0 24 -31q-8 -30 -37 -30h-801q-32 0 -24 30q6 31 37 31h801zM715 362q23 0 36 -16t8 -39t-23.5 -39t-43.5 -16q-20 0 -33 16t-8 39t24.5 39t39.5 16zM834 920q23 0 35.5 -16.5t7.5 -39.5q-5 -20 -23 -36.5t-43 -16.5q-20 0 -33.5 16.5t-8.5 36.5
q5 23 25 39.5t40 16.5z" />
    <glyph glyph-name="fi" unicode="fi" horiz-adv-x="740" 
d="M577 866q-31 11 -61 11q-86 0 -102 -74l-22 -105h131l-21 -100h-131l-127 -598h-113l127 598h-115l19 100h117l22 105q38 176 226 176q50 0 71 -12zM766 825h-113l30 140h113zM591 0h-113l148 698h113z" />
    <glyph glyph-name="fl" unicode="fl" horiz-adv-x="709" 
d="M577 866q-31 11 -61 11q-86 0 -102 -74l-22 -105h131l-21 -100h-131l-127 -598h-113l127 598h-115l19 100h117l22 105q38 176 226 176q50 0 71 -12zM588 0h-113l207 974h113z" />
    <glyph glyph-name="ffi" unicode="ffi" horiz-adv-x="1160" 
d="M577 866q-31 11 -61 11q-86 0 -102 -74l-22 -105h131l-21 -100h-131l-127 -598h-113l127 598h-115l19 100h117l22 105q38 176 226 176q50 0 71 -12zM1038 866q-31 11 -61 11q-86 0 -102 -74l-22 -105h131l-21 -100h-131l-127 -598h-113l127 598h-115l19 100h117l22 105
q38 176 226 176q50 0 71 -12zM1227 825h-113l30 140h113zM1052 0h-113l148 698h113z" />
    <glyph glyph-name="ffl" unicode="ffl" horiz-adv-x="1155" 
d="M577 866q-31 11 -61 11q-86 0 -102 -74l-22 -105h131l-21 -100h-131l-127 -598h-113l127 598h-115l19 100h117l22 105q38 176 226 176q50 0 71 -12zM1038 866q-31 11 -61 11q-86 0 -102 -74l-22 -105h131l-21 -100h-131l-127 -598h-113l127 598h-115l19 100h117l22 105
q38 176 226 176q50 0 71 -12zM1052 0h-113l207 974h113z" />
    <glyph glyph-name="Rulakkhangyao" unicode="&#xc4;&#xd2;" horiz-adv-x="1316" 
d="M720 557q37 174 -184 174q-86 0 -154.5 -33.5t-88.5 -79.5q56 -51 49 -83q-5 -23 -39 -58t-40 -63l-66 -312h127l-21 -102h-242l89 422q6 27 44.5 58.5t42.5 47.5q5 27 -71 72q30 105 147 170q110 64 247 64q143 0 220 -62q85 -72 57 -203l-172 -813h-115l172 809z
M1123 -244h-114l182 858q23 107 -131 107q-37 0 -82 -8l22 104q49 8 94 8q256 0 216 -188z" />
    <glyph glyph-name="Lulakkhangyao" unicode="&#xc6;&#xd2;" horiz-adv-x="1327" 
d="M1123 -244h-114l182 858q23 107 -131 107q-37 0 -82 -8l22 104q49 8 94 8q256 0 216 -188zM685 -244h-114l170 801q37 174 -185 174q-86 0 -154 -33.5t-89 -79.5q57 -51 50 -83q-5 -23 -39 -58t-40 -63l-87 -414h-187l22 104h72l67 318q6 27 44 58.5t42 47.5q5 27 -71 72
q31 105 147 170q110 64 247 64q144 0 221 -62q84 -72 56 -203z" />
    <glyph glyph-name=".notdef" horiz-adv-x="1536" 
d="M528 1280h1024l-272 -1280h-1024zM1244 33q9 0 12 10l253 1194q3 10 -7 10h-938q-10 0 -13 -10l-253 -1194q-3 -10 8 -10h938zM712 -2h2h-2h2h-2zM767 -4h-2v2h2v-2zM767 -4h-2v2h2v-2zM779 -4v2h-4v-2v2h2h2v-2zM779 -2h-2h2zM794 -2v-2h4v2h-2h2v-2h-4v2h4h-4zM802 -2
v-2v2h-4v-2v2h4zM716 -4h-6l1 4h6zM716 -4h-6l1 4h6zM730 -4h-2v2h2v-2zM730 -4h-2v2h2v-2zM734 -2v-2v2h-2h2zM769 -4h2h-2v2v-2zM843 -4h-4v2h4v-2zM843 -4h-4v2h4v-2zM833 -4h2v2v-2h-2v2v-2zM806 -2h-2v-2v2h-2h4zM759 -2v-2h-2v2h2h-2h2zM757 -4v2h2v-2h-2zM761 -2v-2
v2h4h-4zM765 -2h-4h4zM794 -4v2v-2zM720 -4h4h-4zM720 -2v-2v2h4h-4h4h-4zM673 -2v-2h4h-4v2h4h-4zM726 -4h-2v2h2v-2zM726 -4h-2v2h2v-2zM681 -2v-2v2h2h-2zM683 -2h-2h2zM681 -4h-4v2h4v-2zM681 -4h-4v2h4v-2zM689 -2h-2v-2v2h-2h4zM783 -4h2h-2v2v-2zM781 -4h2h-2v2v-2z
M753 -2h2v-2v2h-2v-2v2zM816 -2v-2v2h-4v-2v2h2h2zM814 -2h-2h2zM761 -4v2v-2zM695 -2v-2h2v2h-2h2v-2h-2v2h2h-2zM701 -2v-2v2h-2v-2v2h2zM708 -2h-2v-2v2h-2h4zM693 -4v2v-2zM693 -2v-2v2h-4v-2v2h2h2zM691 -2h-2h2zM833 -2v-2v2h-5v-2v2h2h3zM830 -2h-2h2zM839 -4h-4h4z
M839 -2h-4h4zM839 -2h-4h4zM751 -4h-2h2zM751 -4v2h-2v-2v2h2v-2zM751 -2h-2h2zM824 -4h4h-4zM828 -2h-4h4zM828 -2h-4h4zM810 -2v-2h-2h2v2h-2h2zM810 -2h-2h2zM824 -2v-2h-4h4v2h-4h4zM824 -2h-4h4zM820 -4h-4h4zM820 -2h-4h4zM820 -2h-4h4zM792 -4v2h-2v-2v2h2v-2z
M792 -2h-2h2zM747 -4h-3h3zM747 -2h-3h3zM747 -2h-3h3zM738 -4h4v2v-2h-4v2v-2zM740 -4v2v-2z" />
    <glyph glyph-name=".null" 
 />
    <glyph glyph-name="nonmarkingreturn" horiz-adv-x="580" 
 />
    <glyph glyph-name="space" unicode=" " horiz-adv-x="690" 
 />
    <glyph glyph-name="exclam" unicode="!" horiz-adv-x="344" 
d="M377 664l-124 -416h-56l53 416l64 301h127zM246 0h-148l31 150h148z" />
    <glyph glyph-name="quotedbl" unicode="&#x22;" horiz-adv-x="563" 
d="M550 616h-90l75 349h90zM366 616h-91l75 349h91z" />
    <glyph glyph-name="numbersign" unicode="#" horiz-adv-x="737" 
d="M813 573h-131l-69 -202h118l-19 -92h-133l-98 -279h-90l98 279h-166l-96 -279h-92l96 279h-127l19 92h141l72 202h-135l20 93h147l96 276h92l-98 -276h164l98 276h92l-98 -276h119zM590 573h-164l-69 -202h163z" />
    <glyph glyph-name="dollar" unicode="$" horiz-adv-x="858" 
d="M862 254q-25 -121 -141 -197q-105 -65 -250 -75l-29 -134h-90l29 134q-145 12 -218 94q-81 92 -47 241h119q-24 -94 28 -157q47 -60 140 -72l77 363q-157 41 -205 81q-71 62 -43 195q24 113 131 184q98 66 231 74l28 133h90l-28 -133q265 -24 228 -303h-117
q17 170 -134 197l-70 -330q167 -45 213 -80q90 -68 58 -215zM506 573l66 308q-184 -19 -213 -154q-16 -74 19 -104q25 -23 128 -50zM738 256q16 76 -31 115q-35 28 -142 57l-72 -340q212 14 245 168z" />
    <glyph glyph-name="percent" unicode="%" horiz-adv-x="1325" 
d="M1261 270q-25 -116 -88 -194q-74 -88 -183 -88q-215 0 -156 276q24 113 85 182q74 82 180 82q217 0 162 -258zM1280 977l-925 -1006h-112l925 1006h112zM697 700q-24 -116 -88 -194q-75 -90 -183 -90q-215 0 -156 278q24 113 86 183q72 81 179 81q217 0 162 -258z
M1162 268q32 185 -77 185q-112 0 -153 -191q-43 -201 71 -201q64 0 109 70q37 55 50 137zM599 698q30 185 -78 185q-113 0 -153 -191q-43 -200 72 -200q63 0 109 69q36 55 50 137z" />
    <glyph glyph-name="ampersand" unicode="&#x26;" horiz-adv-x="836" 
d="M856 0h-149l-72 119q-143 -135 -291 -135q-129 0 -198 59q-77 72 -48 207q20 98 97 170q59 55 185 121q-77 133 -58 223q19 88 91.5 144.5t168.5 56.5q100 0 150.5 -56.5t31.5 -144.5q-28 -133 -230 -244l130 -209q39 68 61 144h106q-40 -133 -111 -234zM648 762
q10 43 -14.5 72.5t-69.5 29.5q-47 0 -84 -28.5t-46 -71.5q-15 -70 37 -143l17 -25q139 76 160 166zM587 201l-159 264q-96 -47 -134 -80q-60 -53 -77 -135q-15 -70 31 -117t122 -47q115 0 217 115z" />
    <glyph glyph-name="quotesingle" unicode="'" horiz-adv-x="367" 
d="M359 616h-90l75 349h90z" />
    <glyph glyph-name="parenleft" unicode="(" horiz-adv-x="344" 
d="M567 987q-237 -287 -309 -620q-73 -330 41 -635h-84q-143 331 -76 635q78 358 340 620h88z" />
    <glyph glyph-name="parenright" unicode=")" horiz-adv-x="344" 
d="M359 367q-63 -304 -346 -635h-81q239 305 308 635q68 333 -45 620h86q152 -262 78 -620z" />
    <glyph glyph-name="asterisk" unicode="*" horiz-adv-x="475" 
d="M612 801l-156 -51l62 -123l-64 -41l-67 129l-113 -129l-53 41l114 123l-132 51l38 65l132 -53l33 152h71l-33 -152l156 53z" />
    <glyph glyph-name="plus" unicode="+" horiz-adv-x="748" 
d="M748 295h-266l-57 -268h-92l57 268h-267l20 92h267l56 264h92l-56 -264h266z" />
    <glyph glyph-name="comma" unicode="," horiz-adv-x="330" 
d="M267 47q-23 -110 -163 -190l-40 32q79 43 117 107q-15 -4 -29 -4q-31 0 -51 22.5t-13 55.5q7 32 38.5 59t66.5 27q98 0 74 -109z" />
    <glyph glyph-name="hyphen" unicode="-" horiz-adv-x="516" 
d="M519 322h-385l23 108h385z" />
    <glyph glyph-name="period" unicode="." horiz-adv-x="330" 
d="M263 72q-7 -33 -36.5 -56.5t-64.5 -23.5t-54 22.5t-11 57.5q7 34 37 59t63 25q35 0 54 -25t12 -59z" />
    <glyph glyph-name="slash" unicode="/" horiz-adv-x="442" 
d="M674 987l-607 -1007h-94l603 1007h98z" />
    <glyph glyph-name="zero" unicode="0" horiz-adv-x="748" 
d="M797 506q-56 -264 -130 -373q-104 -149 -304 -149q-179 0 -222 143q-36 119 17 367q98 464 418 464q317 0 221 -452zM676 504q75 356 -119 356q-121 0 -194 -123q-49 -84 -83 -245q-41 -193 -28 -279q15 -129 136 -129q123 0 195 125q49 90 93 295z" />
    <glyph glyph-name="one" unicode="1" horiz-adv-x="748" 
d="M479 0h-117l145 686h-247l20 92q245 0 314 180h88z" />
    <glyph glyph-name="two" unicode="2" horiz-adv-x="748" 
d="M812 700q-31 -147 -147 -245q-57 -49 -228 -140q-222 -118 -254 -215h495l-21 -100h-626q36 154 155 260q79 70 273 174q106 58 160 115t73 145q13 62 -31 112t-122 50q-88 0 -156 -70.5t-78 -167.5h-117q26 160 133 250t257 90q121 0 189.5 -72.5t44.5 -185.5z" />
    <glyph glyph-name="three" unicode="3" horiz-adv-x="748" 
d="M744 266q-28 -131 -144 -209q-107 -71 -241 -71q-155 0 -222 82t-35 229h113q-22 -102 27 -158q44 -53 138 -53q82 0 152 51t87 129q40 189 -171 189q-28 0 -60 -4l21 98q227 -21 266 166q13 61 -24.5 101t-107.5 40q-188 0 -232 -207h-115q29 133 116 215q100 94 249 94
q129 0 194.5 -67.5t42.5 -177.5q-29 -135 -180 -203q169 -41 126 -244z" />
    <glyph glyph-name="four" unicode="4" horiz-adv-x="748" 
d="M741 225h-121l-47 -225h-116l47 225h-422l24 111l570 622h100l-134 -632h121zM526 326l96 454l-416 -454h320z" />
    <glyph glyph-name="five" unicode="5" horiz-adv-x="748" 
d="M755 326q-33 -154 -143.5 -247t-252.5 -93q-143 0 -214 75.5t-46 196.5h115q-15 -74 34 -123t128 -49q97 0 164 62.5t90 170.5q20 91 -26 151t-148 60q-100 0 -193 -92l-97 6l194 498h473l-22 -100h-385l-112 -279q84 68 195 68q147 0 213 -94q60 -84 33 -211z" />
    <glyph glyph-name="six" unicode="6" horiz-adv-x="748" 
d="M764 305q-30 -141 -130 -227q-107 -92 -262 -92q-326 0 -224 483q44 205 148 336q122 153 296 153q266 0 229 -245h-111q-3 143 -132 143q-213 0 -312 -364q114 122 270 122q139 0 198 -86t30 -223zM639 303q19 92 -17 150q-42 61 -138 61q-82 0 -148.5 -61.5
t-85.5 -147.5q-18 -88 20.5 -153.5t120.5 -65.5q100 0 167 66q61 59 81 151z" />
    <glyph glyph-name="seven" unicode="7" horiz-adv-x="748" 
d="M865 844q-448 -381 -546 -844h-129q45 215 220 467q159 225 334 367h-501l23 108h620z" />
    <glyph glyph-name="eight" unicode="8" horiz-adv-x="748" 
d="M755 270q-25 -118 -138 -203t-246 -85q-137 0 -214.5 81.5t-52.5 198.5q38 180 215 256q-109 70 -81 199q21 100 119 170.5t217 70.5q116 0 184 -70.5t47 -170.5q-27 -127 -163 -197q150 -74 113 -250zM688 705q14 63 -26 108t-105 45q-70 0 -128.5 -45t-72.5 -108
q-13 -64 26.5 -109t107.5 -45q67 0 126 45t72 109zM635 272q17 78 -30.5 130.5t-131.5 52.5t-153.5 -52.5t-86.5 -130.5q-17 -82 24.5 -133t137.5 -51q84 0 154 52.5t86 131.5z" />
    <glyph glyph-name="nine" unicode="9" horiz-adv-x="748" 
d="M792 473q-44 -205 -147 -336q-122 -151 -296 -151q-266 0 -229 243h110q3 -143 132 -143q213 0 313 365q-114 -123 -270 -123q-139 0 -198.5 86t-30.5 223q30 141 130 227q108 94 264 94q325 0 222 -485zM690 637q19 88 -17 151q-41 68 -123 68q-101 0 -165 -62.5
t-84 -154.5q-19 -92 20 -151.5t136 -59.5q82 0 148.5 61.5t84.5 147.5z" />
    <glyph glyph-name="colon" unicode=":" horiz-adv-x="330" 
d="M370 578q-7 -33 -36.5 -57.5t-64.5 -24.5t-53.5 23.5t-11.5 58.5q8 34 37.5 59t62.5 25q35 0 54.5 -25t11.5 -59zM263 72q-7 -33 -36.5 -56.5t-64.5 -23.5t-54 22.5t-11 57.5q7 34 37 59t63 25q35 0 54 -25t12 -59z" />
    <glyph glyph-name="semicolon" unicode=";" horiz-adv-x="330" 
d="M370 578q-7 -33 -36.5 -57.5t-64.5 -24.5t-53.5 23.5t-11.5 58.5q8 34 37.5 59t62.5 25q35 0 54.5 -25t11.5 -59zM267 47q-23 -110 -163 -190l-40 32q79 43 117 107q-15 -4 -29 -4q-31 0 -51 22.5t-13 55.5q7 32 38.5 59t66.5 27q98 0 74 -109z" />
    <glyph glyph-name="less" unicode="&#x3c;" horiz-adv-x="795" 
d="M733 -8l-611 309l18 82l742 311l-20 -92l-620 -260l510 -260z" />
    <glyph glyph-name="equal" unicode="=" horiz-adv-x="748" 
d="M776 426h-625l20 92h625zM720 164h-625l20 92h625z" />
    <glyph glyph-name="greater" unicode="&#x3e;" horiz-adv-x="795" 
d="M798 301l-741 -309l19 90l621 260l-511 260l20 92l610 -311z" />
    <glyph glyph-name="question" unicode="?" horiz-adv-x="748" 
d="M799 717q-21 -96 -96 -172q-68 -58 -135 -115q-74 -68 -89 -141l-10 -45h-113l12 55q15 72 69 133q25 29 100 92q67 56 90 84q46 56 55 121q24 158 -127 158q-91 0 -151.5 -62.5t-80.5 -160.5h-112q28 141 128.5 232t236.5 91q125 0 187.5 -71.5t35.5 -198.5zM465 78
q-8 -39 -38 -62.5t-67 -23.5q-36 0 -56 23.5t-12 62.5q8 37 38 61.5t66 24.5q37 0 57 -24.5t12 -61.5z" />
    <glyph glyph-name="at" unicode="@" horiz-adv-x="1081" 
d="M1135 551q-27 -127 -144 -244q-128 -127 -263 -127q-59 0 -57 90q-108 -94 -204 -94q-78 0 -115.5 63.5t-17.5 159.5q23 105 111 215q129 160 301 160q94 0 114 -110l49 86h86l-213 -424q-7 -15 -10 -27q-9 -43 30 -43q65 0 150 121q76 104 91 176q32 152 -49.5 255
t-243.5 103q-168 0 -310 -108q-156 -117 -197 -311q-42 -199 48 -320t272 -121q115 0 204 39q80 35 181 125h80q-75 -104 -208 -169.5t-276 -65.5q-215 0 -321 133q-113 141 -61 383q47 221 228 360q169 131 378 131q205 0 306 -124t61 -312zM744 438q37 58 48 111
q13 59 -9.5 96t-69.5 37q-127 0 -230 -172q-32 -53 -44 -107q-29 -135 78 -135q119 0 227 170z" />
    <glyph glyph-name="A" unicode="A" horiz-adv-x="858" 
d="M868 0h-139l-41 291h-400l-167 -291h-129l573 965h138zM670 399l-62 451l-256 -451h318z" />
    <glyph glyph-name="B" unicode="B" horiz-adv-x="907" 
d="M905 270q-26 -120 -125.5 -195t-228.5 -75h-449l205 965h420q150 0 209 -76q48 -62 29 -152q-35 -164 -187 -227q165 -59 127 -240zM830 698q22 103 -39 138q-39 20 -141 20h-240l-64 -305h236q217 0 248 147zM784 287q19 92 -50 127q-53 28 -176 28h-236l-70 -333h260
q111 0 170 30q79 41 102 148z" />
    <glyph glyph-name="C" unicode="C" horiz-adv-x="956" 
d="M978 365q-59 -183 -187 -285.5t-307 -102.5q-206 0 -290.5 139.5t-33.5 381.5q44 204 195 346.5t350 142.5q166 0 256.5 -86t74.5 -227h-125q5 207 -228 207q-150 0 -262 -121q-101 -109 -134 -266q-37 -170 12 -279q55 -127 206 -127q261 0 348 277h125z" />
    <glyph glyph-name="D" unicode="D" horiz-adv-x="934" 
d="M993 522q-110 -522 -557 -522h-334l205 965h338q222 0 310 -131q80 -117 38 -312zM864 522q40 185 -38 264q-67 70 -237 70h-179l-158 -747h193q194 0 301 129q78 96 118 284z" />
    <glyph glyph-name="E" unicode="E" horiz-adv-x="809" 
d="M760 0h-658l205 965h654l-24 -109h-527l-64 -305h492l-24 -109h-492l-70 -333h531z" />
    <glyph glyph-name="F" unicode="F" horiz-adv-x="760" 
d="M906 856h-496l-64 -305h435l-24 -109h-435l-93 -442h-127l205 965h623z" />
    <glyph glyph-name="G" unicode="G" horiz-adv-x="1006" 
d="M924 0h-80l-6 121q-159 -141 -351 -141q-193 0 -284 145t-43 369q43 204 192 344q158 149 363 149q348 0 340 -317h-122q-16 110 -57 153q-52 58 -181 58q-154 0 -270 -123q-108 -111 -142 -271q-37 -172 26 -282q65 -117 213 -117q139 0 240.5 83t132.5 228h-303l23 109
h416z" />
    <glyph glyph-name="H" unicode="H" horiz-adv-x="956" 
d="M852 0h-125l93 442h-498l-93 -442h-127l205 965h127l-88 -414h498l88 414h125z" />
    <glyph glyph-name="I" unicode="I" horiz-adv-x="344" 
d="M236 0h-127l205 965h127z" />
    <glyph glyph-name="J" unicode="J" horiz-adv-x="688" 
d="M638 258q-59 -278 -336 -278q-149 0 -198.5 80.5t-5.5 256.5h123q-65 -233 103 -233q107 0 157 92q20 35 41 131l140 658h127z" />
    <glyph glyph-name="K" unicode="K" horiz-adv-x="883" 
d="M887 0h-158l-239 487l-190 -149l-71 -338h-127l205 965h127l-103 -482l585 482h159l-480 -390z" />
    <glyph glyph-name="L" unicode="L" horiz-adv-x="737" 
d="M731 0h-629l205 965h127l-182 -856h502z" />
    <glyph glyph-name="M" unicode="M" horiz-adv-x="1153" 
d="M1049 0h-119l172 811l-471 -811h-107l-125 819l-174 -819h-119l205 965h173l123 -811l472 811h175z" />
    <glyph glyph-name="N" unicode="N" horiz-adv-x="956" 
d="M854 0h-133l-335 778l-165 -778h-119l205 965h131l337 -783l167 783h117z" />
    <glyph glyph-name="O" unicode="O" horiz-adv-x="1008" 
d="M1061 485q-46 -215 -201 -358q-158 -147 -359 -147q-207 0 -303 147q-93 141 -46 358q45 215 203 360.5t361 145.5q196 0 293 -146.5t52 -359.5zM938 483q36 170 -31 285t-214 115q-152 0 -265 -114t-150 -286q-36 -170 29.5 -284.5t215.5 -114.5q149 0 264 114.5
t151 284.5z" />
    <glyph glyph-name="P" unicode="P" horiz-adv-x="858" 
d="M955 688q-34 -160 -146 -233q-89 -60 -208 -60h-289l-83 -395h-127l205 965h377q330 0 271 -277zM826 682q38 176 -175 176h-240l-75 -354h228q108 0 166 33q74 41 96 145z" />
    <glyph glyph-name="Q" unicode="Q" horiz-adv-x="1008" 
d="M1061 485q-50 -233 -227 -383l106 -102l-84 -82l-122 119q-108 -57 -233 -57q-207 0 -303 147q-93 141 -46 358q45 215 203 360.5t361 145.5q196 0 293 -146.5t52 -359.5zM938 483q36 170 -31 285t-214 115q-152 0 -265 -114t-150 -286q-36 -170 29.5 -284.5
t215.5 -114.5q65 0 135 27l-87 86l83 79l105 -102q138 117 179 309z" />
    <glyph glyph-name="R" unicode="R" horiz-adv-x="907" 
d="M872 0h-141q-16 20 -8 88q9 76 21 150q10 96 -22.5 135t-116.5 39h-289l-87 -412h-127l205 965h445q119 0 186 -56q77 -65 52 -184q-44 -205 -222 -260q122 -25 103 -180q-9 -82 -17.5 -165t18.5 -120zM858 692q20 94 -31 131q-42 33 -154 33h-263l-71 -336h256
q226 0 263 172z" />
    <glyph glyph-name="S" unicode="S" horiz-adv-x="858" 
d="M862 254q-27 -131 -159 -207q-118 -67 -274 -67q-162 0 -251 81q-98 95 -62 256h119q-27 -108 41 -172q64 -59 174 -59q252 0 288 170q19 88 -49 127q-36 23 -194 63q-169 43 -215 82q-77 62 -48 199q26 121 145 193q108 67 252 67q325 0 283 -305h-117q19 201 -182 201
q-98 0 -168 -40t-86 -116q-17 -80 29 -111q24 -16 166 -57q201 -57 237 -82q105 -67 71 -223z" />
    <glyph glyph-name="T" unicode="T" horiz-adv-x="760" 
d="M939 856h-314l-181 -856h-127l181 856h-315l24 109h756z" />
    <glyph glyph-name="U" unicode="U" horiz-adv-x="956" 
d="M931 346q-39 -182 -161 -275.5t-304 -93.5q-170 0 -249 89q-85 96 -49 268l135 631h127l-133 -625q-24 -113 24 -180q49 -74 166 -74q264 0 318 256l133 623h125z" />
    <glyph glyph-name="V" unicode="V" horiz-adv-x="809" 
d="M1018 965l-541 -965h-143l-129 965h135l93 -836l452 836h133z" />
    <glyph glyph-name="W" unicode="W" horiz-adv-x="1227" 
d="M1415 965l-457 -965h-131l-47 811l-391 -811h-131l-37 965h129l15 -807l385 807h135l40 -811l365 811h125z" />
    <glyph glyph-name="X" unicode="X" horiz-adv-x="809" 
d="M811 0h-154l-167 399l-347 -399h-143l435 496l-212 469h150l154 -377l331 377h140l-416 -469z" />
    <glyph glyph-name="Y" unicode="Y" horiz-adv-x="858" 
d="M1061 965l-484 -572l-83 -393h-127l83 393l-243 572h150l186 -459l377 459h141z" />
    <glyph glyph-name="Z" unicode="Z" horiz-adv-x="809" 
d="M780 0h-749l23 109l748 747h-547l24 109h690l-24 -109l-746 -747h604z" />
    <glyph glyph-name="bracketleft" unicode="[" horiz-adv-x="344" 
d="M287 -266h-248l266 1253h248l-19 -90h-143l-227 -1071h143z" />
    <glyph glyph-name="backslash" unicode="\" horiz-adv-x="442" 
d="M460 -20h-98l-176 1007h95z" />
    <glyph glyph-name="bracketright" unicode="]" horiz-adv-x="344" 
d="M191 -266h-247l20 92h142l227 1071h-143l19 90h248z" />
    <glyph glyph-name="asciicircum" unicode="^" horiz-adv-x="795" 
d="M804 356h-92l-138 488l-339 -488h-94l413 586h86z" />
    <glyph glyph-name="underscore" unicode="_" horiz-adv-x="748" 
d="M707 -190h-747l20 92h747z" />
    <glyph glyph-name="grave" unicode="`" horiz-adv-x="295" 
d="M397 795h-86l-131 192h144z" />
    <glyph glyph-name="a" unicode="a" horiz-adv-x="711" 
d="M692 0q-38 -14 -79 -14q-106 0 -76 106q-132 -106 -266 -106q-223 0 -182 196q24 111 115 162q58 33 187 55q143 25 156 29q58 21 70 78q23 108 -131 108q-161 0 -196 -133h-114q24 103 109 167.5t222 64.5q269 0 230 -183l-83 -393q-12 -53 18 -53q15 0 39 8zM561 250
l23 108q-48 -22 -206.5 -44.5t-172.5 -125.5q-13 -102 128 -102q74 0 143.5 47t84.5 117z" />
    <glyph glyph-name="b" unicode="b" horiz-adv-x="784" 
d="M817 367q-46 -215 -179 -314q-97 -69 -214 -69q-145 0 -203 112l-20 -96h-113l205 965h113l-78 -367q89 117 247 117q141 0 210 -103q62 -100 32 -245zM696 367q20 98 -19 171.5t-129 73.5q-221 0 -277 -262q-24 -112 10 -182q40 -82 155 -82q104 0 173 88q62 76 87 193z
" />
    <glyph glyph-name="c" unicode="c" horiz-adv-x="711" 
d="M724 256q-96 -270 -356 -270q-156 0 -218.5 98t-26.5 268q34 160 140.5 261.5t258.5 101.5q137 0 203 -70q57 -65 39 -170h-113q3 139 -148 139q-103 0 -175 -79q-64 -70 -87 -181q-24 -112 6 -182q33 -86 138 -86q168 0 224 170h115z" />
    <glyph glyph-name="d" unicode="d" horiz-adv-x="784" 
d="M696 0h-112l20 96q-90 -112 -252 -112q-112 0 -182 73q-91 103 -47 310q30 145 138.5 246.5t249.5 101.5q158 0 200 -117l78 367h112zM662 350q56 262 -163 262q-93 0 -164 -73.5t-91 -171.5q-26 -119 1 -193q35 -88 140 -88q114 0 189 82q64 70 88 182z" />
    <glyph glyph-name="e" unicode="e" horiz-adv-x="711" 
d="M746 315h-514q-24 -88 15 -153q43 -76 146 -76q155 0 210 135h111q-103 -235 -346 -235q-146 0 -214 99t-36 253q35 162 136 264q112 113 272 113q151 0 209 -125q53 -115 11 -275zM647 416q18 84 -27.5 142t-127.5 58q-79 0 -149 -59t-87 -141h391z" />
    <glyph glyph-name="f" unicode="f" horiz-adv-x="391" 
d="M577 866q-31 11 -61 11q-86 0 -102 -74l-22 -105h131l-21 -100h-131l-127 -598h-113l127 598h-115l19 100h117l22 105q38 176 226 176q50 0 71 -12z" />
    <glyph glyph-name="g" unicode="g" horiz-adv-x="760" 
d="M685 47q-28 -135 -111 -223q-103 -107 -264 -107q-131 0 -202 55.5t-51 151.5h112q-9 -53 37 -83.5t124 -30.5q186 0 256 270l11 45q-93 -131 -239 -131q-159 0 -217 110q-50 97 -17 252q31 146 131 248q107 111 246 111q156 0 195 -117l21 100h107zM639 360
q54 254 -153 254q-88 0 -155 -74.5t-89 -181.5q-24 -110 4 -180q35 -84 135 -84q99 0 172 84q63 76 86 182z" />
    <glyph glyph-name="h" unicode="h" horiz-adv-x="737" 
d="M651 0h-110l102 481q10 47 -11 86q-29 47 -101 47q-92 0 -160 -56t-90 -159l-84 -399h-113l205 965h113l-80 -375q83 125 261 125q96 0 145 -59.5t26 -168.5z" />
    <glyph glyph-name="i" unicode="i" horiz-adv-x="295" 
d="M380 825h-113l30 140h113zM205 0h-113l148 698h113z" />
    <glyph glyph-name="j" unicode="j" horiz-adv-x="295" 
d="M380 825h-113l30 140h113zM185 -92q-37 -176 -200 -176q-33 0 -55 10l21 100q27 -6 46 -6q60 0 79 90l164 772h113z" />
    <glyph glyph-name="k" unicode="k" horiz-adv-x="688" 
d="M688 0h-143l-159 365l-125 -101l-56 -264h-113l205 965h113l-122 -572l376 305h152l-327 -254z" />
    <glyph glyph-name="l" unicode="l" horiz-adv-x="295" 
d="M205 0h-113l205 965h113z" />
    <glyph glyph-name="m" unicode="m" horiz-adv-x="1130" 
d="M1047 0h-113l93 442q37 172 -88 172q-82 0 -144 -47t-77 -118l-95 -449h-115l95 451q35 163 -86 163q-96 0 -165 -73q-52 -54 -64 -111l-91 -430h-113l148 698h106l-22 -102q107 119 253 119q149 0 159 -119q101 119 257 119q100 0 145 -54.5t26 -146.5z" />
    <glyph glyph-name="n" unicode="n" horiz-adv-x="737" 
d="M651 0h-110l96 453q34 161 -99 161q-93 0 -163.5 -53t-92.5 -158l-85 -403h-113l148 698h106l-24 -112q93 129 273 129q101 0 144.5 -64.5t22.5 -165.5z" />
    <glyph glyph-name="o" unicode="o" horiz-adv-x="760" 
d="M787 350q-33 -157 -143 -260.5t-266 -103.5q-160 0 -226 104q-63 100 -29 260q33 158 142 261.5t267 103.5q156 0 222 -103.5t33 -261.5zM668 350q24 115 -18.5 189.5t-140.5 74.5q-94 0 -169.5 -75.5t-99.5 -188.5q-24 -114 15 -186q42 -78 146 -78q94 0 168.5 76
t98.5 188z" />
    <glyph glyph-name="p" unicode="p" horiz-adv-x="784" 
d="M807 332q-32 -150 -132 -244q-107 -102 -254 -102q-148 0 -199 114l-78 -364h-113l205 962h113l-21 -96q84 115 252 115q111 0 178 -72q94 -100 49 -313zM688 332q25 117 -4 192q-32 90 -136 90q-115 0 -190 -84q-64 -69 -88 -182q-55 -262 164 -262q92 0 162.5 73.5
t91.5 172.5z" />
    <glyph glyph-name="q" unicode="q" horiz-adv-x="784" 
d="M639 -264h-112l78 364q-84 -114 -248 -114q-147 0 -209 108q-58 101 -26 250q43 205 179 303q97 70 207 70q154 0 203 -115l21 96h112zM661 348q24 113 -10 182q-40 84 -154 84q-105 0 -175 -90q-61 -75 -86 -192q-21 -99 18.5 -172.5t130.5 -73.5q221 0 276 262z" />
    <glyph glyph-name="r" unicode="r" horiz-adv-x="442" 
d="M567 592q-102 10 -185 -53q-90 -70 -117 -197l-72 -342h-113l148 698h106l-32 -151q42 71 113 119q88 57 178 47z" />
    <glyph glyph-name="s" unicode="s" horiz-adv-x="662" 
d="M663 190q-21 -98 -124 -155q-89 -49 -204 -49q-145 0 -207.5 64.5t-40.5 170.5h113q-28 -135 152 -135q170 0 192 104q11 52 -36 80q-33 19 -129 41q-118 27 -164 60q-71 49 -51 143q21 98 114 154q84 47 188 47q275 0 229 -219h-111q13 61 -35 94q-40 24 -102 24
q-141 0 -161 -94q-9 -43 38 -69q25 -13 102 -33q156 -41 186 -62q76 -49 51 -166z" />
    <glyph glyph-name="t" unicode="t" horiz-adv-x="418" 
d="M377 0h-84q-94 0 -123 30.5t-8 125.5l94 442h-117l21 100h117l45 211h113l-45 -211h135l-21 -100h-135l-92 -430q-9 -45 2.5 -56.5t44.5 -11.5h74z" />
    <glyph glyph-name="u" unicode="u" horiz-adv-x="737" 
d="M651 0h-104l24 113q-103 -127 -263 -127q-227 0 -175 247l99 465h113l-101 -473q-12 -59 15 -99t93 -40q96 0 163.5 56.5t89.5 162.5l84 393h110z" />
    <glyph glyph-name="v" unicode="v" horiz-adv-x="662" 
d="M793 698l-400 -698h-119l-108 698h127l71 -583l310 583h119z" />
    <glyph glyph-name="w" unicode="w" horiz-adv-x="1004" 
d="M1129 698l-365 -698h-119l-23 559l-257 -559h-121l-73 698h124l31 -577l264 577h123l24 -571l275 571h117z" />
    <glyph glyph-name="x" unicode="x" horiz-adv-x="686" 
d="M676 0h-144l-131 289l-251 -289h-138l334 369l-167 329h143l115 -241l223 241h133l-303 -321z" />
    <glyph glyph-name="y" unicode="y" horiz-adv-x="662" 
d="M799 698l-467 -792q-84 -142 -168 -174q-27 -11 -64 -11q-41 0 -81 13l23 108q31 -18 65 -18q66 0 113 76l65 104l-127 694h129l79 -575l314 575h119z" />
    <glyph glyph-name="z" unicode="z" horiz-adv-x="637" 
d="M606 0h-575l18 88l520 510h-387l21 100h533l-16 -75l-533 -523h440z" />
    <glyph glyph-name="braceleft" unicode="{" horiz-adv-x="442" 
d="M353 -266h-84q-78 0 -106 61q-24 51 -7 131l51 242q27 127 -78 145l20 93q111 12 145 172l49 227q17 82 71.5 132t124.5 50h80l-17 -80h-58q-73 0 -98 -121l-51 -237q-32 -150 -157 -187q113 -30 76 -204l-48 -226q-27 -116 38 -116h66z" />
    <glyph glyph-name="bar" unicode="|" horiz-adv-x="295" 
d="M188 -20h-91l214 1007h91z" />
    <glyph glyph-name="braceright" unicode="}" horiz-adv-x="442" 
d="M445 313q-113 -18 -140 -145l-51 -242q-17 -80 -62 -131q-52 -61 -130 -61h-85l17 82h64q68 0 89 116l48 226q37 174 162 204q-109 37 -77 187l51 237q25 121 -49 121h-57l17 80h80q69 0 102.5 -50t16.5 -132l-49 -227q-34 -160 73 -172z" />
    <glyph glyph-name="asciitilde" unicode="~" horiz-adv-x="795" 
d="M779 365q-104 -117 -188 -117q-54 0 -126 45q-83 51 -142 51q-66 0 -133 -102l-33 67q85 117 189 117q51 0 138 -43q111 -55 126 -55q53 0 136 104z" />
    <glyph glyph-name="thothannobasethai" horiz-adv-x="735" 
d="M788 463q-51 -238 -206 -363q-145 -114 -343 -102l-21 451l-28 63h145l17 -408q110 13 199 108t122 251q26 125 -25 196.5t-163 71.5q-191 0 -260 -139h-110q32 100 141 171t251 71q86 0 145 -27q67 31 76 74h125q-18 -82 -124 -125q100 -99 59 -293z" />
    <glyph glyph-name="thothannobasethai" unicode="&#xf700;" horiz-adv-x="735" 
d="M788 463q-51 -238 -206 -363q-145 -114 -343 -102l-21 451l-28 63h145l17 -408q110 13 199 108t122 251q26 125 -25 196.5t-163 71.5q-191 0 -260 -139h-110q32 100 141 171t251 71q86 0 145 -27q67 31 76 74h125q-18 -82 -124 -125q100 -99 59 -293z" />
    <glyph glyph-name="thothannobasethai" unicode="&#x20ac;" horiz-adv-x="735" 
d="M788 463q-51 -238 -206 -363q-145 -114 -343 -102l-21 451l-28 63h145l17 -408q110 13 199 108t122 251q26 125 -25 196.5t-163 71.5q-191 0 -260 -139h-110q32 100 141 171t251 71q86 0 145 -27q67 31 76 74h125q-18 -82 -124 -125q100 -99 59 -293z" />
    <glyph glyph-name="saraileftthai" 
d="M-70 922h-563l20 90h563z" />
    <glyph glyph-name="saraileftthai" unicode="&#xf701;" 
d="M-70 922h-563l20 90h563z" />
    <glyph glyph-name="saraiileftthai" 
d="M-70 922h-563l20 90h448l22 104h115z" />
    <glyph glyph-name="saraiileftthai" unicode="&#xf702;" 
d="M-70 922h-563l20 90h448l22 104h115z" />
    <glyph glyph-name="saraiileftthai" unicode="&#x201a;" 
d="M-70 922h-563l20 90h448l22 104h115z" />
    <glyph glyph-name="saraueleftthai" 
d="M10 1024q-9 -43 -47.5 -72.5t-88.5 -29.5h-507l20 90h389l2 12q9 43 49 72.5t91 29.5q50 0 75.5 -29.5t16.5 -72.5zM-56 1024q9 43 -43 43q-47 0 -56 -43q-9 -45 38 -45q52 0 61 45z" />
    <glyph glyph-name="saraueleftthai" unicode="&#xf703;" 
d="M10 1024q-9 -43 -47.5 -72.5t-88.5 -29.5h-507l20 90h389l2 12q9 43 49 72.5t91 29.5q50 0 75.5 -29.5t16.5 -72.5zM-56 1024q9 43 -43 43q-47 0 -56 -43q-9 -45 38 -45q52 0 61 45z" />
    <glyph glyph-name="saraueleftthai" unicode="&#x192;" 
d="M10 1024q-9 -43 -47.5 -72.5t-88.5 -29.5h-507l20 90h389l2 12q9 43 49 72.5t91 29.5q50 0 75.5 -29.5t16.5 -72.5zM-56 1024q9 43 -43 43q-47 0 -56 -43q-9 -45 38 -45q52 0 61 45z" />
    <glyph glyph-name="saraueeleftthai" 
d="M-70 922h-563l20 90h272l22 104h115l-22 -104h61l22 104h115z" />
    <glyph glyph-name="saraueeleftthai" unicode="&#xf704;" 
d="M-70 922h-563l20 90h272l22 104h115l-22 -104h61l22 104h115z" />
    <glyph glyph-name="saraueeleftthai" unicode="&#x201e;" 
d="M-70 922h-563l20 90h272l22 104h115l-22 -104h61l22 104h115z" />
    <glyph glyph-name="ellipsis" unicode="&#x85;" horiz-adv-x="989" 
d="M922 72q-7 -33 -36.5 -56.5t-64.5 -23.5t-54 22.5t-11 57.5q7 34 37.5 59t62.5 25q35 0 54 -25t12 -59zM593 72q-7 -33 -37 -56.5t-64 -23.5q-35 0 -54 22.5t-11 57.5q7 34 37 59t63 25q34 0 53.5 -25t12.5 -59zM263 72q-7 -33 -36.5 -56.5t-64.5 -23.5t-54 22.5
t-11 57.5q7 34 37 59t63 25q35 0 54 -25t12 -59z" />
    <glyph glyph-name="ellipsis" unicode="&#x2026;" horiz-adv-x="989" 
d="M922 72q-7 -33 -36.5 -56.5t-64.5 -23.5t-54 22.5t-11 57.5q7 34 37.5 59t62.5 25q35 0 54 -25t12 -59zM593 72q-7 -33 -37 -56.5t-64 -23.5q-35 0 -54 22.5t-11 57.5q7 34 37 59t63 25q34 0 53.5 -25t12.5 -59zM263 72q-7 -33 -36.5 -56.5t-64.5 -23.5t-54 22.5
t-11 57.5q7 34 37 59t63 25q35 0 54 -25t12 -59z" />
    <glyph glyph-name="maieklowleftthai" 
d="M-93 922h-114l42 194h114z" />
    <glyph glyph-name="maieklowleftthai" unicode="&#xf705;" 
d="M-93 922h-114l42 194h114z" />
    <glyph glyph-name="maieklowleftthai" unicode="&#x2020;" 
d="M-93 922h-114l42 194h114z" />
    <glyph glyph-name="maitholowleftthai" 
d="M215 922h-406l9 39q11 51 -44 51h-37l19 92h69q117 0 98 -92h312z" />
    <glyph glyph-name="maitholowleftthai" unicode="&#xf706;" 
d="M215 922h-406l9 39q11 51 -44 51h-37l19 92h69q117 0 98 -92h312z" />
    <glyph glyph-name="maitholowleftthai" unicode="&#x2021;" 
d="M215 922h-406l9 39q11 51 -44 51h-37l19 92h69q117 0 98 -92h312z" />
    <glyph glyph-name="maitrilowleftthai" 
d="M213 922h-336l19 86q11 55 -41 55h-14l-108 -59l-87 59h-8q-51 0 -62 -55l-1 -4h61l-18 -82h-157l20 94q29 135 182 135h13l78 -55l100 55h14q151 0 123 -135v-4h242z" />
    <glyph glyph-name="maitrilowleftthai" unicode="&#xf707;" 
d="M213 922h-336l19 86q11 55 -41 55h-14l-108 -59l-87 59h-8q-51 0 -62 -55l-1 -4h61l-18 -82h-157l20 94q29 135 182 135h13l78 -55l100 55h14q151 0 123 -135v-4h242z" />
    <glyph glyph-name="maitrilowleftthai" unicode="&#xf08d;" 
d="M213 922h-336l19 86q11 55 -41 55h-14l-108 -59l-87 59h-8q-51 0 -62 -55l-1 -4h61l-18 -82h-157l20 94q29 135 182 135h13l78 -55l100 55h14q151 0 123 -135v-4h242z" />
    <glyph glyph-name="maitrilowleftthai" unicode="&#x2c6;" 
d="M213 922h-336l19 86q11 55 -41 55h-14l-108 -59l-87 59h-8q-51 0 -62 -55l-1 -4h61l-18 -82h-157l20 94q29 135 182 135h13l78 -55l100 55h14q151 0 123 -135v-4h242z" />
    <glyph glyph-name="maichattawalowleftthai" 
d="M-23 1020h-98l-21 -98h-115l21 98h-98l19 86h98l20 98h115l-20 -98h98z" />
    <glyph glyph-name="maichattawalowleftthai" unicode="&#xf708;" 
d="M-23 1020h-98l-21 -98h-115l21 98h-98l19 86h98l20 98h115l-20 -98h98z" />
    <glyph glyph-name="maichattawalowleftthai" unicode="&#x2030;" 
d="M-23 1020h-98l-21 -98h-115l21 98h-98l19 86h98l20 98h115l-20 -98h98z" />
    <glyph glyph-name="thanthakhatlowleftthai" 
d="M-22 1006h-100q-72 0 -85 -64l-5 -20h-114l10 47q14 65 65 102t114 37h137z" />
    <glyph glyph-name="thanthakhatlowleftthai" unicode="&#xf709;" 
d="M-22 1006h-100q-72 0 -85 -64l-5 -20h-114l10 47q14 65 65 102t114 37h137z" />
    <glyph glyph-name="thanthakhatlowleftthai" unicode="&#x160;" 
d="M-22 1006h-100q-72 0 -85 -64l-5 -20h-114l10 47q14 65 65 102t114 37h137z" />
    <glyph glyph-name="maieklowrightthai" 
d="M136 922h-115l42 194h115z" />
    <glyph glyph-name="maieklowrightthai" unicode="&#xf70a;" 
d="M136 922h-115l42 194h115z" />
    <glyph glyph-name="maieklowrightthai" unicode="&#x2039;" 
d="M136 922h-115l42 194h115z" />
    <glyph glyph-name="maitholowrightthai" 
d="M242 922h-335l9 39q11 51 -44 51h-37l19 92h70q115 0 96 -92h242z" />
    <glyph glyph-name="maitholowrightthai" unicode="&#xf70b;" 
d="M242 922h-335l9 39q11 51 -44 51h-37l19 92h70q115 0 96 -92h242z" />
    <glyph glyph-name="maitholowrightthai" unicode="&#x152;" 
d="M242 922h-335l9 39q11 51 -44 51h-37l19 92h70q115 0 96 -92h242z" />
    <glyph glyph-name="maitrilowrightthai" 
d="M154 922h-189l19 86q11 55 -41 55h-14l-108 -59l-87 59h-8q-51 0 -62 -55l-1 -4h62l-18 -82h-158l20 94q29 135 182 135h13l78 -55l100 55h14q151 0 122 -135v-4h96z" />
    <glyph glyph-name="maitrilowrightthai" unicode="&#xf70c;" 
d="M154 922h-189l19 86q11 55 -41 55h-14l-108 -59l-87 59h-8q-51 0 -62 -55l-1 -4h62l-18 -82h-158l20 94q29 135 182 135h13l78 -55l100 55h14q151 0 122 -135v-4h96z" />
    <glyph glyph-name="maichattawalowrightthai" 
d="M157 1020h-99l-21 -98h-113l21 98h-99l19 86h99l20 98h113l-20 -98h99z" />
    <glyph glyph-name="maichattawalowrightthai" unicode="&#xf70d;" 
d="M157 1020h-99l-21 -98h-113l21 98h-99l19 86h99l20 98h113l-20 -98h99z" />
    <glyph glyph-name="maichattawalowrightthai" unicode="&#x17d;" 
d="M157 1020h-99l-21 -98h-113l21 98h-99l19 86h99l20 98h113l-20 -98h99z" />
    <glyph glyph-name="thanthakhatlowrightthai" 
d="M174 1006h-100q-72 0 -84 -64l-5 -20h-115l10 47q14 65 65 102t114 37h137z" />
    <glyph glyph-name="thanthakhatlowrightthai" unicode="&#xf70e;" 
d="M174 1006h-100q-72 0 -84 -64l-5 -20h-115l10 47q14 65 65 102t114 37h137z" />
    <glyph glyph-name="yoyingnobasethai" horiz-adv-x="1278" 
d="M1265 229q-27 -129 -139 -190q-91 -49 -209 -49q-119 0 -186 49q-87 61 -60 190l70 328q37 174 -195 174q-88 0 -160.5 -33.5t-92.5 -79.5q56 -51 49 -83q-5 -23 -39 -58t-40 -63l-66 -312h148l-21 -102h-263l89 422q6 27 44.5 58.5t42.5 47.5q6 31 -71 72
q30 105 148.5 169.5t255.5 64.5q146 0 227 -62q88 -72 60 -203l-68 -323q-33 -156 150 -156q182 0 215 156l122 573h115z" />
    <glyph glyph-name="yoyingnobasethai" unicode="&#xf70f;" horiz-adv-x="1278" 
d="M1265 229q-27 -129 -139 -190q-91 -49 -209 -49q-119 0 -186 49q-87 61 -60 190l70 328q37 174 -195 174q-88 0 -160.5 -33.5t-92.5 -79.5q56 -51 49 -83q-5 -23 -39 -58t-40 -63l-66 -312h148l-21 -102h-263l89 422q6 27 44.5 58.5t42.5 47.5q6 31 -71 72
q30 105 148.5 169.5t255.5 64.5q146 0 227 -62q88 -72 60 -203l-68 -323q-33 -156 150 -156q182 0 215 156l122 573h115z" />
    <glyph glyph-name="quoteleft" horiz-adv-x="387" 
d="M463 795q-7 -37 -41 -67t-73 -30q-109 0 -83 121q26 123 179 211l45 -37q-86 -47 -130 -116q20 4 34 4q35 0 56 -25t13 -61z" />
    <glyph glyph-name="quoteleft" unicode="&#x2018;" horiz-adv-x="387" 
d="M463 795q-7 -37 -41 -67t-73 -30q-109 0 -83 121q26 123 179 211l45 -37q-86 -47 -130 -116q20 4 34 4q35 0 56 -25t13 -61z" />
    <glyph glyph-name="quoteright" horiz-adv-x="387" 
d="M488 909q-26 -123 -180 -211l-43 37q85 47 129 117q-19 -4 -34 -4q-35 0 -56.5 24.5t-13.5 61.5t41.5 66.5t72.5 29.5q109 0 84 -121z" />
    <glyph glyph-name="quoteright" unicode="&#x2019;" horiz-adv-x="387" 
d="M488 909q-26 -123 -180 -211l-43 37q85 47 129 117q-19 -4 -34 -4q-35 0 -56.5 24.5t-13.5 61.5t41.5 66.5t72.5 29.5q109 0 84 -121z" />
    <glyph glyph-name="quotedblleft" horiz-adv-x="659" 
d="M735 795q-7 -37 -41 -67t-73 -30q-108 0 -82 121q26 123 179 211l44 -37q-86 -47 -130 -116q20 4 34 4q35 0 56 -25t13 -61zM463 795q-7 -37 -41 -67t-73 -30q-109 0 -83 121q26 123 179 211l45 -37q-86 -47 -130 -116q20 4 34 4q35 0 56 -25t13 -61z" />
    <glyph glyph-name="quotedblleft" unicode="&#x201c;" horiz-adv-x="659" 
d="M735 795q-7 -37 -41 -67t-73 -30q-108 0 -82 121q26 123 179 211l44 -37q-86 -47 -130 -116q20 4 34 4q35 0 56 -25t13 -61zM463 795q-7 -37 -41 -67t-73 -30q-109 0 -83 121q26 123 179 211l45 -37q-86 -47 -130 -116q20 4 34 4q35 0 56 -25t13 -61z" />
    <glyph glyph-name="quotedblright" horiz-adv-x="659" 
d="M760 909q-26 -123 -180 -211l-43 37q86 47 129 117q-19 -4 -33 -4q-35 0 -56.5 24.5t-13.5 61.5t41.5 66.5t72.5 29.5q108 0 83 -121zM488 909q-26 -123 -180 -211l-43 37q85 47 129 117q-19 -4 -34 -4q-35 0 -56.5 24.5t-13.5 61.5t41.5 66.5t72.5 29.5q109 0 84 -121z
" />
    <glyph glyph-name="quotedblright" unicode="&#x201d;" horiz-adv-x="659" 
d="M760 909q-26 -123 -180 -211l-43 37q86 47 129 117q-19 -4 -33 -4q-35 0 -56.5 24.5t-13.5 61.5t41.5 66.5t72.5 29.5q108 0 83 -121zM488 909q-26 -123 -180 -211l-43 37q85 47 129 117q-19 -4 -34 -4q-35 0 -56.5 24.5t-13.5 61.5t41.5 66.5t72.5 29.5q109 0 84 -121z
" />
    <glyph glyph-name="bullet" horiz-adv-x="737" 
d="M763 410q-27 -127 -136.5 -217.5t-236.5 -90.5t-198 90.5t-44 217.5t136.5 217t236.5 90t198 -90t44 -217z" />
    <glyph glyph-name="bullet" unicode="&#x2022;" horiz-adv-x="737" 
d="M763 410q-27 -127 -136.5 -217.5t-236.5 -90.5t-198 90.5t-44 217.5t136.5 217t236.5 90t198 -90t44 -217z" />
    <glyph glyph-name="endash" horiz-adv-x="748" 
d="M748 295h-625l20 92h625z" />
    <glyph glyph-name="endash" unicode="&#x2013;" horiz-adv-x="748" 
d="M748 295h-625l20 92h625z" />
    <glyph glyph-name="emdash" horiz-adv-x="1495" 
d="M1494 295h-1371l20 92h1371z" />
    <glyph glyph-name="emdash" unicode="&#x2014;" horiz-adv-x="1495" 
d="M1494 295h-1371l20 92h1371z" />
    <glyph glyph-name="maihanakatleftthai" 
d="M213 922h-580l34 159h114l-14 -69h466z" />
    <glyph glyph-name="maihanakatleftthai" unicode="&#xf710;" 
d="M213 922h-580l34 159h114l-14 -69h466z" />
    <glyph glyph-name="maihanakatleftthai" unicode="&#x2dc;" 
d="M213 922h-580l34 159h114l-14 -69h466z" />
    <glyph glyph-name="nikhahitleftthai" 
d="M11 1020q-10 -47 -48 -77t-90 -30q-51 0 -77.5 30t-16.5 77t49 76.5t90 29.5q52 0 77.5 -29.5t15.5 -76.5zM-55 1020q10 45 -40 45q-49 0 -59 -45q-9 -45 40 -45q50 0 59 45z" />
    <glyph glyph-name="nikhahitleftthai" unicode="&#xf711;" 
d="M11 1020q-10 -47 -48 -77t-90 -30q-51 0 -77.5 30t-16.5 77t49 76.5t90 29.5q52 0 77.5 -29.5t15.5 -76.5zM-55 1020q10 45 -40 45q-49 0 -59 -45q-9 -45 40 -45q50 0 59 45z" />
    <glyph glyph-name="nikhahitleftthai" unicode="&#x2122;" 
d="M11 1020q-10 -47 -48 -77t-90 -30q-51 0 -77.5 30t-16.5 77t49 76.5t90 29.5q52 0 77.5 -29.5t15.5 -76.5zM-55 1020q10 45 -40 45q-49 0 -59 -45q-9 -45 40 -45q50 0 59 45z" />
    <glyph glyph-name="maitaikhuleftthai" 
d="M32 1110h-394q-109 0 -122 -61q-4 -23 11 -39h82l190 73l179 -79l-20 -95l-177 82l-177 -69h-141q-60 43 -43 127q14 65 78 108t160 43h394z" />
    <glyph glyph-name="maitaikhuleftthai" unicode="&#xf712;" 
d="M32 1110h-394q-109 0 -122 -61q-4 -23 11 -39h82l190 73l179 -79l-20 -95l-177 82l-177 -69h-141q-60 43 -43 127q14 65 78 108t160 43h394z" />
    <glyph glyph-name="maitaikhuleftthai" unicode="&#x161;" 
d="M32 1110h-394q-109 0 -122 -61q-4 -23 11 -39h82l190 73l179 -79l-20 -95l-177 82l-177 -69h-141q-60 43 -43 127q14 65 78 108t160 43h394z" />
    <glyph glyph-name="maiekupperleftthai" 
d="M-15 1178h-115l32 153h114z" />
    <glyph glyph-name="maiekupperleftthai" unicode="&#xf713;" 
d="M-15 1178h-115l32 153h114z" />
    <glyph glyph-name="maiekupperleftthai" unicode="&#x203a;" 
d="M-15 1178h-115l32 153h114z" />
    <glyph glyph-name="maithoupperleftthai" 
d="M100 1178h-302l7 34q10 48 -39 48h-35l18 81h64q104 0 86 -81h218z" />
    <glyph glyph-name="maithoupperleftthai" unicode="&#xf714;" 
d="M100 1178h-302l7 34q10 48 -39 48h-35l18 81h64q104 0 86 -81h218z" />
    <glyph glyph-name="maithoupperleftthai" unicode="&#x153;" 
d="M100 1178h-302l7 34q10 48 -39 48h-35l18 81h64q104 0 86 -81h218z" />
    <glyph glyph-name="maitriupperleftthai" 
d="M232 1178h-172l16 77q11 50 -35 50h-14l-97 -54l-76 54h-8q-45 0 -56 -50l-1 -4h55l-15 -73h-141l18 86q26 120 163 120h12l69 -49l90 49h12q138 0 112 -120l-1 -4h86z" />
    <glyph glyph-name="maitriupperleftthai" unicode="&#xf715;" 
d="M232 1178h-172l16 77q11 50 -35 50h-14l-97 -54l-76 54h-8q-45 0 -56 -50l-1 -4h55l-15 -73h-141l18 86q26 120 163 120h12l69 -49l90 49h12q138 0 112 -120l-1 -4h86z" />
    <glyph glyph-name="maichattawaupperleftthai" 
d="M78 1255h-87l-16 -77h-95l16 77h-88l15 68h88l16 78h94l-16 -78h88z" />
    <glyph glyph-name="maichattawaupperleftthai" unicode="&#xf716;" 
d="M78 1255h-87l-16 -77h-95l16 77h-88l15 68h88l16 78h94l-16 -78h88z" />
    <glyph glyph-name="maichattawaupperleftthai" unicode="&#x17e;" 
d="M78 1255h-87l-16 -77h-95l16 77h-88l15 68h88l16 78h94l-16 -78h88z" />
    <glyph glyph-name="thanthakhatupperleftthai" 
d="M45 1190h-89q-65 0 -77 -57l-4 -19h-103l9 41q13 59 59 93t103 34h122z" />
    <glyph glyph-name="thanthakhatupperleftthai" unicode="&#xf717;" 
d="M45 1190h-89q-65 0 -77 -57l-4 -19h-103l9 41q13 59 59 93t103 34h122z" />
    <glyph glyph-name="thanthakhatupperleftthai" unicode="&#x178;" 
d="M45 1190h-89q-65 0 -77 -57l-4 -19h-103l9 41q13 59 59 93t103 34h122z" />
    <glyph glyph-name="uni00A0" unicode="&#xa0;" horiz-adv-x="926" 
 />
    <glyph glyph-name="uni00A0" unicode="&#xe00;" horiz-adv-x="926" 
 />
    <glyph glyph-name="kokaithai" unicode="&#xa1;" horiz-adv-x="778" 
d="M717 0h-115l118 557q37 174 -184 174q-86 0 -154.5 -33.5t-88.5 -79.5q56 -51 49 -83q-5 -23 -39 -58t-40 -63l-87 -414h-115l89 422q6 27 44.5 58.5t42.5 47.5q5 27 -71 72q30 105 147 170q110 64 247 64q143 0 220 -62q85 -72 57 -203z" />
    <glyph glyph-name="kokaithai" unicode="&#xe01;" horiz-adv-x="778" 
d="M717 0h-115l118 557q37 174 -184 174q-86 0 -154.5 -33.5t-88.5 -79.5q56 -51 49 -83q-5 -23 -39 -58t-40 -63l-87 -414h-115l89 422q6 27 44.5 58.5t42.5 47.5q5 27 -71 72q30 105 147 170q110 64 247 64q143 0 220 -62q85 -72 57 -203z" />
    <glyph glyph-name="khokhaithai" unicode="&#xa2;" horiz-adv-x="696" 
d="M683 229q-27 -129 -135 -192q-84 -49 -203 -49q-117 0 -182 49q-81 63 -54 192l62 289q13 64 98 107t89 59q8 37 -55 37h-101l21 98h105q174 0 147 -125q-14 -65 -99.5 -110t-93.5 -82l-55 -258q-33 -156 139 -156t205 156l123 575h115z" />
    <glyph glyph-name="khokhaithai" unicode="&#xe02;" horiz-adv-x="696" 
d="M683 229q-27 -129 -135 -192q-84 -49 -203 -49q-117 0 -182 49q-81 63 -54 192l62 289q13 64 98 107t89 59q8 37 -55 37h-101l21 98h105q174 0 147 -125q-14 -65 -99.5 -110t-93.5 -82l-55 -258q-33 -156 139 -156t205 156l123 575h115z" />
    <glyph glyph-name="khokhuatthai" unicode="&#xa3;" horiz-adv-x="707" 
d="M693 229q-27 -129 -135 -192q-84 -49 -203 -49q-116 0 -182 49q-80 63 -53 192l57 267q13 63 101 112t94 78q6 27 -8 47l-98 -67l-97 94l90 65l49 -47l70 47q137 9 107 -129q-14 -69 -102.5 -127.5t-96.5 -93.5l-49 -231q-33 -156 139 -156t205 156l123 575h115z" />
    <glyph glyph-name="khokhuatthai" unicode="&#xe03;" horiz-adv-x="707" 
d="M693 229q-27 -129 -135 -192q-84 -49 -203 -49q-116 0 -182 49q-80 63 -53 192l57 267q13 63 101 112t94 78q6 27 -8 47l-98 -67l-97 94l90 65l49 -47l70 47q137 9 107 -129q-14 -69 -102.5 -127.5t-96.5 -93.5l-49 -231q-33 -156 139 -156t205 156l123 575h115z" />
    <glyph glyph-name="khokhwaithai" unicode="&#xa4;" horiz-adv-x="799" 
d="M737 0h-114l118 557q18 86 -40 133q-50 41 -147 41q-96 0 -164 -41q-78 -47 -96 -133l-18 -84h250l-22 -102h-250l-78 -371h-115l120 569q28 131 153 203q107 62 242 62q138 0 217 -62q92 -72 64 -203z" />
    <glyph glyph-name="khokhwaithai" unicode="&#xe04;" horiz-adv-x="799" 
d="M737 0h-114l118 557q18 86 -40 133q-50 41 -147 41q-96 0 -164 -41q-78 -47 -96 -133l-18 -84h250l-22 -102h-250l-78 -371h-115l120 569q28 131 153 203q107 62 242 62q138 0 217 -62q92 -72 64 -203z" />
    <glyph glyph-name="khokhonthai" unicode="&#xa5;" horiz-adv-x="799" 
d="M737 0h-114l124 586q24 112 -58 139l-158 -111l-113 111q-94 -27 -118 -139l-24 -113h252l-22 -104h-252l-78 -369h-115l126 596q20 94 97.5 160.5t187.5 77.5l86 -84l125 84q101 -11 150.5 -77.5t29.5 -160.5z" />
    <glyph glyph-name="khokhonthai" unicode="&#xe05;" horiz-adv-x="799" 
d="M737 0h-114l124 586q24 112 -58 139l-158 -111l-113 111q-94 -27 -118 -139l-24 -113h252l-22 -104h-252l-78 -369h-115l126 596q20 94 97.5 160.5t187.5 77.5l86 -84l125 84q101 -11 150.5 -77.5t29.5 -160.5z" />
    <glyph glyph-name="khorakhangthai" unicode="&#xa6;" horiz-adv-x="809" 
d="M799 244q-54 -254 -329 -254q-164 0 -260 125l-24 -115h-114l105 496q13 63 101 112t94 78q6 27 -8 47l-98 -67l-97 94l90 65l49 -47l70 47q137 9 107 -129q-14 -69 -102.5 -127.5t-96.5 -93.5l-30 -143q-17 -78 45 -156q68 -86 181 -86q170 0 204 162l121 567h115z" />
    <glyph glyph-name="khorakhangthai" unicode="&#xe06;" horiz-adv-x="809" 
d="M799 244q-54 -254 -329 -254q-164 0 -260 125l-24 -115h-114l105 496q13 63 101 112t94 78q6 27 -8 47l-98 -67l-97 94l90 65l49 -47l70 47q137 9 107 -129q-14 -69 -102.5 -127.5t-96.5 -93.5l-30 -143q-17 -78 45 -156q68 -86 181 -86q170 0 204 162l121 567h115z" />
    <glyph glyph-name="ngonguthai" unicode="&#xa7;" horiz-adv-x="713" 
d="M768 446q-39 -186 -142 -301q-126 -145 -323 -145h-94l-68 666l112 77l65 -641h25q112 0 198 105q79 94 110 237q61 287 -181 287q-32 0 -70 -6l21 102q45 7 84 7q178 0 242 -111q59 -100 21 -277z" />
    <glyph glyph-name="ngonguthai" unicode="&#xe07;" horiz-adv-x="713" 
d="M768 446q-39 -186 -142 -301q-126 -145 -323 -145h-94l-68 666l112 77l65 -641h25q112 0 198 105q79 94 110 237q61 287 -181 287q-32 0 -70 -6l21 102q45 7 84 7q178 0 242 -111q59 -100 21 -277z" />
    <glyph glyph-name="chochanthai" unicode="&#xa8;" horiz-adv-x="735" 
d="M788 463q-51 -238 -206 -363q-145 -114 -343 -102l-21 451l-28 63h145l17 -408q110 13 199 108t122 251q26 125 -25 196.5t-163 71.5q-191 0 -260 -139h-110q32 100 141 171t251 71q164 0 241.5 -96.5t39.5 -274.5z" />
    <glyph glyph-name="chochanthai" unicode="&#xe08;" horiz-adv-x="735" 
d="M788 463q-51 -238 -206 -363q-145 -114 -343 -102l-21 451l-28 63h145l17 -408q110 13 199 108t122 251q26 125 -25 196.5t-163 71.5q-191 0 -260 -139h-110q32 100 141 171t251 71q164 0 241.5 -96.5t39.5 -274.5z" />
    <glyph glyph-name="chochingthai" unicode="&#xa9;" horiz-adv-x="788" 
d="M727 0h-115l19 94q-140 -104 -300 -104q-262 0 -208 252l41 192l-12 62h139l-52 -242q-35 -166 123 -166q113 0 207 64q87 57 103 131l58 274q37 174 -196 174q-182 0 -246 -117h-121q50 111 167 170q101 50 222 50q149 0 229 -62q90 -72 62 -203z" />
    <glyph glyph-name="chochingthai" unicode="&#xe09;" horiz-adv-x="788" 
d="M727 0h-115l19 94q-140 -104 -300 -104q-262 0 -208 252l41 192l-12 62h139l-52 -242q-35 -166 123 -166q113 0 207 64q87 57 103 131l58 274q37 174 -196 174q-182 0 -246 -117h-121q50 111 167 170q101 50 222 50q149 0 229 -62q90 -72 62 -203z" />
    <glyph glyph-name="chochangthai" unicode="&#xaa;" horiz-adv-x="762" 
d="M787 322q-34 -162 -162 -248q-116 -78 -282 -76l-282 2l174 819h115l-153 -717l161 -4q111 -2 195 49q95 62 118 172q20 93 -26.5 150t-138.5 57h-108l22 103h108q82 0 140 43q71 51 84 147h112q0 -18 -5 -39q-31 -147 -178 -205q146 -65 106 -253z" />
    <glyph glyph-name="chochangthai" unicode="&#xe0a;" horiz-adv-x="762" 
d="M787 322q-34 -162 -162 -248q-116 -78 -282 -76l-282 2l174 819h115l-153 -717l161 -4q111 -2 195 49q95 62 118 172q20 93 -26.5 150t-138.5 57h-108l22 103h108q82 0 140 43q71 51 84 147h112q0 -18 -5 -39q-31 -147 -178 -205q146 -65 106 -253z" />
    <glyph glyph-name="sosothai" unicode="&#xab;" horiz-adv-x="780" 
d="M807 322q-34 -162 -160 -246q-115 -76 -282 -76h-283l105 496q13 63 81 112t74 78q6 27 -9 47l-98 -67l-94 94l87 65l50 -47l69 47q137 9 107 -129q-14 -69 -81 -125.5t-76 -95.5l-79 -373h161q115 0 196 50q94 57 117 167q20 93 -26.5 150t-138.5 57h-88l22 103h88
q82 0 140 43q70 51 83 147h113q0 -18 -5 -39q-31 -147 -178 -205q145 -65 105 -253z" />
    <glyph glyph-name="sosothai" unicode="&#xe0b;" horiz-adv-x="780" 
d="M807 322q-34 -162 -160 -246q-115 -76 -282 -76h-283l105 496q13 63 81 112t74 78q6 27 -9 47l-98 -67l-94 94l87 65l50 -47l69 47q137 9 107 -129q-14 -69 -81 -125.5t-76 -95.5l-79 -373h161q115 0 196 50q94 57 117 167q20 93 -26.5 150t-138.5 57h-88l22 103h88
q82 0 140 43q70 51 83 147h113q0 -18 -5 -39q-31 -147 -178 -205q145 -65 105 -253z" />
    <glyph glyph-name="chochoethai" unicode="&#xac;" horiz-adv-x="1257" 
d="M1247 242q-54 -252 -306 -252q-145 0 -205 100l-19 -90h-115l118 557q37 174 -184 174q-86 0 -154.5 -33.5t-88.5 -79.5q56 -51 49 -83q-5 -23 -39 -58t-40 -63l-66 -312h127l-21 -102h-242l89 422q6 27 44.5 58.5t42.5 47.5q5 27 -71 72q30 105 147 170q110 64 247 64
q143 0 220 -62q85 -72 57 -203l-60 -286q-16 -72 33.5 -133.5t139.5 -61.5q149 0 184 164l121 567h115z" />
    <glyph glyph-name="chochoethai" unicode="&#xe0c;" horiz-adv-x="1257" 
d="M1247 242q-54 -252 -306 -252q-145 0 -205 100l-19 -90h-115l118 557q37 174 -184 174q-86 0 -154.5 -33.5t-88.5 -79.5q56 -51 49 -83q-5 -23 -39 -58t-40 -63l-66 -312h127l-21 -102h-242l89 422q6 27 44.5 58.5t42.5 47.5q5 27 -71 72q30 105 147 170q110 64 247 64
q143 0 220 -62q85 -72 57 -203l-60 -286q-16 -72 33.5 -133.5t139.5 -61.5q149 0 184 164l121 567h115z" />
    <glyph glyph-name="yoyingthai" unicode="&#xad;" horiz-adv-x="1257" 
d="M1205 43q-27 -123 -135 -190q-94 -58 -221 -58h-291l22 105h291q82 0 143.5 38.5t74.5 100.5l7 35q-101 -82 -242 -82q-254 0 -205 233l71 332q37 174 -184 174q-86 0 -154.5 -33.5t-88.5 -79.5q56 -51 49 -83q-5 -23 -39 -58t-40 -63l-66 -312h127l-21 -102h-242l89 422
q6 27 44.5 58.5t42.5 47.5q5 27 -71 72q30 105 147 170q110 64 247 64q143 0 220 -62q85 -72 57 -203l-69 -325q-32 -152 130 -152q82 0 152.5 49t88.5 135l116 543h115z" />
    <glyph glyph-name="yoyingthai" unicode="&#xe0d;" horiz-adv-x="1257" 
d="M1205 43q-27 -123 -135 -190q-94 -58 -221 -58h-291l22 105h291q82 0 143.5 38.5t74.5 100.5l7 35q-101 -82 -242 -82q-254 0 -205 233l71 332q37 174 -184 174q-86 0 -154.5 -33.5t-88.5 -79.5q56 -51 49 -83q-5 -23 -39 -58t-40 -63l-66 -312h127l-21 -102h-242l89 422
q6 27 44.5 58.5t42.5 47.5q5 27 -71 72q30 105 147 170q110 64 247 64q143 0 220 -62q85 -72 57 -203l-69 -325q-32 -152 130 -152q82 0 152.5 49t88.5 135l116 543h115z" />
    <glyph glyph-name="yoyingthai" unicode="&#xde;" horiz-adv-x="1257" 
d="M1205 43q-27 -123 -135 -190q-94 -58 -221 -58h-291l22 105h291q82 0 143.5 38.5t74.5 100.5l7 35q-101 -82 -242 -82q-254 0 -205 233l71 332q37 174 -184 174q-86 0 -154.5 -33.5t-88.5 -79.5q56 -51 49 -83q-5 -23 -39 -58t-40 -63l-66 -312h127l-21 -102h-242l89 422
q6 27 44.5 58.5t42.5 47.5q5 27 -71 72q30 105 147 170q110 64 247 64q143 0 220 -62q85 -72 57 -203l-69 -325q-32 -152 130 -152q82 0 152.5 49t88.5 135l116 543h115z" />
    <glyph glyph-name="dochadathai" unicode="&#xae;" horiz-adv-x="799" 
d="M672 -305h-114l-96 119l-162 -119h-248l22 104h200l217 152l99 -103l151 709q37 174 -185 174q-86 0 -154 -33.5t-89 -79.5q57 -51 50 -83q-5 -23 -39 -58t-40 -63l-87 -414h-187l22 104h72l67 318q6 27 44 58.5t42 47.5q5 27 -71 72q31 105 147 170q110 64 247 64
q144 0 221 -62q84 -72 56 -203z" />
    <glyph glyph-name="dochadathai" unicode="&#xe0e;" horiz-adv-x="799" 
d="M672 -305h-114l-96 119l-162 -119h-248l22 104h200l217 152l99 -103l151 709q37 174 -185 174q-86 0 -154 -33.5t-89 -79.5q57 -51 50 -83q-5 -23 -39 -58t-40 -63l-87 -414h-187l22 104h72l67 318q6 27 44 58.5t42 47.5q5 27 -71 72q31 105 147 170q110 64 247 64
q144 0 221 -62q84 -72 56 -203z" />
    <glyph glyph-name="topatakthai" unicode="&#xaf;" horiz-adv-x="799" 
d="M672 -305h-114l-65 100l-130 -119l-83 119l-114 -100h-185l21 104h135l177 148l81 -111l132 111l65 -90l149 700q37 174 -185 174q-86 0 -154 -33.5t-89 -79.5q57 -51 50 -83q-5 -23 -39 -58t-40 -63l-87 -414h-187l22 104h72l67 318q6 27 44 58.5t42 47.5q5 27 -71 72
q31 105 147 170q110 64 247 64q144 0 221 -62q84 -72 56 -203z" />
    <glyph glyph-name="topatakthai" unicode="&#xe0f;" horiz-adv-x="799" 
d="M672 -305h-114l-65 100l-130 -119l-83 119l-114 -100h-185l21 104h135l177 148l81 -111l132 111l65 -90l149 700q37 174 -185 174q-86 0 -154 -33.5t-89 -79.5q57 -51 50 -83q-5 -23 -39 -58t-40 -63l-87 -414h-187l22 104h72l67 318q6 27 44 58.5t42 47.5q5 27 -71 72
q31 105 147 170q110 64 247 64q144 0 221 -62q84 -72 56 -203z" />
    <glyph glyph-name="thothanthai" unicode="&#xb0;" horiz-adv-x="735" 
d="M788 463q-51 -238 -206 -363q-145 -114 -343 -102l-21 451l-28 63h145l17 -408q110 13 199 108t122 251q26 125 -25 196.5t-163 71.5q-191 0 -260 -139h-110q32 100 141 171t251 71q86 0 145 -27q67 31 76 74h125q-18 -82 -124 -125q100 -99 59 -293zM590 -305h-114
l-60 84l-128 -98l-85 98l-110 -84h-153l22 104h118l152 111l84 -94l127 94l62 -76l27 127h114z" />
    <glyph glyph-name="thothanthai" unicode="&#xe10;" horiz-adv-x="735" 
d="M788 463q-51 -238 -206 -363q-145 -114 -343 -102l-21 451l-28 63h145l17 -408q110 13 199 108t122 251q26 125 -25 196.5t-163 71.5q-191 0 -260 -139h-110q32 100 141 171t251 71q86 0 145 -27q67 31 76 74h125q-18 -82 -124 -125q100 -99 59 -293zM590 -305h-114
l-60 84l-128 -98l-85 98l-110 -84h-153l22 104h118l152 111l84 -94l127 94l62 -76l27 127h114z" />
    <glyph glyph-name="thonangmonthothai" unicode="&#xb1;" horiz-adv-x="819" 
d="M758 0h-115l127 600q27 129 -47 129q-47 0 -179 -172q-107 -137 -221.5 -319.5t-124.5 -229.5l-1 -8h-115l104 492q13 63 86.5 113t79.5 81q6 27 -9 47l-98 -67l-94 94l87 65l50 -47l69 47q137 9 107 -129q-14 -69 -86.5 -126.5t-80.5 -94.5l-37 -174q70 133 211 309
q176 221 278 221q185 0 140 -213z" />
    <glyph glyph-name="thonangmonthothai" unicode="&#xe11;" horiz-adv-x="819" 
d="M758 0h-115l127 600q27 129 -47 129q-47 0 -179 -172q-107 -137 -221.5 -319.5t-124.5 -229.5l-1 -8h-115l104 492q13 63 86.5 113t79.5 81q6 27 -9 47l-98 -67l-94 94l87 65l50 -47l69 47q137 9 107 -129q-14 -69 -86.5 -126.5t-80.5 -94.5l-37 -174q70 133 211 309
q176 221 278 221q185 0 140 -213z" />
    <glyph glyph-name="thophuthaothai" unicode="&#xb2;" horiz-adv-x="1319" 
d="M1308 242q-54 -252 -305 -252q-146 0 -206 100l-19 -90h-114l124 586q23 106 -75 139l-161 -102l-117 102q-112 -33 -135 -139l-63 -295q-16 -76 -44 -152h4q18 29 71 94l236 244h-98l19 92h221l-19 -92l-451 -477h-115l126 596q20 94 103 160.5t192 77.5l97 -84l135 84
q103 -11 156.5 -77.5t33.5 -160.5l-66 -313q-16 -72 33.5 -133.5t139.5 -61.5q150 0 185 164l121 567h114z" />
    <glyph glyph-name="thophuthaothai" unicode="&#xe12;" horiz-adv-x="1319" 
d="M1308 242q-54 -252 -305 -252q-146 0 -206 100l-19 -90h-114l124 586q23 106 -75 139l-161 -102l-117 102q-112 -33 -135 -139l-63 -295q-16 -76 -44 -152h4q18 29 71 94l236 244h-98l19 92h221l-19 -92l-451 -477h-115l126 596q20 94 103 160.5t192 77.5l97 -84l135 84
q103 -11 156.5 -77.5t33.5 -160.5l-66 -313q-16 -72 33.5 -133.5t139.5 -61.5q150 0 185 164l121 567h114z" />
    <glyph glyph-name="nonenthai" unicode="&#xb3;" horiz-adv-x="1257" 
d="M1196 0h-115l19 90q-104 -100 -249 -100q-252 0 -198 252l67 315q37 174 -184 174q-86 0 -154.5 -33.5t-88.5 -79.5q56 -51 49 -83q-5 -23 -39 -58t-40 -63l-66 -312h127l-21 -102h-242l89 422q6 27 44.5 58.5t42.5 47.5q5 27 -71 72q30 105 147 170q110 64 247 64
q143 0 220 -62q85 -72 57 -203l-67 -317q-35 -164 114 -164q90 0 165.5 61.5t91.5 133.5l114 536h115z" />
    <glyph glyph-name="nonenthai" unicode="&#xe13;" horiz-adv-x="1257" 
d="M1196 0h-115l19 90q-104 -100 -249 -100q-252 0 -198 252l67 315q37 174 -184 174q-86 0 -154.5 -33.5t-88.5 -79.5q56 -51 49 -83q-5 -23 -39 -58t-40 -63l-66 -312h127l-21 -102h-242l89 422q6 27 44.5 58.5t42.5 47.5q5 27 -71 72q30 105 147 170q110 64 247 64
q143 0 220 -62q85 -72 57 -203l-67 -317q-35 -164 114 -164q90 0 165.5 61.5t91.5 133.5l114 536h115z" />
    <glyph glyph-name="dodekthai" unicode="&#xb4;" horiz-adv-x="819" 
d="M758 0h-115l118 557q37 174 -196 174q-234 0 -271 -174l-57 -266q-16 -76 -44 -152h4q16 27 69 94l228 244h-98l19 92h221l-19 -92l-441 -477h-115l120 569q28 131 155 203q109 62 251 62q143 0 226 -62q93 -72 65 -203z" />
    <glyph glyph-name="dodekthai" unicode="&#xe14;" horiz-adv-x="819" 
d="M758 0h-115l118 557q37 174 -196 174q-234 0 -271 -174l-57 -266q-16 -76 -44 -152h4q16 27 69 94l228 244h-98l19 92h221l-19 -92l-441 -477h-115l120 569q28 131 155 203q109 62 251 62q143 0 226 -62q93 -72 65 -203z" />
    <glyph glyph-name="totaothai" unicode="&#xb5;" horiz-adv-x="840" 
d="M778 0h-114l124 586q23 106 -75 139l-161 -102l-117 102q-112 -33 -135 -139l-63 -295q-16 -76 -44 -152h4q18 29 71 94l236 244h-98l19 92h221l-19 -92l-451 -477h-115l126 596q20 94 103 160.5t192 77.5l97 -84l135 84q103 -11 156.5 -77.5t33.5 -160.5z" />
    <glyph glyph-name="totaothai" unicode="&#xe15;" horiz-adv-x="840" 
d="M778 0h-114l124 586q23 106 -75 139l-161 -102l-117 102q-112 -33 -135 -139l-63 -295q-16 -76 -44 -152h4q18 29 71 94l236 244h-98l19 92h221l-19 -92l-451 -477h-115l126 596q20 94 103 160.5t192 77.5l97 -84l135 84q103 -11 156.5 -77.5t33.5 -160.5z" />
    <glyph glyph-name="thothungthai" unicode="&#xb6;" horiz-adv-x="778" 
d="M717 0h-115l118 557q37 174 -184 174q-86 0 -154.5 -33.5t-88.5 -79.5q56 -51 49 -83q-5 -23 -39 -58t-40 -63l-66 -312h127l-21 -102h-242l89 422q6 27 44.5 58.5t42.5 47.5q5 27 -71 72q30 105 147 170q110 64 247 64q143 0 220 -62q85 -72 57 -203z" />
    <glyph glyph-name="thothungthai" unicode="&#xe16;" horiz-adv-x="778" 
d="M717 0h-115l118 557q37 174 -184 174q-86 0 -154.5 -33.5t-88.5 -79.5q56 -51 49 -83q-5 -23 -39 -58t-40 -63l-66 -312h127l-21 -102h-242l89 422q6 27 44.5 58.5t42.5 47.5q5 27 -71 72q30 105 147 170q110 64 247 64q143 0 220 -62q85 -72 57 -203z" />
    <glyph glyph-name="thothahanthai" unicode="&#xb7;" horiz-adv-x="799" 
d="M737 0h-114l120 567q34 162 -136 162q-113 0 -217 -86q-94 -78 -111 -156l-103 -487h-115l174 819h115l-25 -114q150 126 314 126q274 0 220 -256z" />
    <glyph glyph-name="thothahanthai" unicode="&#xe17;" horiz-adv-x="799" 
d="M737 0h-114l120 567q34 162 -136 162q-113 0 -217 -86q-94 -78 -111 -156l-103 -487h-115l174 819h115l-25 -114q150 126 314 126q274 0 220 -256z" />
    <glyph glyph-name="thothongthai" unicode="&#xb8;" horiz-adv-x="762" 
d="M780 279q-59 -279 -374 -279h-345l90 426h115l-69 -324h213q217 0 254 174q31 144 -162 168q-216 27 -241 35q-116 39 -86 154q26 94 132 149q99 52 235 52q317 0 295 -220h-117q2 117 -200 117q-86 0 -153 -26.5t-77 -71.5t72 -64q25 -6 176 -20q293 -29 242 -270z" />
    <glyph glyph-name="thothongthai" unicode="&#xe18;" horiz-adv-x="762" 
d="M780 279q-59 -279 -374 -279h-345l90 426h115l-69 -324h213q217 0 254 174q31 144 -162 168q-216 27 -241 35q-116 39 -86 154q26 94 132 149q99 52 235 52q317 0 295 -220h-117q2 117 -200 117q-86 0 -153 -26.5t-77 -71.5t72 -64q25 -6 176 -20q293 -29 242 -270z" />
    <glyph glyph-name="nonuthai" unicode="&#xb9;" horiz-adv-x="799" 
d="M737 0h-114l24 115q-150 -125 -314 -125q-275 0 -221 254l123 575h115l-121 -567q-34 -162 136 -162q113 0 217 86q94 78 111 156l104 487h114z" />
    <glyph glyph-name="nonuthai" unicode="&#xe19;" horiz-adv-x="799" 
d="M737 0h-114l24 115q-150 -125 -314 -125q-275 0 -221 254l123 575h115l-121 -567q-34 -162 136 -162q113 0 217 86q94 78 111 156l104 487h114z" />
    <glyph glyph-name="bobaimaithai" unicode="&#xba;" horiz-adv-x="799" 
d="M789 248q-28 -131 -153 -201q-104 -59 -240 -59q-135 0 -217 59q-94 70 -66 201l122 571h115l-119 -557q-19 -88 42 -133q50 -41 144 -41q95 0 168.5 43t92.5 131l119 557h114z" />
    <glyph glyph-name="bobaimaithai" unicode="&#xe1a;" horiz-adv-x="799" 
d="M789 248q-28 -131 -153 -201q-104 -59 -240 -59q-135 0 -217 59q-94 70 -66 201l122 571h115l-119 -557q-19 -88 42 -133q50 -41 144 -41q95 0 168.5 43t92.5 131l119 557h114z" />
    <glyph glyph-name="poplathai" unicode="&#xbb;" horiz-adv-x="799" 
d="M789 248q-28 -131 -153 -201q-104 -59 -240 -59q-135 0 -217 59q-94 70 -66 201l122 571h115l-119 -557q-19 -88 42 -133q50 -41 144 -41q95 0 168.5 43t92.5 131l175 823h114z" />
    <glyph glyph-name="poplathai" unicode="&#xe1b;" horiz-adv-x="799" 
d="M789 248q-28 -131 -153 -201q-104 -59 -240 -59q-135 0 -217 59q-94 70 -66 201l122 571h115l-119 -557q-19 -88 42 -133q50 -41 144 -41q95 0 168.5 43t92.5 131l175 823h114z" />
    <glyph glyph-name="phophungthai" unicode="&#xbc;" horiz-adv-x="942" 
d="M930 233q-52 -245 -267 -245q-144 0 -173 102q-81 -102 -219 -102q-213 0 -161 245l95 447q30 139 178 139h63l-22 -102h-34q-62 0 -75 -60l-86 -407q-35 -162 78 -162q125 0 163 176l118 555h114l-118 -555q-38 -176 87 -176q113 0 148 162l121 569h115z" />
    <glyph glyph-name="phophungthai" unicode="&#xe1c;" horiz-adv-x="942" 
d="M930 233q-52 -245 -267 -245q-144 0 -173 102q-81 -102 -219 -102q-213 0 -161 245l95 447q30 139 178 139h63l-22 -102h-34q-62 0 -75 -60l-86 -407q-35 -162 78 -162q125 0 163 176l118 555h114l-118 -555q-38 -176 87 -176q113 0 148 162l121 569h115z" />
    <glyph glyph-name="fofathai" unicode="&#xbd;" horiz-adv-x="942" 
d="M930 233q-52 -245 -267 -245q-144 0 -173 102q-81 -102 -219 -102q-213 0 -161 245l95 447q30 139 178 139h63l-22 -102h-34q-62 0 -75 -60l-86 -407q-35 -162 78 -162q125 0 163 176l118 555h114l-118 -555q-38 -176 87 -176q113 0 148 162l177 835h115z" />
    <glyph glyph-name="fofathai" unicode="&#xe1d;" horiz-adv-x="942" 
d="M930 233q-52 -245 -267 -245q-144 0 -173 102q-81 -102 -219 -102q-213 0 -161 245l95 447q30 139 178 139h63l-22 -102h-34q-62 0 -75 -60l-86 -407q-35 -162 78 -162q125 0 163 176l118 555h114l-118 -555q-38 -176 87 -176q113 0 148 162l177 835h115z" />
    <glyph glyph-name="phophanthai" unicode="&#xbe;" horiz-adv-x="942" 
d="M930 233q-52 -245 -267 -245q-144 0 -173 102q-81 -102 -219 -102q-213 0 -161 245l125 586h115l-121 -569q-35 -162 78 -162q125 0 163 176l118 555h114l-118 -555q-38 -176 87 -176q113 0 148 162l121 569h115z" />
    <glyph glyph-name="phophanthai" unicode="&#xe1e;" horiz-adv-x="942" 
d="M930 233q-52 -245 -267 -245q-144 0 -173 102q-81 -102 -219 -102q-213 0 -161 245l125 586h115l-121 -569q-35 -162 78 -162q125 0 163 176l118 555h114l-118 -555q-38 -176 87 -176q113 0 148 162l121 569h115z" />
    <glyph glyph-name="fofanthai" unicode="&#xbf;" horiz-adv-x="942" 
d="M930 233q-52 -245 -267 -245q-144 0 -173 102q-81 -102 -219 -102q-213 0 -161 245l125 586h115l-121 -569q-35 -162 78 -162q125 0 163 176l118 555h114l-118 -555q-38 -176 87 -176q113 0 148 162l177 835h115z" />
    <glyph glyph-name="fofanthai" unicode="&#xe1f;" horiz-adv-x="942" 
d="M930 233q-52 -245 -267 -245q-144 0 -173 102q-81 -102 -219 -102q-213 0 -161 245l125 586h115l-121 -569q-35 -162 78 -162q125 0 163 176l118 555h114l-118 -555q-38 -176 87 -176q113 0 148 162l177 835h115z" />
    <glyph glyph-name="phosamphaothai" unicode="&#xc0;" horiz-adv-x="799" 
d="M737 0h-114l118 557q37 174 -185 174q-86 0 -154 -33.5t-89 -79.5q57 -51 50 -83q-5 -23 -39 -58t-40 -63l-87 -414h-187l22 104h72l67 318q6 27 44 58.5t42 47.5q5 27 -71 72q31 105 147 170q110 64 247 64q144 0 221 -62q84 -72 56 -203z" />
    <glyph glyph-name="phosamphaothai" unicode="&#xe20;" horiz-adv-x="799" 
d="M737 0h-114l118 557q37 174 -185 174q-86 0 -154 -33.5t-89 -79.5q57 -51 50 -83q-5 -23 -39 -58t-40 -63l-87 -414h-187l22 104h72l67 318q6 27 44 58.5t42 47.5q5 27 -71 72q31 105 147 170q110 64 247 64q144 0 221 -62q84 -72 56 -203z" />
    <glyph glyph-name="momathai" unicode="&#xc1;" horiz-adv-x="799" 
d="M788 244q-54 -254 -328 -254q-172 0 -260 125l-24 -115h-115l174 819h115l-104 -487q-17 -78 45 -156q68 -86 181 -86q170 0 204 162l121 567h114z" />
    <glyph glyph-name="momathai" unicode="&#xe21;" horiz-adv-x="799" 
d="M788 244q-54 -254 -328 -254q-172 0 -260 125l-24 -115h-115l174 819h115l-104 -487q-17 -78 45 -156q68 -86 181 -86q170 0 204 162l121 567h114z" />
    <glyph glyph-name="yoyakthai" unicode="&#xc2;" horiz-adv-x="809" 
d="M748 0l-366 -4q-350 -6 -294 254q18 86 88 147q58 52 109 60q-46 6 -75 45q-38 49 -23 123q29 137 183 184q93 29 203 10l-23 -104q-37 6 -71 6q-156 0 -177 -98q-22 -105 158 -105h283l64 301h115zM654 102l67 314h-260q-221 0 -256 -162q-34 -164 221 -158z" />
    <glyph glyph-name="yoyakthai" unicode="&#xe22;" horiz-adv-x="809" 
d="M748 0l-366 -4q-350 -6 -294 254q18 86 88 147q58 52 109 60q-46 6 -75 45q-38 49 -23 123q29 137 183 184q93 29 203 10l-23 -104q-37 6 -71 6q-156 0 -177 -98q-22 -105 158 -105h283l64 301h115zM654 102l67 314h-260q-221 0 -256 -162q-34 -164 221 -158z" />
    <glyph glyph-name="roruathai" unicode="&#xc3;" horiz-adv-x="731" 
d="M754 258q-57 -270 -399 -270q-333 0 -274 303h117q-43 -203 178 -203q228 0 264 168q16 76 -36 111q-37 22 -131 39q-196 32 -226 45q-101 43 -77 159q21 99 131 162q103 62 230 62q133 0 213 -58q91 -65 69 -184h-115q9 67 -54 106q-55 33 -139 33q-76 0 -141.5 -30.5
t-77.5 -84.5q-11 -53 61 -77q36 -13 162 -29q139 -16 192 -59q82 -60 53 -193z" />
    <glyph glyph-name="roruathai" unicode="&#xe23;" horiz-adv-x="731" 
d="M754 258q-57 -270 -399 -270q-333 0 -274 303h117q-43 -203 178 -203q228 0 264 168q16 76 -36 111q-37 22 -131 39q-196 32 -226 45q-101 43 -77 159q21 99 131 162q103 62 230 62q133 0 213 -58q91 -65 69 -184h-115q9 67 -54 106q-55 33 -139 33q-76 0 -141.5 -30.5
t-77.5 -84.5q-11 -53 61 -77q36 -13 162 -29q139 -16 192 -59q82 -60 53 -193z" />
    <glyph glyph-name="ruthai" unicode="&#xc4;" horiz-adv-x="778" 
d="M720 557q37 174 -184 174q-86 0 -154.5 -33.5t-88.5 -79.5q56 -51 49 -83q-5 -23 -39 -58t-40 -63l-66 -312h127l-21 -102h-242l89 422q6 27 44.5 58.5t42.5 47.5q5 27 -71 72q30 105 147 170q110 64 247 64q143 0 220 -62q85 -72 57 -203l-172 -813h-115l172 809z" />
    <glyph glyph-name="ruthai" unicode="&#xe24;" horiz-adv-x="778" 
d="M720 557q37 174 -184 174q-86 0 -154.5 -33.5t-88.5 -79.5q56 -51 49 -83q-5 -23 -39 -58t-40 -63l-66 -312h127l-21 -102h-242l89 422q6 27 44.5 58.5t42.5 47.5q5 27 -71 72q30 105 147 170q110 64 247 64q143 0 220 -62q85 -72 57 -203l-172 -813h-115l172 809z" />
    <glyph glyph-name="lolingthai" unicode="&#xc5;" horiz-adv-x="795" 
d="M733 0h-115l95 451q-69 -37 -298 -60q-191 -18 -221 -158q-30 -139 138 -139q58 0 131 17l-23 -109q-77 -8 -137 -8q-274 0 -223 239q46 218 308 254q106 11 212 23q125 22 141 98q12 58 -40 90.5t-145 32.5q-88 0 -161.5 -37t-97.5 -102h-117q45 123 165 186
q104 56 235 56q138 0 213 -52q92 -63 65 -192z" />
    <glyph glyph-name="lolingthai" unicode="&#xe25;" horiz-adv-x="795" 
d="M733 0h-115l95 451q-69 -37 -298 -60q-191 -18 -221 -158q-30 -139 138 -139q58 0 131 17l-23 -109q-77 -8 -137 -8q-274 0 -223 239q46 218 308 254q106 11 212 23q125 22 141 98q12 58 -40 90.5t-145 32.5q-88 0 -161.5 -37t-97.5 -102h-117q45 123 165 186
q104 56 235 56q138 0 213 -52q92 -63 65 -192z" />
    <glyph glyph-name="luthai" unicode="&#xc6;" horiz-adv-x="799" 
d="M685 -244h-114l170 801q37 174 -185 174q-86 0 -154 -33.5t-89 -79.5q57 -51 50 -83q-5 -23 -39 -58t-40 -63l-87 -414h-187l22 104h72l67 318q6 27 44 58.5t42 47.5q5 27 -71 72q31 105 147 170q110 64 247 64q144 0 221 -62q84 -72 56 -203z" />
    <glyph glyph-name="luthai" unicode="&#xe26;" horiz-adv-x="799" 
d="M685 -244h-114l170 801q37 174 -185 174q-86 0 -154 -33.5t-89 -79.5q57 -51 50 -83q-5 -23 -39 -58t-40 -63l-87 -414h-187l22 104h72l67 318q6 27 44 58.5t42 47.5q5 27 -71 72q31 105 147 170q110 64 247 64q144 0 221 -62q84 -72 56 -203z" />
    <glyph glyph-name="wowaenthai" unicode="&#xc7;" horiz-adv-x="760" 
d="M816 410q-47 -220 -174 -328q-113 -94 -272 -94q-142 0 -214 74.5t-69 201.5h121q3 -176 183 -176q241 0 310 322q68 321 -173 321q-180 0 -259 -176h-121q51 127 155.5 203t246.5 76q159 0 232 -95q80 -110 34 -329z" />
    <glyph glyph-name="wowaenthai" unicode="&#xe27;" horiz-adv-x="760" 
d="M816 410q-47 -220 -174 -328q-113 -94 -272 -94q-142 0 -214 74.5t-69 201.5h121q3 -176 183 -176q241 0 310 322q68 321 -173 321q-180 0 -259 -176h-121q51 127 155.5 203t246.5 76q159 0 232 -95q80 -110 34 -329z" />
    <glyph glyph-name="sosalathai" unicode="&#xc8;" horiz-adv-x="799" 
d="M737 0h-114l118 557q18 86 -40 133q-50 41 -147 41q-96 0 -164 -41q-78 -47 -96 -133l-18 -84h250l-22 -102h-250l-78 -371h-115l120 569q28 131 153 203q107 62 242 62q72 0 129 -19q54 21 64 66h125q-14 -66 -98 -113q89 -70 61 -199z" />
    <glyph glyph-name="sosalathai" unicode="&#xe28;" horiz-adv-x="799" 
d="M737 0h-114l118 557q18 86 -40 133q-50 41 -147 41q-96 0 -164 -41q-78 -47 -96 -133l-18 -84h250l-22 -102h-250l-78 -371h-115l120 569q28 131 153 203q107 62 242 62q72 0 129 -19q54 21 64 66h125q-14 -66 -98 -113q89 -70 61 -199z" />
    <glyph glyph-name="sorusithai" unicode="&#xc9;" horiz-adv-x="809" 
d="M888 422h-62l-37 -174q-28 -131 -153 -201q-104 -59 -240 -59q-135 0 -217 59q-94 70 -66 201l122 571h115l-119 -557q-19 -88 42 -133q50 -41 144 -41q95 0 168.5 43t92.5 131l34 160h-254l34 158h114l-12 -56h140l63 295h114l-63 -295h62z" />
    <glyph glyph-name="sorusithai" unicode="&#xe29;" horiz-adv-x="809" 
d="M888 422h-62l-37 -174q-28 -131 -153 -201q-104 -59 -240 -59q-135 0 -217 59q-94 70 -66 201l122 571h115l-119 -557q-19 -88 42 -133q50 -41 144 -41q95 0 168.5 43t92.5 131l34 160h-254l34 158h114l-12 -56h140l63 295h114l-63 -295h62z" />
    <glyph glyph-name="sosuathai" unicode="&#xca;" horiz-adv-x="795" 
d="M733 0h-115l95 451q-69 -37 -298 -60q-191 -18 -221 -158q-30 -139 136 -139q58 0 133 17l-23 -109q-77 -8 -137 -8q-274 0 -223 239q46 218 308 254q106 11 212 23q125 22 141 98q12 58 -40 90.5t-145 32.5q-88 0 -161.5 -37t-97.5 -102h-117q45 123 165 186
q104 56 235 56q78 0 134 -17q50 21 59 64h125q-13 -62 -91 -109q77 -61 51 -182z" />
    <glyph glyph-name="sosuathai" unicode="&#xe2a;" horiz-adv-x="795" 
d="M733 0h-115l95 451q-69 -37 -298 -60q-191 -18 -221 -158q-30 -139 136 -139q58 0 133 17l-23 -109q-77 -8 -137 -8q-274 0 -223 239q46 218 308 254q106 11 212 23q125 22 141 98q12 58 -40 90.5t-145 32.5q-88 0 -161.5 -37t-97.5 -102h-117q45 123 165 186
q104 56 235 56q78 0 134 -17q50 21 59 64h125q-13 -62 -91 -109q77 -61 51 -182z" />
    <glyph glyph-name="hohipthai" unicode="&#xcb;" horiz-adv-x="799" 
d="M848 717h-389l22 102h389zM737 0h-114l89 422q35 162 -135 162q-107 0 -209 -80t-119 -160l-73 -344h-115l174 819h115l-56 -262q144 129 314 129q274 0 220 -254z" />
    <glyph glyph-name="hohipthai" unicode="&#xe2b;" horiz-adv-x="799" 
d="M848 717h-389l22 102h389zM737 0h-114l89 422q35 162 -135 162q-107 0 -209 -80t-119 -160l-73 -344h-115l174 819h115l-56 -262q144 129 314 129q274 0 220 -254z" />
    <glyph glyph-name="lochulathai" unicode="&#xcc;" horiz-adv-x="942" 
d="M1119 1065q-19 -154 -160 -201q96 -45 68 -176l-97 -455q-52 -245 -267 -245q-144 0 -173 102q-81 -102 -219 -102q-213 0 -161 245l125 586h115l-121 -569q-35 -162 78 -162q125 0 163 176l96 453h114l-96 -453q-38 -176 87 -176q113 0 148 162l96 452q10 48 -14.5 82.5
t-71.5 34.5h-241l21 103h239q135 0 158 143h113z" />
    <glyph glyph-name="lochulathai" unicode="&#xe2c;" horiz-adv-x="942" 
d="M1119 1065q-19 -154 -160 -201q96 -45 68 -176l-97 -455q-52 -245 -267 -245q-144 0 -173 102q-81 -102 -219 -102q-213 0 -161 245l125 586h115l-121 -569q-35 -162 78 -162q125 0 163 176l96 453h114l-96 -453q-38 -176 87 -176q113 0 148 162l96 452q10 48 -14.5 82.5
t-71.5 34.5h-241l21 103h239q135 0 158 143h113z" />
    <glyph glyph-name="oangthai" unicode="&#xcd;" horiz-adv-x="844" 
d="M900 410q-46 -213 -184 -324q-123 -98 -297 -98q-172 0 -256 98q-90 113 -45 324q12 59 38 125h268l-22 -105h-166l-4 -20q-34 -160 26 -244q55 -78 182 -78t219 81t126 241q33 159 -26 243q-55 78 -182 78q-174 0 -268 -139h-127q55 102 153 166q114 76 264 76
q174 0 254 -101q92 -110 47 -323z" />
    <glyph glyph-name="oangthai" unicode="&#xe2d;" horiz-adv-x="844" 
d="M900 410q-46 -213 -184 -324q-123 -98 -297 -98q-172 0 -256 98q-90 113 -45 324q12 59 38 125h268l-22 -105h-166l-4 -20q-34 -160 26 -244q55 -78 182 -78t219 81t126 241q33 159 -26 243q-55 78 -182 78q-174 0 -268 -139h-127q55 102 153 166q114 76 264 76
q174 0 254 -101q92 -110 47 -323z" />
    <glyph glyph-name="honokhukthai" unicode="&#xce;" horiz-adv-x="844" 
d="M900 410q-46 -213 -184 -324q-123 -98 -297 -98q-172 0 -256 98q-90 113 -45 324q12 59 38 125h268l-22 -105h-166l-4 -20q-34 -160 26 -244q55 -78 182 -78t219 81t126 241q33 159 -26 243q-55 78 -182 78q-174 0 -268 -139h-127q55 102 153 166q114 76 264 76
q78 0 134 -21q53 29 62 68h125q-15 -68 -100 -113q133 -109 80 -358z" />
    <glyph glyph-name="honokhukthai" unicode="&#xe2e;" horiz-adv-x="844" 
d="M900 410q-46 -213 -184 -324q-123 -98 -297 -98q-172 0 -256 98q-90 113 -45 324q12 59 38 125h268l-22 -105h-166l-4 -20q-34 -160 26 -244q55 -78 182 -78t219 81t126 241q33 159 -26 243q-55 78 -182 78q-174 0 -268 -139h-127q55 102 153 166q114 76 264 76
q78 0 134 -21q53 29 62 68h125q-15 -68 -100 -113q133 -109 80 -358z" />
    <glyph glyph-name="paiyannoithai" unicode="&#xcf;" horiz-adv-x="723" 
d="M662 0h-113l127 598q-53 -53 -133 -90q-93 -45 -183 -45q-92 0 -148 47q-62 53 -42 145q17 82 101 131q74 41 168 41q60 0 103 -18l-24 -113q-45 33 -108 33q-113 0 -129 -76q-8 -41 23 -64.5t80 -23.5q115 0 203.5 72t133.5 186h115z" />
    <glyph glyph-name="paiyannoithai" unicode="&#xe2f;" horiz-adv-x="723" 
d="M662 0h-113l127 598q-53 -53 -133 -90q-93 -45 -183 -45q-92 0 -148 47q-62 53 -42 145q17 82 101 131q74 41 168 41q60 0 103 -18l-24 -113q-45 33 -108 33q-113 0 -129 -76q-8 -41 23 -64.5t80 -23.5q115 0 203.5 72t133.5 186h115z" />
    <glyph glyph-name="saraathai" unicode="&#xd0;" horiz-adv-x="307" 
d="M413 645q-11 -51 -54.5 -87t-94.5 -36q-52 0 -79.5 36t-16.5 87q10 51 53.5 87t95.5 36q51 0 78.5 -36t17.5 -87zM312 174q-10 -51 -53.5 -87t-94.5 -36q-52 0 -79.5 36t-17.5 87q11 51 54.5 87t95.5 36q51 0 78.5 -36t16.5 -87zM338 645q10 47 -37 47q-48 0 -58 -47
t38 -47q47 0 57 47zM237 174q10 47 -37 47q-48 0 -58 -47t38 -47q47 0 57 47z" />
    <glyph glyph-name="saraathai" unicode="&#xe30;" horiz-adv-x="307" 
d="M413 645q-11 -51 -54.5 -87t-94.5 -36q-52 0 -79.5 36t-16.5 87q10 51 53.5 87t95.5 36q51 0 78.5 -36t17.5 -87zM312 174q-10 -51 -53.5 -87t-94.5 -36q-52 0 -79.5 36t-17.5 87q11 51 54.5 87t95.5 36q51 0 78.5 -36t16.5 -87zM338 645q10 47 -37 47q-48 0 -58 -47
t38 -47q47 0 57 47zM237 174q10 47 -37 47q-48 0 -58 -47t38 -47q47 0 57 47z" />
    <glyph glyph-name="maihanakatthai" unicode="&#xd1;" 
d="M365 922h-560l34 159h115l-14 -69h445z" />
    <glyph glyph-name="maihanakatthai" unicode="&#xe31;" 
d="M365 922h-560l34 159h115l-14 -69h445z" />
    <glyph glyph-name="saraaathai" unicode="&#xd2;" horiz-adv-x="420" 
d="M358 0h-114l130 614q23 107 -131 107q-37 0 -82 -8l22 104q49 8 94 8q256 0 216 -188z" />
    <glyph glyph-name="saraaathai" unicode="&#xe32;" horiz-adv-x="420" 
d="M358 0h-114l130 614q23 107 -131 107q-37 0 -82 -8l22 104q49 8 94 8q256 0 216 -188z" />
    <glyph glyph-name="saraamthai" unicode="&#xd3;" horiz-adv-x="420" 
d="M214 1020q-10 -47 -49 -77t-90 -30t-77.5 30t-16.5 77t49 76.5t90 29.5t77.5 -29.5t16.5 -76.5zM358 0h-114l130 614q23 107 -131 107q-37 0 -82 -8l22 104q49 8 94 8q256 0 216 -188zM146 1020q10 45 -39 45t-59 -45q-9 -45 40 -45t58 45z" />
    <glyph glyph-name="saraamthai" unicode="&#xe33;" horiz-adv-x="420" 
d="M214 1020q-10 -47 -49 -77t-90 -30t-77.5 30t-16.5 77t49 76.5t90 29.5t77.5 -29.5t16.5 -76.5zM358 0h-114l130 614q23 107 -131 107q-37 0 -82 -8l22 104q49 8 94 8q256 0 216 -188zM146 1020q10 45 -39 45t-59 -45q-9 -45 40 -45t58 45z" />
    <glyph glyph-name="saraithai" unicode="&#xd4;" 
d="M136 922h-604l20 90h604z" />
    <glyph glyph-name="saraithai" unicode="&#xe34;" 
d="M136 922h-604l20 90h604z" />
    <glyph glyph-name="saraiithai" unicode="&#xd5;" 
d="M136 922h-604l20 90h489l22 104h115z" />
    <glyph glyph-name="saraiithai" unicode="&#xe35;" 
d="M136 922h-604l20 90h489l22 104h115z" />
    <glyph glyph-name="sarauethai" unicode="&#xd6;" 
d="M217 1024q-9 -43 -48.5 -72.5t-88.5 -29.5h-548l20 90h431l2 12q9 43 48.5 72.5t90.5 29.5q49 0 75.5 -29.5t17.5 -72.5zM149 1024q9 43 -42 43q-47 0 -56 -43q-9 -45 38 -45q51 0 60 45z" />
    <glyph glyph-name="sarauethai" unicode="&#xe36;" 
d="M217 1024q-9 -43 -48.5 -72.5t-88.5 -29.5h-548l20 90h431l2 12q9 43 48.5 72.5t90.5 29.5q49 0 75.5 -29.5t17.5 -72.5zM149 1024q9 43 -42 43q-47 0 -56 -43q-9 -45 38 -45q51 0 60 45z" />
    <glyph glyph-name="saraueethai" unicode="&#xd7;" 
d="M136 922h-604l20 90h314l22 104h113l-21 -104h61l22 104h115z" />
    <glyph glyph-name="saraueethai" unicode="&#xe37;" 
d="M136 922h-604l20 90h314l22 104h113l-21 -104h61l22 104h115z" />
    <glyph glyph-name="sarauthai" unicode="&#xd8;" 
d="M-128 -326h-115l33 156h-62l19 90h177z" />
    <glyph glyph-name="sarauthai" unicode="&#xe38;" 
d="M-128 -326h-115l33 156h-62l19 90h177z" />
    <glyph glyph-name="sarauuthai" unicode="&#xd9;" 
d="M-103 -211q-29 -135 -212 -135q-182 0 -153 135l8 41h-41l19 90h156l-26 -125q-11 -53 56 -53q68 0 79 53l26 125h115z" />
    <glyph glyph-name="sarauuthai" unicode="&#xe39;" 
d="M-103 -211q-29 -135 -212 -135q-182 0 -153 135l8 41h-41l19 90h156l-26 -125q-11 -53 56 -53q68 0 79 53l26 125h115z" />
    <glyph glyph-name="phinthuthai" unicode="&#xda;" 
d="M-67 -164q-8 -35 -37.5 -59.5t-64.5 -24.5t-54.5 24.5t-11.5 59.5q7 35 36.5 59.5t64.5 24.5t54.5 -24.5t12.5 -59.5z" />
    <glyph glyph-name="phinthuthai" unicode="&#xe3a;" 
d="M-67 -164q-8 -35 -37.5 -59.5t-64.5 -24.5t-54.5 24.5t-11.5 59.5q7 35 36.5 59.5t64.5 24.5t54.5 -24.5t12.5 -59.5z" />
    <glyph glyph-name="PU2005.003" unicode="&#xdb;" 
 />
    <glyph glyph-name="PU2005.003" unicode="&#xe3b;" 
 />
    <glyph glyph-name="PU2005.002" unicode="&#xdc;" 
 />
    <glyph glyph-name="PU2005.002" unicode="&#xe3c;" 
 />
    <glyph glyph-name="PU2005.001" unicode="&#xdd;" 
 />
    <glyph glyph-name="PU2005.001" unicode="&#xe3d;" 
 />
    <glyph glyph-name="bahtthai" unicode="&#xdf;" horiz-adv-x="907" 
d="M905 270q-26 -120 -125.5 -195t-228.5 -75h-51l-33 -152h-90l33 152h-308l205 965h308l32 153h90l-32 -153h22q150 0 209 -76q48 -62 29 -152q-35 -164 -187 -227q165 -59 127 -240zM830 698q20 95 -29 131q-34 25 -120 27l-64 -305q184 10 213 147zM527 551l64 305h-181
l-64 -305h181zM784 287q31 147 -191 155l-70 -333q104 2 161 30q77 41 100 148zM433 109l70 333h-181l-70 -333h181z" />
    <glyph glyph-name="bahtthai" unicode="&#xe3f;" horiz-adv-x="907" 
d="M905 270q-26 -120 -125.5 -195t-228.5 -75h-51l-33 -152h-90l33 152h-308l205 965h308l32 153h90l-32 -153h22q150 0 209 -76q48 -62 29 -152q-35 -164 -187 -227q165 -59 127 -240zM830 698q20 95 -29 131q-34 25 -120 27l-64 -305q184 10 213 147zM527 551l64 305h-181
l-64 -305h181zM784 287q31 147 -191 155l-70 -333q104 2 161 30q77 41 100 148zM433 109l70 333h-181l-70 -333h181z" />
    <glyph glyph-name="saraethai" unicode="&#xe0;" horiz-adv-x="319" 
d="M217 0h-115l174 819h115z" />
    <glyph glyph-name="saraethai" unicode="&#xe40;" horiz-adv-x="319" 
d="M217 0h-115l174 819h115z" />
    <glyph glyph-name="saraaethai" unicode="&#xe1;" horiz-adv-x="557" 
d="M455 0h-115l174 819h115zM217 0h-115l174 819h115z" />
    <glyph glyph-name="saraaethai" unicode="&#xe41;" horiz-adv-x="557" 
d="M455 0h-115l174 819h115zM217 0h-115l174 819h115z" />
    <glyph glyph-name="saraothai" unicode="&#xe2;" horiz-adv-x="360" 
d="M715 1143l-251 4q-77 2 -83 -27q-5 -20 34 -61t26 -101l-203 -958h-115l201 950q11 49 -26 95.5t-28 91.5q11 49 61.5 81.5t134.5 30.5l271 -4z" />
    <glyph glyph-name="saraothai" unicode="&#xe42;" horiz-adv-x="360" 
d="M715 1143l-251 4q-77 2 -83 -27q-5 -20 34 -61t26 -101l-203 -958h-115l201 950q11 49 -26 95.5t-28 91.5q11 49 61.5 81.5t134.5 30.5l271 -4z" />
    <glyph glyph-name="saraaimaimuanthai" unicode="&#xe3;" horiz-adv-x="360" 
d="M570 1112q-9 -43 -67 -90t-69 -96l-196 -926h-115l198 934q13 63 69 105t62 69q13 59 -79 59q-113 0 -130 -104h-114q12 90 83 148.5t178 58.5q213 0 180 -158z" />
    <glyph glyph-name="saraaimaimuanthai" unicode="&#xe43;" horiz-adv-x="360" 
d="M570 1112q-9 -43 -67 -90t-69 -96l-196 -926h-115l198 934q13 63 69 105t62 69q13 59 -79 59q-113 0 -130 -104h-114q12 90 83 148.5t178 58.5q213 0 180 -158z" />
    <glyph glyph-name="saraaimaimalaithai" unicode="&#xe4;" horiz-adv-x="360" 
d="M536 1135q-6 -29 -43 -67t-43 -67l-212 -1001h-115l214 1008q7 36 43.5 67t38.5 41q3 14 -42 14h-24l-100 -53l-164 99l102 71l84 -57l83 43h49q148 0 129 -98z" />
    <glyph glyph-name="saraaimaimalaithai" unicode="&#xe44;" horiz-adv-x="360" 
d="M536 1135q-6 -29 -43 -67t-43 -67l-212 -1001h-115l214 1008q7 36 43.5 67t38.5 41q3 14 -42 14h-24l-100 -53l-164 99l102 71l84 -57l83 43h49q148 0 129 -98z" />
    <glyph glyph-name="lakkhangyaothai" unicode="&#xe5;" horiz-adv-x="420" 
d="M306 -244h-114l182 858q23 107 -131 107q-37 0 -82 -8l22 104q49 8 94 8q256 0 216 -188z" />
    <glyph glyph-name="lakkhangyaothai" unicode="&#xe45;" horiz-adv-x="420" 
d="M306 -244h-114l182 858q23 107 -131 107q-37 0 -82 -8l22 104q49 8 94 8q256 0 216 -188z" />
    <glyph glyph-name="maiyamokthai" unicode="&#xe6;" horiz-adv-x="727" 
d="M614 -244h-115l196 924l-143 -115l-137 150q-119 -13 -139 -105q-19 -92 100 -92q19 0 35 2l-23 -108q-125 -9 -187.5 43.5t-40.5 154.5q19 88 108.5 148.5t212.5 60.5l102 -108l142 108h115z" />
    <glyph glyph-name="maiyamokthai" unicode="&#xe46;" horiz-adv-x="727" 
d="M614 -244h-115l196 924l-143 -115l-137 150q-119 -13 -139 -105q-19 -92 100 -92q19 0 35 2l-23 -108q-125 -9 -187.5 43.5t-40.5 154.5q19 88 108.5 148.5t212.5 60.5l102 -108l142 108h115z" />
    <glyph glyph-name="maitaikhuthai" unicode="&#xe7;" 
d="M147 1110h-394q-109 0 -122 -61q-4 -23 11 -39h81l191 73l178 -79l-20 -95l-176 82l-177 -69h-141q-60 43 -43 127q14 65 77.5 108t160.5 43h394z" />
    <glyph glyph-name="maitaikhuthai" unicode="&#xe47;" 
d="M147 1110h-394q-109 0 -122 -61q-4 -23 11 -39h81l191 73l178 -79l-20 -95l-176 82l-177 -69h-141q-60 43 -43 127q14 65 77.5 108t160.5 43h394z" />
    <glyph glyph-name="maiekthai" unicode="&#xe8;" 
d="M191 1178h-115l32 153h115z" />
    <glyph glyph-name="maiekthai" unicode="&#xe48;" 
d="M191 1178h-115l32 153h115z" />
    <glyph glyph-name="maithothai" unicode="&#xe9;" 
d="M289 1178h-300l7 34q9 48 -39 48h-35l18 81h62q105 0 87 -81h217z" />
    <glyph glyph-name="maithothai" unicode="&#xe49;" 
d="M289 1178h-300l7 34q9 48 -39 48h-35l18 81h62q105 0 87 -81h217z" />
    <glyph glyph-name="maitrithai" unicode="&#xea;" 
d="M402 1178h-170l16 77q11 50 -34 50h-15l-98 -54l-76 54h-8q-44 0 -55 -50l-1 -4h54l-15 -73h-140l18 86q26 120 162 120h12l69 -49l91 49h12q136 0 110 -120l-1 -4h86z" />
    <glyph glyph-name="maitrithai" unicode="&#xe4a;" 
d="M402 1178h-170l16 77q11 50 -34 50h-15l-98 -54l-76 54h-8q-44 0 -55 -50l-1 -4h54l-15 -73h-140l18 86q26 120 162 120h12l69 -49l91 49h12q136 0 110 -120l-1 -4h86z" />
    <glyph glyph-name="maichattawathai" unicode="&#xeb;" 
d="M282 1255h-86l-16 -77h-94l16 77h-88l15 68h88l16 78h94l-16 -78h86z" />
    <glyph glyph-name="maichattawathai" unicode="&#xe4b;" 
d="M282 1255h-86l-16 -77h-94l16 77h-88l15 68h88l16 78h94l-16 -78h86z" />
    <glyph glyph-name="thanthakhatthai" unicode="&#xec;" 
d="M252 1190h-88q-66 0 -78 -57l-4 -19h-101l9 41q12 59 58 93t103 34h121z" />
    <glyph glyph-name="thanthakhatthai" unicode="&#xe4c;" 
d="M252 1190h-88q-66 0 -78 -57l-4 -19h-101l9 41q12 59 58 93t103 34h121z" />
    <glyph glyph-name="nikhahitthai" unicode="&#xed;" 
d="M214 1020q-10 -47 -49 -77t-90 -30t-77.5 30t-16.5 77t49 76.5t90 29.5t77.5 -29.5t16.5 -76.5zM146 1020q10 45 -39 45t-59 -45q-9 -45 40 -45t58 45z" />
    <glyph glyph-name="nikhahitthai" unicode="&#xe4d;" 
d="M214 1020q-10 -47 -49 -77t-90 -30t-77.5 30t-16.5 77t49 76.5t90 29.5t77.5 -29.5t16.5 -76.5zM146 1020q10 45 -39 45t-59 -45q-9 -45 40 -45t58 45z" />
    <glyph glyph-name="yamakkanthai" unicode="&#xee;" 
d="M360 1438q-38 4 -77 4q-219 0 -237 -84q-9 -41 112 -41l-20 -94q-30 4 -62 4q-77 0 -137 -22.5t-68 -59.5q-6 -29 43 -29q52 0 123 33l31 -82q-114 -55 -204 -45q-57 6 -83.5 38t-20.5 73q14 84 118 129q37 20 87 24q-39 21 -27 74q8 41 52 83t107 64q102 37 284 31z" />
    <glyph glyph-name="yamakkanthai" unicode="&#xe4e;" 
d="M360 1438q-38 4 -77 4q-219 0 -237 -84q-9 -41 112 -41l-20 -94q-30 4 -62 4q-77 0 -137 -22.5t-68 -59.5q-6 -29 43 -29q52 0 123 33l31 -82q-114 -55 -204 -45q-57 6 -83.5 38t-20.5 73q14 84 118 129q37 20 87 24q-39 21 -27 74q8 41 52 83t107 64q102 37 284 31z" />
    <glyph glyph-name="fongmanthai" unicode="&#xef;" horiz-adv-x="963" 
d="M988 410q-37 -174 -186 -296t-323 -122t-271 122t-60 296t186 296.5t323 122.5t271 -122.5t60 -296.5zM927 410q31 147 -52 252.5t-231 105.5q-147 0 -275 -105.5t-159 -252.5q-32 -148 51 -253.5t230 -105.5q148 0 276 105.5t160 253.5zM824 410q-23 -107 -113.5 -181.5
t-197.5 -74.5q-106 0 -165 74.5t-36 181.5q22 106 113 181t197 75q107 0 165.5 -75t36.5 -181z" />
    <glyph glyph-name="fongmanthai" unicode="&#xe4f;" horiz-adv-x="963" 
d="M988 410q-37 -174 -186 -296t-323 -122t-271 122t-60 296t186 296.5t323 122.5t271 -122.5t60 -296.5zM927 410q31 147 -52 252.5t-231 105.5q-147 0 -275 -105.5t-159 -252.5q-32 -148 51 -253.5t230 -105.5q148 0 276 105.5t160 253.5zM824 410q-23 -107 -113.5 -181.5
t-197.5 -74.5q-106 0 -165 74.5t-36 181.5q22 106 113 181t197 75q107 0 165.5 -75t36.5 -181z" />
    <glyph glyph-name="zerothai" unicode="&#xf0;" horiz-adv-x="774" 
d="M798 307q-29 -135 -144.5 -226t-269.5 -91t-230.5 91t-47.5 226q28 135 144 227.5t270 92.5t230 -92.5t48 -227.5zM686 307q19 92 -33.5 155.5t-156.5 63.5t-183 -63.5t-98 -155.5q-20 -92 32 -155.5t156 -63.5t183.5 63.5t99.5 155.5z" />
    <glyph glyph-name="zerothai" unicode="&#xe50;" horiz-adv-x="774" 
d="M798 307q-29 -135 -144.5 -226t-269.5 -91t-230.5 91t-47.5 226q28 135 144 227.5t270 92.5t230 -92.5t48 -227.5zM686 307q19 92 -33.5 155.5t-156.5 63.5t-183 -63.5t-98 -155.5q-20 -92 32 -155.5t156 -63.5t183.5 63.5t99.5 155.5z" />
    <glyph glyph-name="onethai" unicode="&#xf1;" horiz-adv-x="823" 
d="M848 311q-33 -153 -192 -266q-142 -100 -322 -127l-32 88q156 21 281.5 106t150.5 199q20 97 -40.5 156t-176.5 59q-109 0 -191 -55t-101 -143q-11 -54 13 -94.5t72 -51.5q-22 35 -10 94q13 60 69.5 104t121.5 44q66 0 103.5 -44t24.5 -104q-18 -86 -106 -144t-197 -58
q-115 0 -172 72.5t-34 181.5q28 133 149.5 216t276.5 83q172 0 257.5 -85t54.5 -231zM525 274q14 66 -52 66q-65 0 -79 -66q-14 -65 51 -65q66 0 80 65z" />
    <glyph glyph-name="onethai" unicode="&#xe51;" horiz-adv-x="823" 
d="M848 311q-33 -153 -192 -266q-142 -100 -322 -127l-32 88q156 21 281.5 106t150.5 199q20 97 -40.5 156t-176.5 59q-109 0 -191 -55t-101 -143q-11 -54 13 -94.5t72 -51.5q-22 35 -10 94q13 60 69.5 104t121.5 44q66 0 103.5 -44t24.5 -104q-18 -86 -106 -144t-197 -58
q-115 0 -172 72.5t-34 181.5q28 133 149.5 216t276.5 83q172 0 257.5 -85t54.5 -231zM525 274q14 66 -52 66q-65 0 -79 -66q-14 -65 51 -65q66 0 80 65z" />
    <glyph glyph-name="twothai" unicode="&#xf2;" horiz-adv-x="1114" 
d="M1090 188q-17 -82 -81.5 -135t-150.5 -53h-604q-86 0 -128.5 53t-25.5 135l101 471q15 72 -97 80l72 99q173 -21 145 -152l-103 -487q-21 -97 63 -97h592q84 0 105 97l48 227q21 100 -84 100q-38 0 -72.5 -22.5t-41.5 -54.5l-58 -271h-115l58 273q8 36 -23.5 55.5
t-76.5 19.5q-129 0 -149 -96q10 2 30 2q62 0 97 -39t23 -96t-63.5 -96t-113.5 -39q-61 0 -94.5 39t-21.5 96l27 129q20 94 106 152q78 51 181 51q108 0 163 -62q68 62 173 62q96 0 143.5 -51.5t28.5 -141.5zM522 297q11 55 -45 55q-53 0 -64 -55q-12 -55 41 -55q56 0 68 55z
" />
    <glyph glyph-name="twothai" unicode="&#xe52;" horiz-adv-x="1114" 
d="M1090 188q-17 -82 -81.5 -135t-150.5 -53h-604q-86 0 -128.5 53t-25.5 135l101 471q15 72 -97 80l72 99q173 -21 145 -152l-103 -487q-21 -97 63 -97h592q84 0 105 97l48 227q21 100 -84 100q-38 0 -72.5 -22.5t-41.5 -54.5l-58 -271h-115l58 273q8 36 -23.5 55.5
t-76.5 19.5q-129 0 -149 -96q10 2 30 2q62 0 97 -39t23 -96t-63.5 -96t-113.5 -39q-61 0 -94.5 39t-21.5 96l27 129q20 94 106 152q78 51 181 51q108 0 163 -62q68 62 173 62q96 0 143.5 -51.5t28.5 -141.5zM522 297q11 55 -45 55q-53 0 -64 -55q-12 -55 41 -55q56 0 68 55z
" />
    <glyph glyph-name="threethai" unicode="&#xf3;" horiz-adv-x="956" 
d="M895 0h-115l88 418q24 110 -86 110q-113 0 -132 -90l-93 -438h-115l93 442q19 86 -108 86q-61 0 -107 -31.5t-56 -80.5l-30 -142q24 7 46 7q66 0 104 -43t25 -103q-13 -61 -67.5 -102t-122.5 -41q-67 0 -105 41t-25 102l59 279q22 102 113 161q83 54 187 54
q119 0 172 -72q82 72 185 72q98 0 149.5 -52.5t30.5 -148.5zM317 135q6 27 -9.5 46.5t-42.5 19.5q-26 0 -49.5 -19.5t-29.5 -46.5q-14 -67 51 -67q66 0 80 67z" />
    <glyph glyph-name="threethai" unicode="&#xe53;" horiz-adv-x="956" 
d="M895 0h-115l88 418q24 110 -86 110q-113 0 -132 -90l-93 -438h-115l93 442q19 86 -108 86q-61 0 -107 -31.5t-56 -80.5l-30 -142q24 7 46 7q66 0 104 -43t25 -103q-13 -61 -67.5 -102t-122.5 -41q-67 0 -105 41t-25 102l59 279q22 102 113 161q83 54 187 54
q119 0 172 -72q82 72 185 72q98 0 149.5 -52.5t30.5 -148.5zM317 135q6 27 -9.5 46.5t-42.5 19.5q-26 0 -49.5 -19.5t-29.5 -46.5q-14 -67 51 -67q66 0 80 67z" />
    <glyph glyph-name="fourthai" unicode="&#xf4;" horiz-adv-x="885" 
d="M1064 844q-26 -131 -116 -227.5t-208 -102.5q-48 -2 -113 2q-85 6 -128 6q-99 2 -179.5 -58.5t-99.5 -160.5q-19 -98 39 -158q53 -53 143 -53q92 0 158 27q-30 6 -64 47q-49 55 -34 125q13 61 69 105t117 44q63 0 97.5 -42t21.5 -103q-17 -80 -100 -121q23 -24 111 -41
q81 -14 110 -55l-82 -82q-78 41 -154 41q-35 0 -121.5 -22.5t-157.5 -22.5q-137 0 -212 74q-87 84 -56 237q29 148 151 240q117 86 266 84q45 0 121 -6q55 -3 111 0q64 2 122 73q53 66 73 150h115zM678 293q14 65 -47 65q-27 0 -49.5 -19.5t-27.5 -45.5q-6 -25 8.5 -43.5
t41.5 -18.5q61 0 74 62z" />
    <glyph glyph-name="fourthai" unicode="&#xe54;" horiz-adv-x="885" 
d="M1064 844q-26 -131 -116 -227.5t-208 -102.5q-48 -2 -113 2q-85 6 -128 6q-99 2 -179.5 -58.5t-99.5 -160.5q-19 -98 39 -158q53 -53 143 -53q92 0 158 27q-30 6 -64 47q-49 55 -34 125q13 61 69 105t117 44q63 0 97.5 -42t21.5 -103q-17 -80 -100 -121q23 -24 111 -41
q81 -14 110 -55l-82 -82q-78 41 -154 41q-35 0 -121.5 -22.5t-157.5 -22.5q-137 0 -212 74q-87 84 -56 237q29 148 151 240q117 86 266 84q45 0 121 -6q55 -3 111 0q64 2 122 73q53 66 73 150h115zM678 293q14 65 -47 65q-27 0 -49.5 -19.5t-27.5 -45.5q-6 -25 8.5 -43.5
t41.5 -18.5q61 0 74 62z" />
    <glyph glyph-name="fivethai" unicode="&#xf5;" horiz-adv-x="885" 
d="M1064 844q-26 -131 -116 -227.5t-208 -102.5q-48 -2 -113 2q-85 6 -128 6q-99 2 -179.5 -58.5t-99.5 -160.5q-19 -98 39 -158q53 -53 143 -53q92 0 158 27q-30 6 -64 47q-49 55 -34 125q13 61 69 105t117 44q63 0 97.5 -42t21.5 -103q-17 -80 -100 -121q23 -24 111 -41
q81 -14 110 -55l-82 -82q-78 41 -154 41q-35 0 -121.5 -22.5t-157.5 -22.5q-137 0 -212 74q-85 84 -56 237q24 121 112 207q84 80 202 106q-17 27 -8 70q14 66 71.5 109t131.5 43t112.5 -43t24.5 -109q-9 -43 -36 -65h39q64 2 122 73q53 66 73 150h115zM654 690
q6 27 -11 47.5t-46 20.5q-28 0 -54 -20.5t-32 -47.5q-5 -26 12 -46.5t45 -20.5q29 0 55 20.5t31 46.5zM680 295q14 63 -49 63t-77 -63q-13 -64 50 -64t76 64z" />
    <glyph glyph-name="fivethai" unicode="&#xe55;" horiz-adv-x="885" 
d="M1064 844q-26 -131 -116 -227.5t-208 -102.5q-48 -2 -113 2q-85 6 -128 6q-99 2 -179.5 -58.5t-99.5 -160.5q-19 -98 39 -158q53 -53 143 -53q92 0 158 27q-30 6 -64 47q-49 55 -34 125q13 61 69 105t117 44q63 0 97.5 -42t21.5 -103q-17 -80 -100 -121q23 -24 111 -41
q81 -14 110 -55l-82 -82q-78 41 -154 41q-35 0 -121.5 -22.5t-157.5 -22.5q-137 0 -212 74q-85 84 -56 237q24 121 112 207q84 80 202 106q-17 27 -8 70q14 66 71.5 109t131.5 43t112.5 -43t24.5 -109q-9 -43 -36 -65h39q64 2 122 73q53 66 73 150h115zM654 690
q6 27 -11 47.5t-46 20.5q-28 0 -54 -20.5t-32 -47.5q-5 -26 12 -46.5t45 -20.5q29 0 55 20.5t31 46.5zM680 295q14 63 -49 63t-77 -63q-13 -64 50 -64t76 64z" />
    <glyph glyph-name="sixthai" unicode="&#xf6;" horiz-adv-x="831" 
d="M857 315q-30 -141 -159.5 -234t-290.5 -93q-146 0 -223 74.5t-57 168.5q13 64 66.5 104t116.5 40q64 0 99.5 -40t22.5 -102q-17 -81 -105 -120q32 -21 102 -21q110 0 201.5 62.5t111.5 160.5q20 93 -39.5 152t-161.5 59q-162 0 -252 -108h-95q15 209 -131 362l108 64
q128 -119 140 -285q108 74 259 74q154 0 236 -88t51 -230zM345 236q13 63 -51 63q-63 0 -76 -63q-14 -64 49 -64q64 0 78 64z" />
    <glyph glyph-name="sixthai" unicode="&#xe56;" horiz-adv-x="831" 
d="M857 315q-30 -141 -159.5 -234t-290.5 -93q-146 0 -223 74.5t-57 168.5q13 64 66.5 104t116.5 40q64 0 99.5 -40t22.5 -102q-17 -81 -105 -120q32 -21 102 -21q110 0 201.5 62.5t111.5 160.5q20 93 -39.5 152t-161.5 59q-162 0 -252 -108h-95q15 209 -131 362l108 64
q128 -119 140 -285q108 74 259 74q154 0 236 -88t51 -230zM345 236q13 63 -51 63q-63 0 -76 -63q-14 -64 49 -64q64 0 78 64z" />
    <glyph glyph-name="seventhai" unicode="&#xf7;" horiz-adv-x="1171" 
d="M1395 776q-100 -49 -139 -145q-13 -33 -21 -68q-6 -28 -14 -106q-6 -68 -20 -113q-42 -139 -134 -230t-203 -114h-84l88 418q24 110 -86 110q-113 0 -132 -90l-93 -438h-115l93 442q19 86 -108 86q-61 0 -107 -31.5t-56 -80.5l-30 -142q24 7 46 7q66 0 104 -43t25 -103
q-13 -61 -67.5 -102t-122.5 -41q-67 0 -105 41t-25 102l59 279q22 102 113 161q83 54 187 54q119 0 172 -72q82 72 185 72q98 0 149.5 -52.5t30.5 -148.5l-65 -309q125 59 167 227q13 51 22 123q8 80 14 109q8 38 23 73q43 109 172 193zM317 135q6 27 -9.5 46.5t-42.5 19.5
q-26 0 -49.5 -19.5t-29.5 -46.5q-14 -67 51 -67q66 0 80 67z" />
    <glyph glyph-name="seventhai" unicode="&#xe57;" horiz-adv-x="1171" 
d="M1395 776q-100 -49 -139 -145q-13 -33 -21 -68q-6 -28 -14 -106q-6 -68 -20 -113q-42 -139 -134 -230t-203 -114h-84l88 418q24 110 -86 110q-113 0 -132 -90l-93 -438h-115l93 442q19 86 -108 86q-61 0 -107 -31.5t-56 -80.5l-30 -142q24 7 46 7q66 0 104 -43t25 -103
q-13 -61 -67.5 -102t-122.5 -41q-67 0 -105 41t-25 102l59 279q22 102 113 161q83 54 187 54q119 0 172 -72q82 72 185 72q98 0 149.5 -52.5t30.5 -148.5l-65 -309q125 59 167 227q13 51 22 123q8 80 14 109q8 38 23 73q43 109 172 193zM317 135q6 27 -9.5 46.5t-42.5 19.5
q-26 0 -49.5 -19.5t-29.5 -46.5q-14 -67 51 -67q66 0 80 67z" />
    <glyph glyph-name="eightthai" unicode="&#xf8;" horiz-adv-x="901" 
d="M1082 844q-102 -332 -295 -340q-52 -2 -137 10q-93 12 -144 12q-106 0 -183 -51t-97 -143q-16 -76 14 -139q25 -54 71 -78l159 159q92 -174 163 -174q29 0 62 31q-103 27 -80 133q11 55 63 96t112 41q61 0 97.5 -38.5t23.5 -100.5q-21 -98 -118 -183t-193 -85
q-76 0 -164 110l-107 -114q-124 20 -185.5 112.5t-32.5 229.5q30 141 145.5 220t274.5 79q45 0 132 -10q78 -11 122 -9q114 6 182 232h115zM816 264q11 55 -44 55q-56 0 -67 -55q-12 -55 44 -55q55 0 67 55z" />
    <glyph glyph-name="eightthai" unicode="&#xe58;" horiz-adv-x="901" 
d="M1082 844q-102 -332 -295 -340q-52 -2 -137 10q-93 12 -144 12q-106 0 -183 -51t-97 -143q-16 -76 14 -139q25 -54 71 -78l159 159q92 -174 163 -174q29 0 62 31q-103 27 -80 133q11 55 63 96t112 41q61 0 97.5 -38.5t23.5 -100.5q-21 -98 -118 -183t-193 -85
q-76 0 -164 110l-107 -114q-124 20 -185.5 112.5t-32.5 229.5q30 141 145.5 220t274.5 79q45 0 132 -10q78 -11 122 -9q114 6 182 232h115zM816 264q11 55 -44 55q-56 0 -67 -55q-12 -55 44 -55q55 0 67 55z" />
    <glyph glyph-name="ninethai" unicode="&#xf9;" horiz-adv-x="995" 
d="M1220 848q-4 -35 -12 -72q-44 -207 -178 -342l-75 25q8 76 -70 76q-33 0 -59.5 -25t-32.5 -53q75 -168 50 -451l-118 -14q43 543 -235 543q-94 0 -170.5 -61.5t-96.5 -154.5q-29 -137 57 -202q-3 22 3 51q13 61 69.5 105t122.5 44q65 0 102.5 -44t24.5 -105
q-17 -80 -89 -129t-160 -49q-147 0 -213 100q-61 92 -32 229q30 138 144.5 230t254.5 92q155 0 231 -90q63 86 162 90q92 2 132 -51q60 110 74 258h114zM508 168q6 27 -9.5 46t-41.5 19q-27 0 -50.5 -19t-29.5 -46q-14 -68 52 -68q65 0 79 68z" />
    <glyph glyph-name="ninethai" unicode="&#xe59;" horiz-adv-x="995" 
d="M1220 848q-4 -35 -12 -72q-44 -207 -178 -342l-75 25q8 76 -70 76q-33 0 -59.5 -25t-32.5 -53q75 -168 50 -451l-118 -14q43 543 -235 543q-94 0 -170.5 -61.5t-96.5 -154.5q-29 -137 57 -202q-3 22 3 51q13 61 69.5 105t122.5 44q65 0 102.5 -44t24.5 -105
q-17 -80 -89 -129t-160 -49q-147 0 -213 100q-61 92 -32 229q30 138 144.5 230t254.5 92q155 0 231 -90q63 86 162 90q92 2 132 -51q60 110 74 258h114zM508 168q6 27 -9.5 46t-41.5 19q-27 0 -50.5 -19t-29.5 -46q-14 -68 52 -68q65 0 79 68z" />
    <glyph glyph-name="angkhankhuthai" unicode="&#xfa;" horiz-adv-x="918" 
d="M856 0h-113l174 819h113zM662 0h-113l127 598q-53 -53 -133 -90q-93 -45 -183 -45q-92 0 -148 47q-62 53 -42 145q17 82 101 131q74 41 168 41q60 0 103 -18l-24 -113q-45 33 -108 33q-113 0 -129 -76q-8 -41 23 -64.5t80 -23.5q115 0 203 70t134 184h115z" />
    <glyph glyph-name="angkhankhuthai" unicode="&#xe5a;" horiz-adv-x="918" 
d="M856 0h-113l174 819h113zM662 0h-113l127 598q-53 -53 -133 -90q-93 -45 -183 -45q-92 0 -148 47q-62 53 -42 145q17 82 101 131q74 41 168 41q60 0 103 -18l-24 -113q-45 33 -108 33q-113 0 -129 -76q-8 -41 23 -64.5t80 -23.5q115 0 203 70t134 184h115z" />
    <glyph glyph-name="khomutthai" unicode="&#xfb;" horiz-adv-x="1393" 
d="M1460 434q-7 -31 -63 -37l-105 -10q-30 -57 -61 -57q-20 0 -45 69q-46 -92 -79 -92q-24 0 -49 105q-57 -125 -92 -125q-16 0 -27.5 44t-20.5 89q-68 -158 -118 -158q-34 0 -36 53q1 33 -5 99q-62 -138 -159 -226q-123 -112 -250 -112q-121 0 -177 94t-25 244
q31 145 124 243.5t199 98.5q88 0 135.5 -72t24.5 -178q-18 -84 -68.5 -137.5t-109.5 -53.5q-51 0 -78.5 40t-15.5 94q11 53 57 94t93 41q14 0 20 -2q-16 80 -76 80q-63 0 -122 -72t-83 -184q-23 -109 14 -173.5t117 -64.5q94 0 184.5 95t145.5 253q30 82 75 82q48 0 67 -149
q50 131 81 131q47 0 66 -119q39 82 63 82q39 0 71 -107q40 78 73 78q28 0 47 -63q24 32 53 28l108 -14q52 -6 47 -31zM529 449q13 61 -36 61t-62 -61q-13 -60 36 -60t62 60z" />
    <glyph glyph-name="khomutthai" unicode="&#xe5b;" horiz-adv-x="1393" 
d="M1460 434q-7 -31 -63 -37l-105 -10q-30 -57 -61 -57q-20 0 -45 69q-46 -92 -79 -92q-24 0 -49 105q-57 -125 -92 -125q-16 0 -27.5 44t-20.5 89q-68 -158 -118 -158q-34 0 -36 53q1 33 -5 99q-62 -138 -159 -226q-123 -112 -250 -112q-121 0 -177 94t-25 244
q31 145 124 243.5t199 98.5q88 0 135.5 -72t24.5 -178q-18 -84 -68.5 -137.5t-109.5 -53.5q-51 0 -78.5 40t-15.5 94q11 53 57 94t93 41q14 0 20 -2q-16 80 -76 80q-63 0 -122 -72t-83 -184q-23 -109 14 -173.5t117 -64.5q94 0 184.5 95t145.5 253q30 82 75 82q48 0 67 -149
q50 131 81 131q47 0 66 -119q39 82 63 82q39 0 71 -107q40 78 73 78q28 0 47 -63q24 32 53 28l108 -14q52 -6 47 -31zM529 449q13 61 -36 61t-62 -61q-13 -60 36 -60t62 60z" />
    <glyph glyph-name="saraulowthai" unicode="&#xfc;" 
d="M-184 -592h-115l33 156h-62l19 90h177z" />
    <glyph glyph-name="saraulowthai" unicode="&#xf718;" 
d="M-184 -592h-115l33 156h-62l19 90h177z" />
    <glyph glyph-name="sarauulowthai" unicode="&#xfd;" 
d="M-160 -477q-29 -135 -212 -135q-182 0 -153 135l9 41h-41l19 90h156l-27 -125q-11 -53 56 -53q68 0 79 53l27 125h115z" />
    <glyph glyph-name="sarauulowthai" unicode="&#xf719;" 
d="M-160 -477q-29 -135 -212 -135q-182 0 -153 135l9 41h-41l19 90h156l-27 -125q-11 -53 56 -53q68 0 79 53l27 125h115z" />
    <glyph glyph-name="phinthulowthai" unicode="&#xfe;" 
d="M-150 -430q-7 -35 -37.5 -59.5t-64.5 -24.5q-35 0 -54 24.5t-12 59.5q8 35 37.5 59.5t64.5 24.5q34 0 54 -24.5t12 -59.5z" />
    <glyph glyph-name="phinthulowthai" unicode="&#xf71a;" 
d="M-150 -430q-7 -35 -37.5 -59.5t-64.5 -24.5q-35 0 -54 24.5t-12 59.5q8 35 37.5 59.5t64.5 24.5q34 0 54 -24.5t12 -59.5z" />
    <glyph glyph-name="Naipol" unicode="&#xff;" horiz-adv-x="1942" 
 />
    <glyph glyph-name="dochadathai.short" unicode="&#x12a;" horiz-adv-x="864" 
d="M677 -278h-114l-95 119l-163 -119h-248l23 104h200l217 152l99 -103l145 682q37 174 -185 174q-86 0 -154 -33.5t-89 -79.5q57 -51 50 -83q-5 -23 -39 -58t-40 -63l-87 -414h-187l22 104h72l67 318q6 27 44 58.5t42 47.5q5 27 -71 72q31 105 147 170q110 64 247 64
q144 0 221 -62q84 -72 56 -203z" />
    <glyph glyph-name="dochadathai.short" unicode="&#xf71b;" horiz-adv-x="864" 
d="M677 -278h-114l-95 119l-163 -119h-248l23 104h200l217 152l99 -103l145 682q37 174 -185 174q-86 0 -154 -33.5t-89 -79.5q57 -51 50 -83q-5 -23 -39 -58t-40 -63l-87 -414h-187l22 104h72l67 318q6 27 44 58.5t42 47.5q5 27 -71 72q31 105 147 170q110 64 247 64
q144 0 221 -62q84 -72 56 -203z" />
    <glyph glyph-name="topatakthai.short" unicode="&#x12b;" horiz-adv-x="864" 
d="M676 -284h-114l-65 100l-130 -119l-83 119l-114 -100h-185l21 104h135l178 148l80 -111l133 111l65 -90l144 679q37 174 -185 174q-86 0 -154 -33.5t-89 -79.5q57 -51 50 -83q-5 -23 -39 -58t-40 -63l-87 -414h-187l22 104h72l67 318q6 27 44 58.5t42 47.5q5 27 -71 72
q31 105 147 170q110 64 247 64q144 0 221 -62q84 -72 56 -203z" />
    <glyph glyph-name="topatakthai.short" unicode="&#xf71c;" horiz-adv-x="864" 
d="M676 -284h-114l-65 100l-130 -119l-83 119l-114 -100h-185l21 104h135l178 148l80 -111l133 111l65 -90l144 679q37 174 -185 174q-86 0 -154 -33.5t-89 -79.5q57 -51 50 -83q-5 -23 -39 -58t-40 -63l-87 -414h-187l22 104h72l67 318q6 27 44 58.5t42 47.5q5 27 -71 72
q31 105 147 170q110 64 247 64q144 0 221 -62q84 -72 56 -203z" />
    <glyph glyph-name="PU2005" unicode="&#xe3e;" 
 />
    <glyph glyph-name="ZWSP" unicode="&#x200b;" 
 />
    <glyph glyph-name="uni25CC" unicode="&#x25cc;" horiz-adv-x="1372" 
d="M299 168l93 162q30 -65 80 -109zM935 1174l44 -152q-19 2 -36.5 3t-34.5 1q-42 0 -84 -6zM686 0l-43 141q37 -6 75 -6q35 0 67 6zM1398 584l-159 -68q15 33 21 66q9 37 7 75zM225 590l168 74q-14 -39 -24 -82q-8 -38 -9 -70zM500 1006l141 -56q-35 -20 -67.5 -45.5
t-61.5 -56.5zM1120 168l-129 47q34 20 63 44t55 50zM1321 1006l-91 -160q-31 60 -87 104z" />
    <glyph glyph-name="lochula.short" unicode="&#xf71d;" horiz-adv-x="929" 
d="M1098 969q-18 -154 -159 -201q95 -45 67 -176l-76 -359q-52 -245 -267 -245q-144 0 -173 102q-81 -102 -219 -102q-213 0 -161 245l125 586h115l-121 -569q-35 -162 78 -162q125 0 163 176l75 357h114l-75 -357q-38 -176 87 -176q113 0 148 162l75 356q11 48 -14 82.5
t-72 34.5h-241l22 103h239q135 0 157 143h113z" />
    <glyph glyph-name="saraamthaileft" horiz-adv-x="476" 
d="M-158 1020q-10 -47 -49 -77t-90 -30t-78 30t-17 77t49.5 76.5t90.5 29.5t77.5 -29.5t16.5 -76.5zM358 0h-114l130 614q23 107 -131 107q-37 0 -82 -8l22 104q49 8 94 8q256 0 216 -188zM-226 1020q10 45 -39 45t-59 -45q-9 -45 40 -45t58 45z" />
    <glyph glyph-name="yamakkanleftthai" 
d="M-261 1233q-27 24 -19 59q15 72 115 119q88 41 165 41q60 0 122 -20q17 -9 14 -29q-8 -33 -38 -33q-2 0 -10 2q-24 10 -49.5 14.5t-51.5 4.5q-47 0 -117 -27q-80 -33 -89 -72q-3 -15 67 -43q24 -7 19 -28q-6 -31 -40 -31q-2 0 -8.5 1t-10.5 1q-39 0 -88 -33t-55 -59
q-7 -33 17 -53.5t66 -20.5q84 0 132 61q11 17 27 17q33 0 27 -31q-2 -8 -7 -14q-73 -94 -192 -94q-59 0 -101 30q-47 39 -33 105q18 83 138 133z" />
    </font>
</defs>
</svg>
